G75*
G70*
%OFA0B0*%
%FSLAX24Y24*%
%IPPOS*%
%LPD*%
%AMOC8*
5,1,8,0,0,1.08239X$1,22.5*
%
%ADD10O,0.0600X0.1120*%
%ADD11OC8,0.0600*%
%ADD12C,0.0830*%
%ADD13OC8,0.0830*%
%ADD14O,0.1120X0.0600*%
%ADD15C,0.0480*%
%ADD16C,0.0476*%
D10*
X005727Y002434D03*
X006727Y002434D03*
X007727Y002434D03*
X008727Y002434D03*
X009727Y002434D03*
X010727Y002434D03*
X011727Y002434D03*
X012727Y002434D03*
X013727Y002434D03*
X014727Y002434D03*
X015727Y002434D03*
X016727Y002434D03*
X014227Y004034D03*
X013227Y004034D03*
X012227Y004034D03*
X011227Y004034D03*
X010227Y004034D03*
X009227Y004034D03*
X008227Y004034D03*
X007227Y004034D03*
X007227Y007034D03*
X008227Y007034D03*
X009227Y007034D03*
X010227Y007034D03*
X011227Y007034D03*
X012227Y007034D03*
X013227Y007034D03*
X014227Y007034D03*
X014227Y008534D03*
X013227Y008534D03*
X012227Y008534D03*
X011227Y008534D03*
X010227Y008534D03*
X009227Y008534D03*
X008227Y008534D03*
X007227Y008534D03*
X007227Y011534D03*
X008227Y011534D03*
X009227Y011534D03*
X010227Y011534D03*
X011227Y011534D03*
X012227Y011534D03*
X013227Y011534D03*
X014227Y011534D03*
X014427Y013634D03*
X013427Y013634D03*
X012427Y013634D03*
X011427Y013634D03*
X010427Y013634D03*
X009427Y013634D03*
X008427Y013634D03*
X008427Y016634D03*
X009427Y016634D03*
X010427Y016634D03*
X011427Y016634D03*
X012427Y016634D03*
X013427Y016634D03*
X014427Y016634D03*
X015427Y016634D03*
X015727Y018334D03*
X014727Y018334D03*
X013727Y018334D03*
X012727Y018334D03*
X011727Y018334D03*
X010727Y018334D03*
X009727Y018334D03*
X008727Y018334D03*
X007727Y018334D03*
X006727Y018334D03*
X005727Y018334D03*
X015427Y013634D03*
X016727Y018334D03*
D11*
X003727Y002434D03*
X004727Y002434D03*
X005527Y009734D03*
X005527Y010734D03*
X015827Y010234D03*
X017827Y010234D03*
D12*
X004427Y010334D03*
D13*
X002427Y010334D03*
D14*
X005527Y008634D03*
X005527Y007634D03*
X005527Y006634D03*
X005527Y005634D03*
X005527Y004634D03*
X005527Y003634D03*
X005527Y012134D03*
X005527Y013134D03*
X005527Y014134D03*
X005527Y015134D03*
X005527Y016134D03*
X005527Y017134D03*
X017327Y017134D03*
X017327Y016134D03*
X017327Y015134D03*
X017327Y014134D03*
X017327Y013134D03*
X017327Y012134D03*
X017327Y008634D03*
X017327Y007634D03*
X017327Y006634D03*
X017327Y005634D03*
X017327Y004634D03*
X017327Y003634D03*
D15*
X013727Y009334D03*
X010077Y010584D03*
X006727Y012934D03*
X006727Y014134D03*
X007727Y016434D03*
D16*
X018327Y012634D03*
M02*
