G75*
G70*
%OFA0B0*%
%FSLAX24Y24*%
%IPPOS*%
%LPD*%
%AMOC8*
5,1,8,0,0,1.08239X$1,22.5*
%
%ADD10C,0.0060*%
%ADD11C,0.0030*%
%ADD12O,0.0520X0.1040*%
%ADD13OC8,0.0520*%
%ADD14C,0.0750*%
%ADD15OC8,0.0750*%
%ADD16O,0.1040X0.0520*%
%ADD17C,0.0240*%
%ADD18C,0.0100*%
%ADD19C,0.0160*%
%ADD20C,0.0400*%
%ADD21C,0.0396*%
D10*
X002206Y005131D02*
X002323Y005014D01*
X002206Y005131D02*
X002206Y005364D01*
X002323Y005481D01*
X002440Y005481D01*
X002907Y005014D01*
X002907Y005481D01*
X002907Y005714D02*
X002206Y006181D01*
X002206Y006414D02*
X002206Y006764D01*
X002323Y006881D01*
X002790Y006881D01*
X002907Y006764D01*
X002907Y006414D01*
X002206Y006414D01*
X002206Y005714D02*
X002907Y006181D01*
X002907Y012681D02*
X002206Y012681D01*
X002907Y013148D01*
X002206Y013148D01*
X002206Y013381D02*
X002206Y013614D01*
X002206Y013498D02*
X002907Y013498D01*
X002907Y013614D02*
X002907Y013381D01*
X002907Y013847D02*
X002206Y014314D01*
X002206Y014547D02*
X002206Y014781D01*
X002206Y014664D02*
X002907Y014664D01*
X002907Y014547D02*
X002907Y014781D01*
X002907Y015014D02*
X002907Y015481D01*
X002557Y015247D02*
X002557Y015014D01*
X002907Y015014D02*
X002206Y015014D01*
X002206Y015481D01*
X002907Y014314D02*
X002206Y013847D01*
D11*
X002434Y018025D02*
X002496Y018025D01*
X002557Y018087D01*
X002557Y018395D01*
X002372Y018395D01*
X002310Y018334D01*
X002310Y018210D01*
X002372Y018149D01*
X002557Y018149D01*
X002679Y018149D02*
X002802Y018149D01*
X002740Y018149D02*
X002740Y018395D01*
X002679Y018395D01*
X002740Y018519D02*
X002740Y018581D01*
X003292Y018519D02*
X003354Y018519D01*
X003354Y018149D01*
X003292Y018149D02*
X003416Y018149D01*
X003538Y018210D02*
X003538Y018395D01*
X003538Y018210D02*
X003600Y018149D01*
X003785Y018149D01*
X003785Y018395D01*
X003906Y018395D02*
X003906Y018149D01*
X004030Y018149D02*
X004030Y018334D01*
X004091Y018395D01*
X004153Y018334D01*
X004153Y018149D01*
X004275Y018210D02*
X004275Y018334D01*
X004336Y018395D01*
X004460Y018395D01*
X004521Y018334D01*
X004521Y018272D01*
X004275Y018272D01*
X004275Y018210D02*
X004336Y018149D01*
X004460Y018149D01*
X004643Y018149D02*
X004643Y018395D01*
X004828Y018395D01*
X004890Y018334D01*
X004890Y018149D01*
X004030Y018334D02*
X003968Y018395D01*
X003906Y018395D01*
X002189Y018334D02*
X002189Y018210D01*
X002127Y018149D01*
X002004Y018149D01*
X001942Y018210D01*
X001942Y018334D01*
X002004Y018395D01*
X002127Y018395D01*
X002189Y018334D01*
D12*
X005727Y018334D03*
X006727Y018334D03*
X007727Y018334D03*
X008727Y018334D03*
X009727Y018334D03*
X010727Y018334D03*
X011727Y018334D03*
X012727Y018334D03*
X013727Y018334D03*
X014727Y018334D03*
X015727Y018334D03*
X016727Y018334D03*
X015427Y016634D03*
X014427Y016634D03*
X013427Y016634D03*
X012427Y016634D03*
X011427Y016634D03*
X010427Y016634D03*
X009427Y016634D03*
X008427Y016634D03*
X008427Y013634D03*
X009427Y013634D03*
X010427Y013634D03*
X011427Y013634D03*
X012427Y013634D03*
X013427Y013634D03*
X014427Y013634D03*
X015427Y013634D03*
X014227Y011534D03*
X013227Y011534D03*
X012227Y011534D03*
X011227Y011534D03*
X010227Y011534D03*
X009227Y011534D03*
X008227Y011534D03*
X007227Y011534D03*
X007227Y008534D03*
X008227Y008534D03*
X009227Y008534D03*
X010227Y008534D03*
X011227Y008534D03*
X012227Y008534D03*
X013227Y008534D03*
X014227Y008534D03*
X014227Y007034D03*
X013227Y007034D03*
X012227Y007034D03*
X011227Y007034D03*
X010227Y007034D03*
X009227Y007034D03*
X008227Y007034D03*
X007227Y007034D03*
X007227Y004034D03*
X008227Y004034D03*
X009227Y004034D03*
X010227Y004034D03*
X011227Y004034D03*
X012227Y004034D03*
X013227Y004034D03*
X014227Y004034D03*
X014727Y002434D03*
X013727Y002434D03*
X012727Y002434D03*
X011727Y002434D03*
X010727Y002434D03*
X009727Y002434D03*
X008727Y002434D03*
X007727Y002434D03*
X006727Y002434D03*
X005727Y002434D03*
X015727Y002434D03*
X016727Y002434D03*
D13*
X015827Y010234D03*
X017827Y010234D03*
X005527Y010734D03*
X005527Y009734D03*
X004727Y002434D03*
X003727Y002434D03*
D14*
X004427Y010334D03*
D15*
X002427Y010334D03*
D16*
X005527Y008634D03*
X005527Y007634D03*
X005527Y006634D03*
X005527Y005634D03*
X005527Y004634D03*
X005527Y003634D03*
X005527Y012134D03*
X005527Y013134D03*
X005527Y014134D03*
X005527Y015134D03*
X005527Y016134D03*
X005527Y017134D03*
X017327Y017134D03*
X017327Y016134D03*
X017327Y015134D03*
X017327Y014134D03*
X017327Y013134D03*
X017327Y012134D03*
X017327Y008634D03*
X017327Y007634D03*
X017327Y006634D03*
X017327Y005634D03*
X017327Y004634D03*
X017327Y003634D03*
D17*
X015877Y002434D02*
X015877Y006284D01*
X015227Y006884D01*
X014327Y006884D01*
X013777Y007784D02*
X014327Y008234D01*
X013727Y009334D02*
X011927Y009334D01*
X011327Y008734D01*
X011777Y007784D02*
X012327Y008234D01*
X012777Y007784D02*
X012327Y007234D01*
X010777Y007784D02*
X010327Y007234D01*
X008827Y006134D02*
X008327Y006734D01*
X008827Y006134D02*
X015327Y006134D01*
X015327Y003234D01*
X014927Y002534D01*
X014827Y003334D02*
X014327Y003234D01*
X013827Y002734D01*
X014827Y003334D02*
X014827Y005584D01*
X008327Y005584D01*
X007327Y006734D01*
X006527Y007634D02*
X005527Y007634D01*
X003927Y007334D01*
X003927Y004634D01*
X005527Y004634D01*
X006127Y005034D01*
X011127Y005034D01*
X011327Y004234D01*
X012227Y003984D02*
X012277Y003934D01*
X012227Y003984D02*
X010727Y002484D01*
X011727Y002434D02*
X013327Y004134D01*
X013227Y003984D01*
X013177Y004034D01*
X014227Y004034D02*
X014277Y004034D01*
X012677Y002434D01*
X012727Y002434D01*
X016827Y006734D02*
X016527Y007234D01*
X016527Y011034D01*
X015327Y011034D01*
X014877Y010534D01*
X013777Y010534D01*
X012927Y010234D01*
X010527Y010234D01*
X010177Y010034D01*
X006727Y010034D01*
X006327Y009734D01*
X005527Y009734D01*
X006027Y010234D02*
X006327Y010734D01*
X007727Y010734D01*
X008327Y011234D01*
X007327Y011734D02*
X006727Y012034D01*
X005727Y012034D01*
X006727Y012934D02*
X007427Y012334D01*
X008727Y012334D01*
X009327Y011734D01*
X010327Y011734D02*
X009377Y012784D01*
X007877Y012784D01*
X006827Y013634D01*
X006127Y013634D01*
X005727Y014234D02*
X006327Y014634D01*
X016227Y014634D01*
X017327Y014134D01*
X017227Y015184D02*
X004377Y015184D01*
X004377Y013634D01*
X004877Y013634D01*
X003777Y011884D02*
X003777Y016084D01*
X005177Y016984D01*
X005527Y017184D01*
X005827Y018234D01*
X005877Y018234D02*
X005527Y017184D01*
X005827Y016234D02*
X006327Y015734D01*
X016327Y015734D01*
X016827Y016234D01*
X017327Y016134D01*
X016127Y012834D02*
X011827Y012834D01*
X011327Y013234D01*
X012477Y012384D02*
X012327Y011734D01*
X012477Y012384D02*
X015577Y012384D01*
X016027Y012134D01*
X017327Y012134D01*
X016677Y012634D02*
X016127Y012834D01*
X014227Y011534D02*
X018327Y011534D01*
X018327Y012634D01*
X015827Y010234D02*
X015277Y009934D01*
X013827Y009934D01*
X012977Y009784D01*
X010727Y009784D01*
X010327Y009534D01*
X007027Y009534D01*
X006527Y009234D01*
X006527Y007634D01*
X005327Y008734D02*
X003827Y008734D01*
X002327Y010234D01*
X003777Y011884D02*
X005327Y010734D01*
X007827Y014134D02*
X008427Y013634D01*
X007827Y014134D02*
X006727Y014134D01*
X007727Y016434D02*
X007727Y018234D01*
X013327Y011234D02*
X012627Y010684D01*
X010527Y010684D01*
X010127Y010584D01*
X010077Y010584D01*
X005827Y002734D02*
X005227Y003034D01*
X004227Y003034D01*
X003827Y002734D01*
D18*
X003827Y002234D01*
X003727Y002434D01*
X005727Y002434D02*
X005827Y002734D01*
X007327Y006734D02*
X007227Y007034D01*
X008227Y007034D02*
X008327Y006734D01*
X010227Y007034D02*
X010327Y007234D01*
X011227Y008534D02*
X011327Y008734D01*
X012227Y008534D02*
X012327Y008234D01*
X012327Y007234D02*
X012227Y007034D01*
X014227Y007034D02*
X014327Y006884D01*
X014327Y008234D02*
X014227Y008534D01*
X013327Y011234D02*
X013227Y011534D01*
X012327Y011734D02*
X012227Y011534D01*
X011327Y013234D02*
X011427Y013634D01*
X010327Y011734D02*
X010227Y011534D01*
X009327Y011734D02*
X009227Y011534D01*
X008327Y011234D02*
X008227Y011534D01*
X007327Y011734D02*
X007227Y011534D01*
X005727Y012034D02*
X005527Y012134D01*
X005527Y010734D02*
X005327Y010734D01*
X004427Y010334D02*
X004327Y010234D01*
X005327Y009734D02*
X005527Y009734D01*
X005327Y008734D02*
X005527Y008634D01*
X002427Y010334D02*
X002327Y010234D01*
X004877Y013634D02*
X006127Y013634D01*
X005727Y014234D02*
X005527Y014134D01*
X005527Y015134D02*
X004377Y015184D01*
X004427Y015234D01*
X005327Y015234D01*
X005527Y015134D01*
X005527Y016134D02*
X005827Y016234D01*
X005827Y018234D02*
X005727Y018334D01*
X007727Y018334D02*
X007727Y018234D01*
X016677Y012634D02*
X018327Y012634D01*
X017327Y015134D02*
X017227Y015184D01*
X016827Y006734D02*
X017327Y006634D01*
X013827Y002734D02*
X013727Y002434D01*
X014727Y002434D02*
X014927Y002534D01*
X015727Y002434D02*
X015877Y002434D01*
X013227Y004034D02*
X013177Y004034D01*
X012227Y004034D02*
X012227Y003984D01*
X011327Y004234D02*
X011227Y004034D01*
X010727Y002484D02*
X010727Y002434D01*
D19*
X003175Y002165D02*
X002022Y002165D01*
X002022Y004820D01*
X002062Y004781D01*
X002062Y004781D01*
X002178Y004664D01*
X002468Y004664D01*
X002615Y004811D01*
X002762Y004664D01*
X003052Y004664D01*
X003257Y004869D01*
X003257Y005159D01*
X003257Y005569D01*
X003257Y005859D01*
X003168Y005947D01*
X003257Y006036D01*
X003257Y006269D01*
X003257Y006619D01*
X003257Y006909D01*
X003140Y007026D01*
X003140Y007026D01*
X003042Y007124D01*
X004937Y007124D01*
X005027Y007214D02*
X005065Y007214D01*
X004827Y007451D01*
X004827Y007633D01*
X005527Y007633D01*
X005527Y007634D01*
X005527Y007634D01*
X005527Y008074D01*
X005085Y008074D01*
X004827Y007816D01*
X004827Y007634D01*
X005527Y007634D01*
X005527Y008074D01*
X005969Y008074D01*
X006227Y007816D01*
X006227Y007634D01*
X005527Y007634D01*
X005527Y007633D01*
X006227Y007633D01*
X006227Y007451D01*
X005989Y007214D01*
X006027Y007214D01*
X006367Y006874D01*
X006367Y006393D01*
X006107Y006134D01*
X006367Y005874D01*
X006367Y005393D01*
X006027Y005054D01*
X005989Y005054D01*
X006227Y004816D01*
X006227Y004634D01*
X005527Y004634D01*
X004827Y004634D01*
X004827Y004816D01*
X005065Y005054D01*
X005027Y005054D01*
X004687Y005393D01*
X004687Y005874D01*
X004947Y006134D01*
X004687Y006393D01*
X004687Y006874D01*
X005027Y007214D01*
X004996Y007283D02*
X002022Y007283D01*
X002022Y007441D02*
X004837Y007441D01*
X004827Y007600D02*
X002022Y007600D01*
X002022Y007758D02*
X004827Y007758D01*
X004928Y007917D02*
X002022Y007917D01*
X002022Y008075D02*
X006803Y008075D01*
X006787Y008091D02*
X006787Y008533D01*
X007227Y008533D01*
X007227Y008534D01*
X007227Y008534D01*
X007227Y009234D01*
X007045Y009234D01*
X006787Y008976D01*
X006787Y008534D01*
X007227Y008534D01*
X007227Y009234D01*
X007409Y009234D01*
X007647Y008996D01*
X007647Y009034D01*
X007987Y009374D01*
X008467Y009374D01*
X008727Y009114D01*
X008987Y009374D01*
X009467Y009374D01*
X009727Y009114D01*
X009987Y009374D01*
X010467Y009374D01*
X010727Y009114D01*
X010987Y009374D01*
X011345Y009374D01*
X011487Y009516D01*
X011745Y009774D01*
X013432Y009774D01*
X013433Y009774D02*
X013624Y009854D01*
X013831Y009854D01*
X014022Y009774D01*
X014168Y009628D01*
X014247Y009437D01*
X014247Y009374D01*
X014467Y009374D01*
X014807Y009034D01*
X014807Y008033D01*
X014557Y007784D01*
X014807Y007534D01*
X014807Y007324D01*
X015409Y007324D01*
X015532Y007201D01*
X016049Y006724D01*
X016059Y006724D01*
X016182Y006601D01*
X016317Y006466D01*
X016317Y006101D01*
X016317Y002906D01*
X016545Y003134D01*
X016727Y003134D01*
X016727Y002434D01*
X016727Y002434D01*
X016727Y003134D01*
X016909Y003134D01*
X017167Y002876D01*
X017167Y002434D01*
X016727Y002434D01*
X016727Y002433D01*
X017167Y002433D01*
X017167Y002165D01*
X018332Y002165D01*
X018332Y009918D01*
X018067Y009654D01*
X017587Y009654D01*
X017247Y009993D01*
X017247Y010474D01*
X017587Y010814D01*
X018067Y010814D01*
X018332Y010549D01*
X018332Y011094D01*
X016967Y011094D01*
X016967Y010851D01*
X016967Y009074D01*
X017327Y009074D01*
X017327Y008634D01*
X017327Y008634D01*
X017327Y009074D01*
X017769Y009074D01*
X018027Y008816D01*
X018027Y008634D01*
X017327Y008634D01*
X017327Y008633D01*
X017327Y008194D01*
X016967Y008194D01*
X016967Y008074D01*
X017327Y008074D01*
X017327Y007634D01*
X017327Y007634D01*
X017327Y008074D01*
X017769Y008074D01*
X018027Y007816D01*
X018027Y007634D01*
X017327Y007634D01*
X017327Y007633D01*
X018027Y007633D01*
X018027Y007451D01*
X017789Y007214D01*
X017827Y007214D01*
X018167Y006874D01*
X018167Y006393D01*
X017907Y006134D01*
X018167Y005874D01*
X018167Y005393D01*
X017827Y005054D01*
X017789Y005054D01*
X018027Y004816D01*
X018027Y004634D01*
X017327Y004634D01*
X016627Y004634D01*
X016627Y004816D01*
X016865Y005054D01*
X016827Y005054D01*
X016487Y005393D01*
X016487Y005874D01*
X016747Y006134D01*
X016487Y006393D01*
X016487Y006451D01*
X016478Y006461D01*
X016178Y006961D01*
X016087Y007051D01*
X016087Y009871D01*
X016009Y009794D01*
X015827Y009794D01*
X015645Y009794D01*
X015387Y010051D01*
X015387Y010233D01*
X015827Y010233D01*
X015827Y009794D01*
X015827Y010233D01*
X015827Y010233D01*
X015827Y010234D01*
X015387Y010234D01*
X015387Y010416D01*
X015565Y010594D01*
X015523Y010594D01*
X015317Y010365D01*
X015317Y010351D01*
X015196Y010231D01*
X015124Y010158D01*
X015059Y010094D01*
X013852Y010094D01*
X013168Y009852D01*
X013109Y009794D01*
X013002Y009794D01*
X012883Y009794D01*
X010644Y009794D01*
X010446Y009681D01*
X010359Y009594D01*
X010294Y009594D01*
X010211Y009594D01*
X006874Y009594D01*
X006616Y009400D01*
X006509Y009294D01*
X005907Y009294D01*
X005767Y009154D01*
X005287Y009154D01*
X004947Y009493D01*
X004947Y009834D01*
X004910Y009834D01*
X004821Y009744D01*
X004565Y009639D01*
X004289Y009639D01*
X004033Y009744D01*
X003838Y009940D01*
X003732Y010195D01*
X003732Y010472D01*
X003838Y010727D01*
X004033Y010923D01*
X004226Y011003D01*
X003632Y011444D01*
X003595Y011444D01*
X003489Y011549D01*
X003397Y011642D01*
X003337Y011701D01*
X003337Y015901D01*
X003337Y016266D01*
X003499Y016428D01*
X003595Y016524D01*
X003648Y016524D01*
X004687Y017192D01*
X004687Y017374D01*
X005027Y017714D01*
X005221Y017714D01*
X005231Y017749D01*
X005147Y017833D01*
X005147Y017932D01*
X005029Y017814D01*
X004751Y017814D01*
X004599Y017814D01*
X004475Y017814D01*
X004198Y017814D01*
X004014Y017814D01*
X003891Y017814D01*
X003768Y017814D01*
X003646Y017814D01*
X003461Y017814D01*
X003154Y017814D01*
X003047Y017920D01*
X002941Y017814D01*
X002758Y017814D01*
X002734Y017789D01*
X002732Y017788D01*
X002634Y017690D01*
X002357Y017690D01*
X002295Y017690D01*
X002172Y017814D01*
X002022Y017814D01*
X002022Y015791D01*
X002062Y015831D01*
X002351Y015831D01*
X002556Y015626D01*
X002556Y015597D01*
X002557Y015597D01*
X002557Y015626D01*
X002762Y015831D01*
X003052Y015831D01*
X003257Y015626D01*
X003257Y014869D01*
X003257Y014809D01*
X003257Y014519D01*
X003257Y014402D01*
X003257Y014169D01*
X003168Y014081D01*
X003257Y013992D01*
X003257Y013702D01*
X003257Y013643D01*
X003257Y013353D01*
X003257Y013236D01*
X003257Y013003D01*
X003168Y012915D01*
X003257Y012826D01*
X003257Y012536D01*
X003052Y012331D01*
X002312Y012331D01*
X002062Y012331D01*
X002022Y012371D01*
X002022Y010713D01*
X002197Y010889D01*
X002427Y010889D01*
X002427Y010334D01*
X002427Y010334D01*
X002427Y010889D01*
X002657Y010889D01*
X002982Y010563D01*
X002982Y010334D01*
X002427Y010334D01*
X002427Y010333D01*
X002427Y009779D01*
X002197Y009779D01*
X002022Y009954D01*
X002022Y007074D01*
X002062Y007114D01*
X002178Y007231D01*
X002468Y007231D01*
X002935Y007231D01*
X002978Y007188D01*
X003038Y007128D01*
X003042Y007124D01*
X003200Y006965D02*
X004779Y006965D01*
X004687Y006807D02*
X003257Y006807D01*
X003257Y006648D02*
X004687Y006648D01*
X004687Y006490D02*
X003257Y006490D01*
X003257Y006331D02*
X004749Y006331D01*
X004908Y006173D02*
X003257Y006173D01*
X003235Y006014D02*
X004828Y006014D01*
X004687Y005856D02*
X003257Y005856D01*
X003257Y005697D02*
X004687Y005697D01*
X004687Y005539D02*
X003257Y005539D01*
X003257Y005380D02*
X004700Y005380D01*
X004859Y005221D02*
X003257Y005221D01*
X003257Y005063D02*
X005017Y005063D01*
X004916Y004904D02*
X003257Y004904D01*
X003134Y004746D02*
X004827Y004746D01*
X004827Y004633D02*
X005527Y004633D01*
X005527Y004194D01*
X005085Y004194D01*
X004827Y004451D01*
X004827Y004633D01*
X004827Y004587D02*
X002022Y004587D01*
X002022Y004429D02*
X004850Y004429D01*
X005008Y004270D02*
X002022Y004270D01*
X002022Y004112D02*
X006647Y004112D01*
X006647Y004270D02*
X006046Y004270D01*
X005969Y004194D02*
X006227Y004451D01*
X006227Y004633D01*
X005527Y004633D01*
X005527Y004633D01*
X005527Y004194D01*
X005969Y004194D01*
X005969Y004074D02*
X006227Y003816D01*
X006227Y003634D01*
X005527Y003634D01*
X005527Y003634D01*
X005527Y004074D01*
X005085Y004074D01*
X004827Y003816D01*
X004827Y003634D01*
X005527Y003634D01*
X005527Y004074D01*
X005969Y004074D01*
X006090Y003953D02*
X006647Y003953D01*
X006647Y003795D02*
X006227Y003795D01*
X006227Y003636D02*
X006647Y003636D01*
X006647Y003533D02*
X006647Y004534D01*
X006987Y004874D01*
X007467Y004874D01*
X007727Y004614D01*
X007987Y004874D01*
X008467Y004874D01*
X008727Y004614D01*
X008987Y004874D01*
X009467Y004874D01*
X009727Y004614D01*
X009987Y004874D01*
X010467Y004874D01*
X010807Y004534D01*
X010807Y004496D01*
X011045Y004734D01*
X011227Y004734D01*
X011227Y004034D01*
X011227Y004034D01*
X011227Y004734D01*
X011409Y004734D01*
X011647Y004496D01*
X011647Y004534D01*
X011987Y004874D01*
X012467Y004874D01*
X012727Y004614D01*
X012987Y004874D01*
X013467Y004874D01*
X013727Y004614D01*
X013987Y004874D01*
X014387Y004874D01*
X014387Y005144D01*
X008509Y005144D01*
X008145Y005144D01*
X008005Y005283D01*
X008005Y005283D01*
X007887Y005401D01*
X007887Y005419D01*
X007214Y006194D01*
X006987Y006194D01*
X006647Y006533D01*
X006647Y007534D01*
X006987Y007874D01*
X007005Y007874D01*
X006787Y008091D01*
X006787Y008234D02*
X006010Y008234D01*
X005969Y008194D02*
X005527Y008194D01*
X005085Y008194D01*
X004827Y008451D01*
X004827Y008633D01*
X005527Y008633D01*
X005527Y008194D01*
X005527Y008633D01*
X005527Y008633D01*
X005527Y008634D01*
X005527Y008634D01*
X005527Y009074D01*
X005085Y009074D01*
X004827Y008816D01*
X004827Y008634D01*
X005527Y008634D01*
X005527Y009074D01*
X005969Y009074D01*
X006227Y008816D01*
X006227Y008634D01*
X005527Y008634D01*
X005527Y008633D01*
X006227Y008633D01*
X006227Y008451D01*
X005969Y008194D01*
X006168Y008392D02*
X006787Y008392D01*
X006787Y008551D02*
X006227Y008551D01*
X006227Y008709D02*
X006787Y008709D01*
X006787Y008868D02*
X006175Y008868D01*
X006016Y009027D02*
X006838Y009027D01*
X006996Y009185D02*
X005799Y009185D01*
X005527Y009027D02*
X005527Y009027D01*
X005527Y008868D02*
X005527Y008868D01*
X005527Y008709D02*
X005527Y008709D01*
X005527Y008551D02*
X005527Y008551D01*
X005527Y008392D02*
X005527Y008392D01*
X005527Y008234D02*
X005527Y008234D01*
X005527Y007917D02*
X005527Y007917D01*
X005527Y007758D02*
X005527Y007758D01*
X006058Y007283D02*
X006647Y007283D01*
X006647Y007441D02*
X006217Y007441D01*
X006227Y007600D02*
X006713Y007600D01*
X006872Y007758D02*
X006227Y007758D01*
X006126Y007917D02*
X006962Y007917D01*
X007227Y008551D02*
X007227Y008551D01*
X007227Y008709D02*
X007227Y008709D01*
X007227Y008868D02*
X007227Y008868D01*
X007227Y009027D02*
X007227Y009027D01*
X007227Y009185D02*
X007227Y009185D01*
X007458Y009185D02*
X007798Y009185D01*
X007647Y009027D02*
X007616Y009027D01*
X007957Y009344D02*
X006559Y009344D01*
X006752Y009502D02*
X011474Y009502D01*
X011632Y009661D02*
X010426Y009661D01*
X010497Y009344D02*
X010957Y009344D01*
X010798Y009185D02*
X010656Y009185D01*
X009957Y009344D02*
X009497Y009344D01*
X009656Y009185D02*
X009798Y009185D01*
X008957Y009344D02*
X008497Y009344D01*
X008656Y009185D02*
X008798Y009185D01*
X010777Y007784D02*
X011777Y007784D01*
X012777Y007784D02*
X013777Y007784D01*
X014583Y007758D02*
X016087Y007758D01*
X016087Y007600D02*
X014741Y007600D01*
X014807Y007441D02*
X016087Y007441D01*
X016087Y007283D02*
X015450Y007283D01*
X015615Y007124D02*
X016087Y007124D01*
X016173Y006965D02*
X015787Y006965D01*
X015959Y006807D02*
X016270Y006807D01*
X016365Y006648D02*
X016134Y006648D01*
X016182Y006601D02*
X016182Y006601D01*
X016293Y006490D02*
X016460Y006490D01*
X016549Y006331D02*
X016317Y006331D01*
X016317Y006173D02*
X016708Y006173D01*
X016628Y006014D02*
X016317Y006014D01*
X016317Y005856D02*
X016487Y005856D01*
X016487Y005697D02*
X016317Y005697D01*
X016317Y005539D02*
X016487Y005539D01*
X016500Y005380D02*
X016317Y005380D01*
X016317Y005221D02*
X016659Y005221D01*
X016817Y005063D02*
X016317Y005063D01*
X016317Y004904D02*
X016716Y004904D01*
X016627Y004746D02*
X016317Y004746D01*
X016317Y004587D02*
X016627Y004587D01*
X016627Y004633D02*
X017327Y004633D01*
X017327Y004194D01*
X016885Y004194D01*
X016627Y004451D01*
X016627Y004633D01*
X016650Y004429D02*
X016317Y004429D01*
X016317Y004270D02*
X016808Y004270D01*
X016885Y004074D02*
X017327Y004074D01*
X017327Y003634D01*
X017327Y003634D01*
X017327Y004074D01*
X017769Y004074D01*
X018027Y003816D01*
X018027Y003634D01*
X017327Y003634D01*
X016627Y003634D01*
X016627Y003816D01*
X016885Y004074D01*
X016764Y003953D02*
X016317Y003953D01*
X016317Y003795D02*
X016627Y003795D01*
X016627Y003636D02*
X016317Y003636D01*
X016317Y003478D02*
X016627Y003478D01*
X016627Y003451D02*
X016627Y003633D01*
X017327Y003633D01*
X017327Y003194D01*
X016885Y003194D01*
X016627Y003451D01*
X016759Y003319D02*
X016317Y003319D01*
X016317Y003160D02*
X018332Y003160D01*
X018332Y003002D02*
X017041Y003002D01*
X017167Y002843D02*
X018332Y002843D01*
X018332Y002685D02*
X017167Y002685D01*
X017167Y002526D02*
X018332Y002526D01*
X018332Y002368D02*
X017167Y002368D01*
X017167Y002209D02*
X018332Y002209D01*
X018332Y003319D02*
X017895Y003319D01*
X017769Y003194D02*
X018027Y003451D01*
X018027Y003633D01*
X017327Y003633D01*
X017327Y003633D01*
X017327Y003194D01*
X017769Y003194D01*
X018027Y003478D02*
X018332Y003478D01*
X018332Y003636D02*
X018027Y003636D01*
X018027Y003795D02*
X018332Y003795D01*
X018332Y003953D02*
X017890Y003953D01*
X017769Y004194D02*
X017327Y004194D01*
X017327Y004633D01*
X017327Y004633D01*
X017327Y004634D01*
X017327Y004633D01*
X018027Y004633D01*
X018027Y004451D01*
X017769Y004194D01*
X017846Y004270D02*
X018332Y004270D01*
X018332Y004112D02*
X016317Y004112D01*
X017327Y004270D02*
X017327Y004270D01*
X017327Y004429D02*
X017327Y004429D01*
X017327Y004587D02*
X017327Y004587D01*
X017327Y003953D02*
X017327Y003953D01*
X017327Y003795D02*
X017327Y003795D01*
X017327Y003636D02*
X017327Y003636D01*
X017327Y003634D02*
X017327Y003633D01*
X017327Y003634D01*
X017327Y003478D02*
X017327Y003478D01*
X017327Y003319D02*
X017327Y003319D01*
X016727Y003002D02*
X016727Y003002D01*
X016727Y002843D02*
X016727Y002843D01*
X016727Y002685D02*
X016727Y002685D01*
X016727Y002526D02*
X016727Y002526D01*
X016413Y003002D02*
X016317Y003002D01*
X018005Y004429D02*
X018332Y004429D01*
X018332Y004587D02*
X018027Y004587D01*
X018027Y004746D02*
X018332Y004746D01*
X018332Y004904D02*
X017938Y004904D01*
X017837Y005063D02*
X018332Y005063D01*
X018332Y005221D02*
X017995Y005221D01*
X018154Y005380D02*
X018332Y005380D01*
X018332Y005539D02*
X018167Y005539D01*
X018167Y005697D02*
X018332Y005697D01*
X018332Y005856D02*
X018167Y005856D01*
X018027Y006014D02*
X018332Y006014D01*
X018332Y006173D02*
X017946Y006173D01*
X018105Y006331D02*
X018332Y006331D01*
X018332Y006490D02*
X018167Y006490D01*
X018167Y006648D02*
X018332Y006648D01*
X018332Y006807D02*
X018167Y006807D01*
X018075Y006965D02*
X018332Y006965D01*
X018332Y007124D02*
X017917Y007124D01*
X017858Y007283D02*
X018332Y007283D01*
X018332Y007441D02*
X018017Y007441D01*
X018027Y007600D02*
X018332Y007600D01*
X018332Y007758D02*
X018027Y007758D01*
X017926Y007917D02*
X018332Y007917D01*
X018332Y008075D02*
X016967Y008075D01*
X017327Y008194D02*
X017327Y008633D01*
X017327Y008633D01*
X018027Y008633D01*
X018027Y008451D01*
X017769Y008194D01*
X017327Y008194D01*
X017327Y008234D02*
X017327Y008234D01*
X017327Y008392D02*
X017327Y008392D01*
X017327Y008551D02*
X017327Y008551D01*
X017327Y008709D02*
X017327Y008709D01*
X017327Y008868D02*
X017327Y008868D01*
X017327Y009027D02*
X017327Y009027D01*
X016967Y009185D02*
X018332Y009185D01*
X018332Y009027D02*
X017816Y009027D01*
X017975Y008868D02*
X018332Y008868D01*
X018332Y008709D02*
X018027Y008709D01*
X018027Y008551D02*
X018332Y008551D01*
X018332Y008392D02*
X017968Y008392D01*
X017810Y008234D02*
X018332Y008234D01*
X017327Y007917D02*
X017327Y007917D01*
X017327Y007758D02*
X017327Y007758D01*
X016087Y007917D02*
X014690Y007917D01*
X014807Y008075D02*
X016087Y008075D01*
X016087Y008234D02*
X014807Y008234D01*
X014807Y008392D02*
X016087Y008392D01*
X016087Y008551D02*
X014807Y008551D01*
X014807Y008709D02*
X016087Y008709D01*
X016087Y008868D02*
X014807Y008868D01*
X014807Y009027D02*
X016087Y009027D01*
X016087Y009185D02*
X014656Y009185D01*
X014497Y009344D02*
X016087Y009344D01*
X016087Y009502D02*
X014220Y009502D01*
X014135Y009661D02*
X016087Y009661D01*
X016087Y009819D02*
X016035Y009819D01*
X015827Y009819D02*
X015827Y009819D01*
X015827Y009978D02*
X015827Y009978D01*
X015827Y010136D02*
X015827Y010136D01*
X015619Y009819D02*
X013913Y009819D01*
X013541Y009819D02*
X013135Y009819D01*
X013432Y009774D02*
X013433Y009774D01*
X013524Y009978D02*
X015461Y009978D01*
X015387Y010136D02*
X015102Y010136D01*
X015261Y010295D02*
X015387Y010295D01*
X015397Y010453D02*
X015425Y010453D01*
X016967Y010453D02*
X017247Y010453D01*
X017247Y010295D02*
X016967Y010295D01*
X016967Y010136D02*
X017247Y010136D01*
X017263Y009978D02*
X016967Y009978D01*
X016967Y009819D02*
X017421Y009819D01*
X017580Y009661D02*
X016967Y009661D01*
X016967Y009502D02*
X018332Y009502D01*
X018332Y009344D02*
X016967Y009344D01*
X018074Y009661D02*
X018332Y009661D01*
X018332Y009819D02*
X018233Y009819D01*
X018269Y010612D02*
X018332Y010612D01*
X018332Y010771D02*
X018110Y010771D01*
X018332Y010929D02*
X016967Y010929D01*
X016967Y010771D02*
X017544Y010771D01*
X017385Y010612D02*
X016967Y010612D01*
X016967Y011088D02*
X018332Y011088D01*
X018027Y013066D02*
X018034Y013073D01*
X018224Y013152D01*
X018332Y013152D01*
X018332Y018602D01*
X017307Y018602D01*
X017307Y017833D01*
X017187Y017714D01*
X017827Y017714D01*
X018167Y017374D01*
X018167Y016893D01*
X017907Y016634D01*
X018167Y016374D01*
X018167Y015893D01*
X017907Y015634D01*
X018167Y015374D01*
X018167Y014893D01*
X017907Y014634D01*
X018167Y014374D01*
X018167Y013893D01*
X017827Y013554D01*
X017789Y013554D01*
X018027Y013316D01*
X018027Y013134D01*
X017327Y013134D01*
X016627Y013134D01*
X016627Y013316D01*
X016865Y013554D01*
X016827Y013554D01*
X016487Y013893D01*
X016487Y014032D01*
X016132Y014194D01*
X015947Y014194D01*
X016007Y014134D01*
X016007Y013274D01*
X016309Y013274D01*
X016369Y013214D01*
X016627Y013120D01*
X016627Y013133D01*
X017327Y013133D01*
X017327Y013134D01*
X017327Y013133D01*
X018027Y013133D01*
X018027Y013066D01*
X018027Y013149D02*
X018217Y013149D01*
X018332Y013307D02*
X018027Y013307D01*
X017877Y013466D02*
X018332Y013466D01*
X018332Y013624D02*
X017898Y013624D01*
X018057Y013783D02*
X018332Y013783D01*
X018332Y013941D02*
X018167Y013941D01*
X018167Y014100D02*
X018332Y014100D01*
X018332Y014258D02*
X018167Y014258D01*
X018124Y014417D02*
X018332Y014417D01*
X018332Y014576D02*
X017965Y014576D01*
X018008Y014734D02*
X018332Y014734D01*
X018332Y014893D02*
X018166Y014893D01*
X018167Y015051D02*
X018332Y015051D01*
X018332Y015210D02*
X018167Y015210D01*
X018167Y015368D02*
X018332Y015368D01*
X018332Y015527D02*
X018014Y015527D01*
X017959Y015685D02*
X018332Y015685D01*
X018332Y015844D02*
X018118Y015844D01*
X018167Y016002D02*
X018332Y016002D01*
X018332Y016161D02*
X018167Y016161D01*
X018167Y016320D02*
X018332Y016320D01*
X018332Y016478D02*
X018063Y016478D01*
X017910Y016637D02*
X018332Y016637D01*
X018332Y016795D02*
X018069Y016795D01*
X018167Y016954D02*
X018332Y016954D01*
X018332Y017112D02*
X018167Y017112D01*
X018167Y017271D02*
X018332Y017271D01*
X018332Y017429D02*
X018111Y017429D01*
X017953Y017588D02*
X018332Y017588D01*
X018332Y017746D02*
X017220Y017746D01*
X017307Y017905D02*
X018332Y017905D01*
X018332Y018064D02*
X017307Y018064D01*
X017307Y018222D02*
X018332Y018222D01*
X018332Y018381D02*
X017307Y018381D01*
X017307Y018539D02*
X018332Y018539D01*
X016607Y017494D02*
X016487Y017374D01*
X016487Y016893D01*
X016707Y016674D01*
X016645Y016674D01*
X016387Y016416D01*
X016387Y016416D01*
X016145Y016174D01*
X016007Y016174D01*
X016007Y017134D01*
X015667Y017474D01*
X015187Y017474D01*
X014927Y017214D01*
X014667Y017474D01*
X014187Y017474D01*
X013927Y017214D01*
X013667Y017474D01*
X013187Y017474D01*
X012927Y017214D01*
X012667Y017474D01*
X012187Y017474D01*
X011847Y017134D01*
X011847Y017096D01*
X011609Y017334D01*
X011427Y017334D01*
X011427Y016634D01*
X011427Y016634D01*
X011427Y017334D01*
X011245Y017334D01*
X011007Y017096D01*
X011007Y017134D01*
X010667Y017474D01*
X010187Y017474D01*
X009927Y017214D01*
X009667Y017474D01*
X009187Y017474D01*
X008927Y017214D01*
X008667Y017474D01*
X008187Y017474D01*
X008167Y017454D01*
X008167Y017693D01*
X008227Y017753D01*
X008487Y017494D01*
X008967Y017494D01*
X009227Y017753D01*
X009487Y017494D01*
X009967Y017494D01*
X010227Y017753D01*
X010487Y017494D01*
X010967Y017494D01*
X011227Y017753D01*
X011487Y017494D01*
X011967Y017494D01*
X012307Y017833D01*
X012307Y017871D01*
X012545Y017634D01*
X012727Y017634D01*
X012727Y018333D01*
X012727Y018333D01*
X012727Y017634D01*
X012909Y017634D01*
X013147Y017871D01*
X013147Y017833D01*
X013487Y017494D01*
X013967Y017494D01*
X014227Y017753D01*
X014487Y017494D01*
X014967Y017494D01*
X015227Y017753D01*
X015487Y017494D01*
X015967Y017494D01*
X016227Y017753D01*
X016487Y017494D01*
X016607Y017494D01*
X016543Y017429D02*
X015711Y017429D01*
X015870Y017271D02*
X016487Y017271D01*
X016487Y017112D02*
X016007Y017112D01*
X016007Y016954D02*
X016487Y016954D01*
X016585Y016795D02*
X016007Y016795D01*
X016007Y016637D02*
X016608Y016637D01*
X016449Y016478D02*
X016007Y016478D01*
X016007Y016320D02*
X016291Y016320D01*
X016393Y017588D02*
X016062Y017588D01*
X016220Y017746D02*
X016234Y017746D01*
X015393Y017588D02*
X015062Y017588D01*
X015143Y017429D02*
X014711Y017429D01*
X014870Y017271D02*
X014984Y017271D01*
X015220Y017746D02*
X015234Y017746D01*
X014393Y017588D02*
X014062Y017588D01*
X014143Y017429D02*
X013711Y017429D01*
X013870Y017271D02*
X013984Y017271D01*
X014220Y017746D02*
X014234Y017746D01*
X013393Y017588D02*
X012062Y017588D01*
X012143Y017429D02*
X010711Y017429D01*
X010870Y017271D02*
X011182Y017271D01*
X011024Y017112D02*
X011007Y017112D01*
X011427Y017112D02*
X011427Y017112D01*
X011427Y016954D02*
X011427Y016954D01*
X011427Y016795D02*
X011427Y016795D01*
X011427Y016637D02*
X011427Y016637D01*
X011831Y017112D02*
X011847Y017112D01*
X011984Y017271D02*
X011672Y017271D01*
X011427Y017271D02*
X011427Y017271D01*
X011393Y017588D02*
X011062Y017588D01*
X011220Y017746D02*
X011234Y017746D01*
X010393Y017588D02*
X010062Y017588D01*
X010143Y017429D02*
X009711Y017429D01*
X009870Y017271D02*
X009984Y017271D01*
X010220Y017746D02*
X010234Y017746D01*
X009393Y017588D02*
X009062Y017588D01*
X009143Y017429D02*
X008711Y017429D01*
X008870Y017271D02*
X008984Y017271D01*
X009220Y017746D02*
X009234Y017746D01*
X008393Y017588D02*
X008167Y017588D01*
X008220Y017746D02*
X008234Y017746D01*
X005230Y017746D02*
X002691Y017746D01*
X003032Y017905D02*
X003062Y017905D01*
X002239Y017746D02*
X002022Y017746D01*
X002022Y017588D02*
X004901Y017588D01*
X004743Y017429D02*
X002022Y017429D01*
X002022Y017271D02*
X004687Y017271D01*
X004564Y017112D02*
X002022Y017112D01*
X002022Y016954D02*
X004317Y016954D01*
X004070Y016795D02*
X002022Y016795D01*
X002022Y016637D02*
X003824Y016637D01*
X003549Y016478D02*
X002022Y016478D01*
X002022Y016320D02*
X003391Y016320D01*
X003337Y016161D02*
X002022Y016161D01*
X002022Y016002D02*
X003337Y016002D01*
X003337Y015844D02*
X002022Y015844D01*
X002497Y015685D02*
X002617Y015685D01*
X003197Y015685D02*
X003337Y015685D01*
X003337Y015527D02*
X003257Y015527D01*
X003257Y015368D02*
X003337Y015368D01*
X003337Y015210D02*
X003257Y015210D01*
X003257Y015051D02*
X003337Y015051D01*
X003337Y014893D02*
X003257Y014893D01*
X003257Y014734D02*
X003337Y014734D01*
X003337Y014576D02*
X003257Y014576D01*
X003257Y014417D02*
X003337Y014417D01*
X003337Y014258D02*
X003257Y014258D01*
X003188Y014100D02*
X003337Y014100D01*
X003337Y013941D02*
X003257Y013941D01*
X003257Y013783D02*
X003337Y013783D01*
X003337Y013624D02*
X003257Y013624D01*
X003257Y013466D02*
X003337Y013466D01*
X003337Y013307D02*
X003257Y013307D01*
X003257Y013149D02*
X003337Y013149D01*
X003337Y012990D02*
X003244Y012990D01*
X003251Y012832D02*
X003337Y012832D01*
X003337Y012673D02*
X003257Y012673D01*
X003235Y012514D02*
X003337Y012514D01*
X003337Y012356D02*
X003077Y012356D01*
X003337Y012197D02*
X002022Y012197D01*
X002022Y012039D02*
X003337Y012039D01*
X003337Y011880D02*
X002022Y011880D01*
X002022Y011722D02*
X003337Y011722D01*
X003475Y011563D02*
X002022Y011563D01*
X002022Y011405D02*
X003684Y011405D01*
X003898Y011246D02*
X002022Y011246D01*
X002022Y011088D02*
X004111Y011088D01*
X004049Y010929D02*
X002022Y010929D01*
X002022Y010771D02*
X002079Y010771D01*
X002427Y010771D02*
X002427Y010771D01*
X002427Y010612D02*
X002427Y010612D01*
X002427Y010453D02*
X002427Y010453D01*
X002427Y010333D02*
X002982Y010333D01*
X002982Y010104D01*
X002657Y009779D01*
X002427Y009779D01*
X002427Y010333D01*
X002427Y010333D01*
X002427Y010295D02*
X002427Y010295D01*
X002427Y010136D02*
X002427Y010136D01*
X002427Y009978D02*
X002427Y009978D01*
X002427Y009819D02*
X002427Y009819D01*
X002157Y009819D02*
X002022Y009819D01*
X002022Y009661D02*
X004235Y009661D01*
X003958Y009819D02*
X002698Y009819D01*
X002856Y009978D02*
X003822Y009978D01*
X003756Y010136D02*
X002982Y010136D01*
X002982Y010295D02*
X003732Y010295D01*
X003732Y010453D02*
X002982Y010453D01*
X002933Y010612D02*
X003790Y010612D01*
X003881Y010771D02*
X002775Y010771D01*
X002022Y009502D02*
X004947Y009502D01*
X004947Y009661D02*
X004619Y009661D01*
X004896Y009819D02*
X004947Y009819D01*
X005097Y009344D02*
X002022Y009344D01*
X002022Y009185D02*
X005255Y009185D01*
X005038Y009027D02*
X002022Y009027D01*
X002022Y008868D02*
X004879Y008868D01*
X004827Y008709D02*
X002022Y008709D01*
X002022Y008551D02*
X004827Y008551D01*
X004886Y008392D02*
X002022Y008392D01*
X002022Y008234D02*
X005045Y008234D01*
X006117Y007124D02*
X006647Y007124D01*
X006647Y006965D02*
X006275Y006965D01*
X006367Y006807D02*
X006647Y006807D01*
X006647Y006648D02*
X006367Y006648D01*
X006367Y006490D02*
X006691Y006490D01*
X006849Y006331D02*
X006305Y006331D01*
X006146Y006173D02*
X007232Y006173D01*
X007370Y006014D02*
X006227Y006014D01*
X006367Y005856D02*
X007507Y005856D01*
X007645Y005697D02*
X006367Y005697D01*
X006367Y005539D02*
X007783Y005539D01*
X007908Y005380D02*
X006354Y005380D01*
X006195Y005221D02*
X008067Y005221D01*
X007859Y004746D02*
X007595Y004746D01*
X006859Y004746D02*
X006227Y004746D01*
X006227Y004587D02*
X006701Y004587D01*
X006647Y004429D02*
X006205Y004429D01*
X006138Y004904D02*
X014387Y004904D01*
X014387Y005063D02*
X006037Y005063D01*
X005527Y004634D02*
X005527Y004633D01*
X005527Y004634D01*
X005527Y004587D02*
X005527Y004587D01*
X005527Y004429D02*
X005527Y004429D01*
X005527Y004270D02*
X005527Y004270D01*
X005527Y003953D02*
X005527Y003953D01*
X005527Y003795D02*
X005527Y003795D01*
X005527Y003636D02*
X005527Y003636D01*
X005527Y003634D02*
X005527Y003633D01*
X004827Y003633D01*
X004827Y003474D01*
X004409Y003474D01*
X004080Y003474D01*
X004045Y003474D01*
X003938Y003367D01*
X003538Y003067D01*
X003387Y002916D01*
X003387Y002914D01*
X003147Y002674D01*
X003147Y002193D01*
X003175Y002165D01*
X003147Y002209D02*
X002022Y002209D01*
X002022Y002368D02*
X003147Y002368D01*
X003147Y002526D02*
X002022Y002526D01*
X002022Y002685D02*
X003158Y002685D01*
X003317Y002843D02*
X002022Y002843D01*
X002022Y003002D02*
X003473Y003002D01*
X003663Y003160D02*
X002022Y003160D01*
X002022Y003319D02*
X003874Y003319D01*
X004827Y003478D02*
X002022Y003478D01*
X002022Y003636D02*
X004827Y003636D01*
X004827Y003795D02*
X002022Y003795D01*
X002022Y003953D02*
X004964Y003953D01*
X005527Y003634D02*
X005527Y003633D01*
X006227Y003633D01*
X006227Y003451D01*
X006008Y003233D01*
X006227Y003014D01*
X006487Y003274D01*
X006907Y003274D01*
X006647Y003533D01*
X006703Y003478D02*
X006227Y003478D01*
X006095Y003319D02*
X006861Y003319D01*
X006374Y003160D02*
X006080Y003160D01*
X008595Y004746D02*
X008859Y004746D01*
X009595Y004746D02*
X009859Y004746D01*
X010595Y004746D02*
X011859Y004746D01*
X011701Y004587D02*
X011555Y004587D01*
X011227Y004587D02*
X011227Y004587D01*
X011227Y004429D02*
X011227Y004429D01*
X011227Y004270D02*
X011227Y004270D01*
X011227Y004112D02*
X011227Y004112D01*
X010899Y004587D02*
X010753Y004587D01*
X012595Y004746D02*
X012859Y004746D01*
X013595Y004746D02*
X013859Y004746D01*
X011227Y011534D02*
X011227Y012234D01*
X011227Y011534D01*
X011227Y011534D01*
X011227Y011563D02*
X011227Y011563D01*
X011227Y011722D02*
X011227Y011722D01*
X011227Y011880D02*
X011227Y011880D01*
X011227Y012039D02*
X011227Y012039D01*
X011227Y012197D02*
X011227Y012197D01*
X011227Y012234D02*
X011409Y012234D01*
X011647Y011996D01*
X011647Y012034D01*
X011987Y012374D01*
X012023Y012374D01*
X012028Y012394D01*
X012009Y012394D01*
X011673Y012394D01*
X011645Y012394D01*
X011533Y012505D01*
X011033Y012905D01*
X010906Y013032D01*
X010667Y012794D01*
X010187Y012794D01*
X009927Y013053D01*
X009822Y012948D01*
X010341Y012374D01*
X010467Y012374D01*
X010807Y012034D01*
X010807Y011996D01*
X011045Y012234D01*
X011227Y012234D01*
X011009Y012197D02*
X010643Y012197D01*
X010802Y012039D02*
X010850Y012039D01*
X010485Y012356D02*
X011969Y012356D01*
X011811Y012197D02*
X011445Y012197D01*
X011604Y012039D02*
X011652Y012039D01*
X011522Y012514D02*
X010214Y012514D01*
X010070Y012673D02*
X011323Y012673D01*
X011125Y012832D02*
X010705Y012832D01*
X010864Y012990D02*
X010948Y012990D01*
X010149Y012832D02*
X009927Y012832D01*
X009990Y012990D02*
X009864Y012990D01*
X006647Y011582D02*
X006647Y011174D01*
X006145Y011174D01*
X006026Y011055D01*
X005767Y011314D01*
X005287Y011314D01*
X005286Y011312D01*
X004217Y012105D01*
X004217Y013194D01*
X004559Y013194D01*
X004827Y013194D01*
X004827Y013134D01*
X005527Y013134D01*
X005527Y013133D01*
X004827Y013133D01*
X004827Y012951D01*
X005065Y012714D01*
X005027Y012714D01*
X004687Y012374D01*
X004687Y011893D01*
X005027Y011554D01*
X006027Y011554D01*
X006067Y011594D01*
X006623Y011594D01*
X006647Y011582D01*
X006647Y011563D02*
X006037Y011563D01*
X005835Y011246D02*
X006647Y011246D01*
X006647Y011405D02*
X005161Y011405D01*
X005017Y011563D02*
X004947Y011563D01*
X004859Y011722D02*
X004733Y011722D01*
X004700Y011880D02*
X004520Y011880D01*
X004687Y012039D02*
X004306Y012039D01*
X004217Y012197D02*
X004687Y012197D01*
X004687Y012356D02*
X004217Y012356D01*
X004217Y012514D02*
X004828Y012514D01*
X004986Y012673D02*
X004217Y012673D01*
X004217Y012832D02*
X004947Y012832D01*
X004827Y012990D02*
X004217Y012990D01*
X004217Y013149D02*
X004827Y013149D01*
X005993Y011088D02*
X006059Y011088D01*
X006027Y010234D02*
X004327Y010234D01*
X002037Y012356D02*
X002022Y012356D01*
X002072Y007124D02*
X002022Y007124D01*
X002022Y004746D02*
X002097Y004746D01*
X002550Y004746D02*
X002680Y004746D01*
X012870Y017271D02*
X012984Y017271D01*
X013143Y017429D02*
X012711Y017429D01*
X012727Y017746D02*
X012727Y017746D01*
X012727Y017905D02*
X012727Y017905D01*
X012727Y018064D02*
X012727Y018064D01*
X012727Y018222D02*
X012727Y018222D01*
X012432Y017746D02*
X012220Y017746D01*
X013022Y017746D02*
X013234Y017746D01*
X016007Y014100D02*
X016338Y014100D01*
X016487Y013941D02*
X016007Y013941D01*
X016007Y013783D02*
X016598Y013783D01*
X016756Y013624D02*
X016007Y013624D01*
X016007Y013466D02*
X016777Y013466D01*
X016627Y013307D02*
X016007Y013307D01*
X016548Y013149D02*
X016627Y013149D01*
X005147Y017905D02*
X005120Y017905D01*
D20*
X007727Y016434D03*
X006727Y014134D03*
X006727Y012934D03*
X010077Y010584D03*
X013727Y009334D03*
D21*
X018327Y012634D03*
M02*
