G75*
G70*
%OFA0B0*%
%FSLAX24Y24*%
%IPPOS*%
%LPD*%
%AMOC8*
5,1,8,0,0,1.08239X$1,22.5*
%
%ADD10C,0.0000*%
%ADD11C,0.0040*%
%ADD12C,0.0060*%
%ADD13C,0.0050*%
%ADD14C,0.0120*%
%ADD15C,0.0010*%
%ADD16R,0.0200X0.0800*%
%ADD17C,0.0240*%
D10*
X001446Y001686D02*
X001446Y019082D01*
X018716Y019082D01*
X018716Y001686D01*
X001446Y001686D01*
D11*
X007526Y012250D02*
X007603Y012250D01*
X007680Y012327D01*
X007680Y012710D01*
X007449Y012710D01*
X007373Y012634D01*
X007373Y012480D01*
X007449Y012404D01*
X007680Y012404D01*
X007833Y012404D02*
X007987Y012404D01*
X007910Y012404D02*
X007910Y012710D01*
X007833Y012710D01*
X007910Y012864D02*
X007910Y012941D01*
X008140Y012864D02*
X008217Y012864D01*
X008217Y012404D01*
X008293Y012404D02*
X008140Y012404D01*
X008447Y012480D02*
X008524Y012404D01*
X008754Y012404D01*
X008754Y012710D01*
X008907Y012710D02*
X008984Y012710D01*
X009061Y012634D01*
X009137Y012710D01*
X009214Y012634D01*
X009214Y012404D01*
X009061Y012404D02*
X009061Y012634D01*
X008907Y012710D02*
X008907Y012404D01*
X008447Y012480D02*
X008447Y012710D01*
X009368Y012634D02*
X009444Y012710D01*
X009598Y012710D01*
X009674Y012634D01*
X009674Y012557D01*
X009368Y012557D01*
X009368Y012480D02*
X009368Y012634D01*
X009368Y012480D02*
X009444Y012404D01*
X009598Y012404D01*
X009828Y012404D02*
X009828Y012710D01*
X010058Y012710D01*
X010135Y012634D01*
X010135Y012404D01*
X010288Y012404D02*
X010365Y012404D01*
X010365Y012480D01*
X010288Y012480D01*
X010288Y012404D01*
X010518Y012480D02*
X010595Y012404D01*
X010825Y012404D01*
X010979Y012480D02*
X011056Y012404D01*
X011209Y012404D01*
X011286Y012480D01*
X011286Y012634D01*
X011209Y012710D01*
X011056Y012710D01*
X010979Y012634D01*
X010979Y012480D01*
X010825Y012710D02*
X010595Y012710D01*
X010518Y012634D01*
X010518Y012480D01*
X011439Y012404D02*
X011439Y012710D01*
X011516Y012710D01*
X011593Y012634D01*
X011669Y012710D01*
X011746Y012634D01*
X011746Y012404D01*
X011593Y012404D02*
X011593Y012634D01*
X007219Y012634D02*
X007143Y012710D01*
X006989Y012710D01*
X006912Y012634D01*
X006912Y012480D01*
X006989Y012404D01*
X007143Y012404D01*
X007219Y012480D01*
X007219Y012634D01*
X006759Y012480D02*
X006759Y012404D01*
X006682Y012404D01*
X006682Y012480D01*
X006759Y012480D01*
X006529Y012480D02*
X006529Y012710D01*
X006529Y012480D02*
X006452Y012404D01*
X006375Y012480D01*
X006299Y012404D01*
X006222Y012480D01*
X006222Y012710D01*
X006068Y012710D02*
X006068Y012480D01*
X005992Y012404D01*
X005915Y012480D01*
X005838Y012404D01*
X005762Y012480D01*
X005762Y012710D01*
X005608Y012710D02*
X005608Y012480D01*
X005531Y012404D01*
X005455Y012480D01*
X005378Y012404D01*
X005301Y012480D01*
X005301Y012710D01*
D12*
X004331Y013984D02*
X004331Y014734D01*
X004370Y014736D01*
X004409Y014742D01*
X004447Y014751D01*
X004484Y014764D01*
X004520Y014781D01*
X004553Y014801D01*
X004585Y014825D01*
X004614Y014851D01*
X004640Y014880D01*
X004664Y014912D01*
X004684Y014945D01*
X004701Y014981D01*
X004714Y015018D01*
X004723Y015056D01*
X004729Y015095D01*
X004731Y015134D01*
X004729Y015173D01*
X004723Y015212D01*
X004714Y015250D01*
X004701Y015287D01*
X004684Y015323D01*
X004664Y015356D01*
X004640Y015388D01*
X004614Y015417D01*
X004585Y015443D01*
X004553Y015467D01*
X004520Y015487D01*
X004484Y015504D01*
X004447Y015517D01*
X004409Y015526D01*
X004370Y015532D01*
X004331Y015534D01*
X004331Y016284D01*
X012331Y016284D01*
X012331Y013984D01*
X004331Y013984D01*
X003431Y013734D02*
X003331Y013634D01*
X003431Y013534D01*
X003431Y012734D01*
X003331Y012634D01*
X003431Y012534D01*
X003431Y011634D01*
X002431Y011634D02*
X002431Y012534D01*
X002531Y012634D01*
X002431Y012734D01*
X002431Y013534D01*
X002531Y013634D01*
X002431Y013734D01*
X002431Y014534D01*
X002531Y014634D01*
X002431Y014734D01*
X002431Y015534D01*
X002531Y015634D01*
X002431Y015734D01*
X002431Y016534D01*
X002531Y016634D01*
X002431Y016734D01*
X002431Y017634D01*
X003431Y017634D01*
X003431Y016734D01*
X003331Y016634D01*
X003431Y016534D01*
X003431Y015734D01*
X003331Y015634D01*
X003431Y015534D01*
X003431Y014734D01*
X003331Y014634D01*
X003431Y014534D01*
X003431Y013734D01*
X005531Y011184D02*
X005531Y010434D01*
X005570Y010432D01*
X005609Y010426D01*
X005647Y010417D01*
X005684Y010404D01*
X005720Y010387D01*
X005753Y010367D01*
X005785Y010343D01*
X005814Y010317D01*
X005840Y010288D01*
X005864Y010256D01*
X005884Y010223D01*
X005901Y010187D01*
X005914Y010150D01*
X005923Y010112D01*
X005929Y010073D01*
X005931Y010034D01*
X005929Y009995D01*
X005923Y009956D01*
X005914Y009918D01*
X005901Y009881D01*
X005884Y009845D01*
X005864Y009812D01*
X005840Y009780D01*
X005814Y009751D01*
X005785Y009725D01*
X005753Y009701D01*
X005720Y009681D01*
X005684Y009664D01*
X005647Y009651D01*
X005609Y009642D01*
X005570Y009636D01*
X005531Y009634D01*
X005531Y008884D01*
X013531Y008884D01*
X013531Y011184D01*
X005531Y011184D01*
X004881Y010634D02*
X004881Y009834D01*
X004879Y009814D01*
X004873Y009796D01*
X004864Y009778D01*
X004852Y009763D01*
X004837Y009751D01*
X004819Y009742D01*
X004801Y009736D01*
X004781Y009734D01*
X002081Y009734D01*
X002061Y009736D01*
X002043Y009742D01*
X002025Y009751D01*
X002010Y009763D01*
X001998Y009778D01*
X001989Y009796D01*
X001983Y009814D01*
X001981Y009834D01*
X001981Y010634D01*
X001983Y010654D01*
X001989Y010672D01*
X001998Y010690D01*
X002010Y010705D01*
X002025Y010717D01*
X002043Y010726D01*
X002061Y010732D01*
X002081Y010734D01*
X004781Y010734D01*
X004801Y010732D01*
X004819Y010726D01*
X004837Y010717D01*
X004852Y010705D01*
X004864Y010690D01*
X004873Y010672D01*
X004879Y010654D01*
X004881Y010634D01*
X004031Y010234D02*
X003561Y010234D01*
X003311Y010234D02*
X002831Y010234D01*
X002431Y009134D02*
X002431Y008234D01*
X002531Y008134D01*
X002431Y008034D01*
X002431Y007234D01*
X002531Y007134D01*
X002431Y007034D01*
X002431Y006234D01*
X002531Y006134D01*
X002431Y006034D01*
X002431Y005234D01*
X002531Y005134D01*
X002431Y005034D01*
X002431Y004234D01*
X002531Y004134D01*
X002431Y004034D01*
X002431Y003134D01*
X003431Y003134D01*
X003431Y004034D01*
X003331Y004134D01*
X003431Y004234D01*
X003431Y005034D01*
X003331Y005134D01*
X003431Y005234D01*
X003431Y006034D01*
X003331Y006134D01*
X003431Y006234D01*
X003431Y007034D01*
X003331Y007134D01*
X003431Y007234D01*
X003431Y008034D01*
X003331Y008134D01*
X003431Y008234D01*
X003431Y009134D01*
X005531Y006684D02*
X005531Y004384D01*
X013531Y004384D01*
X013531Y005134D01*
X013492Y005136D01*
X013453Y005142D01*
X013415Y005151D01*
X013378Y005164D01*
X013342Y005181D01*
X013309Y005201D01*
X013277Y005225D01*
X013248Y005251D01*
X013222Y005280D01*
X013198Y005312D01*
X013178Y005345D01*
X013161Y005381D01*
X013148Y005418D01*
X013139Y005456D01*
X013133Y005495D01*
X013131Y005534D01*
X013133Y005573D01*
X013139Y005612D01*
X013148Y005650D01*
X013161Y005687D01*
X013178Y005723D01*
X013198Y005756D01*
X013222Y005788D01*
X013248Y005817D01*
X013277Y005843D01*
X013309Y005867D01*
X013342Y005887D01*
X013378Y005904D01*
X013415Y005917D01*
X013453Y005926D01*
X013492Y005932D01*
X013531Y005934D01*
X013531Y006684D01*
X005531Y006684D01*
X005131Y002934D02*
X005031Y002834D01*
X004931Y002934D01*
X004131Y002934D01*
X004031Y002834D01*
X003931Y002934D01*
X003031Y002934D01*
X003031Y001934D01*
X003931Y001934D01*
X004031Y002034D01*
X004131Y001934D01*
X004931Y001934D01*
X005031Y002034D01*
X005131Y001934D01*
X005931Y001934D01*
X006031Y002034D01*
X006131Y001934D01*
X006931Y001934D01*
X007031Y002034D01*
X007131Y001934D01*
X007931Y001934D01*
X008031Y002034D01*
X008131Y001934D01*
X008931Y001934D01*
X009031Y002034D01*
X009131Y001934D01*
X009931Y001934D01*
X010031Y002034D01*
X010131Y001934D01*
X010931Y001934D01*
X011031Y002034D01*
X011131Y001934D01*
X011931Y001934D01*
X012031Y002034D01*
X012131Y001934D01*
X012931Y001934D01*
X013031Y002034D01*
X013131Y001934D01*
X013931Y001934D01*
X014031Y002034D01*
X014131Y001934D01*
X015031Y001934D01*
X015031Y002934D02*
X014131Y002934D01*
X014031Y002834D01*
X013931Y002934D01*
X013131Y002934D01*
X013031Y002834D01*
X012931Y002934D01*
X012131Y002934D01*
X012031Y002834D01*
X011931Y002934D01*
X011131Y002934D01*
X011031Y002834D01*
X010931Y002934D01*
X010131Y002934D01*
X010031Y002834D01*
X009931Y002934D01*
X009131Y002934D01*
X009031Y002834D01*
X008931Y002934D01*
X008131Y002934D01*
X008031Y002834D01*
X007931Y002934D01*
X007131Y002934D01*
X007031Y002834D01*
X006931Y002934D01*
X006131Y002934D01*
X006031Y002834D01*
X005931Y002934D01*
X005131Y002934D01*
X014231Y003134D02*
X015231Y003134D01*
X015231Y004034D01*
X015131Y004134D01*
X015231Y004234D01*
X015231Y005034D01*
X015131Y005134D01*
X015231Y005234D01*
X015231Y006034D01*
X015131Y006134D01*
X015231Y006234D01*
X015231Y007034D01*
X015131Y007134D01*
X015231Y007234D01*
X015231Y008034D01*
X015131Y008134D01*
X015231Y008234D01*
X015231Y009134D01*
X014231Y009134D02*
X014231Y008234D01*
X014331Y008134D01*
X014231Y008034D01*
X014231Y007234D01*
X014331Y007134D01*
X014231Y007034D01*
X014231Y006234D01*
X014331Y006134D01*
X014231Y006034D01*
X014231Y005234D01*
X014331Y005134D01*
X014231Y005034D01*
X014231Y004234D01*
X014331Y004134D01*
X014231Y004034D01*
X014231Y003134D01*
X016031Y002434D02*
X016033Y002479D01*
X016039Y002525D01*
X016050Y002569D01*
X016064Y002612D01*
X016082Y002654D01*
X016104Y002694D01*
X016129Y002732D01*
X016158Y002767D01*
X016190Y002799D01*
X016224Y002829D01*
X016262Y002855D01*
X016301Y002878D01*
X016342Y002897D01*
X016385Y002912D01*
X016429Y002924D01*
X016474Y002931D01*
X016520Y002934D01*
X016565Y002933D01*
X016610Y002928D01*
X016655Y002918D01*
X016698Y002905D01*
X016741Y002888D01*
X016781Y002867D01*
X016819Y002842D01*
X016855Y002815D01*
X016889Y002784D01*
X016919Y002750D01*
X016946Y002713D01*
X016970Y002674D01*
X016990Y002633D01*
X017006Y002591D01*
X017018Y002547D01*
X017026Y002502D01*
X017030Y002457D01*
X017030Y002411D01*
X017026Y002366D01*
X017018Y002321D01*
X017006Y002277D01*
X016990Y002235D01*
X016970Y002194D01*
X016946Y002155D01*
X016919Y002118D01*
X016889Y002084D01*
X016855Y002053D01*
X016819Y002026D01*
X016781Y002001D01*
X016741Y001980D01*
X016698Y001963D01*
X016655Y001950D01*
X016610Y001940D01*
X016565Y001935D01*
X016520Y001934D01*
X016474Y001937D01*
X016429Y001944D01*
X016385Y001956D01*
X016342Y001971D01*
X016301Y001990D01*
X016262Y002013D01*
X016224Y002039D01*
X016190Y002069D01*
X016158Y002101D01*
X016129Y002136D01*
X016104Y002174D01*
X016082Y002214D01*
X016064Y002256D01*
X016050Y002299D01*
X016039Y002343D01*
X016033Y002389D01*
X016031Y002434D01*
X016531Y009934D02*
X016731Y009934D01*
X016731Y010734D01*
X016531Y010734D01*
X016531Y010334D01*
X016531Y009934D01*
X016531Y010334D02*
X016281Y010334D01*
X016331Y010484D02*
X016331Y010684D01*
X016231Y010584D02*
X016431Y010584D01*
X017081Y010334D02*
X017381Y010334D01*
X015231Y011634D02*
X015231Y012534D01*
X015131Y012634D01*
X015231Y012734D01*
X015231Y013534D01*
X015131Y013634D01*
X015231Y013734D01*
X015231Y014534D01*
X015131Y014634D01*
X015231Y014734D01*
X015231Y015534D01*
X015131Y015634D01*
X015231Y015734D01*
X015231Y016534D01*
X015131Y016634D01*
X015231Y016734D01*
X015231Y017634D01*
X014231Y017634D01*
X014231Y016734D01*
X014331Y016634D01*
X014231Y016534D01*
X014231Y015734D01*
X014331Y015634D01*
X014231Y015534D01*
X014231Y014734D01*
X014331Y014634D01*
X014231Y014534D01*
X014231Y013734D01*
X014331Y013634D01*
X014231Y013534D01*
X014231Y012734D01*
X014331Y012634D01*
X014231Y012534D01*
X014231Y011634D01*
X014231Y010734D02*
X014233Y010779D01*
X014239Y010825D01*
X014250Y010869D01*
X014264Y010912D01*
X014282Y010954D01*
X014304Y010994D01*
X014329Y011032D01*
X014358Y011067D01*
X014390Y011099D01*
X014424Y011129D01*
X014462Y011155D01*
X014501Y011178D01*
X014542Y011197D01*
X014585Y011212D01*
X014629Y011224D01*
X014674Y011231D01*
X014720Y011234D01*
X014765Y011233D01*
X014810Y011228D01*
X014855Y011218D01*
X014898Y011205D01*
X014941Y011188D01*
X014981Y011167D01*
X015019Y011142D01*
X015055Y011115D01*
X015089Y011084D01*
X015119Y011050D01*
X015146Y011013D01*
X015170Y010974D01*
X015190Y010933D01*
X015206Y010891D01*
X015218Y010847D01*
X015226Y010802D01*
X015230Y010757D01*
X015230Y010711D01*
X015226Y010666D01*
X015218Y010621D01*
X015206Y010577D01*
X015190Y010535D01*
X015170Y010494D01*
X015146Y010455D01*
X015119Y010418D01*
X015089Y010384D01*
X015055Y010353D01*
X015019Y010326D01*
X014981Y010301D01*
X014941Y010280D01*
X014898Y010263D01*
X014855Y010250D01*
X014810Y010240D01*
X014765Y010235D01*
X014720Y010234D01*
X014674Y010237D01*
X014629Y010244D01*
X014585Y010256D01*
X014542Y010271D01*
X014501Y010290D01*
X014462Y010313D01*
X014424Y010339D01*
X014390Y010369D01*
X014358Y010401D01*
X014329Y010436D01*
X014304Y010474D01*
X014282Y010514D01*
X014264Y010556D01*
X014250Y010599D01*
X014239Y010643D01*
X014233Y010689D01*
X014231Y010734D01*
X014131Y017834D02*
X014031Y017934D01*
X013931Y017834D01*
X013131Y017834D01*
X013031Y017934D01*
X012931Y017834D01*
X012131Y017834D01*
X012031Y017934D01*
X011931Y017834D01*
X011131Y017834D01*
X011031Y017934D01*
X010931Y017834D01*
X010131Y017834D01*
X010031Y017934D01*
X009931Y017834D01*
X009131Y017834D01*
X009031Y017934D01*
X008931Y017834D01*
X008131Y017834D01*
X008031Y017934D01*
X007931Y017834D01*
X007131Y017834D01*
X007031Y017934D01*
X006931Y017834D01*
X006131Y017834D01*
X006031Y017934D01*
X005931Y017834D01*
X005131Y017834D01*
X005031Y017934D01*
X004931Y017834D01*
X004131Y017834D01*
X004031Y017934D01*
X003931Y017834D01*
X003031Y017834D01*
X003031Y018834D02*
X003931Y018834D01*
X004031Y018734D01*
X004131Y018834D01*
X004931Y018834D01*
X005031Y018734D01*
X005131Y018834D01*
X005931Y018834D01*
X006031Y018734D01*
X006131Y018834D01*
X006931Y018834D01*
X007031Y018734D01*
X007131Y018834D01*
X007931Y018834D01*
X008031Y018734D01*
X008131Y018834D01*
X008931Y018834D01*
X009031Y018734D01*
X009131Y018834D01*
X009931Y018834D01*
X010031Y018734D01*
X010131Y018834D01*
X010931Y018834D01*
X011031Y018734D01*
X011131Y018834D01*
X011931Y018834D01*
X012031Y018734D01*
X012131Y018834D01*
X012931Y018834D01*
X013031Y018734D01*
X013131Y018834D01*
X013931Y018834D01*
X014031Y018734D01*
X014131Y018834D01*
X015031Y018834D01*
X015031Y017834D01*
X014131Y017834D01*
D13*
X010746Y015234D02*
X010746Y015159D01*
X010446Y014859D01*
X010746Y014859D01*
X010746Y015234D02*
X010671Y015309D01*
X010521Y015309D01*
X010446Y015234D01*
X010286Y015234D02*
X010211Y015309D01*
X010060Y015309D01*
X009985Y015234D01*
X009985Y014934D01*
X010060Y014859D01*
X010211Y014859D01*
X010286Y014934D01*
X009829Y014859D02*
X009679Y014859D01*
X009754Y014859D02*
X009754Y015309D01*
X009679Y015309D02*
X009829Y015309D01*
X014460Y011539D02*
X014910Y011539D01*
X014910Y011389D02*
X014910Y011689D01*
X014610Y011389D02*
X014460Y011539D01*
X015231Y010118D02*
X015156Y010043D01*
X015156Y009893D01*
X015231Y009818D01*
X015231Y009658D02*
X015156Y009583D01*
X015156Y009358D01*
X015606Y009358D01*
X015456Y009358D02*
X015456Y009583D01*
X015381Y009658D01*
X015231Y009658D01*
X015456Y009508D02*
X015606Y009658D01*
X015531Y009818D02*
X015606Y009893D01*
X015606Y010043D01*
X015531Y010118D01*
X015456Y010118D01*
X015381Y010043D01*
X015381Y009968D01*
X015381Y010043D02*
X015306Y010118D01*
X015231Y010118D01*
X015002Y009268D02*
X015002Y008968D01*
X015002Y009118D02*
X014552Y009118D01*
X014702Y008968D01*
X011996Y009784D02*
X011921Y009709D01*
X011771Y009709D01*
X011696Y009784D01*
X011536Y009784D02*
X011461Y009709D01*
X011310Y009709D01*
X011235Y009784D01*
X011235Y010084D01*
X011310Y010159D01*
X011461Y010159D01*
X011536Y010084D01*
X011696Y010084D02*
X011771Y010159D01*
X011921Y010159D01*
X011996Y010084D01*
X011996Y010009D01*
X011921Y009934D01*
X011996Y009859D01*
X011996Y009784D01*
X011921Y009934D02*
X011846Y009934D01*
X011079Y010159D02*
X010929Y010159D01*
X011004Y010159D02*
X011004Y009709D01*
X010929Y009709D02*
X011079Y009709D01*
X007974Y005759D02*
X007823Y005609D01*
X007663Y005684D02*
X007588Y005759D01*
X007438Y005759D01*
X007363Y005684D01*
X007363Y005384D01*
X007438Y005309D01*
X007588Y005309D01*
X007663Y005384D01*
X007823Y005309D02*
X008124Y005309D01*
X007974Y005309D02*
X007974Y005759D01*
X007206Y005759D02*
X007056Y005759D01*
X007131Y005759D02*
X007131Y005309D01*
X007056Y005309D02*
X007206Y005309D01*
X003202Y008968D02*
X003202Y009268D01*
X003202Y009118D02*
X002752Y009118D01*
X002902Y008968D01*
X002717Y010909D02*
X002417Y010909D01*
X002567Y010909D02*
X002567Y011359D01*
X002417Y011209D01*
X002256Y011284D02*
X002181Y011359D01*
X002031Y011359D01*
X001956Y011284D01*
X001956Y010984D01*
X002031Y010909D01*
X002181Y010909D01*
X002256Y010984D01*
X002810Y011389D02*
X002660Y011539D01*
X003110Y011539D01*
X003110Y011389D02*
X003110Y011689D01*
X003050Y018149D02*
X002750Y018149D01*
X002900Y018149D02*
X002900Y018599D01*
X002750Y018449D01*
X017556Y011384D02*
X017556Y011084D01*
X017631Y011009D01*
X017781Y011009D01*
X017856Y011084D01*
X018017Y011009D02*
X018317Y011309D01*
X018317Y011384D01*
X018242Y011459D01*
X018092Y011459D01*
X018017Y011384D01*
X017856Y011384D02*
X017781Y011459D01*
X017631Y011459D01*
X017556Y011384D01*
X018017Y011009D02*
X018317Y011009D01*
X017791Y002609D02*
X017641Y002609D01*
X017566Y002534D01*
X017406Y002534D02*
X017406Y002384D01*
X017331Y002309D01*
X017105Y002309D01*
X017105Y002159D02*
X017105Y002609D01*
X017331Y002609D01*
X017406Y002534D01*
X017256Y002309D02*
X017406Y002159D01*
X017566Y002159D02*
X017866Y002459D01*
X017866Y002534D01*
X017791Y002609D01*
X017866Y002159D02*
X017566Y002159D01*
X015202Y002169D02*
X014902Y002169D01*
X015052Y002169D02*
X015052Y002619D01*
X014902Y002469D01*
D14*
X003561Y009984D02*
X003561Y010234D01*
X003561Y010484D01*
X003311Y010484D02*
X003311Y010234D01*
X003311Y009984D01*
D15*
X015964Y009788D02*
X016007Y009815D01*
X016006Y009814D02*
X016041Y009763D01*
X016078Y009715D01*
X016119Y009668D01*
X016162Y009625D01*
X016208Y009584D01*
X016256Y009546D01*
X016307Y009512D01*
X016360Y009480D01*
X016415Y009452D01*
X016471Y009428D01*
X016529Y009407D01*
X016588Y009390D01*
X016648Y009376D01*
X016708Y009367D01*
X016770Y009361D01*
X016831Y009359D01*
X016892Y009361D01*
X016954Y009367D01*
X017014Y009376D01*
X017074Y009390D01*
X017133Y009407D01*
X017191Y009428D01*
X017247Y009452D01*
X017302Y009480D01*
X017355Y009512D01*
X017406Y009546D01*
X017454Y009584D01*
X017500Y009625D01*
X017543Y009668D01*
X017584Y009715D01*
X017621Y009763D01*
X017656Y009814D01*
X017698Y009788D01*
X017663Y009736D01*
X017625Y009686D01*
X017584Y009639D01*
X017540Y009594D01*
X017494Y009552D01*
X017445Y009513D01*
X017393Y009477D01*
X017340Y009444D01*
X017285Y009415D01*
X017228Y009389D01*
X017169Y009366D01*
X017109Y009348D01*
X017049Y009332D01*
X016987Y009321D01*
X016925Y009313D01*
X016862Y009309D01*
X016800Y009309D01*
X016737Y009313D01*
X016675Y009321D01*
X016613Y009332D01*
X016553Y009348D01*
X016493Y009366D01*
X016434Y009389D01*
X016377Y009415D01*
X016322Y009444D01*
X016269Y009477D01*
X016217Y009513D01*
X016168Y009552D01*
X016122Y009594D01*
X016078Y009639D01*
X016037Y009686D01*
X015999Y009736D01*
X015964Y009788D01*
X015971Y009792D01*
X016006Y009741D01*
X016044Y009692D01*
X016085Y009645D01*
X016128Y009600D01*
X016174Y009559D01*
X016223Y009520D01*
X016274Y009485D01*
X016327Y009452D01*
X016381Y009423D01*
X016438Y009397D01*
X016496Y009375D01*
X016555Y009356D01*
X016615Y009341D01*
X016676Y009330D01*
X016738Y009322D01*
X016800Y009318D01*
X016862Y009318D01*
X016924Y009322D01*
X016986Y009330D01*
X017047Y009341D01*
X017107Y009356D01*
X017166Y009375D01*
X017224Y009397D01*
X017281Y009423D01*
X017335Y009452D01*
X017388Y009485D01*
X017439Y009520D01*
X017488Y009559D01*
X017534Y009600D01*
X017577Y009645D01*
X017618Y009692D01*
X017656Y009741D01*
X017691Y009792D01*
X017683Y009797D01*
X017648Y009745D01*
X017609Y009694D01*
X017567Y009647D01*
X017522Y009602D01*
X017475Y009560D01*
X017425Y009521D01*
X017372Y009485D01*
X017318Y009452D01*
X017261Y009423D01*
X017203Y009398D01*
X017143Y009377D01*
X017082Y009359D01*
X017020Y009345D01*
X016958Y009335D01*
X016894Y009329D01*
X016831Y009327D01*
X016768Y009329D01*
X016704Y009335D01*
X016642Y009345D01*
X016580Y009359D01*
X016519Y009377D01*
X016459Y009398D01*
X016401Y009423D01*
X016344Y009452D01*
X016290Y009485D01*
X016237Y009521D01*
X016187Y009560D01*
X016140Y009602D01*
X016095Y009647D01*
X016053Y009694D01*
X016014Y009745D01*
X015979Y009797D01*
X015987Y009802D01*
X016022Y009750D01*
X016060Y009700D01*
X016102Y009653D01*
X016146Y009608D01*
X016193Y009566D01*
X016243Y009528D01*
X016295Y009492D01*
X016349Y009460D01*
X016405Y009432D01*
X016462Y009407D01*
X016522Y009385D01*
X016582Y009368D01*
X016643Y009354D01*
X016706Y009344D01*
X016768Y009338D01*
X016831Y009336D01*
X016894Y009338D01*
X016956Y009344D01*
X017019Y009354D01*
X017080Y009368D01*
X017140Y009385D01*
X017200Y009407D01*
X017257Y009432D01*
X017313Y009460D01*
X017367Y009492D01*
X017419Y009528D01*
X017469Y009566D01*
X017516Y009608D01*
X017560Y009653D01*
X017602Y009700D01*
X017640Y009750D01*
X017675Y009802D01*
X017668Y009807D01*
X017633Y009755D01*
X017595Y009706D01*
X017554Y009659D01*
X017510Y009615D01*
X017463Y009573D01*
X017414Y009535D01*
X017362Y009500D01*
X017309Y009468D01*
X017253Y009440D01*
X017196Y009415D01*
X017138Y009394D01*
X017078Y009376D01*
X017017Y009363D01*
X016955Y009353D01*
X016893Y009347D01*
X016831Y009345D01*
X016769Y009347D01*
X016707Y009353D01*
X016645Y009363D01*
X016584Y009376D01*
X016524Y009394D01*
X016466Y009415D01*
X016409Y009440D01*
X016353Y009468D01*
X016300Y009500D01*
X016248Y009535D01*
X016199Y009573D01*
X016152Y009615D01*
X016108Y009659D01*
X016067Y009706D01*
X016029Y009755D01*
X015994Y009807D01*
X016002Y009812D01*
X016036Y009760D01*
X016074Y009711D01*
X016115Y009665D01*
X016158Y009621D01*
X016205Y009580D01*
X016253Y009542D01*
X016304Y009507D01*
X016358Y009476D01*
X016413Y009448D01*
X016469Y009423D01*
X016527Y009402D01*
X016587Y009385D01*
X016647Y009371D01*
X016708Y009362D01*
X016769Y009356D01*
X016831Y009354D01*
X016893Y009356D01*
X016954Y009362D01*
X017015Y009371D01*
X017075Y009385D01*
X017135Y009402D01*
X017193Y009423D01*
X017249Y009448D01*
X017304Y009476D01*
X017358Y009507D01*
X017409Y009542D01*
X017457Y009580D01*
X017504Y009621D01*
X017547Y009665D01*
X017588Y009711D01*
X017626Y009760D01*
X017660Y009812D01*
X017698Y010880D02*
X017655Y010853D01*
X017656Y010854D02*
X017621Y010905D01*
X017584Y010953D01*
X017543Y011000D01*
X017500Y011043D01*
X017454Y011084D01*
X017406Y011122D01*
X017355Y011156D01*
X017302Y011188D01*
X017247Y011216D01*
X017191Y011240D01*
X017133Y011261D01*
X017074Y011278D01*
X017014Y011292D01*
X016954Y011301D01*
X016892Y011307D01*
X016831Y011309D01*
X016770Y011307D01*
X016708Y011301D01*
X016648Y011292D01*
X016588Y011278D01*
X016529Y011261D01*
X016471Y011240D01*
X016415Y011216D01*
X016360Y011188D01*
X016307Y011156D01*
X016256Y011122D01*
X016208Y011084D01*
X016162Y011043D01*
X016119Y011000D01*
X016078Y010953D01*
X016041Y010905D01*
X016006Y010854D01*
X015964Y010880D01*
X015999Y010932D01*
X016037Y010982D01*
X016078Y011029D01*
X016122Y011074D01*
X016168Y011116D01*
X016217Y011155D01*
X016269Y011191D01*
X016322Y011224D01*
X016377Y011253D01*
X016434Y011279D01*
X016493Y011302D01*
X016553Y011320D01*
X016613Y011336D01*
X016675Y011347D01*
X016737Y011355D01*
X016800Y011359D01*
X016862Y011359D01*
X016925Y011355D01*
X016987Y011347D01*
X017049Y011336D01*
X017109Y011320D01*
X017169Y011302D01*
X017228Y011279D01*
X017285Y011253D01*
X017340Y011224D01*
X017393Y011191D01*
X017445Y011155D01*
X017494Y011116D01*
X017540Y011074D01*
X017584Y011029D01*
X017625Y010982D01*
X017663Y010932D01*
X017698Y010880D01*
X017691Y010876D01*
X017656Y010927D01*
X017618Y010976D01*
X017577Y011023D01*
X017534Y011068D01*
X017488Y011109D01*
X017439Y011148D01*
X017388Y011183D01*
X017335Y011216D01*
X017281Y011245D01*
X017224Y011271D01*
X017166Y011293D01*
X017107Y011312D01*
X017047Y011327D01*
X016986Y011338D01*
X016924Y011346D01*
X016862Y011350D01*
X016800Y011350D01*
X016738Y011346D01*
X016676Y011338D01*
X016615Y011327D01*
X016555Y011312D01*
X016496Y011293D01*
X016438Y011271D01*
X016381Y011245D01*
X016327Y011216D01*
X016274Y011183D01*
X016223Y011148D01*
X016174Y011109D01*
X016128Y011068D01*
X016085Y011023D01*
X016044Y010976D01*
X016006Y010927D01*
X015971Y010876D01*
X015979Y010871D01*
X016014Y010923D01*
X016053Y010974D01*
X016095Y011021D01*
X016140Y011066D01*
X016187Y011108D01*
X016237Y011147D01*
X016290Y011183D01*
X016344Y011216D01*
X016401Y011245D01*
X016459Y011270D01*
X016519Y011291D01*
X016580Y011309D01*
X016642Y011323D01*
X016704Y011333D01*
X016768Y011339D01*
X016831Y011341D01*
X016894Y011339D01*
X016958Y011333D01*
X017020Y011323D01*
X017082Y011309D01*
X017143Y011291D01*
X017203Y011270D01*
X017261Y011245D01*
X017318Y011216D01*
X017372Y011183D01*
X017425Y011147D01*
X017475Y011108D01*
X017522Y011066D01*
X017567Y011021D01*
X017609Y010974D01*
X017648Y010923D01*
X017683Y010871D01*
X017675Y010866D01*
X017640Y010918D01*
X017602Y010968D01*
X017560Y011015D01*
X017516Y011060D01*
X017469Y011102D01*
X017419Y011140D01*
X017367Y011176D01*
X017313Y011208D01*
X017257Y011236D01*
X017200Y011261D01*
X017140Y011283D01*
X017080Y011300D01*
X017019Y011314D01*
X016956Y011324D01*
X016894Y011330D01*
X016831Y011332D01*
X016768Y011330D01*
X016706Y011324D01*
X016643Y011314D01*
X016582Y011300D01*
X016522Y011283D01*
X016462Y011261D01*
X016405Y011236D01*
X016349Y011208D01*
X016295Y011176D01*
X016243Y011140D01*
X016193Y011102D01*
X016146Y011060D01*
X016102Y011015D01*
X016060Y010968D01*
X016022Y010918D01*
X015987Y010866D01*
X015994Y010861D01*
X016029Y010913D01*
X016067Y010962D01*
X016108Y011009D01*
X016152Y011053D01*
X016199Y011095D01*
X016248Y011133D01*
X016300Y011168D01*
X016353Y011200D01*
X016409Y011228D01*
X016466Y011253D01*
X016524Y011274D01*
X016584Y011292D01*
X016645Y011305D01*
X016707Y011315D01*
X016769Y011321D01*
X016831Y011323D01*
X016893Y011321D01*
X016955Y011315D01*
X017017Y011305D01*
X017078Y011292D01*
X017138Y011274D01*
X017196Y011253D01*
X017253Y011228D01*
X017309Y011200D01*
X017362Y011168D01*
X017414Y011133D01*
X017463Y011095D01*
X017510Y011053D01*
X017554Y011009D01*
X017595Y010962D01*
X017633Y010913D01*
X017668Y010861D01*
X017660Y010856D01*
X017626Y010908D01*
X017588Y010957D01*
X017547Y011003D01*
X017504Y011047D01*
X017457Y011088D01*
X017409Y011126D01*
X017358Y011161D01*
X017304Y011192D01*
X017249Y011220D01*
X017193Y011245D01*
X017135Y011266D01*
X017075Y011283D01*
X017015Y011297D01*
X016954Y011306D01*
X016893Y011312D01*
X016831Y011314D01*
X016769Y011312D01*
X016708Y011306D01*
X016647Y011297D01*
X016587Y011283D01*
X016527Y011266D01*
X016469Y011245D01*
X016413Y011220D01*
X016358Y011192D01*
X016304Y011161D01*
X016253Y011126D01*
X016205Y011088D01*
X016158Y011047D01*
X016115Y011003D01*
X016074Y010957D01*
X016036Y010908D01*
X016002Y010856D01*
D16*
X017031Y010334D03*
D17*
X014731Y010334D02*
X014731Y010134D01*
X015931Y002434D02*
X016131Y002434D01*
M02*
