%
M48
M72
T01C0.0236
T02C0.0240
T03C0.0320
%
T01
X18327Y12634
T02
X13727Y9334
X10077Y10584
X6727Y12934
X6727Y14134
X7727Y16434
T03
X3727Y2434
X4727Y2434
X5727Y2434
X6727Y2434
X7727Y2434
X8727Y2434
X9727Y2434
X10727Y2434
X11727Y2434
X12727Y2434
X13727Y2434
X14727Y2434
X15727Y2434
X16727Y2434
X17327Y3634
X17327Y4634
X17327Y5634
X17327Y6634
X17327Y7634
X17327Y8634
X17827Y10234
X17327Y12134
X17327Y13134
X17327Y14134
X17327Y15134
X17327Y16134
X17327Y17134
X16727Y18334
X15727Y18334
X14727Y18334
X13727Y18334
X12727Y18334
X11727Y18334
X10727Y18334
X9727Y18334
X8727Y18334
X7727Y18334
X6727Y18334
X5727Y18334
X5527Y17134
X5527Y16134
X5527Y15134
X5527Y14134
X5527Y13134
X5527Y12134
X5527Y10734
X5527Y9734
X5527Y8634
X5527Y7634
X5527Y6634
X5527Y5634
X5527Y4634
X5527Y3634
X7227Y4034
X8227Y4034
X9227Y4034
X10227Y4034
X11227Y4034
X12227Y4034
X13227Y4034
X14227Y4034
X14227Y7034
X13227Y7034
X12227Y7034
X11227Y7034
X10227Y7034
X9227Y7034
X8227Y7034
X7227Y7034
X7227Y8534
X8227Y8534
X9227Y8534
X10227Y8534
X11227Y8534
X12227Y8534
X13227Y8534
X14227Y8534
X15827Y10234
X14227Y11534
X13227Y11534
X12227Y11534
X11227Y11534
X10227Y11534
X9227Y11534
X8227Y11534
X7227Y11534
X8427Y13634
X9427Y13634
X10427Y13634
X11427Y13634
X12427Y13634
X13427Y13634
X14427Y13634
X15427Y13634
X15427Y16634
X14427Y16634
X13427Y16634
X12427Y16634
X11427Y16634
X10427Y16634
X9427Y16634
X8427Y16634
X4427Y10334
X2427Y10334
M30
