G75*
%MOIN*%
%OFA0B0*%
%FSLAX25Y25*%
%IPPOS*%
%LPD*%
%AMOC8*
5,1,8,0,0,1.08239X$1,22.5*
%
%ADD10C,0.06800*%
%ADD11C,0.10800*%
%ADD12C,0.20485*%
%ADD13OC8,0.06000*%
%ADD14OC8,0.04762*%
D10*
X0111000Y0008000D02*
X0111000Y0014000D01*
X0121000Y0014000D02*
X0121000Y0008000D01*
X0131000Y0008000D02*
X0131000Y0014000D01*
X0156000Y0014000D02*
X0156000Y0008000D01*
X0166000Y0008000D02*
X0166000Y0014000D01*
X0176000Y0014000D02*
X0176000Y0008000D01*
X0186000Y0008000D02*
X0186000Y0014000D01*
X0196000Y0014000D02*
X0196000Y0008000D01*
X0206000Y0008000D02*
X0206000Y0014000D01*
X0216000Y0014000D02*
X0216000Y0008000D01*
X0226000Y0008000D02*
X0226000Y0014000D01*
X0236000Y0014000D02*
X0236000Y0008000D01*
X0246000Y0008000D02*
X0246000Y0014000D01*
X0256000Y0014000D02*
X0256000Y0008000D01*
X0266000Y0008000D02*
X0266000Y0014000D01*
X0276000Y0014000D02*
X0276000Y0008000D01*
X0286000Y0008000D02*
X0286000Y0014000D01*
X0296000Y0014000D02*
X0296000Y0008000D01*
X0306000Y0008000D02*
X0306000Y0014000D01*
X0316000Y0014000D02*
X0316000Y0008000D01*
X0326000Y0008000D02*
X0326000Y0014000D01*
X0336000Y0014000D02*
X0336000Y0008000D01*
X0346000Y0008000D02*
X0346000Y0014000D01*
D11*
X0379750Y0061817D03*
X0364002Y0065754D03*
X0395498Y0065754D03*
X0400872Y0080783D03*
X0437378Y0080783D03*
X0480872Y0080783D03*
X0475498Y0065754D03*
X0459750Y0061817D03*
X0444002Y0065754D03*
X0357378Y0080783D03*
X0313372Y0080783D03*
X0307998Y0065754D03*
X0292250Y0061817D03*
X0276502Y0065754D03*
X0269878Y0080783D03*
X0233372Y0080783D03*
X0227998Y0065754D03*
X0212250Y0061817D03*
X0196502Y0065754D03*
X0189878Y0080783D03*
X0145872Y0080783D03*
X0140498Y0065754D03*
X0124750Y0061817D03*
X0109002Y0065754D03*
X0102378Y0080783D03*
X0065872Y0080783D03*
X0060498Y0065754D03*
X0044750Y0061817D03*
X0029002Y0065754D03*
X0022378Y0080783D03*
X0021878Y0098500D03*
X0066372Y0098500D03*
X0101878Y0098500D03*
X0146372Y0098500D03*
X0189378Y0098500D03*
X0233872Y0098500D03*
X0269378Y0098500D03*
X0313872Y0098500D03*
X0356878Y0098500D03*
X0401372Y0098500D03*
X0436878Y0098500D03*
X0481372Y0098500D03*
X0480872Y0116217D03*
X0437378Y0116217D03*
X0400872Y0116217D03*
X0357378Y0116217D03*
X0364002Y0131246D03*
X0379750Y0135183D03*
X0395498Y0131246D03*
X0444002Y0131246D03*
X0459750Y0135183D03*
X0475498Y0131246D03*
X0313372Y0116217D03*
X0307998Y0131246D03*
X0292250Y0135183D03*
X0276502Y0131246D03*
X0269878Y0116217D03*
X0233372Y0116217D03*
X0227998Y0131246D03*
X0212250Y0135183D03*
X0196502Y0131246D03*
X0189878Y0116217D03*
X0145872Y0116217D03*
X0140498Y0131246D03*
X0124750Y0135183D03*
X0109002Y0131246D03*
X0102378Y0116217D03*
X0065872Y0116217D03*
X0060498Y0131246D03*
X0044750Y0135183D03*
X0029002Y0131246D03*
X0022378Y0116217D03*
D12*
X0046000Y0098500D03*
X0126000Y0098500D03*
X0213500Y0098500D03*
X0293500Y0098500D03*
X0381000Y0098500D03*
X0461000Y0098500D03*
D13*
X0056000Y0028500D03*
X0096000Y0028500D03*
X0106000Y0028500D03*
X0146000Y0028500D03*
X0188500Y0028500D03*
X0228500Y0028500D03*
X0271000Y0028500D03*
X0311000Y0028500D03*
X0343500Y0028500D03*
X0383500Y0028500D03*
X0428500Y0028500D03*
X0468500Y0028500D03*
D14*
X0416000Y0041000D03*
X0411000Y0046000D03*
X0411000Y0053500D03*
X0411000Y0061000D03*
X0426000Y0071000D03*
X0338500Y0073500D03*
X0333500Y0073500D03*
X0328500Y0073500D03*
X0328500Y0063500D03*
X0333500Y0063500D03*
X0338500Y0063500D03*
X0318500Y0061000D03*
X0321000Y0051000D03*
X0331000Y0046000D03*
X0313500Y0041000D03*
X0318500Y0036000D03*
X0303500Y0036000D03*
X0303500Y0051000D03*
X0268500Y0051000D03*
X0246000Y0053500D03*
X0241000Y0068500D03*
X0248500Y0078500D03*
X0243500Y0081000D03*
X0256000Y0083500D03*
X0328500Y0086000D03*
X0333500Y0086000D03*
X0338500Y0086000D03*
X0333500Y0101000D03*
X0328500Y0101000D03*
X0328500Y0121000D03*
X0356000Y0128500D03*
X0333500Y0133500D03*
X0406000Y0138500D03*
X0411000Y0108500D03*
X0176000Y0071000D03*
X0166000Y0071000D03*
X0156000Y0071000D03*
X0156000Y0058500D03*
X0166000Y0058500D03*
X0176000Y0058500D03*
X0176000Y0041000D03*
X0166000Y0041000D03*
X0156000Y0041000D03*
X0148500Y0036000D03*
X0131000Y0028500D03*
X0073500Y0061000D03*
X0078500Y0066000D03*
X0086000Y0066000D03*
X0093500Y0066000D03*
X0161000Y0088500D03*
X0166000Y0093500D03*
X0171000Y0096000D03*
X0163500Y0118500D03*
X0163500Y0128500D03*
X0408500Y0021000D03*
M02*
