G75*
%MOIN*%
%OFA0B0*%
%FSLAX25Y25*%
%IPPOS*%
%LPD*%
%AMOC8*
5,1,8,0,0,1.08239X$1,22.5*
%
%ADD10C,0.00600*%
%ADD11C,0.00500*%
%ADD12C,0.01000*%
%ADD13C,0.01181*%
%ADD14R,0.03400X0.02400*%
D10*
X0064500Y0024000D02*
X0066000Y0024000D01*
X0066500Y0024500D01*
X0085500Y0024500D01*
X0086000Y0024000D01*
X0087500Y0024000D01*
X0087560Y0024002D01*
X0087621Y0024007D01*
X0087680Y0024016D01*
X0087739Y0024029D01*
X0087798Y0024045D01*
X0087855Y0024065D01*
X0087910Y0024088D01*
X0087965Y0024115D01*
X0088017Y0024144D01*
X0088068Y0024177D01*
X0088117Y0024213D01*
X0088163Y0024251D01*
X0088207Y0024293D01*
X0088249Y0024337D01*
X0088287Y0024383D01*
X0088323Y0024432D01*
X0088356Y0024483D01*
X0088385Y0024535D01*
X0088412Y0024590D01*
X0088435Y0024645D01*
X0088455Y0024702D01*
X0088471Y0024761D01*
X0088484Y0024820D01*
X0088493Y0024879D01*
X0088498Y0024940D01*
X0088500Y0025000D01*
X0088500Y0032000D01*
X0088498Y0032060D01*
X0088493Y0032121D01*
X0088484Y0032180D01*
X0088471Y0032239D01*
X0088455Y0032298D01*
X0088435Y0032355D01*
X0088412Y0032410D01*
X0088385Y0032465D01*
X0088356Y0032517D01*
X0088323Y0032568D01*
X0088287Y0032617D01*
X0088249Y0032663D01*
X0088207Y0032707D01*
X0088163Y0032749D01*
X0088117Y0032787D01*
X0088068Y0032823D01*
X0088017Y0032856D01*
X0087965Y0032885D01*
X0087910Y0032912D01*
X0087855Y0032935D01*
X0087798Y0032955D01*
X0087739Y0032971D01*
X0087680Y0032984D01*
X0087621Y0032993D01*
X0087560Y0032998D01*
X0087500Y0033000D01*
X0086000Y0033000D01*
X0085500Y0032500D01*
X0066500Y0032500D01*
X0066000Y0033000D01*
X0064500Y0033000D01*
X0064440Y0032998D01*
X0064379Y0032993D01*
X0064320Y0032984D01*
X0064261Y0032971D01*
X0064202Y0032955D01*
X0064145Y0032935D01*
X0064090Y0032912D01*
X0064035Y0032885D01*
X0063983Y0032856D01*
X0063932Y0032823D01*
X0063883Y0032787D01*
X0063837Y0032749D01*
X0063793Y0032707D01*
X0063751Y0032663D01*
X0063713Y0032617D01*
X0063677Y0032568D01*
X0063644Y0032517D01*
X0063615Y0032465D01*
X0063588Y0032410D01*
X0063565Y0032355D01*
X0063545Y0032298D01*
X0063529Y0032239D01*
X0063516Y0032180D01*
X0063507Y0032121D01*
X0063502Y0032060D01*
X0063500Y0032000D01*
X0063500Y0025000D01*
X0063502Y0024940D01*
X0063507Y0024879D01*
X0063516Y0024820D01*
X0063529Y0024761D01*
X0063545Y0024702D01*
X0063565Y0024645D01*
X0063588Y0024590D01*
X0063615Y0024535D01*
X0063644Y0024483D01*
X0063677Y0024432D01*
X0063713Y0024383D01*
X0063751Y0024337D01*
X0063793Y0024293D01*
X0063837Y0024251D01*
X0063883Y0024213D01*
X0063932Y0024177D01*
X0063983Y0024144D01*
X0064035Y0024115D01*
X0064090Y0024088D01*
X0064145Y0024065D01*
X0064202Y0024045D01*
X0064261Y0024029D01*
X0064320Y0024016D01*
X0064379Y0024007D01*
X0064440Y0024002D01*
X0064500Y0024000D01*
X0106000Y0013500D02*
X0106000Y0008500D01*
X0108500Y0006000D01*
X0113500Y0006000D01*
X0116000Y0008500D01*
X0116000Y0013500D01*
X0113500Y0016000D01*
X0108500Y0016000D01*
X0106000Y0013500D01*
X0116000Y0013500D02*
X0118500Y0016000D01*
X0123500Y0016000D01*
X0126000Y0013500D01*
X0128500Y0016000D01*
X0133500Y0016000D01*
X0136000Y0013500D01*
X0136000Y0008500D01*
X0133500Y0006000D01*
X0128500Y0006000D01*
X0126000Y0008500D01*
X0123500Y0006000D01*
X0118500Y0006000D01*
X0116000Y0008500D01*
X0126000Y0008500D02*
X0126000Y0013500D01*
X0151000Y0013500D02*
X0151000Y0008500D01*
X0153500Y0006000D01*
X0158500Y0006000D01*
X0161000Y0008500D01*
X0161000Y0013500D01*
X0158500Y0016000D01*
X0153500Y0016000D01*
X0151000Y0013500D01*
X0161000Y0013500D02*
X0163500Y0016000D01*
X0168500Y0016000D01*
X0171000Y0013500D01*
X0173500Y0016000D01*
X0178500Y0016000D01*
X0181000Y0013500D01*
X0183500Y0016000D01*
X0188500Y0016000D01*
X0191000Y0013500D01*
X0193500Y0016000D01*
X0198500Y0016000D01*
X0201000Y0013500D01*
X0203500Y0016000D01*
X0208500Y0016000D01*
X0211000Y0013500D01*
X0213500Y0016000D01*
X0218500Y0016000D01*
X0221000Y0013500D01*
X0223500Y0016000D01*
X0228500Y0016000D01*
X0231000Y0013500D01*
X0233500Y0016000D01*
X0238500Y0016000D01*
X0241000Y0013500D01*
X0243500Y0016000D01*
X0248500Y0016000D01*
X0251000Y0013500D01*
X0251000Y0008500D01*
X0248500Y0006000D01*
X0243500Y0006000D01*
X0241000Y0008500D01*
X0238500Y0006000D01*
X0233500Y0006000D01*
X0231000Y0008500D01*
X0231000Y0013500D01*
X0221000Y0013500D02*
X0221000Y0008500D01*
X0218500Y0006000D01*
X0213500Y0006000D01*
X0211000Y0008500D01*
X0208500Y0006000D01*
X0203500Y0006000D01*
X0201000Y0008500D01*
X0201000Y0013500D01*
X0191000Y0013500D02*
X0191000Y0008500D01*
X0188500Y0006000D01*
X0183500Y0006000D01*
X0181000Y0008500D01*
X0178500Y0006000D01*
X0173500Y0006000D01*
X0171000Y0008500D01*
X0171000Y0013500D01*
X0181000Y0013500D02*
X0181000Y0008500D01*
X0191000Y0008500D02*
X0193500Y0006000D01*
X0198500Y0006000D01*
X0201000Y0008500D01*
X0211000Y0008500D02*
X0211000Y0013500D01*
X0221000Y0008500D02*
X0223500Y0006000D01*
X0228500Y0006000D01*
X0231000Y0008500D01*
X0241000Y0008500D02*
X0241000Y0013500D01*
X0251000Y0013500D02*
X0253500Y0016000D01*
X0258500Y0016000D01*
X0261000Y0013500D01*
X0263500Y0016000D01*
X0268500Y0016000D01*
X0271000Y0013500D01*
X0273500Y0016000D01*
X0278500Y0016000D01*
X0281000Y0013500D01*
X0283500Y0016000D01*
X0288500Y0016000D01*
X0291000Y0013500D01*
X0293500Y0016000D01*
X0298500Y0016000D01*
X0301000Y0013500D01*
X0303500Y0016000D01*
X0308500Y0016000D01*
X0311000Y0013500D01*
X0313500Y0016000D01*
X0318500Y0016000D01*
X0321000Y0013500D01*
X0323500Y0016000D01*
X0328500Y0016000D01*
X0331000Y0013500D01*
X0333500Y0016000D01*
X0338500Y0016000D01*
X0341000Y0013500D01*
X0343500Y0016000D01*
X0348500Y0016000D01*
X0351000Y0013500D01*
X0351000Y0008500D01*
X0348500Y0006000D01*
X0343500Y0006000D01*
X0341000Y0008500D01*
X0338500Y0006000D01*
X0333500Y0006000D01*
X0331000Y0008500D01*
X0331000Y0013500D01*
X0321000Y0013500D02*
X0321000Y0008500D01*
X0318500Y0006000D01*
X0313500Y0006000D01*
X0311000Y0008500D01*
X0308500Y0006000D01*
X0303500Y0006000D01*
X0301000Y0008500D01*
X0301000Y0013500D01*
X0291000Y0013500D02*
X0291000Y0008500D01*
X0288500Y0006000D01*
X0283500Y0006000D01*
X0281000Y0008500D01*
X0278500Y0006000D01*
X0273500Y0006000D01*
X0271000Y0008500D01*
X0271000Y0013500D01*
X0261000Y0013500D02*
X0261000Y0008500D01*
X0258500Y0006000D01*
X0253500Y0006000D01*
X0251000Y0008500D01*
X0251000Y0013500D01*
X0261000Y0008500D02*
X0263500Y0006000D01*
X0268500Y0006000D01*
X0271000Y0008500D01*
X0281000Y0008500D02*
X0281000Y0013500D01*
X0291000Y0008500D02*
X0293500Y0006000D01*
X0298500Y0006000D01*
X0301000Y0008500D01*
X0311000Y0008500D02*
X0311000Y0013500D01*
X0321000Y0008500D02*
X0323500Y0006000D01*
X0328500Y0006000D01*
X0331000Y0008500D01*
X0341000Y0008500D02*
X0341000Y0013500D01*
X0352000Y0024000D02*
X0353500Y0024000D01*
X0354000Y0024500D01*
X0373000Y0024500D01*
X0373500Y0024000D01*
X0375000Y0024000D01*
X0375060Y0024002D01*
X0375121Y0024007D01*
X0375180Y0024016D01*
X0375239Y0024029D01*
X0375298Y0024045D01*
X0375355Y0024065D01*
X0375410Y0024088D01*
X0375465Y0024115D01*
X0375517Y0024144D01*
X0375568Y0024177D01*
X0375617Y0024213D01*
X0375663Y0024251D01*
X0375707Y0024293D01*
X0375749Y0024337D01*
X0375787Y0024383D01*
X0375823Y0024432D01*
X0375856Y0024483D01*
X0375885Y0024535D01*
X0375912Y0024590D01*
X0375935Y0024645D01*
X0375955Y0024702D01*
X0375971Y0024761D01*
X0375984Y0024820D01*
X0375993Y0024879D01*
X0375998Y0024940D01*
X0376000Y0025000D01*
X0376000Y0032000D01*
X0375998Y0032060D01*
X0375993Y0032121D01*
X0375984Y0032180D01*
X0375971Y0032239D01*
X0375955Y0032298D01*
X0375935Y0032355D01*
X0375912Y0032410D01*
X0375885Y0032465D01*
X0375856Y0032517D01*
X0375823Y0032568D01*
X0375787Y0032617D01*
X0375749Y0032663D01*
X0375707Y0032707D01*
X0375663Y0032749D01*
X0375617Y0032787D01*
X0375568Y0032823D01*
X0375517Y0032856D01*
X0375465Y0032885D01*
X0375410Y0032912D01*
X0375355Y0032935D01*
X0375298Y0032955D01*
X0375239Y0032971D01*
X0375180Y0032984D01*
X0375121Y0032993D01*
X0375060Y0032998D01*
X0375000Y0033000D01*
X0373500Y0033000D01*
X0373000Y0032500D01*
X0354000Y0032500D01*
X0353500Y0033000D01*
X0352000Y0033000D01*
X0351940Y0032998D01*
X0351879Y0032993D01*
X0351820Y0032984D01*
X0351761Y0032971D01*
X0351702Y0032955D01*
X0351645Y0032935D01*
X0351590Y0032912D01*
X0351535Y0032885D01*
X0351483Y0032856D01*
X0351432Y0032823D01*
X0351383Y0032787D01*
X0351337Y0032749D01*
X0351293Y0032707D01*
X0351251Y0032663D01*
X0351213Y0032617D01*
X0351177Y0032568D01*
X0351144Y0032517D01*
X0351115Y0032465D01*
X0351088Y0032410D01*
X0351065Y0032355D01*
X0351045Y0032298D01*
X0351029Y0032239D01*
X0351016Y0032180D01*
X0351007Y0032121D01*
X0351002Y0032060D01*
X0351000Y0032000D01*
X0351000Y0025000D01*
X0351002Y0024940D01*
X0351007Y0024879D01*
X0351016Y0024820D01*
X0351029Y0024761D01*
X0351045Y0024702D01*
X0351065Y0024645D01*
X0351088Y0024590D01*
X0351115Y0024535D01*
X0351144Y0024483D01*
X0351177Y0024432D01*
X0351213Y0024383D01*
X0351251Y0024337D01*
X0351293Y0024293D01*
X0351337Y0024251D01*
X0351383Y0024213D01*
X0351432Y0024177D01*
X0351483Y0024144D01*
X0351535Y0024115D01*
X0351590Y0024088D01*
X0351645Y0024065D01*
X0351702Y0024045D01*
X0351761Y0024029D01*
X0351820Y0024016D01*
X0351879Y0024007D01*
X0351940Y0024002D01*
X0352000Y0024000D01*
X0303500Y0025000D02*
X0303500Y0032000D01*
X0303498Y0032060D01*
X0303493Y0032121D01*
X0303484Y0032180D01*
X0303471Y0032239D01*
X0303455Y0032298D01*
X0303435Y0032355D01*
X0303412Y0032410D01*
X0303385Y0032465D01*
X0303356Y0032517D01*
X0303323Y0032568D01*
X0303287Y0032617D01*
X0303249Y0032663D01*
X0303207Y0032707D01*
X0303163Y0032749D01*
X0303117Y0032787D01*
X0303068Y0032823D01*
X0303017Y0032856D01*
X0302965Y0032885D01*
X0302910Y0032912D01*
X0302855Y0032935D01*
X0302798Y0032955D01*
X0302739Y0032971D01*
X0302680Y0032984D01*
X0302621Y0032993D01*
X0302560Y0032998D01*
X0302500Y0033000D01*
X0301000Y0033000D01*
X0300500Y0032500D01*
X0281500Y0032500D01*
X0281000Y0033000D01*
X0279500Y0033000D01*
X0279440Y0032998D01*
X0279379Y0032993D01*
X0279320Y0032984D01*
X0279261Y0032971D01*
X0279202Y0032955D01*
X0279145Y0032935D01*
X0279090Y0032912D01*
X0279035Y0032885D01*
X0278983Y0032856D01*
X0278932Y0032823D01*
X0278883Y0032787D01*
X0278837Y0032749D01*
X0278793Y0032707D01*
X0278751Y0032663D01*
X0278713Y0032617D01*
X0278677Y0032568D01*
X0278644Y0032517D01*
X0278615Y0032465D01*
X0278588Y0032410D01*
X0278565Y0032355D01*
X0278545Y0032298D01*
X0278529Y0032239D01*
X0278516Y0032180D01*
X0278507Y0032121D01*
X0278502Y0032060D01*
X0278500Y0032000D01*
X0278500Y0025000D01*
X0278502Y0024940D01*
X0278507Y0024879D01*
X0278516Y0024820D01*
X0278529Y0024761D01*
X0278545Y0024702D01*
X0278565Y0024645D01*
X0278588Y0024590D01*
X0278615Y0024535D01*
X0278644Y0024483D01*
X0278677Y0024432D01*
X0278713Y0024383D01*
X0278751Y0024337D01*
X0278793Y0024293D01*
X0278837Y0024251D01*
X0278883Y0024213D01*
X0278932Y0024177D01*
X0278983Y0024144D01*
X0279035Y0024115D01*
X0279090Y0024088D01*
X0279145Y0024065D01*
X0279202Y0024045D01*
X0279261Y0024029D01*
X0279320Y0024016D01*
X0279379Y0024007D01*
X0279440Y0024002D01*
X0279500Y0024000D01*
X0281000Y0024000D01*
X0281500Y0024500D01*
X0300500Y0024500D01*
X0301000Y0024000D01*
X0302500Y0024000D01*
X0302560Y0024002D01*
X0302621Y0024007D01*
X0302680Y0024016D01*
X0302739Y0024029D01*
X0302798Y0024045D01*
X0302855Y0024065D01*
X0302910Y0024088D01*
X0302965Y0024115D01*
X0303017Y0024144D01*
X0303068Y0024177D01*
X0303117Y0024213D01*
X0303163Y0024251D01*
X0303207Y0024293D01*
X0303249Y0024337D01*
X0303287Y0024383D01*
X0303323Y0024432D01*
X0303356Y0024483D01*
X0303385Y0024535D01*
X0303412Y0024590D01*
X0303435Y0024645D01*
X0303455Y0024702D01*
X0303471Y0024761D01*
X0303484Y0024820D01*
X0303493Y0024879D01*
X0303498Y0024940D01*
X0303500Y0025000D01*
X0221000Y0025000D02*
X0221000Y0032000D01*
X0220998Y0032060D01*
X0220993Y0032121D01*
X0220984Y0032180D01*
X0220971Y0032239D01*
X0220955Y0032298D01*
X0220935Y0032355D01*
X0220912Y0032410D01*
X0220885Y0032465D01*
X0220856Y0032517D01*
X0220823Y0032568D01*
X0220787Y0032617D01*
X0220749Y0032663D01*
X0220707Y0032707D01*
X0220663Y0032749D01*
X0220617Y0032787D01*
X0220568Y0032823D01*
X0220517Y0032856D01*
X0220465Y0032885D01*
X0220410Y0032912D01*
X0220355Y0032935D01*
X0220298Y0032955D01*
X0220239Y0032971D01*
X0220180Y0032984D01*
X0220121Y0032993D01*
X0220060Y0032998D01*
X0220000Y0033000D01*
X0218500Y0033000D01*
X0218000Y0032500D01*
X0199000Y0032500D01*
X0198500Y0033000D01*
X0197000Y0033000D01*
X0196940Y0032998D01*
X0196879Y0032993D01*
X0196820Y0032984D01*
X0196761Y0032971D01*
X0196702Y0032955D01*
X0196645Y0032935D01*
X0196590Y0032912D01*
X0196535Y0032885D01*
X0196483Y0032856D01*
X0196432Y0032823D01*
X0196383Y0032787D01*
X0196337Y0032749D01*
X0196293Y0032707D01*
X0196251Y0032663D01*
X0196213Y0032617D01*
X0196177Y0032568D01*
X0196144Y0032517D01*
X0196115Y0032465D01*
X0196088Y0032410D01*
X0196065Y0032355D01*
X0196045Y0032298D01*
X0196029Y0032239D01*
X0196016Y0032180D01*
X0196007Y0032121D01*
X0196002Y0032060D01*
X0196000Y0032000D01*
X0196000Y0025000D01*
X0196002Y0024940D01*
X0196007Y0024879D01*
X0196016Y0024820D01*
X0196029Y0024761D01*
X0196045Y0024702D01*
X0196065Y0024645D01*
X0196088Y0024590D01*
X0196115Y0024535D01*
X0196144Y0024483D01*
X0196177Y0024432D01*
X0196213Y0024383D01*
X0196251Y0024337D01*
X0196293Y0024293D01*
X0196337Y0024251D01*
X0196383Y0024213D01*
X0196432Y0024177D01*
X0196483Y0024144D01*
X0196535Y0024115D01*
X0196590Y0024088D01*
X0196645Y0024065D01*
X0196702Y0024045D01*
X0196761Y0024029D01*
X0196820Y0024016D01*
X0196879Y0024007D01*
X0196940Y0024002D01*
X0197000Y0024000D01*
X0198500Y0024000D01*
X0199000Y0024500D01*
X0218000Y0024500D01*
X0218500Y0024000D01*
X0220000Y0024000D01*
X0220060Y0024002D01*
X0220121Y0024007D01*
X0220180Y0024016D01*
X0220239Y0024029D01*
X0220298Y0024045D01*
X0220355Y0024065D01*
X0220410Y0024088D01*
X0220465Y0024115D01*
X0220517Y0024144D01*
X0220568Y0024177D01*
X0220617Y0024213D01*
X0220663Y0024251D01*
X0220707Y0024293D01*
X0220749Y0024337D01*
X0220787Y0024383D01*
X0220823Y0024432D01*
X0220856Y0024483D01*
X0220885Y0024535D01*
X0220912Y0024590D01*
X0220935Y0024645D01*
X0220955Y0024702D01*
X0220971Y0024761D01*
X0220984Y0024820D01*
X0220993Y0024879D01*
X0220998Y0024940D01*
X0221000Y0025000D01*
X0171000Y0008500D02*
X0168500Y0006000D01*
X0163500Y0006000D01*
X0161000Y0008500D01*
X0137500Y0024000D02*
X0136000Y0024000D01*
X0135500Y0024500D01*
X0116500Y0024500D01*
X0116000Y0024000D01*
X0114500Y0024000D01*
X0114440Y0024002D01*
X0114379Y0024007D01*
X0114320Y0024016D01*
X0114261Y0024029D01*
X0114202Y0024045D01*
X0114145Y0024065D01*
X0114090Y0024088D01*
X0114035Y0024115D01*
X0113983Y0024144D01*
X0113932Y0024177D01*
X0113883Y0024213D01*
X0113837Y0024251D01*
X0113793Y0024293D01*
X0113751Y0024337D01*
X0113713Y0024383D01*
X0113677Y0024432D01*
X0113644Y0024483D01*
X0113615Y0024535D01*
X0113588Y0024590D01*
X0113565Y0024645D01*
X0113545Y0024702D01*
X0113529Y0024761D01*
X0113516Y0024820D01*
X0113507Y0024879D01*
X0113502Y0024940D01*
X0113500Y0025000D01*
X0113500Y0032000D01*
X0113502Y0032060D01*
X0113507Y0032121D01*
X0113516Y0032180D01*
X0113529Y0032239D01*
X0113545Y0032298D01*
X0113565Y0032355D01*
X0113588Y0032410D01*
X0113615Y0032465D01*
X0113644Y0032517D01*
X0113677Y0032568D01*
X0113713Y0032617D01*
X0113751Y0032663D01*
X0113793Y0032707D01*
X0113837Y0032749D01*
X0113883Y0032787D01*
X0113932Y0032823D01*
X0113983Y0032856D01*
X0114035Y0032885D01*
X0114090Y0032912D01*
X0114145Y0032935D01*
X0114202Y0032955D01*
X0114261Y0032971D01*
X0114320Y0032984D01*
X0114379Y0032993D01*
X0114440Y0032998D01*
X0114500Y0033000D01*
X0116000Y0033000D01*
X0116500Y0032500D01*
X0135500Y0032500D01*
X0136000Y0033000D01*
X0137500Y0033000D01*
X0137560Y0032998D01*
X0137621Y0032993D01*
X0137680Y0032984D01*
X0137739Y0032971D01*
X0137798Y0032955D01*
X0137855Y0032935D01*
X0137910Y0032912D01*
X0137965Y0032885D01*
X0138017Y0032856D01*
X0138068Y0032823D01*
X0138117Y0032787D01*
X0138163Y0032749D01*
X0138207Y0032707D01*
X0138249Y0032663D01*
X0138287Y0032617D01*
X0138323Y0032568D01*
X0138356Y0032517D01*
X0138385Y0032465D01*
X0138412Y0032410D01*
X0138435Y0032355D01*
X0138455Y0032298D01*
X0138471Y0032239D01*
X0138484Y0032180D01*
X0138493Y0032121D01*
X0138498Y0032060D01*
X0138500Y0032000D01*
X0138500Y0025000D01*
X0138498Y0024940D01*
X0138493Y0024879D01*
X0138484Y0024820D01*
X0138471Y0024761D01*
X0138455Y0024702D01*
X0138435Y0024645D01*
X0138412Y0024590D01*
X0138385Y0024535D01*
X0138356Y0024483D01*
X0138323Y0024432D01*
X0138287Y0024383D01*
X0138249Y0024337D01*
X0138207Y0024293D01*
X0138163Y0024251D01*
X0138117Y0024213D01*
X0138068Y0024177D01*
X0138017Y0024144D01*
X0137965Y0024115D01*
X0137910Y0024088D01*
X0137855Y0024065D01*
X0137798Y0024045D01*
X0137739Y0024029D01*
X0137680Y0024016D01*
X0137621Y0024007D01*
X0137560Y0024002D01*
X0137500Y0024000D01*
X0436000Y0025000D02*
X0436000Y0032000D01*
X0436002Y0032060D01*
X0436007Y0032121D01*
X0436016Y0032180D01*
X0436029Y0032239D01*
X0436045Y0032298D01*
X0436065Y0032355D01*
X0436088Y0032410D01*
X0436115Y0032465D01*
X0436144Y0032517D01*
X0436177Y0032568D01*
X0436213Y0032617D01*
X0436251Y0032663D01*
X0436293Y0032707D01*
X0436337Y0032749D01*
X0436383Y0032787D01*
X0436432Y0032823D01*
X0436483Y0032856D01*
X0436535Y0032885D01*
X0436590Y0032912D01*
X0436645Y0032935D01*
X0436702Y0032955D01*
X0436761Y0032971D01*
X0436820Y0032984D01*
X0436879Y0032993D01*
X0436940Y0032998D01*
X0437000Y0033000D01*
X0438500Y0033000D01*
X0439000Y0032500D01*
X0458000Y0032500D01*
X0458500Y0033000D01*
X0460000Y0033000D01*
X0460060Y0032998D01*
X0460121Y0032993D01*
X0460180Y0032984D01*
X0460239Y0032971D01*
X0460298Y0032955D01*
X0460355Y0032935D01*
X0460410Y0032912D01*
X0460465Y0032885D01*
X0460517Y0032856D01*
X0460568Y0032823D01*
X0460617Y0032787D01*
X0460663Y0032749D01*
X0460707Y0032707D01*
X0460749Y0032663D01*
X0460787Y0032617D01*
X0460823Y0032568D01*
X0460856Y0032517D01*
X0460885Y0032465D01*
X0460912Y0032410D01*
X0460935Y0032355D01*
X0460955Y0032298D01*
X0460971Y0032239D01*
X0460984Y0032180D01*
X0460993Y0032121D01*
X0460998Y0032060D01*
X0461000Y0032000D01*
X0461000Y0025000D01*
X0460998Y0024940D01*
X0460993Y0024879D01*
X0460984Y0024820D01*
X0460971Y0024761D01*
X0460955Y0024702D01*
X0460935Y0024645D01*
X0460912Y0024590D01*
X0460885Y0024535D01*
X0460856Y0024483D01*
X0460823Y0024432D01*
X0460787Y0024383D01*
X0460749Y0024337D01*
X0460707Y0024293D01*
X0460663Y0024251D01*
X0460617Y0024213D01*
X0460568Y0024177D01*
X0460517Y0024144D01*
X0460465Y0024115D01*
X0460410Y0024088D01*
X0460355Y0024065D01*
X0460298Y0024045D01*
X0460239Y0024029D01*
X0460180Y0024016D01*
X0460121Y0024007D01*
X0460060Y0024002D01*
X0460000Y0024000D01*
X0458500Y0024000D01*
X0458000Y0024500D01*
X0439000Y0024500D01*
X0438500Y0024000D01*
X0437000Y0024000D01*
X0436940Y0024002D01*
X0436879Y0024007D01*
X0436820Y0024016D01*
X0436761Y0024029D01*
X0436702Y0024045D01*
X0436645Y0024065D01*
X0436590Y0024088D01*
X0436535Y0024115D01*
X0436483Y0024144D01*
X0436432Y0024177D01*
X0436383Y0024213D01*
X0436337Y0024251D01*
X0436293Y0024293D01*
X0436251Y0024337D01*
X0436213Y0024383D01*
X0436177Y0024432D01*
X0436144Y0024483D01*
X0436115Y0024535D01*
X0436088Y0024590D01*
X0436065Y0024645D01*
X0436045Y0024702D01*
X0436029Y0024761D01*
X0436016Y0024820D01*
X0436007Y0024879D01*
X0436002Y0024940D01*
X0436000Y0025000D01*
D11*
X0420094Y0061689D02*
X0420785Y0060746D01*
X0421499Y0059820D01*
X0422235Y0058912D01*
X0422993Y0058022D01*
X0423773Y0057151D01*
X0424573Y0056299D01*
X0425394Y0055467D01*
X0426235Y0054655D01*
X0427096Y0053864D01*
X0427976Y0053094D01*
X0428874Y0052346D01*
X0429790Y0051619D01*
X0430724Y0050916D01*
X0431674Y0050235D01*
X0432641Y0049578D01*
X0433623Y0048944D01*
X0434621Y0048335D01*
X0435633Y0047750D01*
X0436659Y0047190D01*
X0437698Y0046655D01*
X0438751Y0046145D01*
X0439815Y0045662D01*
X0440891Y0045204D01*
X0441977Y0044773D01*
X0443074Y0044368D01*
X0444180Y0043991D01*
X0445296Y0043640D01*
X0446419Y0043317D01*
X0447550Y0043021D01*
X0448688Y0042752D01*
X0449832Y0042512D01*
X0450981Y0042299D01*
X0452136Y0042115D01*
X0453294Y0041959D01*
X0454456Y0041831D01*
X0455621Y0041731D01*
X0456788Y0041660D01*
X0457956Y0041617D01*
X0459125Y0041603D01*
X0460294Y0041617D01*
X0461462Y0041660D01*
X0462629Y0041731D01*
X0463794Y0041831D01*
X0464956Y0041959D01*
X0466114Y0042115D01*
X0467269Y0042299D01*
X0468418Y0042512D01*
X0469562Y0042752D01*
X0470700Y0043021D01*
X0471831Y0043317D01*
X0472954Y0043640D01*
X0474070Y0043991D01*
X0475176Y0044368D01*
X0476273Y0044773D01*
X0477359Y0045204D01*
X0478435Y0045662D01*
X0479499Y0046145D01*
X0480552Y0046655D01*
X0481591Y0047190D01*
X0482617Y0047750D01*
X0483629Y0048335D01*
X0484627Y0048944D01*
X0485609Y0049578D01*
X0486576Y0050235D01*
X0487526Y0050916D01*
X0488460Y0051619D01*
X0489376Y0052346D01*
X0490274Y0053094D01*
X0491154Y0053864D01*
X0492015Y0054655D01*
X0492856Y0055467D01*
X0493677Y0056299D01*
X0494477Y0057151D01*
X0495257Y0058022D01*
X0496015Y0058912D01*
X0496751Y0059820D01*
X0497465Y0060746D01*
X0498156Y0061689D01*
X0451000Y0098500D02*
X0451003Y0098745D01*
X0451012Y0098991D01*
X0451027Y0099236D01*
X0451048Y0099480D01*
X0451075Y0099724D01*
X0451108Y0099967D01*
X0451147Y0100210D01*
X0451192Y0100451D01*
X0451243Y0100691D01*
X0451300Y0100930D01*
X0451362Y0101167D01*
X0451431Y0101403D01*
X0451505Y0101637D01*
X0451585Y0101869D01*
X0451670Y0102099D01*
X0451761Y0102327D01*
X0451858Y0102552D01*
X0451960Y0102776D01*
X0452068Y0102996D01*
X0452181Y0103214D01*
X0452299Y0103429D01*
X0452423Y0103641D01*
X0452551Y0103850D01*
X0452685Y0104056D01*
X0452824Y0104258D01*
X0452968Y0104457D01*
X0453117Y0104652D01*
X0453270Y0104844D01*
X0453428Y0105032D01*
X0453590Y0105216D01*
X0453758Y0105395D01*
X0453929Y0105571D01*
X0454105Y0105742D01*
X0454284Y0105910D01*
X0454468Y0106072D01*
X0454656Y0106230D01*
X0454848Y0106383D01*
X0455043Y0106532D01*
X0455242Y0106676D01*
X0455444Y0106815D01*
X0455650Y0106949D01*
X0455859Y0107077D01*
X0456071Y0107201D01*
X0456286Y0107319D01*
X0456504Y0107432D01*
X0456724Y0107540D01*
X0456948Y0107642D01*
X0457173Y0107739D01*
X0457401Y0107830D01*
X0457631Y0107915D01*
X0457863Y0107995D01*
X0458097Y0108069D01*
X0458333Y0108138D01*
X0458570Y0108200D01*
X0458809Y0108257D01*
X0459049Y0108308D01*
X0459290Y0108353D01*
X0459533Y0108392D01*
X0459776Y0108425D01*
X0460020Y0108452D01*
X0460264Y0108473D01*
X0460509Y0108488D01*
X0460755Y0108497D01*
X0461000Y0108500D01*
X0461245Y0108497D01*
X0461491Y0108488D01*
X0461736Y0108473D01*
X0461980Y0108452D01*
X0462224Y0108425D01*
X0462467Y0108392D01*
X0462710Y0108353D01*
X0462951Y0108308D01*
X0463191Y0108257D01*
X0463430Y0108200D01*
X0463667Y0108138D01*
X0463903Y0108069D01*
X0464137Y0107995D01*
X0464369Y0107915D01*
X0464599Y0107830D01*
X0464827Y0107739D01*
X0465052Y0107642D01*
X0465276Y0107540D01*
X0465496Y0107432D01*
X0465714Y0107319D01*
X0465929Y0107201D01*
X0466141Y0107077D01*
X0466350Y0106949D01*
X0466556Y0106815D01*
X0466758Y0106676D01*
X0466957Y0106532D01*
X0467152Y0106383D01*
X0467344Y0106230D01*
X0467532Y0106072D01*
X0467716Y0105910D01*
X0467895Y0105742D01*
X0468071Y0105571D01*
X0468242Y0105395D01*
X0468410Y0105216D01*
X0468572Y0105032D01*
X0468730Y0104844D01*
X0468883Y0104652D01*
X0469032Y0104457D01*
X0469176Y0104258D01*
X0469315Y0104056D01*
X0469449Y0103850D01*
X0469577Y0103641D01*
X0469701Y0103429D01*
X0469819Y0103214D01*
X0469932Y0102996D01*
X0470040Y0102776D01*
X0470142Y0102552D01*
X0470239Y0102327D01*
X0470330Y0102099D01*
X0470415Y0101869D01*
X0470495Y0101637D01*
X0470569Y0101403D01*
X0470638Y0101167D01*
X0470700Y0100930D01*
X0470757Y0100691D01*
X0470808Y0100451D01*
X0470853Y0100210D01*
X0470892Y0099967D01*
X0470925Y0099724D01*
X0470952Y0099480D01*
X0470973Y0099236D01*
X0470988Y0098991D01*
X0470997Y0098745D01*
X0471000Y0098500D01*
X0470997Y0098255D01*
X0470988Y0098009D01*
X0470973Y0097764D01*
X0470952Y0097520D01*
X0470925Y0097276D01*
X0470892Y0097033D01*
X0470853Y0096790D01*
X0470808Y0096549D01*
X0470757Y0096309D01*
X0470700Y0096070D01*
X0470638Y0095833D01*
X0470569Y0095597D01*
X0470495Y0095363D01*
X0470415Y0095131D01*
X0470330Y0094901D01*
X0470239Y0094673D01*
X0470142Y0094448D01*
X0470040Y0094224D01*
X0469932Y0094004D01*
X0469819Y0093786D01*
X0469701Y0093571D01*
X0469577Y0093359D01*
X0469449Y0093150D01*
X0469315Y0092944D01*
X0469176Y0092742D01*
X0469032Y0092543D01*
X0468883Y0092348D01*
X0468730Y0092156D01*
X0468572Y0091968D01*
X0468410Y0091784D01*
X0468242Y0091605D01*
X0468071Y0091429D01*
X0467895Y0091258D01*
X0467716Y0091090D01*
X0467532Y0090928D01*
X0467344Y0090770D01*
X0467152Y0090617D01*
X0466957Y0090468D01*
X0466758Y0090324D01*
X0466556Y0090185D01*
X0466350Y0090051D01*
X0466141Y0089923D01*
X0465929Y0089799D01*
X0465714Y0089681D01*
X0465496Y0089568D01*
X0465276Y0089460D01*
X0465052Y0089358D01*
X0464827Y0089261D01*
X0464599Y0089170D01*
X0464369Y0089085D01*
X0464137Y0089005D01*
X0463903Y0088931D01*
X0463667Y0088862D01*
X0463430Y0088800D01*
X0463191Y0088743D01*
X0462951Y0088692D01*
X0462710Y0088647D01*
X0462467Y0088608D01*
X0462224Y0088575D01*
X0461980Y0088548D01*
X0461736Y0088527D01*
X0461491Y0088512D01*
X0461245Y0088503D01*
X0461000Y0088500D01*
X0460755Y0088503D01*
X0460509Y0088512D01*
X0460264Y0088527D01*
X0460020Y0088548D01*
X0459776Y0088575D01*
X0459533Y0088608D01*
X0459290Y0088647D01*
X0459049Y0088692D01*
X0458809Y0088743D01*
X0458570Y0088800D01*
X0458333Y0088862D01*
X0458097Y0088931D01*
X0457863Y0089005D01*
X0457631Y0089085D01*
X0457401Y0089170D01*
X0457173Y0089261D01*
X0456948Y0089358D01*
X0456724Y0089460D01*
X0456504Y0089568D01*
X0456286Y0089681D01*
X0456071Y0089799D01*
X0455859Y0089923D01*
X0455650Y0090051D01*
X0455444Y0090185D01*
X0455242Y0090324D01*
X0455043Y0090468D01*
X0454848Y0090617D01*
X0454656Y0090770D01*
X0454468Y0090928D01*
X0454284Y0091090D01*
X0454105Y0091258D01*
X0453929Y0091429D01*
X0453758Y0091605D01*
X0453590Y0091784D01*
X0453428Y0091968D01*
X0453270Y0092156D01*
X0453117Y0092348D01*
X0452968Y0092543D01*
X0452824Y0092742D01*
X0452685Y0092944D01*
X0452551Y0093150D01*
X0452423Y0093359D01*
X0452299Y0093571D01*
X0452181Y0093786D01*
X0452068Y0094004D01*
X0451960Y0094224D01*
X0451858Y0094448D01*
X0451761Y0094673D01*
X0451670Y0094901D01*
X0451585Y0095131D01*
X0451505Y0095363D01*
X0451431Y0095597D01*
X0451362Y0095833D01*
X0451300Y0096070D01*
X0451243Y0096309D01*
X0451192Y0096549D01*
X0451147Y0096790D01*
X0451108Y0097033D01*
X0451075Y0097276D01*
X0451048Y0097520D01*
X0451027Y0097764D01*
X0451012Y0098009D01*
X0451003Y0098255D01*
X0451000Y0098500D01*
X0420095Y0136561D02*
X0420856Y0137506D01*
X0421640Y0138433D01*
X0422447Y0139340D01*
X0423276Y0140227D01*
X0424126Y0141093D01*
X0424997Y0141938D01*
X0425889Y0142762D01*
X0426800Y0143564D01*
X0427731Y0144343D01*
X0428680Y0145100D01*
X0429648Y0145832D01*
X0430633Y0146541D01*
X0431636Y0147226D01*
X0432655Y0147886D01*
X0433689Y0148521D01*
X0434739Y0149130D01*
X0435804Y0149713D01*
X0436882Y0150271D01*
X0437974Y0150801D01*
X0439078Y0151305D01*
X0440194Y0151782D01*
X0441322Y0152231D01*
X0442460Y0152653D01*
X0443609Y0153046D01*
X0444766Y0153412D01*
X0445933Y0153749D01*
X0447107Y0154057D01*
X0448288Y0154336D01*
X0449476Y0154587D01*
X0450669Y0154808D01*
X0451868Y0155001D01*
X0453071Y0155163D01*
X0454277Y0155297D01*
X0455487Y0155400D01*
X0456698Y0155475D01*
X0457911Y0155519D01*
X0459125Y0155534D01*
X0460339Y0155519D01*
X0461552Y0155475D01*
X0462763Y0155400D01*
X0463973Y0155297D01*
X0465179Y0155163D01*
X0466382Y0155001D01*
X0467581Y0154808D01*
X0468774Y0154587D01*
X0469962Y0154336D01*
X0471143Y0154057D01*
X0472317Y0153749D01*
X0473484Y0153412D01*
X0474641Y0153046D01*
X0475790Y0152653D01*
X0476928Y0152231D01*
X0478056Y0151782D01*
X0479172Y0151305D01*
X0480276Y0150801D01*
X0481368Y0150271D01*
X0482446Y0149713D01*
X0483511Y0149130D01*
X0484561Y0148521D01*
X0485595Y0147886D01*
X0486614Y0147226D01*
X0487617Y0146541D01*
X0488602Y0145832D01*
X0489570Y0145100D01*
X0490519Y0144343D01*
X0491450Y0143564D01*
X0492361Y0142762D01*
X0493253Y0141938D01*
X0494124Y0141093D01*
X0494974Y0140227D01*
X0495803Y0139340D01*
X0496610Y0138433D01*
X0497394Y0137506D01*
X0498155Y0136561D01*
X0418155Y0136561D02*
X0417394Y0137506D01*
X0416610Y0138433D01*
X0415803Y0139340D01*
X0414974Y0140227D01*
X0414124Y0141093D01*
X0413253Y0141938D01*
X0412361Y0142762D01*
X0411450Y0143564D01*
X0410519Y0144343D01*
X0409570Y0145100D01*
X0408602Y0145832D01*
X0407617Y0146541D01*
X0406614Y0147226D01*
X0405595Y0147886D01*
X0404561Y0148521D01*
X0403511Y0149130D01*
X0402446Y0149713D01*
X0401368Y0150271D01*
X0400276Y0150801D01*
X0399172Y0151305D01*
X0398056Y0151782D01*
X0396928Y0152231D01*
X0395790Y0152653D01*
X0394641Y0153046D01*
X0393484Y0153412D01*
X0392317Y0153749D01*
X0391143Y0154057D01*
X0389962Y0154336D01*
X0388774Y0154587D01*
X0387581Y0154808D01*
X0386382Y0155001D01*
X0385179Y0155163D01*
X0383973Y0155297D01*
X0382763Y0155400D01*
X0381552Y0155475D01*
X0380339Y0155519D01*
X0379125Y0155534D01*
X0377911Y0155519D01*
X0376698Y0155475D01*
X0375487Y0155400D01*
X0374277Y0155297D01*
X0373071Y0155163D01*
X0371868Y0155001D01*
X0370669Y0154808D01*
X0369476Y0154587D01*
X0368288Y0154336D01*
X0367107Y0154057D01*
X0365933Y0153749D01*
X0364766Y0153412D01*
X0363609Y0153046D01*
X0362460Y0152653D01*
X0361322Y0152231D01*
X0360194Y0151782D01*
X0359078Y0151305D01*
X0357974Y0150801D01*
X0356882Y0150271D01*
X0355804Y0149713D01*
X0354739Y0149130D01*
X0353689Y0148521D01*
X0352655Y0147886D01*
X0351636Y0147226D01*
X0350633Y0146541D01*
X0349648Y0145832D01*
X0348680Y0145100D01*
X0347731Y0144343D01*
X0346800Y0143564D01*
X0345889Y0142762D01*
X0344997Y0141938D01*
X0344126Y0141093D01*
X0343276Y0140227D01*
X0342447Y0139340D01*
X0341640Y0138433D01*
X0340856Y0137506D01*
X0340095Y0136561D01*
X0330655Y0136561D02*
X0329894Y0137506D01*
X0329110Y0138433D01*
X0328303Y0139340D01*
X0327474Y0140227D01*
X0326624Y0141093D01*
X0325753Y0141938D01*
X0324861Y0142762D01*
X0323950Y0143564D01*
X0323019Y0144343D01*
X0322070Y0145100D01*
X0321102Y0145832D01*
X0320117Y0146541D01*
X0319114Y0147226D01*
X0318095Y0147886D01*
X0317061Y0148521D01*
X0316011Y0149130D01*
X0314946Y0149713D01*
X0313868Y0150271D01*
X0312776Y0150801D01*
X0311672Y0151305D01*
X0310556Y0151782D01*
X0309428Y0152231D01*
X0308290Y0152653D01*
X0307141Y0153046D01*
X0305984Y0153412D01*
X0304817Y0153749D01*
X0303643Y0154057D01*
X0302462Y0154336D01*
X0301274Y0154587D01*
X0300081Y0154808D01*
X0298882Y0155001D01*
X0297679Y0155163D01*
X0296473Y0155297D01*
X0295263Y0155400D01*
X0294052Y0155475D01*
X0292839Y0155519D01*
X0291625Y0155534D01*
X0290411Y0155519D01*
X0289198Y0155475D01*
X0287987Y0155400D01*
X0286777Y0155297D01*
X0285571Y0155163D01*
X0284368Y0155001D01*
X0283169Y0154808D01*
X0281976Y0154587D01*
X0280788Y0154336D01*
X0279607Y0154057D01*
X0278433Y0153749D01*
X0277266Y0153412D01*
X0276109Y0153046D01*
X0274960Y0152653D01*
X0273822Y0152231D01*
X0272694Y0151782D01*
X0271578Y0151305D01*
X0270474Y0150801D01*
X0269382Y0150271D01*
X0268304Y0149713D01*
X0267239Y0149130D01*
X0266189Y0148521D01*
X0265155Y0147886D01*
X0264136Y0147226D01*
X0263133Y0146541D01*
X0262148Y0145832D01*
X0261180Y0145100D01*
X0260231Y0144343D01*
X0259300Y0143564D01*
X0258389Y0142762D01*
X0257497Y0141938D01*
X0256626Y0141093D01*
X0255776Y0140227D01*
X0254947Y0139340D01*
X0254140Y0138433D01*
X0253356Y0137506D01*
X0252595Y0136561D01*
X0250655Y0136561D02*
X0249894Y0137506D01*
X0249110Y0138433D01*
X0248303Y0139340D01*
X0247474Y0140227D01*
X0246624Y0141093D01*
X0245753Y0141938D01*
X0244861Y0142762D01*
X0243950Y0143564D01*
X0243019Y0144343D01*
X0242070Y0145100D01*
X0241102Y0145832D01*
X0240117Y0146541D01*
X0239114Y0147226D01*
X0238095Y0147886D01*
X0237061Y0148521D01*
X0236011Y0149130D01*
X0234946Y0149713D01*
X0233868Y0150271D01*
X0232776Y0150801D01*
X0231672Y0151305D01*
X0230556Y0151782D01*
X0229428Y0152231D01*
X0228290Y0152653D01*
X0227141Y0153046D01*
X0225984Y0153412D01*
X0224817Y0153749D01*
X0223643Y0154057D01*
X0222462Y0154336D01*
X0221274Y0154587D01*
X0220081Y0154808D01*
X0218882Y0155001D01*
X0217679Y0155163D01*
X0216473Y0155297D01*
X0215263Y0155400D01*
X0214052Y0155475D01*
X0212839Y0155519D01*
X0211625Y0155534D01*
X0210411Y0155519D01*
X0209198Y0155475D01*
X0207987Y0155400D01*
X0206777Y0155297D01*
X0205571Y0155163D01*
X0204368Y0155001D01*
X0203169Y0154808D01*
X0201976Y0154587D01*
X0200788Y0154336D01*
X0199607Y0154057D01*
X0198433Y0153749D01*
X0197266Y0153412D01*
X0196109Y0153046D01*
X0194960Y0152653D01*
X0193822Y0152231D01*
X0192694Y0151782D01*
X0191578Y0151305D01*
X0190474Y0150801D01*
X0189382Y0150271D01*
X0188304Y0149713D01*
X0187239Y0149130D01*
X0186189Y0148521D01*
X0185155Y0147886D01*
X0184136Y0147226D01*
X0183133Y0146541D01*
X0182148Y0145832D01*
X0181180Y0145100D01*
X0180231Y0144343D01*
X0179300Y0143564D01*
X0178389Y0142762D01*
X0177497Y0141938D01*
X0176626Y0141093D01*
X0175776Y0140227D01*
X0174947Y0139340D01*
X0174140Y0138433D01*
X0173356Y0137506D01*
X0172595Y0136561D01*
X0163155Y0136561D02*
X0162394Y0137506D01*
X0161610Y0138433D01*
X0160803Y0139340D01*
X0159974Y0140227D01*
X0159124Y0141093D01*
X0158253Y0141938D01*
X0157361Y0142762D01*
X0156450Y0143564D01*
X0155519Y0144343D01*
X0154570Y0145100D01*
X0153602Y0145832D01*
X0152617Y0146541D01*
X0151614Y0147226D01*
X0150595Y0147886D01*
X0149561Y0148521D01*
X0148511Y0149130D01*
X0147446Y0149713D01*
X0146368Y0150271D01*
X0145276Y0150801D01*
X0144172Y0151305D01*
X0143056Y0151782D01*
X0141928Y0152231D01*
X0140790Y0152653D01*
X0139641Y0153046D01*
X0138484Y0153412D01*
X0137317Y0153749D01*
X0136143Y0154057D01*
X0134962Y0154336D01*
X0133774Y0154587D01*
X0132581Y0154808D01*
X0131382Y0155001D01*
X0130179Y0155163D01*
X0128973Y0155297D01*
X0127763Y0155400D01*
X0126552Y0155475D01*
X0125339Y0155519D01*
X0124125Y0155534D01*
X0122911Y0155519D01*
X0121698Y0155475D01*
X0120487Y0155400D01*
X0119277Y0155297D01*
X0118071Y0155163D01*
X0116868Y0155001D01*
X0115669Y0154808D01*
X0114476Y0154587D01*
X0113288Y0154336D01*
X0112107Y0154057D01*
X0110933Y0153749D01*
X0109766Y0153412D01*
X0108609Y0153046D01*
X0107460Y0152653D01*
X0106322Y0152231D01*
X0105194Y0151782D01*
X0104078Y0151305D01*
X0102974Y0150801D01*
X0101882Y0150271D01*
X0100804Y0149713D01*
X0099739Y0149130D01*
X0098689Y0148521D01*
X0097655Y0147886D01*
X0096636Y0147226D01*
X0095633Y0146541D01*
X0094648Y0145832D01*
X0093680Y0145100D01*
X0092731Y0144343D01*
X0091800Y0143564D01*
X0090889Y0142762D01*
X0089997Y0141938D01*
X0089126Y0141093D01*
X0088276Y0140227D01*
X0087447Y0139340D01*
X0086640Y0138433D01*
X0085856Y0137506D01*
X0085095Y0136561D01*
X0083155Y0136561D02*
X0082394Y0137506D01*
X0081610Y0138433D01*
X0080803Y0139340D01*
X0079974Y0140227D01*
X0079124Y0141093D01*
X0078253Y0141938D01*
X0077361Y0142762D01*
X0076450Y0143564D01*
X0075519Y0144343D01*
X0074570Y0145100D01*
X0073602Y0145832D01*
X0072617Y0146541D01*
X0071614Y0147226D01*
X0070595Y0147886D01*
X0069561Y0148521D01*
X0068511Y0149130D01*
X0067446Y0149713D01*
X0066368Y0150271D01*
X0065276Y0150801D01*
X0064172Y0151305D01*
X0063056Y0151782D01*
X0061928Y0152231D01*
X0060790Y0152653D01*
X0059641Y0153046D01*
X0058484Y0153412D01*
X0057317Y0153749D01*
X0056143Y0154057D01*
X0054962Y0154336D01*
X0053774Y0154587D01*
X0052581Y0154808D01*
X0051382Y0155001D01*
X0050179Y0155163D01*
X0048973Y0155297D01*
X0047763Y0155400D01*
X0046552Y0155475D01*
X0045339Y0155519D01*
X0044125Y0155534D01*
X0042911Y0155519D01*
X0041698Y0155475D01*
X0040487Y0155400D01*
X0039277Y0155297D01*
X0038071Y0155163D01*
X0036868Y0155001D01*
X0035669Y0154808D01*
X0034476Y0154587D01*
X0033288Y0154336D01*
X0032107Y0154057D01*
X0030933Y0153749D01*
X0029766Y0153412D01*
X0028609Y0153046D01*
X0027460Y0152653D01*
X0026322Y0152231D01*
X0025194Y0151782D01*
X0024078Y0151305D01*
X0022974Y0150801D01*
X0021882Y0150271D01*
X0020804Y0149713D01*
X0019739Y0149130D01*
X0018689Y0148521D01*
X0017655Y0147886D01*
X0016636Y0147226D01*
X0015633Y0146541D01*
X0014648Y0145832D01*
X0013680Y0145100D01*
X0012731Y0144343D01*
X0011800Y0143564D01*
X0010889Y0142762D01*
X0009997Y0141938D01*
X0009126Y0141093D01*
X0008276Y0140227D01*
X0007447Y0139340D01*
X0006640Y0138433D01*
X0005856Y0137506D01*
X0005095Y0136561D01*
X0036000Y0098500D02*
X0036003Y0098745D01*
X0036012Y0098991D01*
X0036027Y0099236D01*
X0036048Y0099480D01*
X0036075Y0099724D01*
X0036108Y0099967D01*
X0036147Y0100210D01*
X0036192Y0100451D01*
X0036243Y0100691D01*
X0036300Y0100930D01*
X0036362Y0101167D01*
X0036431Y0101403D01*
X0036505Y0101637D01*
X0036585Y0101869D01*
X0036670Y0102099D01*
X0036761Y0102327D01*
X0036858Y0102552D01*
X0036960Y0102776D01*
X0037068Y0102996D01*
X0037181Y0103214D01*
X0037299Y0103429D01*
X0037423Y0103641D01*
X0037551Y0103850D01*
X0037685Y0104056D01*
X0037824Y0104258D01*
X0037968Y0104457D01*
X0038117Y0104652D01*
X0038270Y0104844D01*
X0038428Y0105032D01*
X0038590Y0105216D01*
X0038758Y0105395D01*
X0038929Y0105571D01*
X0039105Y0105742D01*
X0039284Y0105910D01*
X0039468Y0106072D01*
X0039656Y0106230D01*
X0039848Y0106383D01*
X0040043Y0106532D01*
X0040242Y0106676D01*
X0040444Y0106815D01*
X0040650Y0106949D01*
X0040859Y0107077D01*
X0041071Y0107201D01*
X0041286Y0107319D01*
X0041504Y0107432D01*
X0041724Y0107540D01*
X0041948Y0107642D01*
X0042173Y0107739D01*
X0042401Y0107830D01*
X0042631Y0107915D01*
X0042863Y0107995D01*
X0043097Y0108069D01*
X0043333Y0108138D01*
X0043570Y0108200D01*
X0043809Y0108257D01*
X0044049Y0108308D01*
X0044290Y0108353D01*
X0044533Y0108392D01*
X0044776Y0108425D01*
X0045020Y0108452D01*
X0045264Y0108473D01*
X0045509Y0108488D01*
X0045755Y0108497D01*
X0046000Y0108500D01*
X0046245Y0108497D01*
X0046491Y0108488D01*
X0046736Y0108473D01*
X0046980Y0108452D01*
X0047224Y0108425D01*
X0047467Y0108392D01*
X0047710Y0108353D01*
X0047951Y0108308D01*
X0048191Y0108257D01*
X0048430Y0108200D01*
X0048667Y0108138D01*
X0048903Y0108069D01*
X0049137Y0107995D01*
X0049369Y0107915D01*
X0049599Y0107830D01*
X0049827Y0107739D01*
X0050052Y0107642D01*
X0050276Y0107540D01*
X0050496Y0107432D01*
X0050714Y0107319D01*
X0050929Y0107201D01*
X0051141Y0107077D01*
X0051350Y0106949D01*
X0051556Y0106815D01*
X0051758Y0106676D01*
X0051957Y0106532D01*
X0052152Y0106383D01*
X0052344Y0106230D01*
X0052532Y0106072D01*
X0052716Y0105910D01*
X0052895Y0105742D01*
X0053071Y0105571D01*
X0053242Y0105395D01*
X0053410Y0105216D01*
X0053572Y0105032D01*
X0053730Y0104844D01*
X0053883Y0104652D01*
X0054032Y0104457D01*
X0054176Y0104258D01*
X0054315Y0104056D01*
X0054449Y0103850D01*
X0054577Y0103641D01*
X0054701Y0103429D01*
X0054819Y0103214D01*
X0054932Y0102996D01*
X0055040Y0102776D01*
X0055142Y0102552D01*
X0055239Y0102327D01*
X0055330Y0102099D01*
X0055415Y0101869D01*
X0055495Y0101637D01*
X0055569Y0101403D01*
X0055638Y0101167D01*
X0055700Y0100930D01*
X0055757Y0100691D01*
X0055808Y0100451D01*
X0055853Y0100210D01*
X0055892Y0099967D01*
X0055925Y0099724D01*
X0055952Y0099480D01*
X0055973Y0099236D01*
X0055988Y0098991D01*
X0055997Y0098745D01*
X0056000Y0098500D01*
X0055997Y0098255D01*
X0055988Y0098009D01*
X0055973Y0097764D01*
X0055952Y0097520D01*
X0055925Y0097276D01*
X0055892Y0097033D01*
X0055853Y0096790D01*
X0055808Y0096549D01*
X0055757Y0096309D01*
X0055700Y0096070D01*
X0055638Y0095833D01*
X0055569Y0095597D01*
X0055495Y0095363D01*
X0055415Y0095131D01*
X0055330Y0094901D01*
X0055239Y0094673D01*
X0055142Y0094448D01*
X0055040Y0094224D01*
X0054932Y0094004D01*
X0054819Y0093786D01*
X0054701Y0093571D01*
X0054577Y0093359D01*
X0054449Y0093150D01*
X0054315Y0092944D01*
X0054176Y0092742D01*
X0054032Y0092543D01*
X0053883Y0092348D01*
X0053730Y0092156D01*
X0053572Y0091968D01*
X0053410Y0091784D01*
X0053242Y0091605D01*
X0053071Y0091429D01*
X0052895Y0091258D01*
X0052716Y0091090D01*
X0052532Y0090928D01*
X0052344Y0090770D01*
X0052152Y0090617D01*
X0051957Y0090468D01*
X0051758Y0090324D01*
X0051556Y0090185D01*
X0051350Y0090051D01*
X0051141Y0089923D01*
X0050929Y0089799D01*
X0050714Y0089681D01*
X0050496Y0089568D01*
X0050276Y0089460D01*
X0050052Y0089358D01*
X0049827Y0089261D01*
X0049599Y0089170D01*
X0049369Y0089085D01*
X0049137Y0089005D01*
X0048903Y0088931D01*
X0048667Y0088862D01*
X0048430Y0088800D01*
X0048191Y0088743D01*
X0047951Y0088692D01*
X0047710Y0088647D01*
X0047467Y0088608D01*
X0047224Y0088575D01*
X0046980Y0088548D01*
X0046736Y0088527D01*
X0046491Y0088512D01*
X0046245Y0088503D01*
X0046000Y0088500D01*
X0045755Y0088503D01*
X0045509Y0088512D01*
X0045264Y0088527D01*
X0045020Y0088548D01*
X0044776Y0088575D01*
X0044533Y0088608D01*
X0044290Y0088647D01*
X0044049Y0088692D01*
X0043809Y0088743D01*
X0043570Y0088800D01*
X0043333Y0088862D01*
X0043097Y0088931D01*
X0042863Y0089005D01*
X0042631Y0089085D01*
X0042401Y0089170D01*
X0042173Y0089261D01*
X0041948Y0089358D01*
X0041724Y0089460D01*
X0041504Y0089568D01*
X0041286Y0089681D01*
X0041071Y0089799D01*
X0040859Y0089923D01*
X0040650Y0090051D01*
X0040444Y0090185D01*
X0040242Y0090324D01*
X0040043Y0090468D01*
X0039848Y0090617D01*
X0039656Y0090770D01*
X0039468Y0090928D01*
X0039284Y0091090D01*
X0039105Y0091258D01*
X0038929Y0091429D01*
X0038758Y0091605D01*
X0038590Y0091784D01*
X0038428Y0091968D01*
X0038270Y0092156D01*
X0038117Y0092348D01*
X0037968Y0092543D01*
X0037824Y0092742D01*
X0037685Y0092944D01*
X0037551Y0093150D01*
X0037423Y0093359D01*
X0037299Y0093571D01*
X0037181Y0093786D01*
X0037068Y0094004D01*
X0036960Y0094224D01*
X0036858Y0094448D01*
X0036761Y0094673D01*
X0036670Y0094901D01*
X0036585Y0095131D01*
X0036505Y0095363D01*
X0036431Y0095597D01*
X0036362Y0095833D01*
X0036300Y0096070D01*
X0036243Y0096309D01*
X0036192Y0096549D01*
X0036147Y0096790D01*
X0036108Y0097033D01*
X0036075Y0097276D01*
X0036048Y0097520D01*
X0036027Y0097764D01*
X0036012Y0098009D01*
X0036003Y0098255D01*
X0036000Y0098500D01*
X0005094Y0061689D02*
X0005785Y0060746D01*
X0006499Y0059820D01*
X0007235Y0058912D01*
X0007993Y0058022D01*
X0008773Y0057151D01*
X0009573Y0056299D01*
X0010394Y0055467D01*
X0011235Y0054655D01*
X0012096Y0053864D01*
X0012976Y0053094D01*
X0013874Y0052346D01*
X0014790Y0051619D01*
X0015724Y0050916D01*
X0016674Y0050235D01*
X0017641Y0049578D01*
X0018623Y0048944D01*
X0019621Y0048335D01*
X0020633Y0047750D01*
X0021659Y0047190D01*
X0022698Y0046655D01*
X0023751Y0046145D01*
X0024815Y0045662D01*
X0025891Y0045204D01*
X0026977Y0044773D01*
X0028074Y0044368D01*
X0029180Y0043991D01*
X0030296Y0043640D01*
X0031419Y0043317D01*
X0032550Y0043021D01*
X0033688Y0042752D01*
X0034832Y0042512D01*
X0035981Y0042299D01*
X0037136Y0042115D01*
X0038294Y0041959D01*
X0039456Y0041831D01*
X0040621Y0041731D01*
X0041788Y0041660D01*
X0042956Y0041617D01*
X0044125Y0041603D01*
X0045294Y0041617D01*
X0046462Y0041660D01*
X0047629Y0041731D01*
X0048794Y0041831D01*
X0049956Y0041959D01*
X0051114Y0042115D01*
X0052269Y0042299D01*
X0053418Y0042512D01*
X0054562Y0042752D01*
X0055700Y0043021D01*
X0056831Y0043317D01*
X0057954Y0043640D01*
X0059070Y0043991D01*
X0060176Y0044368D01*
X0061273Y0044773D01*
X0062359Y0045204D01*
X0063435Y0045662D01*
X0064499Y0046145D01*
X0065552Y0046655D01*
X0066591Y0047190D01*
X0067617Y0047750D01*
X0068629Y0048335D01*
X0069627Y0048944D01*
X0070609Y0049578D01*
X0071576Y0050235D01*
X0072526Y0050916D01*
X0073460Y0051619D01*
X0074376Y0052346D01*
X0075274Y0053094D01*
X0076154Y0053864D01*
X0077015Y0054655D01*
X0077856Y0055467D01*
X0078677Y0056299D01*
X0079477Y0057151D01*
X0080257Y0058022D01*
X0081015Y0058912D01*
X0081751Y0059820D01*
X0082465Y0060746D01*
X0083156Y0061689D01*
X0085094Y0061689D02*
X0085785Y0060746D01*
X0086499Y0059820D01*
X0087235Y0058912D01*
X0087993Y0058022D01*
X0088773Y0057151D01*
X0089573Y0056299D01*
X0090394Y0055467D01*
X0091235Y0054655D01*
X0092096Y0053864D01*
X0092976Y0053094D01*
X0093874Y0052346D01*
X0094790Y0051619D01*
X0095724Y0050916D01*
X0096674Y0050235D01*
X0097641Y0049578D01*
X0098623Y0048944D01*
X0099621Y0048335D01*
X0100633Y0047750D01*
X0101659Y0047190D01*
X0102698Y0046655D01*
X0103751Y0046145D01*
X0104815Y0045662D01*
X0105891Y0045204D01*
X0106977Y0044773D01*
X0108074Y0044368D01*
X0109180Y0043991D01*
X0110296Y0043640D01*
X0111419Y0043317D01*
X0112550Y0043021D01*
X0113688Y0042752D01*
X0114832Y0042512D01*
X0115981Y0042299D01*
X0117136Y0042115D01*
X0118294Y0041959D01*
X0119456Y0041831D01*
X0120621Y0041731D01*
X0121788Y0041660D01*
X0122956Y0041617D01*
X0124125Y0041603D01*
X0125294Y0041617D01*
X0126462Y0041660D01*
X0127629Y0041731D01*
X0128794Y0041831D01*
X0129956Y0041959D01*
X0131114Y0042115D01*
X0132269Y0042299D01*
X0133418Y0042512D01*
X0134562Y0042752D01*
X0135700Y0043021D01*
X0136831Y0043317D01*
X0137954Y0043640D01*
X0139070Y0043991D01*
X0140176Y0044368D01*
X0141273Y0044773D01*
X0142359Y0045204D01*
X0143435Y0045662D01*
X0144499Y0046145D01*
X0145552Y0046655D01*
X0146591Y0047190D01*
X0147617Y0047750D01*
X0148629Y0048335D01*
X0149627Y0048944D01*
X0150609Y0049578D01*
X0151576Y0050235D01*
X0152526Y0050916D01*
X0153460Y0051619D01*
X0154376Y0052346D01*
X0155274Y0053094D01*
X0156154Y0053864D01*
X0157015Y0054655D01*
X0157856Y0055467D01*
X0158677Y0056299D01*
X0159477Y0057151D01*
X0160257Y0058022D01*
X0161015Y0058912D01*
X0161751Y0059820D01*
X0162465Y0060746D01*
X0163156Y0061689D01*
X0172594Y0061689D02*
X0173285Y0060746D01*
X0173999Y0059820D01*
X0174735Y0058912D01*
X0175493Y0058022D01*
X0176273Y0057151D01*
X0177073Y0056299D01*
X0177894Y0055467D01*
X0178735Y0054655D01*
X0179596Y0053864D01*
X0180476Y0053094D01*
X0181374Y0052346D01*
X0182290Y0051619D01*
X0183224Y0050916D01*
X0184174Y0050235D01*
X0185141Y0049578D01*
X0186123Y0048944D01*
X0187121Y0048335D01*
X0188133Y0047750D01*
X0189159Y0047190D01*
X0190198Y0046655D01*
X0191251Y0046145D01*
X0192315Y0045662D01*
X0193391Y0045204D01*
X0194477Y0044773D01*
X0195574Y0044368D01*
X0196680Y0043991D01*
X0197796Y0043640D01*
X0198919Y0043317D01*
X0200050Y0043021D01*
X0201188Y0042752D01*
X0202332Y0042512D01*
X0203481Y0042299D01*
X0204636Y0042115D01*
X0205794Y0041959D01*
X0206956Y0041831D01*
X0208121Y0041731D01*
X0209288Y0041660D01*
X0210456Y0041617D01*
X0211625Y0041603D01*
X0212794Y0041617D01*
X0213962Y0041660D01*
X0215129Y0041731D01*
X0216294Y0041831D01*
X0217456Y0041959D01*
X0218614Y0042115D01*
X0219769Y0042299D01*
X0220918Y0042512D01*
X0222062Y0042752D01*
X0223200Y0043021D01*
X0224331Y0043317D01*
X0225454Y0043640D01*
X0226570Y0043991D01*
X0227676Y0044368D01*
X0228773Y0044773D01*
X0229859Y0045204D01*
X0230935Y0045662D01*
X0231999Y0046145D01*
X0233052Y0046655D01*
X0234091Y0047190D01*
X0235117Y0047750D01*
X0236129Y0048335D01*
X0237127Y0048944D01*
X0238109Y0049578D01*
X0239076Y0050235D01*
X0240026Y0050916D01*
X0240960Y0051619D01*
X0241876Y0052346D01*
X0242774Y0053094D01*
X0243654Y0053864D01*
X0244515Y0054655D01*
X0245356Y0055467D01*
X0246177Y0056299D01*
X0246977Y0057151D01*
X0247757Y0058022D01*
X0248515Y0058912D01*
X0249251Y0059820D01*
X0249965Y0060746D01*
X0250656Y0061689D01*
X0252594Y0061689D02*
X0253285Y0060746D01*
X0253999Y0059820D01*
X0254735Y0058912D01*
X0255493Y0058022D01*
X0256273Y0057151D01*
X0257073Y0056299D01*
X0257894Y0055467D01*
X0258735Y0054655D01*
X0259596Y0053864D01*
X0260476Y0053094D01*
X0261374Y0052346D01*
X0262290Y0051619D01*
X0263224Y0050916D01*
X0264174Y0050235D01*
X0265141Y0049578D01*
X0266123Y0048944D01*
X0267121Y0048335D01*
X0268133Y0047750D01*
X0269159Y0047190D01*
X0270198Y0046655D01*
X0271251Y0046145D01*
X0272315Y0045662D01*
X0273391Y0045204D01*
X0274477Y0044773D01*
X0275574Y0044368D01*
X0276680Y0043991D01*
X0277796Y0043640D01*
X0278919Y0043317D01*
X0280050Y0043021D01*
X0281188Y0042752D01*
X0282332Y0042512D01*
X0283481Y0042299D01*
X0284636Y0042115D01*
X0285794Y0041959D01*
X0286956Y0041831D01*
X0288121Y0041731D01*
X0289288Y0041660D01*
X0290456Y0041617D01*
X0291625Y0041603D01*
X0292794Y0041617D01*
X0293962Y0041660D01*
X0295129Y0041731D01*
X0296294Y0041831D01*
X0297456Y0041959D01*
X0298614Y0042115D01*
X0299769Y0042299D01*
X0300918Y0042512D01*
X0302062Y0042752D01*
X0303200Y0043021D01*
X0304331Y0043317D01*
X0305454Y0043640D01*
X0306570Y0043991D01*
X0307676Y0044368D01*
X0308773Y0044773D01*
X0309859Y0045204D01*
X0310935Y0045662D01*
X0311999Y0046145D01*
X0313052Y0046655D01*
X0314091Y0047190D01*
X0315117Y0047750D01*
X0316129Y0048335D01*
X0317127Y0048944D01*
X0318109Y0049578D01*
X0319076Y0050235D01*
X0320026Y0050916D01*
X0320960Y0051619D01*
X0321876Y0052346D01*
X0322774Y0053094D01*
X0323654Y0053864D01*
X0324515Y0054655D01*
X0325356Y0055467D01*
X0326177Y0056299D01*
X0326977Y0057151D01*
X0327757Y0058022D01*
X0328515Y0058912D01*
X0329251Y0059820D01*
X0329965Y0060746D01*
X0330656Y0061689D01*
X0340094Y0061689D02*
X0340785Y0060746D01*
X0341499Y0059820D01*
X0342235Y0058912D01*
X0342993Y0058022D01*
X0343773Y0057151D01*
X0344573Y0056299D01*
X0345394Y0055467D01*
X0346235Y0054655D01*
X0347096Y0053864D01*
X0347976Y0053094D01*
X0348874Y0052346D01*
X0349790Y0051619D01*
X0350724Y0050916D01*
X0351674Y0050235D01*
X0352641Y0049578D01*
X0353623Y0048944D01*
X0354621Y0048335D01*
X0355633Y0047750D01*
X0356659Y0047190D01*
X0357698Y0046655D01*
X0358751Y0046145D01*
X0359815Y0045662D01*
X0360891Y0045204D01*
X0361977Y0044773D01*
X0363074Y0044368D01*
X0364180Y0043991D01*
X0365296Y0043640D01*
X0366419Y0043317D01*
X0367550Y0043021D01*
X0368688Y0042752D01*
X0369832Y0042512D01*
X0370981Y0042299D01*
X0372136Y0042115D01*
X0373294Y0041959D01*
X0374456Y0041831D01*
X0375621Y0041731D01*
X0376788Y0041660D01*
X0377956Y0041617D01*
X0379125Y0041603D01*
X0380294Y0041617D01*
X0381462Y0041660D01*
X0382629Y0041731D01*
X0383794Y0041831D01*
X0384956Y0041959D01*
X0386114Y0042115D01*
X0387269Y0042299D01*
X0388418Y0042512D01*
X0389562Y0042752D01*
X0390700Y0043021D01*
X0391831Y0043317D01*
X0392954Y0043640D01*
X0394070Y0043991D01*
X0395176Y0044368D01*
X0396273Y0044773D01*
X0397359Y0045204D01*
X0398435Y0045662D01*
X0399499Y0046145D01*
X0400552Y0046655D01*
X0401591Y0047190D01*
X0402617Y0047750D01*
X0403629Y0048335D01*
X0404627Y0048944D01*
X0405609Y0049578D01*
X0406576Y0050235D01*
X0407526Y0050916D01*
X0408460Y0051619D01*
X0409376Y0052346D01*
X0410274Y0053094D01*
X0411154Y0053864D01*
X0412015Y0054655D01*
X0412856Y0055467D01*
X0413677Y0056299D01*
X0414477Y0057151D01*
X0415257Y0058022D01*
X0416015Y0058912D01*
X0416751Y0059820D01*
X0417465Y0060746D01*
X0418156Y0061689D01*
X0371000Y0098500D02*
X0371003Y0098745D01*
X0371012Y0098991D01*
X0371027Y0099236D01*
X0371048Y0099480D01*
X0371075Y0099724D01*
X0371108Y0099967D01*
X0371147Y0100210D01*
X0371192Y0100451D01*
X0371243Y0100691D01*
X0371300Y0100930D01*
X0371362Y0101167D01*
X0371431Y0101403D01*
X0371505Y0101637D01*
X0371585Y0101869D01*
X0371670Y0102099D01*
X0371761Y0102327D01*
X0371858Y0102552D01*
X0371960Y0102776D01*
X0372068Y0102996D01*
X0372181Y0103214D01*
X0372299Y0103429D01*
X0372423Y0103641D01*
X0372551Y0103850D01*
X0372685Y0104056D01*
X0372824Y0104258D01*
X0372968Y0104457D01*
X0373117Y0104652D01*
X0373270Y0104844D01*
X0373428Y0105032D01*
X0373590Y0105216D01*
X0373758Y0105395D01*
X0373929Y0105571D01*
X0374105Y0105742D01*
X0374284Y0105910D01*
X0374468Y0106072D01*
X0374656Y0106230D01*
X0374848Y0106383D01*
X0375043Y0106532D01*
X0375242Y0106676D01*
X0375444Y0106815D01*
X0375650Y0106949D01*
X0375859Y0107077D01*
X0376071Y0107201D01*
X0376286Y0107319D01*
X0376504Y0107432D01*
X0376724Y0107540D01*
X0376948Y0107642D01*
X0377173Y0107739D01*
X0377401Y0107830D01*
X0377631Y0107915D01*
X0377863Y0107995D01*
X0378097Y0108069D01*
X0378333Y0108138D01*
X0378570Y0108200D01*
X0378809Y0108257D01*
X0379049Y0108308D01*
X0379290Y0108353D01*
X0379533Y0108392D01*
X0379776Y0108425D01*
X0380020Y0108452D01*
X0380264Y0108473D01*
X0380509Y0108488D01*
X0380755Y0108497D01*
X0381000Y0108500D01*
X0381245Y0108497D01*
X0381491Y0108488D01*
X0381736Y0108473D01*
X0381980Y0108452D01*
X0382224Y0108425D01*
X0382467Y0108392D01*
X0382710Y0108353D01*
X0382951Y0108308D01*
X0383191Y0108257D01*
X0383430Y0108200D01*
X0383667Y0108138D01*
X0383903Y0108069D01*
X0384137Y0107995D01*
X0384369Y0107915D01*
X0384599Y0107830D01*
X0384827Y0107739D01*
X0385052Y0107642D01*
X0385276Y0107540D01*
X0385496Y0107432D01*
X0385714Y0107319D01*
X0385929Y0107201D01*
X0386141Y0107077D01*
X0386350Y0106949D01*
X0386556Y0106815D01*
X0386758Y0106676D01*
X0386957Y0106532D01*
X0387152Y0106383D01*
X0387344Y0106230D01*
X0387532Y0106072D01*
X0387716Y0105910D01*
X0387895Y0105742D01*
X0388071Y0105571D01*
X0388242Y0105395D01*
X0388410Y0105216D01*
X0388572Y0105032D01*
X0388730Y0104844D01*
X0388883Y0104652D01*
X0389032Y0104457D01*
X0389176Y0104258D01*
X0389315Y0104056D01*
X0389449Y0103850D01*
X0389577Y0103641D01*
X0389701Y0103429D01*
X0389819Y0103214D01*
X0389932Y0102996D01*
X0390040Y0102776D01*
X0390142Y0102552D01*
X0390239Y0102327D01*
X0390330Y0102099D01*
X0390415Y0101869D01*
X0390495Y0101637D01*
X0390569Y0101403D01*
X0390638Y0101167D01*
X0390700Y0100930D01*
X0390757Y0100691D01*
X0390808Y0100451D01*
X0390853Y0100210D01*
X0390892Y0099967D01*
X0390925Y0099724D01*
X0390952Y0099480D01*
X0390973Y0099236D01*
X0390988Y0098991D01*
X0390997Y0098745D01*
X0391000Y0098500D01*
X0390997Y0098255D01*
X0390988Y0098009D01*
X0390973Y0097764D01*
X0390952Y0097520D01*
X0390925Y0097276D01*
X0390892Y0097033D01*
X0390853Y0096790D01*
X0390808Y0096549D01*
X0390757Y0096309D01*
X0390700Y0096070D01*
X0390638Y0095833D01*
X0390569Y0095597D01*
X0390495Y0095363D01*
X0390415Y0095131D01*
X0390330Y0094901D01*
X0390239Y0094673D01*
X0390142Y0094448D01*
X0390040Y0094224D01*
X0389932Y0094004D01*
X0389819Y0093786D01*
X0389701Y0093571D01*
X0389577Y0093359D01*
X0389449Y0093150D01*
X0389315Y0092944D01*
X0389176Y0092742D01*
X0389032Y0092543D01*
X0388883Y0092348D01*
X0388730Y0092156D01*
X0388572Y0091968D01*
X0388410Y0091784D01*
X0388242Y0091605D01*
X0388071Y0091429D01*
X0387895Y0091258D01*
X0387716Y0091090D01*
X0387532Y0090928D01*
X0387344Y0090770D01*
X0387152Y0090617D01*
X0386957Y0090468D01*
X0386758Y0090324D01*
X0386556Y0090185D01*
X0386350Y0090051D01*
X0386141Y0089923D01*
X0385929Y0089799D01*
X0385714Y0089681D01*
X0385496Y0089568D01*
X0385276Y0089460D01*
X0385052Y0089358D01*
X0384827Y0089261D01*
X0384599Y0089170D01*
X0384369Y0089085D01*
X0384137Y0089005D01*
X0383903Y0088931D01*
X0383667Y0088862D01*
X0383430Y0088800D01*
X0383191Y0088743D01*
X0382951Y0088692D01*
X0382710Y0088647D01*
X0382467Y0088608D01*
X0382224Y0088575D01*
X0381980Y0088548D01*
X0381736Y0088527D01*
X0381491Y0088512D01*
X0381245Y0088503D01*
X0381000Y0088500D01*
X0380755Y0088503D01*
X0380509Y0088512D01*
X0380264Y0088527D01*
X0380020Y0088548D01*
X0379776Y0088575D01*
X0379533Y0088608D01*
X0379290Y0088647D01*
X0379049Y0088692D01*
X0378809Y0088743D01*
X0378570Y0088800D01*
X0378333Y0088862D01*
X0378097Y0088931D01*
X0377863Y0089005D01*
X0377631Y0089085D01*
X0377401Y0089170D01*
X0377173Y0089261D01*
X0376948Y0089358D01*
X0376724Y0089460D01*
X0376504Y0089568D01*
X0376286Y0089681D01*
X0376071Y0089799D01*
X0375859Y0089923D01*
X0375650Y0090051D01*
X0375444Y0090185D01*
X0375242Y0090324D01*
X0375043Y0090468D01*
X0374848Y0090617D01*
X0374656Y0090770D01*
X0374468Y0090928D01*
X0374284Y0091090D01*
X0374105Y0091258D01*
X0373929Y0091429D01*
X0373758Y0091605D01*
X0373590Y0091784D01*
X0373428Y0091968D01*
X0373270Y0092156D01*
X0373117Y0092348D01*
X0372968Y0092543D01*
X0372824Y0092742D01*
X0372685Y0092944D01*
X0372551Y0093150D01*
X0372423Y0093359D01*
X0372299Y0093571D01*
X0372181Y0093786D01*
X0372068Y0094004D01*
X0371960Y0094224D01*
X0371858Y0094448D01*
X0371761Y0094673D01*
X0371670Y0094901D01*
X0371585Y0095131D01*
X0371505Y0095363D01*
X0371431Y0095597D01*
X0371362Y0095833D01*
X0371300Y0096070D01*
X0371243Y0096309D01*
X0371192Y0096549D01*
X0371147Y0096790D01*
X0371108Y0097033D01*
X0371075Y0097276D01*
X0371048Y0097520D01*
X0371027Y0097764D01*
X0371012Y0098009D01*
X0371003Y0098255D01*
X0371000Y0098500D01*
X0283500Y0098500D02*
X0283503Y0098745D01*
X0283512Y0098991D01*
X0283527Y0099236D01*
X0283548Y0099480D01*
X0283575Y0099724D01*
X0283608Y0099967D01*
X0283647Y0100210D01*
X0283692Y0100451D01*
X0283743Y0100691D01*
X0283800Y0100930D01*
X0283862Y0101167D01*
X0283931Y0101403D01*
X0284005Y0101637D01*
X0284085Y0101869D01*
X0284170Y0102099D01*
X0284261Y0102327D01*
X0284358Y0102552D01*
X0284460Y0102776D01*
X0284568Y0102996D01*
X0284681Y0103214D01*
X0284799Y0103429D01*
X0284923Y0103641D01*
X0285051Y0103850D01*
X0285185Y0104056D01*
X0285324Y0104258D01*
X0285468Y0104457D01*
X0285617Y0104652D01*
X0285770Y0104844D01*
X0285928Y0105032D01*
X0286090Y0105216D01*
X0286258Y0105395D01*
X0286429Y0105571D01*
X0286605Y0105742D01*
X0286784Y0105910D01*
X0286968Y0106072D01*
X0287156Y0106230D01*
X0287348Y0106383D01*
X0287543Y0106532D01*
X0287742Y0106676D01*
X0287944Y0106815D01*
X0288150Y0106949D01*
X0288359Y0107077D01*
X0288571Y0107201D01*
X0288786Y0107319D01*
X0289004Y0107432D01*
X0289224Y0107540D01*
X0289448Y0107642D01*
X0289673Y0107739D01*
X0289901Y0107830D01*
X0290131Y0107915D01*
X0290363Y0107995D01*
X0290597Y0108069D01*
X0290833Y0108138D01*
X0291070Y0108200D01*
X0291309Y0108257D01*
X0291549Y0108308D01*
X0291790Y0108353D01*
X0292033Y0108392D01*
X0292276Y0108425D01*
X0292520Y0108452D01*
X0292764Y0108473D01*
X0293009Y0108488D01*
X0293255Y0108497D01*
X0293500Y0108500D01*
X0293745Y0108497D01*
X0293991Y0108488D01*
X0294236Y0108473D01*
X0294480Y0108452D01*
X0294724Y0108425D01*
X0294967Y0108392D01*
X0295210Y0108353D01*
X0295451Y0108308D01*
X0295691Y0108257D01*
X0295930Y0108200D01*
X0296167Y0108138D01*
X0296403Y0108069D01*
X0296637Y0107995D01*
X0296869Y0107915D01*
X0297099Y0107830D01*
X0297327Y0107739D01*
X0297552Y0107642D01*
X0297776Y0107540D01*
X0297996Y0107432D01*
X0298214Y0107319D01*
X0298429Y0107201D01*
X0298641Y0107077D01*
X0298850Y0106949D01*
X0299056Y0106815D01*
X0299258Y0106676D01*
X0299457Y0106532D01*
X0299652Y0106383D01*
X0299844Y0106230D01*
X0300032Y0106072D01*
X0300216Y0105910D01*
X0300395Y0105742D01*
X0300571Y0105571D01*
X0300742Y0105395D01*
X0300910Y0105216D01*
X0301072Y0105032D01*
X0301230Y0104844D01*
X0301383Y0104652D01*
X0301532Y0104457D01*
X0301676Y0104258D01*
X0301815Y0104056D01*
X0301949Y0103850D01*
X0302077Y0103641D01*
X0302201Y0103429D01*
X0302319Y0103214D01*
X0302432Y0102996D01*
X0302540Y0102776D01*
X0302642Y0102552D01*
X0302739Y0102327D01*
X0302830Y0102099D01*
X0302915Y0101869D01*
X0302995Y0101637D01*
X0303069Y0101403D01*
X0303138Y0101167D01*
X0303200Y0100930D01*
X0303257Y0100691D01*
X0303308Y0100451D01*
X0303353Y0100210D01*
X0303392Y0099967D01*
X0303425Y0099724D01*
X0303452Y0099480D01*
X0303473Y0099236D01*
X0303488Y0098991D01*
X0303497Y0098745D01*
X0303500Y0098500D01*
X0303497Y0098255D01*
X0303488Y0098009D01*
X0303473Y0097764D01*
X0303452Y0097520D01*
X0303425Y0097276D01*
X0303392Y0097033D01*
X0303353Y0096790D01*
X0303308Y0096549D01*
X0303257Y0096309D01*
X0303200Y0096070D01*
X0303138Y0095833D01*
X0303069Y0095597D01*
X0302995Y0095363D01*
X0302915Y0095131D01*
X0302830Y0094901D01*
X0302739Y0094673D01*
X0302642Y0094448D01*
X0302540Y0094224D01*
X0302432Y0094004D01*
X0302319Y0093786D01*
X0302201Y0093571D01*
X0302077Y0093359D01*
X0301949Y0093150D01*
X0301815Y0092944D01*
X0301676Y0092742D01*
X0301532Y0092543D01*
X0301383Y0092348D01*
X0301230Y0092156D01*
X0301072Y0091968D01*
X0300910Y0091784D01*
X0300742Y0091605D01*
X0300571Y0091429D01*
X0300395Y0091258D01*
X0300216Y0091090D01*
X0300032Y0090928D01*
X0299844Y0090770D01*
X0299652Y0090617D01*
X0299457Y0090468D01*
X0299258Y0090324D01*
X0299056Y0090185D01*
X0298850Y0090051D01*
X0298641Y0089923D01*
X0298429Y0089799D01*
X0298214Y0089681D01*
X0297996Y0089568D01*
X0297776Y0089460D01*
X0297552Y0089358D01*
X0297327Y0089261D01*
X0297099Y0089170D01*
X0296869Y0089085D01*
X0296637Y0089005D01*
X0296403Y0088931D01*
X0296167Y0088862D01*
X0295930Y0088800D01*
X0295691Y0088743D01*
X0295451Y0088692D01*
X0295210Y0088647D01*
X0294967Y0088608D01*
X0294724Y0088575D01*
X0294480Y0088548D01*
X0294236Y0088527D01*
X0293991Y0088512D01*
X0293745Y0088503D01*
X0293500Y0088500D01*
X0293255Y0088503D01*
X0293009Y0088512D01*
X0292764Y0088527D01*
X0292520Y0088548D01*
X0292276Y0088575D01*
X0292033Y0088608D01*
X0291790Y0088647D01*
X0291549Y0088692D01*
X0291309Y0088743D01*
X0291070Y0088800D01*
X0290833Y0088862D01*
X0290597Y0088931D01*
X0290363Y0089005D01*
X0290131Y0089085D01*
X0289901Y0089170D01*
X0289673Y0089261D01*
X0289448Y0089358D01*
X0289224Y0089460D01*
X0289004Y0089568D01*
X0288786Y0089681D01*
X0288571Y0089799D01*
X0288359Y0089923D01*
X0288150Y0090051D01*
X0287944Y0090185D01*
X0287742Y0090324D01*
X0287543Y0090468D01*
X0287348Y0090617D01*
X0287156Y0090770D01*
X0286968Y0090928D01*
X0286784Y0091090D01*
X0286605Y0091258D01*
X0286429Y0091429D01*
X0286258Y0091605D01*
X0286090Y0091784D01*
X0285928Y0091968D01*
X0285770Y0092156D01*
X0285617Y0092348D01*
X0285468Y0092543D01*
X0285324Y0092742D01*
X0285185Y0092944D01*
X0285051Y0093150D01*
X0284923Y0093359D01*
X0284799Y0093571D01*
X0284681Y0093786D01*
X0284568Y0094004D01*
X0284460Y0094224D01*
X0284358Y0094448D01*
X0284261Y0094673D01*
X0284170Y0094901D01*
X0284085Y0095131D01*
X0284005Y0095363D01*
X0283931Y0095597D01*
X0283862Y0095833D01*
X0283800Y0096070D01*
X0283743Y0096309D01*
X0283692Y0096549D01*
X0283647Y0096790D01*
X0283608Y0097033D01*
X0283575Y0097276D01*
X0283548Y0097520D01*
X0283527Y0097764D01*
X0283512Y0098009D01*
X0283503Y0098255D01*
X0283500Y0098500D01*
X0203500Y0098500D02*
X0203503Y0098745D01*
X0203512Y0098991D01*
X0203527Y0099236D01*
X0203548Y0099480D01*
X0203575Y0099724D01*
X0203608Y0099967D01*
X0203647Y0100210D01*
X0203692Y0100451D01*
X0203743Y0100691D01*
X0203800Y0100930D01*
X0203862Y0101167D01*
X0203931Y0101403D01*
X0204005Y0101637D01*
X0204085Y0101869D01*
X0204170Y0102099D01*
X0204261Y0102327D01*
X0204358Y0102552D01*
X0204460Y0102776D01*
X0204568Y0102996D01*
X0204681Y0103214D01*
X0204799Y0103429D01*
X0204923Y0103641D01*
X0205051Y0103850D01*
X0205185Y0104056D01*
X0205324Y0104258D01*
X0205468Y0104457D01*
X0205617Y0104652D01*
X0205770Y0104844D01*
X0205928Y0105032D01*
X0206090Y0105216D01*
X0206258Y0105395D01*
X0206429Y0105571D01*
X0206605Y0105742D01*
X0206784Y0105910D01*
X0206968Y0106072D01*
X0207156Y0106230D01*
X0207348Y0106383D01*
X0207543Y0106532D01*
X0207742Y0106676D01*
X0207944Y0106815D01*
X0208150Y0106949D01*
X0208359Y0107077D01*
X0208571Y0107201D01*
X0208786Y0107319D01*
X0209004Y0107432D01*
X0209224Y0107540D01*
X0209448Y0107642D01*
X0209673Y0107739D01*
X0209901Y0107830D01*
X0210131Y0107915D01*
X0210363Y0107995D01*
X0210597Y0108069D01*
X0210833Y0108138D01*
X0211070Y0108200D01*
X0211309Y0108257D01*
X0211549Y0108308D01*
X0211790Y0108353D01*
X0212033Y0108392D01*
X0212276Y0108425D01*
X0212520Y0108452D01*
X0212764Y0108473D01*
X0213009Y0108488D01*
X0213255Y0108497D01*
X0213500Y0108500D01*
X0213745Y0108497D01*
X0213991Y0108488D01*
X0214236Y0108473D01*
X0214480Y0108452D01*
X0214724Y0108425D01*
X0214967Y0108392D01*
X0215210Y0108353D01*
X0215451Y0108308D01*
X0215691Y0108257D01*
X0215930Y0108200D01*
X0216167Y0108138D01*
X0216403Y0108069D01*
X0216637Y0107995D01*
X0216869Y0107915D01*
X0217099Y0107830D01*
X0217327Y0107739D01*
X0217552Y0107642D01*
X0217776Y0107540D01*
X0217996Y0107432D01*
X0218214Y0107319D01*
X0218429Y0107201D01*
X0218641Y0107077D01*
X0218850Y0106949D01*
X0219056Y0106815D01*
X0219258Y0106676D01*
X0219457Y0106532D01*
X0219652Y0106383D01*
X0219844Y0106230D01*
X0220032Y0106072D01*
X0220216Y0105910D01*
X0220395Y0105742D01*
X0220571Y0105571D01*
X0220742Y0105395D01*
X0220910Y0105216D01*
X0221072Y0105032D01*
X0221230Y0104844D01*
X0221383Y0104652D01*
X0221532Y0104457D01*
X0221676Y0104258D01*
X0221815Y0104056D01*
X0221949Y0103850D01*
X0222077Y0103641D01*
X0222201Y0103429D01*
X0222319Y0103214D01*
X0222432Y0102996D01*
X0222540Y0102776D01*
X0222642Y0102552D01*
X0222739Y0102327D01*
X0222830Y0102099D01*
X0222915Y0101869D01*
X0222995Y0101637D01*
X0223069Y0101403D01*
X0223138Y0101167D01*
X0223200Y0100930D01*
X0223257Y0100691D01*
X0223308Y0100451D01*
X0223353Y0100210D01*
X0223392Y0099967D01*
X0223425Y0099724D01*
X0223452Y0099480D01*
X0223473Y0099236D01*
X0223488Y0098991D01*
X0223497Y0098745D01*
X0223500Y0098500D01*
X0223497Y0098255D01*
X0223488Y0098009D01*
X0223473Y0097764D01*
X0223452Y0097520D01*
X0223425Y0097276D01*
X0223392Y0097033D01*
X0223353Y0096790D01*
X0223308Y0096549D01*
X0223257Y0096309D01*
X0223200Y0096070D01*
X0223138Y0095833D01*
X0223069Y0095597D01*
X0222995Y0095363D01*
X0222915Y0095131D01*
X0222830Y0094901D01*
X0222739Y0094673D01*
X0222642Y0094448D01*
X0222540Y0094224D01*
X0222432Y0094004D01*
X0222319Y0093786D01*
X0222201Y0093571D01*
X0222077Y0093359D01*
X0221949Y0093150D01*
X0221815Y0092944D01*
X0221676Y0092742D01*
X0221532Y0092543D01*
X0221383Y0092348D01*
X0221230Y0092156D01*
X0221072Y0091968D01*
X0220910Y0091784D01*
X0220742Y0091605D01*
X0220571Y0091429D01*
X0220395Y0091258D01*
X0220216Y0091090D01*
X0220032Y0090928D01*
X0219844Y0090770D01*
X0219652Y0090617D01*
X0219457Y0090468D01*
X0219258Y0090324D01*
X0219056Y0090185D01*
X0218850Y0090051D01*
X0218641Y0089923D01*
X0218429Y0089799D01*
X0218214Y0089681D01*
X0217996Y0089568D01*
X0217776Y0089460D01*
X0217552Y0089358D01*
X0217327Y0089261D01*
X0217099Y0089170D01*
X0216869Y0089085D01*
X0216637Y0089005D01*
X0216403Y0088931D01*
X0216167Y0088862D01*
X0215930Y0088800D01*
X0215691Y0088743D01*
X0215451Y0088692D01*
X0215210Y0088647D01*
X0214967Y0088608D01*
X0214724Y0088575D01*
X0214480Y0088548D01*
X0214236Y0088527D01*
X0213991Y0088512D01*
X0213745Y0088503D01*
X0213500Y0088500D01*
X0213255Y0088503D01*
X0213009Y0088512D01*
X0212764Y0088527D01*
X0212520Y0088548D01*
X0212276Y0088575D01*
X0212033Y0088608D01*
X0211790Y0088647D01*
X0211549Y0088692D01*
X0211309Y0088743D01*
X0211070Y0088800D01*
X0210833Y0088862D01*
X0210597Y0088931D01*
X0210363Y0089005D01*
X0210131Y0089085D01*
X0209901Y0089170D01*
X0209673Y0089261D01*
X0209448Y0089358D01*
X0209224Y0089460D01*
X0209004Y0089568D01*
X0208786Y0089681D01*
X0208571Y0089799D01*
X0208359Y0089923D01*
X0208150Y0090051D01*
X0207944Y0090185D01*
X0207742Y0090324D01*
X0207543Y0090468D01*
X0207348Y0090617D01*
X0207156Y0090770D01*
X0206968Y0090928D01*
X0206784Y0091090D01*
X0206605Y0091258D01*
X0206429Y0091429D01*
X0206258Y0091605D01*
X0206090Y0091784D01*
X0205928Y0091968D01*
X0205770Y0092156D01*
X0205617Y0092348D01*
X0205468Y0092543D01*
X0205324Y0092742D01*
X0205185Y0092944D01*
X0205051Y0093150D01*
X0204923Y0093359D01*
X0204799Y0093571D01*
X0204681Y0093786D01*
X0204568Y0094004D01*
X0204460Y0094224D01*
X0204358Y0094448D01*
X0204261Y0094673D01*
X0204170Y0094901D01*
X0204085Y0095131D01*
X0204005Y0095363D01*
X0203931Y0095597D01*
X0203862Y0095833D01*
X0203800Y0096070D01*
X0203743Y0096309D01*
X0203692Y0096549D01*
X0203647Y0096790D01*
X0203608Y0097033D01*
X0203575Y0097276D01*
X0203548Y0097520D01*
X0203527Y0097764D01*
X0203512Y0098009D01*
X0203503Y0098255D01*
X0203500Y0098500D01*
X0116000Y0098500D02*
X0116003Y0098745D01*
X0116012Y0098991D01*
X0116027Y0099236D01*
X0116048Y0099480D01*
X0116075Y0099724D01*
X0116108Y0099967D01*
X0116147Y0100210D01*
X0116192Y0100451D01*
X0116243Y0100691D01*
X0116300Y0100930D01*
X0116362Y0101167D01*
X0116431Y0101403D01*
X0116505Y0101637D01*
X0116585Y0101869D01*
X0116670Y0102099D01*
X0116761Y0102327D01*
X0116858Y0102552D01*
X0116960Y0102776D01*
X0117068Y0102996D01*
X0117181Y0103214D01*
X0117299Y0103429D01*
X0117423Y0103641D01*
X0117551Y0103850D01*
X0117685Y0104056D01*
X0117824Y0104258D01*
X0117968Y0104457D01*
X0118117Y0104652D01*
X0118270Y0104844D01*
X0118428Y0105032D01*
X0118590Y0105216D01*
X0118758Y0105395D01*
X0118929Y0105571D01*
X0119105Y0105742D01*
X0119284Y0105910D01*
X0119468Y0106072D01*
X0119656Y0106230D01*
X0119848Y0106383D01*
X0120043Y0106532D01*
X0120242Y0106676D01*
X0120444Y0106815D01*
X0120650Y0106949D01*
X0120859Y0107077D01*
X0121071Y0107201D01*
X0121286Y0107319D01*
X0121504Y0107432D01*
X0121724Y0107540D01*
X0121948Y0107642D01*
X0122173Y0107739D01*
X0122401Y0107830D01*
X0122631Y0107915D01*
X0122863Y0107995D01*
X0123097Y0108069D01*
X0123333Y0108138D01*
X0123570Y0108200D01*
X0123809Y0108257D01*
X0124049Y0108308D01*
X0124290Y0108353D01*
X0124533Y0108392D01*
X0124776Y0108425D01*
X0125020Y0108452D01*
X0125264Y0108473D01*
X0125509Y0108488D01*
X0125755Y0108497D01*
X0126000Y0108500D01*
X0126245Y0108497D01*
X0126491Y0108488D01*
X0126736Y0108473D01*
X0126980Y0108452D01*
X0127224Y0108425D01*
X0127467Y0108392D01*
X0127710Y0108353D01*
X0127951Y0108308D01*
X0128191Y0108257D01*
X0128430Y0108200D01*
X0128667Y0108138D01*
X0128903Y0108069D01*
X0129137Y0107995D01*
X0129369Y0107915D01*
X0129599Y0107830D01*
X0129827Y0107739D01*
X0130052Y0107642D01*
X0130276Y0107540D01*
X0130496Y0107432D01*
X0130714Y0107319D01*
X0130929Y0107201D01*
X0131141Y0107077D01*
X0131350Y0106949D01*
X0131556Y0106815D01*
X0131758Y0106676D01*
X0131957Y0106532D01*
X0132152Y0106383D01*
X0132344Y0106230D01*
X0132532Y0106072D01*
X0132716Y0105910D01*
X0132895Y0105742D01*
X0133071Y0105571D01*
X0133242Y0105395D01*
X0133410Y0105216D01*
X0133572Y0105032D01*
X0133730Y0104844D01*
X0133883Y0104652D01*
X0134032Y0104457D01*
X0134176Y0104258D01*
X0134315Y0104056D01*
X0134449Y0103850D01*
X0134577Y0103641D01*
X0134701Y0103429D01*
X0134819Y0103214D01*
X0134932Y0102996D01*
X0135040Y0102776D01*
X0135142Y0102552D01*
X0135239Y0102327D01*
X0135330Y0102099D01*
X0135415Y0101869D01*
X0135495Y0101637D01*
X0135569Y0101403D01*
X0135638Y0101167D01*
X0135700Y0100930D01*
X0135757Y0100691D01*
X0135808Y0100451D01*
X0135853Y0100210D01*
X0135892Y0099967D01*
X0135925Y0099724D01*
X0135952Y0099480D01*
X0135973Y0099236D01*
X0135988Y0098991D01*
X0135997Y0098745D01*
X0136000Y0098500D01*
X0135997Y0098255D01*
X0135988Y0098009D01*
X0135973Y0097764D01*
X0135952Y0097520D01*
X0135925Y0097276D01*
X0135892Y0097033D01*
X0135853Y0096790D01*
X0135808Y0096549D01*
X0135757Y0096309D01*
X0135700Y0096070D01*
X0135638Y0095833D01*
X0135569Y0095597D01*
X0135495Y0095363D01*
X0135415Y0095131D01*
X0135330Y0094901D01*
X0135239Y0094673D01*
X0135142Y0094448D01*
X0135040Y0094224D01*
X0134932Y0094004D01*
X0134819Y0093786D01*
X0134701Y0093571D01*
X0134577Y0093359D01*
X0134449Y0093150D01*
X0134315Y0092944D01*
X0134176Y0092742D01*
X0134032Y0092543D01*
X0133883Y0092348D01*
X0133730Y0092156D01*
X0133572Y0091968D01*
X0133410Y0091784D01*
X0133242Y0091605D01*
X0133071Y0091429D01*
X0132895Y0091258D01*
X0132716Y0091090D01*
X0132532Y0090928D01*
X0132344Y0090770D01*
X0132152Y0090617D01*
X0131957Y0090468D01*
X0131758Y0090324D01*
X0131556Y0090185D01*
X0131350Y0090051D01*
X0131141Y0089923D01*
X0130929Y0089799D01*
X0130714Y0089681D01*
X0130496Y0089568D01*
X0130276Y0089460D01*
X0130052Y0089358D01*
X0129827Y0089261D01*
X0129599Y0089170D01*
X0129369Y0089085D01*
X0129137Y0089005D01*
X0128903Y0088931D01*
X0128667Y0088862D01*
X0128430Y0088800D01*
X0128191Y0088743D01*
X0127951Y0088692D01*
X0127710Y0088647D01*
X0127467Y0088608D01*
X0127224Y0088575D01*
X0126980Y0088548D01*
X0126736Y0088527D01*
X0126491Y0088512D01*
X0126245Y0088503D01*
X0126000Y0088500D01*
X0125755Y0088503D01*
X0125509Y0088512D01*
X0125264Y0088527D01*
X0125020Y0088548D01*
X0124776Y0088575D01*
X0124533Y0088608D01*
X0124290Y0088647D01*
X0124049Y0088692D01*
X0123809Y0088743D01*
X0123570Y0088800D01*
X0123333Y0088862D01*
X0123097Y0088931D01*
X0122863Y0089005D01*
X0122631Y0089085D01*
X0122401Y0089170D01*
X0122173Y0089261D01*
X0121948Y0089358D01*
X0121724Y0089460D01*
X0121504Y0089568D01*
X0121286Y0089681D01*
X0121071Y0089799D01*
X0120859Y0089923D01*
X0120650Y0090051D01*
X0120444Y0090185D01*
X0120242Y0090324D01*
X0120043Y0090468D01*
X0119848Y0090617D01*
X0119656Y0090770D01*
X0119468Y0090928D01*
X0119284Y0091090D01*
X0119105Y0091258D01*
X0118929Y0091429D01*
X0118758Y0091605D01*
X0118590Y0091784D01*
X0118428Y0091968D01*
X0118270Y0092156D01*
X0118117Y0092348D01*
X0117968Y0092543D01*
X0117824Y0092742D01*
X0117685Y0092944D01*
X0117551Y0093150D01*
X0117423Y0093359D01*
X0117299Y0093571D01*
X0117181Y0093786D01*
X0117068Y0094004D01*
X0116960Y0094224D01*
X0116858Y0094448D01*
X0116761Y0094673D01*
X0116670Y0094901D01*
X0116585Y0095131D01*
X0116505Y0095363D01*
X0116431Y0095597D01*
X0116362Y0095833D01*
X0116300Y0096070D01*
X0116243Y0096309D01*
X0116192Y0096549D01*
X0116147Y0096790D01*
X0116108Y0097033D01*
X0116075Y0097276D01*
X0116048Y0097520D01*
X0116027Y0097764D01*
X0116012Y0098009D01*
X0116003Y0098255D01*
X0116000Y0098500D01*
D12*
X0085094Y0136561D02*
X0085841Y0137501D01*
X0086611Y0138421D01*
X0087403Y0139323D01*
X0088216Y0140206D01*
X0089051Y0141068D01*
X0089906Y0141910D01*
X0090781Y0142730D01*
X0091677Y0143530D01*
X0092591Y0144307D01*
X0093524Y0145062D01*
X0094475Y0145794D01*
X0095443Y0146502D01*
X0096429Y0147187D01*
X0097430Y0147848D01*
X0098448Y0148484D01*
X0099481Y0149095D01*
X0100528Y0149681D01*
X0101589Y0150242D01*
X0102664Y0150776D01*
X0103751Y0151284D01*
X0104850Y0151766D01*
X0105960Y0152221D01*
X0107082Y0152649D01*
X0108213Y0153049D01*
X0109354Y0153422D01*
X0110503Y0153767D01*
X0111660Y0154084D01*
X0112825Y0154372D01*
X0113997Y0154633D01*
X0115174Y0154864D01*
X0116357Y0155067D01*
X0117544Y0155242D01*
X0118735Y0155387D01*
X0119930Y0155504D01*
X0121127Y0155591D01*
X0122325Y0155649D01*
X0123525Y0155678D01*
X0124725Y0155678D01*
X0125925Y0155649D01*
X0127123Y0155591D01*
X0128320Y0155504D01*
X0129515Y0155387D01*
X0130706Y0155242D01*
X0131893Y0155067D01*
X0133076Y0154864D01*
X0134253Y0154633D01*
X0135425Y0154372D01*
X0136590Y0154084D01*
X0137747Y0153767D01*
X0138896Y0153422D01*
X0140037Y0153049D01*
X0141168Y0152649D01*
X0142290Y0152221D01*
X0143400Y0151766D01*
X0144499Y0151284D01*
X0145586Y0150776D01*
X0146661Y0150242D01*
X0147722Y0149681D01*
X0148769Y0149095D01*
X0149802Y0148484D01*
X0150820Y0147848D01*
X0151821Y0147187D01*
X0152807Y0146502D01*
X0153775Y0145794D01*
X0154726Y0145062D01*
X0155659Y0144307D01*
X0156573Y0143530D01*
X0157469Y0142730D01*
X0158344Y0141910D01*
X0159199Y0141068D01*
X0160034Y0140206D01*
X0160847Y0139323D01*
X0161639Y0138421D01*
X0162409Y0137501D01*
X0163156Y0136561D01*
X0163156Y0061689D01*
X0172594Y0061689D02*
X0172594Y0136561D01*
X0250656Y0136561D02*
X0250656Y0061689D01*
X0252594Y0061689D02*
X0252594Y0136561D01*
X0330656Y0136561D02*
X0330656Y0061689D01*
X0340094Y0061689D02*
X0340094Y0136561D01*
X0418156Y0136561D02*
X0418156Y0061689D01*
X0420094Y0061689D02*
X0420094Y0136561D01*
X0498156Y0136561D02*
X0498156Y0061689D01*
X0497485Y0060741D01*
X0496792Y0059810D01*
X0496076Y0058896D01*
X0495338Y0058000D01*
X0494579Y0057122D01*
X0493798Y0056263D01*
X0492996Y0055423D01*
X0492174Y0054603D01*
X0491332Y0053804D01*
X0490471Y0053025D01*
X0489591Y0052268D01*
X0488692Y0051533D01*
X0487776Y0050819D01*
X0486843Y0050129D01*
X0485893Y0049461D01*
X0484927Y0048818D01*
X0483945Y0048197D01*
X0482949Y0047602D01*
X0481938Y0047030D01*
X0480914Y0046484D01*
X0479876Y0045963D01*
X0478826Y0045467D01*
X0477764Y0044997D01*
X0476692Y0044554D01*
X0475608Y0044137D01*
X0474515Y0043746D01*
X0473412Y0043383D01*
X0472301Y0043046D01*
X0471182Y0042737D01*
X0470055Y0042456D01*
X0468923Y0042202D01*
X0467784Y0041976D01*
X0466640Y0041778D01*
X0465491Y0041608D01*
X0464339Y0041466D01*
X0463184Y0041352D01*
X0462026Y0041267D01*
X0460866Y0041210D01*
X0459705Y0041182D01*
X0458545Y0041182D01*
X0457384Y0041210D01*
X0456224Y0041267D01*
X0455066Y0041352D01*
X0453911Y0041466D01*
X0452759Y0041608D01*
X0451610Y0041778D01*
X0450466Y0041976D01*
X0449327Y0042202D01*
X0448195Y0042456D01*
X0447068Y0042737D01*
X0445949Y0043046D01*
X0444838Y0043383D01*
X0443735Y0043746D01*
X0442642Y0044137D01*
X0441558Y0044554D01*
X0440486Y0044997D01*
X0439424Y0045467D01*
X0438374Y0045963D01*
X0437336Y0046484D01*
X0436312Y0047030D01*
X0435301Y0047602D01*
X0434305Y0048197D01*
X0433323Y0048818D01*
X0432357Y0049461D01*
X0431407Y0050129D01*
X0430474Y0050819D01*
X0429558Y0051533D01*
X0428659Y0052268D01*
X0427779Y0053025D01*
X0426918Y0053804D01*
X0426076Y0054603D01*
X0425254Y0055423D01*
X0424452Y0056263D01*
X0423671Y0057122D01*
X0422912Y0058000D01*
X0422174Y0058896D01*
X0421458Y0059810D01*
X0420765Y0060741D01*
X0420094Y0061689D01*
X0418156Y0061689D02*
X0417485Y0060741D01*
X0416792Y0059810D01*
X0416076Y0058896D01*
X0415338Y0058000D01*
X0414579Y0057122D01*
X0413798Y0056263D01*
X0412996Y0055423D01*
X0412174Y0054603D01*
X0411332Y0053804D01*
X0410471Y0053025D01*
X0409591Y0052268D01*
X0408692Y0051533D01*
X0407776Y0050819D01*
X0406843Y0050129D01*
X0405893Y0049461D01*
X0404927Y0048818D01*
X0403945Y0048197D01*
X0402949Y0047602D01*
X0401938Y0047030D01*
X0400914Y0046484D01*
X0399876Y0045963D01*
X0398826Y0045467D01*
X0397764Y0044997D01*
X0396692Y0044554D01*
X0395608Y0044137D01*
X0394515Y0043746D01*
X0393412Y0043383D01*
X0392301Y0043046D01*
X0391182Y0042737D01*
X0390055Y0042456D01*
X0388923Y0042202D01*
X0387784Y0041976D01*
X0386640Y0041778D01*
X0385491Y0041608D01*
X0384339Y0041466D01*
X0383184Y0041352D01*
X0382026Y0041267D01*
X0380866Y0041210D01*
X0379705Y0041182D01*
X0378545Y0041182D01*
X0377384Y0041210D01*
X0376224Y0041267D01*
X0375066Y0041352D01*
X0373911Y0041466D01*
X0372759Y0041608D01*
X0371610Y0041778D01*
X0370466Y0041976D01*
X0369327Y0042202D01*
X0368195Y0042456D01*
X0367068Y0042737D01*
X0365949Y0043046D01*
X0364838Y0043383D01*
X0363735Y0043746D01*
X0362642Y0044137D01*
X0361558Y0044554D01*
X0360486Y0044997D01*
X0359424Y0045467D01*
X0358374Y0045963D01*
X0357336Y0046484D01*
X0356312Y0047030D01*
X0355301Y0047602D01*
X0354305Y0048197D01*
X0353323Y0048818D01*
X0352357Y0049461D01*
X0351407Y0050129D01*
X0350474Y0050819D01*
X0349558Y0051533D01*
X0348659Y0052268D01*
X0347779Y0053025D01*
X0346918Y0053804D01*
X0346076Y0054603D01*
X0345254Y0055423D01*
X0344452Y0056263D01*
X0343671Y0057122D01*
X0342912Y0058000D01*
X0342174Y0058896D01*
X0341458Y0059810D01*
X0340765Y0060741D01*
X0340094Y0061689D01*
X0330656Y0061689D02*
X0329985Y0060741D01*
X0329292Y0059810D01*
X0328576Y0058896D01*
X0327838Y0058000D01*
X0327079Y0057122D01*
X0326298Y0056263D01*
X0325496Y0055423D01*
X0324674Y0054603D01*
X0323832Y0053804D01*
X0322971Y0053025D01*
X0322091Y0052268D01*
X0321192Y0051533D01*
X0320276Y0050819D01*
X0319343Y0050129D01*
X0318393Y0049461D01*
X0317427Y0048818D01*
X0316445Y0048197D01*
X0315449Y0047602D01*
X0314438Y0047030D01*
X0313414Y0046484D01*
X0312376Y0045963D01*
X0311326Y0045467D01*
X0310264Y0044997D01*
X0309192Y0044554D01*
X0308108Y0044137D01*
X0307015Y0043746D01*
X0305912Y0043383D01*
X0304801Y0043046D01*
X0303682Y0042737D01*
X0302555Y0042456D01*
X0301423Y0042202D01*
X0300284Y0041976D01*
X0299140Y0041778D01*
X0297991Y0041608D01*
X0296839Y0041466D01*
X0295684Y0041352D01*
X0294526Y0041267D01*
X0293366Y0041210D01*
X0292205Y0041182D01*
X0291045Y0041182D01*
X0289884Y0041210D01*
X0288724Y0041267D01*
X0287566Y0041352D01*
X0286411Y0041466D01*
X0285259Y0041608D01*
X0284110Y0041778D01*
X0282966Y0041976D01*
X0281827Y0042202D01*
X0280695Y0042456D01*
X0279568Y0042737D01*
X0278449Y0043046D01*
X0277338Y0043383D01*
X0276235Y0043746D01*
X0275142Y0044137D01*
X0274058Y0044554D01*
X0272986Y0044997D01*
X0271924Y0045467D01*
X0270874Y0045963D01*
X0269836Y0046484D01*
X0268812Y0047030D01*
X0267801Y0047602D01*
X0266805Y0048197D01*
X0265823Y0048818D01*
X0264857Y0049461D01*
X0263907Y0050129D01*
X0262974Y0050819D01*
X0262058Y0051533D01*
X0261159Y0052268D01*
X0260279Y0053025D01*
X0259418Y0053804D01*
X0258576Y0054603D01*
X0257754Y0055423D01*
X0256952Y0056263D01*
X0256171Y0057122D01*
X0255412Y0058000D01*
X0254674Y0058896D01*
X0253958Y0059810D01*
X0253265Y0060741D01*
X0252594Y0061689D01*
X0250656Y0061689D02*
X0249985Y0060741D01*
X0249292Y0059810D01*
X0248576Y0058896D01*
X0247838Y0058000D01*
X0247079Y0057122D01*
X0246298Y0056263D01*
X0245496Y0055423D01*
X0244674Y0054603D01*
X0243832Y0053804D01*
X0242971Y0053025D01*
X0242091Y0052268D01*
X0241192Y0051533D01*
X0240276Y0050819D01*
X0239343Y0050129D01*
X0238393Y0049461D01*
X0237427Y0048818D01*
X0236445Y0048197D01*
X0235449Y0047602D01*
X0234438Y0047030D01*
X0233414Y0046484D01*
X0232376Y0045963D01*
X0231326Y0045467D01*
X0230264Y0044997D01*
X0229192Y0044554D01*
X0228108Y0044137D01*
X0227015Y0043746D01*
X0225912Y0043383D01*
X0224801Y0043046D01*
X0223682Y0042737D01*
X0222555Y0042456D01*
X0221423Y0042202D01*
X0220284Y0041976D01*
X0219140Y0041778D01*
X0217991Y0041608D01*
X0216839Y0041466D01*
X0215684Y0041352D01*
X0214526Y0041267D01*
X0213366Y0041210D01*
X0212205Y0041182D01*
X0211045Y0041182D01*
X0209884Y0041210D01*
X0208724Y0041267D01*
X0207566Y0041352D01*
X0206411Y0041466D01*
X0205259Y0041608D01*
X0204110Y0041778D01*
X0202966Y0041976D01*
X0201827Y0042202D01*
X0200695Y0042456D01*
X0199568Y0042737D01*
X0198449Y0043046D01*
X0197338Y0043383D01*
X0196235Y0043746D01*
X0195142Y0044137D01*
X0194058Y0044554D01*
X0192986Y0044997D01*
X0191924Y0045467D01*
X0190874Y0045963D01*
X0189836Y0046484D01*
X0188812Y0047030D01*
X0187801Y0047602D01*
X0186805Y0048197D01*
X0185823Y0048818D01*
X0184857Y0049461D01*
X0183907Y0050129D01*
X0182974Y0050819D01*
X0182058Y0051533D01*
X0181159Y0052268D01*
X0180279Y0053025D01*
X0179418Y0053804D01*
X0178576Y0054603D01*
X0177754Y0055423D01*
X0176952Y0056263D01*
X0176171Y0057122D01*
X0175412Y0058000D01*
X0174674Y0058896D01*
X0173958Y0059810D01*
X0173265Y0060741D01*
X0172594Y0061689D01*
X0163156Y0061689D02*
X0162485Y0060741D01*
X0161792Y0059810D01*
X0161076Y0058896D01*
X0160338Y0058000D01*
X0159579Y0057122D01*
X0158798Y0056263D01*
X0157996Y0055423D01*
X0157174Y0054603D01*
X0156332Y0053804D01*
X0155471Y0053025D01*
X0154591Y0052268D01*
X0153692Y0051533D01*
X0152776Y0050819D01*
X0151843Y0050129D01*
X0150893Y0049461D01*
X0149927Y0048818D01*
X0148945Y0048197D01*
X0147949Y0047602D01*
X0146938Y0047030D01*
X0145914Y0046484D01*
X0144876Y0045963D01*
X0143826Y0045467D01*
X0142764Y0044997D01*
X0141692Y0044554D01*
X0140608Y0044137D01*
X0139515Y0043746D01*
X0138412Y0043383D01*
X0137301Y0043046D01*
X0136182Y0042737D01*
X0135055Y0042456D01*
X0133923Y0042202D01*
X0132784Y0041976D01*
X0131640Y0041778D01*
X0130491Y0041608D01*
X0129339Y0041466D01*
X0128184Y0041352D01*
X0127026Y0041267D01*
X0125866Y0041210D01*
X0124705Y0041182D01*
X0123545Y0041182D01*
X0122384Y0041210D01*
X0121224Y0041267D01*
X0120066Y0041352D01*
X0118911Y0041466D01*
X0117759Y0041608D01*
X0116610Y0041778D01*
X0115466Y0041976D01*
X0114327Y0042202D01*
X0113195Y0042456D01*
X0112068Y0042737D01*
X0110949Y0043046D01*
X0109838Y0043383D01*
X0108735Y0043746D01*
X0107642Y0044137D01*
X0106558Y0044554D01*
X0105486Y0044997D01*
X0104424Y0045467D01*
X0103374Y0045963D01*
X0102336Y0046484D01*
X0101312Y0047030D01*
X0100301Y0047602D01*
X0099305Y0048197D01*
X0098323Y0048818D01*
X0097357Y0049461D01*
X0096407Y0050129D01*
X0095474Y0050819D01*
X0094558Y0051533D01*
X0093659Y0052268D01*
X0092779Y0053025D01*
X0091918Y0053804D01*
X0091076Y0054603D01*
X0090254Y0055423D01*
X0089452Y0056263D01*
X0088671Y0057122D01*
X0087912Y0058000D01*
X0087174Y0058896D01*
X0086458Y0059810D01*
X0085765Y0060741D01*
X0085094Y0061689D01*
X0085094Y0136561D01*
X0083156Y0136561D02*
X0083156Y0061689D01*
X0005094Y0061689D02*
X0005094Y0136561D01*
X0005841Y0137501D01*
X0006611Y0138421D01*
X0007403Y0139323D01*
X0008216Y0140206D01*
X0009051Y0141068D01*
X0009906Y0141910D01*
X0010781Y0142730D01*
X0011677Y0143530D01*
X0012591Y0144307D01*
X0013524Y0145062D01*
X0014475Y0145794D01*
X0015443Y0146502D01*
X0016429Y0147187D01*
X0017430Y0147848D01*
X0018448Y0148484D01*
X0019481Y0149095D01*
X0020528Y0149681D01*
X0021589Y0150242D01*
X0022664Y0150776D01*
X0023751Y0151284D01*
X0024850Y0151766D01*
X0025960Y0152221D01*
X0027082Y0152649D01*
X0028213Y0153049D01*
X0029354Y0153422D01*
X0030503Y0153767D01*
X0031660Y0154084D01*
X0032825Y0154372D01*
X0033997Y0154633D01*
X0035174Y0154864D01*
X0036357Y0155067D01*
X0037544Y0155242D01*
X0038735Y0155387D01*
X0039930Y0155504D01*
X0041127Y0155591D01*
X0042325Y0155649D01*
X0043525Y0155678D01*
X0044725Y0155678D01*
X0045925Y0155649D01*
X0047123Y0155591D01*
X0048320Y0155504D01*
X0049515Y0155387D01*
X0050706Y0155242D01*
X0051893Y0155067D01*
X0053076Y0154864D01*
X0054253Y0154633D01*
X0055425Y0154372D01*
X0056590Y0154084D01*
X0057747Y0153767D01*
X0058896Y0153422D01*
X0060037Y0153049D01*
X0061168Y0152649D01*
X0062290Y0152221D01*
X0063400Y0151766D01*
X0064499Y0151284D01*
X0065586Y0150776D01*
X0066661Y0150242D01*
X0067722Y0149681D01*
X0068769Y0149095D01*
X0069802Y0148484D01*
X0070820Y0147848D01*
X0071821Y0147187D01*
X0072807Y0146502D01*
X0073775Y0145794D01*
X0074726Y0145062D01*
X0075659Y0144307D01*
X0076573Y0143530D01*
X0077469Y0142730D01*
X0078344Y0141910D01*
X0079199Y0141068D01*
X0080034Y0140206D01*
X0080847Y0139323D01*
X0081639Y0138421D01*
X0082409Y0137501D01*
X0083156Y0136561D01*
X0172594Y0136561D02*
X0173341Y0137501D01*
X0174111Y0138421D01*
X0174903Y0139323D01*
X0175716Y0140206D01*
X0176551Y0141068D01*
X0177406Y0141910D01*
X0178281Y0142730D01*
X0179177Y0143530D01*
X0180091Y0144307D01*
X0181024Y0145062D01*
X0181975Y0145794D01*
X0182943Y0146502D01*
X0183929Y0147187D01*
X0184930Y0147848D01*
X0185948Y0148484D01*
X0186981Y0149095D01*
X0188028Y0149681D01*
X0189089Y0150242D01*
X0190164Y0150776D01*
X0191251Y0151284D01*
X0192350Y0151766D01*
X0193460Y0152221D01*
X0194582Y0152649D01*
X0195713Y0153049D01*
X0196854Y0153422D01*
X0198003Y0153767D01*
X0199160Y0154084D01*
X0200325Y0154372D01*
X0201497Y0154633D01*
X0202674Y0154864D01*
X0203857Y0155067D01*
X0205044Y0155242D01*
X0206235Y0155387D01*
X0207430Y0155504D01*
X0208627Y0155591D01*
X0209825Y0155649D01*
X0211025Y0155678D01*
X0212225Y0155678D01*
X0213425Y0155649D01*
X0214623Y0155591D01*
X0215820Y0155504D01*
X0217015Y0155387D01*
X0218206Y0155242D01*
X0219393Y0155067D01*
X0220576Y0154864D01*
X0221753Y0154633D01*
X0222925Y0154372D01*
X0224090Y0154084D01*
X0225247Y0153767D01*
X0226396Y0153422D01*
X0227537Y0153049D01*
X0228668Y0152649D01*
X0229790Y0152221D01*
X0230900Y0151766D01*
X0231999Y0151284D01*
X0233086Y0150776D01*
X0234161Y0150242D01*
X0235222Y0149681D01*
X0236269Y0149095D01*
X0237302Y0148484D01*
X0238320Y0147848D01*
X0239321Y0147187D01*
X0240307Y0146502D01*
X0241275Y0145794D01*
X0242226Y0145062D01*
X0243159Y0144307D01*
X0244073Y0143530D01*
X0244969Y0142730D01*
X0245844Y0141910D01*
X0246699Y0141068D01*
X0247534Y0140206D01*
X0248347Y0139323D01*
X0249139Y0138421D01*
X0249909Y0137501D01*
X0250656Y0136561D01*
X0252594Y0136561D02*
X0253341Y0137501D01*
X0254111Y0138421D01*
X0254903Y0139323D01*
X0255716Y0140206D01*
X0256551Y0141068D01*
X0257406Y0141910D01*
X0258281Y0142730D01*
X0259177Y0143530D01*
X0260091Y0144307D01*
X0261024Y0145062D01*
X0261975Y0145794D01*
X0262943Y0146502D01*
X0263929Y0147187D01*
X0264930Y0147848D01*
X0265948Y0148484D01*
X0266981Y0149095D01*
X0268028Y0149681D01*
X0269089Y0150242D01*
X0270164Y0150776D01*
X0271251Y0151284D01*
X0272350Y0151766D01*
X0273460Y0152221D01*
X0274582Y0152649D01*
X0275713Y0153049D01*
X0276854Y0153422D01*
X0278003Y0153767D01*
X0279160Y0154084D01*
X0280325Y0154372D01*
X0281497Y0154633D01*
X0282674Y0154864D01*
X0283857Y0155067D01*
X0285044Y0155242D01*
X0286235Y0155387D01*
X0287430Y0155504D01*
X0288627Y0155591D01*
X0289825Y0155649D01*
X0291025Y0155678D01*
X0292225Y0155678D01*
X0293425Y0155649D01*
X0294623Y0155591D01*
X0295820Y0155504D01*
X0297015Y0155387D01*
X0298206Y0155242D01*
X0299393Y0155067D01*
X0300576Y0154864D01*
X0301753Y0154633D01*
X0302925Y0154372D01*
X0304090Y0154084D01*
X0305247Y0153767D01*
X0306396Y0153422D01*
X0307537Y0153049D01*
X0308668Y0152649D01*
X0309790Y0152221D01*
X0310900Y0151766D01*
X0311999Y0151284D01*
X0313086Y0150776D01*
X0314161Y0150242D01*
X0315222Y0149681D01*
X0316269Y0149095D01*
X0317302Y0148484D01*
X0318320Y0147848D01*
X0319321Y0147187D01*
X0320307Y0146502D01*
X0321275Y0145794D01*
X0322226Y0145062D01*
X0323159Y0144307D01*
X0324073Y0143530D01*
X0324969Y0142730D01*
X0325844Y0141910D01*
X0326699Y0141068D01*
X0327534Y0140206D01*
X0328347Y0139323D01*
X0329139Y0138421D01*
X0329909Y0137501D01*
X0330656Y0136561D01*
X0340094Y0136561D02*
X0340841Y0137501D01*
X0341611Y0138421D01*
X0342403Y0139323D01*
X0343216Y0140206D01*
X0344051Y0141068D01*
X0344906Y0141910D01*
X0345781Y0142730D01*
X0346677Y0143530D01*
X0347591Y0144307D01*
X0348524Y0145062D01*
X0349475Y0145794D01*
X0350443Y0146502D01*
X0351429Y0147187D01*
X0352430Y0147848D01*
X0353448Y0148484D01*
X0354481Y0149095D01*
X0355528Y0149681D01*
X0356589Y0150242D01*
X0357664Y0150776D01*
X0358751Y0151284D01*
X0359850Y0151766D01*
X0360960Y0152221D01*
X0362082Y0152649D01*
X0363213Y0153049D01*
X0364354Y0153422D01*
X0365503Y0153767D01*
X0366660Y0154084D01*
X0367825Y0154372D01*
X0368997Y0154633D01*
X0370174Y0154864D01*
X0371357Y0155067D01*
X0372544Y0155242D01*
X0373735Y0155387D01*
X0374930Y0155504D01*
X0376127Y0155591D01*
X0377325Y0155649D01*
X0378525Y0155678D01*
X0379725Y0155678D01*
X0380925Y0155649D01*
X0382123Y0155591D01*
X0383320Y0155504D01*
X0384515Y0155387D01*
X0385706Y0155242D01*
X0386893Y0155067D01*
X0388076Y0154864D01*
X0389253Y0154633D01*
X0390425Y0154372D01*
X0391590Y0154084D01*
X0392747Y0153767D01*
X0393896Y0153422D01*
X0395037Y0153049D01*
X0396168Y0152649D01*
X0397290Y0152221D01*
X0398400Y0151766D01*
X0399499Y0151284D01*
X0400586Y0150776D01*
X0401661Y0150242D01*
X0402722Y0149681D01*
X0403769Y0149095D01*
X0404802Y0148484D01*
X0405820Y0147848D01*
X0406821Y0147187D01*
X0407807Y0146502D01*
X0408775Y0145794D01*
X0409726Y0145062D01*
X0410659Y0144307D01*
X0411573Y0143530D01*
X0412469Y0142730D01*
X0413344Y0141910D01*
X0414199Y0141068D01*
X0415034Y0140206D01*
X0415847Y0139323D01*
X0416639Y0138421D01*
X0417409Y0137501D01*
X0418156Y0136561D01*
X0420094Y0136561D02*
X0420841Y0137501D01*
X0421611Y0138421D01*
X0422403Y0139323D01*
X0423216Y0140206D01*
X0424051Y0141068D01*
X0424906Y0141910D01*
X0425781Y0142730D01*
X0426677Y0143530D01*
X0427591Y0144307D01*
X0428524Y0145062D01*
X0429475Y0145794D01*
X0430443Y0146502D01*
X0431429Y0147187D01*
X0432430Y0147848D01*
X0433448Y0148484D01*
X0434481Y0149095D01*
X0435528Y0149681D01*
X0436589Y0150242D01*
X0437664Y0150776D01*
X0438751Y0151284D01*
X0439850Y0151766D01*
X0440960Y0152221D01*
X0442082Y0152649D01*
X0443213Y0153049D01*
X0444354Y0153422D01*
X0445503Y0153767D01*
X0446660Y0154084D01*
X0447825Y0154372D01*
X0448997Y0154633D01*
X0450174Y0154864D01*
X0451357Y0155067D01*
X0452544Y0155242D01*
X0453735Y0155387D01*
X0454930Y0155504D01*
X0456127Y0155591D01*
X0457325Y0155649D01*
X0458525Y0155678D01*
X0459725Y0155678D01*
X0460925Y0155649D01*
X0462123Y0155591D01*
X0463320Y0155504D01*
X0464515Y0155387D01*
X0465706Y0155242D01*
X0466893Y0155067D01*
X0468076Y0154864D01*
X0469253Y0154633D01*
X0470425Y0154372D01*
X0471590Y0154084D01*
X0472747Y0153767D01*
X0473896Y0153422D01*
X0475037Y0153049D01*
X0476168Y0152649D01*
X0477290Y0152221D01*
X0478400Y0151766D01*
X0479499Y0151284D01*
X0480586Y0150776D01*
X0481661Y0150242D01*
X0482722Y0149681D01*
X0483769Y0149095D01*
X0484802Y0148484D01*
X0485820Y0147848D01*
X0486821Y0147187D01*
X0487807Y0146502D01*
X0488775Y0145794D01*
X0489726Y0145062D01*
X0490659Y0144307D01*
X0491573Y0143530D01*
X0492469Y0142730D01*
X0493344Y0141910D01*
X0494199Y0141068D01*
X0495034Y0140206D01*
X0495847Y0139323D01*
X0496639Y0138421D01*
X0497409Y0137501D01*
X0498156Y0136561D01*
X0083156Y0061689D02*
X0082485Y0060741D01*
X0081792Y0059810D01*
X0081076Y0058896D01*
X0080338Y0058000D01*
X0079579Y0057122D01*
X0078798Y0056263D01*
X0077996Y0055423D01*
X0077174Y0054603D01*
X0076332Y0053804D01*
X0075471Y0053025D01*
X0074591Y0052268D01*
X0073692Y0051533D01*
X0072776Y0050819D01*
X0071843Y0050129D01*
X0070893Y0049461D01*
X0069927Y0048818D01*
X0068945Y0048197D01*
X0067949Y0047602D01*
X0066938Y0047030D01*
X0065914Y0046484D01*
X0064876Y0045963D01*
X0063826Y0045467D01*
X0062764Y0044997D01*
X0061692Y0044554D01*
X0060608Y0044137D01*
X0059515Y0043746D01*
X0058412Y0043383D01*
X0057301Y0043046D01*
X0056182Y0042737D01*
X0055055Y0042456D01*
X0053923Y0042202D01*
X0052784Y0041976D01*
X0051640Y0041778D01*
X0050491Y0041608D01*
X0049339Y0041466D01*
X0048184Y0041352D01*
X0047026Y0041267D01*
X0045866Y0041210D01*
X0044705Y0041182D01*
X0043545Y0041182D01*
X0042384Y0041210D01*
X0041224Y0041267D01*
X0040066Y0041352D01*
X0038911Y0041466D01*
X0037759Y0041608D01*
X0036610Y0041778D01*
X0035466Y0041976D01*
X0034327Y0042202D01*
X0033195Y0042456D01*
X0032068Y0042737D01*
X0030949Y0043046D01*
X0029838Y0043383D01*
X0028735Y0043746D01*
X0027642Y0044137D01*
X0026558Y0044554D01*
X0025486Y0044997D01*
X0024424Y0045467D01*
X0023374Y0045963D01*
X0022336Y0046484D01*
X0021312Y0047030D01*
X0020301Y0047602D01*
X0019305Y0048197D01*
X0018323Y0048818D01*
X0017357Y0049461D01*
X0016407Y0050129D01*
X0015474Y0050819D01*
X0014558Y0051533D01*
X0013659Y0052268D01*
X0012779Y0053025D01*
X0011918Y0053804D01*
X0011076Y0054603D01*
X0010254Y0055423D01*
X0009452Y0056263D01*
X0008671Y0057122D01*
X0007912Y0058000D01*
X0007174Y0058896D01*
X0006458Y0059810D01*
X0005765Y0060741D01*
X0005094Y0061689D01*
D13*
X0049937Y0080783D02*
X0055843Y0074878D01*
X0055843Y0078815D01*
X0129937Y0080783D02*
X0135843Y0074878D01*
X0135843Y0078815D01*
X0217437Y0080783D02*
X0223343Y0074878D01*
X0223343Y0078815D01*
X0297437Y0080783D02*
X0303343Y0074878D01*
X0303343Y0078815D01*
X0384937Y0080783D02*
X0390843Y0074878D01*
X0390843Y0078815D01*
X0464937Y0080783D02*
X0470843Y0074878D01*
X0470843Y0078815D01*
D14*
X0462700Y0028500D03*
X0434300Y0028500D03*
X0377700Y0028500D03*
X0349300Y0028500D03*
X0305200Y0028500D03*
X0276800Y0028500D03*
X0222700Y0028500D03*
X0194300Y0028500D03*
X0140200Y0028500D03*
X0111800Y0028500D03*
X0090200Y0028500D03*
X0061800Y0028500D03*
M02*
