G75*
%MOIN*%
%OFA0B0*%
%FSLAX26Y26*%
%IPPOS*%
%LPD*%
%AMOC8*
5,1,8,0,0,1.08239X$1,22.5*
%
%ADD10C,0.068000*%
%ADD11C,0.108000*%
%ADD12C,0.204850*%
%ADD13OC8,0.060000*%
%ADD14OC8,0.047622*%
D10*
X01100000Y00070000D02*
X01100000Y00130000D01*
X01200000Y00130000D02*
X01200000Y00070000D01*
X01300000Y00070000D02*
X01300000Y00130000D01*
X01550000Y00130000D02*
X01550000Y00070000D01*
X01650000Y00070000D02*
X01650000Y00130000D01*
X01750000Y00130000D02*
X01750000Y00070000D01*
X01850000Y00070000D02*
X01850000Y00130000D01*
X01950000Y00130000D02*
X01950000Y00070000D01*
X02050000Y00070000D02*
X02050000Y00130000D01*
X02150000Y00130000D02*
X02150000Y00070000D01*
X02250000Y00070000D02*
X02250000Y00130000D01*
X02350000Y00130000D02*
X02350000Y00070000D01*
X02450000Y00070000D02*
X02450000Y00130000D01*
X02550000Y00130000D02*
X02550000Y00070000D01*
X02650000Y00070000D02*
X02650000Y00130000D01*
X02750000Y00130000D02*
X02750000Y00070000D01*
X02850000Y00070000D02*
X02850000Y00130000D01*
X02950000Y00130000D02*
X02950000Y00070000D01*
X03050000Y00070000D02*
X03050000Y00130000D01*
X03150000Y00130000D02*
X03150000Y00070000D01*
X03250000Y00070000D02*
X03250000Y00130000D01*
X03350000Y00130000D02*
X03350000Y00070000D01*
X03450000Y00070000D02*
X03450000Y00130000D01*
D11*
X03787500Y00608169D03*
X03630020Y00647539D03*
X03944980Y00647539D03*
X03998720Y00797835D03*
X04363780Y00797835D03*
X04798720Y00797835D03*
X04744980Y00647539D03*
X04587500Y00608169D03*
X04430020Y00647539D03*
X03563780Y00797835D03*
X03123720Y00797835D03*
X03069980Y00647539D03*
X02912500Y00608169D03*
X02755020Y00647539D03*
X02688780Y00797835D03*
X02323720Y00797835D03*
X02269980Y00647539D03*
X02112500Y00608169D03*
X01955020Y00647539D03*
X01888780Y00797835D03*
X01448720Y00797835D03*
X01394980Y00647539D03*
X01237500Y00608169D03*
X01080020Y00647539D03*
X01013780Y00797835D03*
X00648720Y00797835D03*
X00594980Y00647539D03*
X00437500Y00608169D03*
X00280020Y00647539D03*
X00213780Y00797835D03*
X00208780Y00975000D03*
X00653720Y00975000D03*
X01008780Y00975000D03*
X01453720Y00975000D03*
X01883780Y00975000D03*
X02328720Y00975000D03*
X02683780Y00975000D03*
X03128720Y00975000D03*
X03558780Y00975000D03*
X04003720Y00975000D03*
X04358780Y00975000D03*
X04803720Y00975000D03*
X04798720Y01152165D03*
X04363780Y01152165D03*
X03998720Y01152165D03*
X03563780Y01152165D03*
X03630020Y01302461D03*
X03787500Y01341831D03*
X03944980Y01302461D03*
X04430020Y01302461D03*
X04587500Y01341831D03*
X04744980Y01302461D03*
X03123720Y01152165D03*
X03069980Y01302461D03*
X02912500Y01341831D03*
X02755020Y01302461D03*
X02688780Y01152165D03*
X02323720Y01152165D03*
X02269980Y01302461D03*
X02112500Y01341831D03*
X01955020Y01302461D03*
X01888780Y01152165D03*
X01448720Y01152165D03*
X01394980Y01302461D03*
X01237500Y01341831D03*
X01080020Y01302461D03*
X01013780Y01152165D03*
X00648720Y01152165D03*
X00594980Y01302461D03*
X00437500Y01341831D03*
X00280020Y01302461D03*
X00213780Y01152165D03*
D12*
X00450000Y00975000D03*
X01250000Y00975000D03*
X02125000Y00975000D03*
X02925000Y00975000D03*
X03800000Y00975000D03*
X04600000Y00975000D03*
D13*
X00550000Y00275000D03*
X00950000Y00275000D03*
X01050000Y00275000D03*
X01450000Y00275000D03*
X01875000Y00275000D03*
X02275000Y00275000D03*
X02700000Y00275000D03*
X03100000Y00275000D03*
X03425000Y00275000D03*
X03825000Y00275000D03*
X04275000Y00275000D03*
X04675000Y00275000D03*
D14*
X04150000Y00400000D03*
X04100000Y00450000D03*
X04100000Y00525000D03*
X04100000Y00600000D03*
X04250000Y00700000D03*
X03375000Y00725000D03*
X03325000Y00725000D03*
X03275000Y00725000D03*
X03275000Y00625000D03*
X03325000Y00625000D03*
X03375000Y00625000D03*
X03175000Y00600000D03*
X03200000Y00500000D03*
X03300000Y00450000D03*
X03125000Y00400000D03*
X03175000Y00350000D03*
X03025000Y00350000D03*
X03025000Y00500000D03*
X02675000Y00500000D03*
X02450000Y00525000D03*
X02400000Y00675000D03*
X02475000Y00775000D03*
X02425000Y00800000D03*
X02550000Y00825000D03*
X03275000Y00850000D03*
X03325000Y00850000D03*
X03375000Y00850000D03*
X03325000Y01000000D03*
X03275000Y01000000D03*
X03275000Y01200000D03*
X03550000Y01275000D03*
X03325000Y01325000D03*
X04050000Y01375000D03*
X04100000Y01075000D03*
X01750000Y00700000D03*
X01650000Y00700000D03*
X01550000Y00700000D03*
X01550000Y00575000D03*
X01650000Y00575000D03*
X01750000Y00575000D03*
X01750000Y00400000D03*
X01650000Y00400000D03*
X01550000Y00400000D03*
X01475000Y00350000D03*
X01300000Y00275000D03*
X00725000Y00600000D03*
X00775000Y00650000D03*
X00850000Y00650000D03*
X00925000Y00650000D03*
X01600000Y00875000D03*
X01650000Y00925000D03*
X01700000Y00950000D03*
X01625000Y01175000D03*
X01625000Y01275000D03*
X04075000Y00200000D03*
M02*
