G75*
%MOIN*%
%OFA0B0*%
%FSLAX26Y26*%
%IPPOS*%
%LPD*%
%AMOC8*
5,1,8,0,0,1.08239X$1,22.5*
%
%ADD10C,0.000000*%
%ADD11C,0.006000*%
%ADD12C,0.005000*%
%ADD13C,0.010000*%
%ADD14C,0.011811*%
%ADD15C,0.004000*%
%ADD16R,0.034000X0.024000*%
D10*
X00000000Y00000000D02*
X00000000Y01612008D01*
X04999213Y01612008D01*
X04999213Y00000000D01*
X00000000Y00000000D01*
X00351575Y00975000D02*
X00351605Y00977415D01*
X00351694Y00979829D01*
X00351842Y00982241D01*
X00352049Y00984647D01*
X00352315Y00987048D01*
X00352640Y00989442D01*
X00353024Y00991827D01*
X00353466Y00994202D01*
X00353967Y00996565D01*
X00354525Y00998915D01*
X00355140Y01001251D01*
X00355813Y01003571D01*
X00356543Y01005874D01*
X00357329Y01008158D01*
X00358170Y01010423D01*
X00359067Y01012666D01*
X00360019Y01014886D01*
X00361025Y01017082D01*
X00362084Y01019253D01*
X00363197Y01021397D01*
X00364362Y01023514D01*
X00365578Y01025601D01*
X00366845Y01027657D01*
X00368163Y01029682D01*
X00369529Y01031674D01*
X00370944Y01033632D01*
X00372407Y01035554D01*
X00373916Y01037440D01*
X00375472Y01039289D01*
X00377072Y01041098D01*
X00378716Y01042868D01*
X00380403Y01044597D01*
X00382132Y01046284D01*
X00383902Y01047928D01*
X00385711Y01049528D01*
X00387560Y01051084D01*
X00389446Y01052593D01*
X00391368Y01054056D01*
X00393326Y01055471D01*
X00395318Y01056837D01*
X00397343Y01058155D01*
X00399399Y01059422D01*
X00401486Y01060638D01*
X00403603Y01061803D01*
X00405747Y01062916D01*
X00407918Y01063975D01*
X00410114Y01064981D01*
X00412334Y01065933D01*
X00414577Y01066830D01*
X00416842Y01067671D01*
X00419126Y01068457D01*
X00421429Y01069187D01*
X00423749Y01069860D01*
X00426085Y01070475D01*
X00428435Y01071033D01*
X00430798Y01071534D01*
X00433173Y01071976D01*
X00435558Y01072360D01*
X00437952Y01072685D01*
X00440353Y01072951D01*
X00442759Y01073158D01*
X00445171Y01073306D01*
X00447585Y01073395D01*
X00450000Y01073425D01*
X00452415Y01073395D01*
X00454829Y01073306D01*
X00457241Y01073158D01*
X00459647Y01072951D01*
X00462048Y01072685D01*
X00464442Y01072360D01*
X00466827Y01071976D01*
X00469202Y01071534D01*
X00471565Y01071033D01*
X00473915Y01070475D01*
X00476251Y01069860D01*
X00478571Y01069187D01*
X00480874Y01068457D01*
X00483158Y01067671D01*
X00485423Y01066830D01*
X00487666Y01065933D01*
X00489886Y01064981D01*
X00492082Y01063975D01*
X00494253Y01062916D01*
X00496397Y01061803D01*
X00498514Y01060638D01*
X00500601Y01059422D01*
X00502657Y01058155D01*
X00504682Y01056837D01*
X00506674Y01055471D01*
X00508632Y01054056D01*
X00510554Y01052593D01*
X00512440Y01051084D01*
X00514289Y01049528D01*
X00516098Y01047928D01*
X00517868Y01046284D01*
X00519597Y01044597D01*
X00521284Y01042868D01*
X00522928Y01041098D01*
X00524528Y01039289D01*
X00526084Y01037440D01*
X00527593Y01035554D01*
X00529056Y01033632D01*
X00530471Y01031674D01*
X00531837Y01029682D01*
X00533155Y01027657D01*
X00534422Y01025601D01*
X00535638Y01023514D01*
X00536803Y01021397D01*
X00537916Y01019253D01*
X00538975Y01017082D01*
X00539981Y01014886D01*
X00540933Y01012666D01*
X00541830Y01010423D01*
X00542671Y01008158D01*
X00543457Y01005874D01*
X00544187Y01003571D01*
X00544860Y01001251D01*
X00545475Y00998915D01*
X00546033Y00996565D01*
X00546534Y00994202D01*
X00546976Y00991827D01*
X00547360Y00989442D01*
X00547685Y00987048D01*
X00547951Y00984647D01*
X00548158Y00982241D01*
X00548306Y00979829D01*
X00548395Y00977415D01*
X00548425Y00975000D01*
X00548395Y00972585D01*
X00548306Y00970171D01*
X00548158Y00967759D01*
X00547951Y00965353D01*
X00547685Y00962952D01*
X00547360Y00960558D01*
X00546976Y00958173D01*
X00546534Y00955798D01*
X00546033Y00953435D01*
X00545475Y00951085D01*
X00544860Y00948749D01*
X00544187Y00946429D01*
X00543457Y00944126D01*
X00542671Y00941842D01*
X00541830Y00939577D01*
X00540933Y00937334D01*
X00539981Y00935114D01*
X00538975Y00932918D01*
X00537916Y00930747D01*
X00536803Y00928603D01*
X00535638Y00926486D01*
X00534422Y00924399D01*
X00533155Y00922343D01*
X00531837Y00920318D01*
X00530471Y00918326D01*
X00529056Y00916368D01*
X00527593Y00914446D01*
X00526084Y00912560D01*
X00524528Y00910711D01*
X00522928Y00908902D01*
X00521284Y00907132D01*
X00519597Y00905403D01*
X00517868Y00903716D01*
X00516098Y00902072D01*
X00514289Y00900472D01*
X00512440Y00898916D01*
X00510554Y00897407D01*
X00508632Y00895944D01*
X00506674Y00894529D01*
X00504682Y00893163D01*
X00502657Y00891845D01*
X00500601Y00890578D01*
X00498514Y00889362D01*
X00496397Y00888197D01*
X00494253Y00887084D01*
X00492082Y00886025D01*
X00489886Y00885019D01*
X00487666Y00884067D01*
X00485423Y00883170D01*
X00483158Y00882329D01*
X00480874Y00881543D01*
X00478571Y00880813D01*
X00476251Y00880140D01*
X00473915Y00879525D01*
X00471565Y00878967D01*
X00469202Y00878466D01*
X00466827Y00878024D01*
X00464442Y00877640D01*
X00462048Y00877315D01*
X00459647Y00877049D01*
X00457241Y00876842D01*
X00454829Y00876694D01*
X00452415Y00876605D01*
X00450000Y00876575D01*
X00447585Y00876605D01*
X00445171Y00876694D01*
X00442759Y00876842D01*
X00440353Y00877049D01*
X00437952Y00877315D01*
X00435558Y00877640D01*
X00433173Y00878024D01*
X00430798Y00878466D01*
X00428435Y00878967D01*
X00426085Y00879525D01*
X00423749Y00880140D01*
X00421429Y00880813D01*
X00419126Y00881543D01*
X00416842Y00882329D01*
X00414577Y00883170D01*
X00412334Y00884067D01*
X00410114Y00885019D01*
X00407918Y00886025D01*
X00405747Y00887084D01*
X00403603Y00888197D01*
X00401486Y00889362D01*
X00399399Y00890578D01*
X00397343Y00891845D01*
X00395318Y00893163D01*
X00393326Y00894529D01*
X00391368Y00895944D01*
X00389446Y00897407D01*
X00387560Y00898916D01*
X00385711Y00900472D01*
X00383902Y00902072D01*
X00382132Y00903716D01*
X00380403Y00905403D01*
X00378716Y00907132D01*
X00377072Y00908902D01*
X00375472Y00910711D01*
X00373916Y00912560D01*
X00372407Y00914446D01*
X00370944Y00916368D01*
X00369529Y00918326D01*
X00368163Y00920318D01*
X00366845Y00922343D01*
X00365578Y00924399D01*
X00364362Y00926486D01*
X00363197Y00928603D01*
X00362084Y00930747D01*
X00361025Y00932918D01*
X00360019Y00935114D01*
X00359067Y00937334D01*
X00358170Y00939577D01*
X00357329Y00941842D01*
X00356543Y00944126D01*
X00355813Y00946429D01*
X00355140Y00948749D01*
X00354525Y00951085D01*
X00353967Y00953435D01*
X00353466Y00955798D01*
X00353024Y00958173D01*
X00352640Y00960558D01*
X00352315Y00962952D01*
X00352049Y00965353D01*
X00351842Y00967759D01*
X00351694Y00970171D01*
X00351605Y00972585D01*
X00351575Y00975000D01*
X01151575Y00975000D02*
X01151605Y00977415D01*
X01151694Y00979829D01*
X01151842Y00982241D01*
X01152049Y00984647D01*
X01152315Y00987048D01*
X01152640Y00989442D01*
X01153024Y00991827D01*
X01153466Y00994202D01*
X01153967Y00996565D01*
X01154525Y00998915D01*
X01155140Y01001251D01*
X01155813Y01003571D01*
X01156543Y01005874D01*
X01157329Y01008158D01*
X01158170Y01010423D01*
X01159067Y01012666D01*
X01160019Y01014886D01*
X01161025Y01017082D01*
X01162084Y01019253D01*
X01163197Y01021397D01*
X01164362Y01023514D01*
X01165578Y01025601D01*
X01166845Y01027657D01*
X01168163Y01029682D01*
X01169529Y01031674D01*
X01170944Y01033632D01*
X01172407Y01035554D01*
X01173916Y01037440D01*
X01175472Y01039289D01*
X01177072Y01041098D01*
X01178716Y01042868D01*
X01180403Y01044597D01*
X01182132Y01046284D01*
X01183902Y01047928D01*
X01185711Y01049528D01*
X01187560Y01051084D01*
X01189446Y01052593D01*
X01191368Y01054056D01*
X01193326Y01055471D01*
X01195318Y01056837D01*
X01197343Y01058155D01*
X01199399Y01059422D01*
X01201486Y01060638D01*
X01203603Y01061803D01*
X01205747Y01062916D01*
X01207918Y01063975D01*
X01210114Y01064981D01*
X01212334Y01065933D01*
X01214577Y01066830D01*
X01216842Y01067671D01*
X01219126Y01068457D01*
X01221429Y01069187D01*
X01223749Y01069860D01*
X01226085Y01070475D01*
X01228435Y01071033D01*
X01230798Y01071534D01*
X01233173Y01071976D01*
X01235558Y01072360D01*
X01237952Y01072685D01*
X01240353Y01072951D01*
X01242759Y01073158D01*
X01245171Y01073306D01*
X01247585Y01073395D01*
X01250000Y01073425D01*
X01252415Y01073395D01*
X01254829Y01073306D01*
X01257241Y01073158D01*
X01259647Y01072951D01*
X01262048Y01072685D01*
X01264442Y01072360D01*
X01266827Y01071976D01*
X01269202Y01071534D01*
X01271565Y01071033D01*
X01273915Y01070475D01*
X01276251Y01069860D01*
X01278571Y01069187D01*
X01280874Y01068457D01*
X01283158Y01067671D01*
X01285423Y01066830D01*
X01287666Y01065933D01*
X01289886Y01064981D01*
X01292082Y01063975D01*
X01294253Y01062916D01*
X01296397Y01061803D01*
X01298514Y01060638D01*
X01300601Y01059422D01*
X01302657Y01058155D01*
X01304682Y01056837D01*
X01306674Y01055471D01*
X01308632Y01054056D01*
X01310554Y01052593D01*
X01312440Y01051084D01*
X01314289Y01049528D01*
X01316098Y01047928D01*
X01317868Y01046284D01*
X01319597Y01044597D01*
X01321284Y01042868D01*
X01322928Y01041098D01*
X01324528Y01039289D01*
X01326084Y01037440D01*
X01327593Y01035554D01*
X01329056Y01033632D01*
X01330471Y01031674D01*
X01331837Y01029682D01*
X01333155Y01027657D01*
X01334422Y01025601D01*
X01335638Y01023514D01*
X01336803Y01021397D01*
X01337916Y01019253D01*
X01338975Y01017082D01*
X01339981Y01014886D01*
X01340933Y01012666D01*
X01341830Y01010423D01*
X01342671Y01008158D01*
X01343457Y01005874D01*
X01344187Y01003571D01*
X01344860Y01001251D01*
X01345475Y00998915D01*
X01346033Y00996565D01*
X01346534Y00994202D01*
X01346976Y00991827D01*
X01347360Y00989442D01*
X01347685Y00987048D01*
X01347951Y00984647D01*
X01348158Y00982241D01*
X01348306Y00979829D01*
X01348395Y00977415D01*
X01348425Y00975000D01*
X01348395Y00972585D01*
X01348306Y00970171D01*
X01348158Y00967759D01*
X01347951Y00965353D01*
X01347685Y00962952D01*
X01347360Y00960558D01*
X01346976Y00958173D01*
X01346534Y00955798D01*
X01346033Y00953435D01*
X01345475Y00951085D01*
X01344860Y00948749D01*
X01344187Y00946429D01*
X01343457Y00944126D01*
X01342671Y00941842D01*
X01341830Y00939577D01*
X01340933Y00937334D01*
X01339981Y00935114D01*
X01338975Y00932918D01*
X01337916Y00930747D01*
X01336803Y00928603D01*
X01335638Y00926486D01*
X01334422Y00924399D01*
X01333155Y00922343D01*
X01331837Y00920318D01*
X01330471Y00918326D01*
X01329056Y00916368D01*
X01327593Y00914446D01*
X01326084Y00912560D01*
X01324528Y00910711D01*
X01322928Y00908902D01*
X01321284Y00907132D01*
X01319597Y00905403D01*
X01317868Y00903716D01*
X01316098Y00902072D01*
X01314289Y00900472D01*
X01312440Y00898916D01*
X01310554Y00897407D01*
X01308632Y00895944D01*
X01306674Y00894529D01*
X01304682Y00893163D01*
X01302657Y00891845D01*
X01300601Y00890578D01*
X01298514Y00889362D01*
X01296397Y00888197D01*
X01294253Y00887084D01*
X01292082Y00886025D01*
X01289886Y00885019D01*
X01287666Y00884067D01*
X01285423Y00883170D01*
X01283158Y00882329D01*
X01280874Y00881543D01*
X01278571Y00880813D01*
X01276251Y00880140D01*
X01273915Y00879525D01*
X01271565Y00878967D01*
X01269202Y00878466D01*
X01266827Y00878024D01*
X01264442Y00877640D01*
X01262048Y00877315D01*
X01259647Y00877049D01*
X01257241Y00876842D01*
X01254829Y00876694D01*
X01252415Y00876605D01*
X01250000Y00876575D01*
X01247585Y00876605D01*
X01245171Y00876694D01*
X01242759Y00876842D01*
X01240353Y00877049D01*
X01237952Y00877315D01*
X01235558Y00877640D01*
X01233173Y00878024D01*
X01230798Y00878466D01*
X01228435Y00878967D01*
X01226085Y00879525D01*
X01223749Y00880140D01*
X01221429Y00880813D01*
X01219126Y00881543D01*
X01216842Y00882329D01*
X01214577Y00883170D01*
X01212334Y00884067D01*
X01210114Y00885019D01*
X01207918Y00886025D01*
X01205747Y00887084D01*
X01203603Y00888197D01*
X01201486Y00889362D01*
X01199399Y00890578D01*
X01197343Y00891845D01*
X01195318Y00893163D01*
X01193326Y00894529D01*
X01191368Y00895944D01*
X01189446Y00897407D01*
X01187560Y00898916D01*
X01185711Y00900472D01*
X01183902Y00902072D01*
X01182132Y00903716D01*
X01180403Y00905403D01*
X01178716Y00907132D01*
X01177072Y00908902D01*
X01175472Y00910711D01*
X01173916Y00912560D01*
X01172407Y00914446D01*
X01170944Y00916368D01*
X01169529Y00918326D01*
X01168163Y00920318D01*
X01166845Y00922343D01*
X01165578Y00924399D01*
X01164362Y00926486D01*
X01163197Y00928603D01*
X01162084Y00930747D01*
X01161025Y00932918D01*
X01160019Y00935114D01*
X01159067Y00937334D01*
X01158170Y00939577D01*
X01157329Y00941842D01*
X01156543Y00944126D01*
X01155813Y00946429D01*
X01155140Y00948749D01*
X01154525Y00951085D01*
X01153967Y00953435D01*
X01153466Y00955798D01*
X01153024Y00958173D01*
X01152640Y00960558D01*
X01152315Y00962952D01*
X01152049Y00965353D01*
X01151842Y00967759D01*
X01151694Y00970171D01*
X01151605Y00972585D01*
X01151575Y00975000D01*
X02026575Y00975000D02*
X02026605Y00977415D01*
X02026694Y00979829D01*
X02026842Y00982241D01*
X02027049Y00984647D01*
X02027315Y00987048D01*
X02027640Y00989442D01*
X02028024Y00991827D01*
X02028466Y00994202D01*
X02028967Y00996565D01*
X02029525Y00998915D01*
X02030140Y01001251D01*
X02030813Y01003571D01*
X02031543Y01005874D01*
X02032329Y01008158D01*
X02033170Y01010423D01*
X02034067Y01012666D01*
X02035019Y01014886D01*
X02036025Y01017082D01*
X02037084Y01019253D01*
X02038197Y01021397D01*
X02039362Y01023514D01*
X02040578Y01025601D01*
X02041845Y01027657D01*
X02043163Y01029682D01*
X02044529Y01031674D01*
X02045944Y01033632D01*
X02047407Y01035554D01*
X02048916Y01037440D01*
X02050472Y01039289D01*
X02052072Y01041098D01*
X02053716Y01042868D01*
X02055403Y01044597D01*
X02057132Y01046284D01*
X02058902Y01047928D01*
X02060711Y01049528D01*
X02062560Y01051084D01*
X02064446Y01052593D01*
X02066368Y01054056D01*
X02068326Y01055471D01*
X02070318Y01056837D01*
X02072343Y01058155D01*
X02074399Y01059422D01*
X02076486Y01060638D01*
X02078603Y01061803D01*
X02080747Y01062916D01*
X02082918Y01063975D01*
X02085114Y01064981D01*
X02087334Y01065933D01*
X02089577Y01066830D01*
X02091842Y01067671D01*
X02094126Y01068457D01*
X02096429Y01069187D01*
X02098749Y01069860D01*
X02101085Y01070475D01*
X02103435Y01071033D01*
X02105798Y01071534D01*
X02108173Y01071976D01*
X02110558Y01072360D01*
X02112952Y01072685D01*
X02115353Y01072951D01*
X02117759Y01073158D01*
X02120171Y01073306D01*
X02122585Y01073395D01*
X02125000Y01073425D01*
X02127415Y01073395D01*
X02129829Y01073306D01*
X02132241Y01073158D01*
X02134647Y01072951D01*
X02137048Y01072685D01*
X02139442Y01072360D01*
X02141827Y01071976D01*
X02144202Y01071534D01*
X02146565Y01071033D01*
X02148915Y01070475D01*
X02151251Y01069860D01*
X02153571Y01069187D01*
X02155874Y01068457D01*
X02158158Y01067671D01*
X02160423Y01066830D01*
X02162666Y01065933D01*
X02164886Y01064981D01*
X02167082Y01063975D01*
X02169253Y01062916D01*
X02171397Y01061803D01*
X02173514Y01060638D01*
X02175601Y01059422D01*
X02177657Y01058155D01*
X02179682Y01056837D01*
X02181674Y01055471D01*
X02183632Y01054056D01*
X02185554Y01052593D01*
X02187440Y01051084D01*
X02189289Y01049528D01*
X02191098Y01047928D01*
X02192868Y01046284D01*
X02194597Y01044597D01*
X02196284Y01042868D01*
X02197928Y01041098D01*
X02199528Y01039289D01*
X02201084Y01037440D01*
X02202593Y01035554D01*
X02204056Y01033632D01*
X02205471Y01031674D01*
X02206837Y01029682D01*
X02208155Y01027657D01*
X02209422Y01025601D01*
X02210638Y01023514D01*
X02211803Y01021397D01*
X02212916Y01019253D01*
X02213975Y01017082D01*
X02214981Y01014886D01*
X02215933Y01012666D01*
X02216830Y01010423D01*
X02217671Y01008158D01*
X02218457Y01005874D01*
X02219187Y01003571D01*
X02219860Y01001251D01*
X02220475Y00998915D01*
X02221033Y00996565D01*
X02221534Y00994202D01*
X02221976Y00991827D01*
X02222360Y00989442D01*
X02222685Y00987048D01*
X02222951Y00984647D01*
X02223158Y00982241D01*
X02223306Y00979829D01*
X02223395Y00977415D01*
X02223425Y00975000D01*
X02223395Y00972585D01*
X02223306Y00970171D01*
X02223158Y00967759D01*
X02222951Y00965353D01*
X02222685Y00962952D01*
X02222360Y00960558D01*
X02221976Y00958173D01*
X02221534Y00955798D01*
X02221033Y00953435D01*
X02220475Y00951085D01*
X02219860Y00948749D01*
X02219187Y00946429D01*
X02218457Y00944126D01*
X02217671Y00941842D01*
X02216830Y00939577D01*
X02215933Y00937334D01*
X02214981Y00935114D01*
X02213975Y00932918D01*
X02212916Y00930747D01*
X02211803Y00928603D01*
X02210638Y00926486D01*
X02209422Y00924399D01*
X02208155Y00922343D01*
X02206837Y00920318D01*
X02205471Y00918326D01*
X02204056Y00916368D01*
X02202593Y00914446D01*
X02201084Y00912560D01*
X02199528Y00910711D01*
X02197928Y00908902D01*
X02196284Y00907132D01*
X02194597Y00905403D01*
X02192868Y00903716D01*
X02191098Y00902072D01*
X02189289Y00900472D01*
X02187440Y00898916D01*
X02185554Y00897407D01*
X02183632Y00895944D01*
X02181674Y00894529D01*
X02179682Y00893163D01*
X02177657Y00891845D01*
X02175601Y00890578D01*
X02173514Y00889362D01*
X02171397Y00888197D01*
X02169253Y00887084D01*
X02167082Y00886025D01*
X02164886Y00885019D01*
X02162666Y00884067D01*
X02160423Y00883170D01*
X02158158Y00882329D01*
X02155874Y00881543D01*
X02153571Y00880813D01*
X02151251Y00880140D01*
X02148915Y00879525D01*
X02146565Y00878967D01*
X02144202Y00878466D01*
X02141827Y00878024D01*
X02139442Y00877640D01*
X02137048Y00877315D01*
X02134647Y00877049D01*
X02132241Y00876842D01*
X02129829Y00876694D01*
X02127415Y00876605D01*
X02125000Y00876575D01*
X02122585Y00876605D01*
X02120171Y00876694D01*
X02117759Y00876842D01*
X02115353Y00877049D01*
X02112952Y00877315D01*
X02110558Y00877640D01*
X02108173Y00878024D01*
X02105798Y00878466D01*
X02103435Y00878967D01*
X02101085Y00879525D01*
X02098749Y00880140D01*
X02096429Y00880813D01*
X02094126Y00881543D01*
X02091842Y00882329D01*
X02089577Y00883170D01*
X02087334Y00884067D01*
X02085114Y00885019D01*
X02082918Y00886025D01*
X02080747Y00887084D01*
X02078603Y00888197D01*
X02076486Y00889362D01*
X02074399Y00890578D01*
X02072343Y00891845D01*
X02070318Y00893163D01*
X02068326Y00894529D01*
X02066368Y00895944D01*
X02064446Y00897407D01*
X02062560Y00898916D01*
X02060711Y00900472D01*
X02058902Y00902072D01*
X02057132Y00903716D01*
X02055403Y00905403D01*
X02053716Y00907132D01*
X02052072Y00908902D01*
X02050472Y00910711D01*
X02048916Y00912560D01*
X02047407Y00914446D01*
X02045944Y00916368D01*
X02044529Y00918326D01*
X02043163Y00920318D01*
X02041845Y00922343D01*
X02040578Y00924399D01*
X02039362Y00926486D01*
X02038197Y00928603D01*
X02037084Y00930747D01*
X02036025Y00932918D01*
X02035019Y00935114D01*
X02034067Y00937334D01*
X02033170Y00939577D01*
X02032329Y00941842D01*
X02031543Y00944126D01*
X02030813Y00946429D01*
X02030140Y00948749D01*
X02029525Y00951085D01*
X02028967Y00953435D01*
X02028466Y00955798D01*
X02028024Y00958173D01*
X02027640Y00960558D01*
X02027315Y00962952D01*
X02027049Y00965353D01*
X02026842Y00967759D01*
X02026694Y00970171D01*
X02026605Y00972585D01*
X02026575Y00975000D01*
X02826575Y00975000D02*
X02826605Y00977415D01*
X02826694Y00979829D01*
X02826842Y00982241D01*
X02827049Y00984647D01*
X02827315Y00987048D01*
X02827640Y00989442D01*
X02828024Y00991827D01*
X02828466Y00994202D01*
X02828967Y00996565D01*
X02829525Y00998915D01*
X02830140Y01001251D01*
X02830813Y01003571D01*
X02831543Y01005874D01*
X02832329Y01008158D01*
X02833170Y01010423D01*
X02834067Y01012666D01*
X02835019Y01014886D01*
X02836025Y01017082D01*
X02837084Y01019253D01*
X02838197Y01021397D01*
X02839362Y01023514D01*
X02840578Y01025601D01*
X02841845Y01027657D01*
X02843163Y01029682D01*
X02844529Y01031674D01*
X02845944Y01033632D01*
X02847407Y01035554D01*
X02848916Y01037440D01*
X02850472Y01039289D01*
X02852072Y01041098D01*
X02853716Y01042868D01*
X02855403Y01044597D01*
X02857132Y01046284D01*
X02858902Y01047928D01*
X02860711Y01049528D01*
X02862560Y01051084D01*
X02864446Y01052593D01*
X02866368Y01054056D01*
X02868326Y01055471D01*
X02870318Y01056837D01*
X02872343Y01058155D01*
X02874399Y01059422D01*
X02876486Y01060638D01*
X02878603Y01061803D01*
X02880747Y01062916D01*
X02882918Y01063975D01*
X02885114Y01064981D01*
X02887334Y01065933D01*
X02889577Y01066830D01*
X02891842Y01067671D01*
X02894126Y01068457D01*
X02896429Y01069187D01*
X02898749Y01069860D01*
X02901085Y01070475D01*
X02903435Y01071033D01*
X02905798Y01071534D01*
X02908173Y01071976D01*
X02910558Y01072360D01*
X02912952Y01072685D01*
X02915353Y01072951D01*
X02917759Y01073158D01*
X02920171Y01073306D01*
X02922585Y01073395D01*
X02925000Y01073425D01*
X02927415Y01073395D01*
X02929829Y01073306D01*
X02932241Y01073158D01*
X02934647Y01072951D01*
X02937048Y01072685D01*
X02939442Y01072360D01*
X02941827Y01071976D01*
X02944202Y01071534D01*
X02946565Y01071033D01*
X02948915Y01070475D01*
X02951251Y01069860D01*
X02953571Y01069187D01*
X02955874Y01068457D01*
X02958158Y01067671D01*
X02960423Y01066830D01*
X02962666Y01065933D01*
X02964886Y01064981D01*
X02967082Y01063975D01*
X02969253Y01062916D01*
X02971397Y01061803D01*
X02973514Y01060638D01*
X02975601Y01059422D01*
X02977657Y01058155D01*
X02979682Y01056837D01*
X02981674Y01055471D01*
X02983632Y01054056D01*
X02985554Y01052593D01*
X02987440Y01051084D01*
X02989289Y01049528D01*
X02991098Y01047928D01*
X02992868Y01046284D01*
X02994597Y01044597D01*
X02996284Y01042868D01*
X02997928Y01041098D01*
X02999528Y01039289D01*
X03001084Y01037440D01*
X03002593Y01035554D01*
X03004056Y01033632D01*
X03005471Y01031674D01*
X03006837Y01029682D01*
X03008155Y01027657D01*
X03009422Y01025601D01*
X03010638Y01023514D01*
X03011803Y01021397D01*
X03012916Y01019253D01*
X03013975Y01017082D01*
X03014981Y01014886D01*
X03015933Y01012666D01*
X03016830Y01010423D01*
X03017671Y01008158D01*
X03018457Y01005874D01*
X03019187Y01003571D01*
X03019860Y01001251D01*
X03020475Y00998915D01*
X03021033Y00996565D01*
X03021534Y00994202D01*
X03021976Y00991827D01*
X03022360Y00989442D01*
X03022685Y00987048D01*
X03022951Y00984647D01*
X03023158Y00982241D01*
X03023306Y00979829D01*
X03023395Y00977415D01*
X03023425Y00975000D01*
X03023395Y00972585D01*
X03023306Y00970171D01*
X03023158Y00967759D01*
X03022951Y00965353D01*
X03022685Y00962952D01*
X03022360Y00960558D01*
X03021976Y00958173D01*
X03021534Y00955798D01*
X03021033Y00953435D01*
X03020475Y00951085D01*
X03019860Y00948749D01*
X03019187Y00946429D01*
X03018457Y00944126D01*
X03017671Y00941842D01*
X03016830Y00939577D01*
X03015933Y00937334D01*
X03014981Y00935114D01*
X03013975Y00932918D01*
X03012916Y00930747D01*
X03011803Y00928603D01*
X03010638Y00926486D01*
X03009422Y00924399D01*
X03008155Y00922343D01*
X03006837Y00920318D01*
X03005471Y00918326D01*
X03004056Y00916368D01*
X03002593Y00914446D01*
X03001084Y00912560D01*
X02999528Y00910711D01*
X02997928Y00908902D01*
X02996284Y00907132D01*
X02994597Y00905403D01*
X02992868Y00903716D01*
X02991098Y00902072D01*
X02989289Y00900472D01*
X02987440Y00898916D01*
X02985554Y00897407D01*
X02983632Y00895944D01*
X02981674Y00894529D01*
X02979682Y00893163D01*
X02977657Y00891845D01*
X02975601Y00890578D01*
X02973514Y00889362D01*
X02971397Y00888197D01*
X02969253Y00887084D01*
X02967082Y00886025D01*
X02964886Y00885019D01*
X02962666Y00884067D01*
X02960423Y00883170D01*
X02958158Y00882329D01*
X02955874Y00881543D01*
X02953571Y00880813D01*
X02951251Y00880140D01*
X02948915Y00879525D01*
X02946565Y00878967D01*
X02944202Y00878466D01*
X02941827Y00878024D01*
X02939442Y00877640D01*
X02937048Y00877315D01*
X02934647Y00877049D01*
X02932241Y00876842D01*
X02929829Y00876694D01*
X02927415Y00876605D01*
X02925000Y00876575D01*
X02922585Y00876605D01*
X02920171Y00876694D01*
X02917759Y00876842D01*
X02915353Y00877049D01*
X02912952Y00877315D01*
X02910558Y00877640D01*
X02908173Y00878024D01*
X02905798Y00878466D01*
X02903435Y00878967D01*
X02901085Y00879525D01*
X02898749Y00880140D01*
X02896429Y00880813D01*
X02894126Y00881543D01*
X02891842Y00882329D01*
X02889577Y00883170D01*
X02887334Y00884067D01*
X02885114Y00885019D01*
X02882918Y00886025D01*
X02880747Y00887084D01*
X02878603Y00888197D01*
X02876486Y00889362D01*
X02874399Y00890578D01*
X02872343Y00891845D01*
X02870318Y00893163D01*
X02868326Y00894529D01*
X02866368Y00895944D01*
X02864446Y00897407D01*
X02862560Y00898916D01*
X02860711Y00900472D01*
X02858902Y00902072D01*
X02857132Y00903716D01*
X02855403Y00905403D01*
X02853716Y00907132D01*
X02852072Y00908902D01*
X02850472Y00910711D01*
X02848916Y00912560D01*
X02847407Y00914446D01*
X02845944Y00916368D01*
X02844529Y00918326D01*
X02843163Y00920318D01*
X02841845Y00922343D01*
X02840578Y00924399D01*
X02839362Y00926486D01*
X02838197Y00928603D01*
X02837084Y00930747D01*
X02836025Y00932918D01*
X02835019Y00935114D01*
X02834067Y00937334D01*
X02833170Y00939577D01*
X02832329Y00941842D01*
X02831543Y00944126D01*
X02830813Y00946429D01*
X02830140Y00948749D01*
X02829525Y00951085D01*
X02828967Y00953435D01*
X02828466Y00955798D01*
X02828024Y00958173D01*
X02827640Y00960558D01*
X02827315Y00962952D01*
X02827049Y00965353D01*
X02826842Y00967759D01*
X02826694Y00970171D01*
X02826605Y00972585D01*
X02826575Y00975000D01*
X03701575Y00975000D02*
X03701605Y00977415D01*
X03701694Y00979829D01*
X03701842Y00982241D01*
X03702049Y00984647D01*
X03702315Y00987048D01*
X03702640Y00989442D01*
X03703024Y00991827D01*
X03703466Y00994202D01*
X03703967Y00996565D01*
X03704525Y00998915D01*
X03705140Y01001251D01*
X03705813Y01003571D01*
X03706543Y01005874D01*
X03707329Y01008158D01*
X03708170Y01010423D01*
X03709067Y01012666D01*
X03710019Y01014886D01*
X03711025Y01017082D01*
X03712084Y01019253D01*
X03713197Y01021397D01*
X03714362Y01023514D01*
X03715578Y01025601D01*
X03716845Y01027657D01*
X03718163Y01029682D01*
X03719529Y01031674D01*
X03720944Y01033632D01*
X03722407Y01035554D01*
X03723916Y01037440D01*
X03725472Y01039289D01*
X03727072Y01041098D01*
X03728716Y01042868D01*
X03730403Y01044597D01*
X03732132Y01046284D01*
X03733902Y01047928D01*
X03735711Y01049528D01*
X03737560Y01051084D01*
X03739446Y01052593D01*
X03741368Y01054056D01*
X03743326Y01055471D01*
X03745318Y01056837D01*
X03747343Y01058155D01*
X03749399Y01059422D01*
X03751486Y01060638D01*
X03753603Y01061803D01*
X03755747Y01062916D01*
X03757918Y01063975D01*
X03760114Y01064981D01*
X03762334Y01065933D01*
X03764577Y01066830D01*
X03766842Y01067671D01*
X03769126Y01068457D01*
X03771429Y01069187D01*
X03773749Y01069860D01*
X03776085Y01070475D01*
X03778435Y01071033D01*
X03780798Y01071534D01*
X03783173Y01071976D01*
X03785558Y01072360D01*
X03787952Y01072685D01*
X03790353Y01072951D01*
X03792759Y01073158D01*
X03795171Y01073306D01*
X03797585Y01073395D01*
X03800000Y01073425D01*
X03802415Y01073395D01*
X03804829Y01073306D01*
X03807241Y01073158D01*
X03809647Y01072951D01*
X03812048Y01072685D01*
X03814442Y01072360D01*
X03816827Y01071976D01*
X03819202Y01071534D01*
X03821565Y01071033D01*
X03823915Y01070475D01*
X03826251Y01069860D01*
X03828571Y01069187D01*
X03830874Y01068457D01*
X03833158Y01067671D01*
X03835423Y01066830D01*
X03837666Y01065933D01*
X03839886Y01064981D01*
X03842082Y01063975D01*
X03844253Y01062916D01*
X03846397Y01061803D01*
X03848514Y01060638D01*
X03850601Y01059422D01*
X03852657Y01058155D01*
X03854682Y01056837D01*
X03856674Y01055471D01*
X03858632Y01054056D01*
X03860554Y01052593D01*
X03862440Y01051084D01*
X03864289Y01049528D01*
X03866098Y01047928D01*
X03867868Y01046284D01*
X03869597Y01044597D01*
X03871284Y01042868D01*
X03872928Y01041098D01*
X03874528Y01039289D01*
X03876084Y01037440D01*
X03877593Y01035554D01*
X03879056Y01033632D01*
X03880471Y01031674D01*
X03881837Y01029682D01*
X03883155Y01027657D01*
X03884422Y01025601D01*
X03885638Y01023514D01*
X03886803Y01021397D01*
X03887916Y01019253D01*
X03888975Y01017082D01*
X03889981Y01014886D01*
X03890933Y01012666D01*
X03891830Y01010423D01*
X03892671Y01008158D01*
X03893457Y01005874D01*
X03894187Y01003571D01*
X03894860Y01001251D01*
X03895475Y00998915D01*
X03896033Y00996565D01*
X03896534Y00994202D01*
X03896976Y00991827D01*
X03897360Y00989442D01*
X03897685Y00987048D01*
X03897951Y00984647D01*
X03898158Y00982241D01*
X03898306Y00979829D01*
X03898395Y00977415D01*
X03898425Y00975000D01*
X03898395Y00972585D01*
X03898306Y00970171D01*
X03898158Y00967759D01*
X03897951Y00965353D01*
X03897685Y00962952D01*
X03897360Y00960558D01*
X03896976Y00958173D01*
X03896534Y00955798D01*
X03896033Y00953435D01*
X03895475Y00951085D01*
X03894860Y00948749D01*
X03894187Y00946429D01*
X03893457Y00944126D01*
X03892671Y00941842D01*
X03891830Y00939577D01*
X03890933Y00937334D01*
X03889981Y00935114D01*
X03888975Y00932918D01*
X03887916Y00930747D01*
X03886803Y00928603D01*
X03885638Y00926486D01*
X03884422Y00924399D01*
X03883155Y00922343D01*
X03881837Y00920318D01*
X03880471Y00918326D01*
X03879056Y00916368D01*
X03877593Y00914446D01*
X03876084Y00912560D01*
X03874528Y00910711D01*
X03872928Y00908902D01*
X03871284Y00907132D01*
X03869597Y00905403D01*
X03867868Y00903716D01*
X03866098Y00902072D01*
X03864289Y00900472D01*
X03862440Y00898916D01*
X03860554Y00897407D01*
X03858632Y00895944D01*
X03856674Y00894529D01*
X03854682Y00893163D01*
X03852657Y00891845D01*
X03850601Y00890578D01*
X03848514Y00889362D01*
X03846397Y00888197D01*
X03844253Y00887084D01*
X03842082Y00886025D01*
X03839886Y00885019D01*
X03837666Y00884067D01*
X03835423Y00883170D01*
X03833158Y00882329D01*
X03830874Y00881543D01*
X03828571Y00880813D01*
X03826251Y00880140D01*
X03823915Y00879525D01*
X03821565Y00878967D01*
X03819202Y00878466D01*
X03816827Y00878024D01*
X03814442Y00877640D01*
X03812048Y00877315D01*
X03809647Y00877049D01*
X03807241Y00876842D01*
X03804829Y00876694D01*
X03802415Y00876605D01*
X03800000Y00876575D01*
X03797585Y00876605D01*
X03795171Y00876694D01*
X03792759Y00876842D01*
X03790353Y00877049D01*
X03787952Y00877315D01*
X03785558Y00877640D01*
X03783173Y00878024D01*
X03780798Y00878466D01*
X03778435Y00878967D01*
X03776085Y00879525D01*
X03773749Y00880140D01*
X03771429Y00880813D01*
X03769126Y00881543D01*
X03766842Y00882329D01*
X03764577Y00883170D01*
X03762334Y00884067D01*
X03760114Y00885019D01*
X03757918Y00886025D01*
X03755747Y00887084D01*
X03753603Y00888197D01*
X03751486Y00889362D01*
X03749399Y00890578D01*
X03747343Y00891845D01*
X03745318Y00893163D01*
X03743326Y00894529D01*
X03741368Y00895944D01*
X03739446Y00897407D01*
X03737560Y00898916D01*
X03735711Y00900472D01*
X03733902Y00902072D01*
X03732132Y00903716D01*
X03730403Y00905403D01*
X03728716Y00907132D01*
X03727072Y00908902D01*
X03725472Y00910711D01*
X03723916Y00912560D01*
X03722407Y00914446D01*
X03720944Y00916368D01*
X03719529Y00918326D01*
X03718163Y00920318D01*
X03716845Y00922343D01*
X03715578Y00924399D01*
X03714362Y00926486D01*
X03713197Y00928603D01*
X03712084Y00930747D01*
X03711025Y00932918D01*
X03710019Y00935114D01*
X03709067Y00937334D01*
X03708170Y00939577D01*
X03707329Y00941842D01*
X03706543Y00944126D01*
X03705813Y00946429D01*
X03705140Y00948749D01*
X03704525Y00951085D01*
X03703967Y00953435D01*
X03703466Y00955798D01*
X03703024Y00958173D01*
X03702640Y00960558D01*
X03702315Y00962952D01*
X03702049Y00965353D01*
X03701842Y00967759D01*
X03701694Y00970171D01*
X03701605Y00972585D01*
X03701575Y00975000D01*
X04501575Y00975000D02*
X04501605Y00977415D01*
X04501694Y00979829D01*
X04501842Y00982241D01*
X04502049Y00984647D01*
X04502315Y00987048D01*
X04502640Y00989442D01*
X04503024Y00991827D01*
X04503466Y00994202D01*
X04503967Y00996565D01*
X04504525Y00998915D01*
X04505140Y01001251D01*
X04505813Y01003571D01*
X04506543Y01005874D01*
X04507329Y01008158D01*
X04508170Y01010423D01*
X04509067Y01012666D01*
X04510019Y01014886D01*
X04511025Y01017082D01*
X04512084Y01019253D01*
X04513197Y01021397D01*
X04514362Y01023514D01*
X04515578Y01025601D01*
X04516845Y01027657D01*
X04518163Y01029682D01*
X04519529Y01031674D01*
X04520944Y01033632D01*
X04522407Y01035554D01*
X04523916Y01037440D01*
X04525472Y01039289D01*
X04527072Y01041098D01*
X04528716Y01042868D01*
X04530403Y01044597D01*
X04532132Y01046284D01*
X04533902Y01047928D01*
X04535711Y01049528D01*
X04537560Y01051084D01*
X04539446Y01052593D01*
X04541368Y01054056D01*
X04543326Y01055471D01*
X04545318Y01056837D01*
X04547343Y01058155D01*
X04549399Y01059422D01*
X04551486Y01060638D01*
X04553603Y01061803D01*
X04555747Y01062916D01*
X04557918Y01063975D01*
X04560114Y01064981D01*
X04562334Y01065933D01*
X04564577Y01066830D01*
X04566842Y01067671D01*
X04569126Y01068457D01*
X04571429Y01069187D01*
X04573749Y01069860D01*
X04576085Y01070475D01*
X04578435Y01071033D01*
X04580798Y01071534D01*
X04583173Y01071976D01*
X04585558Y01072360D01*
X04587952Y01072685D01*
X04590353Y01072951D01*
X04592759Y01073158D01*
X04595171Y01073306D01*
X04597585Y01073395D01*
X04600000Y01073425D01*
X04602415Y01073395D01*
X04604829Y01073306D01*
X04607241Y01073158D01*
X04609647Y01072951D01*
X04612048Y01072685D01*
X04614442Y01072360D01*
X04616827Y01071976D01*
X04619202Y01071534D01*
X04621565Y01071033D01*
X04623915Y01070475D01*
X04626251Y01069860D01*
X04628571Y01069187D01*
X04630874Y01068457D01*
X04633158Y01067671D01*
X04635423Y01066830D01*
X04637666Y01065933D01*
X04639886Y01064981D01*
X04642082Y01063975D01*
X04644253Y01062916D01*
X04646397Y01061803D01*
X04648514Y01060638D01*
X04650601Y01059422D01*
X04652657Y01058155D01*
X04654682Y01056837D01*
X04656674Y01055471D01*
X04658632Y01054056D01*
X04660554Y01052593D01*
X04662440Y01051084D01*
X04664289Y01049528D01*
X04666098Y01047928D01*
X04667868Y01046284D01*
X04669597Y01044597D01*
X04671284Y01042868D01*
X04672928Y01041098D01*
X04674528Y01039289D01*
X04676084Y01037440D01*
X04677593Y01035554D01*
X04679056Y01033632D01*
X04680471Y01031674D01*
X04681837Y01029682D01*
X04683155Y01027657D01*
X04684422Y01025601D01*
X04685638Y01023514D01*
X04686803Y01021397D01*
X04687916Y01019253D01*
X04688975Y01017082D01*
X04689981Y01014886D01*
X04690933Y01012666D01*
X04691830Y01010423D01*
X04692671Y01008158D01*
X04693457Y01005874D01*
X04694187Y01003571D01*
X04694860Y01001251D01*
X04695475Y00998915D01*
X04696033Y00996565D01*
X04696534Y00994202D01*
X04696976Y00991827D01*
X04697360Y00989442D01*
X04697685Y00987048D01*
X04697951Y00984647D01*
X04698158Y00982241D01*
X04698306Y00979829D01*
X04698395Y00977415D01*
X04698425Y00975000D01*
X04698395Y00972585D01*
X04698306Y00970171D01*
X04698158Y00967759D01*
X04697951Y00965353D01*
X04697685Y00962952D01*
X04697360Y00960558D01*
X04696976Y00958173D01*
X04696534Y00955798D01*
X04696033Y00953435D01*
X04695475Y00951085D01*
X04694860Y00948749D01*
X04694187Y00946429D01*
X04693457Y00944126D01*
X04692671Y00941842D01*
X04691830Y00939577D01*
X04690933Y00937334D01*
X04689981Y00935114D01*
X04688975Y00932918D01*
X04687916Y00930747D01*
X04686803Y00928603D01*
X04685638Y00926486D01*
X04684422Y00924399D01*
X04683155Y00922343D01*
X04681837Y00920318D01*
X04680471Y00918326D01*
X04679056Y00916368D01*
X04677593Y00914446D01*
X04676084Y00912560D01*
X04674528Y00910711D01*
X04672928Y00908902D01*
X04671284Y00907132D01*
X04669597Y00905403D01*
X04667868Y00903716D01*
X04666098Y00902072D01*
X04664289Y00900472D01*
X04662440Y00898916D01*
X04660554Y00897407D01*
X04658632Y00895944D01*
X04656674Y00894529D01*
X04654682Y00893163D01*
X04652657Y00891845D01*
X04650601Y00890578D01*
X04648514Y00889362D01*
X04646397Y00888197D01*
X04644253Y00887084D01*
X04642082Y00886025D01*
X04639886Y00885019D01*
X04637666Y00884067D01*
X04635423Y00883170D01*
X04633158Y00882329D01*
X04630874Y00881543D01*
X04628571Y00880813D01*
X04626251Y00880140D01*
X04623915Y00879525D01*
X04621565Y00878967D01*
X04619202Y00878466D01*
X04616827Y00878024D01*
X04614442Y00877640D01*
X04612048Y00877315D01*
X04609647Y00877049D01*
X04607241Y00876842D01*
X04604829Y00876694D01*
X04602415Y00876605D01*
X04600000Y00876575D01*
X04597585Y00876605D01*
X04595171Y00876694D01*
X04592759Y00876842D01*
X04590353Y00877049D01*
X04587952Y00877315D01*
X04585558Y00877640D01*
X04583173Y00878024D01*
X04580798Y00878466D01*
X04578435Y00878967D01*
X04576085Y00879525D01*
X04573749Y00880140D01*
X04571429Y00880813D01*
X04569126Y00881543D01*
X04566842Y00882329D01*
X04564577Y00883170D01*
X04562334Y00884067D01*
X04560114Y00885019D01*
X04557918Y00886025D01*
X04555747Y00887084D01*
X04553603Y00888197D01*
X04551486Y00889362D01*
X04549399Y00890578D01*
X04547343Y00891845D01*
X04545318Y00893163D01*
X04543326Y00894529D01*
X04541368Y00895944D01*
X04539446Y00897407D01*
X04537560Y00898916D01*
X04535711Y00900472D01*
X04533902Y00902072D01*
X04532132Y00903716D01*
X04530403Y00905403D01*
X04528716Y00907132D01*
X04527072Y00908902D01*
X04525472Y00910711D01*
X04523916Y00912560D01*
X04522407Y00914446D01*
X04520944Y00916368D01*
X04519529Y00918326D01*
X04518163Y00920318D01*
X04516845Y00922343D01*
X04515578Y00924399D01*
X04514362Y00926486D01*
X04513197Y00928603D01*
X04512084Y00930747D01*
X04511025Y00932918D01*
X04510019Y00935114D01*
X04509067Y00937334D01*
X04508170Y00939577D01*
X04507329Y00941842D01*
X04506543Y00944126D01*
X04505813Y00946429D01*
X04505140Y00948749D01*
X04504525Y00951085D01*
X04503967Y00953435D01*
X04503466Y00955798D01*
X04503024Y00958173D01*
X04502640Y00960558D01*
X04502315Y00962952D01*
X04502049Y00965353D01*
X04501842Y00967759D01*
X04501694Y00970171D01*
X04501605Y00972585D01*
X04501575Y00975000D01*
D11*
X04575000Y00320000D02*
X04590000Y00320000D01*
X04590242Y00319997D01*
X04590483Y00319988D01*
X04590724Y00319974D01*
X04590965Y00319953D01*
X04591205Y00319927D01*
X04591445Y00319895D01*
X04591684Y00319857D01*
X04591921Y00319814D01*
X04592158Y00319764D01*
X04592393Y00319709D01*
X04592627Y00319649D01*
X04592859Y00319582D01*
X04593090Y00319511D01*
X04593319Y00319433D01*
X04593546Y00319350D01*
X04593771Y00319262D01*
X04593994Y00319168D01*
X04594214Y00319069D01*
X04594432Y00318964D01*
X04594647Y00318855D01*
X04594860Y00318740D01*
X04595070Y00318620D01*
X04595276Y00318495D01*
X04595480Y00318365D01*
X04595681Y00318230D01*
X04595878Y00318090D01*
X04596072Y00317946D01*
X04596262Y00317797D01*
X04596448Y00317643D01*
X04596631Y00317485D01*
X04596810Y00317323D01*
X04596985Y00317156D01*
X04597156Y00316985D01*
X04597323Y00316810D01*
X04597485Y00316631D01*
X04597643Y00316448D01*
X04597797Y00316262D01*
X04597946Y00316072D01*
X04598090Y00315878D01*
X04598230Y00315681D01*
X04598365Y00315480D01*
X04598495Y00315276D01*
X04598620Y00315070D01*
X04598740Y00314860D01*
X04598855Y00314647D01*
X04598964Y00314432D01*
X04599069Y00314214D01*
X04599168Y00313994D01*
X04599262Y00313771D01*
X04599350Y00313546D01*
X04599433Y00313319D01*
X04599511Y00313090D01*
X04599582Y00312859D01*
X04599649Y00312627D01*
X04599709Y00312393D01*
X04599764Y00312158D01*
X04599814Y00311921D01*
X04599857Y00311684D01*
X04599895Y00311445D01*
X04599927Y00311205D01*
X04599953Y00310965D01*
X04599974Y00310724D01*
X04599988Y00310483D01*
X04599997Y00310242D01*
X04600000Y00310000D01*
X04600000Y00240000D01*
X04599997Y00239758D01*
X04599988Y00239517D01*
X04599974Y00239276D01*
X04599953Y00239035D01*
X04599927Y00238795D01*
X04599895Y00238555D01*
X04599857Y00238316D01*
X04599814Y00238079D01*
X04599764Y00237842D01*
X04599709Y00237607D01*
X04599649Y00237373D01*
X04599582Y00237141D01*
X04599511Y00236910D01*
X04599433Y00236681D01*
X04599350Y00236454D01*
X04599262Y00236229D01*
X04599168Y00236006D01*
X04599069Y00235786D01*
X04598964Y00235568D01*
X04598855Y00235353D01*
X04598740Y00235140D01*
X04598620Y00234930D01*
X04598495Y00234724D01*
X04598365Y00234520D01*
X04598230Y00234319D01*
X04598090Y00234122D01*
X04597946Y00233928D01*
X04597797Y00233738D01*
X04597643Y00233552D01*
X04597485Y00233369D01*
X04597323Y00233190D01*
X04597156Y00233015D01*
X04596985Y00232844D01*
X04596810Y00232677D01*
X04596631Y00232515D01*
X04596448Y00232357D01*
X04596262Y00232203D01*
X04596072Y00232054D01*
X04595878Y00231910D01*
X04595681Y00231770D01*
X04595480Y00231635D01*
X04595276Y00231505D01*
X04595070Y00231380D01*
X04594860Y00231260D01*
X04594647Y00231145D01*
X04594432Y00231036D01*
X04594214Y00230931D01*
X04593994Y00230832D01*
X04593771Y00230738D01*
X04593546Y00230650D01*
X04593319Y00230567D01*
X04593090Y00230489D01*
X04592859Y00230418D01*
X04592627Y00230351D01*
X04592393Y00230291D01*
X04592158Y00230236D01*
X04591921Y00230186D01*
X04591684Y00230143D01*
X04591445Y00230105D01*
X04591205Y00230073D01*
X04590965Y00230047D01*
X04590724Y00230026D01*
X04590483Y00230012D01*
X04590242Y00230003D01*
X04590000Y00230000D01*
X04575000Y00230000D01*
X04570000Y00235000D01*
X04380000Y00235000D01*
X04375000Y00230000D01*
X04360000Y00230000D01*
X04359758Y00230003D01*
X04359517Y00230012D01*
X04359276Y00230026D01*
X04359035Y00230047D01*
X04358795Y00230073D01*
X04358555Y00230105D01*
X04358316Y00230143D01*
X04358079Y00230186D01*
X04357842Y00230236D01*
X04357607Y00230291D01*
X04357373Y00230351D01*
X04357141Y00230418D01*
X04356910Y00230489D01*
X04356681Y00230567D01*
X04356454Y00230650D01*
X04356229Y00230738D01*
X04356006Y00230832D01*
X04355786Y00230931D01*
X04355568Y00231036D01*
X04355353Y00231145D01*
X04355140Y00231260D01*
X04354930Y00231380D01*
X04354724Y00231505D01*
X04354520Y00231635D01*
X04354319Y00231770D01*
X04354122Y00231910D01*
X04353928Y00232054D01*
X04353738Y00232203D01*
X04353552Y00232357D01*
X04353369Y00232515D01*
X04353190Y00232677D01*
X04353015Y00232844D01*
X04352844Y00233015D01*
X04352677Y00233190D01*
X04352515Y00233369D01*
X04352357Y00233552D01*
X04352203Y00233738D01*
X04352054Y00233928D01*
X04351910Y00234122D01*
X04351770Y00234319D01*
X04351635Y00234520D01*
X04351505Y00234724D01*
X04351380Y00234930D01*
X04351260Y00235140D01*
X04351145Y00235353D01*
X04351036Y00235568D01*
X04350931Y00235786D01*
X04350832Y00236006D01*
X04350738Y00236229D01*
X04350650Y00236454D01*
X04350567Y00236681D01*
X04350489Y00236910D01*
X04350418Y00237141D01*
X04350351Y00237373D01*
X04350291Y00237607D01*
X04350236Y00237842D01*
X04350186Y00238079D01*
X04350143Y00238316D01*
X04350105Y00238555D01*
X04350073Y00238795D01*
X04350047Y00239035D01*
X04350026Y00239276D01*
X04350012Y00239517D01*
X04350003Y00239758D01*
X04350000Y00240000D01*
X04350000Y00310000D01*
X04350003Y00310242D01*
X04350012Y00310483D01*
X04350026Y00310724D01*
X04350047Y00310965D01*
X04350073Y00311205D01*
X04350105Y00311445D01*
X04350143Y00311684D01*
X04350186Y00311921D01*
X04350236Y00312158D01*
X04350291Y00312393D01*
X04350351Y00312627D01*
X04350418Y00312859D01*
X04350489Y00313090D01*
X04350567Y00313319D01*
X04350650Y00313546D01*
X04350738Y00313771D01*
X04350832Y00313994D01*
X04350931Y00314214D01*
X04351036Y00314432D01*
X04351145Y00314647D01*
X04351260Y00314860D01*
X04351380Y00315070D01*
X04351505Y00315276D01*
X04351635Y00315480D01*
X04351770Y00315681D01*
X04351910Y00315878D01*
X04352054Y00316072D01*
X04352203Y00316262D01*
X04352357Y00316448D01*
X04352515Y00316631D01*
X04352677Y00316810D01*
X04352844Y00316985D01*
X04353015Y00317156D01*
X04353190Y00317323D01*
X04353369Y00317485D01*
X04353552Y00317643D01*
X04353738Y00317797D01*
X04353928Y00317946D01*
X04354122Y00318090D01*
X04354319Y00318230D01*
X04354520Y00318365D01*
X04354724Y00318495D01*
X04354930Y00318620D01*
X04355140Y00318740D01*
X04355353Y00318855D01*
X04355568Y00318964D01*
X04355786Y00319069D01*
X04356006Y00319168D01*
X04356229Y00319262D01*
X04356454Y00319350D01*
X04356681Y00319433D01*
X04356910Y00319511D01*
X04357141Y00319582D01*
X04357373Y00319649D01*
X04357607Y00319709D01*
X04357842Y00319764D01*
X04358079Y00319814D01*
X04358316Y00319857D01*
X04358555Y00319895D01*
X04358795Y00319927D01*
X04359035Y00319953D01*
X04359276Y00319974D01*
X04359517Y00319988D01*
X04359758Y00319997D01*
X04360000Y00320000D01*
X04375000Y00320000D01*
X04380000Y00315000D01*
X04570000Y00315000D01*
X04575000Y00320000D01*
X03750000Y00310000D02*
X03750000Y00240000D01*
X03749997Y00239758D01*
X03749988Y00239517D01*
X03749974Y00239276D01*
X03749953Y00239035D01*
X03749927Y00238795D01*
X03749895Y00238555D01*
X03749857Y00238316D01*
X03749814Y00238079D01*
X03749764Y00237842D01*
X03749709Y00237607D01*
X03749649Y00237373D01*
X03749582Y00237141D01*
X03749511Y00236910D01*
X03749433Y00236681D01*
X03749350Y00236454D01*
X03749262Y00236229D01*
X03749168Y00236006D01*
X03749069Y00235786D01*
X03748964Y00235568D01*
X03748855Y00235353D01*
X03748740Y00235140D01*
X03748620Y00234930D01*
X03748495Y00234724D01*
X03748365Y00234520D01*
X03748230Y00234319D01*
X03748090Y00234122D01*
X03747946Y00233928D01*
X03747797Y00233738D01*
X03747643Y00233552D01*
X03747485Y00233369D01*
X03747323Y00233190D01*
X03747156Y00233015D01*
X03746985Y00232844D01*
X03746810Y00232677D01*
X03746631Y00232515D01*
X03746448Y00232357D01*
X03746262Y00232203D01*
X03746072Y00232054D01*
X03745878Y00231910D01*
X03745681Y00231770D01*
X03745480Y00231635D01*
X03745276Y00231505D01*
X03745070Y00231380D01*
X03744860Y00231260D01*
X03744647Y00231145D01*
X03744432Y00231036D01*
X03744214Y00230931D01*
X03743994Y00230832D01*
X03743771Y00230738D01*
X03743546Y00230650D01*
X03743319Y00230567D01*
X03743090Y00230489D01*
X03742859Y00230418D01*
X03742627Y00230351D01*
X03742393Y00230291D01*
X03742158Y00230236D01*
X03741921Y00230186D01*
X03741684Y00230143D01*
X03741445Y00230105D01*
X03741205Y00230073D01*
X03740965Y00230047D01*
X03740724Y00230026D01*
X03740483Y00230012D01*
X03740242Y00230003D01*
X03740000Y00230000D01*
X03725000Y00230000D01*
X03720000Y00235000D01*
X03530000Y00235000D01*
X03525000Y00230000D01*
X03510000Y00230000D01*
X03509758Y00230003D01*
X03509517Y00230012D01*
X03509276Y00230026D01*
X03509035Y00230047D01*
X03508795Y00230073D01*
X03508555Y00230105D01*
X03508316Y00230143D01*
X03508079Y00230186D01*
X03507842Y00230236D01*
X03507607Y00230291D01*
X03507373Y00230351D01*
X03507141Y00230418D01*
X03506910Y00230489D01*
X03506681Y00230567D01*
X03506454Y00230650D01*
X03506229Y00230738D01*
X03506006Y00230832D01*
X03505786Y00230931D01*
X03505568Y00231036D01*
X03505353Y00231145D01*
X03505140Y00231260D01*
X03504930Y00231380D01*
X03504724Y00231505D01*
X03504520Y00231635D01*
X03504319Y00231770D01*
X03504122Y00231910D01*
X03503928Y00232054D01*
X03503738Y00232203D01*
X03503552Y00232357D01*
X03503369Y00232515D01*
X03503190Y00232677D01*
X03503015Y00232844D01*
X03502844Y00233015D01*
X03502677Y00233190D01*
X03502515Y00233369D01*
X03502357Y00233552D01*
X03502203Y00233738D01*
X03502054Y00233928D01*
X03501910Y00234122D01*
X03501770Y00234319D01*
X03501635Y00234520D01*
X03501505Y00234724D01*
X03501380Y00234930D01*
X03501260Y00235140D01*
X03501145Y00235353D01*
X03501036Y00235568D01*
X03500931Y00235786D01*
X03500832Y00236006D01*
X03500738Y00236229D01*
X03500650Y00236454D01*
X03500567Y00236681D01*
X03500489Y00236910D01*
X03500418Y00237141D01*
X03500351Y00237373D01*
X03500291Y00237607D01*
X03500236Y00237842D01*
X03500186Y00238079D01*
X03500143Y00238316D01*
X03500105Y00238555D01*
X03500073Y00238795D01*
X03500047Y00239035D01*
X03500026Y00239276D01*
X03500012Y00239517D01*
X03500003Y00239758D01*
X03500000Y00240000D01*
X03500000Y00310000D01*
X03500003Y00310242D01*
X03500012Y00310483D01*
X03500026Y00310724D01*
X03500047Y00310965D01*
X03500073Y00311205D01*
X03500105Y00311445D01*
X03500143Y00311684D01*
X03500186Y00311921D01*
X03500236Y00312158D01*
X03500291Y00312393D01*
X03500351Y00312627D01*
X03500418Y00312859D01*
X03500489Y00313090D01*
X03500567Y00313319D01*
X03500650Y00313546D01*
X03500738Y00313771D01*
X03500832Y00313994D01*
X03500931Y00314214D01*
X03501036Y00314432D01*
X03501145Y00314647D01*
X03501260Y00314860D01*
X03501380Y00315070D01*
X03501505Y00315276D01*
X03501635Y00315480D01*
X03501770Y00315681D01*
X03501910Y00315878D01*
X03502054Y00316072D01*
X03502203Y00316262D01*
X03502357Y00316448D01*
X03502515Y00316631D01*
X03502677Y00316810D01*
X03502844Y00316985D01*
X03503015Y00317156D01*
X03503190Y00317323D01*
X03503369Y00317485D01*
X03503552Y00317643D01*
X03503738Y00317797D01*
X03503928Y00317946D01*
X03504122Y00318090D01*
X03504319Y00318230D01*
X03504520Y00318365D01*
X03504724Y00318495D01*
X03504930Y00318620D01*
X03505140Y00318740D01*
X03505353Y00318855D01*
X03505568Y00318964D01*
X03505786Y00319069D01*
X03506006Y00319168D01*
X03506229Y00319262D01*
X03506454Y00319350D01*
X03506681Y00319433D01*
X03506910Y00319511D01*
X03507141Y00319582D01*
X03507373Y00319649D01*
X03507607Y00319709D01*
X03507842Y00319764D01*
X03508079Y00319814D01*
X03508316Y00319857D01*
X03508555Y00319895D01*
X03508795Y00319927D01*
X03509035Y00319953D01*
X03509276Y00319974D01*
X03509517Y00319988D01*
X03509758Y00319997D01*
X03510000Y00320000D01*
X03525000Y00320000D01*
X03530000Y00315000D01*
X03720000Y00315000D01*
X03725000Y00320000D01*
X03740000Y00320000D01*
X03740242Y00319997D01*
X03740483Y00319988D01*
X03740724Y00319974D01*
X03740965Y00319953D01*
X03741205Y00319927D01*
X03741445Y00319895D01*
X03741684Y00319857D01*
X03741921Y00319814D01*
X03742158Y00319764D01*
X03742393Y00319709D01*
X03742627Y00319649D01*
X03742859Y00319582D01*
X03743090Y00319511D01*
X03743319Y00319433D01*
X03743546Y00319350D01*
X03743771Y00319262D01*
X03743994Y00319168D01*
X03744214Y00319069D01*
X03744432Y00318964D01*
X03744647Y00318855D01*
X03744860Y00318740D01*
X03745070Y00318620D01*
X03745276Y00318495D01*
X03745480Y00318365D01*
X03745681Y00318230D01*
X03745878Y00318090D01*
X03746072Y00317946D01*
X03746262Y00317797D01*
X03746448Y00317643D01*
X03746631Y00317485D01*
X03746810Y00317323D01*
X03746985Y00317156D01*
X03747156Y00316985D01*
X03747323Y00316810D01*
X03747485Y00316631D01*
X03747643Y00316448D01*
X03747797Y00316262D01*
X03747946Y00316072D01*
X03748090Y00315878D01*
X03748230Y00315681D01*
X03748365Y00315480D01*
X03748495Y00315276D01*
X03748620Y00315070D01*
X03748740Y00314860D01*
X03748855Y00314647D01*
X03748964Y00314432D01*
X03749069Y00314214D01*
X03749168Y00313994D01*
X03749262Y00313771D01*
X03749350Y00313546D01*
X03749433Y00313319D01*
X03749511Y00313090D01*
X03749582Y00312859D01*
X03749649Y00312627D01*
X03749709Y00312393D01*
X03749764Y00312158D01*
X03749814Y00311921D01*
X03749857Y00311684D01*
X03749895Y00311445D01*
X03749927Y00311205D01*
X03749953Y00310965D01*
X03749974Y00310724D01*
X03749988Y00310483D01*
X03749997Y00310242D01*
X03750000Y00310000D01*
X03500000Y00125000D02*
X03475000Y00150000D01*
X03425000Y00150000D01*
X03400000Y00125000D01*
X03375000Y00150000D01*
X03325000Y00150000D01*
X03300000Y00125000D01*
X03300000Y00075000D01*
X03325000Y00050000D01*
X03375000Y00050000D01*
X03400000Y00075000D01*
X03400000Y00125000D01*
X03300000Y00125000D02*
X03275000Y00150000D01*
X03225000Y00150000D01*
X03200000Y00125000D01*
X03175000Y00150000D01*
X03125000Y00150000D01*
X03100000Y00125000D01*
X03075000Y00150000D01*
X03025000Y00150000D01*
X03000000Y00125000D01*
X03000000Y00075000D01*
X03025000Y00050000D01*
X03075000Y00050000D01*
X03100000Y00075000D01*
X03100000Y00125000D01*
X03000000Y00125000D02*
X02975000Y00150000D01*
X02925000Y00150000D01*
X02900000Y00125000D01*
X02875000Y00150000D01*
X02825000Y00150000D01*
X02800000Y00125000D01*
X02775000Y00150000D01*
X02725000Y00150000D01*
X02700000Y00125000D01*
X02700000Y00075000D01*
X02725000Y00050000D01*
X02775000Y00050000D01*
X02800000Y00075000D01*
X02800000Y00125000D01*
X02700000Y00125000D02*
X02675000Y00150000D01*
X02625000Y00150000D01*
X02600000Y00125000D01*
X02575000Y00150000D01*
X02525000Y00150000D01*
X02500000Y00125000D01*
X02475000Y00150000D01*
X02425000Y00150000D01*
X02400000Y00125000D01*
X02375000Y00150000D01*
X02325000Y00150000D01*
X02300000Y00125000D01*
X02300000Y00075000D01*
X02325000Y00050000D01*
X02375000Y00050000D01*
X02400000Y00075000D01*
X02400000Y00125000D01*
X02300000Y00125000D02*
X02275000Y00150000D01*
X02225000Y00150000D01*
X02200000Y00125000D01*
X02175000Y00150000D01*
X02125000Y00150000D01*
X02100000Y00125000D01*
X02075000Y00150000D01*
X02025000Y00150000D01*
X02000000Y00125000D01*
X02000000Y00075000D01*
X02025000Y00050000D01*
X02075000Y00050000D01*
X02100000Y00075000D01*
X02100000Y00125000D01*
X02000000Y00125000D02*
X01975000Y00150000D01*
X01925000Y00150000D01*
X01900000Y00125000D01*
X01875000Y00150000D01*
X01825000Y00150000D01*
X01800000Y00125000D01*
X01775000Y00150000D01*
X01725000Y00150000D01*
X01700000Y00125000D01*
X01700000Y00075000D01*
X01725000Y00050000D01*
X01775000Y00050000D01*
X01800000Y00075000D01*
X01800000Y00125000D01*
X01700000Y00125000D02*
X01675000Y00150000D01*
X01625000Y00150000D01*
X01600000Y00125000D01*
X01575000Y00150000D01*
X01525000Y00150000D01*
X01500000Y00125000D01*
X01500000Y00075000D01*
X01525000Y00050000D01*
X01575000Y00050000D01*
X01600000Y00075000D01*
X01600000Y00125000D01*
X01600000Y00075000D02*
X01625000Y00050000D01*
X01675000Y00050000D01*
X01700000Y00075000D01*
X01800000Y00075000D02*
X01825000Y00050000D01*
X01875000Y00050000D01*
X01900000Y00075000D01*
X01900000Y00125000D01*
X01900000Y00075000D02*
X01925000Y00050000D01*
X01975000Y00050000D01*
X02000000Y00075000D01*
X02100000Y00075000D02*
X02125000Y00050000D01*
X02175000Y00050000D01*
X02200000Y00075000D01*
X02200000Y00125000D01*
X02200000Y00075000D02*
X02225000Y00050000D01*
X02275000Y00050000D01*
X02300000Y00075000D01*
X02400000Y00075000D02*
X02425000Y00050000D01*
X02475000Y00050000D01*
X02500000Y00075000D01*
X02500000Y00125000D01*
X02500000Y00075000D01*
X02525000Y00050000D01*
X02575000Y00050000D01*
X02600000Y00075000D01*
X02600000Y00125000D01*
X02600000Y00075000D02*
X02625000Y00050000D01*
X02675000Y00050000D01*
X02700000Y00075000D01*
X02800000Y00075000D02*
X02825000Y00050000D01*
X02875000Y00050000D01*
X02900000Y00075000D01*
X02900000Y00125000D01*
X02900000Y00075000D02*
X02925000Y00050000D01*
X02975000Y00050000D01*
X03000000Y00075000D01*
X03100000Y00075000D02*
X03125000Y00050000D01*
X03175000Y00050000D01*
X03200000Y00075000D01*
X03200000Y00125000D01*
X03200000Y00075000D02*
X03225000Y00050000D01*
X03275000Y00050000D01*
X03300000Y00075000D01*
X03400000Y00075000D02*
X03425000Y00050000D01*
X03475000Y00050000D01*
X03500000Y00075000D01*
X03500000Y00125000D01*
X03025000Y00240000D02*
X03025000Y00310000D01*
X03024997Y00310242D01*
X03024988Y00310483D01*
X03024974Y00310724D01*
X03024953Y00310965D01*
X03024927Y00311205D01*
X03024895Y00311445D01*
X03024857Y00311684D01*
X03024814Y00311921D01*
X03024764Y00312158D01*
X03024709Y00312393D01*
X03024649Y00312627D01*
X03024582Y00312859D01*
X03024511Y00313090D01*
X03024433Y00313319D01*
X03024350Y00313546D01*
X03024262Y00313771D01*
X03024168Y00313994D01*
X03024069Y00314214D01*
X03023964Y00314432D01*
X03023855Y00314647D01*
X03023740Y00314860D01*
X03023620Y00315070D01*
X03023495Y00315276D01*
X03023365Y00315480D01*
X03023230Y00315681D01*
X03023090Y00315878D01*
X03022946Y00316072D01*
X03022797Y00316262D01*
X03022643Y00316448D01*
X03022485Y00316631D01*
X03022323Y00316810D01*
X03022156Y00316985D01*
X03021985Y00317156D01*
X03021810Y00317323D01*
X03021631Y00317485D01*
X03021448Y00317643D01*
X03021262Y00317797D01*
X03021072Y00317946D01*
X03020878Y00318090D01*
X03020681Y00318230D01*
X03020480Y00318365D01*
X03020276Y00318495D01*
X03020070Y00318620D01*
X03019860Y00318740D01*
X03019647Y00318855D01*
X03019432Y00318964D01*
X03019214Y00319069D01*
X03018994Y00319168D01*
X03018771Y00319262D01*
X03018546Y00319350D01*
X03018319Y00319433D01*
X03018090Y00319511D01*
X03017859Y00319582D01*
X03017627Y00319649D01*
X03017393Y00319709D01*
X03017158Y00319764D01*
X03016921Y00319814D01*
X03016684Y00319857D01*
X03016445Y00319895D01*
X03016205Y00319927D01*
X03015965Y00319953D01*
X03015724Y00319974D01*
X03015483Y00319988D01*
X03015242Y00319997D01*
X03015000Y00320000D01*
X03000000Y00320000D01*
X02995000Y00315000D01*
X02805000Y00315000D01*
X02800000Y00320000D01*
X02785000Y00320000D01*
X02784758Y00319997D01*
X02784517Y00319988D01*
X02784276Y00319974D01*
X02784035Y00319953D01*
X02783795Y00319927D01*
X02783555Y00319895D01*
X02783316Y00319857D01*
X02783079Y00319814D01*
X02782842Y00319764D01*
X02782607Y00319709D01*
X02782373Y00319649D01*
X02782141Y00319582D01*
X02781910Y00319511D01*
X02781681Y00319433D01*
X02781454Y00319350D01*
X02781229Y00319262D01*
X02781006Y00319168D01*
X02780786Y00319069D01*
X02780568Y00318964D01*
X02780353Y00318855D01*
X02780140Y00318740D01*
X02779930Y00318620D01*
X02779724Y00318495D01*
X02779520Y00318365D01*
X02779319Y00318230D01*
X02779122Y00318090D01*
X02778928Y00317946D01*
X02778738Y00317797D01*
X02778552Y00317643D01*
X02778369Y00317485D01*
X02778190Y00317323D01*
X02778015Y00317156D01*
X02777844Y00316985D01*
X02777677Y00316810D01*
X02777515Y00316631D01*
X02777357Y00316448D01*
X02777203Y00316262D01*
X02777054Y00316072D01*
X02776910Y00315878D01*
X02776770Y00315681D01*
X02776635Y00315480D01*
X02776505Y00315276D01*
X02776380Y00315070D01*
X02776260Y00314860D01*
X02776145Y00314647D01*
X02776036Y00314432D01*
X02775931Y00314214D01*
X02775832Y00313994D01*
X02775738Y00313771D01*
X02775650Y00313546D01*
X02775567Y00313319D01*
X02775489Y00313090D01*
X02775418Y00312859D01*
X02775351Y00312627D01*
X02775291Y00312393D01*
X02775236Y00312158D01*
X02775186Y00311921D01*
X02775143Y00311684D01*
X02775105Y00311445D01*
X02775073Y00311205D01*
X02775047Y00310965D01*
X02775026Y00310724D01*
X02775012Y00310483D01*
X02775003Y00310242D01*
X02775000Y00310000D01*
X02775000Y00240000D01*
X02775003Y00239758D01*
X02775012Y00239517D01*
X02775026Y00239276D01*
X02775047Y00239035D01*
X02775073Y00238795D01*
X02775105Y00238555D01*
X02775143Y00238316D01*
X02775186Y00238079D01*
X02775236Y00237842D01*
X02775291Y00237607D01*
X02775351Y00237373D01*
X02775418Y00237141D01*
X02775489Y00236910D01*
X02775567Y00236681D01*
X02775650Y00236454D01*
X02775738Y00236229D01*
X02775832Y00236006D01*
X02775931Y00235786D01*
X02776036Y00235568D01*
X02776145Y00235353D01*
X02776260Y00235140D01*
X02776380Y00234930D01*
X02776505Y00234724D01*
X02776635Y00234520D01*
X02776770Y00234319D01*
X02776910Y00234122D01*
X02777054Y00233928D01*
X02777203Y00233738D01*
X02777357Y00233552D01*
X02777515Y00233369D01*
X02777677Y00233190D01*
X02777844Y00233015D01*
X02778015Y00232844D01*
X02778190Y00232677D01*
X02778369Y00232515D01*
X02778552Y00232357D01*
X02778738Y00232203D01*
X02778928Y00232054D01*
X02779122Y00231910D01*
X02779319Y00231770D01*
X02779520Y00231635D01*
X02779724Y00231505D01*
X02779930Y00231380D01*
X02780140Y00231260D01*
X02780353Y00231145D01*
X02780568Y00231036D01*
X02780786Y00230931D01*
X02781006Y00230832D01*
X02781229Y00230738D01*
X02781454Y00230650D01*
X02781681Y00230567D01*
X02781910Y00230489D01*
X02782141Y00230418D01*
X02782373Y00230351D01*
X02782607Y00230291D01*
X02782842Y00230236D01*
X02783079Y00230186D01*
X02783316Y00230143D01*
X02783555Y00230105D01*
X02783795Y00230073D01*
X02784035Y00230047D01*
X02784276Y00230026D01*
X02784517Y00230012D01*
X02784758Y00230003D01*
X02785000Y00230000D01*
X02800000Y00230000D01*
X02805000Y00235000D01*
X02995000Y00235000D01*
X03000000Y00230000D01*
X03015000Y00230000D01*
X03015242Y00230003D01*
X03015483Y00230012D01*
X03015724Y00230026D01*
X03015965Y00230047D01*
X03016205Y00230073D01*
X03016445Y00230105D01*
X03016684Y00230143D01*
X03016921Y00230186D01*
X03017158Y00230236D01*
X03017393Y00230291D01*
X03017627Y00230351D01*
X03017859Y00230418D01*
X03018090Y00230489D01*
X03018319Y00230567D01*
X03018546Y00230650D01*
X03018771Y00230738D01*
X03018994Y00230832D01*
X03019214Y00230931D01*
X03019432Y00231036D01*
X03019647Y00231145D01*
X03019860Y00231260D01*
X03020070Y00231380D01*
X03020276Y00231505D01*
X03020480Y00231635D01*
X03020681Y00231770D01*
X03020878Y00231910D01*
X03021072Y00232054D01*
X03021262Y00232203D01*
X03021448Y00232357D01*
X03021631Y00232515D01*
X03021810Y00232677D01*
X03021985Y00232844D01*
X03022156Y00233015D01*
X03022323Y00233190D01*
X03022485Y00233369D01*
X03022643Y00233552D01*
X03022797Y00233738D01*
X03022946Y00233928D01*
X03023090Y00234122D01*
X03023230Y00234319D01*
X03023365Y00234520D01*
X03023495Y00234724D01*
X03023620Y00234930D01*
X03023740Y00235140D01*
X03023855Y00235353D01*
X03023964Y00235568D01*
X03024069Y00235786D01*
X03024168Y00236006D01*
X03024262Y00236229D01*
X03024350Y00236454D01*
X03024433Y00236681D01*
X03024511Y00236910D01*
X03024582Y00237141D01*
X03024649Y00237373D01*
X03024709Y00237607D01*
X03024764Y00237842D01*
X03024814Y00238079D01*
X03024857Y00238316D01*
X03024895Y00238555D01*
X03024927Y00238795D01*
X03024953Y00239035D01*
X03024974Y00239276D01*
X03024988Y00239517D01*
X03024997Y00239758D01*
X03025000Y00240000D01*
X02200000Y00240000D02*
X02200000Y00310000D01*
X02199997Y00310242D01*
X02199988Y00310483D01*
X02199974Y00310724D01*
X02199953Y00310965D01*
X02199927Y00311205D01*
X02199895Y00311445D01*
X02199857Y00311684D01*
X02199814Y00311921D01*
X02199764Y00312158D01*
X02199709Y00312393D01*
X02199649Y00312627D01*
X02199582Y00312859D01*
X02199511Y00313090D01*
X02199433Y00313319D01*
X02199350Y00313546D01*
X02199262Y00313771D01*
X02199168Y00313994D01*
X02199069Y00314214D01*
X02198964Y00314432D01*
X02198855Y00314647D01*
X02198740Y00314860D01*
X02198620Y00315070D01*
X02198495Y00315276D01*
X02198365Y00315480D01*
X02198230Y00315681D01*
X02198090Y00315878D01*
X02197946Y00316072D01*
X02197797Y00316262D01*
X02197643Y00316448D01*
X02197485Y00316631D01*
X02197323Y00316810D01*
X02197156Y00316985D01*
X02196985Y00317156D01*
X02196810Y00317323D01*
X02196631Y00317485D01*
X02196448Y00317643D01*
X02196262Y00317797D01*
X02196072Y00317946D01*
X02195878Y00318090D01*
X02195681Y00318230D01*
X02195480Y00318365D01*
X02195276Y00318495D01*
X02195070Y00318620D01*
X02194860Y00318740D01*
X02194647Y00318855D01*
X02194432Y00318964D01*
X02194214Y00319069D01*
X02193994Y00319168D01*
X02193771Y00319262D01*
X02193546Y00319350D01*
X02193319Y00319433D01*
X02193090Y00319511D01*
X02192859Y00319582D01*
X02192627Y00319649D01*
X02192393Y00319709D01*
X02192158Y00319764D01*
X02191921Y00319814D01*
X02191684Y00319857D01*
X02191445Y00319895D01*
X02191205Y00319927D01*
X02190965Y00319953D01*
X02190724Y00319974D01*
X02190483Y00319988D01*
X02190242Y00319997D01*
X02190000Y00320000D01*
X02175000Y00320000D01*
X02170000Y00315000D01*
X01980000Y00315000D01*
X01975000Y00320000D01*
X01960000Y00320000D01*
X01959758Y00319997D01*
X01959517Y00319988D01*
X01959276Y00319974D01*
X01959035Y00319953D01*
X01958795Y00319927D01*
X01958555Y00319895D01*
X01958316Y00319857D01*
X01958079Y00319814D01*
X01957842Y00319764D01*
X01957607Y00319709D01*
X01957373Y00319649D01*
X01957141Y00319582D01*
X01956910Y00319511D01*
X01956681Y00319433D01*
X01956454Y00319350D01*
X01956229Y00319262D01*
X01956006Y00319168D01*
X01955786Y00319069D01*
X01955568Y00318964D01*
X01955353Y00318855D01*
X01955140Y00318740D01*
X01954930Y00318620D01*
X01954724Y00318495D01*
X01954520Y00318365D01*
X01954319Y00318230D01*
X01954122Y00318090D01*
X01953928Y00317946D01*
X01953738Y00317797D01*
X01953552Y00317643D01*
X01953369Y00317485D01*
X01953190Y00317323D01*
X01953015Y00317156D01*
X01952844Y00316985D01*
X01952677Y00316810D01*
X01952515Y00316631D01*
X01952357Y00316448D01*
X01952203Y00316262D01*
X01952054Y00316072D01*
X01951910Y00315878D01*
X01951770Y00315681D01*
X01951635Y00315480D01*
X01951505Y00315276D01*
X01951380Y00315070D01*
X01951260Y00314860D01*
X01951145Y00314647D01*
X01951036Y00314432D01*
X01950931Y00314214D01*
X01950832Y00313994D01*
X01950738Y00313771D01*
X01950650Y00313546D01*
X01950567Y00313319D01*
X01950489Y00313090D01*
X01950418Y00312859D01*
X01950351Y00312627D01*
X01950291Y00312393D01*
X01950236Y00312158D01*
X01950186Y00311921D01*
X01950143Y00311684D01*
X01950105Y00311445D01*
X01950073Y00311205D01*
X01950047Y00310965D01*
X01950026Y00310724D01*
X01950012Y00310483D01*
X01950003Y00310242D01*
X01950000Y00310000D01*
X01950000Y00240000D01*
X01950003Y00239758D01*
X01950012Y00239517D01*
X01950026Y00239276D01*
X01950047Y00239035D01*
X01950073Y00238795D01*
X01950105Y00238555D01*
X01950143Y00238316D01*
X01950186Y00238079D01*
X01950236Y00237842D01*
X01950291Y00237607D01*
X01950351Y00237373D01*
X01950418Y00237141D01*
X01950489Y00236910D01*
X01950567Y00236681D01*
X01950650Y00236454D01*
X01950738Y00236229D01*
X01950832Y00236006D01*
X01950931Y00235786D01*
X01951036Y00235568D01*
X01951145Y00235353D01*
X01951260Y00235140D01*
X01951380Y00234930D01*
X01951505Y00234724D01*
X01951635Y00234520D01*
X01951770Y00234319D01*
X01951910Y00234122D01*
X01952054Y00233928D01*
X01952203Y00233738D01*
X01952357Y00233552D01*
X01952515Y00233369D01*
X01952677Y00233190D01*
X01952844Y00233015D01*
X01953015Y00232844D01*
X01953190Y00232677D01*
X01953369Y00232515D01*
X01953552Y00232357D01*
X01953738Y00232203D01*
X01953928Y00232054D01*
X01954122Y00231910D01*
X01954319Y00231770D01*
X01954520Y00231635D01*
X01954724Y00231505D01*
X01954930Y00231380D01*
X01955140Y00231260D01*
X01955353Y00231145D01*
X01955568Y00231036D01*
X01955786Y00230931D01*
X01956006Y00230832D01*
X01956229Y00230738D01*
X01956454Y00230650D01*
X01956681Y00230567D01*
X01956910Y00230489D01*
X01957141Y00230418D01*
X01957373Y00230351D01*
X01957607Y00230291D01*
X01957842Y00230236D01*
X01958079Y00230186D01*
X01958316Y00230143D01*
X01958555Y00230105D01*
X01958795Y00230073D01*
X01959035Y00230047D01*
X01959276Y00230026D01*
X01959517Y00230012D01*
X01959758Y00230003D01*
X01960000Y00230000D01*
X01975000Y00230000D01*
X01980000Y00235000D01*
X02170000Y00235000D01*
X02175000Y00230000D01*
X02190000Y00230000D01*
X02190242Y00230003D01*
X02190483Y00230012D01*
X02190724Y00230026D01*
X02190965Y00230047D01*
X02191205Y00230073D01*
X02191445Y00230105D01*
X02191684Y00230143D01*
X02191921Y00230186D01*
X02192158Y00230236D01*
X02192393Y00230291D01*
X02192627Y00230351D01*
X02192859Y00230418D01*
X02193090Y00230489D01*
X02193319Y00230567D01*
X02193546Y00230650D01*
X02193771Y00230738D01*
X02193994Y00230832D01*
X02194214Y00230931D01*
X02194432Y00231036D01*
X02194647Y00231145D01*
X02194860Y00231260D01*
X02195070Y00231380D01*
X02195276Y00231505D01*
X02195480Y00231635D01*
X02195681Y00231770D01*
X02195878Y00231910D01*
X02196072Y00232054D01*
X02196262Y00232203D01*
X02196448Y00232357D01*
X02196631Y00232515D01*
X02196810Y00232677D01*
X02196985Y00232844D01*
X02197156Y00233015D01*
X02197323Y00233190D01*
X02197485Y00233369D01*
X02197643Y00233552D01*
X02197797Y00233738D01*
X02197946Y00233928D01*
X02198090Y00234122D01*
X02198230Y00234319D01*
X02198365Y00234520D01*
X02198495Y00234724D01*
X02198620Y00234930D01*
X02198740Y00235140D01*
X02198855Y00235353D01*
X02198964Y00235568D01*
X02199069Y00235786D01*
X02199168Y00236006D01*
X02199262Y00236229D01*
X02199350Y00236454D01*
X02199433Y00236681D01*
X02199511Y00236910D01*
X02199582Y00237141D01*
X02199649Y00237373D01*
X02199709Y00237607D01*
X02199764Y00237842D01*
X02199814Y00238079D01*
X02199857Y00238316D01*
X02199895Y00238555D01*
X02199927Y00238795D01*
X02199953Y00239035D01*
X02199974Y00239276D01*
X02199988Y00239517D01*
X02199997Y00239758D01*
X02200000Y00240000D01*
X01375000Y00240000D02*
X01375000Y00310000D01*
X01374997Y00310242D01*
X01374988Y00310483D01*
X01374974Y00310724D01*
X01374953Y00310965D01*
X01374927Y00311205D01*
X01374895Y00311445D01*
X01374857Y00311684D01*
X01374814Y00311921D01*
X01374764Y00312158D01*
X01374709Y00312393D01*
X01374649Y00312627D01*
X01374582Y00312859D01*
X01374511Y00313090D01*
X01374433Y00313319D01*
X01374350Y00313546D01*
X01374262Y00313771D01*
X01374168Y00313994D01*
X01374069Y00314214D01*
X01373964Y00314432D01*
X01373855Y00314647D01*
X01373740Y00314860D01*
X01373620Y00315070D01*
X01373495Y00315276D01*
X01373365Y00315480D01*
X01373230Y00315681D01*
X01373090Y00315878D01*
X01372946Y00316072D01*
X01372797Y00316262D01*
X01372643Y00316448D01*
X01372485Y00316631D01*
X01372323Y00316810D01*
X01372156Y00316985D01*
X01371985Y00317156D01*
X01371810Y00317323D01*
X01371631Y00317485D01*
X01371448Y00317643D01*
X01371262Y00317797D01*
X01371072Y00317946D01*
X01370878Y00318090D01*
X01370681Y00318230D01*
X01370480Y00318365D01*
X01370276Y00318495D01*
X01370070Y00318620D01*
X01369860Y00318740D01*
X01369647Y00318855D01*
X01369432Y00318964D01*
X01369214Y00319069D01*
X01368994Y00319168D01*
X01368771Y00319262D01*
X01368546Y00319350D01*
X01368319Y00319433D01*
X01368090Y00319511D01*
X01367859Y00319582D01*
X01367627Y00319649D01*
X01367393Y00319709D01*
X01367158Y00319764D01*
X01366921Y00319814D01*
X01366684Y00319857D01*
X01366445Y00319895D01*
X01366205Y00319927D01*
X01365965Y00319953D01*
X01365724Y00319974D01*
X01365483Y00319988D01*
X01365242Y00319997D01*
X01365000Y00320000D01*
X01350000Y00320000D01*
X01345000Y00315000D01*
X01155000Y00315000D01*
X01150000Y00320000D01*
X01135000Y00320000D01*
X01134758Y00319997D01*
X01134517Y00319988D01*
X01134276Y00319974D01*
X01134035Y00319953D01*
X01133795Y00319927D01*
X01133555Y00319895D01*
X01133316Y00319857D01*
X01133079Y00319814D01*
X01132842Y00319764D01*
X01132607Y00319709D01*
X01132373Y00319649D01*
X01132141Y00319582D01*
X01131910Y00319511D01*
X01131681Y00319433D01*
X01131454Y00319350D01*
X01131229Y00319262D01*
X01131006Y00319168D01*
X01130786Y00319069D01*
X01130568Y00318964D01*
X01130353Y00318855D01*
X01130140Y00318740D01*
X01129930Y00318620D01*
X01129724Y00318495D01*
X01129520Y00318365D01*
X01129319Y00318230D01*
X01129122Y00318090D01*
X01128928Y00317946D01*
X01128738Y00317797D01*
X01128552Y00317643D01*
X01128369Y00317485D01*
X01128190Y00317323D01*
X01128015Y00317156D01*
X01127844Y00316985D01*
X01127677Y00316810D01*
X01127515Y00316631D01*
X01127357Y00316448D01*
X01127203Y00316262D01*
X01127054Y00316072D01*
X01126910Y00315878D01*
X01126770Y00315681D01*
X01126635Y00315480D01*
X01126505Y00315276D01*
X01126380Y00315070D01*
X01126260Y00314860D01*
X01126145Y00314647D01*
X01126036Y00314432D01*
X01125931Y00314214D01*
X01125832Y00313994D01*
X01125738Y00313771D01*
X01125650Y00313546D01*
X01125567Y00313319D01*
X01125489Y00313090D01*
X01125418Y00312859D01*
X01125351Y00312627D01*
X01125291Y00312393D01*
X01125236Y00312158D01*
X01125186Y00311921D01*
X01125143Y00311684D01*
X01125105Y00311445D01*
X01125073Y00311205D01*
X01125047Y00310965D01*
X01125026Y00310724D01*
X01125012Y00310483D01*
X01125003Y00310242D01*
X01125000Y00310000D01*
X01125000Y00240000D01*
X01125003Y00239758D01*
X01125012Y00239517D01*
X01125026Y00239276D01*
X01125047Y00239035D01*
X01125073Y00238795D01*
X01125105Y00238555D01*
X01125143Y00238316D01*
X01125186Y00238079D01*
X01125236Y00237842D01*
X01125291Y00237607D01*
X01125351Y00237373D01*
X01125418Y00237141D01*
X01125489Y00236910D01*
X01125567Y00236681D01*
X01125650Y00236454D01*
X01125738Y00236229D01*
X01125832Y00236006D01*
X01125931Y00235786D01*
X01126036Y00235568D01*
X01126145Y00235353D01*
X01126260Y00235140D01*
X01126380Y00234930D01*
X01126505Y00234724D01*
X01126635Y00234520D01*
X01126770Y00234319D01*
X01126910Y00234122D01*
X01127054Y00233928D01*
X01127203Y00233738D01*
X01127357Y00233552D01*
X01127515Y00233369D01*
X01127677Y00233190D01*
X01127844Y00233015D01*
X01128015Y00232844D01*
X01128190Y00232677D01*
X01128369Y00232515D01*
X01128552Y00232357D01*
X01128738Y00232203D01*
X01128928Y00232054D01*
X01129122Y00231910D01*
X01129319Y00231770D01*
X01129520Y00231635D01*
X01129724Y00231505D01*
X01129930Y00231380D01*
X01130140Y00231260D01*
X01130353Y00231145D01*
X01130568Y00231036D01*
X01130786Y00230931D01*
X01131006Y00230832D01*
X01131229Y00230738D01*
X01131454Y00230650D01*
X01131681Y00230567D01*
X01131910Y00230489D01*
X01132141Y00230418D01*
X01132373Y00230351D01*
X01132607Y00230291D01*
X01132842Y00230236D01*
X01133079Y00230186D01*
X01133316Y00230143D01*
X01133555Y00230105D01*
X01133795Y00230073D01*
X01134035Y00230047D01*
X01134276Y00230026D01*
X01134517Y00230012D01*
X01134758Y00230003D01*
X01135000Y00230000D01*
X01150000Y00230000D01*
X01155000Y00235000D01*
X01345000Y00235000D01*
X01350000Y00230000D01*
X01365000Y00230000D01*
X01365242Y00230003D01*
X01365483Y00230012D01*
X01365724Y00230026D01*
X01365965Y00230047D01*
X01366205Y00230073D01*
X01366445Y00230105D01*
X01366684Y00230143D01*
X01366921Y00230186D01*
X01367158Y00230236D01*
X01367393Y00230291D01*
X01367627Y00230351D01*
X01367859Y00230418D01*
X01368090Y00230489D01*
X01368319Y00230567D01*
X01368546Y00230650D01*
X01368771Y00230738D01*
X01368994Y00230832D01*
X01369214Y00230931D01*
X01369432Y00231036D01*
X01369647Y00231145D01*
X01369860Y00231260D01*
X01370070Y00231380D01*
X01370276Y00231505D01*
X01370480Y00231635D01*
X01370681Y00231770D01*
X01370878Y00231910D01*
X01371072Y00232054D01*
X01371262Y00232203D01*
X01371448Y00232357D01*
X01371631Y00232515D01*
X01371810Y00232677D01*
X01371985Y00232844D01*
X01372156Y00233015D01*
X01372323Y00233190D01*
X01372485Y00233369D01*
X01372643Y00233552D01*
X01372797Y00233738D01*
X01372946Y00233928D01*
X01373090Y00234122D01*
X01373230Y00234319D01*
X01373365Y00234520D01*
X01373495Y00234724D01*
X01373620Y00234930D01*
X01373740Y00235140D01*
X01373855Y00235353D01*
X01373964Y00235568D01*
X01374069Y00235786D01*
X01374168Y00236006D01*
X01374262Y00236229D01*
X01374350Y00236454D01*
X01374433Y00236681D01*
X01374511Y00236910D01*
X01374582Y00237141D01*
X01374649Y00237373D01*
X01374709Y00237607D01*
X01374764Y00237842D01*
X01374814Y00238079D01*
X01374857Y00238316D01*
X01374895Y00238555D01*
X01374927Y00238795D01*
X01374953Y00239035D01*
X01374974Y00239276D01*
X01374988Y00239517D01*
X01374997Y00239758D01*
X01375000Y00240000D01*
X01325000Y00150000D02*
X01275000Y00150000D01*
X01250000Y00125000D01*
X01225000Y00150000D01*
X01175000Y00150000D01*
X01150000Y00125000D01*
X01125000Y00150000D01*
X01075000Y00150000D01*
X01050000Y00125000D01*
X01050000Y00075000D01*
X01075000Y00050000D01*
X01125000Y00050000D01*
X01150000Y00075000D01*
X01150000Y00125000D01*
X01250000Y00125000D02*
X01250000Y00075000D01*
X01225000Y00050000D01*
X01175000Y00050000D01*
X01150000Y00075000D01*
X01250000Y00075000D02*
X01275000Y00050000D01*
X01325000Y00050000D01*
X01350000Y00075000D01*
X01350000Y00125000D01*
X01325000Y00150000D01*
X00875000Y00240000D02*
X00875000Y00310000D01*
X00874997Y00310242D01*
X00874988Y00310483D01*
X00874974Y00310724D01*
X00874953Y00310965D01*
X00874927Y00311205D01*
X00874895Y00311445D01*
X00874857Y00311684D01*
X00874814Y00311921D01*
X00874764Y00312158D01*
X00874709Y00312393D01*
X00874649Y00312627D01*
X00874582Y00312859D01*
X00874511Y00313090D01*
X00874433Y00313319D01*
X00874350Y00313546D01*
X00874262Y00313771D01*
X00874168Y00313994D01*
X00874069Y00314214D01*
X00873964Y00314432D01*
X00873855Y00314647D01*
X00873740Y00314860D01*
X00873620Y00315070D01*
X00873495Y00315276D01*
X00873365Y00315480D01*
X00873230Y00315681D01*
X00873090Y00315878D01*
X00872946Y00316072D01*
X00872797Y00316262D01*
X00872643Y00316448D01*
X00872485Y00316631D01*
X00872323Y00316810D01*
X00872156Y00316985D01*
X00871985Y00317156D01*
X00871810Y00317323D01*
X00871631Y00317485D01*
X00871448Y00317643D01*
X00871262Y00317797D01*
X00871072Y00317946D01*
X00870878Y00318090D01*
X00870681Y00318230D01*
X00870480Y00318365D01*
X00870276Y00318495D01*
X00870070Y00318620D01*
X00869860Y00318740D01*
X00869647Y00318855D01*
X00869432Y00318964D01*
X00869214Y00319069D01*
X00868994Y00319168D01*
X00868771Y00319262D01*
X00868546Y00319350D01*
X00868319Y00319433D01*
X00868090Y00319511D01*
X00867859Y00319582D01*
X00867627Y00319649D01*
X00867393Y00319709D01*
X00867158Y00319764D01*
X00866921Y00319814D01*
X00866684Y00319857D01*
X00866445Y00319895D01*
X00866205Y00319927D01*
X00865965Y00319953D01*
X00865724Y00319974D01*
X00865483Y00319988D01*
X00865242Y00319997D01*
X00865000Y00320000D01*
X00850000Y00320000D01*
X00845000Y00315000D01*
X00655000Y00315000D01*
X00650000Y00320000D01*
X00635000Y00320000D01*
X00634758Y00319997D01*
X00634517Y00319988D01*
X00634276Y00319974D01*
X00634035Y00319953D01*
X00633795Y00319927D01*
X00633555Y00319895D01*
X00633316Y00319857D01*
X00633079Y00319814D01*
X00632842Y00319764D01*
X00632607Y00319709D01*
X00632373Y00319649D01*
X00632141Y00319582D01*
X00631910Y00319511D01*
X00631681Y00319433D01*
X00631454Y00319350D01*
X00631229Y00319262D01*
X00631006Y00319168D01*
X00630786Y00319069D01*
X00630568Y00318964D01*
X00630353Y00318855D01*
X00630140Y00318740D01*
X00629930Y00318620D01*
X00629724Y00318495D01*
X00629520Y00318365D01*
X00629319Y00318230D01*
X00629122Y00318090D01*
X00628928Y00317946D01*
X00628738Y00317797D01*
X00628552Y00317643D01*
X00628369Y00317485D01*
X00628190Y00317323D01*
X00628015Y00317156D01*
X00627844Y00316985D01*
X00627677Y00316810D01*
X00627515Y00316631D01*
X00627357Y00316448D01*
X00627203Y00316262D01*
X00627054Y00316072D01*
X00626910Y00315878D01*
X00626770Y00315681D01*
X00626635Y00315480D01*
X00626505Y00315276D01*
X00626380Y00315070D01*
X00626260Y00314860D01*
X00626145Y00314647D01*
X00626036Y00314432D01*
X00625931Y00314214D01*
X00625832Y00313994D01*
X00625738Y00313771D01*
X00625650Y00313546D01*
X00625567Y00313319D01*
X00625489Y00313090D01*
X00625418Y00312859D01*
X00625351Y00312627D01*
X00625291Y00312393D01*
X00625236Y00312158D01*
X00625186Y00311921D01*
X00625143Y00311684D01*
X00625105Y00311445D01*
X00625073Y00311205D01*
X00625047Y00310965D01*
X00625026Y00310724D01*
X00625012Y00310483D01*
X00625003Y00310242D01*
X00625000Y00310000D01*
X00625000Y00240000D01*
X00625003Y00239758D01*
X00625012Y00239517D01*
X00625026Y00239276D01*
X00625047Y00239035D01*
X00625073Y00238795D01*
X00625105Y00238555D01*
X00625143Y00238316D01*
X00625186Y00238079D01*
X00625236Y00237842D01*
X00625291Y00237607D01*
X00625351Y00237373D01*
X00625418Y00237141D01*
X00625489Y00236910D01*
X00625567Y00236681D01*
X00625650Y00236454D01*
X00625738Y00236229D01*
X00625832Y00236006D01*
X00625931Y00235786D01*
X00626036Y00235568D01*
X00626145Y00235353D01*
X00626260Y00235140D01*
X00626380Y00234930D01*
X00626505Y00234724D01*
X00626635Y00234520D01*
X00626770Y00234319D01*
X00626910Y00234122D01*
X00627054Y00233928D01*
X00627203Y00233738D01*
X00627357Y00233552D01*
X00627515Y00233369D01*
X00627677Y00233190D01*
X00627844Y00233015D01*
X00628015Y00232844D01*
X00628190Y00232677D01*
X00628369Y00232515D01*
X00628552Y00232357D01*
X00628738Y00232203D01*
X00628928Y00232054D01*
X00629122Y00231910D01*
X00629319Y00231770D01*
X00629520Y00231635D01*
X00629724Y00231505D01*
X00629930Y00231380D01*
X00630140Y00231260D01*
X00630353Y00231145D01*
X00630568Y00231036D01*
X00630786Y00230931D01*
X00631006Y00230832D01*
X00631229Y00230738D01*
X00631454Y00230650D01*
X00631681Y00230567D01*
X00631910Y00230489D01*
X00632141Y00230418D01*
X00632373Y00230351D01*
X00632607Y00230291D01*
X00632842Y00230236D01*
X00633079Y00230186D01*
X00633316Y00230143D01*
X00633555Y00230105D01*
X00633795Y00230073D01*
X00634035Y00230047D01*
X00634276Y00230026D01*
X00634517Y00230012D01*
X00634758Y00230003D01*
X00635000Y00230000D01*
X00650000Y00230000D01*
X00655000Y00235000D01*
X00845000Y00235000D01*
X00850000Y00230000D01*
X00865000Y00230000D01*
X00865242Y00230003D01*
X00865483Y00230012D01*
X00865724Y00230026D01*
X00865965Y00230047D01*
X00866205Y00230073D01*
X00866445Y00230105D01*
X00866684Y00230143D01*
X00866921Y00230186D01*
X00867158Y00230236D01*
X00867393Y00230291D01*
X00867627Y00230351D01*
X00867859Y00230418D01*
X00868090Y00230489D01*
X00868319Y00230567D01*
X00868546Y00230650D01*
X00868771Y00230738D01*
X00868994Y00230832D01*
X00869214Y00230931D01*
X00869432Y00231036D01*
X00869647Y00231145D01*
X00869860Y00231260D01*
X00870070Y00231380D01*
X00870276Y00231505D01*
X00870480Y00231635D01*
X00870681Y00231770D01*
X00870878Y00231910D01*
X00871072Y00232054D01*
X00871262Y00232203D01*
X00871448Y00232357D01*
X00871631Y00232515D01*
X00871810Y00232677D01*
X00871985Y00232844D01*
X00872156Y00233015D01*
X00872323Y00233190D01*
X00872485Y00233369D01*
X00872643Y00233552D01*
X00872797Y00233738D01*
X00872946Y00233928D01*
X00873090Y00234122D01*
X00873230Y00234319D01*
X00873365Y00234520D01*
X00873495Y00234724D01*
X00873620Y00234930D01*
X00873740Y00235140D01*
X00873855Y00235353D01*
X00873964Y00235568D01*
X00874069Y00235786D01*
X00874168Y00236006D01*
X00874262Y00236229D01*
X00874350Y00236454D01*
X00874433Y00236681D01*
X00874511Y00236910D01*
X00874582Y00237141D01*
X00874649Y00237373D01*
X00874709Y00237607D01*
X00874764Y00237842D01*
X00874814Y00238079D01*
X00874857Y00238316D01*
X00874895Y00238555D01*
X00874927Y00238795D01*
X00874953Y00239035D01*
X00874974Y00239276D01*
X00874988Y00239517D01*
X00874997Y00239758D01*
X00875000Y00240000D01*
D12*
X01057500Y00337500D02*
X01057500Y00382538D01*
X01080019Y00382538D01*
X01087526Y00375032D01*
X01087526Y00360019D01*
X01080019Y00352513D01*
X01057500Y00352513D01*
X01072513Y00352513D02*
X01087526Y00337500D01*
X01103539Y00337500D02*
X01133565Y00367526D01*
X01133565Y00375032D01*
X01126058Y00382538D01*
X01111046Y00382538D01*
X01103539Y00375032D01*
X01103539Y00337500D02*
X01133565Y00337500D01*
X00656486Y00342500D02*
X00626461Y00342500D01*
X00641473Y00342500D02*
X00641473Y00387538D01*
X00626461Y00372526D01*
X00610447Y00380032D02*
X00610447Y00365019D01*
X00602941Y00357513D01*
X00580421Y00357513D01*
X00580421Y00342500D02*
X00580421Y00387538D01*
X00602941Y00387538D01*
X00610447Y00380032D01*
X00595434Y00357513D02*
X00610447Y00342500D01*
X01882500Y00337500D02*
X01882500Y00382538D01*
X01905019Y00382538D01*
X01912526Y00375032D01*
X01912526Y00360019D01*
X01905019Y00352513D01*
X01882500Y00352513D01*
X01897513Y00352513D02*
X01912526Y00337500D01*
X01928539Y00345006D02*
X01936046Y00337500D01*
X01951058Y00337500D01*
X01958565Y00345006D01*
X01958565Y00352513D01*
X01951058Y00360019D01*
X01943552Y00360019D01*
X01951058Y00360019D02*
X01958565Y00367526D01*
X01958565Y00375032D01*
X01951058Y00382538D01*
X01936046Y00382538D01*
X01928539Y00375032D01*
X02682500Y00382538D02*
X02682500Y00337500D01*
X02682500Y00352513D02*
X02705019Y00352513D01*
X02712526Y00360019D01*
X02712526Y00375032D01*
X02705019Y00382538D01*
X02682500Y00382538D01*
X02697513Y00352513D02*
X02712526Y00337500D01*
X02728539Y00360019D02*
X02758565Y00360019D01*
X02751058Y00337500D02*
X02751058Y00382538D01*
X02728539Y00360019D01*
X03507500Y00352513D02*
X03530019Y00352513D01*
X03537526Y00360019D01*
X03537526Y00375032D01*
X03530019Y00382538D01*
X03507500Y00382538D01*
X03507500Y00337500D01*
X03522513Y00352513D02*
X03537526Y00337500D01*
X03553539Y00345006D02*
X03561046Y00337500D01*
X03576058Y00337500D01*
X03583565Y00345006D01*
X03583565Y00360019D01*
X03576058Y00367526D01*
X03568552Y00367526D01*
X03553539Y00360019D01*
X03553539Y00382538D01*
X03583565Y00382538D01*
X04357500Y00382538D02*
X04357500Y00337500D01*
X04357500Y00352513D02*
X04380019Y00352513D01*
X04387526Y00360019D01*
X04387526Y00375032D01*
X04380019Y00382538D01*
X04357500Y00382538D01*
X04403539Y00360019D02*
X04418552Y00375032D01*
X04433565Y00382538D01*
X04426058Y00360019D02*
X04403539Y00360019D01*
X04403539Y00345006D01*
X04411046Y00337500D01*
X04426058Y00337500D01*
X04433565Y00345006D01*
X04433565Y00352513D01*
X04426058Y00360019D01*
X04387526Y00337500D02*
X04372513Y00352513D01*
X04190945Y00606890D02*
X04197855Y00597460D01*
X04204993Y00588202D01*
X04212354Y00579121D01*
X04219935Y00570222D01*
X04227730Y00561510D01*
X04235735Y00552991D01*
X04243946Y00544669D01*
X04252356Y00536550D01*
X04260962Y00528639D01*
X04269759Y00520939D01*
X04278740Y00513456D01*
X04287901Y00506194D01*
X04297237Y00499158D01*
X04306741Y00492351D01*
X04316408Y00485778D01*
X04326233Y00479442D01*
X04336208Y00473348D01*
X04346330Y00467499D01*
X04356591Y00461898D01*
X04366986Y00456549D01*
X04377507Y00451454D01*
X04388150Y00446618D01*
X04398908Y00442042D01*
X04409774Y00437730D01*
X04420741Y00433684D01*
X04431804Y00429907D01*
X04442956Y00426400D01*
X04454190Y00423166D01*
X04465499Y00420207D01*
X04476878Y00417525D01*
X04488318Y00415120D01*
X04499813Y00412995D01*
X04511357Y00411151D01*
X04522942Y00409588D01*
X04534562Y00408309D01*
X04546210Y00407313D01*
X04557878Y00406601D01*
X04569561Y00406173D01*
X04581250Y00406031D01*
X04592939Y00406173D01*
X04604622Y00406601D01*
X04616290Y00407313D01*
X04627938Y00408309D01*
X04639558Y00409588D01*
X04651143Y00411151D01*
X04662687Y00412995D01*
X04674182Y00415120D01*
X04685622Y00417525D01*
X04697001Y00420207D01*
X04708310Y00423166D01*
X04719544Y00426400D01*
X04730696Y00429907D01*
X04741759Y00433684D01*
X04752726Y00437730D01*
X04763592Y00442042D01*
X04774350Y00446618D01*
X04784993Y00451454D01*
X04795514Y00456549D01*
X04805909Y00461898D01*
X04816170Y00467499D01*
X04826292Y00473348D01*
X04836267Y00479442D01*
X04846092Y00485778D01*
X04855759Y00492351D01*
X04865263Y00499158D01*
X04874599Y00506194D01*
X04883760Y00513456D01*
X04892741Y00520939D01*
X04901538Y00528639D01*
X04910144Y00536550D01*
X04918554Y00544669D01*
X04926765Y00552991D01*
X04934770Y00561510D01*
X04942565Y00570222D01*
X04950146Y00579121D01*
X04957507Y00588202D01*
X04964645Y00597460D01*
X04971555Y00606890D01*
X04500000Y00975000D02*
X04500030Y00977454D01*
X04500120Y00979907D01*
X04500271Y00982356D01*
X04500482Y00984802D01*
X04500752Y00987241D01*
X04501082Y00989673D01*
X04501472Y00992096D01*
X04501921Y00994509D01*
X04502430Y00996910D01*
X04502997Y00999298D01*
X04503622Y01001671D01*
X04504306Y01004028D01*
X04505047Y01006368D01*
X04505846Y01008689D01*
X04506701Y01010990D01*
X04507612Y01013268D01*
X04508579Y01015524D01*
X04509601Y01017756D01*
X04510678Y01019961D01*
X04511808Y01022140D01*
X04512991Y01024290D01*
X04514227Y01026410D01*
X04515515Y01028500D01*
X04516853Y01030557D01*
X04518242Y01032581D01*
X04519679Y01034570D01*
X04521165Y01036523D01*
X04522699Y01038439D01*
X04524279Y01040317D01*
X04525905Y01042156D01*
X04527575Y01043954D01*
X04529289Y01045711D01*
X04531046Y01047425D01*
X04532844Y01049095D01*
X04534683Y01050721D01*
X04536561Y01052301D01*
X04538477Y01053835D01*
X04540430Y01055321D01*
X04542419Y01056758D01*
X04544443Y01058147D01*
X04546500Y01059485D01*
X04548590Y01060773D01*
X04550710Y01062009D01*
X04552860Y01063192D01*
X04555039Y01064322D01*
X04557244Y01065399D01*
X04559476Y01066421D01*
X04561732Y01067388D01*
X04564010Y01068299D01*
X04566311Y01069154D01*
X04568632Y01069953D01*
X04570972Y01070694D01*
X04573329Y01071378D01*
X04575702Y01072003D01*
X04578090Y01072570D01*
X04580491Y01073079D01*
X04582904Y01073528D01*
X04585327Y01073918D01*
X04587759Y01074248D01*
X04590198Y01074518D01*
X04592644Y01074729D01*
X04595093Y01074880D01*
X04597546Y01074970D01*
X04600000Y01075000D01*
X04602454Y01074970D01*
X04604907Y01074880D01*
X04607356Y01074729D01*
X04609802Y01074518D01*
X04612241Y01074248D01*
X04614673Y01073918D01*
X04617096Y01073528D01*
X04619509Y01073079D01*
X04621910Y01072570D01*
X04624298Y01072003D01*
X04626671Y01071378D01*
X04629028Y01070694D01*
X04631368Y01069953D01*
X04633689Y01069154D01*
X04635990Y01068299D01*
X04638268Y01067388D01*
X04640524Y01066421D01*
X04642756Y01065399D01*
X04644961Y01064322D01*
X04647140Y01063192D01*
X04649290Y01062009D01*
X04651410Y01060773D01*
X04653500Y01059485D01*
X04655557Y01058147D01*
X04657581Y01056758D01*
X04659570Y01055321D01*
X04661523Y01053835D01*
X04663439Y01052301D01*
X04665317Y01050721D01*
X04667156Y01049095D01*
X04668954Y01047425D01*
X04670711Y01045711D01*
X04672425Y01043954D01*
X04674095Y01042156D01*
X04675721Y01040317D01*
X04677301Y01038439D01*
X04678835Y01036523D01*
X04680321Y01034570D01*
X04681758Y01032581D01*
X04683147Y01030557D01*
X04684485Y01028500D01*
X04685773Y01026410D01*
X04687009Y01024290D01*
X04688192Y01022140D01*
X04689322Y01019961D01*
X04690399Y01017756D01*
X04691421Y01015524D01*
X04692388Y01013268D01*
X04693299Y01010990D01*
X04694154Y01008689D01*
X04694953Y01006368D01*
X04695694Y01004028D01*
X04696378Y01001671D01*
X04697003Y00999298D01*
X04697570Y00996910D01*
X04698079Y00994509D01*
X04698528Y00992096D01*
X04698918Y00989673D01*
X04699248Y00987241D01*
X04699518Y00984802D01*
X04699729Y00982356D01*
X04699880Y00979907D01*
X04699970Y00977454D01*
X04700000Y00975000D01*
X04699970Y00972546D01*
X04699880Y00970093D01*
X04699729Y00967644D01*
X04699518Y00965198D01*
X04699248Y00962759D01*
X04698918Y00960327D01*
X04698528Y00957904D01*
X04698079Y00955491D01*
X04697570Y00953090D01*
X04697003Y00950702D01*
X04696378Y00948329D01*
X04695694Y00945972D01*
X04694953Y00943632D01*
X04694154Y00941311D01*
X04693299Y00939010D01*
X04692388Y00936732D01*
X04691421Y00934476D01*
X04690399Y00932244D01*
X04689322Y00930039D01*
X04688192Y00927860D01*
X04687009Y00925710D01*
X04685773Y00923590D01*
X04684485Y00921500D01*
X04683147Y00919443D01*
X04681758Y00917419D01*
X04680321Y00915430D01*
X04678835Y00913477D01*
X04677301Y00911561D01*
X04675721Y00909683D01*
X04674095Y00907844D01*
X04672425Y00906046D01*
X04670711Y00904289D01*
X04668954Y00902575D01*
X04667156Y00900905D01*
X04665317Y00899279D01*
X04663439Y00897699D01*
X04661523Y00896165D01*
X04659570Y00894679D01*
X04657581Y00893242D01*
X04655557Y00891853D01*
X04653500Y00890515D01*
X04651410Y00889227D01*
X04649290Y00887991D01*
X04647140Y00886808D01*
X04644961Y00885678D01*
X04642756Y00884601D01*
X04640524Y00883579D01*
X04638268Y00882612D01*
X04635990Y00881701D01*
X04633689Y00880846D01*
X04631368Y00880047D01*
X04629028Y00879306D01*
X04626671Y00878622D01*
X04624298Y00877997D01*
X04621910Y00877430D01*
X04619509Y00876921D01*
X04617096Y00876472D01*
X04614673Y00876082D01*
X04612241Y00875752D01*
X04609802Y00875482D01*
X04607356Y00875271D01*
X04604907Y00875120D01*
X04602454Y00875030D01*
X04600000Y00875000D01*
X04597546Y00875030D01*
X04595093Y00875120D01*
X04592644Y00875271D01*
X04590198Y00875482D01*
X04587759Y00875752D01*
X04585327Y00876082D01*
X04582904Y00876472D01*
X04580491Y00876921D01*
X04578090Y00877430D01*
X04575702Y00877997D01*
X04573329Y00878622D01*
X04570972Y00879306D01*
X04568632Y00880047D01*
X04566311Y00880846D01*
X04564010Y00881701D01*
X04561732Y00882612D01*
X04559476Y00883579D01*
X04557244Y00884601D01*
X04555039Y00885678D01*
X04552860Y00886808D01*
X04550710Y00887991D01*
X04548590Y00889227D01*
X04546500Y00890515D01*
X04544443Y00891853D01*
X04542419Y00893242D01*
X04540430Y00894679D01*
X04538477Y00896165D01*
X04536561Y00897699D01*
X04534683Y00899279D01*
X04532844Y00900905D01*
X04531046Y00902575D01*
X04529289Y00904289D01*
X04527575Y00906046D01*
X04525905Y00907844D01*
X04524279Y00909683D01*
X04522699Y00911561D01*
X04521165Y00913477D01*
X04519679Y00915430D01*
X04518242Y00917419D01*
X04516853Y00919443D01*
X04515515Y00921500D01*
X04514227Y00923590D01*
X04512991Y00925710D01*
X04511808Y00927860D01*
X04510678Y00930039D01*
X04509601Y00932244D01*
X04508579Y00934476D01*
X04507612Y00936732D01*
X04506701Y00939010D01*
X04505846Y00941311D01*
X04505047Y00943632D01*
X04504306Y00945972D01*
X04503622Y00948329D01*
X04502997Y00950702D01*
X04502430Y00953090D01*
X04501921Y00955491D01*
X04501472Y00957904D01*
X04501082Y00960327D01*
X04500752Y00962759D01*
X04500482Y00965198D01*
X04500271Y00967644D01*
X04500120Y00970093D01*
X04500030Y00972546D01*
X04500000Y00975000D01*
X04190945Y01355610D02*
X04198560Y01365063D01*
X04206403Y01374328D01*
X04214471Y01383398D01*
X04222758Y01392268D01*
X04231260Y01400932D01*
X04239971Y01409386D01*
X04248886Y01417625D01*
X04258000Y01425643D01*
X04267307Y01433435D01*
X04276802Y01440998D01*
X04286479Y01448326D01*
X04296333Y01455416D01*
X04306356Y01462262D01*
X04316545Y01468861D01*
X04326891Y01475209D01*
X04337390Y01481302D01*
X04348035Y01487137D01*
X04358819Y01492709D01*
X04369736Y01498016D01*
X04380780Y01503054D01*
X04391944Y01507821D01*
X04403221Y01512314D01*
X04414604Y01516529D01*
X04426087Y01520465D01*
X04437663Y01524118D01*
X04449325Y01527488D01*
X04461066Y01530571D01*
X04472878Y01533366D01*
X04484756Y01535871D01*
X04496691Y01538086D01*
X04508677Y01540007D01*
X04520706Y01541635D01*
X04532771Y01542969D01*
X04544865Y01544007D01*
X04556981Y01544748D01*
X04569112Y01545194D01*
X04581250Y01545342D01*
X04593388Y01545194D01*
X04605519Y01544748D01*
X04617635Y01544007D01*
X04629729Y01542969D01*
X04641794Y01541635D01*
X04653823Y01540007D01*
X04665809Y01538086D01*
X04677744Y01535871D01*
X04689622Y01533366D01*
X04701434Y01530571D01*
X04713175Y01527488D01*
X04724837Y01524118D01*
X04736413Y01520465D01*
X04747896Y01516529D01*
X04759279Y01512314D01*
X04770556Y01507821D01*
X04781720Y01503054D01*
X04792764Y01498016D01*
X04803681Y01492709D01*
X04814465Y01487137D01*
X04825110Y01481302D01*
X04835609Y01475209D01*
X04845955Y01468861D01*
X04856144Y01462262D01*
X04866167Y01455416D01*
X04876021Y01448326D01*
X04885698Y01440998D01*
X04895193Y01433435D01*
X04904500Y01425643D01*
X04913614Y01417625D01*
X04922529Y01409386D01*
X04931240Y01400932D01*
X04939742Y01392268D01*
X04948029Y01383398D01*
X04956097Y01374328D01*
X04963940Y01365063D01*
X04971555Y01355610D01*
X04171555Y01355610D02*
X04163940Y01365063D01*
X04156097Y01374328D01*
X04148029Y01383398D01*
X04139742Y01392268D01*
X04131240Y01400932D01*
X04122529Y01409386D01*
X04113614Y01417625D01*
X04104500Y01425643D01*
X04095193Y01433435D01*
X04085698Y01440998D01*
X04076021Y01448326D01*
X04066167Y01455416D01*
X04056144Y01462262D01*
X04045955Y01468861D01*
X04035609Y01475209D01*
X04025110Y01481302D01*
X04014465Y01487137D01*
X04003681Y01492709D01*
X03992764Y01498016D01*
X03981720Y01503054D01*
X03970556Y01507821D01*
X03959279Y01512314D01*
X03947896Y01516529D01*
X03936413Y01520465D01*
X03924837Y01524118D01*
X03913175Y01527488D01*
X03901434Y01530571D01*
X03889622Y01533366D01*
X03877744Y01535871D01*
X03865809Y01538086D01*
X03853823Y01540007D01*
X03841794Y01541635D01*
X03829729Y01542969D01*
X03817635Y01544007D01*
X03805519Y01544748D01*
X03793388Y01545194D01*
X03781250Y01545342D01*
X03769112Y01545194D01*
X03756981Y01544748D01*
X03744865Y01544007D01*
X03732771Y01542969D01*
X03720706Y01541635D01*
X03708677Y01540007D01*
X03696691Y01538086D01*
X03684756Y01535871D01*
X03672878Y01533366D01*
X03661066Y01530571D01*
X03649325Y01527488D01*
X03637663Y01524118D01*
X03626087Y01520465D01*
X03614604Y01516529D01*
X03603221Y01512314D01*
X03591944Y01507821D01*
X03580780Y01503054D01*
X03569736Y01498016D01*
X03558819Y01492709D01*
X03548035Y01487137D01*
X03537390Y01481302D01*
X03526891Y01475209D01*
X03516545Y01468861D01*
X03506356Y01462262D01*
X03496333Y01455416D01*
X03486479Y01448326D01*
X03476802Y01440998D01*
X03467307Y01433435D01*
X03458000Y01425643D01*
X03448886Y01417625D01*
X03439971Y01409386D01*
X03431260Y01400932D01*
X03422758Y01392268D01*
X03414471Y01383398D01*
X03406403Y01374328D01*
X03398560Y01365063D01*
X03390945Y01355610D01*
X03296555Y01355610D02*
X03288940Y01365063D01*
X03281097Y01374328D01*
X03273029Y01383398D01*
X03264742Y01392268D01*
X03256240Y01400932D01*
X03247529Y01409386D01*
X03238614Y01417625D01*
X03229500Y01425643D01*
X03220193Y01433435D01*
X03210698Y01440998D01*
X03201021Y01448326D01*
X03191167Y01455416D01*
X03181144Y01462262D01*
X03170955Y01468861D01*
X03160609Y01475209D01*
X03150110Y01481302D01*
X03139465Y01487137D01*
X03128681Y01492709D01*
X03117764Y01498016D01*
X03106720Y01503054D01*
X03095556Y01507821D01*
X03084279Y01512314D01*
X03072896Y01516529D01*
X03061413Y01520465D01*
X03049837Y01524118D01*
X03038175Y01527488D01*
X03026434Y01530571D01*
X03014622Y01533366D01*
X03002744Y01535871D01*
X02990809Y01538086D01*
X02978823Y01540007D01*
X02966794Y01541635D01*
X02954729Y01542969D01*
X02942635Y01544007D01*
X02930519Y01544748D01*
X02918388Y01545194D01*
X02906250Y01545342D01*
X02894112Y01545194D01*
X02881981Y01544748D01*
X02869865Y01544007D01*
X02857771Y01542969D01*
X02845706Y01541635D01*
X02833677Y01540007D01*
X02821691Y01538086D01*
X02809756Y01535871D01*
X02797878Y01533366D01*
X02786066Y01530571D01*
X02774325Y01527488D01*
X02762663Y01524118D01*
X02751087Y01520465D01*
X02739604Y01516529D01*
X02728221Y01512314D01*
X02716944Y01507821D01*
X02705780Y01503054D01*
X02694736Y01498016D01*
X02683819Y01492709D01*
X02673035Y01487137D01*
X02662390Y01481302D01*
X02651891Y01475209D01*
X02641545Y01468861D01*
X02631356Y01462262D01*
X02621333Y01455416D01*
X02611479Y01448326D01*
X02601802Y01440998D01*
X02592307Y01433435D01*
X02583000Y01425643D01*
X02573886Y01417625D01*
X02564971Y01409386D01*
X02556260Y01400932D01*
X02547758Y01392268D01*
X02539471Y01383398D01*
X02531403Y01374328D01*
X02523560Y01365063D01*
X02515945Y01355610D01*
X02496555Y01355610D02*
X02488940Y01365063D01*
X02481097Y01374328D01*
X02473029Y01383398D01*
X02464742Y01392268D01*
X02456240Y01400932D01*
X02447529Y01409386D01*
X02438614Y01417625D01*
X02429500Y01425643D01*
X02420193Y01433435D01*
X02410698Y01440998D01*
X02401021Y01448326D01*
X02391167Y01455416D01*
X02381144Y01462262D01*
X02370955Y01468861D01*
X02360609Y01475209D01*
X02350110Y01481302D01*
X02339465Y01487137D01*
X02328681Y01492709D01*
X02317764Y01498016D01*
X02306720Y01503054D01*
X02295556Y01507821D01*
X02284279Y01512314D01*
X02272896Y01516529D01*
X02261413Y01520465D01*
X02249837Y01524118D01*
X02238175Y01527488D01*
X02226434Y01530571D01*
X02214622Y01533366D01*
X02202744Y01535871D01*
X02190809Y01538086D01*
X02178823Y01540007D01*
X02166794Y01541635D01*
X02154729Y01542969D01*
X02142635Y01544007D01*
X02130519Y01544748D01*
X02118388Y01545194D01*
X02106250Y01545342D01*
X02094112Y01545194D01*
X02081981Y01544748D01*
X02069865Y01544007D01*
X02057771Y01542969D01*
X02045706Y01541635D01*
X02033677Y01540007D01*
X02021691Y01538086D01*
X02009756Y01535871D01*
X01997878Y01533366D01*
X01986066Y01530571D01*
X01974325Y01527488D01*
X01962663Y01524118D01*
X01951087Y01520465D01*
X01939604Y01516529D01*
X01928221Y01512314D01*
X01916944Y01507821D01*
X01905780Y01503054D01*
X01894736Y01498016D01*
X01883819Y01492709D01*
X01873035Y01487137D01*
X01862390Y01481302D01*
X01851891Y01475209D01*
X01841545Y01468861D01*
X01831356Y01462262D01*
X01821333Y01455416D01*
X01811479Y01448326D01*
X01801802Y01440998D01*
X01792307Y01433435D01*
X01783000Y01425643D01*
X01773886Y01417625D01*
X01764971Y01409386D01*
X01756260Y01400932D01*
X01747758Y01392268D01*
X01739471Y01383398D01*
X01731403Y01374328D01*
X01723560Y01365063D01*
X01715945Y01355610D01*
X01621555Y01355610D02*
X01613940Y01365063D01*
X01606097Y01374328D01*
X01598029Y01383398D01*
X01589742Y01392268D01*
X01581240Y01400932D01*
X01572529Y01409386D01*
X01563614Y01417625D01*
X01554500Y01425643D01*
X01545193Y01433435D01*
X01535698Y01440998D01*
X01526021Y01448326D01*
X01516167Y01455416D01*
X01506144Y01462262D01*
X01495955Y01468861D01*
X01485609Y01475209D01*
X01475110Y01481302D01*
X01464465Y01487137D01*
X01453681Y01492709D01*
X01442764Y01498016D01*
X01431720Y01503054D01*
X01420556Y01507821D01*
X01409279Y01512314D01*
X01397896Y01516529D01*
X01386413Y01520465D01*
X01374837Y01524118D01*
X01363175Y01527488D01*
X01351434Y01530571D01*
X01339622Y01533366D01*
X01327744Y01535871D01*
X01315809Y01538086D01*
X01303823Y01540007D01*
X01291794Y01541635D01*
X01279729Y01542969D01*
X01267635Y01544007D01*
X01255519Y01544748D01*
X01243388Y01545194D01*
X01231250Y01545342D01*
X01219112Y01545194D01*
X01206981Y01544748D01*
X01194865Y01544007D01*
X01182771Y01542969D01*
X01170706Y01541635D01*
X01158677Y01540007D01*
X01146691Y01538086D01*
X01134756Y01535871D01*
X01122878Y01533366D01*
X01111066Y01530571D01*
X01099325Y01527488D01*
X01087663Y01524118D01*
X01076087Y01520465D01*
X01064604Y01516529D01*
X01053221Y01512314D01*
X01041944Y01507821D01*
X01030780Y01503054D01*
X01019736Y01498016D01*
X01008819Y01492709D01*
X00998035Y01487137D01*
X00987390Y01481302D01*
X00976891Y01475209D01*
X00966545Y01468861D01*
X00956356Y01462262D01*
X00946333Y01455416D01*
X00936479Y01448326D01*
X00926802Y01440998D01*
X00917307Y01433435D01*
X00908000Y01425643D01*
X00898886Y01417625D01*
X00889971Y01409386D01*
X00881260Y01400932D01*
X00872758Y01392268D01*
X00864471Y01383398D01*
X00856403Y01374328D01*
X00848560Y01365063D01*
X00840945Y01355610D01*
X00821555Y01355610D02*
X00813940Y01365063D01*
X00806097Y01374328D01*
X00798029Y01383398D01*
X00789742Y01392268D01*
X00781240Y01400932D01*
X00772529Y01409386D01*
X00763614Y01417625D01*
X00754500Y01425643D01*
X00745193Y01433435D01*
X00735698Y01440998D01*
X00726021Y01448326D01*
X00716167Y01455416D01*
X00706144Y01462262D01*
X00695955Y01468861D01*
X00685609Y01475209D01*
X00675110Y01481302D01*
X00664465Y01487137D01*
X00653681Y01492709D01*
X00642764Y01498016D01*
X00631720Y01503054D01*
X00620556Y01507821D01*
X00609279Y01512314D01*
X00597896Y01516529D01*
X00586413Y01520465D01*
X00574837Y01524118D01*
X00563175Y01527488D01*
X00551434Y01530571D01*
X00539622Y01533366D01*
X00527744Y01535871D01*
X00515809Y01538086D01*
X00503823Y01540007D01*
X00491794Y01541635D01*
X00479729Y01542969D01*
X00467635Y01544007D01*
X00455519Y01544748D01*
X00443388Y01545194D01*
X00431250Y01545342D01*
X00419112Y01545194D01*
X00406981Y01544748D01*
X00394865Y01544007D01*
X00382771Y01542969D01*
X00370706Y01541635D01*
X00358677Y01540007D01*
X00346691Y01538086D01*
X00334756Y01535871D01*
X00322878Y01533366D01*
X00311066Y01530571D01*
X00299325Y01527488D01*
X00287663Y01524118D01*
X00276087Y01520465D01*
X00264604Y01516529D01*
X00253221Y01512314D01*
X00241944Y01507821D01*
X00230780Y01503054D01*
X00219736Y01498016D01*
X00208819Y01492709D01*
X00198035Y01487137D01*
X00187390Y01481302D01*
X00176891Y01475209D01*
X00166545Y01468861D01*
X00156356Y01462262D01*
X00146333Y01455416D01*
X00136479Y01448326D01*
X00126802Y01440998D01*
X00117307Y01433435D01*
X00108000Y01425643D01*
X00098886Y01417625D01*
X00089971Y01409386D01*
X00081260Y01400932D01*
X00072758Y01392268D01*
X00064471Y01383398D01*
X00056403Y01374328D01*
X00048560Y01365063D01*
X00040945Y01355610D01*
X00350000Y00975000D02*
X00350030Y00977454D01*
X00350120Y00979907D01*
X00350271Y00982356D01*
X00350482Y00984802D01*
X00350752Y00987241D01*
X00351082Y00989673D01*
X00351472Y00992096D01*
X00351921Y00994509D01*
X00352430Y00996910D01*
X00352997Y00999298D01*
X00353622Y01001671D01*
X00354306Y01004028D01*
X00355047Y01006368D01*
X00355846Y01008689D01*
X00356701Y01010990D01*
X00357612Y01013268D01*
X00358579Y01015524D01*
X00359601Y01017756D01*
X00360678Y01019961D01*
X00361808Y01022140D01*
X00362991Y01024290D01*
X00364227Y01026410D01*
X00365515Y01028500D01*
X00366853Y01030557D01*
X00368242Y01032581D01*
X00369679Y01034570D01*
X00371165Y01036523D01*
X00372699Y01038439D01*
X00374279Y01040317D01*
X00375905Y01042156D01*
X00377575Y01043954D01*
X00379289Y01045711D01*
X00381046Y01047425D01*
X00382844Y01049095D01*
X00384683Y01050721D01*
X00386561Y01052301D01*
X00388477Y01053835D01*
X00390430Y01055321D01*
X00392419Y01056758D01*
X00394443Y01058147D01*
X00396500Y01059485D01*
X00398590Y01060773D01*
X00400710Y01062009D01*
X00402860Y01063192D01*
X00405039Y01064322D01*
X00407244Y01065399D01*
X00409476Y01066421D01*
X00411732Y01067388D01*
X00414010Y01068299D01*
X00416311Y01069154D01*
X00418632Y01069953D01*
X00420972Y01070694D01*
X00423329Y01071378D01*
X00425702Y01072003D01*
X00428090Y01072570D01*
X00430491Y01073079D01*
X00432904Y01073528D01*
X00435327Y01073918D01*
X00437759Y01074248D01*
X00440198Y01074518D01*
X00442644Y01074729D01*
X00445093Y01074880D01*
X00447546Y01074970D01*
X00450000Y01075000D01*
X00452454Y01074970D01*
X00454907Y01074880D01*
X00457356Y01074729D01*
X00459802Y01074518D01*
X00462241Y01074248D01*
X00464673Y01073918D01*
X00467096Y01073528D01*
X00469509Y01073079D01*
X00471910Y01072570D01*
X00474298Y01072003D01*
X00476671Y01071378D01*
X00479028Y01070694D01*
X00481368Y01069953D01*
X00483689Y01069154D01*
X00485990Y01068299D01*
X00488268Y01067388D01*
X00490524Y01066421D01*
X00492756Y01065399D01*
X00494961Y01064322D01*
X00497140Y01063192D01*
X00499290Y01062009D01*
X00501410Y01060773D01*
X00503500Y01059485D01*
X00505557Y01058147D01*
X00507581Y01056758D01*
X00509570Y01055321D01*
X00511523Y01053835D01*
X00513439Y01052301D01*
X00515317Y01050721D01*
X00517156Y01049095D01*
X00518954Y01047425D01*
X00520711Y01045711D01*
X00522425Y01043954D01*
X00524095Y01042156D01*
X00525721Y01040317D01*
X00527301Y01038439D01*
X00528835Y01036523D01*
X00530321Y01034570D01*
X00531758Y01032581D01*
X00533147Y01030557D01*
X00534485Y01028500D01*
X00535773Y01026410D01*
X00537009Y01024290D01*
X00538192Y01022140D01*
X00539322Y01019961D01*
X00540399Y01017756D01*
X00541421Y01015524D01*
X00542388Y01013268D01*
X00543299Y01010990D01*
X00544154Y01008689D01*
X00544953Y01006368D01*
X00545694Y01004028D01*
X00546378Y01001671D01*
X00547003Y00999298D01*
X00547570Y00996910D01*
X00548079Y00994509D01*
X00548528Y00992096D01*
X00548918Y00989673D01*
X00549248Y00987241D01*
X00549518Y00984802D01*
X00549729Y00982356D01*
X00549880Y00979907D01*
X00549970Y00977454D01*
X00550000Y00975000D01*
X00549970Y00972546D01*
X00549880Y00970093D01*
X00549729Y00967644D01*
X00549518Y00965198D01*
X00549248Y00962759D01*
X00548918Y00960327D01*
X00548528Y00957904D01*
X00548079Y00955491D01*
X00547570Y00953090D01*
X00547003Y00950702D01*
X00546378Y00948329D01*
X00545694Y00945972D01*
X00544953Y00943632D01*
X00544154Y00941311D01*
X00543299Y00939010D01*
X00542388Y00936732D01*
X00541421Y00934476D01*
X00540399Y00932244D01*
X00539322Y00930039D01*
X00538192Y00927860D01*
X00537009Y00925710D01*
X00535773Y00923590D01*
X00534485Y00921500D01*
X00533147Y00919443D01*
X00531758Y00917419D01*
X00530321Y00915430D01*
X00528835Y00913477D01*
X00527301Y00911561D01*
X00525721Y00909683D01*
X00524095Y00907844D01*
X00522425Y00906046D01*
X00520711Y00904289D01*
X00518954Y00902575D01*
X00517156Y00900905D01*
X00515317Y00899279D01*
X00513439Y00897699D01*
X00511523Y00896165D01*
X00509570Y00894679D01*
X00507581Y00893242D01*
X00505557Y00891853D01*
X00503500Y00890515D01*
X00501410Y00889227D01*
X00499290Y00887991D01*
X00497140Y00886808D01*
X00494961Y00885678D01*
X00492756Y00884601D01*
X00490524Y00883579D01*
X00488268Y00882612D01*
X00485990Y00881701D01*
X00483689Y00880846D01*
X00481368Y00880047D01*
X00479028Y00879306D01*
X00476671Y00878622D01*
X00474298Y00877997D01*
X00471910Y00877430D01*
X00469509Y00876921D01*
X00467096Y00876472D01*
X00464673Y00876082D01*
X00462241Y00875752D01*
X00459802Y00875482D01*
X00457356Y00875271D01*
X00454907Y00875120D01*
X00452454Y00875030D01*
X00450000Y00875000D01*
X00447546Y00875030D01*
X00445093Y00875120D01*
X00442644Y00875271D01*
X00440198Y00875482D01*
X00437759Y00875752D01*
X00435327Y00876082D01*
X00432904Y00876472D01*
X00430491Y00876921D01*
X00428090Y00877430D01*
X00425702Y00877997D01*
X00423329Y00878622D01*
X00420972Y00879306D01*
X00418632Y00880047D01*
X00416311Y00880846D01*
X00414010Y00881701D01*
X00411732Y00882612D01*
X00409476Y00883579D01*
X00407244Y00884601D01*
X00405039Y00885678D01*
X00402860Y00886808D01*
X00400710Y00887991D01*
X00398590Y00889227D01*
X00396500Y00890515D01*
X00394443Y00891853D01*
X00392419Y00893242D01*
X00390430Y00894679D01*
X00388477Y00896165D01*
X00386561Y00897699D01*
X00384683Y00899279D01*
X00382844Y00900905D01*
X00381046Y00902575D01*
X00379289Y00904289D01*
X00377575Y00906046D01*
X00375905Y00907844D01*
X00374279Y00909683D01*
X00372699Y00911561D01*
X00371165Y00913477D01*
X00369679Y00915430D01*
X00368242Y00917419D01*
X00366853Y00919443D01*
X00365515Y00921500D01*
X00364227Y00923590D01*
X00362991Y00925710D01*
X00361808Y00927860D01*
X00360678Y00930039D01*
X00359601Y00932244D01*
X00358579Y00934476D01*
X00357612Y00936732D01*
X00356701Y00939010D01*
X00355846Y00941311D01*
X00355047Y00943632D01*
X00354306Y00945972D01*
X00353622Y00948329D01*
X00352997Y00950702D01*
X00352430Y00953090D01*
X00351921Y00955491D01*
X00351472Y00957904D01*
X00351082Y00960327D01*
X00350752Y00962759D01*
X00350482Y00965198D01*
X00350271Y00967644D01*
X00350120Y00970093D01*
X00350030Y00972546D01*
X00350000Y00975000D01*
X00040945Y00606890D02*
X00047855Y00597460D01*
X00054993Y00588202D01*
X00062354Y00579121D01*
X00069935Y00570222D01*
X00077730Y00561510D01*
X00085735Y00552991D01*
X00093946Y00544669D01*
X00102356Y00536550D01*
X00110962Y00528639D01*
X00119759Y00520939D01*
X00128740Y00513456D01*
X00137901Y00506194D01*
X00147237Y00499158D01*
X00156741Y00492351D01*
X00166408Y00485778D01*
X00176233Y00479442D01*
X00186208Y00473348D01*
X00196330Y00467499D01*
X00206591Y00461898D01*
X00216986Y00456549D01*
X00227507Y00451454D01*
X00238150Y00446618D01*
X00248908Y00442042D01*
X00259774Y00437730D01*
X00270741Y00433684D01*
X00281804Y00429907D01*
X00292956Y00426400D01*
X00304190Y00423166D01*
X00315499Y00420207D01*
X00326878Y00417525D01*
X00338318Y00415120D01*
X00349813Y00412995D01*
X00361357Y00411151D01*
X00372942Y00409588D01*
X00384562Y00408309D01*
X00396210Y00407313D01*
X00407878Y00406601D01*
X00419561Y00406173D01*
X00431250Y00406031D01*
X00442939Y00406173D01*
X00454622Y00406601D01*
X00466290Y00407313D01*
X00477938Y00408309D01*
X00489558Y00409588D01*
X00501143Y00411151D01*
X00512687Y00412995D01*
X00524182Y00415120D01*
X00535622Y00417525D01*
X00547001Y00420207D01*
X00558310Y00423166D01*
X00569544Y00426400D01*
X00580696Y00429907D01*
X00591759Y00433684D01*
X00602726Y00437730D01*
X00613592Y00442042D01*
X00624350Y00446618D01*
X00634993Y00451454D01*
X00645514Y00456549D01*
X00655909Y00461898D01*
X00666170Y00467499D01*
X00676292Y00473348D01*
X00686267Y00479442D01*
X00696092Y00485778D01*
X00705759Y00492351D01*
X00715263Y00499158D01*
X00724599Y00506194D01*
X00733760Y00513456D01*
X00742741Y00520939D01*
X00751538Y00528639D01*
X00760144Y00536550D01*
X00768554Y00544669D01*
X00776765Y00552991D01*
X00784770Y00561510D01*
X00792565Y00570222D01*
X00800146Y00579121D01*
X00807507Y00588202D01*
X00814645Y00597460D01*
X00821555Y00606890D01*
X00840945Y00606890D02*
X00847855Y00597460D01*
X00854993Y00588202D01*
X00862354Y00579121D01*
X00869935Y00570222D01*
X00877730Y00561510D01*
X00885735Y00552991D01*
X00893946Y00544669D01*
X00902356Y00536550D01*
X00910962Y00528639D01*
X00919759Y00520939D01*
X00928740Y00513456D01*
X00937901Y00506194D01*
X00947237Y00499158D01*
X00956741Y00492351D01*
X00966408Y00485778D01*
X00976233Y00479442D01*
X00986208Y00473348D01*
X00996330Y00467499D01*
X01006591Y00461898D01*
X01016986Y00456549D01*
X01027507Y00451454D01*
X01038150Y00446618D01*
X01048908Y00442042D01*
X01059774Y00437730D01*
X01070741Y00433684D01*
X01081804Y00429907D01*
X01092956Y00426400D01*
X01104190Y00423166D01*
X01115499Y00420207D01*
X01126878Y00417525D01*
X01138318Y00415120D01*
X01149813Y00412995D01*
X01161357Y00411151D01*
X01172942Y00409588D01*
X01184562Y00408309D01*
X01196210Y00407313D01*
X01207878Y00406601D01*
X01219561Y00406173D01*
X01231250Y00406031D01*
X01242939Y00406173D01*
X01254622Y00406601D01*
X01266290Y00407313D01*
X01277938Y00408309D01*
X01289558Y00409588D01*
X01301143Y00411151D01*
X01312687Y00412995D01*
X01324182Y00415120D01*
X01335622Y00417525D01*
X01347001Y00420207D01*
X01358310Y00423166D01*
X01369544Y00426400D01*
X01380696Y00429907D01*
X01391759Y00433684D01*
X01402726Y00437730D01*
X01413592Y00442042D01*
X01424350Y00446618D01*
X01434993Y00451454D01*
X01445514Y00456549D01*
X01455909Y00461898D01*
X01466170Y00467499D01*
X01476292Y00473348D01*
X01486267Y00479442D01*
X01496092Y00485778D01*
X01505759Y00492351D01*
X01515263Y00499158D01*
X01524599Y00506194D01*
X01533760Y00513456D01*
X01542741Y00520939D01*
X01551538Y00528639D01*
X01560144Y00536550D01*
X01568554Y00544669D01*
X01576765Y00552991D01*
X01584770Y00561510D01*
X01592565Y00570222D01*
X01600146Y00579121D01*
X01607507Y00588202D01*
X01614645Y00597460D01*
X01621555Y00606890D01*
X01715945Y00606890D02*
X01722855Y00597460D01*
X01729993Y00588202D01*
X01737354Y00579121D01*
X01744935Y00570222D01*
X01752730Y00561510D01*
X01760735Y00552991D01*
X01768946Y00544669D01*
X01777356Y00536550D01*
X01785962Y00528639D01*
X01794759Y00520939D01*
X01803740Y00513456D01*
X01812901Y00506194D01*
X01822237Y00499158D01*
X01831741Y00492351D01*
X01841408Y00485778D01*
X01851233Y00479442D01*
X01861208Y00473348D01*
X01871330Y00467499D01*
X01881591Y00461898D01*
X01891986Y00456549D01*
X01902507Y00451454D01*
X01913150Y00446618D01*
X01923908Y00442042D01*
X01934774Y00437730D01*
X01945741Y00433684D01*
X01956804Y00429907D01*
X01967956Y00426400D01*
X01979190Y00423166D01*
X01990499Y00420207D01*
X02001878Y00417525D01*
X02013318Y00415120D01*
X02024813Y00412995D01*
X02036357Y00411151D01*
X02047942Y00409588D01*
X02059562Y00408309D01*
X02071210Y00407313D01*
X02082878Y00406601D01*
X02094561Y00406173D01*
X02106250Y00406031D01*
X02117939Y00406173D01*
X02129622Y00406601D01*
X02141290Y00407313D01*
X02152938Y00408309D01*
X02164558Y00409588D01*
X02176143Y00411151D01*
X02187687Y00412995D01*
X02199182Y00415120D01*
X02210622Y00417525D01*
X02222001Y00420207D01*
X02233310Y00423166D01*
X02244544Y00426400D01*
X02255696Y00429907D01*
X02266759Y00433684D01*
X02277726Y00437730D01*
X02288592Y00442042D01*
X02299350Y00446618D01*
X02309993Y00451454D01*
X02320514Y00456549D01*
X02330909Y00461898D01*
X02341170Y00467499D01*
X02351292Y00473348D01*
X02361267Y00479442D01*
X02371092Y00485778D01*
X02380759Y00492351D01*
X02390263Y00499158D01*
X02399599Y00506194D01*
X02408760Y00513456D01*
X02417741Y00520939D01*
X02426538Y00528639D01*
X02435144Y00536550D01*
X02443554Y00544669D01*
X02451765Y00552991D01*
X02459770Y00561510D01*
X02467565Y00570222D01*
X02475146Y00579121D01*
X02482507Y00588202D01*
X02489645Y00597460D01*
X02496555Y00606890D01*
X02515945Y00606890D02*
X02522855Y00597460D01*
X02529993Y00588202D01*
X02537354Y00579121D01*
X02544935Y00570222D01*
X02552730Y00561510D01*
X02560735Y00552991D01*
X02568946Y00544669D01*
X02577356Y00536550D01*
X02585962Y00528639D01*
X02594759Y00520939D01*
X02603740Y00513456D01*
X02612901Y00506194D01*
X02622237Y00499158D01*
X02631741Y00492351D01*
X02641408Y00485778D01*
X02651233Y00479442D01*
X02661208Y00473348D01*
X02671330Y00467499D01*
X02681591Y00461898D01*
X02691986Y00456549D01*
X02702507Y00451454D01*
X02713150Y00446618D01*
X02723908Y00442042D01*
X02734774Y00437730D01*
X02745741Y00433684D01*
X02756804Y00429907D01*
X02767956Y00426400D01*
X02779190Y00423166D01*
X02790499Y00420207D01*
X02801878Y00417525D01*
X02813318Y00415120D01*
X02824813Y00412995D01*
X02836357Y00411151D01*
X02847942Y00409588D01*
X02859562Y00408309D01*
X02871210Y00407313D01*
X02882878Y00406601D01*
X02894561Y00406173D01*
X02906250Y00406031D01*
X02917939Y00406173D01*
X02929622Y00406601D01*
X02941290Y00407313D01*
X02952938Y00408309D01*
X02964558Y00409588D01*
X02976143Y00411151D01*
X02987687Y00412995D01*
X02999182Y00415120D01*
X03010622Y00417525D01*
X03022001Y00420207D01*
X03033310Y00423166D01*
X03044544Y00426400D01*
X03055696Y00429907D01*
X03066759Y00433684D01*
X03077726Y00437730D01*
X03088592Y00442042D01*
X03099350Y00446618D01*
X03109993Y00451454D01*
X03120514Y00456549D01*
X03130909Y00461898D01*
X03141170Y00467499D01*
X03151292Y00473348D01*
X03161267Y00479442D01*
X03171092Y00485778D01*
X03180759Y00492351D01*
X03190263Y00499158D01*
X03199599Y00506194D01*
X03208760Y00513456D01*
X03217741Y00520939D01*
X03226538Y00528639D01*
X03235144Y00536550D01*
X03243554Y00544669D01*
X03251765Y00552991D01*
X03259770Y00561510D01*
X03267565Y00570222D01*
X03275146Y00579121D01*
X03282507Y00588202D01*
X03289645Y00597460D01*
X03296555Y00606890D01*
X03390945Y00606890D02*
X03397855Y00597460D01*
X03404993Y00588202D01*
X03412354Y00579121D01*
X03419935Y00570222D01*
X03427730Y00561510D01*
X03435735Y00552991D01*
X03443946Y00544669D01*
X03452356Y00536550D01*
X03460962Y00528639D01*
X03469759Y00520939D01*
X03478740Y00513456D01*
X03487901Y00506194D01*
X03497237Y00499158D01*
X03506741Y00492351D01*
X03516408Y00485778D01*
X03526233Y00479442D01*
X03536208Y00473348D01*
X03546330Y00467499D01*
X03556591Y00461898D01*
X03566986Y00456549D01*
X03577507Y00451454D01*
X03588150Y00446618D01*
X03598908Y00442042D01*
X03609774Y00437730D01*
X03620741Y00433684D01*
X03631804Y00429907D01*
X03642956Y00426400D01*
X03654190Y00423166D01*
X03665499Y00420207D01*
X03676878Y00417525D01*
X03688318Y00415120D01*
X03699813Y00412995D01*
X03711357Y00411151D01*
X03722942Y00409588D01*
X03734562Y00408309D01*
X03746210Y00407313D01*
X03757878Y00406601D01*
X03769561Y00406173D01*
X03781250Y00406031D01*
X03792939Y00406173D01*
X03804622Y00406601D01*
X03816290Y00407313D01*
X03827938Y00408309D01*
X03839558Y00409588D01*
X03851143Y00411151D01*
X03862687Y00412995D01*
X03874182Y00415120D01*
X03885622Y00417525D01*
X03897001Y00420207D01*
X03908310Y00423166D01*
X03919544Y00426400D01*
X03930696Y00429907D01*
X03941759Y00433684D01*
X03952726Y00437730D01*
X03963592Y00442042D01*
X03974350Y00446618D01*
X03984993Y00451454D01*
X03995514Y00456549D01*
X04005909Y00461898D01*
X04016170Y00467499D01*
X04026292Y00473348D01*
X04036267Y00479442D01*
X04046092Y00485778D01*
X04055759Y00492351D01*
X04065263Y00499158D01*
X04074599Y00506194D01*
X04083760Y00513456D01*
X04092741Y00520939D01*
X04101538Y00528639D01*
X04110144Y00536550D01*
X04118554Y00544669D01*
X04126765Y00552991D01*
X04134770Y00561510D01*
X04142565Y00570222D01*
X04150146Y00579121D01*
X04157507Y00588202D01*
X04164645Y00597460D01*
X04171555Y00606890D01*
X03700000Y00975000D02*
X03700030Y00977454D01*
X03700120Y00979907D01*
X03700271Y00982356D01*
X03700482Y00984802D01*
X03700752Y00987241D01*
X03701082Y00989673D01*
X03701472Y00992096D01*
X03701921Y00994509D01*
X03702430Y00996910D01*
X03702997Y00999298D01*
X03703622Y01001671D01*
X03704306Y01004028D01*
X03705047Y01006368D01*
X03705846Y01008689D01*
X03706701Y01010990D01*
X03707612Y01013268D01*
X03708579Y01015524D01*
X03709601Y01017756D01*
X03710678Y01019961D01*
X03711808Y01022140D01*
X03712991Y01024290D01*
X03714227Y01026410D01*
X03715515Y01028500D01*
X03716853Y01030557D01*
X03718242Y01032581D01*
X03719679Y01034570D01*
X03721165Y01036523D01*
X03722699Y01038439D01*
X03724279Y01040317D01*
X03725905Y01042156D01*
X03727575Y01043954D01*
X03729289Y01045711D01*
X03731046Y01047425D01*
X03732844Y01049095D01*
X03734683Y01050721D01*
X03736561Y01052301D01*
X03738477Y01053835D01*
X03740430Y01055321D01*
X03742419Y01056758D01*
X03744443Y01058147D01*
X03746500Y01059485D01*
X03748590Y01060773D01*
X03750710Y01062009D01*
X03752860Y01063192D01*
X03755039Y01064322D01*
X03757244Y01065399D01*
X03759476Y01066421D01*
X03761732Y01067388D01*
X03764010Y01068299D01*
X03766311Y01069154D01*
X03768632Y01069953D01*
X03770972Y01070694D01*
X03773329Y01071378D01*
X03775702Y01072003D01*
X03778090Y01072570D01*
X03780491Y01073079D01*
X03782904Y01073528D01*
X03785327Y01073918D01*
X03787759Y01074248D01*
X03790198Y01074518D01*
X03792644Y01074729D01*
X03795093Y01074880D01*
X03797546Y01074970D01*
X03800000Y01075000D01*
X03802454Y01074970D01*
X03804907Y01074880D01*
X03807356Y01074729D01*
X03809802Y01074518D01*
X03812241Y01074248D01*
X03814673Y01073918D01*
X03817096Y01073528D01*
X03819509Y01073079D01*
X03821910Y01072570D01*
X03824298Y01072003D01*
X03826671Y01071378D01*
X03829028Y01070694D01*
X03831368Y01069953D01*
X03833689Y01069154D01*
X03835990Y01068299D01*
X03838268Y01067388D01*
X03840524Y01066421D01*
X03842756Y01065399D01*
X03844961Y01064322D01*
X03847140Y01063192D01*
X03849290Y01062009D01*
X03851410Y01060773D01*
X03853500Y01059485D01*
X03855557Y01058147D01*
X03857581Y01056758D01*
X03859570Y01055321D01*
X03861523Y01053835D01*
X03863439Y01052301D01*
X03865317Y01050721D01*
X03867156Y01049095D01*
X03868954Y01047425D01*
X03870711Y01045711D01*
X03872425Y01043954D01*
X03874095Y01042156D01*
X03875721Y01040317D01*
X03877301Y01038439D01*
X03878835Y01036523D01*
X03880321Y01034570D01*
X03881758Y01032581D01*
X03883147Y01030557D01*
X03884485Y01028500D01*
X03885773Y01026410D01*
X03887009Y01024290D01*
X03888192Y01022140D01*
X03889322Y01019961D01*
X03890399Y01017756D01*
X03891421Y01015524D01*
X03892388Y01013268D01*
X03893299Y01010990D01*
X03894154Y01008689D01*
X03894953Y01006368D01*
X03895694Y01004028D01*
X03896378Y01001671D01*
X03897003Y00999298D01*
X03897570Y00996910D01*
X03898079Y00994509D01*
X03898528Y00992096D01*
X03898918Y00989673D01*
X03899248Y00987241D01*
X03899518Y00984802D01*
X03899729Y00982356D01*
X03899880Y00979907D01*
X03899970Y00977454D01*
X03900000Y00975000D01*
X03899970Y00972546D01*
X03899880Y00970093D01*
X03899729Y00967644D01*
X03899518Y00965198D01*
X03899248Y00962759D01*
X03898918Y00960327D01*
X03898528Y00957904D01*
X03898079Y00955491D01*
X03897570Y00953090D01*
X03897003Y00950702D01*
X03896378Y00948329D01*
X03895694Y00945972D01*
X03894953Y00943632D01*
X03894154Y00941311D01*
X03893299Y00939010D01*
X03892388Y00936732D01*
X03891421Y00934476D01*
X03890399Y00932244D01*
X03889322Y00930039D01*
X03888192Y00927860D01*
X03887009Y00925710D01*
X03885773Y00923590D01*
X03884485Y00921500D01*
X03883147Y00919443D01*
X03881758Y00917419D01*
X03880321Y00915430D01*
X03878835Y00913477D01*
X03877301Y00911561D01*
X03875721Y00909683D01*
X03874095Y00907844D01*
X03872425Y00906046D01*
X03870711Y00904289D01*
X03868954Y00902575D01*
X03867156Y00900905D01*
X03865317Y00899279D01*
X03863439Y00897699D01*
X03861523Y00896165D01*
X03859570Y00894679D01*
X03857581Y00893242D01*
X03855557Y00891853D01*
X03853500Y00890515D01*
X03851410Y00889227D01*
X03849290Y00887991D01*
X03847140Y00886808D01*
X03844961Y00885678D01*
X03842756Y00884601D01*
X03840524Y00883579D01*
X03838268Y00882612D01*
X03835990Y00881701D01*
X03833689Y00880846D01*
X03831368Y00880047D01*
X03829028Y00879306D01*
X03826671Y00878622D01*
X03824298Y00877997D01*
X03821910Y00877430D01*
X03819509Y00876921D01*
X03817096Y00876472D01*
X03814673Y00876082D01*
X03812241Y00875752D01*
X03809802Y00875482D01*
X03807356Y00875271D01*
X03804907Y00875120D01*
X03802454Y00875030D01*
X03800000Y00875000D01*
X03797546Y00875030D01*
X03795093Y00875120D01*
X03792644Y00875271D01*
X03790198Y00875482D01*
X03787759Y00875752D01*
X03785327Y00876082D01*
X03782904Y00876472D01*
X03780491Y00876921D01*
X03778090Y00877430D01*
X03775702Y00877997D01*
X03773329Y00878622D01*
X03770972Y00879306D01*
X03768632Y00880047D01*
X03766311Y00880846D01*
X03764010Y00881701D01*
X03761732Y00882612D01*
X03759476Y00883579D01*
X03757244Y00884601D01*
X03755039Y00885678D01*
X03752860Y00886808D01*
X03750710Y00887991D01*
X03748590Y00889227D01*
X03746500Y00890515D01*
X03744443Y00891853D01*
X03742419Y00893242D01*
X03740430Y00894679D01*
X03738477Y00896165D01*
X03736561Y00897699D01*
X03734683Y00899279D01*
X03732844Y00900905D01*
X03731046Y00902575D01*
X03729289Y00904289D01*
X03727575Y00906046D01*
X03725905Y00907844D01*
X03724279Y00909683D01*
X03722699Y00911561D01*
X03721165Y00913477D01*
X03719679Y00915430D01*
X03718242Y00917419D01*
X03716853Y00919443D01*
X03715515Y00921500D01*
X03714227Y00923590D01*
X03712991Y00925710D01*
X03711808Y00927860D01*
X03710678Y00930039D01*
X03709601Y00932244D01*
X03708579Y00934476D01*
X03707612Y00936732D01*
X03706701Y00939010D01*
X03705846Y00941311D01*
X03705047Y00943632D01*
X03704306Y00945972D01*
X03703622Y00948329D01*
X03702997Y00950702D01*
X03702430Y00953090D01*
X03701921Y00955491D01*
X03701472Y00957904D01*
X03701082Y00960327D01*
X03700752Y00962759D01*
X03700482Y00965198D01*
X03700271Y00967644D01*
X03700120Y00970093D01*
X03700030Y00972546D01*
X03700000Y00975000D01*
X02825000Y00975000D02*
X02825030Y00977454D01*
X02825120Y00979907D01*
X02825271Y00982356D01*
X02825482Y00984802D01*
X02825752Y00987241D01*
X02826082Y00989673D01*
X02826472Y00992096D01*
X02826921Y00994509D01*
X02827430Y00996910D01*
X02827997Y00999298D01*
X02828622Y01001671D01*
X02829306Y01004028D01*
X02830047Y01006368D01*
X02830846Y01008689D01*
X02831701Y01010990D01*
X02832612Y01013268D01*
X02833579Y01015524D01*
X02834601Y01017756D01*
X02835678Y01019961D01*
X02836808Y01022140D01*
X02837991Y01024290D01*
X02839227Y01026410D01*
X02840515Y01028500D01*
X02841853Y01030557D01*
X02843242Y01032581D01*
X02844679Y01034570D01*
X02846165Y01036523D01*
X02847699Y01038439D01*
X02849279Y01040317D01*
X02850905Y01042156D01*
X02852575Y01043954D01*
X02854289Y01045711D01*
X02856046Y01047425D01*
X02857844Y01049095D01*
X02859683Y01050721D01*
X02861561Y01052301D01*
X02863477Y01053835D01*
X02865430Y01055321D01*
X02867419Y01056758D01*
X02869443Y01058147D01*
X02871500Y01059485D01*
X02873590Y01060773D01*
X02875710Y01062009D01*
X02877860Y01063192D01*
X02880039Y01064322D01*
X02882244Y01065399D01*
X02884476Y01066421D01*
X02886732Y01067388D01*
X02889010Y01068299D01*
X02891311Y01069154D01*
X02893632Y01069953D01*
X02895972Y01070694D01*
X02898329Y01071378D01*
X02900702Y01072003D01*
X02903090Y01072570D01*
X02905491Y01073079D01*
X02907904Y01073528D01*
X02910327Y01073918D01*
X02912759Y01074248D01*
X02915198Y01074518D01*
X02917644Y01074729D01*
X02920093Y01074880D01*
X02922546Y01074970D01*
X02925000Y01075000D01*
X02927454Y01074970D01*
X02929907Y01074880D01*
X02932356Y01074729D01*
X02934802Y01074518D01*
X02937241Y01074248D01*
X02939673Y01073918D01*
X02942096Y01073528D01*
X02944509Y01073079D01*
X02946910Y01072570D01*
X02949298Y01072003D01*
X02951671Y01071378D01*
X02954028Y01070694D01*
X02956368Y01069953D01*
X02958689Y01069154D01*
X02960990Y01068299D01*
X02963268Y01067388D01*
X02965524Y01066421D01*
X02967756Y01065399D01*
X02969961Y01064322D01*
X02972140Y01063192D01*
X02974290Y01062009D01*
X02976410Y01060773D01*
X02978500Y01059485D01*
X02980557Y01058147D01*
X02982581Y01056758D01*
X02984570Y01055321D01*
X02986523Y01053835D01*
X02988439Y01052301D01*
X02990317Y01050721D01*
X02992156Y01049095D01*
X02993954Y01047425D01*
X02995711Y01045711D01*
X02997425Y01043954D01*
X02999095Y01042156D01*
X03000721Y01040317D01*
X03002301Y01038439D01*
X03003835Y01036523D01*
X03005321Y01034570D01*
X03006758Y01032581D01*
X03008147Y01030557D01*
X03009485Y01028500D01*
X03010773Y01026410D01*
X03012009Y01024290D01*
X03013192Y01022140D01*
X03014322Y01019961D01*
X03015399Y01017756D01*
X03016421Y01015524D01*
X03017388Y01013268D01*
X03018299Y01010990D01*
X03019154Y01008689D01*
X03019953Y01006368D01*
X03020694Y01004028D01*
X03021378Y01001671D01*
X03022003Y00999298D01*
X03022570Y00996910D01*
X03023079Y00994509D01*
X03023528Y00992096D01*
X03023918Y00989673D01*
X03024248Y00987241D01*
X03024518Y00984802D01*
X03024729Y00982356D01*
X03024880Y00979907D01*
X03024970Y00977454D01*
X03025000Y00975000D01*
X03024970Y00972546D01*
X03024880Y00970093D01*
X03024729Y00967644D01*
X03024518Y00965198D01*
X03024248Y00962759D01*
X03023918Y00960327D01*
X03023528Y00957904D01*
X03023079Y00955491D01*
X03022570Y00953090D01*
X03022003Y00950702D01*
X03021378Y00948329D01*
X03020694Y00945972D01*
X03019953Y00943632D01*
X03019154Y00941311D01*
X03018299Y00939010D01*
X03017388Y00936732D01*
X03016421Y00934476D01*
X03015399Y00932244D01*
X03014322Y00930039D01*
X03013192Y00927860D01*
X03012009Y00925710D01*
X03010773Y00923590D01*
X03009485Y00921500D01*
X03008147Y00919443D01*
X03006758Y00917419D01*
X03005321Y00915430D01*
X03003835Y00913477D01*
X03002301Y00911561D01*
X03000721Y00909683D01*
X02999095Y00907844D01*
X02997425Y00906046D01*
X02995711Y00904289D01*
X02993954Y00902575D01*
X02992156Y00900905D01*
X02990317Y00899279D01*
X02988439Y00897699D01*
X02986523Y00896165D01*
X02984570Y00894679D01*
X02982581Y00893242D01*
X02980557Y00891853D01*
X02978500Y00890515D01*
X02976410Y00889227D01*
X02974290Y00887991D01*
X02972140Y00886808D01*
X02969961Y00885678D01*
X02967756Y00884601D01*
X02965524Y00883579D01*
X02963268Y00882612D01*
X02960990Y00881701D01*
X02958689Y00880846D01*
X02956368Y00880047D01*
X02954028Y00879306D01*
X02951671Y00878622D01*
X02949298Y00877997D01*
X02946910Y00877430D01*
X02944509Y00876921D01*
X02942096Y00876472D01*
X02939673Y00876082D01*
X02937241Y00875752D01*
X02934802Y00875482D01*
X02932356Y00875271D01*
X02929907Y00875120D01*
X02927454Y00875030D01*
X02925000Y00875000D01*
X02922546Y00875030D01*
X02920093Y00875120D01*
X02917644Y00875271D01*
X02915198Y00875482D01*
X02912759Y00875752D01*
X02910327Y00876082D01*
X02907904Y00876472D01*
X02905491Y00876921D01*
X02903090Y00877430D01*
X02900702Y00877997D01*
X02898329Y00878622D01*
X02895972Y00879306D01*
X02893632Y00880047D01*
X02891311Y00880846D01*
X02889010Y00881701D01*
X02886732Y00882612D01*
X02884476Y00883579D01*
X02882244Y00884601D01*
X02880039Y00885678D01*
X02877860Y00886808D01*
X02875710Y00887991D01*
X02873590Y00889227D01*
X02871500Y00890515D01*
X02869443Y00891853D01*
X02867419Y00893242D01*
X02865430Y00894679D01*
X02863477Y00896165D01*
X02861561Y00897699D01*
X02859683Y00899279D01*
X02857844Y00900905D01*
X02856046Y00902575D01*
X02854289Y00904289D01*
X02852575Y00906046D01*
X02850905Y00907844D01*
X02849279Y00909683D01*
X02847699Y00911561D01*
X02846165Y00913477D01*
X02844679Y00915430D01*
X02843242Y00917419D01*
X02841853Y00919443D01*
X02840515Y00921500D01*
X02839227Y00923590D01*
X02837991Y00925710D01*
X02836808Y00927860D01*
X02835678Y00930039D01*
X02834601Y00932244D01*
X02833579Y00934476D01*
X02832612Y00936732D01*
X02831701Y00939010D01*
X02830846Y00941311D01*
X02830047Y00943632D01*
X02829306Y00945972D01*
X02828622Y00948329D01*
X02827997Y00950702D01*
X02827430Y00953090D01*
X02826921Y00955491D01*
X02826472Y00957904D01*
X02826082Y00960327D01*
X02825752Y00962759D01*
X02825482Y00965198D01*
X02825271Y00967644D01*
X02825120Y00970093D01*
X02825030Y00972546D01*
X02825000Y00975000D01*
X02025000Y00975000D02*
X02025030Y00977454D01*
X02025120Y00979907D01*
X02025271Y00982356D01*
X02025482Y00984802D01*
X02025752Y00987241D01*
X02026082Y00989673D01*
X02026472Y00992096D01*
X02026921Y00994509D01*
X02027430Y00996910D01*
X02027997Y00999298D01*
X02028622Y01001671D01*
X02029306Y01004028D01*
X02030047Y01006368D01*
X02030846Y01008689D01*
X02031701Y01010990D01*
X02032612Y01013268D01*
X02033579Y01015524D01*
X02034601Y01017756D01*
X02035678Y01019961D01*
X02036808Y01022140D01*
X02037991Y01024290D01*
X02039227Y01026410D01*
X02040515Y01028500D01*
X02041853Y01030557D01*
X02043242Y01032581D01*
X02044679Y01034570D01*
X02046165Y01036523D01*
X02047699Y01038439D01*
X02049279Y01040317D01*
X02050905Y01042156D01*
X02052575Y01043954D01*
X02054289Y01045711D01*
X02056046Y01047425D01*
X02057844Y01049095D01*
X02059683Y01050721D01*
X02061561Y01052301D01*
X02063477Y01053835D01*
X02065430Y01055321D01*
X02067419Y01056758D01*
X02069443Y01058147D01*
X02071500Y01059485D01*
X02073590Y01060773D01*
X02075710Y01062009D01*
X02077860Y01063192D01*
X02080039Y01064322D01*
X02082244Y01065399D01*
X02084476Y01066421D01*
X02086732Y01067388D01*
X02089010Y01068299D01*
X02091311Y01069154D01*
X02093632Y01069953D01*
X02095972Y01070694D01*
X02098329Y01071378D01*
X02100702Y01072003D01*
X02103090Y01072570D01*
X02105491Y01073079D01*
X02107904Y01073528D01*
X02110327Y01073918D01*
X02112759Y01074248D01*
X02115198Y01074518D01*
X02117644Y01074729D01*
X02120093Y01074880D01*
X02122546Y01074970D01*
X02125000Y01075000D01*
X02127454Y01074970D01*
X02129907Y01074880D01*
X02132356Y01074729D01*
X02134802Y01074518D01*
X02137241Y01074248D01*
X02139673Y01073918D01*
X02142096Y01073528D01*
X02144509Y01073079D01*
X02146910Y01072570D01*
X02149298Y01072003D01*
X02151671Y01071378D01*
X02154028Y01070694D01*
X02156368Y01069953D01*
X02158689Y01069154D01*
X02160990Y01068299D01*
X02163268Y01067388D01*
X02165524Y01066421D01*
X02167756Y01065399D01*
X02169961Y01064322D01*
X02172140Y01063192D01*
X02174290Y01062009D01*
X02176410Y01060773D01*
X02178500Y01059485D01*
X02180557Y01058147D01*
X02182581Y01056758D01*
X02184570Y01055321D01*
X02186523Y01053835D01*
X02188439Y01052301D01*
X02190317Y01050721D01*
X02192156Y01049095D01*
X02193954Y01047425D01*
X02195711Y01045711D01*
X02197425Y01043954D01*
X02199095Y01042156D01*
X02200721Y01040317D01*
X02202301Y01038439D01*
X02203835Y01036523D01*
X02205321Y01034570D01*
X02206758Y01032581D01*
X02208147Y01030557D01*
X02209485Y01028500D01*
X02210773Y01026410D01*
X02212009Y01024290D01*
X02213192Y01022140D01*
X02214322Y01019961D01*
X02215399Y01017756D01*
X02216421Y01015524D01*
X02217388Y01013268D01*
X02218299Y01010990D01*
X02219154Y01008689D01*
X02219953Y01006368D01*
X02220694Y01004028D01*
X02221378Y01001671D01*
X02222003Y00999298D01*
X02222570Y00996910D01*
X02223079Y00994509D01*
X02223528Y00992096D01*
X02223918Y00989673D01*
X02224248Y00987241D01*
X02224518Y00984802D01*
X02224729Y00982356D01*
X02224880Y00979907D01*
X02224970Y00977454D01*
X02225000Y00975000D01*
X02224970Y00972546D01*
X02224880Y00970093D01*
X02224729Y00967644D01*
X02224518Y00965198D01*
X02224248Y00962759D01*
X02223918Y00960327D01*
X02223528Y00957904D01*
X02223079Y00955491D01*
X02222570Y00953090D01*
X02222003Y00950702D01*
X02221378Y00948329D01*
X02220694Y00945972D01*
X02219953Y00943632D01*
X02219154Y00941311D01*
X02218299Y00939010D01*
X02217388Y00936732D01*
X02216421Y00934476D01*
X02215399Y00932244D01*
X02214322Y00930039D01*
X02213192Y00927860D01*
X02212009Y00925710D01*
X02210773Y00923590D01*
X02209485Y00921500D01*
X02208147Y00919443D01*
X02206758Y00917419D01*
X02205321Y00915430D01*
X02203835Y00913477D01*
X02202301Y00911561D01*
X02200721Y00909683D01*
X02199095Y00907844D01*
X02197425Y00906046D01*
X02195711Y00904289D01*
X02193954Y00902575D01*
X02192156Y00900905D01*
X02190317Y00899279D01*
X02188439Y00897699D01*
X02186523Y00896165D01*
X02184570Y00894679D01*
X02182581Y00893242D01*
X02180557Y00891853D01*
X02178500Y00890515D01*
X02176410Y00889227D01*
X02174290Y00887991D01*
X02172140Y00886808D01*
X02169961Y00885678D01*
X02167756Y00884601D01*
X02165524Y00883579D01*
X02163268Y00882612D01*
X02160990Y00881701D01*
X02158689Y00880846D01*
X02156368Y00880047D01*
X02154028Y00879306D01*
X02151671Y00878622D01*
X02149298Y00877997D01*
X02146910Y00877430D01*
X02144509Y00876921D01*
X02142096Y00876472D01*
X02139673Y00876082D01*
X02137241Y00875752D01*
X02134802Y00875482D01*
X02132356Y00875271D01*
X02129907Y00875120D01*
X02127454Y00875030D01*
X02125000Y00875000D01*
X02122546Y00875030D01*
X02120093Y00875120D01*
X02117644Y00875271D01*
X02115198Y00875482D01*
X02112759Y00875752D01*
X02110327Y00876082D01*
X02107904Y00876472D01*
X02105491Y00876921D01*
X02103090Y00877430D01*
X02100702Y00877997D01*
X02098329Y00878622D01*
X02095972Y00879306D01*
X02093632Y00880047D01*
X02091311Y00880846D01*
X02089010Y00881701D01*
X02086732Y00882612D01*
X02084476Y00883579D01*
X02082244Y00884601D01*
X02080039Y00885678D01*
X02077860Y00886808D01*
X02075710Y00887991D01*
X02073590Y00889227D01*
X02071500Y00890515D01*
X02069443Y00891853D01*
X02067419Y00893242D01*
X02065430Y00894679D01*
X02063477Y00896165D01*
X02061561Y00897699D01*
X02059683Y00899279D01*
X02057844Y00900905D01*
X02056046Y00902575D01*
X02054289Y00904289D01*
X02052575Y00906046D01*
X02050905Y00907844D01*
X02049279Y00909683D01*
X02047699Y00911561D01*
X02046165Y00913477D01*
X02044679Y00915430D01*
X02043242Y00917419D01*
X02041853Y00919443D01*
X02040515Y00921500D01*
X02039227Y00923590D01*
X02037991Y00925710D01*
X02036808Y00927860D01*
X02035678Y00930039D01*
X02034601Y00932244D01*
X02033579Y00934476D01*
X02032612Y00936732D01*
X02031701Y00939010D01*
X02030846Y00941311D01*
X02030047Y00943632D01*
X02029306Y00945972D01*
X02028622Y00948329D01*
X02027997Y00950702D01*
X02027430Y00953090D01*
X02026921Y00955491D01*
X02026472Y00957904D01*
X02026082Y00960327D01*
X02025752Y00962759D01*
X02025482Y00965198D01*
X02025271Y00967644D01*
X02025120Y00970093D01*
X02025030Y00972546D01*
X02025000Y00975000D01*
X01150000Y00975000D02*
X01150030Y00977454D01*
X01150120Y00979907D01*
X01150271Y00982356D01*
X01150482Y00984802D01*
X01150752Y00987241D01*
X01151082Y00989673D01*
X01151472Y00992096D01*
X01151921Y00994509D01*
X01152430Y00996910D01*
X01152997Y00999298D01*
X01153622Y01001671D01*
X01154306Y01004028D01*
X01155047Y01006368D01*
X01155846Y01008689D01*
X01156701Y01010990D01*
X01157612Y01013268D01*
X01158579Y01015524D01*
X01159601Y01017756D01*
X01160678Y01019961D01*
X01161808Y01022140D01*
X01162991Y01024290D01*
X01164227Y01026410D01*
X01165515Y01028500D01*
X01166853Y01030557D01*
X01168242Y01032581D01*
X01169679Y01034570D01*
X01171165Y01036523D01*
X01172699Y01038439D01*
X01174279Y01040317D01*
X01175905Y01042156D01*
X01177575Y01043954D01*
X01179289Y01045711D01*
X01181046Y01047425D01*
X01182844Y01049095D01*
X01184683Y01050721D01*
X01186561Y01052301D01*
X01188477Y01053835D01*
X01190430Y01055321D01*
X01192419Y01056758D01*
X01194443Y01058147D01*
X01196500Y01059485D01*
X01198590Y01060773D01*
X01200710Y01062009D01*
X01202860Y01063192D01*
X01205039Y01064322D01*
X01207244Y01065399D01*
X01209476Y01066421D01*
X01211732Y01067388D01*
X01214010Y01068299D01*
X01216311Y01069154D01*
X01218632Y01069953D01*
X01220972Y01070694D01*
X01223329Y01071378D01*
X01225702Y01072003D01*
X01228090Y01072570D01*
X01230491Y01073079D01*
X01232904Y01073528D01*
X01235327Y01073918D01*
X01237759Y01074248D01*
X01240198Y01074518D01*
X01242644Y01074729D01*
X01245093Y01074880D01*
X01247546Y01074970D01*
X01250000Y01075000D01*
X01252454Y01074970D01*
X01254907Y01074880D01*
X01257356Y01074729D01*
X01259802Y01074518D01*
X01262241Y01074248D01*
X01264673Y01073918D01*
X01267096Y01073528D01*
X01269509Y01073079D01*
X01271910Y01072570D01*
X01274298Y01072003D01*
X01276671Y01071378D01*
X01279028Y01070694D01*
X01281368Y01069953D01*
X01283689Y01069154D01*
X01285990Y01068299D01*
X01288268Y01067388D01*
X01290524Y01066421D01*
X01292756Y01065399D01*
X01294961Y01064322D01*
X01297140Y01063192D01*
X01299290Y01062009D01*
X01301410Y01060773D01*
X01303500Y01059485D01*
X01305557Y01058147D01*
X01307581Y01056758D01*
X01309570Y01055321D01*
X01311523Y01053835D01*
X01313439Y01052301D01*
X01315317Y01050721D01*
X01317156Y01049095D01*
X01318954Y01047425D01*
X01320711Y01045711D01*
X01322425Y01043954D01*
X01324095Y01042156D01*
X01325721Y01040317D01*
X01327301Y01038439D01*
X01328835Y01036523D01*
X01330321Y01034570D01*
X01331758Y01032581D01*
X01333147Y01030557D01*
X01334485Y01028500D01*
X01335773Y01026410D01*
X01337009Y01024290D01*
X01338192Y01022140D01*
X01339322Y01019961D01*
X01340399Y01017756D01*
X01341421Y01015524D01*
X01342388Y01013268D01*
X01343299Y01010990D01*
X01344154Y01008689D01*
X01344953Y01006368D01*
X01345694Y01004028D01*
X01346378Y01001671D01*
X01347003Y00999298D01*
X01347570Y00996910D01*
X01348079Y00994509D01*
X01348528Y00992096D01*
X01348918Y00989673D01*
X01349248Y00987241D01*
X01349518Y00984802D01*
X01349729Y00982356D01*
X01349880Y00979907D01*
X01349970Y00977454D01*
X01350000Y00975000D01*
X01349970Y00972546D01*
X01349880Y00970093D01*
X01349729Y00967644D01*
X01349518Y00965198D01*
X01349248Y00962759D01*
X01348918Y00960327D01*
X01348528Y00957904D01*
X01348079Y00955491D01*
X01347570Y00953090D01*
X01347003Y00950702D01*
X01346378Y00948329D01*
X01345694Y00945972D01*
X01344953Y00943632D01*
X01344154Y00941311D01*
X01343299Y00939010D01*
X01342388Y00936732D01*
X01341421Y00934476D01*
X01340399Y00932244D01*
X01339322Y00930039D01*
X01338192Y00927860D01*
X01337009Y00925710D01*
X01335773Y00923590D01*
X01334485Y00921500D01*
X01333147Y00919443D01*
X01331758Y00917419D01*
X01330321Y00915430D01*
X01328835Y00913477D01*
X01327301Y00911561D01*
X01325721Y00909683D01*
X01324095Y00907844D01*
X01322425Y00906046D01*
X01320711Y00904289D01*
X01318954Y00902575D01*
X01317156Y00900905D01*
X01315317Y00899279D01*
X01313439Y00897699D01*
X01311523Y00896165D01*
X01309570Y00894679D01*
X01307581Y00893242D01*
X01305557Y00891853D01*
X01303500Y00890515D01*
X01301410Y00889227D01*
X01299290Y00887991D01*
X01297140Y00886808D01*
X01294961Y00885678D01*
X01292756Y00884601D01*
X01290524Y00883579D01*
X01288268Y00882612D01*
X01285990Y00881701D01*
X01283689Y00880846D01*
X01281368Y00880047D01*
X01279028Y00879306D01*
X01276671Y00878622D01*
X01274298Y00877997D01*
X01271910Y00877430D01*
X01269509Y00876921D01*
X01267096Y00876472D01*
X01264673Y00876082D01*
X01262241Y00875752D01*
X01259802Y00875482D01*
X01257356Y00875271D01*
X01254907Y00875120D01*
X01252454Y00875030D01*
X01250000Y00875000D01*
X01247546Y00875030D01*
X01245093Y00875120D01*
X01242644Y00875271D01*
X01240198Y00875482D01*
X01237759Y00875752D01*
X01235327Y00876082D01*
X01232904Y00876472D01*
X01230491Y00876921D01*
X01228090Y00877430D01*
X01225702Y00877997D01*
X01223329Y00878622D01*
X01220972Y00879306D01*
X01218632Y00880047D01*
X01216311Y00880846D01*
X01214010Y00881701D01*
X01211732Y00882612D01*
X01209476Y00883579D01*
X01207244Y00884601D01*
X01205039Y00885678D01*
X01202860Y00886808D01*
X01200710Y00887991D01*
X01198590Y00889227D01*
X01196500Y00890515D01*
X01194443Y00891853D01*
X01192419Y00893242D01*
X01190430Y00894679D01*
X01188477Y00896165D01*
X01186561Y00897699D01*
X01184683Y00899279D01*
X01182844Y00900905D01*
X01181046Y00902575D01*
X01179289Y00904289D01*
X01177575Y00906046D01*
X01175905Y00907844D01*
X01174279Y00909683D01*
X01172699Y00911561D01*
X01171165Y00913477D01*
X01169679Y00915430D01*
X01168242Y00917419D01*
X01166853Y00919443D01*
X01165515Y00921500D01*
X01164227Y00923590D01*
X01162991Y00925710D01*
X01161808Y00927860D01*
X01160678Y00930039D01*
X01159601Y00932244D01*
X01158579Y00934476D01*
X01157612Y00936732D01*
X01156701Y00939010D01*
X01155846Y00941311D01*
X01155047Y00943632D01*
X01154306Y00945972D01*
X01153622Y00948329D01*
X01152997Y00950702D01*
X01152430Y00953090D01*
X01151921Y00955491D01*
X01151472Y00957904D01*
X01151082Y00960327D01*
X01150752Y00962759D01*
X01150482Y00965198D01*
X01150271Y00967644D01*
X01150120Y00970093D01*
X01150030Y00972546D01*
X01150000Y00975000D01*
D13*
X00840945Y01355610D02*
X00848415Y01365002D01*
X00856110Y01374210D01*
X00864028Y01383228D01*
X00872162Y01392051D01*
X00880508Y01400674D01*
X00889061Y01409092D01*
X00897815Y01417299D01*
X00906767Y01425292D01*
X00915910Y01433064D01*
X00925240Y01440612D01*
X00934750Y01447931D01*
X00944435Y01455018D01*
X00954289Y01461866D01*
X00964306Y01468473D01*
X00974482Y01474835D01*
X00984808Y01480948D01*
X00995281Y01486809D01*
X01005892Y01492413D01*
X01016637Y01497757D01*
X01027508Y01502840D01*
X01038499Y01507656D01*
X01049604Y01512204D01*
X01060817Y01516481D01*
X01072130Y01520485D01*
X01083536Y01524212D01*
X01095030Y01527661D01*
X01106605Y01530830D01*
X01118253Y01533717D01*
X01129968Y01536320D01*
X01141742Y01538638D01*
X01153569Y01540669D01*
X01165442Y01542412D01*
X01177354Y01543866D01*
X01189298Y01545030D01*
X01201267Y01545904D01*
X01213253Y01546487D01*
X01225250Y01546779D01*
X01237250Y01546779D01*
X01249247Y01546487D01*
X01261233Y01545904D01*
X01273202Y01545030D01*
X01285146Y01543866D01*
X01297058Y01542412D01*
X01308931Y01540669D01*
X01320758Y01538638D01*
X01332532Y01536320D01*
X01344247Y01533717D01*
X01355895Y01530830D01*
X01367470Y01527661D01*
X01378964Y01524212D01*
X01390370Y01520485D01*
X01401683Y01516481D01*
X01412896Y01512204D01*
X01424001Y01507656D01*
X01434992Y01502840D01*
X01445863Y01497757D01*
X01456608Y01492413D01*
X01467219Y01486809D01*
X01477692Y01480948D01*
X01488018Y01474835D01*
X01498194Y01468473D01*
X01508211Y01461866D01*
X01518065Y01455018D01*
X01527750Y01447931D01*
X01537260Y01440612D01*
X01546590Y01433064D01*
X01555733Y01425292D01*
X01564685Y01417299D01*
X01573439Y01409092D01*
X01581992Y01400674D01*
X01590338Y01392051D01*
X01598472Y01383228D01*
X01606390Y01374210D01*
X01614085Y01365002D01*
X01621555Y01355610D01*
X01621555Y00606890D01*
X01715945Y00606890D02*
X01715945Y01355610D01*
X02496555Y01355610D02*
X02496555Y00606890D01*
X02515945Y00606890D02*
X02515945Y01355610D01*
X03296555Y01355610D02*
X03296555Y00606890D01*
X03390945Y00606890D02*
X03390945Y01355610D01*
X04171555Y01355610D02*
X04171555Y00606890D01*
X04190945Y00606890D02*
X04190945Y01355610D01*
X04971555Y01355610D02*
X04971555Y00606890D01*
X04964854Y00597409D01*
X04957922Y00588096D01*
X04950764Y00578955D01*
X04943384Y00569992D01*
X04935787Y00561213D01*
X04927977Y00552622D01*
X04919959Y00544226D01*
X04911738Y00536028D01*
X04903318Y00528034D01*
X04894705Y00520249D01*
X04885904Y00512677D01*
X04876921Y00505323D01*
X04867759Y00498191D01*
X04858426Y00491286D01*
X04848926Y00484612D01*
X04839266Y00478172D01*
X04829451Y00471971D01*
X04819487Y00466012D01*
X04809380Y00460299D01*
X04799136Y00454835D01*
X04788761Y00449624D01*
X04778262Y00444669D01*
X04767644Y00439972D01*
X04756915Y00435537D01*
X04746080Y00431365D01*
X04735146Y00427461D01*
X04724120Y00423826D01*
X04713009Y00420461D01*
X04701818Y00417370D01*
X04690554Y00414554D01*
X04679225Y00412015D01*
X04667838Y00409754D01*
X04656398Y00407773D01*
X04644913Y00406073D01*
X04633390Y00404654D01*
X04621836Y00403518D01*
X04610257Y00402666D01*
X04598661Y00402097D01*
X04587055Y00401813D01*
X04575445Y00401813D01*
X04563839Y00402097D01*
X04552243Y00402666D01*
X04540664Y00403518D01*
X04529110Y00404654D01*
X04517587Y00406073D01*
X04506102Y00407773D01*
X04494662Y00409754D01*
X04483275Y00412015D01*
X04471946Y00414554D01*
X04460682Y00417370D01*
X04449491Y00420461D01*
X04438380Y00423826D01*
X04427354Y00427461D01*
X04416420Y00431365D01*
X04405585Y00435537D01*
X04394856Y00439972D01*
X04384238Y00444669D01*
X04373739Y00449624D01*
X04363364Y00454835D01*
X04353120Y00460299D01*
X04343013Y00466012D01*
X04333049Y00471971D01*
X04323234Y00478172D01*
X04313574Y00484612D01*
X04304074Y00491286D01*
X04294741Y00498191D01*
X04285579Y00505323D01*
X04276596Y00512677D01*
X04267795Y00520249D01*
X04259182Y00528034D01*
X04250762Y00536028D01*
X04242541Y00544226D01*
X04234523Y00552622D01*
X04226713Y00561213D01*
X04219116Y00569992D01*
X04211736Y00578955D01*
X04204578Y00588096D01*
X04197646Y00597409D01*
X04190945Y00606890D01*
X04171555Y00606890D02*
X04164854Y00597409D01*
X04157922Y00588096D01*
X04150764Y00578955D01*
X04143384Y00569992D01*
X04135787Y00561213D01*
X04127977Y00552622D01*
X04119959Y00544226D01*
X04111738Y00536028D01*
X04103318Y00528034D01*
X04094705Y00520249D01*
X04085904Y00512677D01*
X04076921Y00505323D01*
X04067759Y00498191D01*
X04058426Y00491286D01*
X04048926Y00484612D01*
X04039266Y00478172D01*
X04029451Y00471971D01*
X04019487Y00466012D01*
X04009380Y00460299D01*
X03999136Y00454835D01*
X03988761Y00449624D01*
X03978262Y00444669D01*
X03967644Y00439972D01*
X03956915Y00435537D01*
X03946080Y00431365D01*
X03935146Y00427461D01*
X03924120Y00423826D01*
X03913009Y00420461D01*
X03901818Y00417370D01*
X03890554Y00414554D01*
X03879225Y00412015D01*
X03867838Y00409754D01*
X03856398Y00407773D01*
X03844913Y00406073D01*
X03833390Y00404654D01*
X03821836Y00403518D01*
X03810257Y00402666D01*
X03798661Y00402097D01*
X03787055Y00401813D01*
X03775445Y00401813D01*
X03763839Y00402097D01*
X03752243Y00402666D01*
X03740664Y00403518D01*
X03729110Y00404654D01*
X03717587Y00406073D01*
X03706102Y00407773D01*
X03694662Y00409754D01*
X03683275Y00412015D01*
X03671946Y00414554D01*
X03660682Y00417370D01*
X03649491Y00420461D01*
X03638380Y00423826D01*
X03627354Y00427461D01*
X03616420Y00431365D01*
X03605585Y00435537D01*
X03594856Y00439972D01*
X03584238Y00444669D01*
X03573739Y00449624D01*
X03563364Y00454835D01*
X03553120Y00460299D01*
X03543013Y00466012D01*
X03533049Y00471971D01*
X03523234Y00478172D01*
X03513574Y00484612D01*
X03504074Y00491286D01*
X03494741Y00498191D01*
X03485579Y00505323D01*
X03476596Y00512677D01*
X03467795Y00520249D01*
X03459182Y00528034D01*
X03450762Y00536028D01*
X03442541Y00544226D01*
X03434523Y00552622D01*
X03426713Y00561213D01*
X03419116Y00569992D01*
X03411736Y00578955D01*
X03404578Y00588096D01*
X03397646Y00597409D01*
X03390945Y00606890D01*
X03296555Y00606890D02*
X03289854Y00597409D01*
X03282922Y00588096D01*
X03275764Y00578955D01*
X03268384Y00569992D01*
X03260787Y00561213D01*
X03252977Y00552622D01*
X03244959Y00544226D01*
X03236738Y00536028D01*
X03228318Y00528034D01*
X03219705Y00520249D01*
X03210904Y00512677D01*
X03201921Y00505323D01*
X03192759Y00498191D01*
X03183426Y00491286D01*
X03173926Y00484612D01*
X03164266Y00478172D01*
X03154451Y00471971D01*
X03144487Y00466012D01*
X03134380Y00460299D01*
X03124136Y00454835D01*
X03113761Y00449624D01*
X03103262Y00444669D01*
X03092644Y00439972D01*
X03081915Y00435537D01*
X03071080Y00431365D01*
X03060146Y00427461D01*
X03049120Y00423826D01*
X03038009Y00420461D01*
X03026818Y00417370D01*
X03015554Y00414554D01*
X03004225Y00412015D01*
X02992838Y00409754D01*
X02981398Y00407773D01*
X02969913Y00406073D01*
X02958390Y00404654D01*
X02946836Y00403518D01*
X02935257Y00402666D01*
X02923661Y00402097D01*
X02912055Y00401813D01*
X02900445Y00401813D01*
X02888839Y00402097D01*
X02877243Y00402666D01*
X02865664Y00403518D01*
X02854110Y00404654D01*
X02842587Y00406073D01*
X02831102Y00407773D01*
X02819662Y00409754D01*
X02808275Y00412015D01*
X02796946Y00414554D01*
X02785682Y00417370D01*
X02774491Y00420461D01*
X02763380Y00423826D01*
X02752354Y00427461D01*
X02741420Y00431365D01*
X02730585Y00435537D01*
X02719856Y00439972D01*
X02709238Y00444669D01*
X02698739Y00449624D01*
X02688364Y00454835D01*
X02678120Y00460299D01*
X02668013Y00466012D01*
X02658049Y00471971D01*
X02648234Y00478172D01*
X02638574Y00484612D01*
X02629074Y00491286D01*
X02619741Y00498191D01*
X02610579Y00505323D01*
X02601596Y00512677D01*
X02592795Y00520249D01*
X02584182Y00528034D01*
X02575762Y00536028D01*
X02567541Y00544226D01*
X02559523Y00552622D01*
X02551713Y00561213D01*
X02544116Y00569992D01*
X02536736Y00578955D01*
X02529578Y00588096D01*
X02522646Y00597409D01*
X02515945Y00606890D01*
X02496555Y00606890D02*
X02489854Y00597409D01*
X02482922Y00588096D01*
X02475764Y00578955D01*
X02468384Y00569992D01*
X02460787Y00561213D01*
X02452977Y00552622D01*
X02444959Y00544226D01*
X02436738Y00536028D01*
X02428318Y00528034D01*
X02419705Y00520249D01*
X02410904Y00512677D01*
X02401921Y00505323D01*
X02392759Y00498191D01*
X02383426Y00491286D01*
X02373926Y00484612D01*
X02364266Y00478172D01*
X02354451Y00471971D01*
X02344487Y00466012D01*
X02334380Y00460299D01*
X02324136Y00454835D01*
X02313761Y00449624D01*
X02303262Y00444669D01*
X02292644Y00439972D01*
X02281915Y00435537D01*
X02271080Y00431365D01*
X02260146Y00427461D01*
X02249120Y00423826D01*
X02238009Y00420461D01*
X02226818Y00417370D01*
X02215554Y00414554D01*
X02204225Y00412015D01*
X02192838Y00409754D01*
X02181398Y00407773D01*
X02169913Y00406073D01*
X02158390Y00404654D01*
X02146836Y00403518D01*
X02135257Y00402666D01*
X02123661Y00402097D01*
X02112055Y00401813D01*
X02100445Y00401813D01*
X02088839Y00402097D01*
X02077243Y00402666D01*
X02065664Y00403518D01*
X02054110Y00404654D01*
X02042587Y00406073D01*
X02031102Y00407773D01*
X02019662Y00409754D01*
X02008275Y00412015D01*
X01996946Y00414554D01*
X01985682Y00417370D01*
X01974491Y00420461D01*
X01963380Y00423826D01*
X01952354Y00427461D01*
X01941420Y00431365D01*
X01930585Y00435537D01*
X01919856Y00439972D01*
X01909238Y00444669D01*
X01898739Y00449624D01*
X01888364Y00454835D01*
X01878120Y00460299D01*
X01868013Y00466012D01*
X01858049Y00471971D01*
X01848234Y00478172D01*
X01838574Y00484612D01*
X01829074Y00491286D01*
X01819741Y00498191D01*
X01810579Y00505323D01*
X01801596Y00512677D01*
X01792795Y00520249D01*
X01784182Y00528034D01*
X01775762Y00536028D01*
X01767541Y00544226D01*
X01759523Y00552622D01*
X01751713Y00561213D01*
X01744116Y00569992D01*
X01736736Y00578955D01*
X01729578Y00588096D01*
X01722646Y00597409D01*
X01715945Y00606890D01*
X01621555Y00606890D02*
X01614854Y00597409D01*
X01607922Y00588096D01*
X01600764Y00578955D01*
X01593384Y00569992D01*
X01585787Y00561213D01*
X01577977Y00552622D01*
X01569959Y00544226D01*
X01561738Y00536028D01*
X01553318Y00528034D01*
X01544705Y00520249D01*
X01535904Y00512677D01*
X01526921Y00505323D01*
X01517759Y00498191D01*
X01508426Y00491286D01*
X01498926Y00484612D01*
X01489266Y00478172D01*
X01479451Y00471971D01*
X01469487Y00466012D01*
X01459380Y00460299D01*
X01449136Y00454835D01*
X01438761Y00449624D01*
X01428262Y00444669D01*
X01417644Y00439972D01*
X01406915Y00435537D01*
X01396080Y00431365D01*
X01385146Y00427461D01*
X01374120Y00423826D01*
X01363009Y00420461D01*
X01351818Y00417370D01*
X01340554Y00414554D01*
X01329225Y00412015D01*
X01317838Y00409754D01*
X01306398Y00407773D01*
X01294913Y00406073D01*
X01283390Y00404654D01*
X01271836Y00403518D01*
X01260257Y00402666D01*
X01248661Y00402097D01*
X01237055Y00401813D01*
X01225445Y00401813D01*
X01213839Y00402097D01*
X01202243Y00402666D01*
X01190664Y00403518D01*
X01179110Y00404654D01*
X01167587Y00406073D01*
X01156102Y00407773D01*
X01144662Y00409754D01*
X01133275Y00412015D01*
X01121946Y00414554D01*
X01110682Y00417370D01*
X01099491Y00420461D01*
X01088380Y00423826D01*
X01077354Y00427461D01*
X01066420Y00431365D01*
X01055585Y00435537D01*
X01044856Y00439972D01*
X01034238Y00444669D01*
X01023739Y00449624D01*
X01013364Y00454835D01*
X01003120Y00460299D01*
X00993013Y00466012D01*
X00983049Y00471971D01*
X00973234Y00478172D01*
X00963574Y00484612D01*
X00954074Y00491286D01*
X00944741Y00498191D01*
X00935579Y00505323D01*
X00926596Y00512677D01*
X00917795Y00520249D01*
X00909182Y00528034D01*
X00900762Y00536028D01*
X00892541Y00544226D01*
X00884523Y00552622D01*
X00876713Y00561213D01*
X00869116Y00569992D01*
X00861736Y00578955D01*
X00854578Y00588096D01*
X00847646Y00597409D01*
X00840945Y00606890D01*
X00840945Y01355610D01*
X00821555Y01355610D02*
X00821555Y00606890D01*
X00040945Y00606890D02*
X00040945Y01355610D01*
X00048415Y01365002D01*
X00056110Y01374210D01*
X00064028Y01383228D01*
X00072162Y01392051D01*
X00080508Y01400674D01*
X00089061Y01409092D01*
X00097815Y01417299D01*
X00106767Y01425292D01*
X00115910Y01433064D01*
X00125240Y01440612D01*
X00134750Y01447931D01*
X00144435Y01455018D01*
X00154289Y01461866D01*
X00164306Y01468473D01*
X00174482Y01474835D01*
X00184808Y01480948D01*
X00195281Y01486809D01*
X00205892Y01492413D01*
X00216637Y01497757D01*
X00227508Y01502840D01*
X00238499Y01507656D01*
X00249604Y01512204D01*
X00260817Y01516481D01*
X00272130Y01520485D01*
X00283536Y01524212D01*
X00295030Y01527661D01*
X00306605Y01530830D01*
X00318253Y01533717D01*
X00329968Y01536320D01*
X00341742Y01538638D01*
X00353569Y01540669D01*
X00365442Y01542412D01*
X00377354Y01543866D01*
X00389298Y01545030D01*
X00401267Y01545904D01*
X00413253Y01546487D01*
X00425250Y01546779D01*
X00437250Y01546779D01*
X00449247Y01546487D01*
X00461233Y01545904D01*
X00473202Y01545030D01*
X00485146Y01543866D01*
X00497058Y01542412D01*
X00508931Y01540669D01*
X00520758Y01538638D01*
X00532532Y01536320D01*
X00544247Y01533717D01*
X00555895Y01530830D01*
X00567470Y01527661D01*
X00578964Y01524212D01*
X00590370Y01520485D01*
X00601683Y01516481D01*
X00612896Y01512204D01*
X00624001Y01507656D01*
X00634992Y01502840D01*
X00645863Y01497757D01*
X00656608Y01492413D01*
X00667219Y01486809D01*
X00677692Y01480948D01*
X00688018Y01474835D01*
X00698194Y01468473D01*
X00708211Y01461866D01*
X00718065Y01455018D01*
X00727750Y01447931D01*
X00737260Y01440612D01*
X00746590Y01433064D01*
X00755733Y01425292D01*
X00764685Y01417299D01*
X00773439Y01409092D01*
X00781992Y01400674D01*
X00790338Y01392051D01*
X00798472Y01383228D01*
X00806390Y01374210D01*
X00814085Y01365002D01*
X00821555Y01355610D01*
X01715945Y01355610D02*
X01723415Y01365002D01*
X01731110Y01374210D01*
X01739028Y01383228D01*
X01747162Y01392051D01*
X01755508Y01400674D01*
X01764061Y01409092D01*
X01772815Y01417299D01*
X01781767Y01425292D01*
X01790910Y01433064D01*
X01800240Y01440612D01*
X01809750Y01447931D01*
X01819435Y01455018D01*
X01829289Y01461866D01*
X01839306Y01468473D01*
X01849482Y01474835D01*
X01859808Y01480948D01*
X01870281Y01486809D01*
X01880892Y01492413D01*
X01891637Y01497757D01*
X01902508Y01502840D01*
X01913499Y01507656D01*
X01924604Y01512204D01*
X01935817Y01516481D01*
X01947130Y01520485D01*
X01958536Y01524212D01*
X01970030Y01527661D01*
X01981605Y01530830D01*
X01993253Y01533717D01*
X02004968Y01536320D01*
X02016742Y01538638D01*
X02028569Y01540669D01*
X02040442Y01542412D01*
X02052354Y01543866D01*
X02064298Y01545030D01*
X02076267Y01545904D01*
X02088253Y01546487D01*
X02100250Y01546779D01*
X02112250Y01546779D01*
X02124247Y01546487D01*
X02136233Y01545904D01*
X02148202Y01545030D01*
X02160146Y01543866D01*
X02172058Y01542412D01*
X02183931Y01540669D01*
X02195758Y01538638D01*
X02207532Y01536320D01*
X02219247Y01533717D01*
X02230895Y01530830D01*
X02242470Y01527661D01*
X02253964Y01524212D01*
X02265370Y01520485D01*
X02276683Y01516481D01*
X02287896Y01512204D01*
X02299001Y01507656D01*
X02309992Y01502840D01*
X02320863Y01497757D01*
X02331608Y01492413D01*
X02342219Y01486809D01*
X02352692Y01480948D01*
X02363018Y01474835D01*
X02373194Y01468473D01*
X02383211Y01461866D01*
X02393065Y01455018D01*
X02402750Y01447931D01*
X02412260Y01440612D01*
X02421590Y01433064D01*
X02430733Y01425292D01*
X02439685Y01417299D01*
X02448439Y01409092D01*
X02456992Y01400674D01*
X02465338Y01392051D01*
X02473472Y01383228D01*
X02481390Y01374210D01*
X02489085Y01365002D01*
X02496555Y01355610D01*
X02515945Y01355610D02*
X02523415Y01365002D01*
X02531110Y01374210D01*
X02539028Y01383228D01*
X02547162Y01392051D01*
X02555508Y01400674D01*
X02564061Y01409092D01*
X02572815Y01417299D01*
X02581767Y01425292D01*
X02590910Y01433064D01*
X02600240Y01440612D01*
X02609750Y01447931D01*
X02619435Y01455018D01*
X02629289Y01461866D01*
X02639306Y01468473D01*
X02649482Y01474835D01*
X02659808Y01480948D01*
X02670281Y01486809D01*
X02680892Y01492413D01*
X02691637Y01497757D01*
X02702508Y01502840D01*
X02713499Y01507656D01*
X02724604Y01512204D01*
X02735817Y01516481D01*
X02747130Y01520485D01*
X02758536Y01524212D01*
X02770030Y01527661D01*
X02781605Y01530830D01*
X02793253Y01533717D01*
X02804968Y01536320D01*
X02816742Y01538638D01*
X02828569Y01540669D01*
X02840442Y01542412D01*
X02852354Y01543866D01*
X02864298Y01545030D01*
X02876267Y01545904D01*
X02888253Y01546487D01*
X02900250Y01546779D01*
X02912250Y01546779D01*
X02924247Y01546487D01*
X02936233Y01545904D01*
X02948202Y01545030D01*
X02960146Y01543866D01*
X02972058Y01542412D01*
X02983931Y01540669D01*
X02995758Y01538638D01*
X03007532Y01536320D01*
X03019247Y01533717D01*
X03030895Y01530830D01*
X03042470Y01527661D01*
X03053964Y01524212D01*
X03065370Y01520485D01*
X03076683Y01516481D01*
X03087896Y01512204D01*
X03099001Y01507656D01*
X03109992Y01502840D01*
X03120863Y01497757D01*
X03131608Y01492413D01*
X03142219Y01486809D01*
X03152692Y01480948D01*
X03163018Y01474835D01*
X03173194Y01468473D01*
X03183211Y01461866D01*
X03193065Y01455018D01*
X03202750Y01447931D01*
X03212260Y01440612D01*
X03221590Y01433064D01*
X03230733Y01425292D01*
X03239685Y01417299D01*
X03248439Y01409092D01*
X03256992Y01400674D01*
X03265338Y01392051D01*
X03273472Y01383228D01*
X03281390Y01374210D01*
X03289085Y01365002D01*
X03296555Y01355610D01*
X03390945Y01355610D02*
X03398415Y01365002D01*
X03406110Y01374210D01*
X03414028Y01383228D01*
X03422162Y01392051D01*
X03430508Y01400674D01*
X03439061Y01409092D01*
X03447815Y01417299D01*
X03456767Y01425292D01*
X03465910Y01433064D01*
X03475240Y01440612D01*
X03484750Y01447931D01*
X03494435Y01455018D01*
X03504289Y01461866D01*
X03514306Y01468473D01*
X03524482Y01474835D01*
X03534808Y01480948D01*
X03545281Y01486809D01*
X03555892Y01492413D01*
X03566637Y01497757D01*
X03577508Y01502840D01*
X03588499Y01507656D01*
X03599604Y01512204D01*
X03610817Y01516481D01*
X03622130Y01520485D01*
X03633536Y01524212D01*
X03645030Y01527661D01*
X03656605Y01530830D01*
X03668253Y01533717D01*
X03679968Y01536320D01*
X03691742Y01538638D01*
X03703569Y01540669D01*
X03715442Y01542412D01*
X03727354Y01543866D01*
X03739298Y01545030D01*
X03751267Y01545904D01*
X03763253Y01546487D01*
X03775250Y01546779D01*
X03787250Y01546779D01*
X03799247Y01546487D01*
X03811233Y01545904D01*
X03823202Y01545030D01*
X03835146Y01543866D01*
X03847058Y01542412D01*
X03858931Y01540669D01*
X03870758Y01538638D01*
X03882532Y01536320D01*
X03894247Y01533717D01*
X03905895Y01530830D01*
X03917470Y01527661D01*
X03928964Y01524212D01*
X03940370Y01520485D01*
X03951683Y01516481D01*
X03962896Y01512204D01*
X03974001Y01507656D01*
X03984992Y01502840D01*
X03995863Y01497757D01*
X04006608Y01492413D01*
X04017219Y01486809D01*
X04027692Y01480948D01*
X04038018Y01474835D01*
X04048194Y01468473D01*
X04058211Y01461866D01*
X04068065Y01455018D01*
X04077750Y01447931D01*
X04087260Y01440612D01*
X04096590Y01433064D01*
X04105733Y01425292D01*
X04114685Y01417299D01*
X04123439Y01409092D01*
X04131992Y01400674D01*
X04140338Y01392051D01*
X04148472Y01383228D01*
X04156390Y01374210D01*
X04164085Y01365002D01*
X04171555Y01355610D01*
X04190945Y01355610D02*
X04198415Y01365002D01*
X04206110Y01374210D01*
X04214028Y01383228D01*
X04222162Y01392051D01*
X04230508Y01400674D01*
X04239061Y01409092D01*
X04247815Y01417299D01*
X04256767Y01425292D01*
X04265910Y01433064D01*
X04275240Y01440612D01*
X04284750Y01447931D01*
X04294435Y01455018D01*
X04304289Y01461866D01*
X04314306Y01468473D01*
X04324482Y01474835D01*
X04334808Y01480948D01*
X04345281Y01486809D01*
X04355892Y01492413D01*
X04366637Y01497757D01*
X04377508Y01502840D01*
X04388499Y01507656D01*
X04399604Y01512204D01*
X04410817Y01516481D01*
X04422130Y01520485D01*
X04433536Y01524212D01*
X04445030Y01527661D01*
X04456605Y01530830D01*
X04468253Y01533717D01*
X04479968Y01536320D01*
X04491742Y01538638D01*
X04503569Y01540669D01*
X04515442Y01542412D01*
X04527354Y01543866D01*
X04539298Y01545030D01*
X04551267Y01545904D01*
X04563253Y01546487D01*
X04575250Y01546779D01*
X04587250Y01546779D01*
X04599247Y01546487D01*
X04611233Y01545904D01*
X04623202Y01545030D01*
X04635146Y01543866D01*
X04647058Y01542412D01*
X04658931Y01540669D01*
X04670758Y01538638D01*
X04682532Y01536320D01*
X04694247Y01533717D01*
X04705895Y01530830D01*
X04717470Y01527661D01*
X04728964Y01524212D01*
X04740370Y01520485D01*
X04751683Y01516481D01*
X04762896Y01512204D01*
X04774001Y01507656D01*
X04784992Y01502840D01*
X04795863Y01497757D01*
X04806608Y01492413D01*
X04817219Y01486809D01*
X04827692Y01480948D01*
X04838018Y01474835D01*
X04848194Y01468473D01*
X04858211Y01461866D01*
X04868065Y01455018D01*
X04877750Y01447931D01*
X04887260Y01440612D01*
X04896590Y01433064D01*
X04905733Y01425292D01*
X04914685Y01417299D01*
X04923439Y01409092D01*
X04931992Y01400674D01*
X04940338Y01392051D01*
X04948472Y01383228D01*
X04956390Y01374210D01*
X04964085Y01365002D01*
X04971555Y01355610D01*
X00821555Y00606890D02*
X00814854Y00597409D01*
X00807922Y00588096D01*
X00800764Y00578955D01*
X00793384Y00569992D01*
X00785787Y00561213D01*
X00777977Y00552622D01*
X00769959Y00544226D01*
X00761738Y00536028D01*
X00753318Y00528034D01*
X00744705Y00520249D01*
X00735904Y00512677D01*
X00726921Y00505323D01*
X00717759Y00498191D01*
X00708426Y00491286D01*
X00698926Y00484612D01*
X00689266Y00478172D01*
X00679451Y00471971D01*
X00669487Y00466012D01*
X00659380Y00460299D01*
X00649136Y00454835D01*
X00638761Y00449624D01*
X00628262Y00444669D01*
X00617644Y00439972D01*
X00606915Y00435537D01*
X00596080Y00431365D01*
X00585146Y00427461D01*
X00574120Y00423826D01*
X00563009Y00420461D01*
X00551818Y00417370D01*
X00540554Y00414554D01*
X00529225Y00412015D01*
X00517838Y00409754D01*
X00506398Y00407773D01*
X00494913Y00406073D01*
X00483390Y00404654D01*
X00471836Y00403518D01*
X00460257Y00402666D01*
X00448661Y00402097D01*
X00437055Y00401813D01*
X00425445Y00401813D01*
X00413839Y00402097D01*
X00402243Y00402666D01*
X00390664Y00403518D01*
X00379110Y00404654D01*
X00367587Y00406073D01*
X00356102Y00407773D01*
X00344662Y00409754D01*
X00333275Y00412015D01*
X00321946Y00414554D01*
X00310682Y00417370D01*
X00299491Y00420461D01*
X00288380Y00423826D01*
X00277354Y00427461D01*
X00266420Y00431365D01*
X00255585Y00435537D01*
X00244856Y00439972D01*
X00234238Y00444669D01*
X00223739Y00449624D01*
X00213364Y00454835D01*
X00203120Y00460299D01*
X00193013Y00466012D01*
X00183049Y00471971D01*
X00173234Y00478172D01*
X00163574Y00484612D01*
X00154074Y00491286D01*
X00144741Y00498191D01*
X00135579Y00505323D01*
X00126596Y00512677D01*
X00117795Y00520249D01*
X00109182Y00528034D01*
X00100762Y00536028D01*
X00092541Y00544226D01*
X00084523Y00552622D01*
X00076713Y00561213D01*
X00069116Y00569992D01*
X00061736Y00578955D01*
X00054578Y00588096D01*
X00047646Y00597409D01*
X00040945Y00606890D01*
D14*
X00489370Y00797835D02*
X00548425Y00738780D01*
X00548425Y00778150D01*
X01289370Y00797835D02*
X01348425Y00738780D01*
X01348425Y00778150D01*
X02164370Y00797835D02*
X02223425Y00738780D01*
X02223425Y00778150D01*
X02964370Y00797835D02*
X03023425Y00738780D01*
X03023425Y00778150D01*
X03839370Y00797835D02*
X03898425Y00738780D01*
X03898425Y00778150D01*
X04639370Y00797835D02*
X04698425Y00738780D01*
X04698425Y00778150D01*
D15*
X04254468Y00518661D02*
X04239122Y00510988D01*
X04223776Y00495642D01*
X04246795Y00495642D01*
X04254468Y00487968D01*
X04254468Y00480295D01*
X04246795Y00472622D01*
X04231449Y00472622D01*
X04223776Y00480295D01*
X04223776Y00495642D01*
X04208429Y00518661D02*
X04208429Y00472622D01*
X04177736Y00518661D01*
X04177736Y00472622D01*
X03454468Y00480295D02*
X03446795Y00472622D01*
X03431449Y00472622D01*
X03423776Y00480295D01*
X03423776Y00495642D02*
X03439122Y00503315D01*
X03446795Y00503315D01*
X03454468Y00495642D01*
X03454468Y00480295D01*
X03423776Y00495642D02*
X03423776Y00518661D01*
X03454468Y00518661D01*
X03408429Y00518661D02*
X03408429Y00472622D01*
X03377736Y00518661D01*
X03377736Y00472622D01*
X02604468Y00470642D02*
X02573776Y00470642D01*
X02596795Y00493661D01*
X02596795Y00447622D01*
X02558429Y00447622D02*
X02558429Y00493661D01*
X02527736Y00493661D02*
X02558429Y00447622D01*
X02527736Y00447622D02*
X02527736Y00493661D01*
X01779468Y00485988D02*
X01779468Y00478315D01*
X01771795Y00470642D01*
X01779468Y00462968D01*
X01779468Y00455295D01*
X01771795Y00447622D01*
X01756449Y00447622D01*
X01748776Y00455295D01*
X01733429Y00447622D02*
X01733429Y00493661D01*
X01748776Y00485988D02*
X01756449Y00493661D01*
X01771795Y00493661D01*
X01779468Y00485988D01*
X01771795Y00470642D02*
X01764122Y00470642D01*
X01733429Y00447622D02*
X01702736Y00493661D01*
X01702736Y00447622D01*
X00929468Y00447622D02*
X00898776Y00447622D01*
X00929468Y00478315D01*
X00929468Y00485988D01*
X00921795Y00493661D01*
X00906449Y00493661D01*
X00898776Y00485988D01*
X00883429Y00493661D02*
X00883429Y00447622D01*
X00852736Y00493661D01*
X00852736Y00447622D01*
X00129468Y00447622D02*
X00098776Y00447622D01*
X00114122Y00447622D02*
X00114122Y00493661D01*
X00098776Y00478315D01*
X00083429Y00493661D02*
X00083429Y00447622D01*
X00052736Y00493661D01*
X00052736Y00447622D01*
D16*
X00608000Y00275000D03*
X00892000Y00275000D03*
X01108000Y00275000D03*
X01392000Y00275000D03*
X01933000Y00275000D03*
X02217000Y00275000D03*
X02758000Y00275000D03*
X03042000Y00275000D03*
X03483000Y00275000D03*
X03767000Y00275000D03*
X04333000Y00275000D03*
X04617000Y00275000D03*
M02*
