G04 EAGLE Gerber X2 export*
%TF.Part,Single*%
%TF.FileFunction,Other,Bottom Copper*%
%TF.FilePolarity,Positive*%
%TF.GenerationSoftware,Autodesk,EAGLE,9.1.0*%
%TF.CreationDate,2018-12-28T14:04:56Z*%
G75*
%MOMM*%
%FSLAX34Y34*%
%LPD*%
%AMOC8*
5,1,8,0,0,1.08239X$1,22.5*%
G01*
%ADD10C,1.422400*%
%ADD11P,4.329560X8X202.500000*%
%ADD12P,4.329560X8X112.500000*%
%ADD13C,1.950000*%
%ADD14C,1.117600*%
%ADD15P,1.429621X8X202.500000*%
%ADD16P,1.429621X8X22.500000*%
%ADD17P,1.732040X8X22.500000*%
%ADD18C,1.600200*%
%ADD19P,1.429621X8X292.500000*%
%ADD20C,1.320800*%
%ADD21C,1.676400*%
%ADD22C,1.524000*%
%ADD23P,1.649562X8X112.500000*%
%ADD24P,0.982810X8X22.500000*%
%ADD25C,0.304800*%
%ADD26C,1.016000*%
%ADD27C,0.304800*%

G36*
X74135Y7886D02*
X74135Y7886D01*
X74265Y7888D01*
X74359Y7906D01*
X74454Y7915D01*
X74580Y7949D01*
X74707Y7974D01*
X74796Y8008D01*
X74888Y8033D01*
X75006Y8089D01*
X75127Y8136D01*
X75209Y8186D01*
X75295Y8227D01*
X75401Y8302D01*
X75512Y8370D01*
X75583Y8433D01*
X75661Y8489D01*
X75752Y8582D01*
X75849Y8668D01*
X75908Y8743D01*
X75975Y8811D01*
X76048Y8919D01*
X76129Y9021D01*
X76174Y9105D01*
X76227Y9184D01*
X76280Y9303D01*
X76341Y9418D01*
X76371Y9509D01*
X76410Y9596D01*
X76440Y9723D01*
X76481Y9846D01*
X76494Y9941D01*
X76516Y10034D01*
X76524Y10163D01*
X76542Y10292D01*
X76538Y10388D01*
X76544Y10483D01*
X76529Y10612D01*
X76524Y10742D01*
X76503Y10835D01*
X76492Y10930D01*
X76454Y11055D01*
X76426Y11182D01*
X76389Y11270D01*
X76362Y11361D01*
X76303Y11477D01*
X76252Y11597D01*
X76200Y11678D01*
X76157Y11763D01*
X76079Y11866D01*
X76008Y11975D01*
X75922Y12073D01*
X75885Y12121D01*
X75852Y12152D01*
X75801Y12210D01*
X64327Y23683D01*
X64327Y31669D01*
X64343Y31744D01*
X64389Y31930D01*
X64391Y31964D01*
X64398Y31998D01*
X64417Y32310D01*
X64417Y33730D01*
X64414Y33765D01*
X64416Y33799D01*
X64394Y33988D01*
X64377Y34179D01*
X64368Y34212D01*
X64364Y34246D01*
X64327Y34369D01*
X64327Y42357D01*
X77531Y55561D01*
X83619Y55561D01*
X83619Y48959D01*
X83638Y48747D01*
X83654Y48536D01*
X83657Y48524D01*
X83659Y48510D01*
X83715Y48306D01*
X83768Y48101D01*
X83774Y48089D01*
X83777Y48076D01*
X83868Y47886D01*
X83957Y47692D01*
X83965Y47681D01*
X83971Y47669D01*
X84094Y47497D01*
X84216Y47323D01*
X84225Y47314D01*
X84233Y47303D01*
X84385Y47156D01*
X84535Y47006D01*
X84546Y46999D01*
X84555Y46989D01*
X84731Y46871D01*
X84905Y46750D01*
X84920Y46743D01*
X84928Y46737D01*
X84965Y46721D01*
X85186Y46613D01*
X85896Y46319D01*
X86053Y46270D01*
X86208Y46213D01*
X86268Y46202D01*
X86326Y46184D01*
X86489Y46163D01*
X86651Y46135D01*
X86712Y46135D01*
X86773Y46127D01*
X86937Y46136D01*
X87101Y46136D01*
X87161Y46147D01*
X87222Y46150D01*
X87382Y46188D01*
X87544Y46217D01*
X87617Y46242D01*
X87661Y46253D01*
X87717Y46277D01*
X87840Y46319D01*
X88550Y46613D01*
X88738Y46711D01*
X88927Y46807D01*
X88937Y46815D01*
X88949Y46821D01*
X89116Y46951D01*
X89285Y47079D01*
X89294Y47089D01*
X89305Y47097D01*
X89447Y47255D01*
X89591Y47410D01*
X89598Y47422D01*
X89606Y47431D01*
X89718Y47611D01*
X89832Y47790D01*
X89837Y47803D01*
X89844Y47814D01*
X89923Y48010D01*
X90003Y48207D01*
X90006Y48220D01*
X90011Y48232D01*
X90053Y48440D01*
X90098Y48647D01*
X90099Y48663D01*
X90101Y48673D01*
X90102Y48713D01*
X90117Y48959D01*
X90117Y55561D01*
X96205Y55561D01*
X109409Y42357D01*
X109409Y34371D01*
X109393Y34295D01*
X109347Y34110D01*
X109345Y34076D01*
X109338Y34042D01*
X109319Y33730D01*
X109319Y32310D01*
X109322Y32275D01*
X109320Y32241D01*
X109342Y32052D01*
X109359Y31861D01*
X109368Y31828D01*
X109372Y31794D01*
X109409Y31671D01*
X109409Y23683D01*
X97935Y12210D01*
X97851Y12110D01*
X97761Y12017D01*
X97707Y11937D01*
X97646Y11864D01*
X97581Y11751D01*
X97509Y11644D01*
X97470Y11556D01*
X97423Y11473D01*
X97379Y11351D01*
X97326Y11232D01*
X97304Y11139D01*
X97272Y11049D01*
X97251Y10920D01*
X97220Y10794D01*
X97214Y10699D01*
X97198Y10605D01*
X97200Y10474D01*
X97192Y10345D01*
X97203Y10250D01*
X97204Y10154D01*
X97229Y10027D01*
X97244Y9898D01*
X97272Y9806D01*
X97290Y9712D01*
X97337Y9591D01*
X97374Y9467D01*
X97418Y9382D01*
X97452Y9292D01*
X97520Y9181D01*
X97579Y9065D01*
X97636Y8989D01*
X97686Y8908D01*
X97772Y8810D01*
X97851Y8707D01*
X97921Y8642D01*
X97984Y8570D01*
X98086Y8490D01*
X98182Y8401D01*
X98263Y8350D01*
X98337Y8291D01*
X98452Y8230D01*
X98562Y8160D01*
X98650Y8123D01*
X98734Y8078D01*
X98858Y8038D01*
X98978Y7989D01*
X99072Y7969D01*
X99163Y7939D01*
X99291Y7921D01*
X99418Y7894D01*
X99548Y7886D01*
X99609Y7878D01*
X99653Y7879D01*
X99730Y7875D01*
X119127Y7875D01*
X119257Y7886D01*
X119387Y7888D01*
X119480Y7906D01*
X119576Y7915D01*
X119701Y7949D01*
X119829Y7974D01*
X119918Y8008D01*
X120010Y8033D01*
X120127Y8089D01*
X120249Y8136D01*
X120330Y8186D01*
X120417Y8227D01*
X120522Y8302D01*
X120633Y8370D01*
X120705Y8433D01*
X120783Y8489D01*
X120873Y8582D01*
X120971Y8668D01*
X121030Y8743D01*
X121097Y8811D01*
X121170Y8919D01*
X121250Y9021D01*
X121295Y9105D01*
X121349Y9184D01*
X121401Y9303D01*
X121463Y9418D01*
X121492Y9509D01*
X121531Y9596D01*
X121562Y9722D01*
X121602Y9846D01*
X121615Y9941D01*
X121638Y10034D01*
X121646Y10163D01*
X121663Y10292D01*
X121660Y10388D01*
X121665Y10483D01*
X121650Y10612D01*
X121645Y10742D01*
X121624Y10835D01*
X121613Y10930D01*
X121576Y11055D01*
X121547Y11182D01*
X121511Y11270D01*
X121483Y11361D01*
X121424Y11477D01*
X121374Y11597D01*
X121322Y11677D01*
X121279Y11763D01*
X121200Y11866D01*
X121130Y11975D01*
X121043Y12073D01*
X121007Y12121D01*
X120974Y12152D01*
X120923Y12210D01*
X120537Y12595D01*
X117095Y20904D01*
X117095Y29896D01*
X120537Y38205D01*
X126895Y44563D01*
X135204Y48005D01*
X144196Y48005D01*
X152505Y44563D01*
X158863Y38205D01*
X162305Y29896D01*
X162305Y20904D01*
X158863Y12595D01*
X158477Y12210D01*
X158394Y12110D01*
X158303Y12017D01*
X158250Y11938D01*
X158189Y11864D01*
X158124Y11751D01*
X158051Y11644D01*
X158013Y11556D01*
X157965Y11473D01*
X157922Y11351D01*
X157869Y11232D01*
X157846Y11139D01*
X157814Y11049D01*
X157793Y10921D01*
X157762Y10794D01*
X157756Y10699D01*
X157741Y10605D01*
X157743Y10475D01*
X157735Y10345D01*
X157746Y10250D01*
X157747Y10155D01*
X157772Y10027D01*
X157787Y9898D01*
X157814Y9806D01*
X157833Y9712D01*
X157879Y9591D01*
X157917Y9467D01*
X157960Y9382D01*
X157995Y9292D01*
X158062Y9181D01*
X158121Y9065D01*
X158179Y8989D01*
X158229Y8908D01*
X158315Y8810D01*
X158393Y8707D01*
X158464Y8642D01*
X158527Y8570D01*
X158629Y8490D01*
X158724Y8401D01*
X158805Y8350D01*
X158880Y8291D01*
X158994Y8230D01*
X159104Y8160D01*
X159193Y8123D01*
X159277Y8078D01*
X159400Y8038D01*
X159521Y7989D01*
X159614Y7969D01*
X159705Y7939D01*
X159834Y7921D01*
X159961Y7894D01*
X160091Y7886D01*
X160151Y7878D01*
X160196Y7879D01*
X160273Y7875D01*
X206158Y7875D01*
X206288Y7886D01*
X206418Y7888D01*
X206512Y7906D01*
X206607Y7915D01*
X206732Y7949D01*
X206860Y7974D01*
X206949Y8008D01*
X207041Y8033D01*
X207159Y8089D01*
X207280Y8136D01*
X207362Y8186D01*
X207448Y8227D01*
X207554Y8302D01*
X207665Y8370D01*
X207736Y8433D01*
X207814Y8489D01*
X207905Y8582D01*
X208002Y8668D01*
X208061Y8743D01*
X208128Y8811D01*
X208201Y8919D01*
X208282Y9021D01*
X208327Y9105D01*
X208380Y9184D01*
X208433Y9303D01*
X208494Y9418D01*
X208524Y9509D01*
X208562Y9596D01*
X208593Y9723D01*
X208633Y9846D01*
X208646Y9941D01*
X208669Y10034D01*
X208677Y10163D01*
X208695Y10292D01*
X208691Y10388D01*
X208697Y10483D01*
X208682Y10612D01*
X208676Y10742D01*
X208656Y10835D01*
X208645Y10930D01*
X208607Y11055D01*
X208579Y11182D01*
X208542Y11270D01*
X208514Y11361D01*
X208455Y11477D01*
X208405Y11597D01*
X208353Y11677D01*
X208310Y11763D01*
X208231Y11866D01*
X208161Y11975D01*
X208075Y12073D01*
X208038Y12121D01*
X208005Y12152D01*
X207954Y12210D01*
X200024Y20139D01*
X200024Y30661D01*
X205668Y36304D01*
X205690Y36331D01*
X205716Y36354D01*
X205834Y36503D01*
X205957Y36650D01*
X205974Y36680D01*
X205996Y36707D01*
X206086Y36875D01*
X206180Y37041D01*
X206192Y37073D01*
X206208Y37104D01*
X206267Y37285D01*
X206331Y37465D01*
X206337Y37499D01*
X206347Y37532D01*
X206373Y37721D01*
X206404Y37909D01*
X206404Y37944D01*
X206409Y37978D01*
X206401Y38169D01*
X206398Y38359D01*
X206392Y38394D01*
X206390Y38428D01*
X206349Y38614D01*
X206313Y38802D01*
X206300Y38834D01*
X206293Y38868D01*
X206219Y39044D01*
X206151Y39222D01*
X206133Y39251D01*
X206119Y39283D01*
X206016Y39443D01*
X205917Y39606D01*
X205894Y39632D01*
X205875Y39661D01*
X205668Y39896D01*
X200024Y45539D01*
X200024Y56061D01*
X207464Y63501D01*
X217986Y63501D01*
X223629Y57857D01*
X223656Y57835D01*
X223679Y57809D01*
X223828Y57691D01*
X223975Y57568D01*
X224005Y57551D01*
X224032Y57529D01*
X224200Y57439D01*
X224366Y57345D01*
X224398Y57333D01*
X224429Y57317D01*
X224610Y57258D01*
X224790Y57194D01*
X224824Y57188D01*
X224857Y57178D01*
X225046Y57152D01*
X225234Y57120D01*
X225269Y57121D01*
X225303Y57116D01*
X225494Y57124D01*
X225685Y57127D01*
X225719Y57133D01*
X225753Y57135D01*
X225939Y57176D01*
X226127Y57212D01*
X226159Y57225D01*
X226193Y57232D01*
X226368Y57306D01*
X226547Y57374D01*
X226576Y57393D01*
X226608Y57406D01*
X226768Y57509D01*
X226931Y57608D01*
X226957Y57631D01*
X226986Y57650D01*
X227221Y57857D01*
X232864Y63501D01*
X243386Y63501D01*
X250826Y56061D01*
X250826Y45539D01*
X245182Y39896D01*
X245160Y39869D01*
X245134Y39846D01*
X245016Y39697D01*
X244893Y39550D01*
X244876Y39520D01*
X244854Y39493D01*
X244764Y39324D01*
X244670Y39159D01*
X244658Y39127D01*
X244642Y39096D01*
X244583Y38915D01*
X244519Y38735D01*
X244513Y38701D01*
X244503Y38668D01*
X244477Y38479D01*
X244445Y38291D01*
X244446Y38256D01*
X244441Y38222D01*
X244449Y38031D01*
X244452Y37840D01*
X244458Y37806D01*
X244460Y37772D01*
X244501Y37586D01*
X244537Y37398D01*
X244550Y37366D01*
X244557Y37332D01*
X244631Y37157D01*
X244699Y36978D01*
X244718Y36949D01*
X244731Y36917D01*
X244834Y36757D01*
X244933Y36594D01*
X244956Y36568D01*
X244975Y36539D01*
X245182Y36304D01*
X250826Y30661D01*
X250826Y20139D01*
X242896Y12210D01*
X242813Y12110D01*
X242722Y12017D01*
X242668Y11937D01*
X242607Y11864D01*
X242543Y11751D01*
X242470Y11644D01*
X242431Y11556D01*
X242384Y11473D01*
X242340Y11351D01*
X242288Y11232D01*
X242265Y11139D01*
X242233Y11049D01*
X242212Y10921D01*
X242181Y10794D01*
X242175Y10699D01*
X242159Y10605D01*
X242161Y10475D01*
X242153Y10345D01*
X242164Y10250D01*
X242166Y10154D01*
X242190Y10027D01*
X242205Y9898D01*
X242233Y9806D01*
X242251Y9712D01*
X242298Y9591D01*
X242336Y9467D01*
X242379Y9382D01*
X242413Y9292D01*
X242481Y9181D01*
X242540Y9065D01*
X242598Y8989D01*
X242647Y8908D01*
X242733Y8810D01*
X242812Y8707D01*
X242882Y8642D01*
X242946Y8570D01*
X243047Y8490D01*
X243143Y8401D01*
X243224Y8350D01*
X243299Y8291D01*
X243413Y8230D01*
X243523Y8160D01*
X243611Y8123D01*
X243696Y8078D01*
X243819Y8038D01*
X243939Y7989D01*
X244033Y7969D01*
X244124Y7939D01*
X244252Y7921D01*
X244380Y7894D01*
X244509Y7886D01*
X244570Y7878D01*
X244615Y7879D01*
X244692Y7875D01*
X269996Y7875D01*
X270126Y7886D01*
X270255Y7888D01*
X270349Y7906D01*
X270444Y7915D01*
X270570Y7949D01*
X270697Y7974D01*
X270787Y8008D01*
X270879Y8033D01*
X270996Y8089D01*
X271117Y8136D01*
X271199Y8186D01*
X271285Y8227D01*
X271391Y8302D01*
X271502Y8370D01*
X271574Y8433D01*
X271651Y8489D01*
X271742Y8582D01*
X271840Y8668D01*
X271899Y8743D01*
X271965Y8811D01*
X272038Y8919D01*
X272119Y9021D01*
X272164Y9105D01*
X272218Y9184D01*
X272270Y9303D01*
X272332Y9418D01*
X272361Y9509D01*
X272400Y9596D01*
X272431Y9723D01*
X272471Y9846D01*
X272484Y9941D01*
X272506Y10034D01*
X272514Y10163D01*
X272532Y10292D01*
X272528Y10388D01*
X272534Y10483D01*
X272519Y10612D01*
X272514Y10742D01*
X272493Y10835D01*
X272482Y10930D01*
X272444Y11055D01*
X272416Y11182D01*
X272379Y11270D01*
X272352Y11361D01*
X272293Y11477D01*
X272243Y11597D01*
X272191Y11677D01*
X272147Y11763D01*
X272069Y11866D01*
X271998Y11975D01*
X271912Y12073D01*
X271875Y12121D01*
X271842Y12152D01*
X271791Y12210D01*
X269064Y14937D01*
X267207Y19419D01*
X267207Y31381D01*
X269063Y35863D01*
X272493Y39293D01*
X276975Y41149D01*
X281825Y41149D01*
X286307Y39293D01*
X289736Y35863D01*
X289754Y35820D01*
X289814Y35705D01*
X289866Y35586D01*
X289918Y35506D01*
X289962Y35421D01*
X290042Y35319D01*
X290114Y35210D01*
X290180Y35141D01*
X290238Y35065D01*
X290335Y34978D01*
X290424Y34884D01*
X290502Y34828D01*
X290572Y34764D01*
X290683Y34695D01*
X290788Y34618D01*
X290874Y34576D01*
X290955Y34526D01*
X291076Y34478D01*
X291192Y34421D01*
X291284Y34394D01*
X291373Y34359D01*
X291501Y34333D01*
X291626Y34297D01*
X291721Y34288D01*
X291814Y34269D01*
X291944Y34266D01*
X292074Y34253D01*
X292169Y34260D01*
X292264Y34258D01*
X292393Y34278D01*
X292522Y34288D01*
X292615Y34312D01*
X292709Y34327D01*
X292832Y34369D01*
X292958Y34402D01*
X293045Y34442D01*
X293135Y34473D01*
X293248Y34537D01*
X293367Y34591D01*
X293445Y34646D01*
X293528Y34693D01*
X293629Y34775D01*
X293735Y34850D01*
X293803Y34917D01*
X293877Y34978D01*
X293961Y35077D01*
X294053Y35169D01*
X294107Y35247D01*
X294169Y35320D01*
X294235Y35433D01*
X294309Y35539D01*
X294366Y35656D01*
X294397Y35709D01*
X294412Y35751D01*
X294446Y35820D01*
X294463Y35863D01*
X297893Y39293D01*
X302375Y41149D01*
X307225Y41149D01*
X311707Y39293D01*
X315136Y35863D01*
X315154Y35820D01*
X315214Y35705D01*
X315266Y35586D01*
X315318Y35506D01*
X315362Y35421D01*
X315442Y35319D01*
X315514Y35210D01*
X315580Y35141D01*
X315638Y35065D01*
X315735Y34978D01*
X315824Y34884D01*
X315902Y34828D01*
X315972Y34764D01*
X316083Y34695D01*
X316188Y34618D01*
X316274Y34576D01*
X316355Y34526D01*
X316476Y34478D01*
X316592Y34421D01*
X316684Y34394D01*
X316773Y34359D01*
X316901Y34333D01*
X317026Y34297D01*
X317121Y34288D01*
X317214Y34269D01*
X317344Y34266D01*
X317474Y34253D01*
X317569Y34260D01*
X317664Y34258D01*
X317793Y34278D01*
X317922Y34288D01*
X318015Y34312D01*
X318109Y34327D01*
X318232Y34369D01*
X318358Y34402D01*
X318445Y34442D01*
X318535Y34473D01*
X318648Y34537D01*
X318767Y34591D01*
X318845Y34646D01*
X318928Y34693D01*
X319029Y34775D01*
X319135Y34850D01*
X319203Y34917D01*
X319277Y34978D01*
X319361Y35077D01*
X319453Y35169D01*
X319507Y35247D01*
X319569Y35320D01*
X319635Y35433D01*
X319709Y35539D01*
X319766Y35656D01*
X319797Y35709D01*
X319812Y35751D01*
X319846Y35820D01*
X319863Y35863D01*
X322852Y38851D01*
X322957Y38977D01*
X323069Y39098D01*
X323101Y39149D01*
X323140Y39196D01*
X323222Y39339D01*
X323310Y39478D01*
X323334Y39534D01*
X323364Y39587D01*
X323419Y39742D01*
X323481Y39894D01*
X323494Y39954D01*
X323515Y40011D01*
X323541Y40174D01*
X323576Y40334D01*
X323581Y40411D01*
X323588Y40455D01*
X323587Y40517D01*
X323595Y40646D01*
X323595Y77514D01*
X324601Y79941D01*
X345509Y100849D01*
X347936Y101855D01*
X360247Y101855D01*
X360411Y101869D01*
X360575Y101876D01*
X360635Y101889D01*
X360696Y101895D01*
X360855Y101938D01*
X361015Y101974D01*
X361071Y101997D01*
X361130Y102013D01*
X361278Y102084D01*
X361430Y102147D01*
X361482Y102180D01*
X361537Y102207D01*
X361670Y102302D01*
X361809Y102392D01*
X361866Y102443D01*
X361903Y102469D01*
X361945Y102512D01*
X362043Y102598D01*
X364315Y104871D01*
X372285Y104871D01*
X377921Y99235D01*
X377921Y91265D01*
X372285Y85629D01*
X364315Y85629D01*
X362043Y87902D01*
X361916Y88007D01*
X361796Y88119D01*
X361744Y88151D01*
X361697Y88190D01*
X361555Y88272D01*
X361416Y88360D01*
X361359Y88384D01*
X361306Y88414D01*
X361152Y88469D01*
X360999Y88531D01*
X360940Y88544D01*
X360882Y88565D01*
X360720Y88591D01*
X360559Y88626D01*
X360482Y88631D01*
X360438Y88638D01*
X360377Y88637D01*
X360247Y88645D01*
X353038Y88645D01*
X352874Y88631D01*
X352709Y88624D01*
X352650Y88611D01*
X352589Y88605D01*
X352430Y88562D01*
X352270Y88526D01*
X352214Y88503D01*
X352155Y88487D01*
X352007Y88416D01*
X351854Y88353D01*
X351803Y88320D01*
X351748Y88293D01*
X351615Y88198D01*
X351476Y88108D01*
X351418Y88057D01*
X351382Y88031D01*
X351339Y87988D01*
X351242Y87902D01*
X337548Y74208D01*
X337443Y74082D01*
X337331Y73961D01*
X337299Y73909D01*
X337260Y73863D01*
X337178Y73720D01*
X337090Y73581D01*
X337066Y73525D01*
X337036Y73472D01*
X336981Y73317D01*
X336919Y73165D01*
X336906Y73105D01*
X336885Y73047D01*
X336859Y72885D01*
X336824Y72724D01*
X336819Y72647D01*
X336812Y72603D01*
X336813Y72542D01*
X336805Y72412D01*
X336805Y40646D01*
X336819Y40483D01*
X336826Y40318D01*
X336839Y40259D01*
X336845Y40198D01*
X336888Y40039D01*
X336924Y39878D01*
X336947Y39822D01*
X336963Y39763D01*
X337034Y39615D01*
X337097Y39463D01*
X337130Y39412D01*
X337157Y39357D01*
X337252Y39223D01*
X337342Y39085D01*
X337393Y39027D01*
X337419Y38991D01*
X337462Y38948D01*
X337548Y38851D01*
X340536Y35863D01*
X340554Y35820D01*
X340614Y35705D01*
X340666Y35586D01*
X340718Y35506D01*
X340762Y35421D01*
X340842Y35319D01*
X340914Y35210D01*
X340980Y35141D01*
X341038Y35065D01*
X341135Y34978D01*
X341224Y34884D01*
X341302Y34828D01*
X341372Y34764D01*
X341483Y34695D01*
X341588Y34618D01*
X341674Y34576D01*
X341755Y34526D01*
X341876Y34478D01*
X341992Y34421D01*
X342084Y34394D01*
X342173Y34359D01*
X342301Y34333D01*
X342426Y34297D01*
X342521Y34288D01*
X342614Y34269D01*
X342744Y34266D01*
X342874Y34253D01*
X342969Y34260D01*
X343064Y34258D01*
X343193Y34278D01*
X343322Y34288D01*
X343415Y34312D01*
X343509Y34327D01*
X343632Y34369D01*
X343758Y34402D01*
X343845Y34442D01*
X343935Y34473D01*
X344048Y34537D01*
X344167Y34591D01*
X344245Y34646D01*
X344328Y34693D01*
X344429Y34775D01*
X344535Y34850D01*
X344603Y34917D01*
X344677Y34978D01*
X344761Y35077D01*
X344853Y35169D01*
X344907Y35247D01*
X344969Y35320D01*
X345035Y35433D01*
X345109Y35539D01*
X345166Y35656D01*
X345197Y35709D01*
X345212Y35751D01*
X345246Y35820D01*
X345263Y35863D01*
X348693Y39293D01*
X353175Y41149D01*
X358025Y41149D01*
X362507Y39293D01*
X365936Y35863D01*
X365954Y35820D01*
X366014Y35705D01*
X366066Y35586D01*
X366118Y35506D01*
X366162Y35421D01*
X366242Y35319D01*
X366314Y35210D01*
X366380Y35141D01*
X366438Y35065D01*
X366535Y34978D01*
X366624Y34884D01*
X366702Y34828D01*
X366772Y34764D01*
X366883Y34695D01*
X366988Y34618D01*
X367074Y34576D01*
X367155Y34526D01*
X367276Y34478D01*
X367392Y34421D01*
X367484Y34394D01*
X367573Y34359D01*
X367701Y34333D01*
X367826Y34297D01*
X367921Y34288D01*
X368014Y34269D01*
X368144Y34266D01*
X368274Y34253D01*
X368369Y34260D01*
X368464Y34258D01*
X368593Y34278D01*
X368722Y34288D01*
X368815Y34312D01*
X368909Y34327D01*
X369032Y34369D01*
X369158Y34402D01*
X369245Y34442D01*
X369335Y34473D01*
X369448Y34537D01*
X369567Y34591D01*
X369645Y34646D01*
X369728Y34693D01*
X369829Y34775D01*
X369935Y34850D01*
X370003Y34917D01*
X370077Y34978D01*
X370161Y35077D01*
X370253Y35169D01*
X370307Y35247D01*
X370369Y35320D01*
X370435Y35433D01*
X370509Y35539D01*
X370566Y35656D01*
X370597Y35709D01*
X370612Y35751D01*
X370646Y35820D01*
X370663Y35863D01*
X374093Y39293D01*
X378575Y41149D01*
X383425Y41149D01*
X387907Y39293D01*
X391337Y35863D01*
X392714Y32537D01*
X392716Y32533D01*
X392717Y32529D01*
X392820Y32335D01*
X392922Y32138D01*
X392925Y32135D01*
X392927Y32131D01*
X393064Y31955D01*
X393198Y31782D01*
X393201Y31779D01*
X393204Y31776D01*
X393368Y31629D01*
X393532Y31480D01*
X393536Y31478D01*
X393540Y31475D01*
X393725Y31361D01*
X393915Y31243D01*
X393919Y31241D01*
X393923Y31239D01*
X394125Y31159D01*
X394333Y31076D01*
X394338Y31075D01*
X394342Y31073D01*
X394556Y31030D01*
X394774Y30986D01*
X394779Y30986D01*
X394783Y30985D01*
X395005Y30980D01*
X395224Y30975D01*
X395229Y30976D01*
X395233Y30976D01*
X395453Y31010D01*
X395669Y31044D01*
X395673Y31045D01*
X395678Y31046D01*
X395891Y31120D01*
X396095Y31190D01*
X396099Y31192D01*
X396103Y31194D01*
X396297Y31303D01*
X396488Y31410D01*
X396492Y31412D01*
X396496Y31415D01*
X396667Y31556D01*
X396837Y31695D01*
X396840Y31698D01*
X396843Y31701D01*
X396987Y31871D01*
X397129Y32037D01*
X397131Y32041D01*
X397134Y32044D01*
X397246Y32238D01*
X397357Y32426D01*
X397358Y32430D01*
X397360Y32434D01*
X397435Y32624D01*
X398144Y34015D01*
X399037Y35244D01*
X400112Y36319D01*
X401341Y37212D01*
X402695Y37902D01*
X403861Y38280D01*
X403861Y25400D01*
X403861Y10414D01*
X403864Y10379D01*
X403862Y10345D01*
X403884Y10156D01*
X403900Y9965D01*
X403910Y9932D01*
X403914Y9898D01*
X403969Y9715D01*
X404019Y9531D01*
X404034Y9500D01*
X404044Y9467D01*
X404131Y9296D01*
X404212Y9124D01*
X404233Y9096D01*
X404248Y9065D01*
X404363Y8913D01*
X404475Y8758D01*
X404499Y8734D01*
X404520Y8707D01*
X404660Y8578D01*
X404797Y8444D01*
X404826Y8425D01*
X404851Y8401D01*
X405012Y8299D01*
X405170Y8192D01*
X405202Y8178D01*
X405231Y8160D01*
X405408Y8087D01*
X405582Y8010D01*
X405616Y8002D01*
X405648Y7989D01*
X405834Y7949D01*
X406019Y7903D01*
X406054Y7901D01*
X406088Y7894D01*
X406400Y7875D01*
X406435Y7878D01*
X406469Y7876D01*
X406659Y7898D01*
X406849Y7915D01*
X406882Y7924D01*
X406916Y7928D01*
X407099Y7983D01*
X407283Y8033D01*
X407314Y8048D01*
X407347Y8058D01*
X407518Y8145D01*
X407690Y8227D01*
X407718Y8247D01*
X407749Y8262D01*
X407901Y8378D01*
X408056Y8489D01*
X408080Y8514D01*
X408107Y8534D01*
X408237Y8674D01*
X408370Y8811D01*
X408389Y8840D01*
X408413Y8866D01*
X408515Y9027D01*
X408533Y9054D01*
X408629Y8927D01*
X408728Y8785D01*
X408765Y8748D01*
X408797Y8707D01*
X408924Y8589D01*
X409046Y8467D01*
X409089Y8437D01*
X409128Y8401D01*
X409274Y8308D01*
X409416Y8209D01*
X409463Y8188D01*
X409507Y8160D01*
X409668Y8094D01*
X409825Y8022D01*
X409876Y8008D01*
X409924Y7989D01*
X410093Y7952D01*
X410261Y7909D01*
X410313Y7905D01*
X410364Y7894D01*
X410676Y7875D01*
X427524Y7875D01*
X427576Y7879D01*
X427628Y7877D01*
X427800Y7899D01*
X427972Y7915D01*
X428023Y7928D01*
X428075Y7935D01*
X428240Y7988D01*
X428407Y8033D01*
X428454Y8056D01*
X428504Y8071D01*
X428657Y8152D01*
X428813Y8227D01*
X428856Y8257D01*
X428902Y8281D01*
X429039Y8388D01*
X429180Y8489D01*
X429216Y8526D01*
X429257Y8558D01*
X429373Y8687D01*
X429494Y8811D01*
X429523Y8855D01*
X429558Y8894D01*
X429649Y9041D01*
X429657Y9054D01*
X429763Y8913D01*
X429875Y8758D01*
X429899Y8734D01*
X429920Y8707D01*
X430060Y8578D01*
X430197Y8444D01*
X430226Y8425D01*
X430251Y8401D01*
X430412Y8299D01*
X430570Y8192D01*
X430602Y8178D01*
X430631Y8160D01*
X430808Y8087D01*
X430982Y8010D01*
X431016Y8002D01*
X431048Y7989D01*
X431234Y7949D01*
X431419Y7903D01*
X431454Y7901D01*
X431488Y7894D01*
X431800Y7875D01*
X431835Y7878D01*
X431869Y7876D01*
X432059Y7898D01*
X432249Y7915D01*
X432282Y7924D01*
X432316Y7928D01*
X432499Y7983D01*
X432683Y8033D01*
X432714Y8048D01*
X432747Y8058D01*
X432918Y8145D01*
X433090Y8227D01*
X433118Y8247D01*
X433149Y8262D01*
X433301Y8378D01*
X433456Y8489D01*
X433480Y8514D01*
X433507Y8534D01*
X433637Y8674D01*
X433770Y8811D01*
X433789Y8840D01*
X433813Y8866D01*
X433915Y9027D01*
X434022Y9184D01*
X434036Y9216D01*
X434054Y9245D01*
X434127Y9422D01*
X434204Y9596D01*
X434212Y9630D01*
X434225Y9662D01*
X434266Y9849D01*
X434311Y10034D01*
X434313Y10068D01*
X434320Y10102D01*
X434339Y10414D01*
X434339Y25400D01*
X434339Y38280D01*
X435505Y37902D01*
X436859Y37212D01*
X438088Y36319D01*
X439163Y35244D01*
X440056Y34015D01*
X440782Y32589D01*
X440818Y32505D01*
X440901Y32311D01*
X440904Y32307D01*
X440906Y32302D01*
X441030Y32115D01*
X441148Y31934D01*
X441151Y31931D01*
X441154Y31927D01*
X441306Y31768D01*
X441458Y31607D01*
X441461Y31604D01*
X441465Y31601D01*
X441639Y31473D01*
X441820Y31340D01*
X441824Y31338D01*
X441828Y31335D01*
X442025Y31239D01*
X442224Y31141D01*
X442228Y31139D01*
X442233Y31137D01*
X442443Y31078D01*
X442657Y31016D01*
X442661Y31016D01*
X442666Y31014D01*
X442886Y30992D01*
X443105Y30970D01*
X443109Y30970D01*
X443114Y30970D01*
X443337Y30987D01*
X443554Y31004D01*
X443558Y31005D01*
X443563Y31005D01*
X443775Y31061D01*
X443990Y31116D01*
X443994Y31118D01*
X443998Y31119D01*
X444195Y31210D01*
X444399Y31304D01*
X444403Y31306D01*
X444407Y31308D01*
X444588Y31435D01*
X444769Y31561D01*
X444772Y31564D01*
X444776Y31566D01*
X444931Y31723D01*
X445087Y31879D01*
X445090Y31883D01*
X445093Y31886D01*
X445218Y32067D01*
X445344Y32248D01*
X445346Y32253D01*
X445349Y32256D01*
X445486Y32537D01*
X446863Y35863D01*
X450293Y39293D01*
X454775Y41149D01*
X459625Y41149D01*
X464107Y39293D01*
X467537Y35863D01*
X469393Y31381D01*
X469393Y19419D01*
X467536Y14937D01*
X464809Y12210D01*
X464725Y12110D01*
X464635Y12017D01*
X464581Y11937D01*
X464520Y11864D01*
X464455Y11751D01*
X464382Y11644D01*
X464344Y11556D01*
X464296Y11473D01*
X464253Y11351D01*
X464200Y11232D01*
X464178Y11139D01*
X464146Y11049D01*
X464124Y10921D01*
X464094Y10794D01*
X464088Y10699D01*
X464072Y10605D01*
X464074Y10475D01*
X464066Y10345D01*
X464077Y10250D01*
X464078Y10154D01*
X464103Y10027D01*
X464118Y9898D01*
X464146Y9806D01*
X464164Y9712D01*
X464211Y9591D01*
X464248Y9467D01*
X464292Y9381D01*
X464326Y9292D01*
X464394Y9181D01*
X464453Y9065D01*
X464510Y8989D01*
X464560Y8908D01*
X464646Y8810D01*
X464725Y8707D01*
X464795Y8642D01*
X464858Y8570D01*
X464960Y8490D01*
X465056Y8401D01*
X465136Y8350D01*
X465211Y8291D01*
X465326Y8230D01*
X465435Y8160D01*
X465524Y8123D01*
X465608Y8078D01*
X465732Y8038D01*
X465852Y7989D01*
X465945Y7969D01*
X466036Y7939D01*
X466165Y7921D01*
X466292Y7894D01*
X466422Y7886D01*
X466482Y7878D01*
X466527Y7879D01*
X466604Y7875D01*
X498596Y7875D01*
X498726Y7886D01*
X498855Y7888D01*
X498949Y7906D01*
X499044Y7915D01*
X499170Y7949D01*
X499297Y7974D01*
X499387Y8008D01*
X499479Y8033D01*
X499596Y8089D01*
X499717Y8136D01*
X499799Y8186D01*
X499885Y8227D01*
X499991Y8302D01*
X500102Y8370D01*
X500174Y8433D01*
X500251Y8489D01*
X500342Y8582D01*
X500440Y8668D01*
X500499Y8743D01*
X500565Y8811D01*
X500638Y8919D01*
X500719Y9021D01*
X500764Y9105D01*
X500818Y9184D01*
X500870Y9303D01*
X500932Y9418D01*
X500961Y9509D01*
X501000Y9596D01*
X501031Y9723D01*
X501071Y9846D01*
X501084Y9941D01*
X501106Y10034D01*
X501114Y10163D01*
X501132Y10292D01*
X501128Y10388D01*
X501134Y10483D01*
X501119Y10612D01*
X501114Y10742D01*
X501093Y10835D01*
X501082Y10930D01*
X501044Y11055D01*
X501016Y11182D01*
X500979Y11270D01*
X500952Y11361D01*
X500893Y11477D01*
X500843Y11597D01*
X500791Y11677D01*
X500747Y11763D01*
X500669Y11866D01*
X500598Y11975D01*
X500512Y12073D01*
X500475Y12121D01*
X500442Y12152D01*
X500391Y12210D01*
X497664Y14937D01*
X495807Y19419D01*
X495807Y31381D01*
X497663Y35863D01*
X501093Y39293D01*
X505575Y41149D01*
X510425Y41149D01*
X514907Y39293D01*
X518336Y35863D01*
X518354Y35820D01*
X518414Y35705D01*
X518466Y35586D01*
X518518Y35506D01*
X518562Y35421D01*
X518642Y35318D01*
X518714Y35210D01*
X518780Y35141D01*
X518838Y35065D01*
X518935Y34978D01*
X519025Y34884D01*
X519101Y34828D01*
X519172Y34764D01*
X519283Y34695D01*
X519388Y34618D01*
X519474Y34576D01*
X519555Y34526D01*
X519675Y34478D01*
X519792Y34420D01*
X519884Y34394D01*
X519973Y34359D01*
X520100Y34333D01*
X520226Y34297D01*
X520321Y34288D01*
X520414Y34269D01*
X520544Y34266D01*
X520674Y34253D01*
X520769Y34260D01*
X520864Y34258D01*
X520993Y34278D01*
X521123Y34288D01*
X521215Y34312D01*
X521309Y34327D01*
X521432Y34369D01*
X521558Y34402D01*
X521645Y34442D01*
X521735Y34473D01*
X521849Y34537D01*
X521967Y34591D01*
X522045Y34646D01*
X522128Y34693D01*
X522229Y34775D01*
X522336Y34850D01*
X522403Y34917D01*
X522477Y34978D01*
X522561Y35077D01*
X522653Y35169D01*
X522707Y35248D01*
X522769Y35320D01*
X522835Y35432D01*
X522909Y35539D01*
X522966Y35656D01*
X522997Y35709D01*
X523012Y35751D01*
X523046Y35820D01*
X523063Y35863D01*
X526493Y39293D01*
X530975Y41149D01*
X535825Y41149D01*
X540307Y39293D01*
X543736Y35863D01*
X543754Y35820D01*
X543814Y35705D01*
X543866Y35586D01*
X543918Y35506D01*
X543962Y35421D01*
X544042Y35318D01*
X544114Y35210D01*
X544180Y35141D01*
X544238Y35065D01*
X544335Y34978D01*
X544425Y34884D01*
X544501Y34828D01*
X544572Y34764D01*
X544683Y34695D01*
X544788Y34618D01*
X544874Y34576D01*
X544955Y34526D01*
X545075Y34478D01*
X545192Y34420D01*
X545284Y34394D01*
X545373Y34359D01*
X545500Y34333D01*
X545626Y34297D01*
X545721Y34288D01*
X545814Y34269D01*
X545944Y34266D01*
X546074Y34253D01*
X546169Y34260D01*
X546264Y34258D01*
X546393Y34278D01*
X546523Y34288D01*
X546615Y34312D01*
X546709Y34327D01*
X546832Y34369D01*
X546958Y34402D01*
X547045Y34442D01*
X547135Y34473D01*
X547249Y34537D01*
X547367Y34591D01*
X547445Y34646D01*
X547528Y34693D01*
X547629Y34775D01*
X547736Y34850D01*
X547803Y34917D01*
X547877Y34978D01*
X547961Y35077D01*
X548053Y35169D01*
X548107Y35248D01*
X548169Y35320D01*
X548235Y35432D01*
X548309Y35539D01*
X548366Y35656D01*
X548397Y35709D01*
X548412Y35751D01*
X548446Y35820D01*
X548463Y35863D01*
X551893Y39293D01*
X556375Y41149D01*
X561225Y41149D01*
X565707Y39293D01*
X569136Y35863D01*
X569154Y35820D01*
X569214Y35705D01*
X569266Y35586D01*
X569318Y35506D01*
X569362Y35421D01*
X569442Y35318D01*
X569514Y35210D01*
X569580Y35141D01*
X569638Y35065D01*
X569735Y34978D01*
X569825Y34884D01*
X569901Y34828D01*
X569972Y34764D01*
X570083Y34695D01*
X570188Y34618D01*
X570274Y34576D01*
X570355Y34526D01*
X570475Y34478D01*
X570592Y34420D01*
X570684Y34394D01*
X570773Y34359D01*
X570900Y34333D01*
X571026Y34297D01*
X571121Y34288D01*
X571214Y34269D01*
X571344Y34266D01*
X571474Y34253D01*
X571569Y34260D01*
X571664Y34258D01*
X571793Y34278D01*
X571923Y34288D01*
X572015Y34312D01*
X572109Y34327D01*
X572232Y34369D01*
X572358Y34402D01*
X572445Y34442D01*
X572535Y34473D01*
X572649Y34537D01*
X572767Y34591D01*
X572845Y34646D01*
X572928Y34693D01*
X573029Y34775D01*
X573136Y34850D01*
X573203Y34917D01*
X573277Y34978D01*
X573361Y35077D01*
X573453Y35169D01*
X573507Y35248D01*
X573569Y35320D01*
X573635Y35432D01*
X573709Y35539D01*
X573766Y35656D01*
X573797Y35709D01*
X573812Y35751D01*
X573846Y35820D01*
X573863Y35863D01*
X577293Y39293D01*
X581775Y41149D01*
X586625Y41149D01*
X591107Y39293D01*
X594536Y35863D01*
X594554Y35820D01*
X594614Y35705D01*
X594666Y35586D01*
X594718Y35506D01*
X594762Y35421D01*
X594842Y35318D01*
X594914Y35210D01*
X594980Y35141D01*
X595038Y35065D01*
X595135Y34978D01*
X595225Y34884D01*
X595301Y34828D01*
X595372Y34764D01*
X595483Y34695D01*
X595588Y34618D01*
X595674Y34576D01*
X595755Y34526D01*
X595875Y34478D01*
X595992Y34420D01*
X596084Y34394D01*
X596173Y34359D01*
X596300Y34333D01*
X596426Y34297D01*
X596521Y34288D01*
X596614Y34269D01*
X596744Y34266D01*
X596874Y34253D01*
X596969Y34260D01*
X597064Y34258D01*
X597193Y34278D01*
X597323Y34288D01*
X597415Y34312D01*
X597509Y34327D01*
X597632Y34369D01*
X597758Y34402D01*
X597845Y34442D01*
X597935Y34473D01*
X598049Y34537D01*
X598167Y34591D01*
X598245Y34646D01*
X598328Y34693D01*
X598429Y34775D01*
X598536Y34850D01*
X598603Y34917D01*
X598677Y34978D01*
X598761Y35077D01*
X598853Y35169D01*
X598907Y35248D01*
X598969Y35320D01*
X599035Y35432D01*
X599109Y35539D01*
X599166Y35656D01*
X599197Y35709D01*
X599212Y35751D01*
X599246Y35820D01*
X599263Y35863D01*
X602693Y39293D01*
X607175Y41149D01*
X612025Y41149D01*
X616507Y39293D01*
X619936Y35863D01*
X619954Y35820D01*
X620014Y35705D01*
X620066Y35586D01*
X620118Y35506D01*
X620162Y35421D01*
X620242Y35318D01*
X620314Y35210D01*
X620380Y35141D01*
X620438Y35065D01*
X620535Y34978D01*
X620625Y34884D01*
X620701Y34828D01*
X620772Y34764D01*
X620883Y34695D01*
X620988Y34618D01*
X621074Y34576D01*
X621155Y34526D01*
X621275Y34478D01*
X621392Y34420D01*
X621484Y34394D01*
X621573Y34359D01*
X621700Y34333D01*
X621826Y34297D01*
X621921Y34288D01*
X622014Y34269D01*
X622144Y34266D01*
X622274Y34253D01*
X622369Y34260D01*
X622464Y34258D01*
X622593Y34278D01*
X622723Y34288D01*
X622815Y34312D01*
X622909Y34327D01*
X623032Y34369D01*
X623158Y34402D01*
X623245Y34442D01*
X623335Y34473D01*
X623449Y34537D01*
X623567Y34591D01*
X623645Y34646D01*
X623728Y34693D01*
X623829Y34775D01*
X623936Y34850D01*
X624003Y34917D01*
X624077Y34978D01*
X624161Y35077D01*
X624253Y35169D01*
X624307Y35248D01*
X624369Y35320D01*
X624435Y35432D01*
X624509Y35539D01*
X624566Y35656D01*
X624597Y35709D01*
X624612Y35751D01*
X624646Y35820D01*
X624663Y35863D01*
X628093Y39293D01*
X632575Y41149D01*
X637425Y41149D01*
X641907Y39293D01*
X645337Y35863D01*
X647193Y31381D01*
X647193Y19419D01*
X645336Y14937D01*
X642609Y12210D01*
X642525Y12110D01*
X642435Y12017D01*
X642381Y11937D01*
X642320Y11864D01*
X642255Y11751D01*
X642182Y11644D01*
X642144Y11556D01*
X642096Y11473D01*
X642053Y11351D01*
X642000Y11232D01*
X641978Y11139D01*
X641946Y11049D01*
X641924Y10921D01*
X641894Y10794D01*
X641888Y10699D01*
X641872Y10605D01*
X641874Y10475D01*
X641866Y10345D01*
X641877Y10250D01*
X641878Y10154D01*
X641903Y10027D01*
X641918Y9898D01*
X641946Y9806D01*
X641964Y9712D01*
X642011Y9591D01*
X642048Y9467D01*
X642092Y9381D01*
X642126Y9292D01*
X642194Y9181D01*
X642253Y9065D01*
X642310Y8989D01*
X642360Y8908D01*
X642446Y8810D01*
X642525Y8707D01*
X642595Y8642D01*
X642658Y8570D01*
X642760Y8490D01*
X642856Y8401D01*
X642936Y8350D01*
X643011Y8291D01*
X643126Y8230D01*
X643235Y8160D01*
X643324Y8123D01*
X643408Y8078D01*
X643532Y8038D01*
X643652Y7989D01*
X643745Y7969D01*
X643836Y7939D01*
X643965Y7921D01*
X644092Y7894D01*
X644222Y7886D01*
X644282Y7878D01*
X644327Y7879D01*
X644404Y7875D01*
X649986Y7875D01*
X650021Y7878D01*
X650055Y7876D01*
X650244Y7898D01*
X650435Y7915D01*
X650468Y7924D01*
X650502Y7928D01*
X650685Y7983D01*
X650869Y8033D01*
X650900Y8048D01*
X650933Y8058D01*
X651104Y8145D01*
X651276Y8227D01*
X651304Y8247D01*
X651335Y8262D01*
X651487Y8378D01*
X651642Y8489D01*
X651666Y8514D01*
X651693Y8534D01*
X651822Y8674D01*
X651956Y8811D01*
X651975Y8840D01*
X651999Y8866D01*
X652101Y9027D01*
X652208Y9184D01*
X652222Y9216D01*
X652240Y9245D01*
X652313Y9422D01*
X652390Y9596D01*
X652398Y9630D01*
X652411Y9662D01*
X652451Y9849D01*
X652497Y10034D01*
X652499Y10068D01*
X652506Y10102D01*
X652525Y10414D01*
X652525Y26966D01*
X653724Y29861D01*
X656296Y32433D01*
X656297Y32433D01*
X677182Y53318D01*
X677287Y53444D01*
X677399Y53565D01*
X677431Y53617D01*
X677470Y53663D01*
X677552Y53806D01*
X677640Y53945D01*
X677664Y54002D01*
X677694Y54054D01*
X677749Y54209D01*
X677811Y54362D01*
X677824Y54421D01*
X677845Y54479D01*
X677871Y54641D01*
X677906Y54802D01*
X677911Y54879D01*
X677918Y54923D01*
X677917Y54984D01*
X677925Y55114D01*
X677925Y55627D01*
X677914Y55757D01*
X677912Y55887D01*
X677894Y55980D01*
X677885Y56076D01*
X677851Y56201D01*
X677826Y56329D01*
X677792Y56418D01*
X677767Y56510D01*
X677711Y56627D01*
X677664Y56749D01*
X677614Y56830D01*
X677573Y56917D01*
X677498Y57022D01*
X677430Y57133D01*
X677367Y57205D01*
X677311Y57283D01*
X677218Y57373D01*
X677132Y57471D01*
X677057Y57530D01*
X676989Y57597D01*
X676881Y57670D01*
X676779Y57750D01*
X676695Y57795D01*
X676616Y57849D01*
X676497Y57901D01*
X676382Y57963D01*
X676291Y57992D01*
X676204Y58031D01*
X676078Y58062D01*
X675954Y58102D01*
X675859Y58115D01*
X675766Y58138D01*
X675637Y58146D01*
X675508Y58163D01*
X675412Y58160D01*
X675317Y58165D01*
X675188Y58150D01*
X675058Y58145D01*
X674965Y58124D01*
X674870Y58113D01*
X674745Y58076D01*
X674618Y58047D01*
X674530Y58011D01*
X674439Y57983D01*
X674323Y57924D01*
X674203Y57874D01*
X674123Y57822D01*
X674037Y57779D01*
X673934Y57700D01*
X673825Y57630D01*
X673727Y57543D01*
X673679Y57507D01*
X673648Y57474D01*
X673590Y57423D01*
X673205Y57037D01*
X664896Y53595D01*
X655904Y53595D01*
X647595Y57037D01*
X641237Y63395D01*
X637795Y71704D01*
X637795Y80696D01*
X641237Y89005D01*
X647595Y95363D01*
X655904Y98805D01*
X664896Y98805D01*
X673205Y95363D01*
X673590Y94977D01*
X673690Y94894D01*
X673783Y94803D01*
X673862Y94750D01*
X673936Y94689D01*
X674049Y94624D01*
X674156Y94551D01*
X674244Y94513D01*
X674327Y94465D01*
X674449Y94422D01*
X674568Y94369D01*
X674661Y94346D01*
X674751Y94314D01*
X674879Y94293D01*
X675006Y94262D01*
X675101Y94256D01*
X675195Y94241D01*
X675325Y94243D01*
X675455Y94235D01*
X675550Y94246D01*
X675645Y94247D01*
X675773Y94272D01*
X675902Y94287D01*
X675994Y94314D01*
X676088Y94333D01*
X676209Y94379D01*
X676333Y94417D01*
X676418Y94460D01*
X676508Y94495D01*
X676619Y94562D01*
X676735Y94621D01*
X676811Y94679D01*
X676892Y94729D01*
X676990Y94815D01*
X677093Y94893D01*
X677158Y94964D01*
X677230Y95027D01*
X677310Y95129D01*
X677399Y95224D01*
X677450Y95305D01*
X677509Y95380D01*
X677570Y95494D01*
X677640Y95604D01*
X677677Y95693D01*
X677722Y95777D01*
X677762Y95900D01*
X677811Y96021D01*
X677831Y96114D01*
X677861Y96205D01*
X677879Y96334D01*
X677906Y96461D01*
X677914Y96591D01*
X677922Y96651D01*
X677921Y96696D01*
X677925Y96773D01*
X677925Y335027D01*
X677914Y335157D01*
X677912Y335287D01*
X677894Y335380D01*
X677885Y335476D01*
X677851Y335601D01*
X677826Y335729D01*
X677792Y335818D01*
X677767Y335910D01*
X677711Y336027D01*
X677664Y336149D01*
X677614Y336230D01*
X677573Y336317D01*
X677498Y336422D01*
X677430Y336533D01*
X677367Y336605D01*
X677311Y336683D01*
X677218Y336773D01*
X677132Y336871D01*
X677057Y336930D01*
X676989Y336997D01*
X676881Y337070D01*
X676779Y337150D01*
X676695Y337195D01*
X676616Y337249D01*
X676497Y337301D01*
X676382Y337363D01*
X676291Y337392D01*
X676204Y337431D01*
X676078Y337462D01*
X675954Y337502D01*
X675859Y337515D01*
X675766Y337538D01*
X675637Y337546D01*
X675508Y337563D01*
X675412Y337560D01*
X675317Y337565D01*
X675188Y337550D01*
X675058Y337545D01*
X674965Y337524D01*
X674870Y337513D01*
X674745Y337476D01*
X674618Y337447D01*
X674530Y337411D01*
X674439Y337383D01*
X674323Y337324D01*
X674203Y337274D01*
X674123Y337222D01*
X674037Y337179D01*
X673934Y337100D01*
X673825Y337030D01*
X673727Y336943D01*
X673679Y336907D01*
X673648Y336874D01*
X673590Y336823D01*
X673205Y336437D01*
X664896Y332995D01*
X655904Y332995D01*
X648606Y336018D01*
X648437Y336071D01*
X648269Y336131D01*
X648222Y336138D01*
X648177Y336153D01*
X648001Y336175D01*
X647825Y336204D01*
X647777Y336203D01*
X647730Y336209D01*
X647553Y336200D01*
X647375Y336198D01*
X647328Y336189D01*
X647280Y336186D01*
X647108Y336146D01*
X646933Y336112D01*
X646888Y336095D01*
X646842Y336084D01*
X646679Y336014D01*
X646513Y335950D01*
X646472Y335925D01*
X646428Y335906D01*
X646280Y335808D01*
X646128Y335716D01*
X646092Y335684D01*
X646052Y335658D01*
X645924Y335536D01*
X645791Y335418D01*
X645761Y335381D01*
X645727Y335347D01*
X645621Y335204D01*
X645511Y335065D01*
X645489Y335023D01*
X645461Y334984D01*
X645383Y334824D01*
X645299Y334668D01*
X645284Y334623D01*
X645263Y334580D01*
X645214Y334409D01*
X645160Y334240D01*
X645153Y334192D01*
X645140Y334146D01*
X645122Y333970D01*
X645098Y333794D01*
X645100Y333746D01*
X645095Y333698D01*
X645109Y333521D01*
X645117Y333344D01*
X645127Y333297D01*
X645131Y333249D01*
X645176Y333078D01*
X645214Y332904D01*
X645233Y332860D01*
X645245Y332814D01*
X645319Y332653D01*
X645388Y332489D01*
X645414Y332448D01*
X645434Y332405D01*
X645536Y332260D01*
X645632Y332111D01*
X645671Y332066D01*
X645692Y332036D01*
X645737Y331992D01*
X645839Y331876D01*
X657434Y320281D01*
X659649Y318066D01*
X660655Y315639D01*
X660655Y232366D01*
X659649Y229939D01*
X647936Y218226D01*
X647831Y218100D01*
X647719Y217979D01*
X647687Y217927D01*
X647648Y217881D01*
X647566Y217738D01*
X647478Y217599D01*
X647454Y217543D01*
X647424Y217490D01*
X647369Y217335D01*
X647307Y217183D01*
X647294Y217123D01*
X647273Y217065D01*
X647247Y216903D01*
X647212Y216742D01*
X647207Y216665D01*
X647200Y216621D01*
X647201Y216560D01*
X647193Y216430D01*
X647193Y208649D01*
X645337Y204167D01*
X641907Y200737D01*
X637425Y198881D01*
X632575Y198881D01*
X632416Y198947D01*
X632337Y198972D01*
X632262Y199005D01*
X632123Y199039D01*
X631986Y199082D01*
X631904Y199092D01*
X631824Y199112D01*
X631682Y199121D01*
X631539Y199139D01*
X631457Y199134D01*
X631375Y199139D01*
X631233Y199123D01*
X631090Y199116D01*
X631009Y199097D01*
X630928Y199087D01*
X630791Y199046D01*
X630651Y199014D01*
X630576Y198981D01*
X630497Y198957D01*
X630369Y198892D01*
X630238Y198836D01*
X630169Y198790D01*
X630095Y198753D01*
X629981Y198666D01*
X629862Y198587D01*
X629802Y198531D01*
X629737Y198481D01*
X629640Y198375D01*
X629536Y198277D01*
X629487Y198210D01*
X629431Y198150D01*
X629354Y198029D01*
X629270Y197913D01*
X629234Y197839D01*
X629190Y197770D01*
X629135Y197637D01*
X629072Y197509D01*
X629050Y197430D01*
X629019Y197353D01*
X628989Y197213D01*
X628949Y197076D01*
X628941Y196994D01*
X628924Y196913D01*
X628909Y196667D01*
X628905Y196628D01*
X628906Y196617D01*
X628905Y196601D01*
X628905Y65361D01*
X627899Y62934D01*
X613341Y48376D01*
X610914Y47370D01*
X427311Y47370D01*
X424884Y48376D01*
X413501Y59759D01*
X412495Y62186D01*
X412495Y87197D01*
X412481Y87361D01*
X412474Y87525D01*
X412461Y87585D01*
X412455Y87646D01*
X412412Y87805D01*
X412376Y87965D01*
X412353Y88021D01*
X412337Y88080D01*
X412266Y88228D01*
X412203Y88380D01*
X412170Y88432D01*
X412143Y88487D01*
X412048Y88620D01*
X411958Y88759D01*
X411907Y88816D01*
X411881Y88853D01*
X411838Y88895D01*
X411752Y88993D01*
X409479Y91265D01*
X409479Y99235D01*
X415115Y104871D01*
X423085Y104871D01*
X428721Y99235D01*
X428721Y91265D01*
X426448Y88993D01*
X426343Y88866D01*
X426231Y88746D01*
X426199Y88694D01*
X426160Y88647D01*
X426078Y88505D01*
X425990Y88366D01*
X425966Y88309D01*
X425936Y88256D01*
X425881Y88102D01*
X425819Y87949D01*
X425806Y87890D01*
X425785Y87832D01*
X425759Y87670D01*
X425724Y87509D01*
X425719Y87432D01*
X425712Y87388D01*
X425713Y87327D01*
X425705Y87197D01*
X425705Y83491D01*
X425716Y83361D01*
X425718Y83231D01*
X425736Y83138D01*
X425745Y83042D01*
X425779Y82917D01*
X425804Y82789D01*
X425838Y82700D01*
X425863Y82608D01*
X425919Y82491D01*
X425966Y82369D01*
X426016Y82287D01*
X426057Y82201D01*
X426132Y82096D01*
X426200Y81984D01*
X426263Y81913D01*
X426319Y81835D01*
X426412Y81744D01*
X426498Y81647D01*
X426573Y81588D01*
X426641Y81521D01*
X426749Y81448D01*
X426851Y81368D01*
X426935Y81322D01*
X427014Y81269D01*
X427133Y81216D01*
X427248Y81155D01*
X427339Y81126D01*
X427426Y81087D01*
X427552Y81056D01*
X427676Y81016D01*
X427771Y81003D01*
X427864Y80980D01*
X427993Y80972D01*
X428122Y80954D01*
X428218Y80958D01*
X428313Y80952D01*
X428442Y80967D01*
X428572Y80973D01*
X428665Y80993D01*
X428760Y81005D01*
X428885Y81042D01*
X429012Y81070D01*
X429100Y81107D01*
X429191Y81135D01*
X429307Y81194D01*
X429427Y81244D01*
X429507Y81296D01*
X429593Y81339D01*
X429696Y81418D01*
X429805Y81488D01*
X429903Y81574D01*
X429951Y81611D01*
X429982Y81644D01*
X430040Y81695D01*
X430990Y82646D01*
X434203Y82646D01*
X434367Y82660D01*
X434532Y82667D01*
X434591Y82680D01*
X434652Y82686D01*
X434811Y82729D01*
X434971Y82765D01*
X435027Y82788D01*
X435086Y82804D01*
X435234Y82875D01*
X435387Y82938D01*
X435438Y82971D01*
X435493Y82998D01*
X435626Y83093D01*
X435765Y83183D01*
X435823Y83234D01*
X435859Y83260D01*
X435902Y83303D01*
X435999Y83389D01*
X438422Y85812D01*
X438527Y85938D01*
X438639Y86059D01*
X438671Y86111D01*
X438710Y86157D01*
X438792Y86300D01*
X438880Y86439D01*
X438904Y86495D01*
X438934Y86548D01*
X438989Y86703D01*
X439051Y86855D01*
X439064Y86915D01*
X439085Y86973D01*
X439111Y87135D01*
X439146Y87296D01*
X439151Y87372D01*
X439158Y87417D01*
X439157Y87478D01*
X439165Y87608D01*
X439165Y166828D01*
X439151Y166992D01*
X439144Y167156D01*
X439131Y167216D01*
X439125Y167277D01*
X439082Y167436D01*
X439046Y167596D01*
X439023Y167652D01*
X439007Y167711D01*
X438936Y167859D01*
X438873Y168011D01*
X438840Y168063D01*
X438813Y168118D01*
X438718Y168251D01*
X438628Y168390D01*
X438577Y168447D01*
X438551Y168484D01*
X438508Y168526D01*
X438422Y168624D01*
X434085Y172960D01*
X434085Y182640D01*
X440930Y189485D01*
X450610Y189485D01*
X457531Y182564D01*
X457554Y182446D01*
X457588Y182357D01*
X457613Y182265D01*
X457669Y182148D01*
X457716Y182026D01*
X457766Y181944D01*
X457807Y181858D01*
X457882Y181753D01*
X457950Y181641D01*
X458013Y181570D01*
X458069Y181492D01*
X458162Y181401D01*
X458248Y181304D01*
X458323Y181245D01*
X458391Y181178D01*
X458499Y181105D01*
X458601Y181025D01*
X458685Y180979D01*
X458764Y180926D01*
X458883Y180873D01*
X458998Y180812D01*
X459089Y180782D01*
X459176Y180744D01*
X459303Y180713D01*
X459426Y180673D01*
X459521Y180660D01*
X459614Y180637D01*
X459743Y180629D01*
X459872Y180611D01*
X459968Y180615D01*
X460063Y180609D01*
X460192Y180624D01*
X460322Y180630D01*
X460415Y180650D01*
X460510Y180661D01*
X460635Y180699D01*
X460762Y180727D01*
X460850Y180764D01*
X460941Y180792D01*
X461057Y180851D01*
X461177Y180901D01*
X461257Y180953D01*
X461343Y180996D01*
X461446Y181075D01*
X461555Y181145D01*
X461653Y181231D01*
X461701Y181268D01*
X461732Y181301D01*
X461790Y181352D01*
X467382Y186945D01*
X468631Y186945D01*
X468631Y177800D01*
X468631Y168655D01*
X467382Y168655D01*
X461790Y174248D01*
X461690Y174331D01*
X461597Y174422D01*
X461517Y174476D01*
X461444Y174537D01*
X461331Y174601D01*
X461224Y174674D01*
X461136Y174713D01*
X461053Y174760D01*
X460931Y174804D01*
X460812Y174856D01*
X460719Y174879D01*
X460629Y174911D01*
X460501Y174932D01*
X460374Y174963D01*
X460279Y174969D01*
X460185Y174984D01*
X460055Y174983D01*
X459925Y174991D01*
X459830Y174980D01*
X459734Y174978D01*
X459607Y174954D01*
X459478Y174939D01*
X459386Y174911D01*
X459292Y174893D01*
X459171Y174846D01*
X459047Y174808D01*
X458962Y174765D01*
X458872Y174731D01*
X458761Y174663D01*
X458645Y174604D01*
X458569Y174546D01*
X458488Y174497D01*
X458390Y174410D01*
X458287Y174332D01*
X458222Y174262D01*
X458150Y174198D01*
X458070Y174096D01*
X457981Y174001D01*
X457930Y173920D01*
X457871Y173845D01*
X457810Y173731D01*
X457740Y173621D01*
X457703Y173533D01*
X457658Y173448D01*
X457618Y173325D01*
X457569Y173204D01*
X457549Y173111D01*
X457521Y173026D01*
X453118Y168624D01*
X453013Y168497D01*
X452901Y168377D01*
X452869Y168325D01*
X452830Y168278D01*
X452748Y168136D01*
X452660Y167997D01*
X452636Y167940D01*
X452606Y167887D01*
X452551Y167733D01*
X452489Y167580D01*
X452476Y167521D01*
X452455Y167463D01*
X452429Y167301D01*
X452394Y167140D01*
X452389Y167063D01*
X452382Y167019D01*
X452383Y166958D01*
X452375Y166828D01*
X452375Y82506D01*
X451369Y80079D01*
X445339Y74049D01*
X445234Y73923D01*
X445122Y73802D01*
X445090Y73750D01*
X445051Y73704D01*
X444969Y73561D01*
X444881Y73422D01*
X444857Y73366D01*
X444827Y73313D01*
X444772Y73158D01*
X444710Y73006D01*
X444697Y72946D01*
X444676Y72888D01*
X444650Y72726D01*
X444615Y72565D01*
X444610Y72488D01*
X444603Y72444D01*
X444604Y72383D01*
X444596Y72253D01*
X444596Y69040D01*
X440470Y64915D01*
X440387Y64815D01*
X440296Y64722D01*
X440243Y64642D01*
X440181Y64569D01*
X440117Y64456D01*
X440044Y64349D01*
X440005Y64261D01*
X439958Y64178D01*
X439914Y64056D01*
X439862Y63937D01*
X439839Y63844D01*
X439807Y63754D01*
X439786Y63626D01*
X439755Y63499D01*
X439749Y63404D01*
X439734Y63310D01*
X439735Y63180D01*
X439727Y63050D01*
X439739Y62955D01*
X439740Y62859D01*
X439765Y62732D01*
X439780Y62603D01*
X439807Y62511D01*
X439825Y62417D01*
X439872Y62296D01*
X439910Y62172D01*
X439953Y62087D01*
X439988Y61997D01*
X440055Y61886D01*
X440114Y61770D01*
X440172Y61694D01*
X440222Y61613D01*
X440308Y61515D01*
X440386Y61412D01*
X440456Y61347D01*
X440520Y61275D01*
X440622Y61195D01*
X440717Y61106D01*
X440798Y61055D01*
X440873Y60996D01*
X440987Y60935D01*
X441097Y60865D01*
X441186Y60828D01*
X441270Y60783D01*
X441393Y60743D01*
X441514Y60694D01*
X441607Y60674D01*
X441698Y60644D01*
X441827Y60626D01*
X441954Y60599D01*
X442084Y60591D01*
X442144Y60583D01*
X442189Y60584D01*
X442266Y60580D01*
X605812Y60580D01*
X605976Y60594D01*
X606141Y60601D01*
X606200Y60614D01*
X606261Y60620D01*
X606420Y60663D01*
X606580Y60699D01*
X606636Y60722D01*
X606695Y60738D01*
X606843Y60809D01*
X606996Y60872D01*
X607047Y60905D01*
X607102Y60932D01*
X607235Y61027D01*
X607374Y61117D01*
X607432Y61168D01*
X607468Y61194D01*
X607511Y61237D01*
X607608Y61323D01*
X614952Y68667D01*
X615057Y68793D01*
X615169Y68914D01*
X615201Y68966D01*
X615240Y69012D01*
X615322Y69155D01*
X615410Y69294D01*
X615434Y69350D01*
X615464Y69403D01*
X615519Y69558D01*
X615581Y69710D01*
X615594Y69770D01*
X615615Y69828D01*
X615641Y69990D01*
X615676Y70151D01*
X615681Y70228D01*
X615688Y70272D01*
X615687Y70333D01*
X615695Y70463D01*
X615695Y196601D01*
X615688Y196683D01*
X615690Y196766D01*
X615668Y196907D01*
X615655Y197050D01*
X615634Y197129D01*
X615621Y197211D01*
X615575Y197346D01*
X615537Y197484D01*
X615501Y197558D01*
X615475Y197636D01*
X615405Y197761D01*
X615343Y197891D01*
X615296Y197958D01*
X615255Y198030D01*
X615165Y198140D01*
X615081Y198257D01*
X615022Y198314D01*
X614970Y198378D01*
X614861Y198471D01*
X614759Y198571D01*
X614690Y198617D01*
X614628Y198670D01*
X614504Y198743D01*
X614386Y198823D01*
X614310Y198856D01*
X614239Y198898D01*
X614105Y198947D01*
X613974Y199005D01*
X613894Y199025D01*
X613816Y199053D01*
X613675Y199078D01*
X613536Y199112D01*
X613454Y199117D01*
X613373Y199131D01*
X613230Y199131D01*
X613087Y199139D01*
X613005Y199130D01*
X612923Y199130D01*
X612782Y199104D01*
X612640Y199087D01*
X612561Y199063D01*
X612480Y199049D01*
X612247Y198969D01*
X612209Y198957D01*
X612199Y198952D01*
X612184Y198947D01*
X612025Y198881D01*
X607175Y198881D01*
X602693Y200737D01*
X599263Y204167D01*
X599246Y204210D01*
X599186Y204325D01*
X599134Y204444D01*
X599082Y204524D01*
X599037Y204609D01*
X598958Y204712D01*
X598886Y204820D01*
X598820Y204889D01*
X598762Y204965D01*
X598665Y205052D01*
X598575Y205146D01*
X598498Y205202D01*
X598427Y205266D01*
X598317Y205335D01*
X598212Y205412D01*
X598126Y205454D01*
X598045Y205504D01*
X597924Y205553D01*
X597807Y205610D01*
X597716Y205636D01*
X597627Y205671D01*
X597499Y205697D01*
X597374Y205733D01*
X597279Y205742D01*
X597186Y205761D01*
X597056Y205764D01*
X596926Y205777D01*
X596831Y205770D01*
X596736Y205772D01*
X596607Y205752D01*
X596477Y205742D01*
X596385Y205718D01*
X596291Y205703D01*
X596168Y205661D01*
X596042Y205628D01*
X595955Y205588D01*
X595865Y205557D01*
X595751Y205493D01*
X595633Y205439D01*
X595555Y205384D01*
X595472Y205337D01*
X595371Y205255D01*
X595264Y205180D01*
X595197Y205113D01*
X595123Y205052D01*
X595039Y204953D01*
X594947Y204861D01*
X594893Y204782D01*
X594831Y204710D01*
X594765Y204597D01*
X594691Y204490D01*
X594634Y204374D01*
X594603Y204321D01*
X594588Y204279D01*
X594554Y204210D01*
X594536Y204167D01*
X591107Y200737D01*
X586625Y198881D01*
X581775Y198881D01*
X577293Y200737D01*
X573863Y204167D01*
X573846Y204210D01*
X573786Y204325D01*
X573734Y204444D01*
X573682Y204524D01*
X573637Y204609D01*
X573558Y204712D01*
X573486Y204820D01*
X573420Y204889D01*
X573362Y204965D01*
X573265Y205052D01*
X573175Y205146D01*
X573098Y205202D01*
X573027Y205266D01*
X572917Y205335D01*
X572812Y205412D01*
X572726Y205454D01*
X572645Y205504D01*
X572524Y205553D01*
X572407Y205610D01*
X572316Y205636D01*
X572227Y205671D01*
X572099Y205697D01*
X571974Y205733D01*
X571879Y205742D01*
X571786Y205761D01*
X571656Y205764D01*
X571526Y205777D01*
X571431Y205770D01*
X571336Y205772D01*
X571207Y205752D01*
X571077Y205742D01*
X570985Y205718D01*
X570891Y205703D01*
X570768Y205661D01*
X570642Y205628D01*
X570555Y205588D01*
X570465Y205557D01*
X570351Y205493D01*
X570233Y205439D01*
X570155Y205384D01*
X570072Y205337D01*
X569971Y205255D01*
X569864Y205180D01*
X569797Y205113D01*
X569723Y205052D01*
X569639Y204953D01*
X569547Y204861D01*
X569493Y204782D01*
X569431Y204710D01*
X569365Y204597D01*
X569291Y204490D01*
X569234Y204374D01*
X569203Y204321D01*
X569188Y204279D01*
X569154Y204210D01*
X569136Y204167D01*
X565707Y200737D01*
X561225Y198881D01*
X556375Y198881D01*
X551893Y200737D01*
X548463Y204167D01*
X548446Y204210D01*
X548386Y204325D01*
X548334Y204444D01*
X548282Y204524D01*
X548237Y204609D01*
X548158Y204712D01*
X548086Y204820D01*
X548020Y204889D01*
X547962Y204965D01*
X547865Y205052D01*
X547775Y205146D01*
X547698Y205202D01*
X547627Y205266D01*
X547517Y205335D01*
X547412Y205412D01*
X547326Y205454D01*
X547245Y205504D01*
X547124Y205553D01*
X547007Y205610D01*
X546916Y205636D01*
X546827Y205671D01*
X546699Y205697D01*
X546574Y205733D01*
X546479Y205742D01*
X546386Y205761D01*
X546256Y205764D01*
X546126Y205777D01*
X546031Y205770D01*
X545936Y205772D01*
X545807Y205752D01*
X545677Y205742D01*
X545585Y205718D01*
X545491Y205703D01*
X545368Y205661D01*
X545242Y205628D01*
X545155Y205588D01*
X545065Y205557D01*
X544951Y205493D01*
X544833Y205439D01*
X544755Y205384D01*
X544672Y205337D01*
X544571Y205255D01*
X544464Y205180D01*
X544397Y205113D01*
X544323Y205052D01*
X544239Y204953D01*
X544147Y204861D01*
X544093Y204782D01*
X544031Y204710D01*
X543965Y204597D01*
X543891Y204490D01*
X543834Y204374D01*
X543803Y204321D01*
X543788Y204279D01*
X543754Y204210D01*
X543736Y204167D01*
X540307Y200737D01*
X535825Y198881D01*
X530975Y198881D01*
X526493Y200737D01*
X523063Y204167D01*
X523046Y204210D01*
X522986Y204325D01*
X522934Y204444D01*
X522882Y204524D01*
X522837Y204609D01*
X522758Y204712D01*
X522686Y204820D01*
X522620Y204889D01*
X522562Y204965D01*
X522465Y205052D01*
X522375Y205146D01*
X522298Y205202D01*
X522227Y205266D01*
X522117Y205335D01*
X522012Y205412D01*
X521926Y205454D01*
X521845Y205504D01*
X521724Y205553D01*
X521607Y205610D01*
X521516Y205636D01*
X521427Y205671D01*
X521299Y205697D01*
X521174Y205733D01*
X521079Y205742D01*
X520986Y205761D01*
X520856Y205764D01*
X520726Y205777D01*
X520631Y205770D01*
X520536Y205772D01*
X520407Y205752D01*
X520277Y205742D01*
X520185Y205718D01*
X520091Y205703D01*
X519968Y205661D01*
X519842Y205628D01*
X519755Y205588D01*
X519665Y205557D01*
X519551Y205493D01*
X519433Y205439D01*
X519355Y205384D01*
X519272Y205337D01*
X519171Y205255D01*
X519064Y205180D01*
X518997Y205113D01*
X518923Y205052D01*
X518839Y204953D01*
X518747Y204861D01*
X518693Y204782D01*
X518631Y204710D01*
X518565Y204597D01*
X518491Y204490D01*
X518434Y204374D01*
X518403Y204321D01*
X518388Y204279D01*
X518354Y204210D01*
X518336Y204167D01*
X514907Y200737D01*
X510425Y198881D01*
X505575Y198881D01*
X501093Y200737D01*
X497663Y204167D01*
X496286Y207493D01*
X496284Y207497D01*
X496283Y207501D01*
X496181Y207695D01*
X496078Y207892D01*
X496075Y207895D01*
X496073Y207899D01*
X495936Y208075D01*
X495802Y208248D01*
X495799Y208251D01*
X495796Y208254D01*
X495632Y208401D01*
X495468Y208550D01*
X495464Y208552D01*
X495460Y208555D01*
X495275Y208669D01*
X495085Y208787D01*
X495081Y208789D01*
X495077Y208791D01*
X494875Y208871D01*
X494667Y208954D01*
X494662Y208955D01*
X494658Y208957D01*
X494444Y209000D01*
X494226Y209044D01*
X494221Y209044D01*
X494217Y209045D01*
X493995Y209050D01*
X493776Y209055D01*
X493771Y209054D01*
X493767Y209054D01*
X493547Y209020D01*
X493331Y208986D01*
X493327Y208985D01*
X493322Y208984D01*
X493109Y208910D01*
X492905Y208840D01*
X492901Y208838D01*
X492897Y208836D01*
X492703Y208727D01*
X492512Y208620D01*
X492508Y208618D01*
X492504Y208615D01*
X492333Y208474D01*
X492163Y208335D01*
X492160Y208332D01*
X492157Y208329D01*
X492013Y208159D01*
X491871Y207993D01*
X491869Y207989D01*
X491866Y207986D01*
X491754Y207792D01*
X491643Y207604D01*
X491642Y207600D01*
X491640Y207596D01*
X491565Y207406D01*
X490856Y206015D01*
X489963Y204786D01*
X488888Y203711D01*
X487659Y202818D01*
X486305Y202128D01*
X485139Y201750D01*
X485139Y214630D01*
X485139Y227510D01*
X486305Y227132D01*
X487659Y226442D01*
X488888Y225549D01*
X489963Y224474D01*
X490856Y223245D01*
X491583Y221819D01*
X491615Y221744D01*
X491701Y221540D01*
X491704Y221537D01*
X491706Y221532D01*
X491829Y221346D01*
X491948Y221164D01*
X491951Y221161D01*
X491954Y221157D01*
X492107Y220997D01*
X492258Y220837D01*
X492262Y220834D01*
X492265Y220831D01*
X492440Y220703D01*
X492620Y220570D01*
X492624Y220568D01*
X492628Y220565D01*
X492826Y220468D01*
X493024Y220371D01*
X493028Y220369D01*
X493033Y220367D01*
X493245Y220307D01*
X493457Y220246D01*
X493461Y220246D01*
X493466Y220244D01*
X493687Y220222D01*
X493905Y220200D01*
X493909Y220200D01*
X493914Y220200D01*
X494137Y220217D01*
X494354Y220234D01*
X494358Y220235D01*
X494363Y220235D01*
X494575Y220291D01*
X494790Y220346D01*
X494794Y220348D01*
X494798Y220349D01*
X494995Y220440D01*
X495199Y220534D01*
X495203Y220536D01*
X495207Y220538D01*
X495386Y220663D01*
X495569Y220791D01*
X495572Y220794D01*
X495576Y220797D01*
X495729Y220951D01*
X495887Y221109D01*
X495890Y221113D01*
X495893Y221116D01*
X496018Y221298D01*
X496144Y221479D01*
X496146Y221483D01*
X496149Y221486D01*
X496286Y221767D01*
X497663Y225093D01*
X501093Y228523D01*
X505575Y230379D01*
X510425Y230379D01*
X514907Y228523D01*
X518336Y225093D01*
X518354Y225050D01*
X518414Y224935D01*
X518466Y224816D01*
X518518Y224736D01*
X518562Y224651D01*
X518642Y224549D01*
X518714Y224440D01*
X518780Y224371D01*
X518838Y224295D01*
X518935Y224208D01*
X519024Y224114D01*
X519102Y224058D01*
X519172Y223994D01*
X519283Y223925D01*
X519388Y223848D01*
X519474Y223806D01*
X519555Y223756D01*
X519676Y223708D01*
X519792Y223651D01*
X519884Y223624D01*
X519973Y223589D01*
X520101Y223563D01*
X520226Y223527D01*
X520321Y223518D01*
X520414Y223499D01*
X520544Y223496D01*
X520674Y223483D01*
X520769Y223490D01*
X520864Y223488D01*
X520993Y223508D01*
X521122Y223518D01*
X521215Y223542D01*
X521309Y223557D01*
X521432Y223599D01*
X521558Y223632D01*
X521645Y223672D01*
X521735Y223703D01*
X521848Y223767D01*
X521967Y223821D01*
X522045Y223876D01*
X522128Y223923D01*
X522229Y224005D01*
X522335Y224080D01*
X522403Y224147D01*
X522477Y224208D01*
X522561Y224307D01*
X522653Y224399D01*
X522707Y224477D01*
X522769Y224550D01*
X522835Y224663D01*
X522909Y224769D01*
X522966Y224886D01*
X522997Y224939D01*
X523012Y224981D01*
X523046Y225050D01*
X523063Y225093D01*
X526493Y228523D01*
X530975Y230379D01*
X535825Y230379D01*
X540307Y228523D01*
X543736Y225093D01*
X543754Y225050D01*
X543814Y224935D01*
X543866Y224816D01*
X543918Y224736D01*
X543962Y224651D01*
X544042Y224549D01*
X544114Y224440D01*
X544180Y224371D01*
X544238Y224295D01*
X544335Y224208D01*
X544424Y224114D01*
X544502Y224058D01*
X544572Y223994D01*
X544683Y223925D01*
X544788Y223848D01*
X544874Y223806D01*
X544955Y223756D01*
X545076Y223708D01*
X545192Y223651D01*
X545284Y223624D01*
X545373Y223589D01*
X545501Y223563D01*
X545626Y223527D01*
X545721Y223518D01*
X545814Y223499D01*
X545944Y223496D01*
X546074Y223483D01*
X546169Y223490D01*
X546264Y223488D01*
X546393Y223508D01*
X546522Y223518D01*
X546615Y223542D01*
X546709Y223557D01*
X546832Y223599D01*
X546958Y223632D01*
X547045Y223672D01*
X547135Y223703D01*
X547248Y223767D01*
X547367Y223821D01*
X547445Y223876D01*
X547528Y223923D01*
X547629Y224005D01*
X547735Y224080D01*
X547803Y224147D01*
X547877Y224208D01*
X547961Y224307D01*
X548053Y224399D01*
X548107Y224477D01*
X548169Y224550D01*
X548235Y224663D01*
X548309Y224769D01*
X548366Y224886D01*
X548397Y224939D01*
X548412Y224981D01*
X548446Y225050D01*
X548463Y225093D01*
X551893Y228523D01*
X556375Y230379D01*
X561225Y230379D01*
X565707Y228523D01*
X569136Y225093D01*
X569154Y225050D01*
X569214Y224935D01*
X569266Y224816D01*
X569318Y224736D01*
X569362Y224651D01*
X569442Y224549D01*
X569514Y224440D01*
X569580Y224371D01*
X569638Y224295D01*
X569735Y224208D01*
X569824Y224114D01*
X569902Y224058D01*
X569972Y223994D01*
X570083Y223925D01*
X570188Y223848D01*
X570274Y223806D01*
X570355Y223756D01*
X570476Y223708D01*
X570592Y223651D01*
X570684Y223624D01*
X570773Y223589D01*
X570901Y223563D01*
X571026Y223527D01*
X571121Y223518D01*
X571214Y223499D01*
X571344Y223496D01*
X571474Y223483D01*
X571569Y223490D01*
X571664Y223488D01*
X571793Y223508D01*
X571922Y223518D01*
X572015Y223542D01*
X572109Y223557D01*
X572232Y223599D01*
X572358Y223632D01*
X572445Y223672D01*
X572535Y223703D01*
X572648Y223767D01*
X572767Y223821D01*
X572845Y223876D01*
X572928Y223923D01*
X573029Y224005D01*
X573135Y224080D01*
X573203Y224147D01*
X573277Y224208D01*
X573361Y224307D01*
X573453Y224399D01*
X573507Y224477D01*
X573569Y224550D01*
X573635Y224663D01*
X573709Y224769D01*
X573766Y224886D01*
X573797Y224939D01*
X573812Y224981D01*
X573846Y225050D01*
X573863Y225093D01*
X577293Y228523D01*
X581775Y230379D01*
X586625Y230379D01*
X591107Y228523D01*
X594536Y225093D01*
X594554Y225050D01*
X594614Y224935D01*
X594666Y224816D01*
X594718Y224736D01*
X594762Y224651D01*
X594842Y224549D01*
X594914Y224440D01*
X594980Y224371D01*
X595038Y224295D01*
X595135Y224208D01*
X595224Y224114D01*
X595302Y224058D01*
X595372Y223994D01*
X595483Y223925D01*
X595588Y223848D01*
X595674Y223806D01*
X595755Y223756D01*
X595876Y223708D01*
X595992Y223651D01*
X596084Y223624D01*
X596173Y223589D01*
X596301Y223563D01*
X596426Y223527D01*
X596521Y223518D01*
X596614Y223499D01*
X596744Y223496D01*
X596874Y223483D01*
X596969Y223490D01*
X597064Y223488D01*
X597193Y223508D01*
X597322Y223518D01*
X597415Y223542D01*
X597509Y223557D01*
X597632Y223599D01*
X597758Y223632D01*
X597845Y223672D01*
X597935Y223703D01*
X598048Y223767D01*
X598167Y223821D01*
X598245Y223876D01*
X598328Y223923D01*
X598429Y224005D01*
X598535Y224080D01*
X598603Y224147D01*
X598677Y224208D01*
X598761Y224307D01*
X598853Y224399D01*
X598907Y224477D01*
X598969Y224550D01*
X599035Y224663D01*
X599109Y224769D01*
X599166Y224886D01*
X599197Y224939D01*
X599212Y224981D01*
X599246Y225050D01*
X599263Y225093D01*
X602693Y228523D01*
X607175Y230379D01*
X612025Y230379D01*
X614621Y229303D01*
X614824Y229240D01*
X615025Y229175D01*
X615038Y229173D01*
X615051Y229169D01*
X615262Y229142D01*
X615471Y229113D01*
X615484Y229114D01*
X615497Y229112D01*
X615708Y229123D01*
X615921Y229131D01*
X615934Y229134D01*
X615947Y229135D01*
X616153Y229183D01*
X616361Y229229D01*
X616373Y229234D01*
X616386Y229237D01*
X616580Y229321D01*
X616776Y229403D01*
X616787Y229410D01*
X616799Y229415D01*
X616976Y229532D01*
X617154Y229647D01*
X617166Y229657D01*
X617175Y229663D01*
X617203Y229690D01*
X617388Y229854D01*
X627652Y240117D01*
X627757Y240243D01*
X627869Y240364D01*
X627901Y240416D01*
X627940Y240462D01*
X628022Y240605D01*
X628110Y240744D01*
X628134Y240800D01*
X628164Y240853D01*
X628219Y241008D01*
X628281Y241160D01*
X628294Y241220D01*
X628315Y241278D01*
X628341Y241440D01*
X628376Y241601D01*
X628381Y241678D01*
X628388Y241722D01*
X628387Y241783D01*
X628395Y241913D01*
X628395Y275584D01*
X628381Y275747D01*
X628374Y275912D01*
X628361Y275971D01*
X628355Y276032D01*
X628312Y276191D01*
X628276Y276352D01*
X628253Y276408D01*
X628237Y276467D01*
X628166Y276615D01*
X628103Y276767D01*
X628070Y276818D01*
X628043Y276873D01*
X627948Y277007D01*
X627858Y277145D01*
X627807Y277203D01*
X627781Y277239D01*
X627738Y277282D01*
X627652Y277379D01*
X624664Y280367D01*
X624646Y280410D01*
X624586Y280525D01*
X624534Y280644D01*
X624482Y280724D01*
X624438Y280809D01*
X624358Y280911D01*
X624286Y281020D01*
X624220Y281089D01*
X624162Y281165D01*
X624065Y281252D01*
X623976Y281346D01*
X623898Y281402D01*
X623828Y281466D01*
X623717Y281535D01*
X623612Y281612D01*
X623526Y281654D01*
X623445Y281704D01*
X623324Y281752D01*
X623208Y281809D01*
X623116Y281836D01*
X623027Y281871D01*
X622899Y281897D01*
X622774Y281933D01*
X622679Y281942D01*
X622586Y281961D01*
X622456Y281964D01*
X622326Y281977D01*
X622231Y281970D01*
X622136Y281972D01*
X622007Y281952D01*
X621878Y281942D01*
X621785Y281918D01*
X621691Y281903D01*
X621568Y281861D01*
X621442Y281828D01*
X621355Y281788D01*
X621265Y281757D01*
X621152Y281693D01*
X621033Y281639D01*
X620955Y281584D01*
X620872Y281537D01*
X620771Y281455D01*
X620665Y281380D01*
X620597Y281313D01*
X620523Y281252D01*
X620439Y281153D01*
X620347Y281061D01*
X620293Y280983D01*
X620231Y280910D01*
X620165Y280797D01*
X620091Y280691D01*
X620034Y280574D01*
X620003Y280521D01*
X619988Y280479D01*
X619954Y280410D01*
X619937Y280367D01*
X616507Y276937D01*
X612025Y275081D01*
X607175Y275081D01*
X602693Y276937D01*
X599264Y280367D01*
X599246Y280410D01*
X599186Y280525D01*
X599134Y280644D01*
X599082Y280724D01*
X599038Y280809D01*
X598958Y280911D01*
X598886Y281020D01*
X598820Y281089D01*
X598762Y281165D01*
X598665Y281252D01*
X598576Y281346D01*
X598498Y281402D01*
X598428Y281466D01*
X598317Y281535D01*
X598212Y281612D01*
X598126Y281654D01*
X598045Y281704D01*
X597924Y281752D01*
X597808Y281809D01*
X597716Y281836D01*
X597627Y281871D01*
X597499Y281897D01*
X597374Y281933D01*
X597279Y281942D01*
X597186Y281961D01*
X597056Y281964D01*
X596926Y281977D01*
X596831Y281970D01*
X596736Y281972D01*
X596607Y281952D01*
X596478Y281942D01*
X596385Y281918D01*
X596291Y281903D01*
X596168Y281861D01*
X596042Y281828D01*
X595955Y281788D01*
X595865Y281757D01*
X595752Y281693D01*
X595633Y281639D01*
X595555Y281584D01*
X595472Y281537D01*
X595371Y281455D01*
X595265Y281380D01*
X595197Y281313D01*
X595123Y281252D01*
X595039Y281153D01*
X594947Y281061D01*
X594893Y280983D01*
X594831Y280910D01*
X594765Y280797D01*
X594691Y280691D01*
X594634Y280574D01*
X594603Y280521D01*
X594588Y280479D01*
X594554Y280410D01*
X594537Y280367D01*
X591107Y276937D01*
X586625Y275081D01*
X581775Y275081D01*
X577293Y276937D01*
X573863Y280367D01*
X573846Y280410D01*
X573786Y280525D01*
X573734Y280645D01*
X573682Y280724D01*
X573637Y280809D01*
X573558Y280912D01*
X573486Y281020D01*
X573420Y281089D01*
X573362Y281165D01*
X573265Y281252D01*
X573175Y281346D01*
X573098Y281402D01*
X573027Y281466D01*
X572917Y281535D01*
X572812Y281612D01*
X572726Y281654D01*
X572645Y281704D01*
X572524Y281752D01*
X572407Y281810D01*
X572316Y281836D01*
X572227Y281871D01*
X572099Y281897D01*
X571974Y281933D01*
X571879Y281942D01*
X571786Y281961D01*
X571656Y281964D01*
X571526Y281977D01*
X571431Y281970D01*
X571336Y281972D01*
X571207Y281952D01*
X571077Y281942D01*
X570985Y281918D01*
X570891Y281903D01*
X570767Y281861D01*
X570642Y281828D01*
X570555Y281788D01*
X570465Y281757D01*
X570351Y281693D01*
X570233Y281639D01*
X570155Y281584D01*
X570072Y281537D01*
X569971Y281455D01*
X569864Y281380D01*
X569797Y281313D01*
X569723Y281252D01*
X569639Y281153D01*
X569547Y281061D01*
X569493Y280982D01*
X569431Y280910D01*
X569365Y280797D01*
X569291Y280690D01*
X569234Y280574D01*
X569203Y280521D01*
X569188Y280479D01*
X569154Y280410D01*
X569136Y280367D01*
X565707Y276937D01*
X561225Y275081D01*
X556375Y275081D01*
X551893Y276937D01*
X548464Y280367D01*
X548446Y280410D01*
X548386Y280525D01*
X548334Y280644D01*
X548282Y280724D01*
X548238Y280809D01*
X548158Y280912D01*
X548086Y281020D01*
X548020Y281089D01*
X547962Y281165D01*
X547865Y281252D01*
X547775Y281346D01*
X547699Y281402D01*
X547628Y281466D01*
X547517Y281535D01*
X547412Y281612D01*
X547326Y281654D01*
X547245Y281704D01*
X547125Y281752D01*
X547008Y281810D01*
X546916Y281836D01*
X546827Y281871D01*
X546700Y281897D01*
X546574Y281933D01*
X546479Y281942D01*
X546386Y281961D01*
X546256Y281964D01*
X546126Y281977D01*
X546031Y281970D01*
X545936Y281972D01*
X545807Y281952D01*
X545677Y281942D01*
X545585Y281918D01*
X545491Y281903D01*
X545368Y281861D01*
X545242Y281828D01*
X545155Y281788D01*
X545065Y281757D01*
X544951Y281693D01*
X544833Y281639D01*
X544755Y281584D01*
X544672Y281537D01*
X544571Y281455D01*
X544464Y281380D01*
X544397Y281313D01*
X544323Y281252D01*
X544239Y281153D01*
X544147Y281061D01*
X544093Y280982D01*
X544031Y280910D01*
X543965Y280798D01*
X543891Y280691D01*
X543834Y280574D01*
X543803Y280521D01*
X543788Y280479D01*
X543754Y280410D01*
X543737Y280367D01*
X540307Y276937D01*
X535825Y275081D01*
X530975Y275081D01*
X526493Y276937D01*
X523064Y280367D01*
X523046Y280410D01*
X522986Y280525D01*
X522934Y280644D01*
X522882Y280724D01*
X522838Y280809D01*
X522758Y280912D01*
X522686Y281020D01*
X522620Y281089D01*
X522562Y281165D01*
X522465Y281252D01*
X522375Y281346D01*
X522299Y281402D01*
X522228Y281466D01*
X522117Y281535D01*
X522012Y281612D01*
X521926Y281654D01*
X521845Y281704D01*
X521725Y281752D01*
X521608Y281810D01*
X521516Y281836D01*
X521427Y281871D01*
X521300Y281897D01*
X521174Y281933D01*
X521079Y281942D01*
X520986Y281961D01*
X520856Y281964D01*
X520726Y281977D01*
X520631Y281970D01*
X520536Y281972D01*
X520407Y281952D01*
X520277Y281942D01*
X520185Y281918D01*
X520091Y281903D01*
X519968Y281861D01*
X519842Y281828D01*
X519755Y281788D01*
X519665Y281757D01*
X519551Y281693D01*
X519433Y281639D01*
X519355Y281584D01*
X519272Y281537D01*
X519171Y281455D01*
X519064Y281380D01*
X518997Y281313D01*
X518923Y281252D01*
X518839Y281153D01*
X518747Y281061D01*
X518693Y280982D01*
X518631Y280910D01*
X518565Y280798D01*
X518491Y280691D01*
X518434Y280574D01*
X518403Y280521D01*
X518388Y280479D01*
X518354Y280410D01*
X518337Y280367D01*
X514907Y276937D01*
X510425Y275081D01*
X505575Y275081D01*
X501093Y276937D01*
X497664Y280367D01*
X497646Y280410D01*
X497586Y280525D01*
X497534Y280644D01*
X497482Y280724D01*
X497438Y280809D01*
X497358Y280912D01*
X497286Y281020D01*
X497220Y281089D01*
X497162Y281165D01*
X497065Y281252D01*
X496975Y281346D01*
X496899Y281402D01*
X496828Y281466D01*
X496717Y281535D01*
X496612Y281612D01*
X496526Y281654D01*
X496445Y281704D01*
X496325Y281752D01*
X496208Y281810D01*
X496116Y281836D01*
X496027Y281871D01*
X495900Y281897D01*
X495774Y281933D01*
X495679Y281942D01*
X495586Y281961D01*
X495456Y281964D01*
X495326Y281977D01*
X495231Y281970D01*
X495136Y281972D01*
X495007Y281952D01*
X494877Y281942D01*
X494785Y281918D01*
X494691Y281903D01*
X494568Y281861D01*
X494442Y281828D01*
X494355Y281788D01*
X494265Y281757D01*
X494151Y281693D01*
X494033Y281639D01*
X493955Y281584D01*
X493872Y281537D01*
X493771Y281455D01*
X493664Y281380D01*
X493597Y281313D01*
X493523Y281252D01*
X493439Y281153D01*
X493347Y281061D01*
X493293Y280982D01*
X493231Y280910D01*
X493165Y280798D01*
X493091Y280691D01*
X493034Y280574D01*
X493003Y280521D01*
X492988Y280479D01*
X492954Y280410D01*
X492937Y280367D01*
X489507Y276937D01*
X485025Y275081D01*
X480175Y275081D01*
X475693Y276937D01*
X472263Y280367D01*
X470886Y283693D01*
X470884Y283697D01*
X470883Y283701D01*
X470779Y283898D01*
X470678Y284092D01*
X470675Y284096D01*
X470673Y284100D01*
X470538Y284273D01*
X470402Y284448D01*
X470398Y284451D01*
X470396Y284455D01*
X470232Y284601D01*
X470068Y284750D01*
X470064Y284752D01*
X470060Y284755D01*
X469874Y284870D01*
X469685Y284987D01*
X469681Y284989D01*
X469677Y284992D01*
X469473Y285072D01*
X469267Y285154D01*
X469262Y285155D01*
X469258Y285157D01*
X469045Y285199D01*
X468826Y285244D01*
X468821Y285244D01*
X468817Y285245D01*
X468600Y285250D01*
X468376Y285255D01*
X468371Y285254D01*
X468367Y285254D01*
X468152Y285220D01*
X467931Y285186D01*
X467926Y285185D01*
X467922Y285184D01*
X467715Y285112D01*
X467505Y285040D01*
X467501Y285038D01*
X467497Y285036D01*
X467302Y284926D01*
X467112Y284821D01*
X467108Y284818D01*
X467104Y284815D01*
X466931Y284672D01*
X466763Y284535D01*
X466760Y284532D01*
X466757Y284529D01*
X466612Y284358D01*
X466471Y284193D01*
X466469Y284189D01*
X466466Y284185D01*
X466352Y283990D01*
X466243Y283804D01*
X466242Y283800D01*
X466240Y283796D01*
X466165Y283606D01*
X465456Y282215D01*
X464563Y280986D01*
X463488Y279911D01*
X462259Y279018D01*
X460905Y278328D01*
X459739Y277950D01*
X459739Y290830D01*
X459739Y303710D01*
X460905Y303332D01*
X462259Y302642D01*
X463488Y301749D01*
X464563Y300674D01*
X465456Y299445D01*
X466182Y298019D01*
X466216Y297940D01*
X466301Y297741D01*
X466304Y297737D01*
X466306Y297732D01*
X466430Y297545D01*
X466548Y297364D01*
X466551Y297361D01*
X466554Y297357D01*
X466706Y297198D01*
X466858Y297037D01*
X466861Y297034D01*
X466865Y297031D01*
X467039Y296903D01*
X467220Y296770D01*
X467224Y296768D01*
X467228Y296765D01*
X467422Y296670D01*
X467624Y296571D01*
X467628Y296569D01*
X467633Y296567D01*
X467842Y296508D01*
X468057Y296446D01*
X468061Y296446D01*
X468066Y296444D01*
X468286Y296422D01*
X468505Y296400D01*
X468509Y296400D01*
X468514Y296400D01*
X468737Y296417D01*
X468954Y296434D01*
X468958Y296435D01*
X468963Y296435D01*
X469175Y296491D01*
X469390Y296546D01*
X469394Y296548D01*
X469398Y296549D01*
X469595Y296640D01*
X469799Y296734D01*
X469803Y296736D01*
X469807Y296738D01*
X469988Y296865D01*
X470169Y296991D01*
X470172Y296994D01*
X470176Y296996D01*
X470331Y297153D01*
X470487Y297309D01*
X470490Y297313D01*
X470493Y297316D01*
X470618Y297497D01*
X470744Y297678D01*
X470746Y297683D01*
X470749Y297686D01*
X470886Y297967D01*
X472263Y301293D01*
X475693Y304723D01*
X480175Y306579D01*
X485025Y306579D01*
X489507Y304723D01*
X492937Y301293D01*
X492954Y301250D01*
X493014Y301135D01*
X493066Y301015D01*
X493118Y300936D01*
X493163Y300851D01*
X493242Y300748D01*
X493314Y300640D01*
X493380Y300571D01*
X493438Y300495D01*
X493535Y300408D01*
X493625Y300314D01*
X493702Y300258D01*
X493773Y300194D01*
X493883Y300125D01*
X493988Y300048D01*
X494074Y300006D01*
X494155Y299956D01*
X494276Y299908D01*
X494393Y299850D01*
X494484Y299824D01*
X494573Y299789D01*
X494701Y299763D01*
X494826Y299727D01*
X494921Y299718D01*
X495014Y299699D01*
X495144Y299696D01*
X495274Y299683D01*
X495369Y299690D01*
X495464Y299688D01*
X495593Y299708D01*
X495723Y299718D01*
X495815Y299742D01*
X495909Y299757D01*
X496033Y299799D01*
X496158Y299832D01*
X496245Y299872D01*
X496335Y299903D01*
X496449Y299967D01*
X496567Y300021D01*
X496645Y300076D01*
X496728Y300123D01*
X496829Y300205D01*
X496936Y300280D01*
X497003Y300347D01*
X497077Y300408D01*
X497161Y300507D01*
X497253Y300599D01*
X497307Y300678D01*
X497369Y300750D01*
X497435Y300863D01*
X497509Y300970D01*
X497566Y301086D01*
X497597Y301139D01*
X497612Y301181D01*
X497646Y301250D01*
X497664Y301293D01*
X501093Y304723D01*
X505575Y306579D01*
X510425Y306579D01*
X514907Y304723D01*
X518337Y301293D01*
X518354Y301250D01*
X518414Y301135D01*
X518466Y301015D01*
X518518Y300936D01*
X518563Y300851D01*
X518642Y300748D01*
X518714Y300640D01*
X518780Y300571D01*
X518838Y300495D01*
X518935Y300408D01*
X519025Y300314D01*
X519102Y300258D01*
X519173Y300194D01*
X519283Y300125D01*
X519388Y300048D01*
X519474Y300006D01*
X519555Y299956D01*
X519676Y299908D01*
X519793Y299850D01*
X519884Y299824D01*
X519973Y299789D01*
X520101Y299763D01*
X520226Y299727D01*
X520321Y299718D01*
X520414Y299699D01*
X520544Y299696D01*
X520674Y299683D01*
X520769Y299690D01*
X520864Y299688D01*
X520993Y299708D01*
X521123Y299718D01*
X521215Y299742D01*
X521309Y299757D01*
X521433Y299799D01*
X521558Y299832D01*
X521645Y299872D01*
X521735Y299903D01*
X521849Y299967D01*
X521967Y300021D01*
X522045Y300076D01*
X522128Y300123D01*
X522229Y300205D01*
X522336Y300280D01*
X522403Y300347D01*
X522477Y300408D01*
X522561Y300507D01*
X522653Y300599D01*
X522707Y300678D01*
X522769Y300750D01*
X522835Y300863D01*
X522909Y300970D01*
X522966Y301086D01*
X522997Y301139D01*
X523012Y301181D01*
X523046Y301250D01*
X523064Y301293D01*
X526493Y304723D01*
X530975Y306579D01*
X535825Y306579D01*
X540307Y304723D01*
X543737Y301293D01*
X543754Y301250D01*
X543814Y301135D01*
X543866Y301015D01*
X543918Y300936D01*
X543963Y300851D01*
X544042Y300748D01*
X544114Y300640D01*
X544180Y300571D01*
X544238Y300495D01*
X544335Y300408D01*
X544425Y300314D01*
X544502Y300258D01*
X544573Y300194D01*
X544683Y300125D01*
X544788Y300048D01*
X544874Y300006D01*
X544955Y299956D01*
X545076Y299908D01*
X545193Y299850D01*
X545284Y299824D01*
X545373Y299789D01*
X545501Y299763D01*
X545626Y299727D01*
X545721Y299718D01*
X545814Y299699D01*
X545944Y299696D01*
X546074Y299683D01*
X546169Y299690D01*
X546264Y299688D01*
X546393Y299708D01*
X546523Y299718D01*
X546615Y299742D01*
X546709Y299757D01*
X546833Y299799D01*
X546958Y299832D01*
X547045Y299872D01*
X547135Y299903D01*
X547249Y299967D01*
X547367Y300021D01*
X547445Y300076D01*
X547528Y300123D01*
X547629Y300205D01*
X547736Y300280D01*
X547803Y300347D01*
X547877Y300408D01*
X547961Y300507D01*
X548053Y300599D01*
X548107Y300678D01*
X548169Y300750D01*
X548235Y300863D01*
X548309Y300970D01*
X548366Y301086D01*
X548397Y301139D01*
X548412Y301181D01*
X548446Y301250D01*
X548464Y301293D01*
X551893Y304723D01*
X556375Y306579D01*
X561225Y306579D01*
X565707Y304723D01*
X569136Y301293D01*
X569154Y301250D01*
X569214Y301135D01*
X569266Y301016D01*
X569318Y300936D01*
X569362Y300851D01*
X569442Y300748D01*
X569514Y300640D01*
X569580Y300571D01*
X569638Y300495D01*
X569735Y300408D01*
X569825Y300314D01*
X569901Y300258D01*
X569972Y300194D01*
X570083Y300125D01*
X570188Y300048D01*
X570274Y300006D01*
X570355Y299956D01*
X570475Y299908D01*
X570592Y299850D01*
X570684Y299824D01*
X570773Y299789D01*
X570900Y299763D01*
X571026Y299727D01*
X571121Y299718D01*
X571214Y299699D01*
X571344Y299696D01*
X571474Y299683D01*
X571569Y299690D01*
X571664Y299688D01*
X571793Y299708D01*
X571923Y299718D01*
X572015Y299742D01*
X572109Y299757D01*
X572232Y299799D01*
X572358Y299832D01*
X572445Y299872D01*
X572535Y299903D01*
X572649Y299967D01*
X572767Y300021D01*
X572845Y300076D01*
X572928Y300123D01*
X573029Y300205D01*
X573136Y300280D01*
X573203Y300347D01*
X573277Y300408D01*
X573361Y300507D01*
X573453Y300599D01*
X573507Y300678D01*
X573569Y300750D01*
X573635Y300862D01*
X573709Y300969D01*
X573766Y301086D01*
X573797Y301139D01*
X573812Y301181D01*
X573846Y301250D01*
X573863Y301293D01*
X576852Y304281D01*
X576957Y304407D01*
X577069Y304528D01*
X577101Y304579D01*
X577140Y304626D01*
X577222Y304769D01*
X577310Y304908D01*
X577334Y304964D01*
X577364Y305017D01*
X577419Y305172D01*
X577481Y305324D01*
X577494Y305384D01*
X577515Y305441D01*
X577541Y305604D01*
X577576Y305764D01*
X577581Y305841D01*
X577588Y305885D01*
X577587Y305947D01*
X577595Y306076D01*
X577595Y447062D01*
X577581Y447226D01*
X577574Y447391D01*
X577561Y447450D01*
X577555Y447511D01*
X577512Y447670D01*
X577476Y447830D01*
X577453Y447886D01*
X577437Y447945D01*
X577366Y448093D01*
X577303Y448246D01*
X577270Y448297D01*
X577243Y448352D01*
X577148Y448485D01*
X577058Y448624D01*
X577007Y448682D01*
X576981Y448718D01*
X576938Y448761D01*
X576852Y448858D01*
X572683Y453027D01*
X572557Y453132D01*
X572436Y453244D01*
X572384Y453276D01*
X572338Y453315D01*
X572195Y453397D01*
X572056Y453485D01*
X572000Y453509D01*
X571947Y453539D01*
X571792Y453594D01*
X571640Y453656D01*
X571580Y453669D01*
X571522Y453690D01*
X571360Y453716D01*
X571199Y453751D01*
X571122Y453756D01*
X571078Y453763D01*
X571017Y453762D01*
X570887Y453770D01*
X337163Y453770D01*
X336999Y453756D01*
X336834Y453749D01*
X336775Y453736D01*
X336714Y453730D01*
X336555Y453687D01*
X336395Y453651D01*
X336339Y453628D01*
X336280Y453612D01*
X336132Y453541D01*
X335979Y453478D01*
X335928Y453445D01*
X335873Y453418D01*
X335740Y453323D01*
X335601Y453233D01*
X335543Y453182D01*
X335507Y453156D01*
X335464Y453113D01*
X335367Y453027D01*
X277223Y394883D01*
X277118Y394757D01*
X277006Y394636D01*
X276974Y394584D01*
X276935Y394538D01*
X276853Y394395D01*
X276765Y394256D01*
X276741Y394200D01*
X276711Y394147D01*
X276656Y393992D01*
X276594Y393840D01*
X276581Y393780D01*
X276560Y393722D01*
X276534Y393560D01*
X276499Y393399D01*
X276494Y393322D01*
X276487Y393278D01*
X276488Y393217D01*
X276480Y393087D01*
X276480Y293961D01*
X275474Y291534D01*
X260916Y276976D01*
X258489Y275970D01*
X247994Y275970D01*
X247830Y275956D01*
X247665Y275949D01*
X247606Y275936D01*
X247545Y275930D01*
X247386Y275887D01*
X247226Y275851D01*
X247170Y275828D01*
X247111Y275812D01*
X246962Y275741D01*
X246810Y275678D01*
X246759Y275645D01*
X246704Y275618D01*
X246570Y275523D01*
X246432Y275433D01*
X246374Y275382D01*
X246338Y275356D01*
X246295Y275313D01*
X246198Y275227D01*
X242779Y271808D01*
X238111Y269874D01*
X225439Y269874D01*
X220771Y271808D01*
X217198Y275381D01*
X215264Y280049D01*
X215264Y285101D01*
X217198Y289769D01*
X220908Y293479D01*
X220930Y293506D01*
X220956Y293529D01*
X221074Y293678D01*
X221197Y293825D01*
X221214Y293855D01*
X221236Y293882D01*
X221326Y294050D01*
X221420Y294216D01*
X221432Y294248D01*
X221448Y294279D01*
X221507Y294460D01*
X221571Y294640D01*
X221577Y294674D01*
X221587Y294707D01*
X221613Y294896D01*
X221644Y295084D01*
X221644Y295119D01*
X221649Y295153D01*
X221641Y295344D01*
X221638Y295534D01*
X221632Y295569D01*
X221630Y295603D01*
X221589Y295789D01*
X221553Y295977D01*
X221540Y296009D01*
X221533Y296043D01*
X221459Y296219D01*
X221391Y296397D01*
X221373Y296426D01*
X221359Y296458D01*
X221256Y296619D01*
X221157Y296781D01*
X221134Y296807D01*
X221115Y296836D01*
X220908Y297071D01*
X217198Y300781D01*
X215264Y305449D01*
X215264Y310501D01*
X217198Y315169D01*
X220771Y318742D01*
X223146Y319726D01*
X223173Y319740D01*
X223202Y319750D01*
X223372Y319844D01*
X223545Y319935D01*
X223569Y319953D01*
X223596Y319968D01*
X223746Y320090D01*
X223901Y320210D01*
X223921Y320233D01*
X223945Y320252D01*
X224072Y320400D01*
X224203Y320545D01*
X224219Y320570D01*
X224239Y320593D01*
X224338Y320762D01*
X224441Y320927D01*
X224452Y320955D01*
X224467Y320981D01*
X224535Y321164D01*
X224607Y321345D01*
X224613Y321375D01*
X224624Y321403D01*
X224658Y321595D01*
X224697Y321786D01*
X224698Y321817D01*
X224703Y321847D01*
X224704Y322041D01*
X224708Y322236D01*
X224704Y322267D01*
X224704Y322297D01*
X224669Y322488D01*
X224639Y322681D01*
X224629Y322710D01*
X224624Y322740D01*
X224556Y322923D01*
X224493Y323107D01*
X224478Y323134D01*
X224468Y323162D01*
X224369Y323330D01*
X224274Y323500D01*
X224254Y323524D01*
X224239Y323550D01*
X224112Y323698D01*
X223988Y323849D01*
X223965Y323869D01*
X223945Y323892D01*
X223794Y324015D01*
X223646Y324141D01*
X223620Y324157D01*
X223596Y324176D01*
X223327Y324335D01*
X222640Y324685D01*
X221346Y325625D01*
X220215Y326756D01*
X219275Y328050D01*
X218549Y329475D01*
X218106Y330836D01*
X231775Y330836D01*
X245444Y330836D01*
X245001Y329475D01*
X244275Y328050D01*
X243335Y326756D01*
X242204Y325625D01*
X240910Y324685D01*
X240223Y324335D01*
X240197Y324318D01*
X240169Y324306D01*
X240007Y324199D01*
X239842Y324095D01*
X239819Y324075D01*
X239794Y324058D01*
X239652Y323923D01*
X239508Y323793D01*
X239490Y323769D01*
X239468Y323748D01*
X239352Y323590D01*
X239234Y323436D01*
X239220Y323409D01*
X239202Y323384D01*
X239116Y323209D01*
X239027Y323036D01*
X239018Y323007D01*
X239004Y322980D01*
X238951Y322792D01*
X238893Y322606D01*
X238889Y322576D01*
X238881Y322546D01*
X238862Y322352D01*
X238838Y322159D01*
X238840Y322129D01*
X238837Y322098D01*
X238852Y321904D01*
X238863Y321709D01*
X238870Y321680D01*
X238872Y321649D01*
X238921Y321461D01*
X238966Y321271D01*
X238978Y321243D01*
X238986Y321214D01*
X239068Y321037D01*
X239145Y320858D01*
X239162Y320833D01*
X239175Y320805D01*
X239287Y320646D01*
X239395Y320483D01*
X239416Y320461D01*
X239433Y320436D01*
X239572Y320299D01*
X239707Y320158D01*
X239731Y320141D01*
X239753Y320119D01*
X239914Y320008D01*
X240071Y319894D01*
X240098Y319880D01*
X240123Y319863D01*
X240404Y319726D01*
X242870Y318705D01*
X242890Y318688D01*
X242920Y318670D01*
X242948Y318649D01*
X243115Y318559D01*
X243281Y318464D01*
X243314Y318453D01*
X243344Y318436D01*
X243526Y318377D01*
X243705Y318314D01*
X243740Y318308D01*
X243773Y318297D01*
X243961Y318271D01*
X244149Y318240D01*
X244184Y318240D01*
X244219Y318236D01*
X244409Y318243D01*
X244600Y318246D01*
X244634Y318253D01*
X244669Y318254D01*
X244854Y318295D01*
X245042Y318332D01*
X245074Y318344D01*
X245108Y318352D01*
X245284Y318425D01*
X245462Y318494D01*
X245492Y318512D01*
X245524Y318525D01*
X245684Y318629D01*
X245847Y318728D01*
X245873Y318751D01*
X245902Y318770D01*
X246136Y318977D01*
X253002Y325842D01*
X253107Y325968D01*
X253219Y326089D01*
X253251Y326141D01*
X253290Y326187D01*
X253372Y326330D01*
X253460Y326469D01*
X253484Y326525D01*
X253514Y326578D01*
X253569Y326733D01*
X253631Y326885D01*
X253644Y326945D01*
X253665Y327003D01*
X253691Y327165D01*
X253726Y327326D01*
X253731Y327403D01*
X253738Y327447D01*
X253737Y327508D01*
X253745Y327638D01*
X253745Y410889D01*
X254751Y413316D01*
X309920Y468485D01*
X310003Y468585D01*
X310094Y468678D01*
X310148Y468758D01*
X310209Y468831D01*
X310273Y468944D01*
X310346Y469051D01*
X310385Y469139D01*
X310432Y469222D01*
X310476Y469344D01*
X310528Y469463D01*
X310551Y469556D01*
X310583Y469646D01*
X310604Y469775D01*
X310635Y469901D01*
X310641Y469996D01*
X310657Y470090D01*
X310655Y470221D01*
X310663Y470350D01*
X310652Y470445D01*
X310650Y470541D01*
X310626Y470668D01*
X310611Y470797D01*
X310583Y470889D01*
X310565Y470983D01*
X310518Y471104D01*
X310480Y471228D01*
X310437Y471313D01*
X310403Y471403D01*
X310335Y471514D01*
X310276Y471630D01*
X310218Y471706D01*
X310169Y471787D01*
X310083Y471885D01*
X310004Y471988D01*
X309934Y472053D01*
X309870Y472125D01*
X309769Y472205D01*
X309673Y472294D01*
X309592Y472345D01*
X309517Y472404D01*
X309403Y472465D01*
X309293Y472535D01*
X309205Y472572D01*
X309121Y472617D01*
X308997Y472657D01*
X308877Y472706D01*
X308783Y472726D01*
X308692Y472756D01*
X308564Y472774D01*
X308436Y472801D01*
X308307Y472809D01*
X308246Y472817D01*
X308201Y472816D01*
X308124Y472820D01*
X205061Y472820D01*
X202634Y473826D01*
X185449Y491011D01*
X185359Y491086D01*
X185276Y491168D01*
X185187Y491230D01*
X185103Y491300D01*
X185002Y491358D01*
X184906Y491424D01*
X184767Y491492D01*
X184712Y491523D01*
X184678Y491535D01*
X184625Y491561D01*
X180131Y493423D01*
X176241Y497313D01*
X176178Y497366D01*
X176121Y497425D01*
X176005Y497510D01*
X175895Y497602D01*
X175824Y497642D01*
X175757Y497691D01*
X175628Y497754D01*
X175504Y497825D01*
X175427Y497853D01*
X175353Y497889D01*
X175215Y497928D01*
X175080Y497976D01*
X174999Y497989D01*
X174920Y498012D01*
X174777Y498026D01*
X174636Y498049D01*
X174554Y498048D01*
X174471Y498056D01*
X174329Y498045D01*
X174186Y498043D01*
X174105Y498028D01*
X174023Y498021D01*
X173884Y497985D01*
X173744Y497958D01*
X173667Y497928D01*
X173587Y497907D01*
X173457Y497847D01*
X173324Y497795D01*
X173253Y497753D01*
X173178Y497718D01*
X173061Y497636D01*
X172939Y497562D01*
X172877Y497507D01*
X172810Y497460D01*
X172709Y497358D01*
X172601Y497263D01*
X172550Y497199D01*
X172492Y497140D01*
X172411Y497022D01*
X172322Y496910D01*
X172283Y496838D01*
X172236Y496770D01*
X172128Y496548D01*
X172109Y496513D01*
X172106Y496503D01*
X172099Y496489D01*
X171563Y495195D01*
X165205Y488837D01*
X156896Y485395D01*
X147904Y485395D01*
X139595Y488837D01*
X133237Y495195D01*
X129795Y503504D01*
X129795Y512496D01*
X133237Y520805D01*
X133623Y521190D01*
X133706Y521290D01*
X133797Y521383D01*
X133850Y521462D01*
X133911Y521536D01*
X133976Y521649D01*
X134049Y521756D01*
X134087Y521844D01*
X134135Y521927D01*
X134178Y522049D01*
X134231Y522168D01*
X134254Y522261D01*
X134286Y522351D01*
X134307Y522479D01*
X134338Y522606D01*
X134344Y522701D01*
X134359Y522795D01*
X134357Y522925D01*
X134365Y523055D01*
X134354Y523150D01*
X134353Y523245D01*
X134328Y523373D01*
X134313Y523502D01*
X134286Y523594D01*
X134267Y523688D01*
X134221Y523809D01*
X134183Y523933D01*
X134140Y524018D01*
X134105Y524108D01*
X134038Y524219D01*
X133979Y524335D01*
X133921Y524411D01*
X133871Y524492D01*
X133785Y524590D01*
X133707Y524693D01*
X133636Y524758D01*
X133573Y524830D01*
X133471Y524910D01*
X133376Y524999D01*
X133295Y525050D01*
X133220Y525109D01*
X133106Y525170D01*
X132996Y525240D01*
X132907Y525277D01*
X132823Y525322D01*
X132700Y525362D01*
X132579Y525411D01*
X132486Y525431D01*
X132395Y525461D01*
X132266Y525479D01*
X132139Y525506D01*
X132009Y525514D01*
X131949Y525522D01*
X131904Y525521D01*
X131827Y525525D01*
X10414Y525525D01*
X10379Y525522D01*
X10345Y525524D01*
X10156Y525502D01*
X9965Y525485D01*
X9932Y525476D01*
X9898Y525472D01*
X9715Y525417D01*
X9531Y525367D01*
X9500Y525352D01*
X9467Y525342D01*
X9296Y525255D01*
X9124Y525173D01*
X9096Y525153D01*
X9065Y525138D01*
X8913Y525022D01*
X8758Y524911D01*
X8734Y524886D01*
X8707Y524866D01*
X8578Y524726D01*
X8444Y524589D01*
X8425Y524560D01*
X8401Y524534D01*
X8299Y524373D01*
X8192Y524216D01*
X8178Y524184D01*
X8160Y524155D01*
X8087Y523978D01*
X8010Y523804D01*
X8002Y523770D01*
X7989Y523738D01*
X7949Y523551D01*
X7903Y523366D01*
X7901Y523332D01*
X7894Y523298D01*
X7875Y522986D01*
X7875Y506363D01*
X7886Y506233D01*
X7888Y506103D01*
X7906Y506009D01*
X7915Y505914D01*
X7949Y505789D01*
X7974Y505661D01*
X8008Y505572D01*
X8033Y505480D01*
X8089Y505363D01*
X8136Y505241D01*
X8186Y505159D01*
X8227Y505073D01*
X8302Y504968D01*
X8370Y504856D01*
X8433Y504785D01*
X8489Y504707D01*
X8582Y504616D01*
X8668Y504519D01*
X8743Y504460D01*
X8811Y504393D01*
X8919Y504320D01*
X9021Y504240D01*
X9105Y504194D01*
X9184Y504141D01*
X9303Y504088D01*
X9418Y504027D01*
X9509Y503997D01*
X9596Y503959D01*
X9723Y503928D01*
X9846Y503888D01*
X9941Y503875D01*
X10034Y503852D01*
X10163Y503844D01*
X10292Y503826D01*
X10388Y503830D01*
X10483Y503824D01*
X10612Y503839D01*
X10742Y503845D01*
X10835Y503865D01*
X10930Y503876D01*
X11055Y503914D01*
X11182Y503942D01*
X11270Y503979D01*
X11361Y504007D01*
X11477Y504066D01*
X11597Y504116D01*
X11677Y504168D01*
X11763Y504211D01*
X11866Y504290D01*
X11975Y504360D01*
X12073Y504446D01*
X12121Y504483D01*
X12152Y504516D01*
X12210Y504567D01*
X14627Y506985D01*
X15876Y506985D01*
X15876Y497840D01*
X15876Y488695D01*
X14627Y488695D01*
X12210Y491113D01*
X12110Y491196D01*
X12017Y491287D01*
X11937Y491341D01*
X11864Y491402D01*
X11751Y491466D01*
X11644Y491539D01*
X11556Y491578D01*
X11473Y491625D01*
X11351Y491669D01*
X11232Y491721D01*
X11139Y491744D01*
X11049Y491776D01*
X10921Y491797D01*
X10794Y491828D01*
X10699Y491834D01*
X10605Y491849D01*
X10475Y491848D01*
X10345Y491856D01*
X10250Y491845D01*
X10154Y491843D01*
X10027Y491819D01*
X9898Y491804D01*
X9806Y491776D01*
X9712Y491758D01*
X9591Y491711D01*
X9467Y491673D01*
X9381Y491630D01*
X9292Y491596D01*
X9181Y491528D01*
X9065Y491469D01*
X8989Y491411D01*
X8908Y491362D01*
X8810Y491275D01*
X8707Y491197D01*
X8642Y491127D01*
X8570Y491063D01*
X8490Y490961D01*
X8401Y490866D01*
X8350Y490785D01*
X8291Y490710D01*
X8230Y490596D01*
X8160Y490486D01*
X8123Y490398D01*
X8078Y490313D01*
X8038Y490190D01*
X7989Y490069D01*
X7969Y489976D01*
X7939Y489885D01*
X7921Y489757D01*
X7894Y489629D01*
X7886Y489500D01*
X7878Y489439D01*
X7879Y489394D01*
X7875Y489317D01*
X7875Y10414D01*
X7878Y10379D01*
X7876Y10345D01*
X7898Y10156D01*
X7915Y9965D01*
X7924Y9932D01*
X7928Y9898D01*
X7983Y9715D01*
X8033Y9531D01*
X8048Y9500D01*
X8058Y9467D01*
X8145Y9296D01*
X8227Y9124D01*
X8247Y9096D01*
X8262Y9065D01*
X8378Y8913D01*
X8489Y8758D01*
X8514Y8734D01*
X8534Y8707D01*
X8674Y8578D01*
X8811Y8444D01*
X8840Y8425D01*
X8866Y8401D01*
X9027Y8299D01*
X9184Y8192D01*
X9216Y8178D01*
X9245Y8160D01*
X9422Y8087D01*
X9596Y8010D01*
X9630Y8002D01*
X9662Y7989D01*
X9849Y7949D01*
X10034Y7903D01*
X10068Y7901D01*
X10102Y7894D01*
X10414Y7875D01*
X74006Y7875D01*
X74135Y7886D01*
G37*
%LPC*%
G36*
X302375Y198881D02*
X302375Y198881D01*
X297893Y200737D01*
X294463Y204167D01*
X292607Y208649D01*
X292607Y220611D01*
X294463Y225093D01*
X297893Y228523D01*
X302375Y230379D01*
X307225Y230379D01*
X311707Y228523D01*
X315136Y225093D01*
X315154Y225050D01*
X315214Y224935D01*
X315266Y224816D01*
X315318Y224736D01*
X315362Y224651D01*
X315442Y224548D01*
X315514Y224440D01*
X315580Y224371D01*
X315638Y224295D01*
X315735Y224208D01*
X315825Y224114D01*
X315901Y224058D01*
X315972Y223994D01*
X316083Y223925D01*
X316188Y223848D01*
X316274Y223806D01*
X316355Y223756D01*
X316475Y223708D01*
X316592Y223650D01*
X316684Y223624D01*
X316773Y223589D01*
X316900Y223563D01*
X317026Y223527D01*
X317121Y223518D01*
X317214Y223499D01*
X317344Y223496D01*
X317474Y223483D01*
X317569Y223490D01*
X317664Y223488D01*
X317793Y223508D01*
X317923Y223518D01*
X318015Y223542D01*
X318109Y223557D01*
X318232Y223599D01*
X318358Y223632D01*
X318445Y223672D01*
X318535Y223703D01*
X318649Y223767D01*
X318767Y223821D01*
X318845Y223876D01*
X318928Y223923D01*
X319029Y224005D01*
X319136Y224080D01*
X319203Y224147D01*
X319277Y224208D01*
X319361Y224307D01*
X319453Y224399D01*
X319507Y224478D01*
X319569Y224550D01*
X319635Y224662D01*
X319709Y224769D01*
X319766Y224886D01*
X319797Y224939D01*
X319812Y224981D01*
X319846Y225050D01*
X319863Y225093D01*
X323293Y228523D01*
X327775Y230379D01*
X332625Y230379D01*
X337107Y228523D01*
X340536Y225093D01*
X340554Y225050D01*
X340614Y224935D01*
X340666Y224816D01*
X340718Y224736D01*
X340762Y224651D01*
X340842Y224548D01*
X340914Y224440D01*
X340980Y224371D01*
X341038Y224295D01*
X341135Y224208D01*
X341225Y224114D01*
X341301Y224058D01*
X341372Y223994D01*
X341483Y223925D01*
X341588Y223848D01*
X341674Y223806D01*
X341755Y223756D01*
X341875Y223708D01*
X341992Y223650D01*
X342084Y223624D01*
X342173Y223589D01*
X342300Y223563D01*
X342426Y223527D01*
X342521Y223518D01*
X342614Y223499D01*
X342744Y223496D01*
X342874Y223483D01*
X342969Y223490D01*
X343064Y223488D01*
X343193Y223508D01*
X343323Y223518D01*
X343415Y223542D01*
X343509Y223557D01*
X343632Y223599D01*
X343758Y223632D01*
X343845Y223672D01*
X343935Y223703D01*
X344049Y223767D01*
X344167Y223821D01*
X344245Y223876D01*
X344328Y223923D01*
X344429Y224005D01*
X344536Y224080D01*
X344603Y224147D01*
X344677Y224208D01*
X344761Y224307D01*
X344853Y224399D01*
X344907Y224478D01*
X344969Y224550D01*
X345035Y224662D01*
X345109Y224769D01*
X345166Y224886D01*
X345197Y224939D01*
X345212Y224981D01*
X345246Y225050D01*
X345263Y225093D01*
X348693Y228523D01*
X353175Y230379D01*
X358025Y230379D01*
X362507Y228523D01*
X365936Y225093D01*
X365954Y225050D01*
X366014Y224935D01*
X366066Y224816D01*
X366118Y224736D01*
X366162Y224651D01*
X366242Y224548D01*
X366314Y224440D01*
X366380Y224371D01*
X366438Y224295D01*
X366535Y224208D01*
X366625Y224114D01*
X366701Y224058D01*
X366772Y223994D01*
X366883Y223925D01*
X366988Y223848D01*
X367074Y223806D01*
X367155Y223756D01*
X367275Y223708D01*
X367392Y223650D01*
X367484Y223624D01*
X367573Y223589D01*
X367700Y223563D01*
X367826Y223527D01*
X367921Y223518D01*
X368014Y223499D01*
X368144Y223496D01*
X368274Y223483D01*
X368369Y223490D01*
X368464Y223488D01*
X368593Y223508D01*
X368723Y223518D01*
X368815Y223542D01*
X368909Y223557D01*
X369032Y223599D01*
X369158Y223632D01*
X369245Y223672D01*
X369335Y223703D01*
X369449Y223767D01*
X369567Y223821D01*
X369645Y223876D01*
X369728Y223923D01*
X369829Y224005D01*
X369936Y224080D01*
X370003Y224147D01*
X370077Y224208D01*
X370161Y224307D01*
X370253Y224399D01*
X370307Y224478D01*
X370369Y224550D01*
X370435Y224662D01*
X370509Y224769D01*
X370566Y224886D01*
X370597Y224939D01*
X370612Y224981D01*
X370646Y225050D01*
X370663Y225093D01*
X374093Y228523D01*
X378575Y230379D01*
X383425Y230379D01*
X387907Y228523D01*
X391336Y225093D01*
X391354Y225050D01*
X391414Y224935D01*
X391466Y224816D01*
X391518Y224736D01*
X391562Y224651D01*
X391642Y224548D01*
X391714Y224440D01*
X391780Y224371D01*
X391838Y224295D01*
X391935Y224208D01*
X392025Y224114D01*
X392101Y224058D01*
X392172Y223994D01*
X392283Y223925D01*
X392388Y223848D01*
X392474Y223806D01*
X392555Y223756D01*
X392675Y223708D01*
X392792Y223650D01*
X392884Y223624D01*
X392973Y223589D01*
X393100Y223563D01*
X393226Y223527D01*
X393321Y223518D01*
X393414Y223499D01*
X393544Y223496D01*
X393674Y223483D01*
X393769Y223490D01*
X393864Y223488D01*
X393993Y223508D01*
X394123Y223518D01*
X394215Y223542D01*
X394309Y223557D01*
X394432Y223599D01*
X394558Y223632D01*
X394645Y223672D01*
X394735Y223703D01*
X394849Y223767D01*
X394967Y223821D01*
X395045Y223876D01*
X395128Y223923D01*
X395229Y224005D01*
X395336Y224080D01*
X395403Y224147D01*
X395477Y224208D01*
X395561Y224307D01*
X395653Y224399D01*
X395707Y224478D01*
X395769Y224550D01*
X395835Y224662D01*
X395909Y224769D01*
X395966Y224886D01*
X395997Y224939D01*
X396012Y224981D01*
X396046Y225050D01*
X396063Y225093D01*
X399493Y228523D01*
X403975Y230379D01*
X408825Y230379D01*
X413307Y228523D01*
X416736Y225093D01*
X416754Y225050D01*
X416814Y224935D01*
X416866Y224816D01*
X416918Y224736D01*
X416962Y224651D01*
X417042Y224548D01*
X417114Y224440D01*
X417180Y224371D01*
X417238Y224295D01*
X417335Y224208D01*
X417425Y224114D01*
X417501Y224058D01*
X417572Y223994D01*
X417683Y223925D01*
X417788Y223848D01*
X417874Y223806D01*
X417955Y223756D01*
X418075Y223708D01*
X418192Y223650D01*
X418284Y223624D01*
X418373Y223589D01*
X418500Y223563D01*
X418626Y223527D01*
X418721Y223518D01*
X418814Y223499D01*
X418944Y223496D01*
X419074Y223483D01*
X419169Y223490D01*
X419264Y223488D01*
X419393Y223508D01*
X419523Y223518D01*
X419615Y223542D01*
X419709Y223557D01*
X419832Y223599D01*
X419958Y223632D01*
X420045Y223672D01*
X420135Y223703D01*
X420249Y223767D01*
X420367Y223821D01*
X420445Y223876D01*
X420528Y223923D01*
X420629Y224005D01*
X420736Y224080D01*
X420803Y224147D01*
X420877Y224208D01*
X420961Y224307D01*
X421053Y224399D01*
X421107Y224478D01*
X421169Y224550D01*
X421235Y224662D01*
X421309Y224769D01*
X421366Y224886D01*
X421397Y224939D01*
X421412Y224981D01*
X421446Y225050D01*
X421463Y225093D01*
X424893Y228523D01*
X429375Y230379D01*
X434225Y230379D01*
X438707Y228523D01*
X442136Y225093D01*
X442154Y225050D01*
X442214Y224935D01*
X442266Y224816D01*
X442318Y224736D01*
X442362Y224651D01*
X442442Y224548D01*
X442514Y224440D01*
X442580Y224371D01*
X442638Y224295D01*
X442735Y224208D01*
X442825Y224114D01*
X442901Y224058D01*
X442972Y223994D01*
X443083Y223925D01*
X443188Y223848D01*
X443274Y223806D01*
X443355Y223756D01*
X443475Y223708D01*
X443592Y223650D01*
X443684Y223624D01*
X443773Y223589D01*
X443900Y223563D01*
X444026Y223527D01*
X444121Y223518D01*
X444214Y223499D01*
X444344Y223496D01*
X444474Y223483D01*
X444569Y223490D01*
X444664Y223488D01*
X444793Y223508D01*
X444923Y223518D01*
X445015Y223542D01*
X445109Y223557D01*
X445232Y223599D01*
X445358Y223632D01*
X445445Y223672D01*
X445535Y223703D01*
X445649Y223767D01*
X445767Y223821D01*
X445845Y223876D01*
X445928Y223923D01*
X446029Y224005D01*
X446136Y224080D01*
X446203Y224147D01*
X446277Y224208D01*
X446361Y224307D01*
X446453Y224399D01*
X446507Y224478D01*
X446569Y224550D01*
X446635Y224662D01*
X446709Y224769D01*
X446766Y224886D01*
X446797Y224939D01*
X446812Y224981D01*
X446846Y225050D01*
X446863Y225093D01*
X450293Y228523D01*
X454775Y230379D01*
X459625Y230379D01*
X464107Y228523D01*
X467537Y225093D01*
X468914Y221767D01*
X468916Y221763D01*
X468917Y221759D01*
X469020Y221565D01*
X469122Y221368D01*
X469125Y221365D01*
X469127Y221361D01*
X469264Y221185D01*
X469398Y221012D01*
X469401Y221009D01*
X469404Y221006D01*
X469568Y220859D01*
X469732Y220710D01*
X469736Y220708D01*
X469740Y220705D01*
X469925Y220591D01*
X470115Y220473D01*
X470119Y220471D01*
X470123Y220469D01*
X470325Y220389D01*
X470533Y220306D01*
X470538Y220305D01*
X470542Y220303D01*
X470756Y220260D01*
X470974Y220216D01*
X470979Y220216D01*
X470983Y220215D01*
X471205Y220210D01*
X471424Y220205D01*
X471429Y220206D01*
X471433Y220206D01*
X471653Y220240D01*
X471869Y220274D01*
X471873Y220275D01*
X471878Y220276D01*
X472091Y220350D01*
X472295Y220420D01*
X472299Y220422D01*
X472303Y220424D01*
X472497Y220533D01*
X472688Y220640D01*
X472692Y220642D01*
X472696Y220645D01*
X472867Y220786D01*
X473037Y220925D01*
X473040Y220928D01*
X473043Y220931D01*
X473187Y221101D01*
X473329Y221267D01*
X473331Y221271D01*
X473334Y221274D01*
X473446Y221468D01*
X473557Y221656D01*
X473558Y221660D01*
X473560Y221664D01*
X473635Y221854D01*
X474344Y223245D01*
X475237Y224474D01*
X476312Y225549D01*
X477541Y226442D01*
X478895Y227132D01*
X480061Y227510D01*
X480061Y214630D01*
X480061Y201750D01*
X478895Y202128D01*
X477541Y202818D01*
X476312Y203711D01*
X475237Y204786D01*
X474344Y206015D01*
X473617Y207441D01*
X473585Y207516D01*
X473499Y207720D01*
X473496Y207723D01*
X473494Y207728D01*
X473371Y207914D01*
X473252Y208096D01*
X473249Y208099D01*
X473246Y208103D01*
X473093Y208263D01*
X472942Y208423D01*
X472938Y208426D01*
X472935Y208429D01*
X472760Y208557D01*
X472580Y208690D01*
X472576Y208692D01*
X472572Y208695D01*
X472375Y208791D01*
X472176Y208889D01*
X472172Y208891D01*
X472167Y208893D01*
X471955Y208953D01*
X471743Y209014D01*
X471739Y209014D01*
X471734Y209016D01*
X471513Y209038D01*
X471295Y209060D01*
X471291Y209060D01*
X471286Y209060D01*
X471063Y209043D01*
X470846Y209026D01*
X470842Y209025D01*
X470837Y209025D01*
X470625Y208969D01*
X470410Y208914D01*
X470406Y208912D01*
X470402Y208911D01*
X470205Y208820D01*
X470001Y208726D01*
X469997Y208724D01*
X469993Y208722D01*
X469814Y208597D01*
X469631Y208469D01*
X469628Y208466D01*
X469624Y208463D01*
X469471Y208309D01*
X469313Y208151D01*
X469310Y208147D01*
X469307Y208144D01*
X469179Y207959D01*
X469056Y207781D01*
X469054Y207777D01*
X469051Y207774D01*
X468914Y207493D01*
X467537Y204167D01*
X464107Y200737D01*
X459625Y198881D01*
X454775Y198881D01*
X450293Y200737D01*
X446863Y204167D01*
X446846Y204210D01*
X446786Y204325D01*
X446734Y204445D01*
X446682Y204524D01*
X446637Y204609D01*
X446558Y204712D01*
X446486Y204820D01*
X446420Y204889D01*
X446362Y204965D01*
X446265Y205052D01*
X446175Y205146D01*
X446098Y205202D01*
X446027Y205266D01*
X445917Y205335D01*
X445812Y205412D01*
X445726Y205454D01*
X445645Y205504D01*
X445524Y205552D01*
X445407Y205610D01*
X445316Y205636D01*
X445227Y205671D01*
X445099Y205697D01*
X444974Y205733D01*
X444879Y205742D01*
X444786Y205761D01*
X444656Y205764D01*
X444526Y205777D01*
X444431Y205770D01*
X444336Y205772D01*
X444207Y205752D01*
X444077Y205742D01*
X443985Y205718D01*
X443891Y205703D01*
X443767Y205661D01*
X443642Y205628D01*
X443555Y205588D01*
X443465Y205557D01*
X443351Y205493D01*
X443233Y205439D01*
X443155Y205384D01*
X443072Y205337D01*
X442971Y205255D01*
X442864Y205180D01*
X442797Y205113D01*
X442723Y205052D01*
X442639Y204953D01*
X442547Y204861D01*
X442493Y204782D01*
X442431Y204710D01*
X442365Y204597D01*
X442291Y204490D01*
X442234Y204374D01*
X442203Y204321D01*
X442188Y204279D01*
X442154Y204210D01*
X442136Y204167D01*
X438707Y200737D01*
X434225Y198881D01*
X429375Y198881D01*
X424893Y200737D01*
X421463Y204167D01*
X421446Y204210D01*
X421386Y204325D01*
X421334Y204445D01*
X421282Y204524D01*
X421237Y204609D01*
X421158Y204712D01*
X421086Y204820D01*
X421020Y204889D01*
X420962Y204965D01*
X420865Y205052D01*
X420775Y205146D01*
X420698Y205202D01*
X420627Y205266D01*
X420517Y205335D01*
X420412Y205412D01*
X420326Y205454D01*
X420245Y205504D01*
X420124Y205552D01*
X420007Y205610D01*
X419916Y205636D01*
X419827Y205671D01*
X419699Y205697D01*
X419574Y205733D01*
X419479Y205742D01*
X419386Y205761D01*
X419256Y205764D01*
X419126Y205777D01*
X419031Y205770D01*
X418936Y205772D01*
X418807Y205752D01*
X418677Y205742D01*
X418585Y205718D01*
X418491Y205703D01*
X418367Y205661D01*
X418242Y205628D01*
X418155Y205588D01*
X418065Y205557D01*
X417951Y205493D01*
X417833Y205439D01*
X417755Y205384D01*
X417672Y205337D01*
X417571Y205255D01*
X417464Y205180D01*
X417397Y205113D01*
X417323Y205052D01*
X417239Y204953D01*
X417147Y204861D01*
X417093Y204782D01*
X417031Y204710D01*
X416965Y204597D01*
X416891Y204490D01*
X416834Y204374D01*
X416803Y204321D01*
X416788Y204279D01*
X416754Y204210D01*
X416736Y204167D01*
X413307Y200737D01*
X408825Y198881D01*
X403975Y198881D01*
X399493Y200737D01*
X396063Y204167D01*
X396046Y204210D01*
X395986Y204325D01*
X395934Y204445D01*
X395882Y204524D01*
X395837Y204609D01*
X395758Y204712D01*
X395686Y204820D01*
X395620Y204889D01*
X395562Y204965D01*
X395465Y205052D01*
X395375Y205146D01*
X395298Y205202D01*
X395227Y205266D01*
X395117Y205335D01*
X395012Y205412D01*
X394926Y205454D01*
X394845Y205504D01*
X394724Y205552D01*
X394607Y205610D01*
X394516Y205636D01*
X394427Y205671D01*
X394299Y205697D01*
X394174Y205733D01*
X394079Y205742D01*
X393986Y205761D01*
X393856Y205764D01*
X393726Y205777D01*
X393631Y205770D01*
X393536Y205772D01*
X393407Y205752D01*
X393277Y205742D01*
X393185Y205718D01*
X393091Y205703D01*
X392967Y205661D01*
X392842Y205628D01*
X392755Y205588D01*
X392665Y205557D01*
X392551Y205493D01*
X392433Y205439D01*
X392355Y205384D01*
X392272Y205337D01*
X392171Y205255D01*
X392064Y205180D01*
X391997Y205113D01*
X391923Y205052D01*
X391839Y204953D01*
X391747Y204861D01*
X391693Y204782D01*
X391631Y204710D01*
X391565Y204597D01*
X391491Y204490D01*
X391434Y204374D01*
X391403Y204321D01*
X391388Y204279D01*
X391354Y204210D01*
X391336Y204167D01*
X387907Y200737D01*
X383425Y198881D01*
X378575Y198881D01*
X374093Y200737D01*
X370663Y204167D01*
X370646Y204210D01*
X370586Y204325D01*
X370534Y204445D01*
X370482Y204524D01*
X370437Y204609D01*
X370358Y204712D01*
X370286Y204820D01*
X370220Y204889D01*
X370162Y204965D01*
X370065Y205052D01*
X369975Y205146D01*
X369898Y205202D01*
X369827Y205266D01*
X369717Y205335D01*
X369612Y205412D01*
X369526Y205454D01*
X369445Y205504D01*
X369324Y205552D01*
X369207Y205610D01*
X369116Y205636D01*
X369027Y205671D01*
X368899Y205697D01*
X368774Y205733D01*
X368679Y205742D01*
X368586Y205761D01*
X368456Y205764D01*
X368326Y205777D01*
X368231Y205770D01*
X368136Y205772D01*
X368007Y205752D01*
X367877Y205742D01*
X367785Y205718D01*
X367691Y205703D01*
X367567Y205661D01*
X367442Y205628D01*
X367355Y205588D01*
X367265Y205557D01*
X367151Y205493D01*
X367033Y205439D01*
X366955Y205384D01*
X366872Y205337D01*
X366771Y205255D01*
X366664Y205180D01*
X366597Y205113D01*
X366523Y205052D01*
X366439Y204953D01*
X366347Y204861D01*
X366293Y204782D01*
X366231Y204710D01*
X366165Y204597D01*
X366091Y204490D01*
X366034Y204374D01*
X366003Y204321D01*
X365988Y204279D01*
X365954Y204210D01*
X365936Y204167D01*
X362507Y200737D01*
X358025Y198881D01*
X353175Y198881D01*
X348693Y200737D01*
X345263Y204167D01*
X345246Y204210D01*
X345186Y204325D01*
X345134Y204445D01*
X345082Y204524D01*
X345037Y204609D01*
X344958Y204712D01*
X344886Y204820D01*
X344820Y204889D01*
X344762Y204965D01*
X344665Y205052D01*
X344575Y205146D01*
X344498Y205202D01*
X344427Y205266D01*
X344317Y205335D01*
X344212Y205412D01*
X344126Y205454D01*
X344045Y205504D01*
X343924Y205552D01*
X343807Y205610D01*
X343716Y205636D01*
X343627Y205671D01*
X343499Y205697D01*
X343374Y205733D01*
X343279Y205742D01*
X343186Y205761D01*
X343056Y205764D01*
X342926Y205777D01*
X342831Y205770D01*
X342736Y205772D01*
X342607Y205752D01*
X342477Y205742D01*
X342385Y205718D01*
X342291Y205703D01*
X342167Y205661D01*
X342042Y205628D01*
X341955Y205588D01*
X341865Y205557D01*
X341751Y205493D01*
X341633Y205439D01*
X341555Y205384D01*
X341472Y205337D01*
X341371Y205255D01*
X341264Y205180D01*
X341197Y205113D01*
X341123Y205052D01*
X341039Y204953D01*
X340947Y204861D01*
X340893Y204782D01*
X340831Y204710D01*
X340765Y204597D01*
X340691Y204490D01*
X340634Y204374D01*
X340603Y204321D01*
X340588Y204279D01*
X340554Y204210D01*
X340536Y204167D01*
X337107Y200737D01*
X332625Y198881D01*
X327775Y198881D01*
X323293Y200737D01*
X319863Y204167D01*
X319846Y204210D01*
X319786Y204325D01*
X319734Y204445D01*
X319682Y204524D01*
X319637Y204609D01*
X319558Y204712D01*
X319486Y204820D01*
X319420Y204889D01*
X319362Y204965D01*
X319265Y205052D01*
X319175Y205146D01*
X319098Y205202D01*
X319027Y205266D01*
X318917Y205335D01*
X318812Y205412D01*
X318726Y205454D01*
X318645Y205504D01*
X318524Y205552D01*
X318407Y205610D01*
X318316Y205636D01*
X318227Y205671D01*
X318099Y205697D01*
X317974Y205733D01*
X317879Y205742D01*
X317786Y205761D01*
X317656Y205764D01*
X317526Y205777D01*
X317431Y205770D01*
X317336Y205772D01*
X317207Y205752D01*
X317077Y205742D01*
X316985Y205718D01*
X316891Y205703D01*
X316767Y205661D01*
X316642Y205628D01*
X316555Y205588D01*
X316465Y205557D01*
X316351Y205493D01*
X316233Y205439D01*
X316155Y205384D01*
X316072Y205337D01*
X315971Y205255D01*
X315864Y205180D01*
X315797Y205113D01*
X315723Y205052D01*
X315639Y204953D01*
X315547Y204861D01*
X315493Y204782D01*
X315431Y204710D01*
X315365Y204597D01*
X315291Y204490D01*
X315234Y204374D01*
X315203Y204321D01*
X315188Y204279D01*
X315154Y204210D01*
X315136Y204167D01*
X311707Y200737D01*
X307225Y198881D01*
X302375Y198881D01*
G37*
%LPD*%
%LPC*%
G36*
X148528Y167258D02*
X148528Y167258D01*
X143720Y169250D01*
X140040Y172930D01*
X138048Y177738D01*
X138048Y182942D01*
X140040Y187750D01*
X143782Y191492D01*
X143873Y191601D01*
X143908Y191637D01*
X143917Y191651D01*
X143999Y191739D01*
X144031Y191791D01*
X144070Y191837D01*
X144152Y191980D01*
X144240Y192119D01*
X144264Y192175D01*
X144294Y192228D01*
X144349Y192383D01*
X144411Y192535D01*
X144424Y192595D01*
X144445Y192652D01*
X144471Y192815D01*
X144506Y192975D01*
X144511Y193053D01*
X144518Y193097D01*
X144517Y193157D01*
X144525Y193287D01*
X144525Y311194D01*
X145531Y313621D01*
X196284Y364374D01*
X198711Y365380D01*
X215556Y365380D01*
X215720Y365394D01*
X215885Y365401D01*
X215944Y365414D01*
X216005Y365420D01*
X216164Y365463D01*
X216324Y365499D01*
X216380Y365522D01*
X216439Y365538D01*
X216588Y365609D01*
X216740Y365672D01*
X216791Y365705D01*
X216846Y365732D01*
X216980Y365827D01*
X217118Y365917D01*
X217176Y365968D01*
X217212Y365994D01*
X217255Y366037D01*
X217352Y366123D01*
X220771Y369542D01*
X225439Y371476D01*
X238111Y371476D01*
X242779Y369542D01*
X246352Y365969D01*
X248286Y361301D01*
X248286Y356249D01*
X246352Y351581D01*
X242779Y348008D01*
X240404Y347024D01*
X240377Y347010D01*
X240348Y347000D01*
X240178Y346906D01*
X240005Y346815D01*
X239981Y346797D01*
X239954Y346782D01*
X239803Y346659D01*
X239649Y346540D01*
X239629Y346517D01*
X239605Y346498D01*
X239478Y346350D01*
X239347Y346205D01*
X239331Y346180D01*
X239311Y346157D01*
X239212Y345989D01*
X239109Y345823D01*
X239098Y345795D01*
X239083Y345769D01*
X239015Y345586D01*
X238943Y345405D01*
X238937Y345375D01*
X238926Y345347D01*
X238892Y345155D01*
X238853Y344964D01*
X238852Y344933D01*
X238847Y344903D01*
X238847Y344709D01*
X238842Y344514D01*
X238846Y344483D01*
X238846Y344453D01*
X238881Y344261D01*
X238911Y344069D01*
X238921Y344040D01*
X238926Y344010D01*
X238994Y343826D01*
X239057Y343643D01*
X239072Y343616D01*
X239082Y343588D01*
X239182Y343420D01*
X239276Y343250D01*
X239296Y343226D01*
X239311Y343200D01*
X239438Y343052D01*
X239562Y342901D01*
X239585Y342881D01*
X239605Y342858D01*
X239756Y342735D01*
X239904Y342609D01*
X239930Y342593D01*
X239954Y342574D01*
X240223Y342415D01*
X240910Y342065D01*
X242204Y341125D01*
X243335Y339994D01*
X244275Y338700D01*
X245001Y337275D01*
X245444Y335914D01*
X231775Y335914D01*
X218106Y335914D01*
X218549Y337275D01*
X219275Y338700D01*
X220215Y339994D01*
X221346Y341125D01*
X222640Y342065D01*
X223327Y342415D01*
X223353Y342432D01*
X223381Y342444D01*
X223544Y342551D01*
X223708Y342655D01*
X223731Y342675D01*
X223756Y342692D01*
X223897Y342826D01*
X224042Y342957D01*
X224060Y342982D01*
X224082Y343002D01*
X224197Y343159D01*
X224316Y343314D01*
X224330Y343341D01*
X224348Y343366D01*
X224434Y343541D01*
X224523Y343714D01*
X224532Y343743D01*
X224546Y343770D01*
X224599Y343958D01*
X224657Y344144D01*
X224660Y344174D01*
X224669Y344204D01*
X224688Y344398D01*
X224712Y344591D01*
X224710Y344621D01*
X224713Y344652D01*
X224698Y344846D01*
X224687Y345041D01*
X224680Y345070D01*
X224678Y345101D01*
X224629Y345289D01*
X224584Y345479D01*
X224572Y345507D01*
X224564Y345536D01*
X224482Y345713D01*
X224405Y345892D01*
X224388Y345917D01*
X224375Y345945D01*
X224263Y346105D01*
X224155Y346267D01*
X224134Y346289D01*
X224117Y346314D01*
X223979Y346451D01*
X223843Y346592D01*
X223819Y346609D01*
X223797Y346631D01*
X223637Y346742D01*
X223479Y346856D01*
X223452Y346869D01*
X223427Y346887D01*
X223146Y347024D01*
X220771Y348008D01*
X217352Y351427D01*
X217226Y351532D01*
X217105Y351644D01*
X217053Y351676D01*
X217007Y351715D01*
X216864Y351797D01*
X216725Y351885D01*
X216669Y351909D01*
X216616Y351939D01*
X216461Y351994D01*
X216309Y352056D01*
X216249Y352069D01*
X216191Y352090D01*
X216029Y352116D01*
X215868Y352151D01*
X215791Y352156D01*
X215747Y352163D01*
X215686Y352162D01*
X215556Y352170D01*
X203813Y352170D01*
X203649Y352156D01*
X203484Y352149D01*
X203425Y352136D01*
X203364Y352130D01*
X203205Y352087D01*
X203045Y352051D01*
X202989Y352028D01*
X202930Y352012D01*
X202782Y351941D01*
X202629Y351878D01*
X202578Y351845D01*
X202523Y351818D01*
X202390Y351723D01*
X202251Y351633D01*
X202193Y351582D01*
X202157Y351556D01*
X202114Y351513D01*
X202017Y351427D01*
X158478Y307888D01*
X158373Y307762D01*
X158261Y307641D01*
X158229Y307589D01*
X158190Y307543D01*
X158108Y307400D01*
X158020Y307261D01*
X157996Y307205D01*
X157966Y307152D01*
X157911Y306997D01*
X157849Y306845D01*
X157836Y306785D01*
X157815Y306727D01*
X157789Y306565D01*
X157754Y306404D01*
X157749Y306327D01*
X157742Y306283D01*
X157743Y306222D01*
X157735Y306092D01*
X157735Y193287D01*
X157749Y193124D01*
X157756Y192959D01*
X157769Y192900D01*
X157775Y192839D01*
X157818Y192680D01*
X157854Y192520D01*
X157877Y192463D01*
X157893Y192405D01*
X157964Y192256D01*
X158027Y192104D01*
X158060Y192053D01*
X158087Y191998D01*
X158182Y191864D01*
X158272Y191726D01*
X158323Y191668D01*
X158349Y191632D01*
X158392Y191589D01*
X158438Y191537D01*
X158442Y191533D01*
X158445Y191530D01*
X158478Y191492D01*
X162220Y187750D01*
X162761Y186445D01*
X162799Y186372D01*
X162829Y186295D01*
X162903Y186172D01*
X162970Y186045D01*
X163020Y185980D01*
X163063Y185910D01*
X163158Y185803D01*
X163245Y185689D01*
X163306Y185634D01*
X163361Y185573D01*
X163473Y185484D01*
X163579Y185388D01*
X163650Y185344D01*
X163714Y185293D01*
X163840Y185226D01*
X163962Y185150D01*
X164038Y185119D01*
X164111Y185080D01*
X164247Y185036D01*
X164380Y184983D01*
X164461Y184967D01*
X164539Y184941D01*
X164681Y184922D01*
X164821Y184893D01*
X164904Y184891D01*
X164985Y184880D01*
X165128Y184886D01*
X165271Y184882D01*
X165353Y184895D01*
X165435Y184898D01*
X165575Y184929D01*
X165716Y184951D01*
X165794Y184978D01*
X165875Y184996D01*
X166007Y185051D01*
X166142Y185098D01*
X166214Y185138D01*
X166290Y185169D01*
X166410Y185247D01*
X166535Y185317D01*
X166599Y185369D01*
X166668Y185414D01*
X166853Y185577D01*
X166884Y185602D01*
X166891Y185610D01*
X166902Y185621D01*
X172163Y190882D01*
X173991Y190882D01*
X173991Y180340D01*
X173991Y169798D01*
X172163Y169798D01*
X166902Y175059D01*
X166839Y175112D01*
X166782Y175172D01*
X166667Y175256D01*
X166557Y175348D01*
X166486Y175389D01*
X166419Y175438D01*
X166290Y175501D01*
X166166Y175572D01*
X166089Y175599D01*
X166015Y175635D01*
X165877Y175674D01*
X165742Y175722D01*
X165661Y175736D01*
X165581Y175758D01*
X165439Y175772D01*
X165298Y175796D01*
X165215Y175795D01*
X165133Y175803D01*
X164991Y175792D01*
X164847Y175790D01*
X164766Y175774D01*
X164684Y175768D01*
X164546Y175731D01*
X164405Y175704D01*
X164328Y175674D01*
X164249Y175654D01*
X164119Y175594D01*
X163985Y175542D01*
X163915Y175499D01*
X163840Y175464D01*
X163723Y175382D01*
X163601Y175308D01*
X163539Y175253D01*
X163471Y175206D01*
X163371Y175105D01*
X163263Y175010D01*
X163212Y174945D01*
X163154Y174887D01*
X163073Y174769D01*
X162984Y174657D01*
X162945Y174584D01*
X162898Y174516D01*
X162790Y174295D01*
X162771Y174260D01*
X162768Y174250D01*
X162761Y174235D01*
X162220Y172930D01*
X158540Y169250D01*
X153732Y167258D01*
X148528Y167258D01*
G37*
%LPD*%
%LPC*%
G36*
X302375Y275081D02*
X302375Y275081D01*
X297893Y276937D01*
X294463Y280367D01*
X292607Y284849D01*
X292607Y296811D01*
X294463Y301293D01*
X297893Y304723D01*
X302375Y306579D01*
X307225Y306579D01*
X311707Y304723D01*
X315137Y301293D01*
X315154Y301250D01*
X315214Y301135D01*
X315266Y301015D01*
X315318Y300936D01*
X315363Y300851D01*
X315442Y300748D01*
X315514Y300640D01*
X315580Y300571D01*
X315638Y300495D01*
X315735Y300408D01*
X315825Y300314D01*
X315902Y300258D01*
X315973Y300194D01*
X316083Y300125D01*
X316188Y300048D01*
X316274Y300006D01*
X316355Y299956D01*
X316476Y299908D01*
X316593Y299850D01*
X316684Y299824D01*
X316773Y299789D01*
X316901Y299763D01*
X317026Y299727D01*
X317121Y299718D01*
X317214Y299699D01*
X317344Y299696D01*
X317474Y299683D01*
X317569Y299690D01*
X317664Y299688D01*
X317793Y299708D01*
X317923Y299718D01*
X318015Y299742D01*
X318109Y299757D01*
X318233Y299799D01*
X318358Y299832D01*
X318445Y299872D01*
X318535Y299903D01*
X318649Y299967D01*
X318767Y300021D01*
X318845Y300076D01*
X318928Y300123D01*
X319029Y300205D01*
X319136Y300280D01*
X319203Y300347D01*
X319277Y300408D01*
X319361Y300507D01*
X319453Y300599D01*
X319507Y300678D01*
X319569Y300750D01*
X319635Y300863D01*
X319709Y300970D01*
X319766Y301086D01*
X319797Y301139D01*
X319812Y301181D01*
X319846Y301250D01*
X319864Y301293D01*
X323293Y304723D01*
X327775Y306579D01*
X332625Y306579D01*
X337107Y304723D01*
X340537Y301293D01*
X340554Y301250D01*
X340614Y301135D01*
X340666Y301015D01*
X340718Y300936D01*
X340763Y300851D01*
X340842Y300748D01*
X340914Y300640D01*
X340980Y300571D01*
X341038Y300495D01*
X341135Y300408D01*
X341225Y300314D01*
X341302Y300258D01*
X341373Y300194D01*
X341483Y300125D01*
X341588Y300048D01*
X341674Y300006D01*
X341755Y299956D01*
X341876Y299908D01*
X341993Y299850D01*
X342084Y299824D01*
X342173Y299789D01*
X342301Y299763D01*
X342426Y299727D01*
X342521Y299718D01*
X342614Y299699D01*
X342744Y299696D01*
X342874Y299683D01*
X342969Y299690D01*
X343064Y299688D01*
X343193Y299708D01*
X343323Y299718D01*
X343415Y299742D01*
X343509Y299757D01*
X343633Y299799D01*
X343758Y299832D01*
X343845Y299872D01*
X343935Y299903D01*
X344049Y299967D01*
X344167Y300021D01*
X344245Y300076D01*
X344328Y300123D01*
X344429Y300205D01*
X344536Y300280D01*
X344603Y300347D01*
X344677Y300408D01*
X344761Y300507D01*
X344853Y300599D01*
X344907Y300678D01*
X344969Y300750D01*
X345035Y300863D01*
X345109Y300970D01*
X345166Y301086D01*
X345197Y301139D01*
X345212Y301181D01*
X345246Y301250D01*
X345264Y301293D01*
X348693Y304723D01*
X353175Y306579D01*
X358025Y306579D01*
X362507Y304723D01*
X365937Y301293D01*
X365954Y301250D01*
X366014Y301135D01*
X366066Y301015D01*
X366118Y300936D01*
X366163Y300851D01*
X366242Y300748D01*
X366314Y300640D01*
X366380Y300571D01*
X366438Y300495D01*
X366535Y300408D01*
X366625Y300314D01*
X366702Y300258D01*
X366773Y300194D01*
X366883Y300125D01*
X366988Y300048D01*
X367074Y300006D01*
X367155Y299956D01*
X367276Y299908D01*
X367393Y299850D01*
X367484Y299824D01*
X367573Y299789D01*
X367701Y299763D01*
X367826Y299727D01*
X367921Y299718D01*
X368014Y299699D01*
X368144Y299696D01*
X368274Y299683D01*
X368369Y299690D01*
X368464Y299688D01*
X368593Y299708D01*
X368723Y299718D01*
X368815Y299742D01*
X368909Y299757D01*
X369033Y299799D01*
X369158Y299832D01*
X369245Y299872D01*
X369335Y299903D01*
X369449Y299967D01*
X369567Y300021D01*
X369645Y300076D01*
X369728Y300123D01*
X369829Y300205D01*
X369936Y300280D01*
X370003Y300347D01*
X370077Y300408D01*
X370161Y300507D01*
X370253Y300599D01*
X370307Y300678D01*
X370369Y300750D01*
X370435Y300863D01*
X370509Y300970D01*
X370566Y301086D01*
X370597Y301139D01*
X370612Y301181D01*
X370646Y301250D01*
X370664Y301293D01*
X374093Y304723D01*
X378575Y306579D01*
X383425Y306579D01*
X387907Y304723D01*
X391337Y301293D01*
X391354Y301250D01*
X391414Y301135D01*
X391466Y301015D01*
X391518Y300936D01*
X391563Y300851D01*
X391642Y300748D01*
X391714Y300640D01*
X391780Y300571D01*
X391838Y300495D01*
X391935Y300408D01*
X392025Y300314D01*
X392102Y300258D01*
X392173Y300194D01*
X392283Y300125D01*
X392388Y300048D01*
X392474Y300006D01*
X392555Y299956D01*
X392676Y299908D01*
X392793Y299850D01*
X392884Y299824D01*
X392973Y299789D01*
X393101Y299763D01*
X393226Y299727D01*
X393321Y299718D01*
X393414Y299699D01*
X393544Y299696D01*
X393674Y299683D01*
X393769Y299690D01*
X393864Y299688D01*
X393993Y299708D01*
X394123Y299718D01*
X394215Y299742D01*
X394309Y299757D01*
X394433Y299799D01*
X394558Y299832D01*
X394645Y299872D01*
X394735Y299903D01*
X394849Y299967D01*
X394967Y300021D01*
X395045Y300076D01*
X395128Y300123D01*
X395229Y300205D01*
X395336Y300280D01*
X395403Y300347D01*
X395477Y300408D01*
X395561Y300507D01*
X395653Y300599D01*
X395707Y300678D01*
X395769Y300750D01*
X395835Y300863D01*
X395909Y300970D01*
X395966Y301086D01*
X395997Y301139D01*
X396012Y301181D01*
X396046Y301250D01*
X396064Y301293D01*
X399493Y304723D01*
X403975Y306579D01*
X408825Y306579D01*
X413307Y304723D01*
X416737Y301293D01*
X416754Y301250D01*
X416814Y301135D01*
X416866Y301015D01*
X416918Y300936D01*
X416963Y300851D01*
X417042Y300748D01*
X417114Y300640D01*
X417180Y300571D01*
X417238Y300495D01*
X417335Y300408D01*
X417425Y300314D01*
X417502Y300258D01*
X417573Y300194D01*
X417683Y300125D01*
X417788Y300048D01*
X417874Y300006D01*
X417955Y299956D01*
X418076Y299908D01*
X418193Y299850D01*
X418284Y299824D01*
X418373Y299789D01*
X418501Y299763D01*
X418626Y299727D01*
X418721Y299718D01*
X418814Y299699D01*
X418944Y299696D01*
X419074Y299683D01*
X419169Y299690D01*
X419264Y299688D01*
X419393Y299708D01*
X419523Y299718D01*
X419615Y299742D01*
X419709Y299757D01*
X419833Y299799D01*
X419958Y299832D01*
X420045Y299872D01*
X420135Y299903D01*
X420249Y299967D01*
X420367Y300021D01*
X420445Y300076D01*
X420528Y300123D01*
X420629Y300205D01*
X420736Y300280D01*
X420803Y300347D01*
X420877Y300408D01*
X420961Y300507D01*
X421053Y300599D01*
X421107Y300678D01*
X421169Y300750D01*
X421235Y300863D01*
X421309Y300970D01*
X421366Y301086D01*
X421397Y301139D01*
X421412Y301181D01*
X421446Y301250D01*
X421464Y301293D01*
X424893Y304723D01*
X429375Y306579D01*
X434225Y306579D01*
X438707Y304723D01*
X442137Y301293D01*
X443514Y297967D01*
X443516Y297963D01*
X443517Y297959D01*
X443622Y297761D01*
X443722Y297568D01*
X443725Y297564D01*
X443727Y297560D01*
X443864Y297385D01*
X443998Y297212D01*
X444002Y297209D01*
X444004Y297205D01*
X444168Y297059D01*
X444332Y296910D01*
X444336Y296908D01*
X444340Y296905D01*
X444526Y296790D01*
X444715Y296673D01*
X444719Y296671D01*
X444723Y296668D01*
X444927Y296588D01*
X445133Y296506D01*
X445138Y296505D01*
X445142Y296503D01*
X445355Y296461D01*
X445574Y296416D01*
X445579Y296416D01*
X445583Y296415D01*
X445800Y296410D01*
X446024Y296405D01*
X446029Y296406D01*
X446033Y296406D01*
X446248Y296440D01*
X446469Y296474D01*
X446474Y296475D01*
X446478Y296476D01*
X446685Y296548D01*
X446895Y296620D01*
X446899Y296622D01*
X446903Y296624D01*
X447096Y296732D01*
X447288Y296839D01*
X447292Y296842D01*
X447296Y296845D01*
X447468Y296987D01*
X447637Y297125D01*
X447640Y297128D01*
X447643Y297131D01*
X447788Y297302D01*
X447929Y297467D01*
X447931Y297471D01*
X447934Y297475D01*
X448048Y297670D01*
X448157Y297856D01*
X448158Y297860D01*
X448160Y297864D01*
X448235Y298054D01*
X448944Y299445D01*
X449837Y300674D01*
X450912Y301749D01*
X452141Y302642D01*
X453495Y303332D01*
X454661Y303710D01*
X454661Y290830D01*
X454661Y277950D01*
X453495Y278328D01*
X452141Y279018D01*
X450912Y279911D01*
X449837Y280986D01*
X448944Y282215D01*
X448218Y283641D01*
X448185Y283716D01*
X448099Y283919D01*
X448096Y283923D01*
X448094Y283928D01*
X447970Y284115D01*
X447852Y284296D01*
X447849Y284299D01*
X447846Y284303D01*
X447695Y284461D01*
X447542Y284623D01*
X447539Y284626D01*
X447535Y284629D01*
X447361Y284757D01*
X447180Y284890D01*
X447176Y284892D01*
X447172Y284895D01*
X446978Y284990D01*
X446776Y285089D01*
X446772Y285091D01*
X446767Y285093D01*
X446558Y285152D01*
X446343Y285214D01*
X446339Y285214D01*
X446334Y285216D01*
X446114Y285238D01*
X445895Y285260D01*
X445891Y285260D01*
X445886Y285260D01*
X445663Y285243D01*
X445446Y285226D01*
X445442Y285225D01*
X445437Y285225D01*
X445225Y285169D01*
X445010Y285114D01*
X445006Y285112D01*
X445002Y285111D01*
X444805Y285020D01*
X444601Y284926D01*
X444597Y284924D01*
X444593Y284922D01*
X444412Y284795D01*
X444231Y284669D01*
X444228Y284666D01*
X444224Y284664D01*
X444069Y284507D01*
X443913Y284351D01*
X443910Y284347D01*
X443907Y284344D01*
X443782Y284163D01*
X443656Y283982D01*
X443654Y283977D01*
X443651Y283974D01*
X443514Y283693D01*
X442137Y280367D01*
X438707Y276937D01*
X434225Y275081D01*
X429375Y275081D01*
X424893Y276937D01*
X421464Y280367D01*
X421446Y280410D01*
X421386Y280525D01*
X421334Y280644D01*
X421282Y280724D01*
X421238Y280809D01*
X421158Y280912D01*
X421086Y281020D01*
X421020Y281089D01*
X420962Y281165D01*
X420865Y281252D01*
X420775Y281346D01*
X420699Y281402D01*
X420628Y281466D01*
X420517Y281535D01*
X420412Y281612D01*
X420326Y281654D01*
X420245Y281704D01*
X420125Y281752D01*
X420008Y281810D01*
X419916Y281836D01*
X419827Y281871D01*
X419700Y281897D01*
X419574Y281933D01*
X419479Y281942D01*
X419386Y281961D01*
X419256Y281964D01*
X419126Y281977D01*
X419031Y281970D01*
X418936Y281972D01*
X418807Y281952D01*
X418677Y281942D01*
X418585Y281918D01*
X418491Y281903D01*
X418368Y281861D01*
X418242Y281828D01*
X418155Y281788D01*
X418065Y281757D01*
X417951Y281693D01*
X417833Y281639D01*
X417755Y281584D01*
X417672Y281537D01*
X417571Y281455D01*
X417464Y281380D01*
X417397Y281313D01*
X417323Y281252D01*
X417239Y281153D01*
X417147Y281061D01*
X417093Y280982D01*
X417031Y280910D01*
X416965Y280798D01*
X416891Y280691D01*
X416834Y280574D01*
X416803Y280521D01*
X416788Y280479D01*
X416754Y280410D01*
X416737Y280367D01*
X413307Y276937D01*
X408825Y275081D01*
X403975Y275081D01*
X399493Y276937D01*
X396064Y280367D01*
X396046Y280410D01*
X395986Y280525D01*
X395934Y280644D01*
X395882Y280724D01*
X395838Y280809D01*
X395758Y280912D01*
X395686Y281020D01*
X395620Y281089D01*
X395562Y281165D01*
X395465Y281252D01*
X395375Y281346D01*
X395299Y281402D01*
X395228Y281466D01*
X395117Y281535D01*
X395012Y281612D01*
X394926Y281654D01*
X394845Y281704D01*
X394725Y281752D01*
X394608Y281810D01*
X394516Y281836D01*
X394427Y281871D01*
X394300Y281897D01*
X394174Y281933D01*
X394079Y281942D01*
X393986Y281961D01*
X393856Y281964D01*
X393726Y281977D01*
X393631Y281970D01*
X393536Y281972D01*
X393407Y281952D01*
X393277Y281942D01*
X393185Y281918D01*
X393091Y281903D01*
X392968Y281861D01*
X392842Y281828D01*
X392755Y281788D01*
X392665Y281757D01*
X392551Y281693D01*
X392433Y281639D01*
X392355Y281584D01*
X392272Y281537D01*
X392171Y281455D01*
X392064Y281380D01*
X391997Y281313D01*
X391923Y281252D01*
X391839Y281153D01*
X391747Y281061D01*
X391693Y280982D01*
X391631Y280910D01*
X391565Y280798D01*
X391491Y280691D01*
X391434Y280574D01*
X391403Y280521D01*
X391388Y280479D01*
X391354Y280410D01*
X391337Y280367D01*
X387907Y276937D01*
X383425Y275081D01*
X378575Y275081D01*
X374093Y276937D01*
X370664Y280367D01*
X370646Y280410D01*
X370586Y280525D01*
X370534Y280644D01*
X370482Y280724D01*
X370438Y280809D01*
X370358Y280912D01*
X370286Y281020D01*
X370220Y281089D01*
X370162Y281165D01*
X370065Y281252D01*
X369975Y281346D01*
X369899Y281402D01*
X369828Y281466D01*
X369717Y281535D01*
X369612Y281612D01*
X369526Y281654D01*
X369445Y281704D01*
X369325Y281752D01*
X369208Y281810D01*
X369116Y281836D01*
X369027Y281871D01*
X368900Y281897D01*
X368774Y281933D01*
X368679Y281942D01*
X368586Y281961D01*
X368456Y281964D01*
X368326Y281977D01*
X368231Y281970D01*
X368136Y281972D01*
X368007Y281952D01*
X367877Y281942D01*
X367785Y281918D01*
X367691Y281903D01*
X367568Y281861D01*
X367442Y281828D01*
X367355Y281788D01*
X367265Y281757D01*
X367151Y281693D01*
X367033Y281639D01*
X366955Y281584D01*
X366872Y281537D01*
X366771Y281455D01*
X366664Y281380D01*
X366597Y281313D01*
X366523Y281252D01*
X366439Y281153D01*
X366347Y281061D01*
X366293Y280982D01*
X366231Y280910D01*
X366165Y280798D01*
X366091Y280691D01*
X366034Y280574D01*
X366003Y280521D01*
X365988Y280479D01*
X365954Y280410D01*
X365937Y280367D01*
X362507Y276937D01*
X358025Y275081D01*
X353175Y275081D01*
X348693Y276937D01*
X345264Y280367D01*
X345246Y280410D01*
X345186Y280525D01*
X345134Y280644D01*
X345082Y280724D01*
X345038Y280809D01*
X344958Y280912D01*
X344886Y281020D01*
X344820Y281089D01*
X344762Y281165D01*
X344665Y281252D01*
X344575Y281346D01*
X344499Y281402D01*
X344428Y281466D01*
X344317Y281535D01*
X344212Y281612D01*
X344126Y281654D01*
X344045Y281704D01*
X343925Y281752D01*
X343808Y281810D01*
X343716Y281836D01*
X343627Y281871D01*
X343500Y281897D01*
X343374Y281933D01*
X343279Y281942D01*
X343186Y281961D01*
X343056Y281964D01*
X342926Y281977D01*
X342831Y281970D01*
X342736Y281972D01*
X342607Y281952D01*
X342477Y281942D01*
X342385Y281918D01*
X342291Y281903D01*
X342168Y281861D01*
X342042Y281828D01*
X341955Y281788D01*
X341865Y281757D01*
X341751Y281693D01*
X341633Y281639D01*
X341555Y281584D01*
X341472Y281537D01*
X341371Y281455D01*
X341264Y281380D01*
X341197Y281313D01*
X341123Y281252D01*
X341039Y281153D01*
X340947Y281061D01*
X340893Y280982D01*
X340831Y280910D01*
X340765Y280798D01*
X340691Y280691D01*
X340634Y280574D01*
X340603Y280521D01*
X340588Y280479D01*
X340554Y280410D01*
X340537Y280367D01*
X337107Y276937D01*
X332625Y275081D01*
X327775Y275081D01*
X323293Y276937D01*
X319864Y280367D01*
X319846Y280410D01*
X319786Y280525D01*
X319734Y280644D01*
X319682Y280724D01*
X319638Y280809D01*
X319558Y280912D01*
X319486Y281020D01*
X319420Y281089D01*
X319362Y281165D01*
X319265Y281252D01*
X319175Y281346D01*
X319099Y281402D01*
X319028Y281466D01*
X318917Y281535D01*
X318812Y281612D01*
X318726Y281654D01*
X318645Y281704D01*
X318525Y281752D01*
X318408Y281810D01*
X318316Y281836D01*
X318227Y281871D01*
X318100Y281897D01*
X317974Y281933D01*
X317879Y281942D01*
X317786Y281961D01*
X317656Y281964D01*
X317526Y281977D01*
X317431Y281970D01*
X317336Y281972D01*
X317207Y281952D01*
X317077Y281942D01*
X316985Y281918D01*
X316891Y281903D01*
X316768Y281861D01*
X316642Y281828D01*
X316555Y281788D01*
X316465Y281757D01*
X316351Y281693D01*
X316233Y281639D01*
X316155Y281584D01*
X316072Y281537D01*
X315971Y281455D01*
X315864Y281380D01*
X315797Y281313D01*
X315723Y281252D01*
X315639Y281153D01*
X315547Y281061D01*
X315493Y280982D01*
X315431Y280910D01*
X315365Y280798D01*
X315291Y280691D01*
X315234Y280574D01*
X315203Y280521D01*
X315188Y280479D01*
X315154Y280410D01*
X315137Y280367D01*
X311707Y276937D01*
X307225Y275081D01*
X302375Y275081D01*
G37*
%LPD*%
%LPC*%
G36*
X106451Y57977D02*
X106451Y57977D01*
X91759Y72669D01*
X91759Y93447D01*
X106451Y108139D01*
X127229Y108139D01*
X140976Y94391D01*
X141003Y94369D01*
X141026Y94343D01*
X141175Y94225D01*
X141322Y94102D01*
X141352Y94085D01*
X141379Y94064D01*
X141547Y93974D01*
X141712Y93879D01*
X141745Y93867D01*
X141776Y93851D01*
X141957Y93792D01*
X142137Y93728D01*
X142171Y93723D01*
X142204Y93712D01*
X142393Y93686D01*
X142581Y93655D01*
X142616Y93655D01*
X142650Y93651D01*
X142840Y93658D01*
X143031Y93661D01*
X143065Y93667D01*
X143100Y93669D01*
X143286Y93710D01*
X143473Y93746D01*
X143506Y93759D01*
X143539Y93766D01*
X143715Y93840D01*
X143893Y93909D01*
X143923Y93927D01*
X143955Y93940D01*
X144115Y94043D01*
X144278Y94143D01*
X144304Y94166D01*
X144333Y94184D01*
X144567Y94391D01*
X145409Y95233D01*
X150357Y97283D01*
X155713Y97283D01*
X160661Y95233D01*
X164448Y91446D01*
X166498Y86498D01*
X166498Y81142D01*
X164448Y76194D01*
X160661Y72407D01*
X155713Y70357D01*
X150357Y70357D01*
X145409Y72407D01*
X145329Y72487D01*
X145303Y72509D01*
X145280Y72535D01*
X145131Y72653D01*
X144984Y72776D01*
X144954Y72793D01*
X144927Y72814D01*
X144759Y72904D01*
X144593Y72999D01*
X144560Y73011D01*
X144530Y73027D01*
X144349Y73086D01*
X144169Y73150D01*
X144134Y73155D01*
X144101Y73166D01*
X143912Y73192D01*
X143724Y73223D01*
X143690Y73223D01*
X143655Y73227D01*
X143464Y73220D01*
X143274Y73217D01*
X143240Y73211D01*
X143206Y73209D01*
X143020Y73168D01*
X142832Y73132D01*
X142800Y73119D01*
X142766Y73112D01*
X142590Y73038D01*
X142412Y72969D01*
X142383Y72951D01*
X142351Y72938D01*
X142190Y72834D01*
X142027Y72735D01*
X142001Y72712D01*
X141972Y72694D01*
X141738Y72487D01*
X127229Y57977D01*
X106451Y57977D01*
G37*
%LPD*%
%LPC*%
G36*
X47559Y60517D02*
X47559Y60517D01*
X34355Y73721D01*
X34355Y79809D01*
X40957Y79809D01*
X41168Y79827D01*
X41380Y79844D01*
X41392Y79847D01*
X41406Y79849D01*
X41610Y79904D01*
X41815Y79958D01*
X41827Y79964D01*
X41840Y79967D01*
X42030Y80058D01*
X42224Y80147D01*
X42235Y80155D01*
X42247Y80161D01*
X42418Y80283D01*
X42593Y80406D01*
X42602Y80415D01*
X42613Y80423D01*
X42760Y80575D01*
X42910Y80725D01*
X42917Y80736D01*
X42927Y80745D01*
X43045Y80920D01*
X43166Y81095D01*
X43173Y81110D01*
X43179Y81118D01*
X43195Y81154D01*
X43303Y81376D01*
X43597Y82086D01*
X43646Y82243D01*
X43703Y82398D01*
X43714Y82458D01*
X43732Y82516D01*
X43753Y82679D01*
X43781Y82841D01*
X43781Y82902D01*
X43789Y82963D01*
X43780Y83127D01*
X43780Y83291D01*
X43769Y83351D01*
X43766Y83412D01*
X43728Y83573D01*
X43699Y83734D01*
X43674Y83807D01*
X43664Y83851D01*
X43639Y83907D01*
X43597Y84030D01*
X43303Y84740D01*
X43205Y84927D01*
X43109Y85117D01*
X43101Y85127D01*
X43095Y85139D01*
X42964Y85307D01*
X42837Y85475D01*
X42827Y85484D01*
X42819Y85495D01*
X42661Y85637D01*
X42506Y85781D01*
X42494Y85788D01*
X42485Y85796D01*
X42305Y85909D01*
X42126Y86022D01*
X42114Y86027D01*
X42102Y86034D01*
X41906Y86113D01*
X41709Y86193D01*
X41696Y86196D01*
X41684Y86201D01*
X41477Y86243D01*
X41269Y86288D01*
X41253Y86289D01*
X41243Y86291D01*
X41203Y86292D01*
X40957Y86307D01*
X34355Y86307D01*
X34355Y92395D01*
X47559Y105599D01*
X55545Y105599D01*
X55620Y105583D01*
X55806Y105537D01*
X55840Y105535D01*
X55874Y105528D01*
X56186Y105509D01*
X57606Y105509D01*
X57641Y105512D01*
X57675Y105510D01*
X57864Y105532D01*
X58055Y105549D01*
X58088Y105558D01*
X58122Y105562D01*
X58245Y105599D01*
X66233Y105599D01*
X79437Y92395D01*
X79437Y86307D01*
X72835Y86307D01*
X72624Y86288D01*
X72412Y86272D01*
X72400Y86269D01*
X72386Y86267D01*
X72181Y86211D01*
X71977Y86158D01*
X71965Y86152D01*
X71952Y86149D01*
X71762Y86059D01*
X71568Y85969D01*
X71557Y85961D01*
X71545Y85955D01*
X71374Y85833D01*
X71199Y85710D01*
X71190Y85701D01*
X71179Y85693D01*
X71031Y85541D01*
X70882Y85391D01*
X70875Y85380D01*
X70865Y85371D01*
X70746Y85194D01*
X70626Y85021D01*
X70619Y85006D01*
X70613Y84998D01*
X70597Y84961D01*
X70489Y84740D01*
X70195Y84030D01*
X70146Y83873D01*
X70089Y83718D01*
X70078Y83658D01*
X70060Y83600D01*
X70039Y83437D01*
X70011Y83275D01*
X70011Y83214D01*
X70003Y83153D01*
X70012Y82989D01*
X70012Y82825D01*
X70023Y82765D01*
X70026Y82704D01*
X70064Y82543D01*
X70093Y82382D01*
X70118Y82309D01*
X70129Y82265D01*
X70153Y82209D01*
X70195Y82086D01*
X70489Y81376D01*
X70587Y81189D01*
X70683Y80999D01*
X70691Y80989D01*
X70698Y80977D01*
X70827Y80810D01*
X70955Y80641D01*
X70965Y80632D01*
X70973Y80621D01*
X71130Y80479D01*
X71287Y80335D01*
X71298Y80328D01*
X71308Y80319D01*
X71487Y80208D01*
X71666Y80094D01*
X71679Y80089D01*
X71690Y80082D01*
X71886Y80003D01*
X72083Y79923D01*
X72096Y79920D01*
X72108Y79915D01*
X72315Y79873D01*
X72523Y79828D01*
X72539Y79827D01*
X72549Y79825D01*
X72588Y79824D01*
X72835Y79809D01*
X79437Y79809D01*
X79437Y73721D01*
X66233Y60517D01*
X58247Y60517D01*
X58171Y60533D01*
X57986Y60579D01*
X57952Y60581D01*
X57918Y60588D01*
X57606Y60607D01*
X56186Y60607D01*
X56151Y60604D01*
X56117Y60606D01*
X55928Y60584D01*
X55737Y60567D01*
X55704Y60558D01*
X55670Y60554D01*
X55547Y60517D01*
X47559Y60517D01*
G37*
%LPD*%
%LPC*%
G36*
X251957Y70357D02*
X251957Y70357D01*
X247009Y72407D01*
X243222Y76194D01*
X241172Y81142D01*
X241172Y86498D01*
X243222Y91446D01*
X247009Y95233D01*
X251957Y97283D01*
X257313Y97283D01*
X262261Y95233D01*
X266048Y91446D01*
X268098Y86498D01*
X268098Y81142D01*
X266048Y76194D01*
X262261Y72407D01*
X257313Y70357D01*
X251957Y70357D01*
G37*
%LPD*%
%LPC*%
G36*
X456805Y371855D02*
X456805Y371855D01*
X449884Y378776D01*
X449861Y378894D01*
X449827Y378983D01*
X449802Y379075D01*
X449746Y379192D01*
X449699Y379314D01*
X449649Y379396D01*
X449608Y379482D01*
X449533Y379587D01*
X449465Y379699D01*
X449402Y379770D01*
X449346Y379848D01*
X449253Y379939D01*
X449167Y380036D01*
X449092Y380095D01*
X449024Y380162D01*
X448916Y380235D01*
X448814Y380315D01*
X448730Y380361D01*
X448651Y380414D01*
X448532Y380467D01*
X448417Y380528D01*
X448326Y380558D01*
X448239Y380596D01*
X448112Y380627D01*
X447989Y380667D01*
X447894Y380680D01*
X447801Y380703D01*
X447672Y380711D01*
X447543Y380729D01*
X447447Y380725D01*
X447352Y380731D01*
X447223Y380716D01*
X447093Y380710D01*
X447000Y380690D01*
X446905Y380679D01*
X446780Y380641D01*
X446653Y380613D01*
X446565Y380576D01*
X446474Y380548D01*
X446358Y380489D01*
X446238Y380439D01*
X446158Y380387D01*
X446072Y380344D01*
X445969Y380265D01*
X445860Y380195D01*
X445762Y380109D01*
X445714Y380072D01*
X445683Y380039D01*
X445625Y379988D01*
X440033Y374395D01*
X438784Y374395D01*
X438784Y383540D01*
X438784Y392685D01*
X440033Y392685D01*
X445625Y387092D01*
X445725Y387009D01*
X445818Y386918D01*
X445898Y386864D01*
X445971Y386803D01*
X446084Y386739D01*
X446191Y386666D01*
X446279Y386627D01*
X446362Y386580D01*
X446484Y386536D01*
X446603Y386484D01*
X446696Y386461D01*
X446786Y386429D01*
X446914Y386408D01*
X447041Y386377D01*
X447136Y386371D01*
X447230Y386356D01*
X447360Y386357D01*
X447490Y386349D01*
X447585Y386360D01*
X447681Y386362D01*
X447808Y386386D01*
X447937Y386401D01*
X448029Y386429D01*
X448123Y386447D01*
X448244Y386494D01*
X448368Y386532D01*
X448453Y386575D01*
X448543Y386609D01*
X448654Y386677D01*
X448770Y386736D01*
X448846Y386794D01*
X448927Y386843D01*
X449025Y386930D01*
X449128Y387008D01*
X449193Y387078D01*
X449265Y387142D01*
X449345Y387244D01*
X449434Y387339D01*
X449485Y387420D01*
X449544Y387495D01*
X449605Y387609D01*
X449675Y387719D01*
X449712Y387807D01*
X449757Y387892D01*
X449797Y388015D01*
X449846Y388136D01*
X449866Y388229D01*
X449894Y388314D01*
X456805Y395225D01*
X466485Y395225D01*
X473330Y388380D01*
X473330Y378700D01*
X466485Y371855D01*
X456805Y371855D01*
G37*
%LPD*%
%LPC*%
G36*
X38975Y486155D02*
X38975Y486155D01*
X32054Y493076D01*
X32031Y493194D01*
X31997Y493283D01*
X31972Y493375D01*
X31916Y493492D01*
X31869Y493614D01*
X31819Y493696D01*
X31778Y493782D01*
X31703Y493887D01*
X31635Y493999D01*
X31572Y494070D01*
X31516Y494148D01*
X31423Y494239D01*
X31337Y494336D01*
X31262Y494395D01*
X31194Y494462D01*
X31086Y494535D01*
X30984Y494615D01*
X30900Y494661D01*
X30821Y494714D01*
X30702Y494767D01*
X30587Y494828D01*
X30496Y494858D01*
X30409Y494896D01*
X30282Y494927D01*
X30159Y494967D01*
X30064Y494980D01*
X29971Y495003D01*
X29842Y495011D01*
X29713Y495029D01*
X29617Y495025D01*
X29522Y495031D01*
X29393Y495016D01*
X29263Y495010D01*
X29170Y494990D01*
X29075Y494979D01*
X28950Y494941D01*
X28823Y494913D01*
X28735Y494876D01*
X28644Y494848D01*
X28528Y494789D01*
X28408Y494739D01*
X28328Y494687D01*
X28242Y494644D01*
X28139Y494565D01*
X28030Y494495D01*
X27932Y494409D01*
X27884Y494372D01*
X27853Y494339D01*
X27795Y494288D01*
X22203Y488695D01*
X20954Y488695D01*
X20954Y497840D01*
X20954Y506985D01*
X22203Y506985D01*
X27795Y501392D01*
X27895Y501309D01*
X27988Y501218D01*
X28068Y501164D01*
X28141Y501103D01*
X28254Y501039D01*
X28361Y500966D01*
X28449Y500927D01*
X28532Y500880D01*
X28654Y500836D01*
X28773Y500784D01*
X28866Y500761D01*
X28956Y500729D01*
X29084Y500708D01*
X29211Y500677D01*
X29306Y500671D01*
X29400Y500656D01*
X29530Y500657D01*
X29660Y500649D01*
X29755Y500660D01*
X29851Y500662D01*
X29978Y500686D01*
X30107Y500701D01*
X30199Y500729D01*
X30293Y500747D01*
X30414Y500794D01*
X30538Y500832D01*
X30623Y500875D01*
X30713Y500909D01*
X30824Y500977D01*
X30940Y501036D01*
X31016Y501094D01*
X31097Y501143D01*
X31195Y501230D01*
X31298Y501308D01*
X31363Y501378D01*
X31435Y501442D01*
X31515Y501544D01*
X31604Y501639D01*
X31655Y501720D01*
X31714Y501795D01*
X31775Y501909D01*
X31845Y502019D01*
X31882Y502107D01*
X31927Y502192D01*
X31967Y502315D01*
X32016Y502436D01*
X32036Y502529D01*
X32064Y502614D01*
X38975Y509525D01*
X48655Y509525D01*
X55500Y502680D01*
X55500Y493000D01*
X48655Y486155D01*
X38975Y486155D01*
G37*
%LPD*%
%LPC*%
G36*
X62470Y219455D02*
X62470Y219455D01*
X55549Y226376D01*
X55526Y226494D01*
X55492Y226583D01*
X55467Y226675D01*
X55411Y226792D01*
X55364Y226914D01*
X55314Y226996D01*
X55273Y227082D01*
X55198Y227187D01*
X55130Y227299D01*
X55067Y227370D01*
X55011Y227448D01*
X54918Y227539D01*
X54832Y227636D01*
X54757Y227695D01*
X54689Y227762D01*
X54581Y227835D01*
X54479Y227915D01*
X54395Y227961D01*
X54316Y228014D01*
X54197Y228067D01*
X54082Y228128D01*
X53991Y228158D01*
X53904Y228196D01*
X53777Y228227D01*
X53654Y228267D01*
X53559Y228280D01*
X53466Y228303D01*
X53337Y228311D01*
X53208Y228329D01*
X53112Y228325D01*
X53017Y228331D01*
X52888Y228316D01*
X52758Y228310D01*
X52665Y228290D01*
X52570Y228279D01*
X52445Y228241D01*
X52318Y228213D01*
X52230Y228176D01*
X52139Y228148D01*
X52023Y228089D01*
X51903Y228039D01*
X51823Y227987D01*
X51737Y227944D01*
X51634Y227865D01*
X51525Y227795D01*
X51427Y227709D01*
X51379Y227672D01*
X51348Y227639D01*
X51290Y227588D01*
X45698Y221995D01*
X44449Y221995D01*
X44449Y231140D01*
X44449Y240285D01*
X45698Y240285D01*
X51290Y234692D01*
X51390Y234609D01*
X51483Y234518D01*
X51563Y234464D01*
X51636Y234403D01*
X51749Y234339D01*
X51856Y234266D01*
X51944Y234227D01*
X52027Y234180D01*
X52149Y234136D01*
X52268Y234084D01*
X52361Y234061D01*
X52451Y234029D01*
X52579Y234008D01*
X52706Y233977D01*
X52801Y233971D01*
X52895Y233956D01*
X53025Y233957D01*
X53155Y233949D01*
X53250Y233960D01*
X53346Y233962D01*
X53473Y233986D01*
X53602Y234001D01*
X53694Y234029D01*
X53788Y234047D01*
X53909Y234094D01*
X54033Y234132D01*
X54118Y234175D01*
X54208Y234209D01*
X54319Y234277D01*
X54435Y234336D01*
X54511Y234394D01*
X54592Y234443D01*
X54690Y234530D01*
X54793Y234608D01*
X54858Y234678D01*
X54930Y234742D01*
X55010Y234844D01*
X55099Y234939D01*
X55150Y235020D01*
X55209Y235095D01*
X55270Y235209D01*
X55340Y235319D01*
X55377Y235407D01*
X55422Y235492D01*
X55462Y235615D01*
X55511Y235736D01*
X55531Y235829D01*
X55559Y235914D01*
X62470Y242825D01*
X72150Y242825D01*
X78995Y235980D01*
X78995Y226300D01*
X72150Y219455D01*
X62470Y219455D01*
G37*
%LPD*%
%LPC*%
G36*
X378700Y371855D02*
X378700Y371855D01*
X371855Y378700D01*
X371855Y388380D01*
X378700Y395225D01*
X388380Y395225D01*
X395301Y388304D01*
X395324Y388186D01*
X395358Y388097D01*
X395383Y388005D01*
X395439Y387888D01*
X395486Y387766D01*
X395536Y387684D01*
X395577Y387598D01*
X395652Y387493D01*
X395720Y387381D01*
X395783Y387310D01*
X395839Y387232D01*
X395932Y387141D01*
X396018Y387044D01*
X396093Y386985D01*
X396161Y386918D01*
X396269Y386845D01*
X396371Y386765D01*
X396455Y386719D01*
X396534Y386666D01*
X396653Y386613D01*
X396768Y386552D01*
X396859Y386522D01*
X396946Y386484D01*
X397073Y386453D01*
X397196Y386413D01*
X397291Y386400D01*
X397384Y386377D01*
X397513Y386369D01*
X397642Y386351D01*
X397738Y386355D01*
X397833Y386349D01*
X397962Y386364D01*
X398092Y386370D01*
X398185Y386390D01*
X398280Y386401D01*
X398405Y386439D01*
X398532Y386467D01*
X398620Y386504D01*
X398711Y386532D01*
X398827Y386591D01*
X398947Y386641D01*
X399027Y386693D01*
X399113Y386736D01*
X399216Y386815D01*
X399325Y386885D01*
X399423Y386971D01*
X399471Y387008D01*
X399502Y387041D01*
X399560Y387092D01*
X405152Y392685D01*
X406401Y392685D01*
X406401Y383540D01*
X406401Y374395D01*
X405152Y374395D01*
X399560Y379988D01*
X399460Y380071D01*
X399367Y380162D01*
X399287Y380216D01*
X399214Y380277D01*
X399101Y380341D01*
X398994Y380414D01*
X398906Y380453D01*
X398823Y380500D01*
X398701Y380544D01*
X398582Y380596D01*
X398489Y380619D01*
X398399Y380651D01*
X398271Y380672D01*
X398144Y380703D01*
X398049Y380709D01*
X397955Y380724D01*
X397825Y380723D01*
X397695Y380731D01*
X397600Y380720D01*
X397504Y380718D01*
X397377Y380694D01*
X397248Y380679D01*
X397156Y380651D01*
X397062Y380633D01*
X396941Y380586D01*
X396817Y380548D01*
X396732Y380505D01*
X396642Y380471D01*
X396531Y380403D01*
X396415Y380344D01*
X396339Y380286D01*
X396258Y380237D01*
X396160Y380150D01*
X396057Y380072D01*
X395992Y380002D01*
X395920Y379938D01*
X395840Y379836D01*
X395751Y379741D01*
X395700Y379660D01*
X395641Y379585D01*
X395580Y379471D01*
X395510Y379361D01*
X395473Y379273D01*
X395428Y379188D01*
X395388Y379065D01*
X395339Y378944D01*
X395319Y378851D01*
X395291Y378766D01*
X388380Y371855D01*
X378700Y371855D01*
G37*
%LPD*%
%LPC*%
G36*
X160655Y115569D02*
X160655Y115569D01*
X151510Y115569D01*
X151510Y116818D01*
X154291Y119598D01*
X154313Y119625D01*
X154339Y119648D01*
X154458Y119798D01*
X154580Y119944D01*
X154597Y119974D01*
X154618Y120001D01*
X154708Y120169D01*
X154803Y120335D01*
X154815Y120367D01*
X154831Y120398D01*
X154890Y120579D01*
X154954Y120759D01*
X154960Y120793D01*
X154970Y120826D01*
X154996Y121015D01*
X155027Y121203D01*
X155027Y121238D01*
X155032Y121272D01*
X155024Y121463D01*
X155021Y121653D01*
X155015Y121687D01*
X155013Y121722D01*
X154972Y121908D01*
X154936Y122096D01*
X154923Y122128D01*
X154916Y122162D01*
X154842Y122338D01*
X154773Y122516D01*
X154755Y122545D01*
X154742Y122577D01*
X154639Y122737D01*
X154540Y122900D01*
X154517Y122926D01*
X154498Y122955D01*
X154291Y123189D01*
X150749Y126731D01*
X148970Y131026D01*
X148970Y135674D01*
X150749Y139969D01*
X154036Y143256D01*
X158331Y145035D01*
X162979Y145035D01*
X167274Y143256D01*
X170561Y139969D01*
X172340Y135674D01*
X172340Y131026D01*
X170561Y126731D01*
X167019Y123189D01*
X166997Y123163D01*
X166971Y123140D01*
X166852Y122990D01*
X166730Y122844D01*
X166713Y122814D01*
X166692Y122787D01*
X166602Y122619D01*
X166507Y122453D01*
X166495Y122421D01*
X166479Y122390D01*
X166420Y122209D01*
X166356Y122029D01*
X166350Y121995D01*
X166340Y121962D01*
X166314Y121773D01*
X166283Y121585D01*
X166283Y121550D01*
X166278Y121516D01*
X166286Y121325D01*
X166289Y121134D01*
X166295Y121100D01*
X166297Y121066D01*
X166338Y120880D01*
X166374Y120692D01*
X166387Y120660D01*
X166394Y120626D01*
X166468Y120450D01*
X166537Y120272D01*
X166555Y120243D01*
X166568Y120211D01*
X166671Y120051D01*
X166770Y119888D01*
X166793Y119862D01*
X166812Y119833D01*
X167019Y119598D01*
X169800Y116818D01*
X169800Y115569D01*
X160655Y115569D01*
X160655Y115569D01*
G37*
%LPD*%
%LPC*%
G36*
X443648Y328167D02*
X443648Y328167D01*
X439727Y329791D01*
X436725Y332793D01*
X435101Y336714D01*
X435101Y346546D01*
X436725Y350467D01*
X439727Y353469D01*
X443648Y355093D01*
X447892Y355093D01*
X451813Y353469D01*
X454815Y350467D01*
X456439Y346546D01*
X456439Y336714D01*
X454815Y332793D01*
X451813Y329791D01*
X447892Y328167D01*
X443648Y328167D01*
G37*
%LPD*%
%LPC*%
G36*
X392848Y328167D02*
X392848Y328167D01*
X388927Y329791D01*
X385925Y332793D01*
X384301Y336714D01*
X384301Y346546D01*
X385925Y350467D01*
X388927Y353469D01*
X392848Y355093D01*
X397092Y355093D01*
X401013Y353469D01*
X404015Y350467D01*
X405639Y346546D01*
X405639Y336714D01*
X404015Y332793D01*
X401013Y329791D01*
X397092Y328167D01*
X392848Y328167D01*
G37*
%LPD*%
G36*
X263560Y505464D02*
X263560Y505464D01*
X263594Y505462D01*
X263784Y505484D01*
X263974Y505501D01*
X264007Y505510D01*
X264041Y505514D01*
X264224Y505569D01*
X264408Y505620D01*
X264439Y505634D01*
X264472Y505644D01*
X264643Y505731D01*
X264815Y505813D01*
X264843Y505833D01*
X264874Y505849D01*
X265026Y505964D01*
X265181Y506075D01*
X265205Y506100D01*
X265232Y506121D01*
X265362Y506261D01*
X265495Y506398D01*
X265514Y506426D01*
X265538Y506452D01*
X265640Y506613D01*
X265747Y506771D01*
X265761Y506802D01*
X265779Y506832D01*
X265852Y507008D01*
X265929Y507183D01*
X265937Y507216D01*
X265950Y507248D01*
X265991Y507435D01*
X266036Y507620D01*
X266038Y507654D01*
X266045Y507688D01*
X266064Y508000D01*
X266064Y522986D01*
X266061Y523021D01*
X266063Y523055D01*
X266041Y523244D01*
X266024Y523435D01*
X266015Y523468D01*
X266011Y523502D01*
X265956Y523685D01*
X265906Y523869D01*
X265891Y523900D01*
X265881Y523933D01*
X265794Y524104D01*
X265713Y524276D01*
X265692Y524304D01*
X265677Y524335D01*
X265561Y524487D01*
X265450Y524642D01*
X265426Y524666D01*
X265405Y524693D01*
X265265Y524822D01*
X265128Y524956D01*
X265099Y524975D01*
X265074Y524999D01*
X264913Y525101D01*
X264755Y525208D01*
X264723Y525222D01*
X264694Y525240D01*
X264517Y525313D01*
X264343Y525390D01*
X264309Y525398D01*
X264277Y525411D01*
X264091Y525451D01*
X263905Y525497D01*
X263871Y525499D01*
X263837Y525506D01*
X263525Y525525D01*
X263490Y525522D01*
X263456Y525524D01*
X263266Y525502D01*
X263076Y525485D01*
X263043Y525476D01*
X263009Y525472D01*
X262826Y525417D01*
X262642Y525367D01*
X262611Y525352D01*
X262578Y525342D01*
X262407Y525255D01*
X262235Y525173D01*
X262207Y525153D01*
X262176Y525138D01*
X262024Y525022D01*
X261869Y524911D01*
X261845Y524886D01*
X261817Y524866D01*
X261688Y524726D01*
X261555Y524589D01*
X261536Y524560D01*
X261512Y524534D01*
X261410Y524373D01*
X261303Y524216D01*
X261289Y524184D01*
X261270Y524155D01*
X261198Y523978D01*
X261121Y523804D01*
X261113Y523770D01*
X261100Y523738D01*
X261059Y523551D01*
X261014Y523366D01*
X261012Y523332D01*
X261005Y523298D01*
X260986Y522986D01*
X260986Y508000D01*
X260989Y507966D01*
X260987Y507931D01*
X261009Y507742D01*
X261025Y507552D01*
X261035Y507518D01*
X261039Y507484D01*
X261094Y507301D01*
X261144Y507117D01*
X261159Y507086D01*
X261169Y507053D01*
X261256Y506882D01*
X261337Y506711D01*
X261358Y506683D01*
X261373Y506652D01*
X261488Y506500D01*
X261600Y506345D01*
X261624Y506321D01*
X261645Y506293D01*
X261785Y506164D01*
X261922Y506031D01*
X261951Y506011D01*
X261976Y505988D01*
X262137Y505885D01*
X262295Y505779D01*
X262327Y505765D01*
X262356Y505746D01*
X262533Y505674D01*
X262707Y505596D01*
X262741Y505588D01*
X262773Y505575D01*
X262959Y505535D01*
X263144Y505490D01*
X263179Y505488D01*
X263213Y505480D01*
X263525Y505461D01*
X263560Y505464D01*
G37*
%LPC*%
G36*
X408939Y22861D02*
X408939Y22861D01*
X416053Y22861D01*
X416053Y21084D01*
X415815Y19583D01*
X415346Y18139D01*
X414656Y16785D01*
X413763Y15556D01*
X412688Y14481D01*
X411459Y13588D01*
X410106Y12899D01*
X409892Y12829D01*
X409843Y12808D01*
X409793Y12795D01*
X409637Y12721D01*
X409477Y12652D01*
X409433Y12624D01*
X409387Y12601D01*
X409246Y12501D01*
X409101Y12406D01*
X409063Y12370D01*
X409020Y12339D01*
X408939Y12256D01*
X408939Y22861D01*
G37*
%LPD*%
%LPC*%
G36*
X429200Y12309D02*
X429200Y12309D01*
X429072Y12426D01*
X429028Y12455D01*
X428989Y12488D01*
X428839Y12575D01*
X428693Y12668D01*
X428644Y12688D01*
X428599Y12714D01*
X428308Y12829D01*
X428095Y12898D01*
X426741Y13588D01*
X425512Y14481D01*
X424437Y15556D01*
X423544Y16785D01*
X422854Y18139D01*
X422385Y19583D01*
X422147Y21084D01*
X422147Y22861D01*
X429261Y22861D01*
X429261Y12258D01*
X429200Y12309D01*
G37*
%LPD*%
%LPC*%
G36*
X408939Y27939D02*
X408939Y27939D01*
X408939Y38280D01*
X410105Y37902D01*
X411459Y37212D01*
X412688Y36319D01*
X413763Y35244D01*
X414656Y34015D01*
X415346Y32661D01*
X415815Y31217D01*
X416053Y29716D01*
X416053Y27939D01*
X408939Y27939D01*
G37*
%LPD*%
%LPC*%
G36*
X422147Y27939D02*
X422147Y27939D01*
X422147Y29716D01*
X422385Y31217D01*
X422854Y32661D01*
X423544Y34015D01*
X424437Y35244D01*
X425512Y36319D01*
X426741Y37212D01*
X428095Y37902D01*
X429261Y38280D01*
X429261Y27939D01*
X422147Y27939D01*
G37*
%LPD*%
%LPC*%
G36*
X179069Y182879D02*
X179069Y182879D01*
X179069Y190882D01*
X180897Y190882D01*
X187072Y184707D01*
X187072Y182879D01*
X179069Y182879D01*
G37*
%LPD*%
%LPC*%
G36*
X179069Y169798D02*
X179069Y169798D01*
X179069Y177801D01*
X187072Y177801D01*
X187072Y175973D01*
X180897Y169798D01*
X179069Y169798D01*
G37*
%LPD*%
%LPC*%
G36*
X473709Y180339D02*
X473709Y180339D01*
X473709Y186945D01*
X474958Y186945D01*
X480315Y181588D01*
X480315Y180339D01*
X473709Y180339D01*
G37*
%LPD*%
%LPC*%
G36*
X411479Y386079D02*
X411479Y386079D01*
X411479Y392685D01*
X412728Y392685D01*
X418085Y387328D01*
X418085Y386079D01*
X411479Y386079D01*
G37*
%LPD*%
%LPC*%
G36*
X32765Y233679D02*
X32765Y233679D01*
X32765Y234928D01*
X38122Y240285D01*
X39371Y240285D01*
X39371Y233679D01*
X32765Y233679D01*
G37*
%LPD*%
%LPC*%
G36*
X411479Y374395D02*
X411479Y374395D01*
X411479Y381001D01*
X418085Y381001D01*
X418085Y379752D01*
X412728Y374395D01*
X411479Y374395D01*
G37*
%LPD*%
%LPC*%
G36*
X427100Y386079D02*
X427100Y386079D01*
X427100Y387328D01*
X432457Y392685D01*
X433706Y392685D01*
X433706Y386079D01*
X427100Y386079D01*
G37*
%LPD*%
%LPC*%
G36*
X473709Y168655D02*
X473709Y168655D01*
X473709Y175261D01*
X480315Y175261D01*
X480315Y174012D01*
X474958Y168655D01*
X473709Y168655D01*
G37*
%LPD*%
%LPC*%
G36*
X163194Y103885D02*
X163194Y103885D01*
X163194Y110491D01*
X169800Y110491D01*
X169800Y109242D01*
X164443Y103885D01*
X163194Y103885D01*
G37*
%LPD*%
%LPC*%
G36*
X156867Y103885D02*
X156867Y103885D01*
X151510Y109242D01*
X151510Y110491D01*
X158116Y110491D01*
X158116Y103885D01*
X156867Y103885D01*
G37*
%LPD*%
%LPC*%
G36*
X38122Y221995D02*
X38122Y221995D01*
X32765Y227352D01*
X32765Y228601D01*
X39371Y228601D01*
X39371Y221995D01*
X38122Y221995D01*
G37*
%LPD*%
%LPC*%
G36*
X432457Y374395D02*
X432457Y374395D01*
X427100Y379752D01*
X427100Y381001D01*
X433706Y381001D01*
X433706Y374395D01*
X432457Y374395D01*
G37*
%LPD*%
D10*
X635000Y294386D02*
X635000Y287274D01*
X609600Y287274D02*
X609600Y294386D01*
X584200Y294386D02*
X584200Y287274D01*
X558800Y287274D02*
X558800Y294386D01*
X533400Y294386D02*
X533400Y287274D01*
X508000Y287274D02*
X508000Y294386D01*
X482600Y294386D02*
X482600Y287274D01*
X457200Y287274D02*
X457200Y294386D01*
X431800Y294386D02*
X431800Y287274D01*
X406400Y287274D02*
X406400Y294386D01*
X381000Y294386D02*
X381000Y287274D01*
X355600Y287274D02*
X355600Y294386D01*
X330200Y294386D02*
X330200Y287274D01*
X304800Y287274D02*
X304800Y294386D01*
X304800Y218186D02*
X304800Y211074D01*
X330200Y211074D02*
X330200Y218186D01*
X355600Y218186D02*
X355600Y211074D01*
X381000Y211074D02*
X381000Y218186D01*
X406400Y218186D02*
X406400Y211074D01*
X431800Y211074D02*
X431800Y218186D01*
X457200Y218186D02*
X457200Y211074D01*
X482600Y211074D02*
X482600Y218186D01*
X508000Y218186D02*
X508000Y211074D01*
X533400Y211074D02*
X533400Y218186D01*
X558800Y218186D02*
X558800Y211074D01*
X584200Y211074D02*
X584200Y218186D01*
X609600Y218186D02*
X609600Y211074D01*
X635000Y211074D02*
X635000Y218186D01*
X635000Y504444D02*
X635000Y511556D01*
X609600Y511556D02*
X609600Y504444D01*
X584200Y504444D02*
X584200Y511556D01*
X558800Y511556D02*
X558800Y504444D01*
X533400Y504444D02*
X533400Y511556D01*
X508000Y511556D02*
X508000Y504444D01*
X482600Y504444D02*
X482600Y511556D01*
X457200Y511556D02*
X457200Y504444D01*
X508000Y28956D02*
X508000Y21844D01*
X533400Y21844D02*
X533400Y28956D01*
X558800Y28956D02*
X558800Y21844D01*
X584200Y21844D02*
X584200Y28956D01*
X609600Y28956D02*
X609600Y21844D01*
X635000Y21844D02*
X635000Y28956D01*
D11*
X86868Y33020D03*
D12*
X116840Y83058D03*
X56896Y83058D03*
D13*
X94488Y33020D03*
X79248Y33020D03*
X56896Y75438D03*
X56896Y90678D03*
X116840Y75438D03*
X116840Y90678D03*
D10*
X279400Y28956D02*
X279400Y21844D01*
X304800Y21844D02*
X304800Y28956D01*
X330200Y28956D02*
X330200Y21844D01*
X355600Y21844D02*
X355600Y28956D01*
X381000Y28956D02*
X381000Y21844D01*
X406400Y21844D02*
X406400Y28956D01*
X431800Y28956D02*
X431800Y21844D01*
X457200Y21844D02*
X457200Y28956D01*
D14*
X445770Y338836D02*
X445770Y344424D01*
X394970Y344424D02*
X394970Y338836D01*
D15*
X408940Y383540D03*
X383540Y383540D03*
D16*
X436245Y383540D03*
X461645Y383540D03*
D15*
X43815Y497840D03*
X18415Y497840D03*
D16*
X41910Y231140D03*
X67310Y231140D03*
D17*
X176530Y180340D03*
D18*
X151130Y180340D03*
D19*
X160655Y113030D03*
D20*
X160655Y133350D03*
D16*
X445770Y177800D03*
X471170Y177800D03*
D21*
X153035Y83820D03*
X254635Y83820D03*
D22*
X187325Y504190D02*
X187325Y511810D01*
X212725Y511810D02*
X212725Y504190D01*
X238125Y504190D02*
X238125Y511810D01*
X263525Y511810D02*
X263525Y504190D01*
X288925Y504190D02*
X288925Y511810D01*
X314325Y511810D02*
X314325Y504190D01*
X339725Y504190D02*
X339725Y511810D01*
X365125Y511810D02*
X365125Y504190D01*
X390525Y504190D02*
X390525Y511810D01*
X415925Y511810D02*
X415925Y504190D01*
D23*
X238125Y25400D03*
X212725Y25400D03*
X238125Y50800D03*
X212725Y50800D03*
D22*
X227965Y282575D02*
X235585Y282575D01*
X235585Y307975D02*
X227965Y307975D01*
X227965Y333375D02*
X235585Y333375D01*
X235585Y358775D02*
X227965Y358775D01*
D24*
X434975Y73025D03*
D25*
X482600Y290830D02*
X482600Y292100D01*
X444500Y82550D02*
X434975Y73025D01*
X445770Y83820D02*
X445770Y177800D01*
X445770Y83820D02*
X444500Y82550D01*
X151130Y180340D02*
X151130Y309880D01*
X200025Y358775D01*
X231775Y358775D01*
D26*
X247650Y113030D02*
X160655Y113030D01*
X247650Y113030D02*
X379095Y113030D01*
X406400Y85725D01*
X406400Y25400D01*
D25*
X41910Y231140D02*
X41910Y269240D01*
X18415Y292735D02*
X18415Y497840D01*
X18415Y292735D02*
X41910Y269240D01*
X457200Y240030D02*
X482600Y214630D01*
X436245Y383540D02*
X436245Y388620D01*
X447675Y400050D01*
X479425Y400050D01*
X488950Y390525D01*
X488950Y322580D01*
X457200Y290830D01*
X457200Y250825D01*
X457200Y240030D01*
X457200Y250825D02*
X254000Y250825D01*
X252175Y250825D01*
X254000Y250825D02*
X247015Y250825D01*
X176530Y180340D01*
X222250Y250825D02*
X247015Y250825D01*
X222250Y250825D02*
X212725Y260350D01*
X212725Y323850D01*
X222250Y333375D01*
X231775Y333375D01*
X176530Y180340D02*
X243840Y113030D01*
X247650Y113030D01*
X330200Y76200D02*
X330200Y25400D01*
X330200Y76200D02*
X349250Y95250D01*
X368300Y95250D01*
D24*
X368300Y95250D03*
X419100Y95250D03*
D25*
X635000Y238125D02*
X635000Y290830D01*
X635000Y238125D02*
X622300Y225425D01*
X622300Y66675D01*
X609600Y53975D01*
X428625Y53975D01*
X419100Y63500D02*
X419100Y95250D01*
X419100Y63500D02*
X428625Y53975D01*
X212725Y498475D02*
X212725Y508000D01*
X212725Y498475D02*
X222250Y488950D01*
X619125Y488950D01*
X635000Y473075D01*
X635000Y377825D01*
D24*
X635000Y377825D03*
D25*
X187325Y498475D02*
X187325Y508000D01*
X187325Y498475D02*
X206375Y479425D01*
X612775Y479425D01*
X622300Y469900D01*
X622300Y346075D01*
X654050Y314325D01*
X654050Y233680D01*
X635000Y214630D01*
X584200Y290830D02*
X584200Y450850D01*
X574675Y460375D01*
X333375Y460375D01*
X269875Y295275D02*
X257175Y282575D01*
X231775Y282575D01*
X269875Y396875D02*
X333375Y460375D01*
X269875Y396875D02*
X269875Y295275D01*
X609600Y290830D02*
X609600Y377825D01*
X609600Y460375D01*
X600075Y469900D01*
X571500Y469900D01*
D27*
X571500Y469900D03*
D25*
X260350Y323850D02*
X244475Y307975D01*
X231775Y307975D01*
X320675Y469900D02*
X571500Y469900D01*
X260350Y409575D02*
X260350Y323850D01*
X260350Y409575D02*
X320675Y469900D01*
M02*
