G04 EAGLE Gerber X2 export*
%TF.Part,Single*%
%TF.FileFunction,Other,Bottom Soldermask*%
%TF.FilePolarity,Positive*%
%TF.GenerationSoftware,Autodesk,EAGLE,9.1.0*%
%TF.CreationDate,2018-12-28T14:04:56Z*%
G75*
%MOMM*%
%FSLAX34Y34*%
%LPD*%
%AMOC8*
5,1,8,0,0,1.08239X$1,22.5*%
G01*
%ADD10C,3.301600*%
%ADD11C,1.524000*%
%ADD12P,4.439531X8X202.500000*%
%ADD13P,4.439531X8X112.500000*%
%ADD14C,2.051600*%
%ADD15C,1.219200*%
%ADD16P,1.539592X8X202.500000*%
%ADD17P,1.539592X8X22.500000*%
%ADD18P,1.842011X8X22.500000*%
%ADD19C,1.701800*%
%ADD20P,1.539592X8X292.500000*%
%ADD21C,1.422400*%
%ADD22C,1.778000*%
%ADD23C,1.625600*%
%ADD24P,1.759533X8X112.500000*%


D10*
X660400Y355600D03*
X660400Y76200D03*
X152400Y508000D03*
X139700Y25400D03*
D11*
X635000Y287274D02*
X635000Y294386D01*
X609600Y294386D02*
X609600Y287274D01*
X584200Y287274D02*
X584200Y294386D01*
X558800Y294386D02*
X558800Y287274D01*
X533400Y287274D02*
X533400Y294386D01*
X508000Y294386D02*
X508000Y287274D01*
X482600Y287274D02*
X482600Y294386D01*
X457200Y294386D02*
X457200Y287274D01*
X431800Y287274D02*
X431800Y294386D01*
X406400Y294386D02*
X406400Y287274D01*
X381000Y287274D02*
X381000Y294386D01*
X355600Y294386D02*
X355600Y287274D01*
X330200Y287274D02*
X330200Y294386D01*
X304800Y294386D02*
X304800Y287274D01*
X304800Y218186D02*
X304800Y211074D01*
X330200Y211074D02*
X330200Y218186D01*
X355600Y218186D02*
X355600Y211074D01*
X381000Y211074D02*
X381000Y218186D01*
X406400Y218186D02*
X406400Y211074D01*
X431800Y211074D02*
X431800Y218186D01*
X457200Y218186D02*
X457200Y211074D01*
X482600Y211074D02*
X482600Y218186D01*
X508000Y218186D02*
X508000Y211074D01*
X533400Y211074D02*
X533400Y218186D01*
X558800Y218186D02*
X558800Y211074D01*
X584200Y211074D02*
X584200Y218186D01*
X609600Y218186D02*
X609600Y211074D01*
X635000Y211074D02*
X635000Y218186D01*
X635000Y504444D02*
X635000Y511556D01*
X609600Y511556D02*
X609600Y504444D01*
X584200Y504444D02*
X584200Y511556D01*
X558800Y511556D02*
X558800Y504444D01*
X533400Y504444D02*
X533400Y511556D01*
X508000Y511556D02*
X508000Y504444D01*
X482600Y504444D02*
X482600Y511556D01*
X457200Y511556D02*
X457200Y504444D01*
X508000Y28956D02*
X508000Y21844D01*
X533400Y21844D02*
X533400Y28956D01*
X558800Y28956D02*
X558800Y21844D01*
X584200Y21844D02*
X584200Y28956D01*
X609600Y28956D02*
X609600Y21844D01*
X635000Y21844D02*
X635000Y28956D01*
D12*
X86868Y33020D03*
D13*
X116840Y83058D03*
X56896Y83058D03*
D14*
X94488Y33020D03*
X79248Y33020D03*
X56896Y75438D03*
X56896Y90678D03*
X116840Y75438D03*
X116840Y90678D03*
D11*
X279400Y28956D02*
X279400Y21844D01*
X304800Y21844D02*
X304800Y28956D01*
X330200Y28956D02*
X330200Y21844D01*
X355600Y21844D02*
X355600Y28956D01*
X381000Y28956D02*
X381000Y21844D01*
X406400Y21844D02*
X406400Y28956D01*
X431800Y28956D02*
X431800Y21844D01*
X457200Y21844D02*
X457200Y28956D01*
D15*
X445770Y338836D02*
X445770Y344424D01*
X394970Y344424D02*
X394970Y338836D01*
D16*
X408940Y383540D03*
X383540Y383540D03*
D17*
X436245Y383540D03*
X461645Y383540D03*
D16*
X43815Y497840D03*
X18415Y497840D03*
D17*
X41910Y231140D03*
X67310Y231140D03*
D18*
X176530Y180340D03*
D19*
X151130Y180340D03*
D20*
X160655Y113030D03*
D21*
X160655Y133350D03*
D17*
X445770Y177800D03*
X471170Y177800D03*
D22*
X153035Y83820D03*
X254635Y83820D03*
D23*
X187325Y504190D02*
X187325Y511810D01*
X212725Y511810D02*
X212725Y504190D01*
X238125Y504190D02*
X238125Y511810D01*
X263525Y511810D02*
X263525Y504190D01*
X288925Y504190D02*
X288925Y511810D01*
X314325Y511810D02*
X314325Y504190D01*
X339725Y504190D02*
X339725Y511810D01*
X365125Y511810D02*
X365125Y504190D01*
X390525Y504190D02*
X390525Y511810D01*
X415925Y511810D02*
X415925Y504190D01*
D24*
X238125Y25400D03*
X212725Y25400D03*
X238125Y50800D03*
X212725Y50800D03*
D23*
X227965Y282575D02*
X235585Y282575D01*
X235585Y307975D02*
X227965Y307975D01*
X227965Y333375D02*
X235585Y333375D01*
X235585Y358775D02*
X227965Y358775D01*
M02*
