M48
;GenerationSoftware,Autodesk,EAGLE,9.1.0*%
;CreationDate,2018-12-28T14:04:56Z*%
FMAT,2
ICI,OFF
METRIC,TZ,000.000
T8C0.400
T7C0.610
T6C0.813
T5C0.850
T4C1.016
T3C1.118
T2C1.300
T1C3.200
%
G90
M71
T1
X66040Y35560
X66040Y7620
X15240Y50800
X13970Y2540
T2
X11684Y8306
X11684Y9068
X11684Y7544
X5690Y9068
X5690Y7544
X7925Y3302
X9449Y3302
X5690Y8306
X8687Y3302
T3
X25463Y8382
X15303Y8382
T4
X23177Y35878
X23177Y33338
X23177Y30797
X23177Y28257
X21273Y5080
X23812Y5080
X21273Y2540
X23812Y2540
X41593Y50800
X39053Y50800
X36513Y50800
X33973Y50800
X31432Y50800
X28892Y50800
X26352Y50800
X23812Y50800
X21273Y50800
X18733Y50800
T5
X58420Y21463
X60960Y21463
X63500Y21463
X63500Y50800
X60960Y50800
X58420Y50800
X55880Y50800
X53340Y50800
X50800Y50800
X48260Y50800
X45720Y50800
X50800Y2540
X53340Y2540
X55880Y2540
X58420Y2540
X60960Y2540
X63500Y2540
X48260Y29083
X45720Y29083
X50800Y29083
X53340Y29083
X55880Y29083
X58420Y29083
X60960Y29083
X63500Y29083
X43180Y29083
X27940Y2540
X30480Y2540
X33020Y2540
X35560Y2540
X38100Y2540
X40640Y2540
X43180Y2540
X45720Y2540
X40640Y29083
X38100Y29083
X30480Y29083
X30480Y21463
X33020Y21463
X35560Y21463
X38100Y21463
X40640Y21463
X43180Y21463
X45720Y21463
X48260Y21463
X50800Y21463
X53340Y21463
X55880Y21463
X33020Y29083
X35560Y29083
T6
X47117Y17780
X44577Y17780
X16065Y13335
X16065Y11303
X15113Y18034
X17653Y18034
X6731Y23114
X4191Y23114
X1841Y49784
X4382Y49784
X46164Y38354
X43625Y38354
X38354Y38354
X40894Y38354
T7
X39497Y34163
X44577Y34163
T8
X41910Y9525
X36830Y9525
X63500Y37783
X43498Y7302
M30