G75*
%MOIN*%
%OFA0B0*%
%FSLAX25Y25*%
%IPPOS*%
%LPD*%
%AMOC8*
5,1,8,0,0,1.08239X$1,22.5*
%
%ADD10C,0.01200*%
%ADD11C,0.01000*%
%ADD12C,0.00700*%
%ADD13C,0.00500*%
%ADD14C,0.00600*%
%ADD15C,0.00200*%
%ADD16C,0.00400*%
%ADD17R,0.02000X0.10000*%
%ADD18R,0.07500X0.03000*%
%ADD19C,0.00800*%
%ADD20R,0.03000X0.03400*%
%ADD21C,0.03000*%
%ADD22R,0.02000X0.03000*%
%ADD23R,0.04000X0.03000*%
D10*
X0205480Y0187500D02*
X0209980Y0183000D01*
X0241980Y0183000D01*
X0283980Y0183000D02*
X0315980Y0183000D01*
X0320480Y0187500D01*
X0326980Y0187000D02*
X0330480Y0190500D01*
X0333980Y0187000D01*
X0326980Y0187000D01*
X0328480Y0187500D02*
X0330480Y0189500D01*
X0332480Y0187500D01*
X0329480Y0187500D01*
X0330980Y0188500D01*
X0337480Y0190500D02*
X0340980Y0187000D01*
X0344480Y0190500D01*
X0337480Y0190500D01*
X0338980Y0190000D02*
X0342980Y0190000D01*
X0340980Y0188000D01*
X0339480Y0189500D01*
X0341480Y0189500D01*
X0340980Y0189000D02*
X0340980Y0188500D01*
D11*
X0281272Y0180859D02*
X0277535Y0180859D01*
X0277535Y0186464D01*
X0275195Y0184596D02*
X0275195Y0180859D01*
X0271458Y0180859D02*
X0271458Y0184596D01*
X0273326Y0186464D01*
X0275195Y0184596D01*
X0275195Y0183661D02*
X0271458Y0183661D01*
X0269118Y0186464D02*
X0265381Y0186464D01*
X0267249Y0186464D02*
X0267249Y0180859D01*
X0263198Y0180859D02*
X0261330Y0180859D01*
X0262264Y0180859D02*
X0262264Y0186464D01*
X0261330Y0186464D02*
X0263198Y0186464D01*
X0258989Y0185530D02*
X0258055Y0186464D01*
X0256187Y0186464D01*
X0255252Y0185530D01*
X0255252Y0181793D01*
X0256187Y0180859D01*
X0258055Y0180859D01*
X0258989Y0181793D01*
X0258989Y0183661D01*
X0257121Y0183661D01*
X0253069Y0186464D02*
X0251201Y0186464D01*
X0252135Y0186464D02*
X0252135Y0180859D01*
X0251201Y0180859D02*
X0253069Y0180859D01*
X0248860Y0181793D02*
X0248860Y0185530D01*
X0247926Y0186464D01*
X0245124Y0186464D01*
X0245124Y0180859D01*
X0247926Y0180859D01*
X0248860Y0181793D01*
X0247480Y0159500D02*
X0247480Y0156500D01*
X0247480Y0153500D01*
X0245480Y0153500D02*
X0245480Y0156500D01*
X0245480Y0159500D01*
X0266230Y0159500D02*
X0266230Y0156500D01*
X0266230Y0153500D01*
X0268230Y0153500D02*
X0268230Y0156500D01*
X0268230Y0159500D01*
X0176480Y0197500D02*
X0176482Y0197563D01*
X0176488Y0197625D01*
X0176498Y0197687D01*
X0176511Y0197749D01*
X0176529Y0197809D01*
X0176550Y0197868D01*
X0176575Y0197926D01*
X0176604Y0197982D01*
X0176636Y0198036D01*
X0176671Y0198088D01*
X0176709Y0198137D01*
X0176751Y0198185D01*
X0176795Y0198229D01*
X0176843Y0198271D01*
X0176892Y0198309D01*
X0176944Y0198344D01*
X0176998Y0198376D01*
X0177054Y0198405D01*
X0177112Y0198430D01*
X0177171Y0198451D01*
X0177231Y0198469D01*
X0177293Y0198482D01*
X0177355Y0198492D01*
X0177417Y0198498D01*
X0177480Y0198500D01*
X0177543Y0198498D01*
X0177605Y0198492D01*
X0177667Y0198482D01*
X0177729Y0198469D01*
X0177789Y0198451D01*
X0177848Y0198430D01*
X0177906Y0198405D01*
X0177962Y0198376D01*
X0178016Y0198344D01*
X0178068Y0198309D01*
X0178117Y0198271D01*
X0178165Y0198229D01*
X0178209Y0198185D01*
X0178251Y0198137D01*
X0178289Y0198088D01*
X0178324Y0198036D01*
X0178356Y0197982D01*
X0178385Y0197926D01*
X0178410Y0197868D01*
X0178431Y0197809D01*
X0178449Y0197749D01*
X0178462Y0197687D01*
X0178472Y0197625D01*
X0178478Y0197563D01*
X0178480Y0197500D01*
X0178478Y0197437D01*
X0178472Y0197375D01*
X0178462Y0197313D01*
X0178449Y0197251D01*
X0178431Y0197191D01*
X0178410Y0197132D01*
X0178385Y0197074D01*
X0178356Y0197018D01*
X0178324Y0196964D01*
X0178289Y0196912D01*
X0178251Y0196863D01*
X0178209Y0196815D01*
X0178165Y0196771D01*
X0178117Y0196729D01*
X0178068Y0196691D01*
X0178016Y0196656D01*
X0177962Y0196624D01*
X0177906Y0196595D01*
X0177848Y0196570D01*
X0177789Y0196549D01*
X0177729Y0196531D01*
X0177667Y0196518D01*
X0177605Y0196508D01*
X0177543Y0196502D01*
X0177480Y0196500D01*
X0177417Y0196502D01*
X0177355Y0196508D01*
X0177293Y0196518D01*
X0177231Y0196531D01*
X0177171Y0196549D01*
X0177112Y0196570D01*
X0177054Y0196595D01*
X0176998Y0196624D01*
X0176944Y0196656D01*
X0176892Y0196691D01*
X0176843Y0196729D01*
X0176795Y0196771D01*
X0176751Y0196815D01*
X0176709Y0196863D01*
X0176671Y0196912D01*
X0176636Y0196964D01*
X0176604Y0197018D01*
X0176575Y0197074D01*
X0176550Y0197132D01*
X0176529Y0197191D01*
X0176511Y0197251D01*
X0176498Y0197313D01*
X0176488Y0197375D01*
X0176482Y0197437D01*
X0176480Y0197500D01*
X0109677Y0205469D02*
X0109578Y0205638D01*
X0109474Y0205804D01*
X0109367Y0205968D01*
X0109256Y0206129D01*
X0109141Y0206287D01*
X0109022Y0206442D01*
X0108899Y0206595D01*
X0108773Y0206744D01*
X0108643Y0206890D01*
X0108509Y0207033D01*
X0108372Y0207173D01*
X0108232Y0207309D01*
X0108088Y0207442D01*
X0107941Y0207571D01*
X0107791Y0207697D01*
X0107638Y0207818D01*
X0107482Y0207937D01*
X0107323Y0208051D01*
X0107162Y0208161D01*
X0106997Y0208267D01*
X0106831Y0208370D01*
X0106661Y0208468D01*
X0106490Y0208562D01*
X0106316Y0208652D01*
X0106140Y0208737D01*
X0105962Y0208819D01*
X0105782Y0208895D01*
X0105600Y0208968D01*
X0105417Y0209036D01*
X0105232Y0209099D01*
X0105045Y0209158D01*
X0104857Y0209212D01*
X0104668Y0209262D01*
X0104478Y0209307D01*
X0104286Y0209347D01*
X0104094Y0209383D01*
X0103901Y0209414D01*
X0103707Y0209440D01*
X0103512Y0209462D01*
X0103317Y0209478D01*
X0103122Y0209490D01*
X0102926Y0209498D01*
X0102731Y0209500D01*
X0109789Y0197735D02*
X0109696Y0197567D01*
X0109600Y0197401D01*
X0109500Y0197237D01*
X0109395Y0197076D01*
X0109287Y0196917D01*
X0109175Y0196761D01*
X0109059Y0196607D01*
X0108940Y0196457D01*
X0108817Y0196309D01*
X0108691Y0196164D01*
X0108561Y0196023D01*
X0108428Y0195884D01*
X0108291Y0195749D01*
X0108151Y0195617D01*
X0108009Y0195489D01*
X0107863Y0195364D01*
X0107714Y0195242D01*
X0107562Y0195124D01*
X0107408Y0195010D01*
X0107250Y0194900D01*
X0107091Y0194793D01*
X0106928Y0194690D01*
X0106763Y0194591D01*
X0106596Y0194496D01*
X0106427Y0194406D01*
X0106256Y0194319D01*
X0106082Y0194236D01*
X0105907Y0194158D01*
X0105729Y0194084D01*
X0105550Y0194014D01*
X0105370Y0193948D01*
X0105188Y0193887D01*
X0105004Y0193830D01*
X0104819Y0193778D01*
X0104633Y0193730D01*
X0104446Y0193686D01*
X0104258Y0193647D01*
X0104069Y0193613D01*
X0103879Y0193583D01*
X0103689Y0193558D01*
X0103498Y0193537D01*
X0103306Y0193521D01*
X0103114Y0193509D01*
X0102922Y0193502D01*
X0102730Y0193500D01*
X0096623Y0206668D02*
X0096750Y0206814D01*
X0096879Y0206956D01*
X0097013Y0207096D01*
X0097149Y0207232D01*
X0097289Y0207365D01*
X0097432Y0207495D01*
X0097579Y0207621D01*
X0097728Y0207743D01*
X0097880Y0207862D01*
X0098035Y0207977D01*
X0098192Y0208089D01*
X0098352Y0208196D01*
X0098515Y0208300D01*
X0098681Y0208399D01*
X0098848Y0208495D01*
X0099018Y0208587D01*
X0099190Y0208674D01*
X0099364Y0208758D01*
X0099540Y0208837D01*
X0099718Y0208911D01*
X0099898Y0208982D01*
X0100079Y0209048D01*
X0100262Y0209110D01*
X0100446Y0209167D01*
X0100632Y0209220D01*
X0100819Y0209268D01*
X0101007Y0209312D01*
X0101196Y0209351D01*
X0101386Y0209386D01*
X0101576Y0209416D01*
X0101767Y0209442D01*
X0101959Y0209463D01*
X0102152Y0209479D01*
X0102344Y0209491D01*
X0102537Y0209498D01*
X0102730Y0209500D01*
X0096584Y0196378D02*
X0096711Y0196230D01*
X0096841Y0196085D01*
X0096974Y0195944D01*
X0097111Y0195805D01*
X0097251Y0195670D01*
X0097395Y0195539D01*
X0097542Y0195411D01*
X0097691Y0195286D01*
X0097844Y0195165D01*
X0097999Y0195048D01*
X0098158Y0194935D01*
X0098319Y0194826D01*
X0098483Y0194721D01*
X0098649Y0194619D01*
X0098818Y0194522D01*
X0098988Y0194429D01*
X0099162Y0194340D01*
X0099337Y0194255D01*
X0099514Y0194175D01*
X0099693Y0194099D01*
X0099874Y0194027D01*
X0100057Y0193960D01*
X0100241Y0193897D01*
X0100427Y0193839D01*
X0100614Y0193785D01*
X0100802Y0193736D01*
X0100992Y0193691D01*
X0101182Y0193651D01*
X0101374Y0193616D01*
X0101566Y0193585D01*
X0101759Y0193559D01*
X0101953Y0193538D01*
X0102147Y0193521D01*
X0102341Y0193509D01*
X0102535Y0193502D01*
X0102730Y0193500D01*
X0110980Y0099500D02*
X0110980Y0096500D01*
X0110980Y0093500D01*
X0112980Y0093500D02*
X0112980Y0096500D01*
X0112980Y0099500D01*
X0269980Y0078500D02*
X0269980Y0075500D01*
X0269980Y0072500D01*
X0271980Y0072500D02*
X0271980Y0075500D01*
X0271980Y0078500D01*
X0291849Y0035605D02*
X0293717Y0033737D01*
X0293717Y0030000D01*
X0296058Y0030000D02*
X0296058Y0035605D01*
X0299794Y0030000D01*
X0299794Y0035605D01*
X0302135Y0033737D02*
X0304003Y0035605D01*
X0305871Y0033737D01*
X0305871Y0030000D01*
X0308212Y0030000D02*
X0311949Y0030000D01*
X0314289Y0030934D02*
X0315223Y0030000D01*
X0317092Y0030000D01*
X0318026Y0030934D01*
X0318026Y0034671D01*
X0317092Y0035605D01*
X0315223Y0035605D01*
X0314289Y0034671D01*
X0314289Y0030934D01*
X0320366Y0030934D02*
X0320366Y0034671D01*
X0321301Y0035605D01*
X0323169Y0035605D01*
X0324103Y0034671D01*
X0324103Y0032802D02*
X0322235Y0032802D01*
X0324103Y0032802D02*
X0324103Y0030934D01*
X0323169Y0030000D01*
X0321301Y0030000D01*
X0320366Y0030934D01*
X0332521Y0030000D02*
X0334389Y0030000D01*
X0333455Y0030000D02*
X0333455Y0035605D01*
X0332521Y0035605D02*
X0334389Y0035605D01*
X0336572Y0035605D02*
X0340309Y0030000D01*
X0340309Y0035605D01*
X0336572Y0035605D02*
X0336572Y0030000D01*
X0308212Y0030000D02*
X0308212Y0035605D01*
X0302135Y0033737D02*
X0302135Y0030000D01*
X0302135Y0032802D02*
X0305871Y0032802D01*
X0293717Y0032802D02*
X0289980Y0032802D01*
X0289980Y0033737D02*
X0289980Y0030000D01*
X0289980Y0033737D02*
X0291849Y0035605D01*
D12*
X0277194Y0027754D02*
X0277194Y0022850D01*
X0273924Y0027754D01*
X0273924Y0022850D01*
X0272122Y0022850D02*
X0270487Y0022850D01*
X0271304Y0022850D02*
X0271304Y0027754D01*
X0270487Y0027754D02*
X0272122Y0027754D01*
X0268600Y0027754D02*
X0268600Y0024485D01*
X0266965Y0022850D01*
X0265330Y0024485D01*
X0265330Y0027754D01*
X0261946Y0026885D02*
X0261128Y0027702D01*
X0258676Y0027702D01*
X0258676Y0022798D01*
X0261128Y0022798D01*
X0261946Y0023615D01*
X0261946Y0026885D01*
X0256789Y0027702D02*
X0256789Y0022798D01*
X0253520Y0027702D01*
X0253520Y0022798D01*
X0251633Y0023615D02*
X0251633Y0025250D01*
X0249998Y0025250D01*
X0248363Y0023615D02*
X0249181Y0022798D01*
X0250816Y0022798D01*
X0251633Y0023615D01*
X0248363Y0023615D02*
X0248363Y0026885D01*
X0249181Y0027702D01*
X0250816Y0027702D01*
X0251633Y0026885D01*
X0244756Y0027754D02*
X0244756Y0024485D01*
X0243122Y0022850D01*
X0241487Y0024485D01*
X0241487Y0027754D01*
X0239600Y0027754D02*
X0236330Y0027754D01*
X0236330Y0025302D01*
X0237965Y0026119D01*
X0238783Y0026119D01*
X0239600Y0025302D01*
X0239600Y0023667D01*
X0238783Y0022850D01*
X0237148Y0022850D01*
X0236330Y0023667D01*
X0236730Y0188537D02*
X0236730Y0191807D01*
X0236730Y0190172D02*
X0231826Y0190172D01*
X0233461Y0188537D01*
X0232644Y0193694D02*
X0231826Y0194511D01*
X0231826Y0196146D01*
X0232644Y0196963D01*
X0235913Y0193694D01*
X0236730Y0194511D01*
X0236730Y0196146D01*
X0235913Y0196963D01*
X0232644Y0196963D01*
X0226730Y0196963D02*
X0226730Y0193694D01*
X0226730Y0195328D02*
X0221826Y0195328D01*
X0223461Y0193694D01*
X0226730Y0191807D02*
X0226730Y0188537D01*
X0226730Y0190172D02*
X0221826Y0190172D01*
X0223461Y0188537D01*
X0216730Y0188537D02*
X0216730Y0191807D01*
X0216730Y0190172D02*
X0211826Y0190172D01*
X0213461Y0188537D01*
X0212644Y0193694D02*
X0211826Y0194511D01*
X0211826Y0196146D01*
X0212644Y0196963D01*
X0213461Y0196963D01*
X0216730Y0193694D01*
X0216730Y0196963D01*
X0206730Y0196146D02*
X0206730Y0194511D01*
X0205913Y0193694D01*
X0206730Y0191807D02*
X0206730Y0188537D01*
X0206730Y0190172D02*
X0201826Y0190172D01*
X0203461Y0188537D01*
X0202644Y0193694D02*
X0201826Y0194511D01*
X0201826Y0196146D01*
X0202644Y0196963D01*
X0203461Y0196963D01*
X0204278Y0196146D01*
X0205096Y0196963D01*
X0205913Y0196963D01*
X0206730Y0196146D01*
X0204278Y0196146D02*
X0204278Y0195328D01*
X0232644Y0193694D02*
X0235913Y0193694D01*
X0241826Y0194511D02*
X0242644Y0193694D01*
X0243461Y0193694D01*
X0244278Y0194511D01*
X0244278Y0196963D01*
X0242644Y0196963D02*
X0245913Y0196963D01*
X0246730Y0196146D01*
X0246730Y0194511D01*
X0245913Y0193694D01*
X0241826Y0194511D02*
X0241826Y0196146D01*
X0242644Y0196963D01*
X0251826Y0196146D02*
X0252644Y0196963D01*
X0253461Y0196963D01*
X0254278Y0196146D01*
X0254278Y0194511D01*
X0253461Y0193694D01*
X0252644Y0193694D01*
X0251826Y0194511D01*
X0251826Y0196146D01*
X0254278Y0196146D02*
X0255096Y0196963D01*
X0255913Y0196963D01*
X0256730Y0196146D01*
X0256730Y0194511D01*
X0255913Y0193694D01*
X0255096Y0193694D01*
X0254278Y0194511D01*
X0267826Y0193694D02*
X0267826Y0196963D01*
X0268644Y0196963D01*
X0271913Y0193694D01*
X0272730Y0193694D01*
X0277826Y0196963D02*
X0278644Y0195328D01*
X0280278Y0193694D01*
X0280278Y0196146D01*
X0281096Y0196963D01*
X0281913Y0196963D01*
X0282730Y0196146D01*
X0282730Y0194511D01*
X0281913Y0193694D01*
X0280278Y0193694D01*
X0287826Y0193694D02*
X0287826Y0196963D01*
X0289461Y0196146D02*
X0290278Y0196963D01*
X0291913Y0196963D01*
X0292730Y0196146D01*
X0292730Y0194511D01*
X0291913Y0193694D01*
X0290278Y0193694D02*
X0289461Y0195328D01*
X0289461Y0196146D01*
X0290278Y0193694D02*
X0287826Y0193694D01*
X0297826Y0196146D02*
X0300278Y0193694D01*
X0300278Y0196963D01*
X0302730Y0196146D02*
X0297826Y0196146D01*
X0307826Y0196146D02*
X0308644Y0196963D01*
X0309461Y0196963D01*
X0310278Y0196146D01*
X0311096Y0196963D01*
X0311913Y0196963D01*
X0312730Y0196146D01*
X0312730Y0194511D01*
X0311913Y0193694D01*
X0310278Y0195328D02*
X0310278Y0196146D01*
X0307826Y0196146D02*
X0307826Y0194511D01*
X0308644Y0193694D01*
X0317826Y0194511D02*
X0318644Y0193694D01*
X0317826Y0194511D02*
X0317826Y0196146D01*
X0318644Y0196963D01*
X0319461Y0196963D01*
X0322730Y0193694D01*
X0322730Y0196963D01*
X0327826Y0195328D02*
X0329461Y0193694D01*
X0327826Y0195328D02*
X0332730Y0195328D01*
X0332730Y0193694D02*
X0332730Y0196963D01*
X0337826Y0196146D02*
X0338644Y0196963D01*
X0341913Y0193694D01*
X0342730Y0194511D01*
X0342730Y0196146D01*
X0341913Y0196963D01*
X0338644Y0196963D01*
X0337826Y0196146D02*
X0337826Y0194511D01*
X0338644Y0193694D01*
X0341913Y0193694D01*
D13*
X0113980Y0018500D02*
X0083380Y0018500D01*
X0083380Y0053900D01*
X0097080Y0053900D01*
X0097080Y0018600D01*
X0135230Y0018500D02*
X0136480Y0018500D01*
X0136480Y0027250D01*
X0160727Y0025960D02*
X0160727Y0023708D01*
X0165230Y0023708D01*
X0163729Y0023708D02*
X0163729Y0025960D01*
X0162979Y0026710D01*
X0161477Y0026710D01*
X0160727Y0025960D01*
X0163729Y0025209D02*
X0165230Y0026710D01*
X0165230Y0022106D02*
X0160727Y0022106D01*
X0163729Y0020605D02*
X0165230Y0022106D01*
X0163729Y0020605D02*
X0165230Y0019104D01*
X0160727Y0019104D01*
X0161477Y0017503D02*
X0162979Y0017503D01*
X0163729Y0016752D01*
X0163729Y0014500D01*
X0165230Y0014500D02*
X0160727Y0014500D01*
X0160727Y0016752D01*
X0161477Y0017503D01*
X0166023Y0044750D02*
X0168274Y0044750D01*
X0169025Y0045501D01*
X0169025Y0048503D01*
X0168274Y0049254D01*
X0166023Y0049254D01*
X0166023Y0044750D01*
X0170626Y0044750D02*
X0173629Y0044750D01*
X0172128Y0044750D02*
X0172128Y0049254D01*
X0170626Y0047753D01*
X0169981Y0055750D02*
X0171482Y0055750D01*
X0172233Y0056501D01*
X0173834Y0056501D02*
X0174585Y0055750D01*
X0176086Y0055750D01*
X0176837Y0056501D01*
X0176837Y0058002D01*
X0176086Y0058753D01*
X0175336Y0058753D01*
X0173834Y0058002D01*
X0173834Y0060254D01*
X0176837Y0060254D01*
X0172233Y0059503D02*
X0171482Y0060254D01*
X0169981Y0060254D01*
X0169230Y0059503D01*
X0169230Y0056501D01*
X0169981Y0055750D01*
X0169482Y0075500D02*
X0170233Y0076251D01*
X0169482Y0075500D02*
X0167981Y0075500D01*
X0167230Y0076251D01*
X0167230Y0079253D01*
X0167981Y0080004D01*
X0169482Y0080004D01*
X0170233Y0079253D01*
X0171834Y0079253D02*
X0172585Y0080004D01*
X0174086Y0080004D01*
X0174837Y0079253D01*
X0174837Y0078503D01*
X0171834Y0075500D01*
X0174837Y0075500D01*
X0136480Y0053900D02*
X0097080Y0053900D01*
X0136480Y0053900D02*
X0136480Y0048500D01*
X0099980Y0093250D02*
X0096977Y0093250D01*
X0096227Y0094001D01*
X0096227Y0095502D01*
X0096977Y0096253D01*
X0098479Y0097854D02*
X0098479Y0100856D01*
X0100730Y0100106D02*
X0096227Y0100106D01*
X0098479Y0097854D01*
X0099980Y0096253D02*
X0100730Y0095502D01*
X0100730Y0094001D01*
X0099980Y0093250D01*
X0164023Y0103250D02*
X0166274Y0103250D01*
X0167025Y0104001D01*
X0167025Y0104751D01*
X0166274Y0105502D01*
X0164023Y0105502D01*
X0166274Y0105502D02*
X0167025Y0106253D01*
X0167025Y0107003D01*
X0166274Y0107754D01*
X0164023Y0107754D01*
X0164023Y0103250D01*
X0170128Y0103250D02*
X0170128Y0107754D01*
X0171629Y0107754D02*
X0168626Y0107754D01*
X0232477Y0153751D02*
X0233227Y0153000D01*
X0236230Y0153000D01*
X0236980Y0153751D01*
X0236980Y0155252D01*
X0236230Y0156003D01*
X0236980Y0157604D02*
X0236980Y0160606D01*
X0236980Y0159105D02*
X0232477Y0159105D01*
X0233978Y0157604D01*
X0233227Y0156003D02*
X0232477Y0155252D01*
X0232477Y0153751D01*
X0277980Y0154501D02*
X0278731Y0153750D01*
X0280232Y0153750D01*
X0280983Y0154501D01*
X0282584Y0154501D02*
X0283335Y0153750D01*
X0284836Y0153750D01*
X0285587Y0154501D01*
X0285587Y0155251D01*
X0284836Y0156002D01*
X0284086Y0156002D01*
X0284836Y0156002D02*
X0285587Y0156753D01*
X0285587Y0157503D01*
X0284836Y0158254D01*
X0283335Y0158254D01*
X0282584Y0157503D01*
X0280983Y0157503D02*
X0280232Y0158254D01*
X0278731Y0158254D01*
X0277980Y0157503D01*
X0277980Y0154501D01*
X0279773Y0143504D02*
X0282775Y0139000D01*
X0284376Y0139000D02*
X0287379Y0139000D01*
X0285878Y0139000D02*
X0285878Y0143504D01*
X0284376Y0142003D01*
X0282775Y0143504D02*
X0279773Y0139000D01*
X0274837Y0068754D02*
X0273336Y0068003D01*
X0271834Y0066502D01*
X0274086Y0066502D01*
X0274837Y0065751D01*
X0274837Y0065001D01*
X0274086Y0064250D01*
X0272585Y0064250D01*
X0271834Y0065001D01*
X0271834Y0066502D01*
X0270233Y0068003D02*
X0269482Y0068754D01*
X0267981Y0068754D01*
X0267230Y0068003D01*
X0267230Y0065001D01*
X0267981Y0064250D01*
X0269482Y0064250D01*
X0270233Y0065001D01*
X0266598Y0036954D02*
X0264346Y0036954D01*
X0264346Y0032450D01*
X0264346Y0033951D02*
X0266598Y0033951D01*
X0267349Y0034702D01*
X0267349Y0036203D01*
X0266598Y0036954D01*
X0265847Y0033951D02*
X0267349Y0032450D01*
X0262745Y0032450D02*
X0259742Y0032450D01*
X0259742Y0036954D01*
X0262745Y0036954D01*
X0261243Y0034702D02*
X0259742Y0034702D01*
X0258141Y0032450D02*
X0258141Y0036954D01*
X0255138Y0036954D02*
X0255138Y0032450D01*
X0256640Y0033951D01*
X0258141Y0032450D01*
X0253537Y0033201D02*
X0253537Y0036203D01*
X0252786Y0036954D01*
X0251285Y0036954D01*
X0250534Y0036203D01*
X0250534Y0033201D01*
X0251285Y0032450D01*
X0252786Y0032450D01*
X0253537Y0033201D01*
X0248933Y0034702D02*
X0248933Y0036203D01*
X0248182Y0036954D01*
X0245930Y0036954D01*
X0245930Y0032450D01*
X0245930Y0033951D02*
X0248182Y0033951D01*
X0248933Y0034702D01*
X0287536Y0025133D02*
X0287536Y0022798D01*
X0287536Y0024550D02*
X0289871Y0024550D01*
X0289871Y0025133D02*
X0289871Y0022798D01*
X0291219Y0023382D02*
X0293554Y0025717D01*
X0293554Y0023382D01*
X0292971Y0022798D01*
X0291803Y0022798D01*
X0291219Y0023382D01*
X0291219Y0025717D01*
X0291803Y0026301D01*
X0292971Y0026301D01*
X0293554Y0025717D01*
X0289871Y0025133D02*
X0288704Y0026301D01*
X0287536Y0025133D01*
X0297536Y0025133D02*
X0297536Y0022798D01*
X0297536Y0024550D02*
X0299871Y0024550D01*
X0299871Y0025133D02*
X0299871Y0022798D01*
X0301219Y0022798D02*
X0303554Y0022798D01*
X0302387Y0022798D02*
X0302387Y0026301D01*
X0301219Y0025133D01*
X0299871Y0025133D02*
X0298704Y0026301D01*
X0297536Y0025133D01*
X0307536Y0025133D02*
X0307536Y0022798D01*
X0307536Y0024550D02*
X0309871Y0024550D01*
X0309871Y0025133D02*
X0309871Y0022798D01*
X0311219Y0022798D02*
X0313554Y0025133D01*
X0313554Y0025717D01*
X0312971Y0026301D01*
X0311803Y0026301D01*
X0311219Y0025717D01*
X0309871Y0025133D02*
X0308704Y0026301D01*
X0307536Y0025133D01*
X0311219Y0022798D02*
X0313554Y0022798D01*
X0317536Y0022798D02*
X0317536Y0025133D01*
X0318704Y0026301D01*
X0319871Y0025133D01*
X0319871Y0022798D01*
X0321219Y0023382D02*
X0321803Y0022798D01*
X0322971Y0022798D01*
X0323554Y0023382D01*
X0323554Y0023966D01*
X0322971Y0024550D01*
X0322387Y0024550D01*
X0322971Y0024550D02*
X0323554Y0025133D01*
X0323554Y0025717D01*
X0322971Y0026301D01*
X0321803Y0026301D01*
X0321219Y0025717D01*
X0319871Y0024550D02*
X0317536Y0024550D01*
X0327536Y0024550D02*
X0329871Y0024550D01*
X0329871Y0025133D02*
X0329871Y0022798D01*
X0331219Y0024550D02*
X0333554Y0024550D01*
X0332971Y0026301D02*
X0331219Y0024550D01*
X0329871Y0025133D02*
X0328704Y0026301D01*
X0327536Y0025133D01*
X0327536Y0022798D01*
X0332971Y0022798D02*
X0332971Y0026301D01*
X0337536Y0025133D02*
X0337536Y0022798D01*
X0337536Y0024550D02*
X0339871Y0024550D01*
X0339871Y0025133D02*
X0339871Y0022798D01*
X0341219Y0023382D02*
X0341803Y0022798D01*
X0342971Y0022798D01*
X0343554Y0023382D01*
X0343554Y0024550D01*
X0342971Y0025133D01*
X0342387Y0025133D01*
X0341219Y0024550D01*
X0341219Y0026301D01*
X0343554Y0026301D01*
X0339871Y0025133D02*
X0338704Y0026301D01*
X0337536Y0025133D01*
X0142629Y0207250D02*
X0141128Y0208751D01*
X0141878Y0208751D02*
X0139626Y0208751D01*
X0139626Y0207250D02*
X0139626Y0211754D01*
X0141878Y0211754D01*
X0142629Y0211003D01*
X0142629Y0209502D01*
X0141878Y0208751D01*
X0138025Y0207250D02*
X0138025Y0211754D01*
X0135023Y0211754D02*
X0135023Y0207250D01*
X0136524Y0208751D01*
X0138025Y0207250D01*
X0133421Y0209502D02*
X0132671Y0208751D01*
X0130419Y0208751D01*
X0130419Y0207250D02*
X0130419Y0211754D01*
X0132671Y0211754D01*
X0133421Y0211003D01*
X0133421Y0209502D01*
X0128817Y0206499D02*
X0125815Y0206499D01*
X0124213Y0208001D02*
X0124213Y0211003D01*
X0123463Y0211754D01*
X0121211Y0211754D01*
X0121211Y0207250D01*
X0123463Y0207250D01*
X0124213Y0208001D01*
X0119609Y0207250D02*
X0116607Y0207250D01*
X0116607Y0211754D01*
X0119609Y0211754D01*
X0118108Y0209502D02*
X0116607Y0209502D01*
X0115005Y0207250D02*
X0112003Y0207250D01*
X0112003Y0211754D01*
D14*
X0102731Y0195500D02*
X0102577Y0195502D01*
X0102423Y0195508D01*
X0102269Y0195518D01*
X0102115Y0195532D01*
X0101962Y0195549D01*
X0101810Y0195571D01*
X0101658Y0195597D01*
X0101506Y0195626D01*
X0101356Y0195660D01*
X0101206Y0195697D01*
X0101058Y0195738D01*
X0100910Y0195783D01*
X0100764Y0195832D01*
X0100619Y0195884D01*
X0100476Y0195940D01*
X0100333Y0196000D01*
X0100193Y0196063D01*
X0100054Y0196130D01*
X0099917Y0196201D01*
X0099782Y0196275D01*
X0099649Y0196352D01*
X0099517Y0196433D01*
X0099388Y0196517D01*
X0099261Y0196605D01*
X0099137Y0196696D01*
X0099015Y0196789D01*
X0098895Y0196887D01*
X0098778Y0196987D01*
X0098663Y0197090D01*
X0098551Y0197196D01*
X0098442Y0197304D01*
X0098336Y0197416D01*
X0098232Y0197530D01*
X0098132Y0197647D01*
X0098034Y0197766D01*
X0097940Y0197888D01*
X0097849Y0198013D01*
X0102730Y0207500D02*
X0102882Y0207498D01*
X0103033Y0207492D01*
X0103184Y0207483D01*
X0103336Y0207469D01*
X0103486Y0207452D01*
X0103636Y0207431D01*
X0103786Y0207406D01*
X0103935Y0207378D01*
X0104083Y0207345D01*
X0104230Y0207309D01*
X0104377Y0207270D01*
X0104522Y0207226D01*
X0104666Y0207179D01*
X0104809Y0207128D01*
X0104950Y0207074D01*
X0105091Y0207016D01*
X0105229Y0206955D01*
X0105366Y0206890D01*
X0105502Y0206821D01*
X0105635Y0206750D01*
X0105767Y0206675D01*
X0105897Y0206596D01*
X0106024Y0206515D01*
X0106150Y0206430D01*
X0106274Y0206342D01*
X0106395Y0206251D01*
X0106514Y0206157D01*
X0106630Y0206059D01*
X0106744Y0205959D01*
X0106856Y0205857D01*
X0106964Y0205751D01*
X0107070Y0205643D01*
X0107174Y0205532D01*
X0107274Y0205418D01*
X0107372Y0205302D01*
X0107466Y0205183D01*
X0102730Y0207500D02*
X0102578Y0207498D01*
X0102427Y0207492D01*
X0102276Y0207483D01*
X0102124Y0207469D01*
X0101974Y0207452D01*
X0101824Y0207431D01*
X0101674Y0207406D01*
X0101525Y0207378D01*
X0101377Y0207345D01*
X0101230Y0207309D01*
X0101083Y0207270D01*
X0100938Y0207226D01*
X0100794Y0207179D01*
X0100651Y0207128D01*
X0100510Y0207074D01*
X0100369Y0207016D01*
X0100231Y0206955D01*
X0100094Y0206890D01*
X0099958Y0206821D01*
X0099825Y0206750D01*
X0099693Y0206675D01*
X0099563Y0206596D01*
X0099436Y0206515D01*
X0099310Y0206430D01*
X0099186Y0206342D01*
X0099065Y0206251D01*
X0098946Y0206157D01*
X0098830Y0206059D01*
X0098716Y0205959D01*
X0098604Y0205857D01*
X0098496Y0205751D01*
X0098390Y0205643D01*
X0098286Y0205532D01*
X0098186Y0205418D01*
X0098088Y0205302D01*
X0097994Y0205183D01*
X0102730Y0195500D02*
X0102880Y0195502D01*
X0103031Y0195508D01*
X0103181Y0195517D01*
X0103330Y0195530D01*
X0103480Y0195547D01*
X0103629Y0195568D01*
X0103777Y0195592D01*
X0103925Y0195620D01*
X0104072Y0195652D01*
X0104218Y0195687D01*
X0104363Y0195727D01*
X0104507Y0195769D01*
X0104650Y0195816D01*
X0104792Y0195866D01*
X0104933Y0195919D01*
X0105072Y0195976D01*
X0105210Y0196036D01*
X0105346Y0196100D01*
X0105480Y0196167D01*
X0105613Y0196238D01*
X0105744Y0196312D01*
X0105873Y0196389D01*
X0106000Y0196470D01*
X0106125Y0196553D01*
X0106248Y0196640D01*
X0106369Y0196729D01*
X0106487Y0196822D01*
X0106603Y0196918D01*
X0106717Y0197016D01*
X0106828Y0197117D01*
X0106937Y0197222D01*
X0107042Y0197328D01*
X0107146Y0197438D01*
X0107246Y0197550D01*
X0107344Y0197664D01*
X0107438Y0197781D01*
X0107530Y0197900D01*
X0159230Y0203000D02*
X0161730Y0200500D01*
X0166730Y0200500D01*
X0169230Y0203000D01*
X0171730Y0200500D01*
X0176730Y0200500D01*
X0179230Y0203000D01*
X0179230Y0208000D01*
X0176730Y0210500D01*
X0171730Y0210500D01*
X0169230Y0208000D01*
X0169230Y0203000D01*
X0169230Y0208000D02*
X0166730Y0210500D01*
X0161730Y0210500D01*
X0159230Y0208000D01*
X0159230Y0203000D01*
X0179230Y0203000D02*
X0181730Y0200500D01*
X0186730Y0200500D01*
X0189230Y0203000D01*
X0191730Y0200500D01*
X0196730Y0200500D01*
X0199230Y0203000D01*
X0201730Y0200500D01*
X0206730Y0200500D01*
X0209230Y0203000D01*
X0209230Y0208000D01*
X0206730Y0210500D01*
X0201730Y0210500D01*
X0199230Y0208000D01*
X0199230Y0203000D01*
X0196021Y0197432D02*
X0192685Y0197432D01*
X0191851Y0196598D01*
X0191851Y0194096D01*
X0196855Y0194096D01*
X0196855Y0196598D01*
X0196021Y0197432D01*
X0196855Y0192275D02*
X0191851Y0192275D01*
X0186398Y0192375D02*
X0186398Y0189039D01*
X0181393Y0189039D01*
X0181393Y0192375D01*
X0181393Y0194196D02*
X0181393Y0197532D01*
X0183896Y0195864D02*
X0183896Y0194196D01*
X0186398Y0194196D02*
X0181393Y0194196D01*
X0183896Y0190707D02*
X0183896Y0189039D01*
X0183896Y0187219D02*
X0184730Y0186385D01*
X0184730Y0183883D01*
X0186398Y0183883D02*
X0181393Y0183883D01*
X0181393Y0186385D01*
X0182228Y0187219D01*
X0183896Y0187219D01*
X0184730Y0185551D02*
X0186398Y0187219D01*
X0191851Y0186285D02*
X0191851Y0184617D01*
X0192685Y0183783D01*
X0196021Y0183783D01*
X0196855Y0184617D01*
X0196855Y0186285D01*
X0196021Y0187119D01*
X0194353Y0187119D01*
X0194353Y0185451D01*
X0192685Y0187119D02*
X0191851Y0186285D01*
X0191851Y0188939D02*
X0196855Y0192275D01*
X0196855Y0188939D02*
X0191851Y0188939D01*
X0186398Y0182063D02*
X0183062Y0182063D01*
X0181393Y0180394D01*
X0183062Y0178726D01*
X0186398Y0178726D01*
X0183896Y0178726D02*
X0183896Y0182063D01*
X0209230Y0203000D02*
X0211730Y0200500D01*
X0216730Y0200500D01*
X0219230Y0203000D01*
X0221730Y0200500D01*
X0226730Y0200500D01*
X0229230Y0203000D01*
X0231730Y0200500D01*
X0236730Y0200500D01*
X0239230Y0203000D01*
X0239230Y0208000D01*
X0236730Y0210500D01*
X0231730Y0210500D01*
X0229230Y0208000D01*
X0229230Y0203000D01*
X0239230Y0203000D02*
X0241730Y0200500D01*
X0246730Y0200500D01*
X0249230Y0203000D01*
X0251730Y0200500D01*
X0256730Y0200500D01*
X0259230Y0203000D01*
X0259230Y0208000D01*
X0256730Y0210500D01*
X0251730Y0210500D01*
X0249230Y0208000D01*
X0249230Y0203000D01*
X0249230Y0208000D02*
X0246730Y0210500D01*
X0241730Y0210500D01*
X0239230Y0208000D01*
X0229230Y0208000D02*
X0226730Y0210500D01*
X0221730Y0210500D01*
X0219230Y0208000D01*
X0219230Y0203000D01*
X0219230Y0208000D02*
X0216730Y0210500D01*
X0211730Y0210500D01*
X0209230Y0208000D01*
X0199230Y0208000D02*
X0196730Y0210500D01*
X0191730Y0210500D01*
X0189230Y0208000D01*
X0189230Y0203000D01*
X0189230Y0208000D02*
X0186730Y0210500D01*
X0181730Y0210500D01*
X0179230Y0208000D01*
X0222877Y0186202D02*
X0226680Y0186202D01*
X0226680Y0184934D02*
X0222877Y0184934D01*
X0224145Y0184300D02*
X0224145Y0186202D01*
X0224145Y0186835D01*
X0225413Y0186835D02*
X0225413Y0184300D01*
X0232877Y0184934D02*
X0236680Y0184934D01*
X0236680Y0186202D02*
X0232877Y0186202D01*
X0234145Y0186202D02*
X0234145Y0186835D01*
X0234145Y0186202D02*
X0234145Y0184300D01*
X0235413Y0184300D02*
X0235413Y0186835D01*
X0242377Y0189934D02*
X0246180Y0189934D01*
X0246180Y0191202D02*
X0242377Y0191202D01*
X0243645Y0191202D02*
X0243645Y0191835D01*
X0243645Y0191202D02*
X0243645Y0189300D01*
X0244913Y0189300D02*
X0244913Y0191835D01*
X0251780Y0179103D02*
X0253048Y0179103D01*
X0251780Y0179103D02*
X0251780Y0175300D01*
X0253048Y0175300D01*
X0254481Y0176568D02*
X0257017Y0176568D01*
X0257017Y0177835D02*
X0256383Y0177835D01*
X0254481Y0177835D01*
X0255115Y0179103D02*
X0255115Y0175300D01*
X0256383Y0175300D02*
X0256383Y0179103D01*
X0258533Y0177835D02*
X0261068Y0177835D01*
X0261068Y0176568D02*
X0258533Y0176568D01*
X0262584Y0176568D02*
X0264486Y0176568D01*
X0265120Y0177202D01*
X0265120Y0178469D01*
X0264486Y0179103D01*
X0262584Y0179103D01*
X0262584Y0175300D01*
X0266636Y0175300D02*
X0267903Y0176568D01*
X0269171Y0175300D01*
X0269171Y0179103D01*
X0270687Y0179103D02*
X0271955Y0177835D01*
X0273223Y0179103D01*
X0273223Y0175300D01*
X0274739Y0175300D02*
X0276006Y0175300D01*
X0276006Y0179103D01*
X0274739Y0179103D01*
X0270687Y0179103D02*
X0270687Y0175300D01*
X0266636Y0175300D02*
X0266636Y0179103D01*
X0278877Y0189934D02*
X0282680Y0189934D01*
X0282680Y0191202D02*
X0278877Y0191202D01*
X0280145Y0191202D02*
X0280145Y0189300D01*
X0281413Y0189300D02*
X0281413Y0191835D01*
X0280145Y0191835D02*
X0280145Y0191202D01*
X0288377Y0191202D02*
X0292180Y0191202D01*
X0292180Y0189934D02*
X0288377Y0189934D01*
X0289645Y0189300D02*
X0289645Y0191202D01*
X0289645Y0191835D01*
X0290913Y0191835D02*
X0290913Y0189300D01*
X0292980Y0200500D02*
X0287980Y0200500D01*
X0285480Y0203000D01*
X0282980Y0200500D01*
X0277980Y0200500D01*
X0275480Y0203000D01*
X0272980Y0200500D01*
X0267980Y0200500D01*
X0265480Y0203000D01*
X0265480Y0208000D01*
X0267980Y0210500D01*
X0272980Y0210500D01*
X0275480Y0208000D01*
X0277980Y0210500D01*
X0282980Y0210500D01*
X0285480Y0208000D01*
X0287980Y0210500D01*
X0292980Y0210500D01*
X0295480Y0208000D01*
X0297980Y0210500D01*
X0302980Y0210500D01*
X0305480Y0208000D01*
X0307980Y0210500D01*
X0312980Y0210500D01*
X0315480Y0208000D01*
X0317980Y0210500D01*
X0322980Y0210500D01*
X0325480Y0208000D01*
X0327980Y0210500D01*
X0332980Y0210500D01*
X0335480Y0208000D01*
X0337980Y0210500D01*
X0342980Y0210500D01*
X0345480Y0208000D01*
X0345480Y0203000D01*
X0342980Y0200500D01*
X0337980Y0200500D01*
X0335480Y0203000D01*
X0332980Y0200500D01*
X0327980Y0200500D01*
X0325480Y0203000D01*
X0325480Y0208000D01*
X0325480Y0203000D02*
X0322980Y0200500D01*
X0317980Y0200500D01*
X0315480Y0203000D01*
X0312980Y0200500D01*
X0307980Y0200500D01*
X0305480Y0203000D01*
X0302980Y0200500D01*
X0297980Y0200500D01*
X0295480Y0203000D01*
X0295480Y0208000D01*
X0305480Y0208000D02*
X0305480Y0203000D01*
X0295480Y0203000D02*
X0292980Y0200500D01*
X0285480Y0203000D02*
X0285480Y0208000D01*
X0275480Y0208000D02*
X0275480Y0203000D01*
X0308377Y0191202D02*
X0312180Y0191202D01*
X0312180Y0189934D02*
X0308377Y0189934D01*
X0309645Y0189300D02*
X0309645Y0191202D01*
X0309645Y0191835D01*
X0310913Y0191835D02*
X0310913Y0189300D01*
X0328159Y0185341D02*
X0333163Y0182004D01*
X0333163Y0185341D02*
X0328159Y0182004D01*
X0328159Y0180184D02*
X0328159Y0176848D01*
X0328159Y0178516D02*
X0333163Y0178516D01*
X0338176Y0179302D02*
X0339010Y0180136D01*
X0340678Y0180136D01*
X0341512Y0179302D01*
X0341512Y0176800D01*
X0341512Y0178468D02*
X0343180Y0180136D01*
X0343180Y0181956D02*
X0338176Y0185293D01*
X0338176Y0181956D02*
X0343180Y0185293D01*
X0338176Y0179302D02*
X0338176Y0176800D01*
X0343180Y0176800D01*
X0335480Y0203000D02*
X0335480Y0208000D01*
X0315480Y0208000D02*
X0315480Y0203000D01*
X0275730Y0161500D02*
X0258730Y0161500D01*
X0258670Y0161498D01*
X0258609Y0161493D01*
X0258550Y0161484D01*
X0258491Y0161471D01*
X0258432Y0161455D01*
X0258375Y0161435D01*
X0258320Y0161412D01*
X0258265Y0161385D01*
X0258213Y0161356D01*
X0258162Y0161323D01*
X0258113Y0161287D01*
X0258067Y0161249D01*
X0258023Y0161207D01*
X0257981Y0161163D01*
X0257943Y0161117D01*
X0257907Y0161068D01*
X0257874Y0161017D01*
X0257845Y0160965D01*
X0257818Y0160910D01*
X0257795Y0160855D01*
X0257775Y0160798D01*
X0257759Y0160739D01*
X0257746Y0160680D01*
X0257737Y0160621D01*
X0257732Y0160560D01*
X0257730Y0160500D01*
X0257730Y0152500D01*
X0257732Y0152440D01*
X0257737Y0152379D01*
X0257746Y0152320D01*
X0257759Y0152261D01*
X0257775Y0152202D01*
X0257795Y0152145D01*
X0257818Y0152090D01*
X0257845Y0152035D01*
X0257874Y0151983D01*
X0257907Y0151932D01*
X0257943Y0151883D01*
X0257981Y0151837D01*
X0258023Y0151793D01*
X0258067Y0151751D01*
X0258113Y0151713D01*
X0258162Y0151677D01*
X0258213Y0151644D01*
X0258265Y0151615D01*
X0258320Y0151588D01*
X0258375Y0151565D01*
X0258432Y0151545D01*
X0258491Y0151529D01*
X0258550Y0151516D01*
X0258609Y0151507D01*
X0258670Y0151502D01*
X0258730Y0151500D01*
X0275730Y0151500D01*
X0275790Y0151502D01*
X0275851Y0151507D01*
X0275910Y0151516D01*
X0275969Y0151529D01*
X0276028Y0151545D01*
X0276085Y0151565D01*
X0276140Y0151588D01*
X0276195Y0151615D01*
X0276247Y0151644D01*
X0276298Y0151677D01*
X0276347Y0151713D01*
X0276393Y0151751D01*
X0276437Y0151793D01*
X0276479Y0151837D01*
X0276517Y0151883D01*
X0276553Y0151932D01*
X0276586Y0151983D01*
X0276615Y0152035D01*
X0276642Y0152090D01*
X0276665Y0152145D01*
X0276685Y0152202D01*
X0276701Y0152261D01*
X0276714Y0152320D01*
X0276723Y0152379D01*
X0276728Y0152440D01*
X0276730Y0152500D01*
X0276730Y0160500D01*
X0276728Y0160560D01*
X0276723Y0160621D01*
X0276714Y0160680D01*
X0276701Y0160739D01*
X0276685Y0160798D01*
X0276665Y0160855D01*
X0276642Y0160910D01*
X0276615Y0160965D01*
X0276586Y0161017D01*
X0276553Y0161068D01*
X0276517Y0161117D01*
X0276479Y0161163D01*
X0276437Y0161207D01*
X0276393Y0161249D01*
X0276347Y0161287D01*
X0276298Y0161323D01*
X0276247Y0161356D01*
X0276195Y0161385D01*
X0276140Y0161412D01*
X0276085Y0161435D01*
X0276028Y0161455D01*
X0275969Y0161471D01*
X0275910Y0161484D01*
X0275851Y0161493D01*
X0275790Y0161498D01*
X0275730Y0161500D01*
X0268730Y0156500D02*
X0268230Y0156500D01*
X0266230Y0156500D02*
X0265730Y0156500D01*
X0269480Y0149000D02*
X0242480Y0149000D01*
X0237980Y0151500D02*
X0254980Y0151500D01*
X0255040Y0151502D01*
X0255101Y0151507D01*
X0255160Y0151516D01*
X0255219Y0151529D01*
X0255278Y0151545D01*
X0255335Y0151565D01*
X0255390Y0151588D01*
X0255445Y0151615D01*
X0255497Y0151644D01*
X0255548Y0151677D01*
X0255597Y0151713D01*
X0255643Y0151751D01*
X0255687Y0151793D01*
X0255729Y0151837D01*
X0255767Y0151883D01*
X0255803Y0151932D01*
X0255836Y0151983D01*
X0255865Y0152035D01*
X0255892Y0152090D01*
X0255915Y0152145D01*
X0255935Y0152202D01*
X0255951Y0152261D01*
X0255964Y0152320D01*
X0255973Y0152379D01*
X0255978Y0152440D01*
X0255980Y0152500D01*
X0255980Y0160500D01*
X0255978Y0160560D01*
X0255973Y0160621D01*
X0255964Y0160680D01*
X0255951Y0160739D01*
X0255935Y0160798D01*
X0255915Y0160855D01*
X0255892Y0160910D01*
X0255865Y0160965D01*
X0255836Y0161017D01*
X0255803Y0161068D01*
X0255767Y0161117D01*
X0255729Y0161163D01*
X0255687Y0161207D01*
X0255643Y0161249D01*
X0255597Y0161287D01*
X0255548Y0161323D01*
X0255497Y0161356D01*
X0255445Y0161385D01*
X0255390Y0161412D01*
X0255335Y0161435D01*
X0255278Y0161455D01*
X0255219Y0161471D01*
X0255160Y0161484D01*
X0255101Y0161493D01*
X0255040Y0161498D01*
X0254980Y0161500D01*
X0237980Y0161500D01*
X0237920Y0161498D01*
X0237859Y0161493D01*
X0237800Y0161484D01*
X0237741Y0161471D01*
X0237682Y0161455D01*
X0237625Y0161435D01*
X0237570Y0161412D01*
X0237515Y0161385D01*
X0237463Y0161356D01*
X0237412Y0161323D01*
X0237363Y0161287D01*
X0237317Y0161249D01*
X0237273Y0161207D01*
X0237231Y0161163D01*
X0237193Y0161117D01*
X0237157Y0161068D01*
X0237124Y0161017D01*
X0237095Y0160965D01*
X0237068Y0160910D01*
X0237045Y0160855D01*
X0237025Y0160798D01*
X0237009Y0160739D01*
X0236996Y0160680D01*
X0236987Y0160621D01*
X0236982Y0160560D01*
X0236980Y0160500D01*
X0236980Y0152500D01*
X0236982Y0152440D01*
X0236987Y0152379D01*
X0236996Y0152320D01*
X0237009Y0152261D01*
X0237025Y0152202D01*
X0237045Y0152145D01*
X0237068Y0152090D01*
X0237095Y0152035D01*
X0237124Y0151983D01*
X0237157Y0151932D01*
X0237193Y0151883D01*
X0237231Y0151837D01*
X0237273Y0151793D01*
X0237317Y0151751D01*
X0237363Y0151713D01*
X0237412Y0151677D01*
X0237463Y0151644D01*
X0237515Y0151615D01*
X0237570Y0151588D01*
X0237625Y0151565D01*
X0237682Y0151545D01*
X0237741Y0151529D01*
X0237800Y0151516D01*
X0237859Y0151507D01*
X0237920Y0151502D01*
X0237980Y0151500D01*
X0244980Y0156500D02*
X0245480Y0156500D01*
X0247480Y0156500D02*
X0247980Y0156500D01*
X0242480Y0149000D02*
X0242261Y0148997D01*
X0242042Y0148989D01*
X0241823Y0148976D01*
X0241605Y0148957D01*
X0241387Y0148933D01*
X0241170Y0148904D01*
X0240953Y0148870D01*
X0240738Y0148830D01*
X0240523Y0148785D01*
X0240310Y0148734D01*
X0240098Y0148679D01*
X0239887Y0148618D01*
X0239678Y0148553D01*
X0239471Y0148482D01*
X0239265Y0148406D01*
X0239061Y0148325D01*
X0238859Y0148240D01*
X0238660Y0148149D01*
X0238463Y0148054D01*
X0238268Y0147953D01*
X0238075Y0147848D01*
X0237885Y0147739D01*
X0237698Y0147625D01*
X0237514Y0147506D01*
X0237333Y0147383D01*
X0237155Y0147255D01*
X0236979Y0147123D01*
X0236808Y0146987D01*
X0236639Y0146847D01*
X0236474Y0146703D01*
X0236313Y0146555D01*
X0236155Y0146403D01*
X0236001Y0146247D01*
X0235851Y0146087D01*
X0235704Y0145924D01*
X0235562Y0145757D01*
X0235424Y0145587D01*
X0235290Y0145413D01*
X0235160Y0145237D01*
X0235035Y0145057D01*
X0234914Y0144874D01*
X0234798Y0144688D01*
X0234686Y0144500D01*
X0234579Y0144309D01*
X0234476Y0144115D01*
X0234378Y0143919D01*
X0234285Y0143721D01*
X0234197Y0143520D01*
X0234114Y0143317D01*
X0234035Y0143112D01*
X0233962Y0142906D01*
X0233894Y0142698D01*
X0233831Y0142488D01*
X0233773Y0142276D01*
X0233720Y0142064D01*
X0233672Y0141850D01*
X0233630Y0141635D01*
X0233593Y0141419D01*
X0233561Y0141202D01*
X0233534Y0140984D01*
X0233513Y0140766D01*
X0233497Y0140548D01*
X0233486Y0140329D01*
X0233481Y0140110D01*
X0233481Y0139890D01*
X0233486Y0139671D01*
X0233497Y0139452D01*
X0233513Y0139234D01*
X0233534Y0139016D01*
X0233561Y0138798D01*
X0233593Y0138581D01*
X0233630Y0138365D01*
X0233672Y0138150D01*
X0233720Y0137936D01*
X0233773Y0137724D01*
X0233831Y0137512D01*
X0233894Y0137302D01*
X0233962Y0137094D01*
X0234035Y0136888D01*
X0234114Y0136683D01*
X0234197Y0136480D01*
X0234285Y0136279D01*
X0234378Y0136081D01*
X0234476Y0135885D01*
X0234579Y0135691D01*
X0234686Y0135500D01*
X0234798Y0135312D01*
X0234914Y0135126D01*
X0235035Y0134943D01*
X0235160Y0134763D01*
X0235290Y0134587D01*
X0235424Y0134413D01*
X0235562Y0134243D01*
X0235704Y0134076D01*
X0235851Y0133913D01*
X0236001Y0133753D01*
X0236155Y0133597D01*
X0236313Y0133445D01*
X0236474Y0133297D01*
X0236639Y0133153D01*
X0236808Y0133013D01*
X0236979Y0132877D01*
X0237155Y0132745D01*
X0237333Y0132617D01*
X0237514Y0132494D01*
X0237698Y0132375D01*
X0237885Y0132261D01*
X0238075Y0132152D01*
X0238268Y0132047D01*
X0238463Y0131946D01*
X0238660Y0131851D01*
X0238859Y0131760D01*
X0239061Y0131675D01*
X0239265Y0131594D01*
X0239471Y0131518D01*
X0239678Y0131447D01*
X0239887Y0131382D01*
X0240098Y0131321D01*
X0240310Y0131266D01*
X0240523Y0131215D01*
X0240738Y0131170D01*
X0240953Y0131130D01*
X0241170Y0131096D01*
X0241387Y0131067D01*
X0241605Y0131043D01*
X0241823Y0131024D01*
X0242042Y0131011D01*
X0242261Y0131003D01*
X0242480Y0131000D01*
X0269480Y0131000D01*
X0269699Y0131003D01*
X0269918Y0131011D01*
X0270137Y0131024D01*
X0270355Y0131043D01*
X0270573Y0131067D01*
X0270790Y0131096D01*
X0271007Y0131130D01*
X0271222Y0131170D01*
X0271437Y0131215D01*
X0271650Y0131266D01*
X0271862Y0131321D01*
X0272073Y0131382D01*
X0272282Y0131447D01*
X0272489Y0131518D01*
X0272695Y0131594D01*
X0272899Y0131675D01*
X0273101Y0131760D01*
X0273300Y0131851D01*
X0273497Y0131946D01*
X0273692Y0132047D01*
X0273885Y0132152D01*
X0274075Y0132261D01*
X0274262Y0132375D01*
X0274446Y0132494D01*
X0274627Y0132617D01*
X0274805Y0132745D01*
X0274981Y0132877D01*
X0275152Y0133013D01*
X0275321Y0133153D01*
X0275486Y0133297D01*
X0275647Y0133445D01*
X0275805Y0133597D01*
X0275959Y0133753D01*
X0276109Y0133913D01*
X0276256Y0134076D01*
X0276398Y0134243D01*
X0276536Y0134413D01*
X0276670Y0134587D01*
X0276800Y0134763D01*
X0276925Y0134943D01*
X0277046Y0135126D01*
X0277162Y0135312D01*
X0277274Y0135500D01*
X0277381Y0135691D01*
X0277484Y0135885D01*
X0277582Y0136081D01*
X0277675Y0136279D01*
X0277763Y0136480D01*
X0277846Y0136683D01*
X0277925Y0136888D01*
X0277998Y0137094D01*
X0278066Y0137302D01*
X0278129Y0137512D01*
X0278187Y0137724D01*
X0278240Y0137936D01*
X0278288Y0138150D01*
X0278330Y0138365D01*
X0278367Y0138581D01*
X0278399Y0138798D01*
X0278426Y0139016D01*
X0278447Y0139234D01*
X0278463Y0139452D01*
X0278474Y0139671D01*
X0278479Y0139890D01*
X0278479Y0140110D01*
X0278474Y0140329D01*
X0278463Y0140548D01*
X0278447Y0140766D01*
X0278426Y0140984D01*
X0278399Y0141202D01*
X0278367Y0141419D01*
X0278330Y0141635D01*
X0278288Y0141850D01*
X0278240Y0142064D01*
X0278187Y0142276D01*
X0278129Y0142488D01*
X0278066Y0142698D01*
X0277998Y0142906D01*
X0277925Y0143112D01*
X0277846Y0143317D01*
X0277763Y0143520D01*
X0277675Y0143721D01*
X0277582Y0143919D01*
X0277484Y0144115D01*
X0277381Y0144309D01*
X0277274Y0144500D01*
X0277162Y0144688D01*
X0277046Y0144874D01*
X0276925Y0145057D01*
X0276800Y0145237D01*
X0276670Y0145413D01*
X0276536Y0145587D01*
X0276398Y0145757D01*
X0276256Y0145924D01*
X0276109Y0146087D01*
X0275959Y0146247D01*
X0275805Y0146403D01*
X0275647Y0146555D01*
X0275486Y0146703D01*
X0275321Y0146847D01*
X0275152Y0146987D01*
X0274981Y0147123D01*
X0274805Y0147255D01*
X0274627Y0147383D01*
X0274446Y0147506D01*
X0274262Y0147625D01*
X0274075Y0147739D01*
X0273885Y0147848D01*
X0273692Y0147953D01*
X0273497Y0148054D01*
X0273300Y0148149D01*
X0273101Y0148240D01*
X0272899Y0148325D01*
X0272695Y0148406D01*
X0272489Y0148482D01*
X0272282Y0148553D01*
X0272073Y0148618D01*
X0271862Y0148679D01*
X0271650Y0148734D01*
X0271437Y0148785D01*
X0271222Y0148830D01*
X0271007Y0148870D01*
X0270790Y0148904D01*
X0270573Y0148933D01*
X0270355Y0148957D01*
X0270137Y0148976D01*
X0269918Y0148989D01*
X0269699Y0148997D01*
X0269480Y0149000D01*
X0202480Y0116000D02*
X0202480Y0094000D01*
X0348480Y0094000D01*
X0348480Y0102500D01*
X0348382Y0102502D01*
X0348284Y0102508D01*
X0348186Y0102517D01*
X0348089Y0102531D01*
X0347992Y0102548D01*
X0347896Y0102569D01*
X0347801Y0102594D01*
X0347707Y0102622D01*
X0347615Y0102655D01*
X0347523Y0102690D01*
X0347433Y0102730D01*
X0347345Y0102772D01*
X0347258Y0102819D01*
X0347174Y0102868D01*
X0347091Y0102921D01*
X0347011Y0102977D01*
X0346932Y0103037D01*
X0346856Y0103099D01*
X0346783Y0103164D01*
X0346712Y0103232D01*
X0346644Y0103303D01*
X0346579Y0103376D01*
X0346517Y0103452D01*
X0346457Y0103531D01*
X0346401Y0103611D01*
X0346348Y0103694D01*
X0346299Y0103778D01*
X0346252Y0103865D01*
X0346210Y0103953D01*
X0346170Y0104043D01*
X0346135Y0104135D01*
X0346102Y0104227D01*
X0346074Y0104321D01*
X0346049Y0104416D01*
X0346028Y0104512D01*
X0346011Y0104609D01*
X0345997Y0104706D01*
X0345988Y0104804D01*
X0345982Y0104902D01*
X0345980Y0105000D01*
X0345982Y0105098D01*
X0345988Y0105196D01*
X0345997Y0105294D01*
X0346011Y0105391D01*
X0346028Y0105488D01*
X0346049Y0105584D01*
X0346074Y0105679D01*
X0346102Y0105773D01*
X0346135Y0105865D01*
X0346170Y0105957D01*
X0346210Y0106047D01*
X0346252Y0106135D01*
X0346299Y0106222D01*
X0346348Y0106306D01*
X0346401Y0106389D01*
X0346457Y0106469D01*
X0346517Y0106548D01*
X0346579Y0106624D01*
X0346644Y0106697D01*
X0346712Y0106768D01*
X0346783Y0106836D01*
X0346856Y0106901D01*
X0346932Y0106963D01*
X0347011Y0107023D01*
X0347091Y0107079D01*
X0347174Y0107132D01*
X0347258Y0107181D01*
X0347345Y0107228D01*
X0347433Y0107270D01*
X0347523Y0107310D01*
X0347615Y0107345D01*
X0347707Y0107378D01*
X0347801Y0107406D01*
X0347896Y0107431D01*
X0347992Y0107452D01*
X0348089Y0107469D01*
X0348186Y0107483D01*
X0348284Y0107492D01*
X0348382Y0107498D01*
X0348480Y0107500D01*
X0348480Y0116000D01*
X0202480Y0116000D01*
X0174230Y0111750D02*
X0164230Y0111750D01*
X0164230Y0121750D01*
X0164230Y0131750D01*
X0164230Y0141750D01*
X0164230Y0151750D01*
X0174230Y0151750D01*
X0174230Y0141750D01*
X0164230Y0141750D01*
X0174230Y0141750D02*
X0174230Y0131750D01*
X0164230Y0131750D01*
X0174230Y0131750D02*
X0174230Y0121750D01*
X0164230Y0121750D01*
X0174230Y0121750D02*
X0174230Y0111750D01*
X0149480Y0082500D02*
X0149480Y0081500D01*
X0150480Y0081500D01*
X0149480Y0081500D02*
X0149480Y0080500D01*
X0149480Y0081500D02*
X0148480Y0081500D01*
X0144980Y0076500D02*
X0144983Y0076745D01*
X0144992Y0076991D01*
X0145007Y0077236D01*
X0145028Y0077480D01*
X0145055Y0077724D01*
X0145088Y0077967D01*
X0145127Y0078210D01*
X0145172Y0078451D01*
X0145223Y0078691D01*
X0145280Y0078930D01*
X0145342Y0079167D01*
X0145411Y0079403D01*
X0145485Y0079637D01*
X0145565Y0079869D01*
X0145650Y0080099D01*
X0145741Y0080327D01*
X0145838Y0080552D01*
X0145940Y0080776D01*
X0146048Y0080996D01*
X0146161Y0081214D01*
X0146279Y0081429D01*
X0146403Y0081641D01*
X0146531Y0081850D01*
X0146665Y0082056D01*
X0146804Y0082258D01*
X0146948Y0082457D01*
X0147097Y0082652D01*
X0147250Y0082844D01*
X0147408Y0083032D01*
X0147570Y0083216D01*
X0147738Y0083395D01*
X0147909Y0083571D01*
X0148085Y0083742D01*
X0148264Y0083910D01*
X0148448Y0084072D01*
X0148636Y0084230D01*
X0148828Y0084383D01*
X0149023Y0084532D01*
X0149222Y0084676D01*
X0149424Y0084815D01*
X0149630Y0084949D01*
X0149839Y0085077D01*
X0150051Y0085201D01*
X0150266Y0085319D01*
X0150484Y0085432D01*
X0150704Y0085540D01*
X0150928Y0085642D01*
X0151153Y0085739D01*
X0151381Y0085830D01*
X0151611Y0085915D01*
X0151843Y0085995D01*
X0152077Y0086069D01*
X0152313Y0086138D01*
X0152550Y0086200D01*
X0152789Y0086257D01*
X0153029Y0086308D01*
X0153270Y0086353D01*
X0153513Y0086392D01*
X0153756Y0086425D01*
X0154000Y0086452D01*
X0154244Y0086473D01*
X0154489Y0086488D01*
X0154735Y0086497D01*
X0154980Y0086500D01*
X0155225Y0086497D01*
X0155471Y0086488D01*
X0155716Y0086473D01*
X0155960Y0086452D01*
X0156204Y0086425D01*
X0156447Y0086392D01*
X0156690Y0086353D01*
X0156931Y0086308D01*
X0157171Y0086257D01*
X0157410Y0086200D01*
X0157647Y0086138D01*
X0157883Y0086069D01*
X0158117Y0085995D01*
X0158349Y0085915D01*
X0158579Y0085830D01*
X0158807Y0085739D01*
X0159032Y0085642D01*
X0159256Y0085540D01*
X0159476Y0085432D01*
X0159694Y0085319D01*
X0159909Y0085201D01*
X0160121Y0085077D01*
X0160330Y0084949D01*
X0160536Y0084815D01*
X0160738Y0084676D01*
X0160937Y0084532D01*
X0161132Y0084383D01*
X0161324Y0084230D01*
X0161512Y0084072D01*
X0161696Y0083910D01*
X0161875Y0083742D01*
X0162051Y0083571D01*
X0162222Y0083395D01*
X0162390Y0083216D01*
X0162552Y0083032D01*
X0162710Y0082844D01*
X0162863Y0082652D01*
X0163012Y0082457D01*
X0163156Y0082258D01*
X0163295Y0082056D01*
X0163429Y0081850D01*
X0163557Y0081641D01*
X0163681Y0081429D01*
X0163799Y0081214D01*
X0163912Y0080996D01*
X0164020Y0080776D01*
X0164122Y0080552D01*
X0164219Y0080327D01*
X0164310Y0080099D01*
X0164395Y0079869D01*
X0164475Y0079637D01*
X0164549Y0079403D01*
X0164618Y0079167D01*
X0164680Y0078930D01*
X0164737Y0078691D01*
X0164788Y0078451D01*
X0164833Y0078210D01*
X0164872Y0077967D01*
X0164905Y0077724D01*
X0164932Y0077480D01*
X0164953Y0077236D01*
X0164968Y0076991D01*
X0164977Y0076745D01*
X0164980Y0076500D01*
X0164977Y0076255D01*
X0164968Y0076009D01*
X0164953Y0075764D01*
X0164932Y0075520D01*
X0164905Y0075276D01*
X0164872Y0075033D01*
X0164833Y0074790D01*
X0164788Y0074549D01*
X0164737Y0074309D01*
X0164680Y0074070D01*
X0164618Y0073833D01*
X0164549Y0073597D01*
X0164475Y0073363D01*
X0164395Y0073131D01*
X0164310Y0072901D01*
X0164219Y0072673D01*
X0164122Y0072448D01*
X0164020Y0072224D01*
X0163912Y0072004D01*
X0163799Y0071786D01*
X0163681Y0071571D01*
X0163557Y0071359D01*
X0163429Y0071150D01*
X0163295Y0070944D01*
X0163156Y0070742D01*
X0163012Y0070543D01*
X0162863Y0070348D01*
X0162710Y0070156D01*
X0162552Y0069968D01*
X0162390Y0069784D01*
X0162222Y0069605D01*
X0162051Y0069429D01*
X0161875Y0069258D01*
X0161696Y0069090D01*
X0161512Y0068928D01*
X0161324Y0068770D01*
X0161132Y0068617D01*
X0160937Y0068468D01*
X0160738Y0068324D01*
X0160536Y0068185D01*
X0160330Y0068051D01*
X0160121Y0067923D01*
X0159909Y0067799D01*
X0159694Y0067681D01*
X0159476Y0067568D01*
X0159256Y0067460D01*
X0159032Y0067358D01*
X0158807Y0067261D01*
X0158579Y0067170D01*
X0158349Y0067085D01*
X0158117Y0067005D01*
X0157883Y0066931D01*
X0157647Y0066862D01*
X0157410Y0066800D01*
X0157171Y0066743D01*
X0156931Y0066692D01*
X0156690Y0066647D01*
X0156447Y0066608D01*
X0156204Y0066575D01*
X0155960Y0066548D01*
X0155716Y0066527D01*
X0155471Y0066512D01*
X0155225Y0066503D01*
X0154980Y0066500D01*
X0154735Y0066503D01*
X0154489Y0066512D01*
X0154244Y0066527D01*
X0154000Y0066548D01*
X0153756Y0066575D01*
X0153513Y0066608D01*
X0153270Y0066647D01*
X0153029Y0066692D01*
X0152789Y0066743D01*
X0152550Y0066800D01*
X0152313Y0066862D01*
X0152077Y0066931D01*
X0151843Y0067005D01*
X0151611Y0067085D01*
X0151381Y0067170D01*
X0151153Y0067261D01*
X0150928Y0067358D01*
X0150704Y0067460D01*
X0150484Y0067568D01*
X0150266Y0067681D01*
X0150051Y0067799D01*
X0149839Y0067923D01*
X0149630Y0068051D01*
X0149424Y0068185D01*
X0149222Y0068324D01*
X0149023Y0068468D01*
X0148828Y0068617D01*
X0148636Y0068770D01*
X0148448Y0068928D01*
X0148264Y0069090D01*
X0148085Y0069258D01*
X0147909Y0069429D01*
X0147738Y0069605D01*
X0147570Y0069784D01*
X0147408Y0069968D01*
X0147250Y0070156D01*
X0147097Y0070348D01*
X0146948Y0070543D01*
X0146804Y0070742D01*
X0146665Y0070944D01*
X0146531Y0071150D01*
X0146403Y0071359D01*
X0146279Y0071571D01*
X0146161Y0071786D01*
X0146048Y0072004D01*
X0145940Y0072224D01*
X0145838Y0072448D01*
X0145741Y0072673D01*
X0145650Y0072901D01*
X0145565Y0073131D01*
X0145485Y0073363D01*
X0145411Y0073597D01*
X0145342Y0073833D01*
X0145280Y0074070D01*
X0145223Y0074309D01*
X0145172Y0074549D01*
X0145127Y0074790D01*
X0145088Y0075033D01*
X0145055Y0075276D01*
X0145028Y0075520D01*
X0145007Y0075764D01*
X0144992Y0076009D01*
X0144983Y0076255D01*
X0144980Y0076500D01*
X0121480Y0092500D02*
X0121480Y0100500D01*
X0121478Y0100560D01*
X0121473Y0100621D01*
X0121464Y0100680D01*
X0121451Y0100739D01*
X0121435Y0100798D01*
X0121415Y0100855D01*
X0121392Y0100910D01*
X0121365Y0100965D01*
X0121336Y0101017D01*
X0121303Y0101068D01*
X0121267Y0101117D01*
X0121229Y0101163D01*
X0121187Y0101207D01*
X0121143Y0101249D01*
X0121097Y0101287D01*
X0121048Y0101323D01*
X0120997Y0101356D01*
X0120945Y0101385D01*
X0120890Y0101412D01*
X0120835Y0101435D01*
X0120778Y0101455D01*
X0120719Y0101471D01*
X0120660Y0101484D01*
X0120601Y0101493D01*
X0120540Y0101498D01*
X0120480Y0101500D01*
X0103480Y0101500D01*
X0103420Y0101498D01*
X0103359Y0101493D01*
X0103300Y0101484D01*
X0103241Y0101471D01*
X0103182Y0101455D01*
X0103125Y0101435D01*
X0103070Y0101412D01*
X0103015Y0101385D01*
X0102963Y0101356D01*
X0102912Y0101323D01*
X0102863Y0101287D01*
X0102817Y0101249D01*
X0102773Y0101207D01*
X0102731Y0101163D01*
X0102693Y0101117D01*
X0102657Y0101068D01*
X0102624Y0101017D01*
X0102595Y0100965D01*
X0102568Y0100910D01*
X0102545Y0100855D01*
X0102525Y0100798D01*
X0102509Y0100739D01*
X0102496Y0100680D01*
X0102487Y0100621D01*
X0102482Y0100560D01*
X0102480Y0100500D01*
X0102480Y0092500D01*
X0102482Y0092440D01*
X0102487Y0092379D01*
X0102496Y0092320D01*
X0102509Y0092261D01*
X0102525Y0092202D01*
X0102545Y0092145D01*
X0102568Y0092090D01*
X0102595Y0092035D01*
X0102624Y0091983D01*
X0102657Y0091932D01*
X0102693Y0091883D01*
X0102731Y0091837D01*
X0102773Y0091793D01*
X0102817Y0091751D01*
X0102863Y0091713D01*
X0102912Y0091677D01*
X0102963Y0091644D01*
X0103015Y0091615D01*
X0103070Y0091588D01*
X0103125Y0091565D01*
X0103182Y0091545D01*
X0103241Y0091529D01*
X0103300Y0091516D01*
X0103359Y0091507D01*
X0103420Y0091502D01*
X0103480Y0091500D01*
X0120480Y0091500D01*
X0120540Y0091502D01*
X0120601Y0091507D01*
X0120660Y0091516D01*
X0120719Y0091529D01*
X0120778Y0091545D01*
X0120835Y0091565D01*
X0120890Y0091588D01*
X0120945Y0091615D01*
X0120997Y0091644D01*
X0121048Y0091677D01*
X0121097Y0091713D01*
X0121143Y0091751D01*
X0121187Y0091793D01*
X0121229Y0091837D01*
X0121267Y0091883D01*
X0121303Y0091932D01*
X0121336Y0091983D01*
X0121365Y0092035D01*
X0121392Y0092090D01*
X0121415Y0092145D01*
X0121435Y0092202D01*
X0121451Y0092261D01*
X0121464Y0092320D01*
X0121473Y0092379D01*
X0121478Y0092440D01*
X0121480Y0092500D01*
X0113480Y0096500D02*
X0112980Y0096500D01*
X0110980Y0096500D02*
X0110480Y0096500D01*
X0159730Y0058000D02*
X0161730Y0058000D01*
X0160730Y0059000D02*
X0160730Y0057000D01*
X0143730Y0054000D02*
X0143733Y0054245D01*
X0143742Y0054491D01*
X0143757Y0054736D01*
X0143778Y0054980D01*
X0143805Y0055224D01*
X0143838Y0055467D01*
X0143877Y0055710D01*
X0143922Y0055951D01*
X0143973Y0056191D01*
X0144030Y0056430D01*
X0144092Y0056667D01*
X0144161Y0056903D01*
X0144235Y0057137D01*
X0144315Y0057369D01*
X0144400Y0057599D01*
X0144491Y0057827D01*
X0144588Y0058052D01*
X0144690Y0058276D01*
X0144798Y0058496D01*
X0144911Y0058714D01*
X0145029Y0058929D01*
X0145153Y0059141D01*
X0145281Y0059350D01*
X0145415Y0059556D01*
X0145554Y0059758D01*
X0145698Y0059957D01*
X0145847Y0060152D01*
X0146000Y0060344D01*
X0146158Y0060532D01*
X0146320Y0060716D01*
X0146488Y0060895D01*
X0146659Y0061071D01*
X0146835Y0061242D01*
X0147014Y0061410D01*
X0147198Y0061572D01*
X0147386Y0061730D01*
X0147578Y0061883D01*
X0147773Y0062032D01*
X0147972Y0062176D01*
X0148174Y0062315D01*
X0148380Y0062449D01*
X0148589Y0062577D01*
X0148801Y0062701D01*
X0149016Y0062819D01*
X0149234Y0062932D01*
X0149454Y0063040D01*
X0149678Y0063142D01*
X0149903Y0063239D01*
X0150131Y0063330D01*
X0150361Y0063415D01*
X0150593Y0063495D01*
X0150827Y0063569D01*
X0151063Y0063638D01*
X0151300Y0063700D01*
X0151539Y0063757D01*
X0151779Y0063808D01*
X0152020Y0063853D01*
X0152263Y0063892D01*
X0152506Y0063925D01*
X0152750Y0063952D01*
X0152994Y0063973D01*
X0153239Y0063988D01*
X0153485Y0063997D01*
X0153730Y0064000D01*
X0153975Y0063997D01*
X0154221Y0063988D01*
X0154466Y0063973D01*
X0154710Y0063952D01*
X0154954Y0063925D01*
X0155197Y0063892D01*
X0155440Y0063853D01*
X0155681Y0063808D01*
X0155921Y0063757D01*
X0156160Y0063700D01*
X0156397Y0063638D01*
X0156633Y0063569D01*
X0156867Y0063495D01*
X0157099Y0063415D01*
X0157329Y0063330D01*
X0157557Y0063239D01*
X0157782Y0063142D01*
X0158006Y0063040D01*
X0158226Y0062932D01*
X0158444Y0062819D01*
X0158659Y0062701D01*
X0158871Y0062577D01*
X0159080Y0062449D01*
X0159286Y0062315D01*
X0159488Y0062176D01*
X0159687Y0062032D01*
X0159882Y0061883D01*
X0160074Y0061730D01*
X0160262Y0061572D01*
X0160446Y0061410D01*
X0160625Y0061242D01*
X0160801Y0061071D01*
X0160972Y0060895D01*
X0161140Y0060716D01*
X0161302Y0060532D01*
X0161460Y0060344D01*
X0161613Y0060152D01*
X0161762Y0059957D01*
X0161906Y0059758D01*
X0162045Y0059556D01*
X0162179Y0059350D01*
X0162307Y0059141D01*
X0162431Y0058929D01*
X0162549Y0058714D01*
X0162662Y0058496D01*
X0162770Y0058276D01*
X0162872Y0058052D01*
X0162969Y0057827D01*
X0163060Y0057599D01*
X0163145Y0057369D01*
X0163225Y0057137D01*
X0163299Y0056903D01*
X0163368Y0056667D01*
X0163430Y0056430D01*
X0163487Y0056191D01*
X0163538Y0055951D01*
X0163583Y0055710D01*
X0163622Y0055467D01*
X0163655Y0055224D01*
X0163682Y0054980D01*
X0163703Y0054736D01*
X0163718Y0054491D01*
X0163727Y0054245D01*
X0163730Y0054000D01*
X0163727Y0053755D01*
X0163718Y0053509D01*
X0163703Y0053264D01*
X0163682Y0053020D01*
X0163655Y0052776D01*
X0163622Y0052533D01*
X0163583Y0052290D01*
X0163538Y0052049D01*
X0163487Y0051809D01*
X0163430Y0051570D01*
X0163368Y0051333D01*
X0163299Y0051097D01*
X0163225Y0050863D01*
X0163145Y0050631D01*
X0163060Y0050401D01*
X0162969Y0050173D01*
X0162872Y0049948D01*
X0162770Y0049724D01*
X0162662Y0049504D01*
X0162549Y0049286D01*
X0162431Y0049071D01*
X0162307Y0048859D01*
X0162179Y0048650D01*
X0162045Y0048444D01*
X0161906Y0048242D01*
X0161762Y0048043D01*
X0161613Y0047848D01*
X0161460Y0047656D01*
X0161302Y0047468D01*
X0161140Y0047284D01*
X0160972Y0047105D01*
X0160801Y0046929D01*
X0160625Y0046758D01*
X0160446Y0046590D01*
X0160262Y0046428D01*
X0160074Y0046270D01*
X0159882Y0046117D01*
X0159687Y0045968D01*
X0159488Y0045824D01*
X0159286Y0045685D01*
X0159080Y0045551D01*
X0158871Y0045423D01*
X0158659Y0045299D01*
X0158444Y0045181D01*
X0158226Y0045068D01*
X0158006Y0044960D01*
X0157782Y0044858D01*
X0157557Y0044761D01*
X0157329Y0044670D01*
X0157099Y0044585D01*
X0156867Y0044505D01*
X0156633Y0044431D01*
X0156397Y0044362D01*
X0156160Y0044300D01*
X0155921Y0044243D01*
X0155681Y0044192D01*
X0155440Y0044147D01*
X0155197Y0044108D01*
X0154954Y0044075D01*
X0154710Y0044048D01*
X0154466Y0044027D01*
X0154221Y0044012D01*
X0153975Y0044003D01*
X0153730Y0044000D01*
X0153485Y0044003D01*
X0153239Y0044012D01*
X0152994Y0044027D01*
X0152750Y0044048D01*
X0152506Y0044075D01*
X0152263Y0044108D01*
X0152020Y0044147D01*
X0151779Y0044192D01*
X0151539Y0044243D01*
X0151300Y0044300D01*
X0151063Y0044362D01*
X0150827Y0044431D01*
X0150593Y0044505D01*
X0150361Y0044585D01*
X0150131Y0044670D01*
X0149903Y0044761D01*
X0149678Y0044858D01*
X0149454Y0044960D01*
X0149234Y0045068D01*
X0149016Y0045181D01*
X0148801Y0045299D01*
X0148589Y0045423D01*
X0148380Y0045551D01*
X0148174Y0045685D01*
X0147972Y0045824D01*
X0147773Y0045968D01*
X0147578Y0046117D01*
X0147386Y0046270D01*
X0147198Y0046428D01*
X0147014Y0046590D01*
X0146835Y0046758D01*
X0146659Y0046929D01*
X0146488Y0047105D01*
X0146320Y0047284D01*
X0146158Y0047468D01*
X0146000Y0047656D01*
X0145847Y0047848D01*
X0145698Y0048043D01*
X0145554Y0048242D01*
X0145415Y0048444D01*
X0145281Y0048650D01*
X0145153Y0048859D01*
X0145029Y0049071D01*
X0144911Y0049286D01*
X0144798Y0049504D01*
X0144690Y0049724D01*
X0144588Y0049948D01*
X0144491Y0050173D01*
X0144400Y0050401D01*
X0144315Y0050631D01*
X0144235Y0050863D01*
X0144161Y0051097D01*
X0144092Y0051333D01*
X0144030Y0051570D01*
X0143973Y0051809D01*
X0143922Y0052049D01*
X0143877Y0052290D01*
X0143838Y0052533D01*
X0143805Y0052776D01*
X0143778Y0053020D01*
X0143757Y0053264D01*
X0143742Y0053509D01*
X0143733Y0053755D01*
X0143730Y0054000D01*
X0162730Y0043500D02*
X0162730Y0033500D01*
X0178730Y0033500D01*
X0178730Y0043500D01*
X0162730Y0043500D01*
X0166730Y0041000D02*
X0170730Y0038500D01*
X0170730Y0041000D01*
X0170730Y0038500D02*
X0164730Y0038500D01*
X0166730Y0036000D02*
X0170730Y0038500D01*
X0170730Y0036000D01*
X0170730Y0038500D02*
X0173230Y0038500D01*
X0166730Y0036000D02*
X0166730Y0041000D01*
X0171730Y0030500D02*
X0186730Y0030500D01*
X0189230Y0028000D01*
X0189230Y0023000D01*
X0186730Y0020500D01*
X0171730Y0020500D01*
X0169230Y0023000D01*
X0169230Y0028000D01*
X0171730Y0030500D01*
X0171730Y0020500D02*
X0169230Y0018000D01*
X0169230Y0013000D01*
X0171730Y0010500D01*
X0186730Y0010500D01*
X0189230Y0013000D01*
X0189230Y0018000D01*
X0186730Y0020500D01*
X0195480Y0018000D02*
X0197980Y0020500D01*
X0202980Y0020500D01*
X0205480Y0018000D01*
X0207980Y0020500D01*
X0212980Y0020500D01*
X0215480Y0018000D01*
X0215480Y0013000D01*
X0212980Y0010500D01*
X0207980Y0010500D01*
X0205480Y0013000D01*
X0202980Y0010500D01*
X0197980Y0010500D01*
X0195480Y0013000D01*
X0195480Y0018000D01*
X0205480Y0018000D02*
X0205480Y0013000D01*
X0215480Y0013000D02*
X0217980Y0010500D01*
X0222980Y0010500D01*
X0225480Y0013000D01*
X0227980Y0010500D01*
X0232980Y0010500D01*
X0235480Y0013000D01*
X0237980Y0010500D01*
X0242980Y0010500D01*
X0245480Y0013000D01*
X0245480Y0018000D01*
X0242980Y0020500D01*
X0237980Y0020500D01*
X0235480Y0018000D01*
X0235480Y0013000D01*
X0235480Y0018000D02*
X0232980Y0020500D01*
X0227980Y0020500D01*
X0225480Y0018000D01*
X0225480Y0013000D01*
X0225480Y0018000D02*
X0222980Y0020500D01*
X0217980Y0020500D01*
X0215480Y0018000D01*
X0216176Y0023300D02*
X0216176Y0025802D01*
X0217010Y0026636D01*
X0218678Y0026636D01*
X0219512Y0025802D01*
X0219512Y0023300D01*
X0219512Y0024968D02*
X0221180Y0026636D01*
X0221180Y0028456D02*
X0221180Y0031793D01*
X0220346Y0033613D02*
X0221180Y0034447D01*
X0221180Y0036115D01*
X0220346Y0036949D01*
X0219512Y0036949D01*
X0218678Y0036115D01*
X0218678Y0034447D01*
X0217844Y0033613D01*
X0217010Y0033613D01*
X0216176Y0034447D01*
X0216176Y0036115D01*
X0217010Y0036949D01*
X0216176Y0038769D02*
X0221180Y0038769D01*
X0221180Y0042105D01*
X0218678Y0040437D02*
X0218678Y0038769D01*
X0216176Y0038769D02*
X0216176Y0042105D01*
X0216176Y0043926D02*
X0216176Y0047262D01*
X0216176Y0045594D02*
X0221180Y0045594D01*
X0212680Y0042207D02*
X0207676Y0042207D01*
X0207676Y0045543D01*
X0210178Y0043875D02*
X0210178Y0042207D01*
X0207676Y0040387D02*
X0207676Y0037050D01*
X0212680Y0037050D01*
X0212680Y0040387D01*
X0210178Y0038718D02*
X0210178Y0037050D01*
X0210178Y0035230D02*
X0211012Y0034396D01*
X0211012Y0031894D01*
X0211012Y0033562D02*
X0212680Y0035230D01*
X0210178Y0035230D02*
X0208510Y0035230D01*
X0207676Y0034396D01*
X0207676Y0031894D01*
X0212680Y0031894D01*
X0211846Y0030074D02*
X0208510Y0030074D01*
X0207676Y0029240D01*
X0207676Y0027572D01*
X0208510Y0026738D01*
X0211846Y0026738D01*
X0212680Y0027572D01*
X0212680Y0029240D01*
X0211846Y0030074D01*
X0216176Y0028456D02*
X0221180Y0028456D01*
X0218678Y0028456D02*
X0218678Y0030124D01*
X0216176Y0031793D02*
X0216176Y0028456D01*
X0212680Y0024968D02*
X0212680Y0023300D01*
X0212680Y0024134D02*
X0207676Y0024134D01*
X0207676Y0023300D02*
X0207676Y0024968D01*
X0216176Y0023300D02*
X0221180Y0023300D01*
X0227176Y0023634D02*
X0227176Y0025302D01*
X0228010Y0026136D01*
X0228844Y0026136D01*
X0229678Y0025302D01*
X0230512Y0026136D01*
X0231346Y0026136D01*
X0232180Y0025302D01*
X0232180Y0023634D01*
X0231346Y0022800D01*
X0229678Y0024468D02*
X0229678Y0025302D01*
X0230512Y0027956D02*
X0227176Y0027956D01*
X0230512Y0027956D02*
X0232180Y0029624D01*
X0230512Y0031293D01*
X0227176Y0031293D01*
X0228010Y0033113D02*
X0227176Y0033947D01*
X0227176Y0035615D01*
X0228010Y0036449D01*
X0228844Y0036449D01*
X0229678Y0035615D01*
X0230512Y0036449D01*
X0231346Y0036449D01*
X0232180Y0035615D01*
X0232180Y0033947D01*
X0231346Y0033113D01*
X0229678Y0034781D02*
X0229678Y0035615D01*
X0227176Y0023634D02*
X0228010Y0022800D01*
X0245480Y0018000D02*
X0247980Y0020500D01*
X0252980Y0020500D01*
X0255480Y0018000D01*
X0257980Y0020500D01*
X0262980Y0020500D01*
X0265480Y0018000D01*
X0267980Y0020500D01*
X0272980Y0020500D01*
X0275480Y0018000D01*
X0275480Y0013000D01*
X0272980Y0010500D01*
X0267980Y0010500D01*
X0265480Y0013000D01*
X0262980Y0010500D01*
X0257980Y0010500D01*
X0255480Y0013000D01*
X0252980Y0010500D01*
X0247980Y0010500D01*
X0245480Y0013000D01*
X0255480Y0013000D02*
X0255480Y0018000D01*
X0265480Y0018000D02*
X0265480Y0013000D01*
X0285480Y0013000D02*
X0287980Y0010500D01*
X0292980Y0010500D01*
X0295480Y0013000D01*
X0297980Y0010500D01*
X0302980Y0010500D01*
X0305480Y0013000D01*
X0305480Y0018000D01*
X0302980Y0020500D01*
X0297980Y0020500D01*
X0295480Y0018000D01*
X0295480Y0013000D01*
X0305480Y0013000D02*
X0307980Y0010500D01*
X0312980Y0010500D01*
X0315480Y0013000D01*
X0317980Y0010500D01*
X0322980Y0010500D01*
X0325480Y0013000D01*
X0327980Y0010500D01*
X0332980Y0010500D01*
X0335480Y0013000D01*
X0337980Y0010500D01*
X0342980Y0010500D01*
X0345480Y0013000D01*
X0345480Y0018000D01*
X0342980Y0020500D01*
X0337980Y0020500D01*
X0335480Y0018000D01*
X0335480Y0013000D01*
X0335480Y0018000D02*
X0332980Y0020500D01*
X0327980Y0020500D01*
X0325480Y0018000D01*
X0325480Y0013000D01*
X0325480Y0018000D02*
X0322980Y0020500D01*
X0317980Y0020500D01*
X0315480Y0018000D01*
X0315480Y0013000D01*
X0315480Y0018000D02*
X0312980Y0020500D01*
X0307980Y0020500D01*
X0305480Y0018000D01*
X0295480Y0018000D02*
X0292980Y0020500D01*
X0287980Y0020500D01*
X0285480Y0018000D01*
X0285480Y0013000D01*
X0279480Y0070500D02*
X0262480Y0070500D01*
X0262420Y0070502D01*
X0262359Y0070507D01*
X0262300Y0070516D01*
X0262241Y0070529D01*
X0262182Y0070545D01*
X0262125Y0070565D01*
X0262070Y0070588D01*
X0262015Y0070615D01*
X0261963Y0070644D01*
X0261912Y0070677D01*
X0261863Y0070713D01*
X0261817Y0070751D01*
X0261773Y0070793D01*
X0261731Y0070837D01*
X0261693Y0070883D01*
X0261657Y0070932D01*
X0261624Y0070983D01*
X0261595Y0071035D01*
X0261568Y0071090D01*
X0261545Y0071145D01*
X0261525Y0071202D01*
X0261509Y0071261D01*
X0261496Y0071320D01*
X0261487Y0071379D01*
X0261482Y0071440D01*
X0261480Y0071500D01*
X0261480Y0079500D01*
X0261482Y0079560D01*
X0261487Y0079621D01*
X0261496Y0079680D01*
X0261509Y0079739D01*
X0261525Y0079798D01*
X0261545Y0079855D01*
X0261568Y0079910D01*
X0261595Y0079965D01*
X0261624Y0080017D01*
X0261657Y0080068D01*
X0261693Y0080117D01*
X0261731Y0080163D01*
X0261773Y0080207D01*
X0261817Y0080249D01*
X0261863Y0080287D01*
X0261912Y0080323D01*
X0261963Y0080356D01*
X0262015Y0080385D01*
X0262070Y0080412D01*
X0262125Y0080435D01*
X0262182Y0080455D01*
X0262241Y0080471D01*
X0262300Y0080484D01*
X0262359Y0080493D01*
X0262420Y0080498D01*
X0262480Y0080500D01*
X0279480Y0080500D01*
X0279540Y0080498D01*
X0279601Y0080493D01*
X0279660Y0080484D01*
X0279719Y0080471D01*
X0279778Y0080455D01*
X0279835Y0080435D01*
X0279890Y0080412D01*
X0279945Y0080385D01*
X0279997Y0080356D01*
X0280048Y0080323D01*
X0280097Y0080287D01*
X0280143Y0080249D01*
X0280187Y0080207D01*
X0280229Y0080163D01*
X0280267Y0080117D01*
X0280303Y0080068D01*
X0280336Y0080017D01*
X0280365Y0079965D01*
X0280392Y0079910D01*
X0280415Y0079855D01*
X0280435Y0079798D01*
X0280451Y0079739D01*
X0280464Y0079680D01*
X0280473Y0079621D01*
X0280478Y0079560D01*
X0280480Y0079500D01*
X0280480Y0071500D01*
X0280478Y0071440D01*
X0280473Y0071379D01*
X0280464Y0071320D01*
X0280451Y0071261D01*
X0280435Y0071202D01*
X0280415Y0071145D01*
X0280392Y0071090D01*
X0280365Y0071035D01*
X0280336Y0070983D01*
X0280303Y0070932D01*
X0280267Y0070883D01*
X0280229Y0070837D01*
X0280187Y0070793D01*
X0280143Y0070751D01*
X0280097Y0070713D01*
X0280048Y0070677D01*
X0279997Y0070644D01*
X0279945Y0070615D01*
X0279890Y0070588D01*
X0279835Y0070565D01*
X0279778Y0070545D01*
X0279719Y0070529D01*
X0279660Y0070516D01*
X0279601Y0070507D01*
X0279540Y0070502D01*
X0279480Y0070500D01*
X0272480Y0075500D02*
X0271980Y0075500D01*
X0269980Y0075500D02*
X0269480Y0075500D01*
D15*
X0269480Y0133000D02*
X0242480Y0133000D01*
X0242310Y0133002D01*
X0242139Y0133008D01*
X0241969Y0133019D01*
X0241799Y0133033D01*
X0241630Y0133052D01*
X0241461Y0133075D01*
X0241292Y0133101D01*
X0241125Y0133132D01*
X0240958Y0133167D01*
X0240792Y0133207D01*
X0240627Y0133250D01*
X0240463Y0133297D01*
X0240301Y0133348D01*
X0240139Y0133403D01*
X0239979Y0133462D01*
X0239821Y0133525D01*
X0239664Y0133591D01*
X0239509Y0133662D01*
X0239355Y0133736D01*
X0239204Y0133814D01*
X0239054Y0133896D01*
X0238906Y0133981D01*
X0238761Y0134070D01*
X0238618Y0134162D01*
X0238477Y0134258D01*
X0238338Y0134357D01*
X0238202Y0134460D01*
X0238068Y0134565D01*
X0237937Y0134674D01*
X0237809Y0134787D01*
X0237683Y0134902D01*
X0237560Y0135020D01*
X0237441Y0135141D01*
X0237324Y0135266D01*
X0237210Y0135393D01*
X0237099Y0135522D01*
X0236992Y0135655D01*
X0236888Y0135790D01*
X0236787Y0135927D01*
X0236689Y0136067D01*
X0236595Y0136209D01*
X0236505Y0136353D01*
X0236418Y0136500D01*
X0236334Y0136649D01*
X0236255Y0136799D01*
X0236179Y0136952D01*
X0236106Y0137106D01*
X0236038Y0137262D01*
X0235973Y0137420D01*
X0235912Y0137579D01*
X0235855Y0137740D01*
X0235802Y0137902D01*
X0235753Y0138065D01*
X0235708Y0138229D01*
X0235667Y0138395D01*
X0235629Y0138561D01*
X0235596Y0138729D01*
X0235568Y0138897D01*
X0235543Y0139065D01*
X0235522Y0139234D01*
X0235505Y0139404D01*
X0235493Y0139574D01*
X0235485Y0139744D01*
X0235481Y0139915D01*
X0235481Y0140085D01*
X0235485Y0140256D01*
X0235493Y0140426D01*
X0235505Y0140596D01*
X0235522Y0140766D01*
X0235543Y0140935D01*
X0235568Y0141103D01*
X0235596Y0141271D01*
X0235629Y0141439D01*
X0235667Y0141605D01*
X0235708Y0141771D01*
X0235753Y0141935D01*
X0235802Y0142098D01*
X0235855Y0142260D01*
X0235912Y0142421D01*
X0235973Y0142580D01*
X0236038Y0142738D01*
X0236106Y0142894D01*
X0236179Y0143048D01*
X0236255Y0143201D01*
X0236334Y0143351D01*
X0236418Y0143500D01*
X0236505Y0143647D01*
X0236595Y0143791D01*
X0236689Y0143933D01*
X0236787Y0144073D01*
X0236888Y0144210D01*
X0236992Y0144345D01*
X0237099Y0144478D01*
X0237210Y0144607D01*
X0237324Y0144734D01*
X0237441Y0144859D01*
X0237560Y0144980D01*
X0237683Y0145098D01*
X0237809Y0145213D01*
X0237937Y0145326D01*
X0238068Y0145435D01*
X0238202Y0145540D01*
X0238338Y0145643D01*
X0238477Y0145742D01*
X0238618Y0145838D01*
X0238761Y0145930D01*
X0238906Y0146019D01*
X0239054Y0146104D01*
X0239204Y0146186D01*
X0239355Y0146264D01*
X0239509Y0146338D01*
X0239664Y0146409D01*
X0239821Y0146475D01*
X0239979Y0146538D01*
X0240139Y0146597D01*
X0240301Y0146652D01*
X0240463Y0146703D01*
X0240627Y0146750D01*
X0240792Y0146793D01*
X0240958Y0146833D01*
X0241125Y0146868D01*
X0241292Y0146899D01*
X0241461Y0146925D01*
X0241630Y0146948D01*
X0241799Y0146967D01*
X0241969Y0146981D01*
X0242139Y0146992D01*
X0242310Y0146998D01*
X0242480Y0147000D01*
X0269480Y0147000D01*
X0269650Y0146998D01*
X0269821Y0146992D01*
X0269991Y0146981D01*
X0270161Y0146967D01*
X0270330Y0146948D01*
X0270499Y0146925D01*
X0270668Y0146899D01*
X0270835Y0146868D01*
X0271002Y0146833D01*
X0271168Y0146793D01*
X0271333Y0146750D01*
X0271497Y0146703D01*
X0271659Y0146652D01*
X0271821Y0146597D01*
X0271981Y0146538D01*
X0272139Y0146475D01*
X0272296Y0146409D01*
X0272451Y0146338D01*
X0272605Y0146264D01*
X0272756Y0146186D01*
X0272906Y0146104D01*
X0273054Y0146019D01*
X0273199Y0145930D01*
X0273342Y0145838D01*
X0273483Y0145742D01*
X0273622Y0145643D01*
X0273758Y0145540D01*
X0273892Y0145435D01*
X0274023Y0145326D01*
X0274151Y0145213D01*
X0274277Y0145098D01*
X0274400Y0144980D01*
X0274519Y0144859D01*
X0274636Y0144734D01*
X0274750Y0144607D01*
X0274861Y0144478D01*
X0274968Y0144345D01*
X0275072Y0144210D01*
X0275173Y0144073D01*
X0275271Y0143933D01*
X0275365Y0143791D01*
X0275455Y0143647D01*
X0275542Y0143500D01*
X0275626Y0143351D01*
X0275705Y0143201D01*
X0275781Y0143048D01*
X0275854Y0142894D01*
X0275922Y0142738D01*
X0275987Y0142580D01*
X0276048Y0142421D01*
X0276105Y0142260D01*
X0276158Y0142098D01*
X0276207Y0141935D01*
X0276252Y0141771D01*
X0276293Y0141605D01*
X0276331Y0141439D01*
X0276364Y0141271D01*
X0276392Y0141103D01*
X0276417Y0140935D01*
X0276438Y0140766D01*
X0276455Y0140596D01*
X0276467Y0140426D01*
X0276475Y0140256D01*
X0276479Y0140085D01*
X0276479Y0139915D01*
X0276475Y0139744D01*
X0276467Y0139574D01*
X0276455Y0139404D01*
X0276438Y0139234D01*
X0276417Y0139065D01*
X0276392Y0138897D01*
X0276364Y0138729D01*
X0276331Y0138561D01*
X0276293Y0138395D01*
X0276252Y0138229D01*
X0276207Y0138065D01*
X0276158Y0137902D01*
X0276105Y0137740D01*
X0276048Y0137579D01*
X0275987Y0137420D01*
X0275922Y0137262D01*
X0275854Y0137106D01*
X0275781Y0136952D01*
X0275705Y0136799D01*
X0275626Y0136649D01*
X0275542Y0136500D01*
X0275455Y0136353D01*
X0275365Y0136209D01*
X0275271Y0136067D01*
X0275173Y0135927D01*
X0275072Y0135790D01*
X0274968Y0135655D01*
X0274861Y0135522D01*
X0274750Y0135393D01*
X0274636Y0135266D01*
X0274519Y0135141D01*
X0274400Y0135020D01*
X0274277Y0134902D01*
X0274151Y0134787D01*
X0274023Y0134674D01*
X0273892Y0134565D01*
X0273758Y0134460D01*
X0273622Y0134357D01*
X0273483Y0134258D01*
X0273342Y0134162D01*
X0273199Y0134070D01*
X0273054Y0133981D01*
X0272906Y0133896D01*
X0272756Y0133814D01*
X0272605Y0133736D01*
X0272451Y0133662D01*
X0272296Y0133591D01*
X0272139Y0133525D01*
X0271981Y0133462D01*
X0271821Y0133403D01*
X0271659Y0133348D01*
X0271497Y0133297D01*
X0271333Y0133250D01*
X0271168Y0133207D01*
X0271002Y0133167D01*
X0270835Y0133132D01*
X0270668Y0133101D01*
X0270499Y0133075D01*
X0270330Y0133052D01*
X0270161Y0133033D01*
X0269991Y0133019D01*
X0269821Y0133008D01*
X0269650Y0133002D01*
X0269480Y0133000D01*
D16*
X0126646Y0059537D02*
X0125878Y0060304D01*
X0124344Y0060304D01*
X0123576Y0059537D01*
X0123576Y0056467D01*
X0124344Y0055700D01*
X0125878Y0055700D01*
X0126646Y0056467D01*
X0126646Y0058002D01*
X0125111Y0058002D01*
X0122042Y0060304D02*
X0118973Y0060304D01*
X0118973Y0055700D01*
X0122042Y0055700D01*
X0120507Y0058002D02*
X0118973Y0058002D01*
X0117438Y0058002D02*
X0116671Y0057235D01*
X0114369Y0057235D01*
X0115903Y0057235D02*
X0117438Y0055700D01*
X0117438Y0058002D02*
X0117438Y0059537D01*
X0116671Y0060304D01*
X0114369Y0060304D01*
X0114369Y0055700D01*
X0103030Y0173700D02*
X0098427Y0173700D01*
X0098427Y0176002D01*
X0099194Y0176769D01*
X0100728Y0176769D01*
X0101496Y0176002D01*
X0101496Y0173700D01*
X0101496Y0175235D02*
X0103030Y0176769D01*
X0103030Y0178304D02*
X0099961Y0181373D01*
X0099194Y0181373D01*
X0098427Y0180606D01*
X0098427Y0179071D01*
X0099194Y0178304D01*
X0103030Y0178304D02*
X0103030Y0181373D01*
D17*
X0176230Y0038500D03*
D18*
X0182480Y0038500D03*
X0158980Y0038500D03*
D19*
X0126480Y0062598D02*
X0102880Y0062600D01*
X0126480Y0062598D02*
X0126480Y0088402D01*
X0102880Y0088400D01*
D20*
X0128380Y0075500D03*
D21*
X0139230Y0116750D02*
X0161730Y0116750D01*
X0161730Y0126750D02*
X0139230Y0126750D01*
X0139230Y0136750D02*
X0161730Y0136750D01*
X0161730Y0146750D02*
X0139230Y0146750D01*
D22*
X0163230Y0146750D03*
X0163230Y0136750D03*
X0163230Y0126750D03*
X0163230Y0116750D03*
D23*
X0176230Y0116750D03*
X0176230Y0126750D03*
X0176230Y0136750D03*
X0176230Y0146750D03*
M02*
