G75*
%MOIN*%
%OFA0B0*%
%FSLAX25Y25*%
%IPPOS*%
%LPD*%
%AMOC8*
5,1,8,0,0,1.08239X$1,22.5*
%
%ADD10C,0.01200*%
%ADD11R,0.06469X0.05669*%
%ADD12R,0.22409X0.19260*%
%ADD13R,0.05899X0.03537*%
D10*
X0159880Y0162500D02*
X0159882Y0162601D01*
X0159888Y0162703D01*
X0159898Y0162804D01*
X0159912Y0162904D01*
X0159929Y0163004D01*
X0159951Y0163103D01*
X0159976Y0163201D01*
X0160006Y0163299D01*
X0160039Y0163395D01*
X0160075Y0163489D01*
X0160116Y0163582D01*
X0160160Y0163674D01*
X0160207Y0163763D01*
X0160259Y0163851D01*
X0160313Y0163937D01*
X0160371Y0164020D01*
X0160432Y0164101D01*
X0160496Y0164180D01*
X0160563Y0164256D01*
X0160633Y0164329D01*
X0160705Y0164400D01*
X0160781Y0164468D01*
X0160859Y0164533D01*
X0160939Y0164594D01*
X0161022Y0164653D01*
X0161107Y0164708D01*
X0161195Y0164760D01*
X0161284Y0164809D01*
X0161375Y0164853D01*
X0161467Y0164895D01*
X0161562Y0164932D01*
X0161657Y0164966D01*
X0161754Y0164997D01*
X0161852Y0165023D01*
X0161951Y0165046D01*
X0162051Y0165064D01*
X0162151Y0165079D01*
X0162252Y0165090D01*
X0162353Y0165097D01*
X0162455Y0165100D01*
X0162556Y0165099D01*
X0162657Y0165094D01*
X0162759Y0165085D01*
X0162859Y0165072D01*
X0162959Y0165055D01*
X0163059Y0165035D01*
X0163157Y0165010D01*
X0163254Y0164982D01*
X0163351Y0164950D01*
X0163446Y0164914D01*
X0163539Y0164875D01*
X0163631Y0164831D01*
X0163721Y0164785D01*
X0163809Y0164735D01*
X0163895Y0164681D01*
X0163979Y0164624D01*
X0164061Y0164564D01*
X0164140Y0164501D01*
X0164217Y0164434D01*
X0164291Y0164365D01*
X0164363Y0164293D01*
X0164431Y0164218D01*
X0164497Y0164141D01*
X0164559Y0164061D01*
X0164619Y0163979D01*
X0164675Y0163894D01*
X0164727Y0163807D01*
X0164777Y0163719D01*
X0164823Y0163628D01*
X0164865Y0163536D01*
X0164903Y0163442D01*
X0164938Y0163347D01*
X0164969Y0163250D01*
X0164997Y0163152D01*
X0165020Y0163054D01*
X0165040Y0162954D01*
X0165056Y0162854D01*
X0165068Y0162753D01*
X0165076Y0162652D01*
X0165080Y0162551D01*
X0165080Y0162449D01*
X0165076Y0162348D01*
X0165068Y0162247D01*
X0165056Y0162146D01*
X0165040Y0162046D01*
X0165020Y0161946D01*
X0164997Y0161848D01*
X0164969Y0161750D01*
X0164938Y0161653D01*
X0164903Y0161558D01*
X0164865Y0161464D01*
X0164823Y0161372D01*
X0164777Y0161281D01*
X0164727Y0161193D01*
X0164675Y0161106D01*
X0164619Y0161021D01*
X0164559Y0160939D01*
X0164497Y0160859D01*
X0164431Y0160782D01*
X0164363Y0160707D01*
X0164291Y0160635D01*
X0164217Y0160566D01*
X0164140Y0160499D01*
X0164061Y0160436D01*
X0163979Y0160376D01*
X0163895Y0160319D01*
X0163809Y0160265D01*
X0163721Y0160215D01*
X0163631Y0160169D01*
X0163539Y0160125D01*
X0163446Y0160086D01*
X0163351Y0160050D01*
X0163254Y0160018D01*
X0163157Y0159990D01*
X0163059Y0159965D01*
X0162959Y0159945D01*
X0162859Y0159928D01*
X0162759Y0159915D01*
X0162657Y0159906D01*
X0162556Y0159901D01*
X0162455Y0159900D01*
X0162353Y0159903D01*
X0162252Y0159910D01*
X0162151Y0159921D01*
X0162051Y0159936D01*
X0161951Y0159954D01*
X0161852Y0159977D01*
X0161754Y0160003D01*
X0161657Y0160034D01*
X0161562Y0160068D01*
X0161467Y0160105D01*
X0161375Y0160147D01*
X0161284Y0160191D01*
X0161195Y0160240D01*
X0161107Y0160292D01*
X0161022Y0160347D01*
X0160939Y0160406D01*
X0160859Y0160467D01*
X0160781Y0160532D01*
X0160705Y0160600D01*
X0160633Y0160671D01*
X0160563Y0160744D01*
X0160496Y0160820D01*
X0160432Y0160899D01*
X0160371Y0160980D01*
X0160313Y0161063D01*
X0160259Y0161149D01*
X0160207Y0161237D01*
X0160160Y0161326D01*
X0160116Y0161418D01*
X0160075Y0161511D01*
X0160039Y0161605D01*
X0160006Y0161701D01*
X0159976Y0161799D01*
X0159951Y0161897D01*
X0159929Y0161996D01*
X0159912Y0162096D01*
X0159898Y0162196D01*
X0159888Y0162297D01*
X0159882Y0162399D01*
X0159880Y0162500D01*
X0169873Y0162500D02*
X0169875Y0162602D01*
X0169881Y0162703D01*
X0169891Y0162805D01*
X0169905Y0162905D01*
X0169922Y0163005D01*
X0169944Y0163105D01*
X0169970Y0163203D01*
X0169999Y0163301D01*
X0170032Y0163397D01*
X0170069Y0163492D01*
X0170110Y0163585D01*
X0170154Y0163677D01*
X0170201Y0163767D01*
X0170253Y0163855D01*
X0170307Y0163940D01*
X0170365Y0164024D01*
X0170426Y0164105D01*
X0170490Y0164184D01*
X0170557Y0164261D01*
X0170628Y0164334D01*
X0170701Y0164405D01*
X0170776Y0164473D01*
X0170855Y0164538D01*
X0170935Y0164600D01*
X0171018Y0164659D01*
X0171104Y0164714D01*
X0171191Y0164766D01*
X0171281Y0164815D01*
X0171372Y0164860D01*
X0171465Y0164901D01*
X0171559Y0164939D01*
X0171655Y0164973D01*
X0171752Y0165003D01*
X0171850Y0165030D01*
X0171950Y0165052D01*
X0172050Y0165071D01*
X0172150Y0165086D01*
X0172251Y0165097D01*
X0172353Y0165104D01*
X0172455Y0165107D01*
X0172556Y0165106D01*
X0172658Y0165101D01*
X0172759Y0165092D01*
X0172860Y0165079D01*
X0172961Y0165062D01*
X0173060Y0165042D01*
X0173159Y0165017D01*
X0173257Y0164989D01*
X0173353Y0164956D01*
X0173448Y0164921D01*
X0173542Y0164881D01*
X0173634Y0164838D01*
X0173724Y0164791D01*
X0173813Y0164741D01*
X0173899Y0164687D01*
X0173983Y0164630D01*
X0174065Y0164570D01*
X0174145Y0164506D01*
X0174222Y0164440D01*
X0174296Y0164370D01*
X0174368Y0164298D01*
X0174437Y0164223D01*
X0174502Y0164145D01*
X0174565Y0164065D01*
X0174624Y0163983D01*
X0174681Y0163898D01*
X0174733Y0163811D01*
X0174783Y0163722D01*
X0174829Y0163631D01*
X0174871Y0163539D01*
X0174910Y0163445D01*
X0174945Y0163349D01*
X0174976Y0163252D01*
X0175004Y0163154D01*
X0175027Y0163055D01*
X0175047Y0162955D01*
X0175063Y0162855D01*
X0175075Y0162754D01*
X0175083Y0162653D01*
X0175087Y0162551D01*
X0175087Y0162449D01*
X0175083Y0162347D01*
X0175075Y0162246D01*
X0175063Y0162145D01*
X0175047Y0162045D01*
X0175027Y0161945D01*
X0175004Y0161846D01*
X0174976Y0161748D01*
X0174945Y0161651D01*
X0174910Y0161555D01*
X0174871Y0161461D01*
X0174829Y0161369D01*
X0174783Y0161278D01*
X0174733Y0161189D01*
X0174681Y0161102D01*
X0174624Y0161017D01*
X0174565Y0160935D01*
X0174502Y0160855D01*
X0174437Y0160777D01*
X0174368Y0160702D01*
X0174296Y0160630D01*
X0174222Y0160560D01*
X0174145Y0160494D01*
X0174065Y0160430D01*
X0173983Y0160370D01*
X0173899Y0160313D01*
X0173813Y0160259D01*
X0173724Y0160209D01*
X0173634Y0160162D01*
X0173542Y0160119D01*
X0173448Y0160079D01*
X0173353Y0160044D01*
X0173257Y0160011D01*
X0173159Y0159983D01*
X0173060Y0159958D01*
X0172961Y0159938D01*
X0172860Y0159921D01*
X0172759Y0159908D01*
X0172658Y0159899D01*
X0172556Y0159894D01*
X0172455Y0159893D01*
X0172353Y0159896D01*
X0172251Y0159903D01*
X0172150Y0159914D01*
X0172050Y0159929D01*
X0171950Y0159948D01*
X0171850Y0159970D01*
X0171752Y0159997D01*
X0171655Y0160027D01*
X0171559Y0160061D01*
X0171465Y0160099D01*
X0171372Y0160140D01*
X0171281Y0160185D01*
X0171191Y0160234D01*
X0171104Y0160286D01*
X0171018Y0160341D01*
X0170935Y0160400D01*
X0170855Y0160462D01*
X0170776Y0160527D01*
X0170701Y0160595D01*
X0170628Y0160666D01*
X0170557Y0160739D01*
X0170490Y0160816D01*
X0170426Y0160895D01*
X0170365Y0160976D01*
X0170307Y0161060D01*
X0170253Y0161145D01*
X0170201Y0161233D01*
X0170154Y0161323D01*
X0170110Y0161415D01*
X0170069Y0161508D01*
X0170032Y0161603D01*
X0169999Y0161699D01*
X0169970Y0161797D01*
X0169944Y0161895D01*
X0169922Y0161995D01*
X0169905Y0162095D01*
X0169891Y0162195D01*
X0169881Y0162297D01*
X0169875Y0162398D01*
X0169873Y0162500D01*
X0169873Y0172500D02*
X0169875Y0172602D01*
X0169881Y0172703D01*
X0169891Y0172805D01*
X0169905Y0172905D01*
X0169922Y0173005D01*
X0169944Y0173105D01*
X0169970Y0173203D01*
X0169999Y0173301D01*
X0170032Y0173397D01*
X0170069Y0173492D01*
X0170110Y0173585D01*
X0170154Y0173677D01*
X0170201Y0173767D01*
X0170253Y0173855D01*
X0170307Y0173940D01*
X0170365Y0174024D01*
X0170426Y0174105D01*
X0170490Y0174184D01*
X0170557Y0174261D01*
X0170628Y0174334D01*
X0170701Y0174405D01*
X0170776Y0174473D01*
X0170855Y0174538D01*
X0170935Y0174600D01*
X0171018Y0174659D01*
X0171104Y0174714D01*
X0171191Y0174766D01*
X0171281Y0174815D01*
X0171372Y0174860D01*
X0171465Y0174901D01*
X0171559Y0174939D01*
X0171655Y0174973D01*
X0171752Y0175003D01*
X0171850Y0175030D01*
X0171950Y0175052D01*
X0172050Y0175071D01*
X0172150Y0175086D01*
X0172251Y0175097D01*
X0172353Y0175104D01*
X0172455Y0175107D01*
X0172556Y0175106D01*
X0172658Y0175101D01*
X0172759Y0175092D01*
X0172860Y0175079D01*
X0172961Y0175062D01*
X0173060Y0175042D01*
X0173159Y0175017D01*
X0173257Y0174989D01*
X0173353Y0174956D01*
X0173448Y0174921D01*
X0173542Y0174881D01*
X0173634Y0174838D01*
X0173724Y0174791D01*
X0173813Y0174741D01*
X0173899Y0174687D01*
X0173983Y0174630D01*
X0174065Y0174570D01*
X0174145Y0174506D01*
X0174222Y0174440D01*
X0174296Y0174370D01*
X0174368Y0174298D01*
X0174437Y0174223D01*
X0174502Y0174145D01*
X0174565Y0174065D01*
X0174624Y0173983D01*
X0174681Y0173898D01*
X0174733Y0173811D01*
X0174783Y0173722D01*
X0174829Y0173631D01*
X0174871Y0173539D01*
X0174910Y0173445D01*
X0174945Y0173349D01*
X0174976Y0173252D01*
X0175004Y0173154D01*
X0175027Y0173055D01*
X0175047Y0172955D01*
X0175063Y0172855D01*
X0175075Y0172754D01*
X0175083Y0172653D01*
X0175087Y0172551D01*
X0175087Y0172449D01*
X0175083Y0172347D01*
X0175075Y0172246D01*
X0175063Y0172145D01*
X0175047Y0172045D01*
X0175027Y0171945D01*
X0175004Y0171846D01*
X0174976Y0171748D01*
X0174945Y0171651D01*
X0174910Y0171555D01*
X0174871Y0171461D01*
X0174829Y0171369D01*
X0174783Y0171278D01*
X0174733Y0171189D01*
X0174681Y0171102D01*
X0174624Y0171017D01*
X0174565Y0170935D01*
X0174502Y0170855D01*
X0174437Y0170777D01*
X0174368Y0170702D01*
X0174296Y0170630D01*
X0174222Y0170560D01*
X0174145Y0170494D01*
X0174065Y0170430D01*
X0173983Y0170370D01*
X0173899Y0170313D01*
X0173813Y0170259D01*
X0173724Y0170209D01*
X0173634Y0170162D01*
X0173542Y0170119D01*
X0173448Y0170079D01*
X0173353Y0170044D01*
X0173257Y0170011D01*
X0173159Y0169983D01*
X0173060Y0169958D01*
X0172961Y0169938D01*
X0172860Y0169921D01*
X0172759Y0169908D01*
X0172658Y0169899D01*
X0172556Y0169894D01*
X0172455Y0169893D01*
X0172353Y0169896D01*
X0172251Y0169903D01*
X0172150Y0169914D01*
X0172050Y0169929D01*
X0171950Y0169948D01*
X0171850Y0169970D01*
X0171752Y0169997D01*
X0171655Y0170027D01*
X0171559Y0170061D01*
X0171465Y0170099D01*
X0171372Y0170140D01*
X0171281Y0170185D01*
X0171191Y0170234D01*
X0171104Y0170286D01*
X0171018Y0170341D01*
X0170935Y0170400D01*
X0170855Y0170462D01*
X0170776Y0170527D01*
X0170701Y0170595D01*
X0170628Y0170666D01*
X0170557Y0170739D01*
X0170490Y0170816D01*
X0170426Y0170895D01*
X0170365Y0170976D01*
X0170307Y0171060D01*
X0170253Y0171145D01*
X0170201Y0171233D01*
X0170154Y0171323D01*
X0170110Y0171415D01*
X0170069Y0171508D01*
X0170032Y0171603D01*
X0169999Y0171699D01*
X0169970Y0171797D01*
X0169944Y0171895D01*
X0169922Y0171995D01*
X0169905Y0172095D01*
X0169891Y0172195D01*
X0169881Y0172297D01*
X0169875Y0172398D01*
X0169873Y0172500D01*
X0159880Y0172500D02*
X0159882Y0172601D01*
X0159888Y0172703D01*
X0159898Y0172804D01*
X0159912Y0172904D01*
X0159929Y0173004D01*
X0159951Y0173103D01*
X0159976Y0173201D01*
X0160006Y0173299D01*
X0160039Y0173395D01*
X0160075Y0173489D01*
X0160116Y0173582D01*
X0160160Y0173674D01*
X0160207Y0173763D01*
X0160259Y0173851D01*
X0160313Y0173937D01*
X0160371Y0174020D01*
X0160432Y0174101D01*
X0160496Y0174180D01*
X0160563Y0174256D01*
X0160633Y0174329D01*
X0160705Y0174400D01*
X0160781Y0174468D01*
X0160859Y0174533D01*
X0160939Y0174594D01*
X0161022Y0174653D01*
X0161107Y0174708D01*
X0161195Y0174760D01*
X0161284Y0174809D01*
X0161375Y0174853D01*
X0161467Y0174895D01*
X0161562Y0174932D01*
X0161657Y0174966D01*
X0161754Y0174997D01*
X0161852Y0175023D01*
X0161951Y0175046D01*
X0162051Y0175064D01*
X0162151Y0175079D01*
X0162252Y0175090D01*
X0162353Y0175097D01*
X0162455Y0175100D01*
X0162556Y0175099D01*
X0162657Y0175094D01*
X0162759Y0175085D01*
X0162859Y0175072D01*
X0162959Y0175055D01*
X0163059Y0175035D01*
X0163157Y0175010D01*
X0163254Y0174982D01*
X0163351Y0174950D01*
X0163446Y0174914D01*
X0163539Y0174875D01*
X0163631Y0174831D01*
X0163721Y0174785D01*
X0163809Y0174735D01*
X0163895Y0174681D01*
X0163979Y0174624D01*
X0164061Y0174564D01*
X0164140Y0174501D01*
X0164217Y0174434D01*
X0164291Y0174365D01*
X0164363Y0174293D01*
X0164431Y0174218D01*
X0164497Y0174141D01*
X0164559Y0174061D01*
X0164619Y0173979D01*
X0164675Y0173894D01*
X0164727Y0173807D01*
X0164777Y0173719D01*
X0164823Y0173628D01*
X0164865Y0173536D01*
X0164903Y0173442D01*
X0164938Y0173347D01*
X0164969Y0173250D01*
X0164997Y0173152D01*
X0165020Y0173054D01*
X0165040Y0172954D01*
X0165056Y0172854D01*
X0165068Y0172753D01*
X0165076Y0172652D01*
X0165080Y0172551D01*
X0165080Y0172449D01*
X0165076Y0172348D01*
X0165068Y0172247D01*
X0165056Y0172146D01*
X0165040Y0172046D01*
X0165020Y0171946D01*
X0164997Y0171848D01*
X0164969Y0171750D01*
X0164938Y0171653D01*
X0164903Y0171558D01*
X0164865Y0171464D01*
X0164823Y0171372D01*
X0164777Y0171281D01*
X0164727Y0171193D01*
X0164675Y0171106D01*
X0164619Y0171021D01*
X0164559Y0170939D01*
X0164497Y0170859D01*
X0164431Y0170782D01*
X0164363Y0170707D01*
X0164291Y0170635D01*
X0164217Y0170566D01*
X0164140Y0170499D01*
X0164061Y0170436D01*
X0163979Y0170376D01*
X0163895Y0170319D01*
X0163809Y0170265D01*
X0163721Y0170215D01*
X0163631Y0170169D01*
X0163539Y0170125D01*
X0163446Y0170086D01*
X0163351Y0170050D01*
X0163254Y0170018D01*
X0163157Y0169990D01*
X0163059Y0169965D01*
X0162959Y0169945D01*
X0162859Y0169928D01*
X0162759Y0169915D01*
X0162657Y0169906D01*
X0162556Y0169901D01*
X0162455Y0169900D01*
X0162353Y0169903D01*
X0162252Y0169910D01*
X0162151Y0169921D01*
X0162051Y0169936D01*
X0161951Y0169954D01*
X0161852Y0169977D01*
X0161754Y0170003D01*
X0161657Y0170034D01*
X0161562Y0170068D01*
X0161467Y0170105D01*
X0161375Y0170147D01*
X0161284Y0170191D01*
X0161195Y0170240D01*
X0161107Y0170292D01*
X0161022Y0170347D01*
X0160939Y0170406D01*
X0160859Y0170467D01*
X0160781Y0170532D01*
X0160705Y0170600D01*
X0160633Y0170671D01*
X0160563Y0170744D01*
X0160496Y0170820D01*
X0160432Y0170899D01*
X0160371Y0170980D01*
X0160313Y0171063D01*
X0160259Y0171149D01*
X0160207Y0171237D01*
X0160160Y0171326D01*
X0160116Y0171418D01*
X0160075Y0171511D01*
X0160039Y0171605D01*
X0160006Y0171701D01*
X0159976Y0171799D01*
X0159951Y0171897D01*
X0159929Y0171996D01*
X0159912Y0172096D01*
X0159898Y0172196D01*
X0159888Y0172297D01*
X0159882Y0172399D01*
X0159880Y0172500D01*
D11*
X0107730Y0171902D03*
X0107730Y0183098D03*
D12*
X0108138Y0075500D03*
D13*
X0136878Y0066524D03*
X0136878Y0084476D03*
M02*
