%
M48
M72
T01C0.01575
T02C0.02400
T03C0.03200
T04C0.03346
T05C0.04000
T06C0.04400
T07C0.05118
T08C0.12598
%
T01
X235480Y43000
X255480Y43000
X261730Y34250
X340480Y154250
T02
X265980Y140000
X245980Y140000
T03
X241480Y156500
X251480Y156500
X262230Y156500
X272230Y156500
X275980Y75500
X265980Y75500
X159980Y76500
X149980Y76500
X153730Y58000
X153730Y50000
X116980Y96500
X106980Y96500
X107730Y201500
X97730Y201500
T04
X210480Y120000
X220480Y120000
X230480Y120000
X240480Y120000
X250480Y120000
X260480Y120000
X270480Y120000
X280480Y120000
X290480Y120000
X300480Y120000
X310480Y120000
X320480Y120000
X330480Y120000
X340480Y120000
X340480Y90000
X330480Y90000
X320480Y90000
X310480Y90000
X300480Y90000
X290480Y90000
X280480Y90000
X270480Y90000
X260480Y90000
X250480Y90000
X240480Y90000
X230480Y90000
X220480Y90000
X210480Y90000
X210480Y15500
X200480Y15500
X220480Y15500
X230480Y15500
X240480Y15500
X250480Y15500
X260480Y15500
X270480Y15500
X290480Y15500
X300480Y15500
X310480Y15500
X320480Y15500
X330480Y15500
X340480Y15500
X340480Y205500
X330480Y205500
X320480Y205500
X310480Y205500
X300480Y205500
X290480Y205500
X280480Y205500
X270480Y205500
T05
X254230Y205500
X244230Y205500
X234230Y205500
X224230Y205500
X214230Y205500
X204230Y205500
X194230Y205500
X184230Y205500
X174230Y205500
X164230Y205500
X181730Y146750
X181730Y136750
X181730Y126750
X181730Y116750
X184230Y25500
X174230Y25500
X174230Y15500
X184230Y15500
T06
X190730Y38500
X150730Y38500
T07
X112880Y35200
X112880Y38200
X112880Y41200
X136480Y41200
X136480Y38200
X136480Y35200
X127680Y18500
X124680Y18500
X121680Y18500
T08
X145480Y15500
X350480Y35500
X350480Y145500
X150480Y205500
M30
