G75*
G70*
%OFA0B0*%
%FSLAX24Y24*%
%IPPOS*%
%LPD*%
%AMOC8*
5,1,8,0,0,1.08239X$1,22.5*
%
%ADD10C,0.0030*%
%ADD11O,0.0477X0.0955*%
%ADD12C,0.1200*%
%ADD13C,0.0240*%
%ADD14C,0.0080*%
%ADD15C,0.0360*%
%ADD16C,0.0120*%
D10*
X001930Y018025D02*
X001992Y018025D01*
X002053Y018087D01*
X002053Y018395D01*
X001868Y018395D01*
X001806Y018334D01*
X001806Y018210D01*
X001868Y018149D01*
X002053Y018149D01*
X002175Y018149D02*
X002298Y018149D01*
X002236Y018149D02*
X002236Y018395D01*
X002175Y018395D01*
X002236Y018519D02*
X002236Y018581D01*
X002789Y018519D02*
X002850Y018519D01*
X002850Y018149D01*
X002789Y018149D02*
X002912Y018149D01*
X003034Y018210D02*
X003034Y018395D01*
X003034Y018210D02*
X003096Y018149D01*
X003281Y018149D01*
X003281Y018395D01*
X003402Y018395D02*
X003402Y018149D01*
X003526Y018149D02*
X003526Y018334D01*
X003588Y018395D01*
X003649Y018334D01*
X003649Y018149D01*
X003771Y018210D02*
X003771Y018334D01*
X003832Y018395D01*
X003956Y018395D01*
X004018Y018334D01*
X004018Y018272D01*
X003771Y018272D01*
X003771Y018210D02*
X003832Y018149D01*
X003956Y018149D01*
X004139Y018149D02*
X004139Y018395D01*
X004324Y018395D01*
X004386Y018334D01*
X004386Y018149D01*
X003526Y018334D02*
X003464Y018395D01*
X003402Y018395D01*
X001685Y018334D02*
X001685Y018210D01*
X001623Y018149D01*
X001500Y018149D01*
X001438Y018210D01*
X001438Y018334D01*
X001500Y018395D01*
X001623Y018395D01*
X001685Y018334D01*
D11*
X005223Y002434D03*
X006223Y002434D03*
X007223Y002434D03*
X008223Y002434D03*
X009223Y002434D03*
X010223Y002434D03*
X011223Y002434D03*
X012223Y002434D03*
X013223Y002434D03*
X014223Y002434D03*
X015223Y002434D03*
X016223Y002434D03*
X016223Y018334D03*
X015223Y018334D03*
X014223Y018334D03*
X013223Y018334D03*
X012223Y018334D03*
X011223Y018334D03*
X010223Y018334D03*
X009223Y018334D03*
X008223Y018334D03*
X007223Y018334D03*
X006223Y018334D03*
X005223Y018334D03*
D12*
X005295Y013877D03*
X005293Y013874D03*
X003723Y013484D03*
X003720Y013483D03*
X003182Y012177D03*
X003173Y012174D03*
X003133Y010414D03*
X003132Y010406D03*
X003182Y008634D03*
X003173Y008624D03*
X003720Y007328D03*
X003723Y007324D03*
X005295Y006934D03*
X005293Y006924D03*
X006869Y007328D03*
X006873Y007324D03*
X007523Y008624D03*
X007532Y008634D03*
X007582Y010406D03*
X007583Y010414D03*
X007523Y012174D03*
X007532Y012177D03*
X006873Y013484D03*
X006869Y013483D03*
X011808Y010409D03*
X011813Y010405D03*
X011868Y012174D03*
X011863Y012176D03*
X012398Y013479D03*
X012400Y013482D03*
X013975Y013876D03*
X013983Y013879D03*
X015548Y013479D03*
X015550Y013482D03*
X016203Y012174D03*
X016212Y012176D03*
X016263Y010409D03*
X016262Y010405D03*
X016212Y008633D03*
X016203Y008629D03*
X015550Y007327D03*
X015548Y007319D03*
X013983Y006944D03*
X013975Y006933D03*
X012400Y007327D03*
X012398Y007319D03*
X011868Y008629D03*
X011863Y008633D03*
D13*
X011823Y008584D02*
X011233Y007734D01*
X011533Y006884D01*
X012323Y006084D01*
X012313Y005404D01*
X008743Y005394D01*
X006203Y003124D01*
X006223Y002434D01*
X005223Y002434D02*
X005243Y003164D01*
X008663Y006204D01*
X010843Y006204D01*
X011593Y005924D02*
X010823Y007214D01*
X010743Y009474D02*
X007883Y007344D01*
X006869Y007328D01*
X009003Y004764D02*
X014623Y004794D01*
X015763Y006224D01*
X015583Y007304D01*
X014593Y007824D02*
X015033Y009104D01*
X016223Y010344D01*
X015723Y011294D02*
X014823Y012234D01*
X013323Y012234D01*
X012323Y011294D01*
X011863Y012176D02*
X011323Y012234D01*
X009873Y010504D01*
X010733Y010734D02*
X010743Y009474D01*
X010733Y010734D02*
X011323Y011294D01*
X011323Y013234D02*
X011823Y013234D01*
X012400Y013482D01*
X011323Y013234D02*
X008823Y010344D01*
X007532Y012177D02*
X008413Y012984D01*
X011083Y015454D01*
X014313Y015464D01*
X015163Y016304D01*
X014823Y014884D02*
X015603Y013654D01*
X015550Y013482D01*
X016823Y013734D02*
X017823Y013734D01*
X017823Y008734D01*
X016823Y007734D01*
X016803Y007724D02*
X016803Y002724D01*
X016223Y002434D01*
X013223Y002434D02*
X012803Y003024D01*
X012273Y003724D01*
X012283Y003714D02*
X012293Y004234D01*
X009873Y004234D01*
X009003Y004764D02*
X007213Y003134D01*
X007223Y002434D01*
X008193Y003304D02*
X010843Y003344D01*
X011323Y002734D01*
X013823Y005464D02*
X014983Y006314D01*
X016723Y011294D02*
X017323Y011734D01*
X014823Y014884D02*
X011823Y014884D01*
X010323Y013234D01*
X009173Y014774D02*
X006173Y014774D01*
X005295Y013877D01*
X004153Y015154D02*
X003283Y014664D01*
X002763Y014434D01*
X002203Y014114D01*
X002203Y011114D01*
X002823Y010734D01*
X001473Y007954D02*
X003343Y007424D01*
X001473Y007954D02*
X001453Y015474D01*
X005303Y018344D01*
X007113Y017234D02*
X003613Y013734D01*
X007113Y017234D02*
X009323Y017234D01*
X010323Y018234D01*
X008823Y016734D02*
X012823Y016734D01*
X014323Y018004D01*
X016323Y018234D02*
X013573Y016004D01*
X008823Y016004D01*
X009823Y015474D02*
X009173Y014774D01*
D14*
X010323Y018234D02*
X010223Y018334D01*
X014223Y018334D02*
X014323Y018004D01*
X016223Y018334D02*
X016323Y018234D01*
X016262Y010405D02*
X016223Y010344D01*
X016823Y007734D02*
X016803Y007724D01*
X015583Y007304D02*
X015550Y007327D01*
X012273Y003724D02*
X012283Y003714D01*
X011323Y002734D02*
X011223Y002434D01*
X011823Y008584D02*
X011893Y008624D01*
X011863Y008633D01*
X003720Y007328D02*
X003343Y007424D01*
X003132Y010406D02*
X002823Y010734D01*
X003720Y013483D02*
X003613Y013734D01*
X005223Y018334D02*
X005283Y018344D01*
X005303Y018344D01*
X005313Y018344D01*
D15*
X004153Y015154D03*
X008823Y016004D03*
X008823Y016734D03*
X009823Y015474D03*
X010323Y013234D03*
X009873Y010504D03*
X008823Y010344D03*
X010823Y007214D03*
X010843Y006204D03*
X011593Y005924D03*
X009873Y004234D03*
X008193Y003304D03*
X013823Y005464D03*
X017323Y011734D03*
X016823Y013734D03*
X015163Y016304D03*
D16*
X015723Y011294D02*
X016723Y011294D01*
X014593Y007824D02*
X014983Y006314D01*
X012323Y011294D02*
X011323Y011294D01*
M02*
