%
M48
M72
T01C0.0240
T02C0.0320
T03C0.1020
T04C0.1969
%
T01
X8193Y3304
X9873Y4234
X10843Y6204
X11593Y5924
X10823Y7214
X8823Y10344
X9873Y10504
X10323Y13234
X9823Y15474
X8823Y16004
X8823Y16734
X4153Y15154
X13823Y5464
X17323Y11734
X16823Y13734
X15163Y16304
T02
X5223Y2434
X6223Y2434
X7223Y2434
X8223Y2434
X9223Y2434
X10223Y2434
X11223Y2434
X12223Y2434
X13223Y2434
X14223Y2434
X15223Y2434
X16223Y2434
X16223Y18334
X15223Y18334
X14223Y18334
X13223Y18334
X12223Y18334
X11223Y18334
X10223Y18334
X9223Y18334
X8223Y18334
X7223Y18334
X6223Y18334
X5223Y18334
T03
X5295Y13877
X5293Y13874
X3723Y13484
X3720Y13483
X3182Y12177
X3173Y12174
X3133Y10414
X3132Y10406
X3182Y8634
X3173Y8624
X3720Y7328
X3723Y7324
X5295Y6934
X5293Y6924
X6869Y7328
X6873Y7324
X7523Y8624
X7532Y8634
X7582Y10406
X7583Y10414
X7523Y12174
X7532Y12177
X6873Y13484
X6869Y13483
X11808Y10409
X11813Y10405
X11868Y12174
X11863Y12176
X12398Y13479
X12400Y13482
X13975Y13876
X13983Y13879
X15548Y13479
X15550Y13482
X16203Y12174
X16212Y12176
X16263Y10409
X16262Y10405
X16212Y8633
X16203Y8629
X15550Y7327
X15548Y7319
X13983Y6944
X13975Y6933
X12400Y7327
X12398Y7319
X11868Y8629
X11863Y8633
T04
X14030Y10425
X5350Y10426
M30
