G75*
G70*
%OFA0B0*%
%FSLAX24Y24*%
%IPPOS*%
%LPD*%
%AMOC8*
5,1,8,0,0,1.08239X$1,22.5*
%
%ADD10C,0.0030*%
%ADD11O,0.0477X0.0955*%
%ADD12C,0.1200*%
%ADD13C,0.0240*%
%ADD14C,0.0360*%
%ADD15C,0.0080*%
%ADD16C,0.0120*%
D10*
X015535Y018025D02*
X015597Y018025D01*
X015659Y018087D01*
X015659Y018395D01*
X015473Y018395D01*
X015412Y018334D01*
X015412Y018210D01*
X015473Y018149D01*
X015659Y018149D01*
X015780Y018149D02*
X015903Y018149D01*
X015842Y018149D02*
X015842Y018395D01*
X015780Y018395D01*
X015842Y018519D02*
X015842Y018581D01*
X016394Y018519D02*
X016456Y018519D01*
X016456Y018149D01*
X016517Y018149D02*
X016394Y018149D01*
X016639Y018210D02*
X016639Y018395D01*
X016639Y018210D02*
X016701Y018149D01*
X016886Y018149D01*
X016886Y018395D01*
X017008Y018395D02*
X017069Y018395D01*
X017131Y018334D01*
X017193Y018395D01*
X017255Y018334D01*
X017255Y018149D01*
X017131Y018149D02*
X017131Y018334D01*
X017008Y018395D02*
X017008Y018149D01*
X017376Y018210D02*
X017376Y018334D01*
X017438Y018395D01*
X017561Y018395D01*
X017623Y018334D01*
X017623Y018272D01*
X017376Y018272D01*
X017376Y018210D02*
X017438Y018149D01*
X017561Y018149D01*
X017744Y018149D02*
X017744Y018395D01*
X017929Y018395D01*
X017991Y018334D01*
X017991Y018149D01*
X015290Y018210D02*
X015290Y018334D01*
X015229Y018395D01*
X015105Y018395D01*
X015043Y018334D01*
X015043Y018210D01*
X015105Y018149D01*
X015229Y018149D01*
X015290Y018210D01*
D11*
X003178Y002434D03*
X004178Y002434D03*
X005178Y002434D03*
X006178Y002434D03*
X007178Y002434D03*
X008178Y002434D03*
X009178Y002434D03*
X010178Y002434D03*
X011178Y002434D03*
X012178Y002434D03*
X013178Y002434D03*
X014178Y002434D03*
X014178Y018334D03*
X013178Y018334D03*
X012178Y018334D03*
X011178Y018334D03*
X010178Y018334D03*
X009178Y018334D03*
X008178Y018334D03*
X007178Y018334D03*
X006178Y018334D03*
X005178Y018334D03*
X004178Y018334D03*
X003178Y018334D03*
D12*
X005418Y013879D03*
X005426Y013876D03*
X003853Y013479D03*
X003852Y013482D03*
X003198Y012174D03*
X003189Y012176D03*
X003138Y010409D03*
X003139Y010405D03*
X003189Y008633D03*
X003198Y008629D03*
X003852Y007327D03*
X003853Y007319D03*
X005418Y006944D03*
X005426Y006933D03*
X007001Y007327D03*
X007003Y007319D03*
X007533Y008629D03*
X007539Y008633D03*
X007589Y010405D03*
X007593Y010409D03*
X007533Y012174D03*
X007539Y012176D03*
X007003Y013479D03*
X007001Y013482D03*
X011818Y010414D03*
X011820Y010406D03*
X011878Y012174D03*
X011870Y012177D03*
X012528Y013484D03*
X012532Y013483D03*
X014107Y013877D03*
X014108Y013874D03*
X015678Y013484D03*
X015682Y013483D03*
X016219Y012177D03*
X016228Y012174D03*
X016268Y010414D03*
X016269Y010406D03*
X016219Y008634D03*
X016228Y008624D03*
X015682Y007328D03*
X015678Y007324D03*
X014107Y006934D03*
X014108Y006924D03*
X012532Y007328D03*
X012528Y007324D03*
X011878Y008624D03*
X011870Y008634D03*
D13*
X011578Y008234D01*
X011578Y005734D01*
X015578Y005734D01*
X017578Y007734D01*
X017578Y015734D01*
X015658Y015734D01*
X013078Y018234D01*
X012078Y018234D02*
X015248Y015154D01*
X014968Y014504D02*
X016748Y014484D01*
X016648Y012364D01*
X016219Y012177D01*
X014968Y014504D02*
X011078Y018234D01*
X010078Y018234D02*
X010078Y011804D01*
X011358Y010454D01*
X011820Y010406D01*
X011308Y011284D02*
X010908Y011704D01*
X010908Y015734D01*
X010578Y016004D01*
X010578Y016734D02*
X012078Y015509D01*
X012078Y013734D01*
X012532Y013483D01*
X012718Y011274D02*
X012718Y009234D01*
X013228Y008734D01*
X016078Y008734D01*
X011208Y003304D02*
X010578Y003904D01*
X010578Y010344D01*
X010058Y010944D02*
X009298Y012014D01*
X009078Y013234D01*
X008368Y013394D02*
X007478Y014844D01*
X004298Y014834D01*
X005426Y013876D02*
X005578Y013734D01*
X005578Y013234D01*
X005848Y012209D01*
X006813Y011289D01*
X007608Y010454D02*
X007618Y010444D01*
X007788Y010294D01*
X006718Y009424D01*
X004798Y007674D01*
X004478Y006564D02*
X005078Y005734D01*
X005078Y002734D01*
X004078Y002734D02*
X002758Y003814D01*
X002758Y008314D01*
X003189Y008633D01*
X002078Y011734D02*
X002078Y016234D01*
X004178Y018334D01*
X006178Y018334D02*
X006208Y018254D01*
X004238Y016304D01*
X002578Y013734D02*
X007178Y018334D01*
X008078Y018234D02*
X009578Y016734D01*
X009578Y015474D01*
X008368Y013394D02*
X008578Y012234D01*
X009078Y011334D01*
X009078Y003734D01*
X010078Y002734D01*
X010058Y003734D02*
X010058Y010944D01*
X009528Y010504D02*
X009528Y004234D01*
X010058Y003734D02*
X011078Y002734D01*
X009078Y002734D02*
X007808Y003794D01*
X007808Y005924D01*
X008558Y006204D02*
X007578Y007234D01*
X007001Y007327D01*
X008578Y007214D02*
X008578Y010734D01*
X008413Y011289D01*
X004878Y012874D02*
X004258Y012394D01*
X003189Y012176D01*
X005578Y005464D02*
X005578Y004234D01*
X007078Y002734D01*
D14*
X009528Y004234D03*
X011208Y003304D03*
X008558Y006204D03*
X007808Y005924D03*
X008578Y007214D03*
X010578Y010344D03*
X009528Y010504D03*
X009078Y013234D03*
X009578Y015474D03*
X010578Y016004D03*
X010578Y016734D03*
X015248Y015154D03*
X005578Y005464D03*
X002078Y011734D03*
X002578Y013734D03*
X004238Y016304D03*
D15*
X008078Y018234D02*
X008178Y018334D01*
X010078Y018234D02*
X010178Y018334D01*
X011078Y018234D02*
X011178Y018334D01*
X012078Y018234D02*
X012178Y018334D01*
X013078Y018234D02*
X013178Y018334D01*
X007608Y010454D02*
X007589Y010405D01*
X007078Y002734D02*
X007178Y002434D01*
X009078Y002734D02*
X009178Y002434D01*
X010078Y002734D02*
X010178Y002434D01*
X011078Y002734D02*
X011178Y002434D01*
X016078Y008734D02*
X016219Y008634D01*
X005078Y002734D02*
X005178Y002434D01*
X004178Y002434D02*
X004078Y002734D01*
D16*
X004478Y006564D02*
X004798Y007674D01*
X006813Y011289D02*
X008413Y011289D01*
X011308Y011284D02*
X012718Y011274D01*
X004878Y012874D02*
X004298Y014834D01*
M02*
