G75*
%MOIN*%
%OFA0B0*%
%FSLAX25Y25*%
%IPPOS*%
%LPD*%
%AMOC8*
5,1,8,0,0,1.08239X$1,22.5*
%
%ADD10C,0.00000*%
%ADD11C,0.00700*%
%ADD12C,0.06000*%
%ADD13C,0.10000*%
%ADD14OC8,0.05200*%
%ADD15C,0.01600*%
%ADD16OC8,0.03962*%
D10*
X0001000Y0001000D02*
X0001000Y0162201D01*
X0500921Y0162201D01*
X0500921Y0001000D01*
X0001000Y0001000D01*
X0036157Y0098500D02*
X0036160Y0098742D01*
X0036169Y0098983D01*
X0036184Y0099224D01*
X0036204Y0099465D01*
X0036231Y0099705D01*
X0036264Y0099944D01*
X0036302Y0100183D01*
X0036346Y0100420D01*
X0036396Y0100657D01*
X0036452Y0100892D01*
X0036514Y0101125D01*
X0036581Y0101357D01*
X0036654Y0101588D01*
X0036732Y0101816D01*
X0036817Y0102042D01*
X0036906Y0102267D01*
X0037001Y0102489D01*
X0037102Y0102708D01*
X0037208Y0102926D01*
X0037319Y0103140D01*
X0037436Y0103352D01*
X0037557Y0103560D01*
X0037684Y0103766D01*
X0037816Y0103968D01*
X0037953Y0104168D01*
X0038094Y0104363D01*
X0038240Y0104556D01*
X0038391Y0104744D01*
X0038547Y0104929D01*
X0038707Y0105110D01*
X0038871Y0105287D01*
X0039040Y0105460D01*
X0039213Y0105629D01*
X0039390Y0105793D01*
X0039571Y0105953D01*
X0039756Y0106109D01*
X0039944Y0106260D01*
X0040137Y0106406D01*
X0040332Y0106547D01*
X0040532Y0106684D01*
X0040734Y0106816D01*
X0040940Y0106943D01*
X0041148Y0107064D01*
X0041360Y0107181D01*
X0041574Y0107292D01*
X0041792Y0107398D01*
X0042011Y0107499D01*
X0042233Y0107594D01*
X0042458Y0107683D01*
X0042684Y0107768D01*
X0042912Y0107846D01*
X0043143Y0107919D01*
X0043375Y0107986D01*
X0043608Y0108048D01*
X0043843Y0108104D01*
X0044080Y0108154D01*
X0044317Y0108198D01*
X0044556Y0108236D01*
X0044795Y0108269D01*
X0045035Y0108296D01*
X0045276Y0108316D01*
X0045517Y0108331D01*
X0045758Y0108340D01*
X0046000Y0108343D01*
X0046242Y0108340D01*
X0046483Y0108331D01*
X0046724Y0108316D01*
X0046965Y0108296D01*
X0047205Y0108269D01*
X0047444Y0108236D01*
X0047683Y0108198D01*
X0047920Y0108154D01*
X0048157Y0108104D01*
X0048392Y0108048D01*
X0048625Y0107986D01*
X0048857Y0107919D01*
X0049088Y0107846D01*
X0049316Y0107768D01*
X0049542Y0107683D01*
X0049767Y0107594D01*
X0049989Y0107499D01*
X0050208Y0107398D01*
X0050426Y0107292D01*
X0050640Y0107181D01*
X0050852Y0107064D01*
X0051060Y0106943D01*
X0051266Y0106816D01*
X0051468Y0106684D01*
X0051668Y0106547D01*
X0051863Y0106406D01*
X0052056Y0106260D01*
X0052244Y0106109D01*
X0052429Y0105953D01*
X0052610Y0105793D01*
X0052787Y0105629D01*
X0052960Y0105460D01*
X0053129Y0105287D01*
X0053293Y0105110D01*
X0053453Y0104929D01*
X0053609Y0104744D01*
X0053760Y0104556D01*
X0053906Y0104363D01*
X0054047Y0104168D01*
X0054184Y0103968D01*
X0054316Y0103766D01*
X0054443Y0103560D01*
X0054564Y0103352D01*
X0054681Y0103140D01*
X0054792Y0102926D01*
X0054898Y0102708D01*
X0054999Y0102489D01*
X0055094Y0102267D01*
X0055183Y0102042D01*
X0055268Y0101816D01*
X0055346Y0101588D01*
X0055419Y0101357D01*
X0055486Y0101125D01*
X0055548Y0100892D01*
X0055604Y0100657D01*
X0055654Y0100420D01*
X0055698Y0100183D01*
X0055736Y0099944D01*
X0055769Y0099705D01*
X0055796Y0099465D01*
X0055816Y0099224D01*
X0055831Y0098983D01*
X0055840Y0098742D01*
X0055843Y0098500D01*
X0055840Y0098258D01*
X0055831Y0098017D01*
X0055816Y0097776D01*
X0055796Y0097535D01*
X0055769Y0097295D01*
X0055736Y0097056D01*
X0055698Y0096817D01*
X0055654Y0096580D01*
X0055604Y0096343D01*
X0055548Y0096108D01*
X0055486Y0095875D01*
X0055419Y0095643D01*
X0055346Y0095412D01*
X0055268Y0095184D01*
X0055183Y0094958D01*
X0055094Y0094733D01*
X0054999Y0094511D01*
X0054898Y0094292D01*
X0054792Y0094074D01*
X0054681Y0093860D01*
X0054564Y0093648D01*
X0054443Y0093440D01*
X0054316Y0093234D01*
X0054184Y0093032D01*
X0054047Y0092832D01*
X0053906Y0092637D01*
X0053760Y0092444D01*
X0053609Y0092256D01*
X0053453Y0092071D01*
X0053293Y0091890D01*
X0053129Y0091713D01*
X0052960Y0091540D01*
X0052787Y0091371D01*
X0052610Y0091207D01*
X0052429Y0091047D01*
X0052244Y0090891D01*
X0052056Y0090740D01*
X0051863Y0090594D01*
X0051668Y0090453D01*
X0051468Y0090316D01*
X0051266Y0090184D01*
X0051060Y0090057D01*
X0050852Y0089936D01*
X0050640Y0089819D01*
X0050426Y0089708D01*
X0050208Y0089602D01*
X0049989Y0089501D01*
X0049767Y0089406D01*
X0049542Y0089317D01*
X0049316Y0089232D01*
X0049088Y0089154D01*
X0048857Y0089081D01*
X0048625Y0089014D01*
X0048392Y0088952D01*
X0048157Y0088896D01*
X0047920Y0088846D01*
X0047683Y0088802D01*
X0047444Y0088764D01*
X0047205Y0088731D01*
X0046965Y0088704D01*
X0046724Y0088684D01*
X0046483Y0088669D01*
X0046242Y0088660D01*
X0046000Y0088657D01*
X0045758Y0088660D01*
X0045517Y0088669D01*
X0045276Y0088684D01*
X0045035Y0088704D01*
X0044795Y0088731D01*
X0044556Y0088764D01*
X0044317Y0088802D01*
X0044080Y0088846D01*
X0043843Y0088896D01*
X0043608Y0088952D01*
X0043375Y0089014D01*
X0043143Y0089081D01*
X0042912Y0089154D01*
X0042684Y0089232D01*
X0042458Y0089317D01*
X0042233Y0089406D01*
X0042011Y0089501D01*
X0041792Y0089602D01*
X0041574Y0089708D01*
X0041360Y0089819D01*
X0041148Y0089936D01*
X0040940Y0090057D01*
X0040734Y0090184D01*
X0040532Y0090316D01*
X0040332Y0090453D01*
X0040137Y0090594D01*
X0039944Y0090740D01*
X0039756Y0090891D01*
X0039571Y0091047D01*
X0039390Y0091207D01*
X0039213Y0091371D01*
X0039040Y0091540D01*
X0038871Y0091713D01*
X0038707Y0091890D01*
X0038547Y0092071D01*
X0038391Y0092256D01*
X0038240Y0092444D01*
X0038094Y0092637D01*
X0037953Y0092832D01*
X0037816Y0093032D01*
X0037684Y0093234D01*
X0037557Y0093440D01*
X0037436Y0093648D01*
X0037319Y0093860D01*
X0037208Y0094074D01*
X0037102Y0094292D01*
X0037001Y0094511D01*
X0036906Y0094733D01*
X0036817Y0094958D01*
X0036732Y0095184D01*
X0036654Y0095412D01*
X0036581Y0095643D01*
X0036514Y0095875D01*
X0036452Y0096108D01*
X0036396Y0096343D01*
X0036346Y0096580D01*
X0036302Y0096817D01*
X0036264Y0097056D01*
X0036231Y0097295D01*
X0036204Y0097535D01*
X0036184Y0097776D01*
X0036169Y0098017D01*
X0036160Y0098258D01*
X0036157Y0098500D01*
X0116157Y0098500D02*
X0116160Y0098742D01*
X0116169Y0098983D01*
X0116184Y0099224D01*
X0116204Y0099465D01*
X0116231Y0099705D01*
X0116264Y0099944D01*
X0116302Y0100183D01*
X0116346Y0100420D01*
X0116396Y0100657D01*
X0116452Y0100892D01*
X0116514Y0101125D01*
X0116581Y0101357D01*
X0116654Y0101588D01*
X0116732Y0101816D01*
X0116817Y0102042D01*
X0116906Y0102267D01*
X0117001Y0102489D01*
X0117102Y0102708D01*
X0117208Y0102926D01*
X0117319Y0103140D01*
X0117436Y0103352D01*
X0117557Y0103560D01*
X0117684Y0103766D01*
X0117816Y0103968D01*
X0117953Y0104168D01*
X0118094Y0104363D01*
X0118240Y0104556D01*
X0118391Y0104744D01*
X0118547Y0104929D01*
X0118707Y0105110D01*
X0118871Y0105287D01*
X0119040Y0105460D01*
X0119213Y0105629D01*
X0119390Y0105793D01*
X0119571Y0105953D01*
X0119756Y0106109D01*
X0119944Y0106260D01*
X0120137Y0106406D01*
X0120332Y0106547D01*
X0120532Y0106684D01*
X0120734Y0106816D01*
X0120940Y0106943D01*
X0121148Y0107064D01*
X0121360Y0107181D01*
X0121574Y0107292D01*
X0121792Y0107398D01*
X0122011Y0107499D01*
X0122233Y0107594D01*
X0122458Y0107683D01*
X0122684Y0107768D01*
X0122912Y0107846D01*
X0123143Y0107919D01*
X0123375Y0107986D01*
X0123608Y0108048D01*
X0123843Y0108104D01*
X0124080Y0108154D01*
X0124317Y0108198D01*
X0124556Y0108236D01*
X0124795Y0108269D01*
X0125035Y0108296D01*
X0125276Y0108316D01*
X0125517Y0108331D01*
X0125758Y0108340D01*
X0126000Y0108343D01*
X0126242Y0108340D01*
X0126483Y0108331D01*
X0126724Y0108316D01*
X0126965Y0108296D01*
X0127205Y0108269D01*
X0127444Y0108236D01*
X0127683Y0108198D01*
X0127920Y0108154D01*
X0128157Y0108104D01*
X0128392Y0108048D01*
X0128625Y0107986D01*
X0128857Y0107919D01*
X0129088Y0107846D01*
X0129316Y0107768D01*
X0129542Y0107683D01*
X0129767Y0107594D01*
X0129989Y0107499D01*
X0130208Y0107398D01*
X0130426Y0107292D01*
X0130640Y0107181D01*
X0130852Y0107064D01*
X0131060Y0106943D01*
X0131266Y0106816D01*
X0131468Y0106684D01*
X0131668Y0106547D01*
X0131863Y0106406D01*
X0132056Y0106260D01*
X0132244Y0106109D01*
X0132429Y0105953D01*
X0132610Y0105793D01*
X0132787Y0105629D01*
X0132960Y0105460D01*
X0133129Y0105287D01*
X0133293Y0105110D01*
X0133453Y0104929D01*
X0133609Y0104744D01*
X0133760Y0104556D01*
X0133906Y0104363D01*
X0134047Y0104168D01*
X0134184Y0103968D01*
X0134316Y0103766D01*
X0134443Y0103560D01*
X0134564Y0103352D01*
X0134681Y0103140D01*
X0134792Y0102926D01*
X0134898Y0102708D01*
X0134999Y0102489D01*
X0135094Y0102267D01*
X0135183Y0102042D01*
X0135268Y0101816D01*
X0135346Y0101588D01*
X0135419Y0101357D01*
X0135486Y0101125D01*
X0135548Y0100892D01*
X0135604Y0100657D01*
X0135654Y0100420D01*
X0135698Y0100183D01*
X0135736Y0099944D01*
X0135769Y0099705D01*
X0135796Y0099465D01*
X0135816Y0099224D01*
X0135831Y0098983D01*
X0135840Y0098742D01*
X0135843Y0098500D01*
X0135840Y0098258D01*
X0135831Y0098017D01*
X0135816Y0097776D01*
X0135796Y0097535D01*
X0135769Y0097295D01*
X0135736Y0097056D01*
X0135698Y0096817D01*
X0135654Y0096580D01*
X0135604Y0096343D01*
X0135548Y0096108D01*
X0135486Y0095875D01*
X0135419Y0095643D01*
X0135346Y0095412D01*
X0135268Y0095184D01*
X0135183Y0094958D01*
X0135094Y0094733D01*
X0134999Y0094511D01*
X0134898Y0094292D01*
X0134792Y0094074D01*
X0134681Y0093860D01*
X0134564Y0093648D01*
X0134443Y0093440D01*
X0134316Y0093234D01*
X0134184Y0093032D01*
X0134047Y0092832D01*
X0133906Y0092637D01*
X0133760Y0092444D01*
X0133609Y0092256D01*
X0133453Y0092071D01*
X0133293Y0091890D01*
X0133129Y0091713D01*
X0132960Y0091540D01*
X0132787Y0091371D01*
X0132610Y0091207D01*
X0132429Y0091047D01*
X0132244Y0090891D01*
X0132056Y0090740D01*
X0131863Y0090594D01*
X0131668Y0090453D01*
X0131468Y0090316D01*
X0131266Y0090184D01*
X0131060Y0090057D01*
X0130852Y0089936D01*
X0130640Y0089819D01*
X0130426Y0089708D01*
X0130208Y0089602D01*
X0129989Y0089501D01*
X0129767Y0089406D01*
X0129542Y0089317D01*
X0129316Y0089232D01*
X0129088Y0089154D01*
X0128857Y0089081D01*
X0128625Y0089014D01*
X0128392Y0088952D01*
X0128157Y0088896D01*
X0127920Y0088846D01*
X0127683Y0088802D01*
X0127444Y0088764D01*
X0127205Y0088731D01*
X0126965Y0088704D01*
X0126724Y0088684D01*
X0126483Y0088669D01*
X0126242Y0088660D01*
X0126000Y0088657D01*
X0125758Y0088660D01*
X0125517Y0088669D01*
X0125276Y0088684D01*
X0125035Y0088704D01*
X0124795Y0088731D01*
X0124556Y0088764D01*
X0124317Y0088802D01*
X0124080Y0088846D01*
X0123843Y0088896D01*
X0123608Y0088952D01*
X0123375Y0089014D01*
X0123143Y0089081D01*
X0122912Y0089154D01*
X0122684Y0089232D01*
X0122458Y0089317D01*
X0122233Y0089406D01*
X0122011Y0089501D01*
X0121792Y0089602D01*
X0121574Y0089708D01*
X0121360Y0089819D01*
X0121148Y0089936D01*
X0120940Y0090057D01*
X0120734Y0090184D01*
X0120532Y0090316D01*
X0120332Y0090453D01*
X0120137Y0090594D01*
X0119944Y0090740D01*
X0119756Y0090891D01*
X0119571Y0091047D01*
X0119390Y0091207D01*
X0119213Y0091371D01*
X0119040Y0091540D01*
X0118871Y0091713D01*
X0118707Y0091890D01*
X0118547Y0092071D01*
X0118391Y0092256D01*
X0118240Y0092444D01*
X0118094Y0092637D01*
X0117953Y0092832D01*
X0117816Y0093032D01*
X0117684Y0093234D01*
X0117557Y0093440D01*
X0117436Y0093648D01*
X0117319Y0093860D01*
X0117208Y0094074D01*
X0117102Y0094292D01*
X0117001Y0094511D01*
X0116906Y0094733D01*
X0116817Y0094958D01*
X0116732Y0095184D01*
X0116654Y0095412D01*
X0116581Y0095643D01*
X0116514Y0095875D01*
X0116452Y0096108D01*
X0116396Y0096343D01*
X0116346Y0096580D01*
X0116302Y0096817D01*
X0116264Y0097056D01*
X0116231Y0097295D01*
X0116204Y0097535D01*
X0116184Y0097776D01*
X0116169Y0098017D01*
X0116160Y0098258D01*
X0116157Y0098500D01*
X0203657Y0098500D02*
X0203660Y0098742D01*
X0203669Y0098983D01*
X0203684Y0099224D01*
X0203704Y0099465D01*
X0203731Y0099705D01*
X0203764Y0099944D01*
X0203802Y0100183D01*
X0203846Y0100420D01*
X0203896Y0100657D01*
X0203952Y0100892D01*
X0204014Y0101125D01*
X0204081Y0101357D01*
X0204154Y0101588D01*
X0204232Y0101816D01*
X0204317Y0102042D01*
X0204406Y0102267D01*
X0204501Y0102489D01*
X0204602Y0102708D01*
X0204708Y0102926D01*
X0204819Y0103140D01*
X0204936Y0103352D01*
X0205057Y0103560D01*
X0205184Y0103766D01*
X0205316Y0103968D01*
X0205453Y0104168D01*
X0205594Y0104363D01*
X0205740Y0104556D01*
X0205891Y0104744D01*
X0206047Y0104929D01*
X0206207Y0105110D01*
X0206371Y0105287D01*
X0206540Y0105460D01*
X0206713Y0105629D01*
X0206890Y0105793D01*
X0207071Y0105953D01*
X0207256Y0106109D01*
X0207444Y0106260D01*
X0207637Y0106406D01*
X0207832Y0106547D01*
X0208032Y0106684D01*
X0208234Y0106816D01*
X0208440Y0106943D01*
X0208648Y0107064D01*
X0208860Y0107181D01*
X0209074Y0107292D01*
X0209292Y0107398D01*
X0209511Y0107499D01*
X0209733Y0107594D01*
X0209958Y0107683D01*
X0210184Y0107768D01*
X0210412Y0107846D01*
X0210643Y0107919D01*
X0210875Y0107986D01*
X0211108Y0108048D01*
X0211343Y0108104D01*
X0211580Y0108154D01*
X0211817Y0108198D01*
X0212056Y0108236D01*
X0212295Y0108269D01*
X0212535Y0108296D01*
X0212776Y0108316D01*
X0213017Y0108331D01*
X0213258Y0108340D01*
X0213500Y0108343D01*
X0213742Y0108340D01*
X0213983Y0108331D01*
X0214224Y0108316D01*
X0214465Y0108296D01*
X0214705Y0108269D01*
X0214944Y0108236D01*
X0215183Y0108198D01*
X0215420Y0108154D01*
X0215657Y0108104D01*
X0215892Y0108048D01*
X0216125Y0107986D01*
X0216357Y0107919D01*
X0216588Y0107846D01*
X0216816Y0107768D01*
X0217042Y0107683D01*
X0217267Y0107594D01*
X0217489Y0107499D01*
X0217708Y0107398D01*
X0217926Y0107292D01*
X0218140Y0107181D01*
X0218352Y0107064D01*
X0218560Y0106943D01*
X0218766Y0106816D01*
X0218968Y0106684D01*
X0219168Y0106547D01*
X0219363Y0106406D01*
X0219556Y0106260D01*
X0219744Y0106109D01*
X0219929Y0105953D01*
X0220110Y0105793D01*
X0220287Y0105629D01*
X0220460Y0105460D01*
X0220629Y0105287D01*
X0220793Y0105110D01*
X0220953Y0104929D01*
X0221109Y0104744D01*
X0221260Y0104556D01*
X0221406Y0104363D01*
X0221547Y0104168D01*
X0221684Y0103968D01*
X0221816Y0103766D01*
X0221943Y0103560D01*
X0222064Y0103352D01*
X0222181Y0103140D01*
X0222292Y0102926D01*
X0222398Y0102708D01*
X0222499Y0102489D01*
X0222594Y0102267D01*
X0222683Y0102042D01*
X0222768Y0101816D01*
X0222846Y0101588D01*
X0222919Y0101357D01*
X0222986Y0101125D01*
X0223048Y0100892D01*
X0223104Y0100657D01*
X0223154Y0100420D01*
X0223198Y0100183D01*
X0223236Y0099944D01*
X0223269Y0099705D01*
X0223296Y0099465D01*
X0223316Y0099224D01*
X0223331Y0098983D01*
X0223340Y0098742D01*
X0223343Y0098500D01*
X0223340Y0098258D01*
X0223331Y0098017D01*
X0223316Y0097776D01*
X0223296Y0097535D01*
X0223269Y0097295D01*
X0223236Y0097056D01*
X0223198Y0096817D01*
X0223154Y0096580D01*
X0223104Y0096343D01*
X0223048Y0096108D01*
X0222986Y0095875D01*
X0222919Y0095643D01*
X0222846Y0095412D01*
X0222768Y0095184D01*
X0222683Y0094958D01*
X0222594Y0094733D01*
X0222499Y0094511D01*
X0222398Y0094292D01*
X0222292Y0094074D01*
X0222181Y0093860D01*
X0222064Y0093648D01*
X0221943Y0093440D01*
X0221816Y0093234D01*
X0221684Y0093032D01*
X0221547Y0092832D01*
X0221406Y0092637D01*
X0221260Y0092444D01*
X0221109Y0092256D01*
X0220953Y0092071D01*
X0220793Y0091890D01*
X0220629Y0091713D01*
X0220460Y0091540D01*
X0220287Y0091371D01*
X0220110Y0091207D01*
X0219929Y0091047D01*
X0219744Y0090891D01*
X0219556Y0090740D01*
X0219363Y0090594D01*
X0219168Y0090453D01*
X0218968Y0090316D01*
X0218766Y0090184D01*
X0218560Y0090057D01*
X0218352Y0089936D01*
X0218140Y0089819D01*
X0217926Y0089708D01*
X0217708Y0089602D01*
X0217489Y0089501D01*
X0217267Y0089406D01*
X0217042Y0089317D01*
X0216816Y0089232D01*
X0216588Y0089154D01*
X0216357Y0089081D01*
X0216125Y0089014D01*
X0215892Y0088952D01*
X0215657Y0088896D01*
X0215420Y0088846D01*
X0215183Y0088802D01*
X0214944Y0088764D01*
X0214705Y0088731D01*
X0214465Y0088704D01*
X0214224Y0088684D01*
X0213983Y0088669D01*
X0213742Y0088660D01*
X0213500Y0088657D01*
X0213258Y0088660D01*
X0213017Y0088669D01*
X0212776Y0088684D01*
X0212535Y0088704D01*
X0212295Y0088731D01*
X0212056Y0088764D01*
X0211817Y0088802D01*
X0211580Y0088846D01*
X0211343Y0088896D01*
X0211108Y0088952D01*
X0210875Y0089014D01*
X0210643Y0089081D01*
X0210412Y0089154D01*
X0210184Y0089232D01*
X0209958Y0089317D01*
X0209733Y0089406D01*
X0209511Y0089501D01*
X0209292Y0089602D01*
X0209074Y0089708D01*
X0208860Y0089819D01*
X0208648Y0089936D01*
X0208440Y0090057D01*
X0208234Y0090184D01*
X0208032Y0090316D01*
X0207832Y0090453D01*
X0207637Y0090594D01*
X0207444Y0090740D01*
X0207256Y0090891D01*
X0207071Y0091047D01*
X0206890Y0091207D01*
X0206713Y0091371D01*
X0206540Y0091540D01*
X0206371Y0091713D01*
X0206207Y0091890D01*
X0206047Y0092071D01*
X0205891Y0092256D01*
X0205740Y0092444D01*
X0205594Y0092637D01*
X0205453Y0092832D01*
X0205316Y0093032D01*
X0205184Y0093234D01*
X0205057Y0093440D01*
X0204936Y0093648D01*
X0204819Y0093860D01*
X0204708Y0094074D01*
X0204602Y0094292D01*
X0204501Y0094511D01*
X0204406Y0094733D01*
X0204317Y0094958D01*
X0204232Y0095184D01*
X0204154Y0095412D01*
X0204081Y0095643D01*
X0204014Y0095875D01*
X0203952Y0096108D01*
X0203896Y0096343D01*
X0203846Y0096580D01*
X0203802Y0096817D01*
X0203764Y0097056D01*
X0203731Y0097295D01*
X0203704Y0097535D01*
X0203684Y0097776D01*
X0203669Y0098017D01*
X0203660Y0098258D01*
X0203657Y0098500D01*
X0283657Y0098500D02*
X0283660Y0098742D01*
X0283669Y0098983D01*
X0283684Y0099224D01*
X0283704Y0099465D01*
X0283731Y0099705D01*
X0283764Y0099944D01*
X0283802Y0100183D01*
X0283846Y0100420D01*
X0283896Y0100657D01*
X0283952Y0100892D01*
X0284014Y0101125D01*
X0284081Y0101357D01*
X0284154Y0101588D01*
X0284232Y0101816D01*
X0284317Y0102042D01*
X0284406Y0102267D01*
X0284501Y0102489D01*
X0284602Y0102708D01*
X0284708Y0102926D01*
X0284819Y0103140D01*
X0284936Y0103352D01*
X0285057Y0103560D01*
X0285184Y0103766D01*
X0285316Y0103968D01*
X0285453Y0104168D01*
X0285594Y0104363D01*
X0285740Y0104556D01*
X0285891Y0104744D01*
X0286047Y0104929D01*
X0286207Y0105110D01*
X0286371Y0105287D01*
X0286540Y0105460D01*
X0286713Y0105629D01*
X0286890Y0105793D01*
X0287071Y0105953D01*
X0287256Y0106109D01*
X0287444Y0106260D01*
X0287637Y0106406D01*
X0287832Y0106547D01*
X0288032Y0106684D01*
X0288234Y0106816D01*
X0288440Y0106943D01*
X0288648Y0107064D01*
X0288860Y0107181D01*
X0289074Y0107292D01*
X0289292Y0107398D01*
X0289511Y0107499D01*
X0289733Y0107594D01*
X0289958Y0107683D01*
X0290184Y0107768D01*
X0290412Y0107846D01*
X0290643Y0107919D01*
X0290875Y0107986D01*
X0291108Y0108048D01*
X0291343Y0108104D01*
X0291580Y0108154D01*
X0291817Y0108198D01*
X0292056Y0108236D01*
X0292295Y0108269D01*
X0292535Y0108296D01*
X0292776Y0108316D01*
X0293017Y0108331D01*
X0293258Y0108340D01*
X0293500Y0108343D01*
X0293742Y0108340D01*
X0293983Y0108331D01*
X0294224Y0108316D01*
X0294465Y0108296D01*
X0294705Y0108269D01*
X0294944Y0108236D01*
X0295183Y0108198D01*
X0295420Y0108154D01*
X0295657Y0108104D01*
X0295892Y0108048D01*
X0296125Y0107986D01*
X0296357Y0107919D01*
X0296588Y0107846D01*
X0296816Y0107768D01*
X0297042Y0107683D01*
X0297267Y0107594D01*
X0297489Y0107499D01*
X0297708Y0107398D01*
X0297926Y0107292D01*
X0298140Y0107181D01*
X0298352Y0107064D01*
X0298560Y0106943D01*
X0298766Y0106816D01*
X0298968Y0106684D01*
X0299168Y0106547D01*
X0299363Y0106406D01*
X0299556Y0106260D01*
X0299744Y0106109D01*
X0299929Y0105953D01*
X0300110Y0105793D01*
X0300287Y0105629D01*
X0300460Y0105460D01*
X0300629Y0105287D01*
X0300793Y0105110D01*
X0300953Y0104929D01*
X0301109Y0104744D01*
X0301260Y0104556D01*
X0301406Y0104363D01*
X0301547Y0104168D01*
X0301684Y0103968D01*
X0301816Y0103766D01*
X0301943Y0103560D01*
X0302064Y0103352D01*
X0302181Y0103140D01*
X0302292Y0102926D01*
X0302398Y0102708D01*
X0302499Y0102489D01*
X0302594Y0102267D01*
X0302683Y0102042D01*
X0302768Y0101816D01*
X0302846Y0101588D01*
X0302919Y0101357D01*
X0302986Y0101125D01*
X0303048Y0100892D01*
X0303104Y0100657D01*
X0303154Y0100420D01*
X0303198Y0100183D01*
X0303236Y0099944D01*
X0303269Y0099705D01*
X0303296Y0099465D01*
X0303316Y0099224D01*
X0303331Y0098983D01*
X0303340Y0098742D01*
X0303343Y0098500D01*
X0303340Y0098258D01*
X0303331Y0098017D01*
X0303316Y0097776D01*
X0303296Y0097535D01*
X0303269Y0097295D01*
X0303236Y0097056D01*
X0303198Y0096817D01*
X0303154Y0096580D01*
X0303104Y0096343D01*
X0303048Y0096108D01*
X0302986Y0095875D01*
X0302919Y0095643D01*
X0302846Y0095412D01*
X0302768Y0095184D01*
X0302683Y0094958D01*
X0302594Y0094733D01*
X0302499Y0094511D01*
X0302398Y0094292D01*
X0302292Y0094074D01*
X0302181Y0093860D01*
X0302064Y0093648D01*
X0301943Y0093440D01*
X0301816Y0093234D01*
X0301684Y0093032D01*
X0301547Y0092832D01*
X0301406Y0092637D01*
X0301260Y0092444D01*
X0301109Y0092256D01*
X0300953Y0092071D01*
X0300793Y0091890D01*
X0300629Y0091713D01*
X0300460Y0091540D01*
X0300287Y0091371D01*
X0300110Y0091207D01*
X0299929Y0091047D01*
X0299744Y0090891D01*
X0299556Y0090740D01*
X0299363Y0090594D01*
X0299168Y0090453D01*
X0298968Y0090316D01*
X0298766Y0090184D01*
X0298560Y0090057D01*
X0298352Y0089936D01*
X0298140Y0089819D01*
X0297926Y0089708D01*
X0297708Y0089602D01*
X0297489Y0089501D01*
X0297267Y0089406D01*
X0297042Y0089317D01*
X0296816Y0089232D01*
X0296588Y0089154D01*
X0296357Y0089081D01*
X0296125Y0089014D01*
X0295892Y0088952D01*
X0295657Y0088896D01*
X0295420Y0088846D01*
X0295183Y0088802D01*
X0294944Y0088764D01*
X0294705Y0088731D01*
X0294465Y0088704D01*
X0294224Y0088684D01*
X0293983Y0088669D01*
X0293742Y0088660D01*
X0293500Y0088657D01*
X0293258Y0088660D01*
X0293017Y0088669D01*
X0292776Y0088684D01*
X0292535Y0088704D01*
X0292295Y0088731D01*
X0292056Y0088764D01*
X0291817Y0088802D01*
X0291580Y0088846D01*
X0291343Y0088896D01*
X0291108Y0088952D01*
X0290875Y0089014D01*
X0290643Y0089081D01*
X0290412Y0089154D01*
X0290184Y0089232D01*
X0289958Y0089317D01*
X0289733Y0089406D01*
X0289511Y0089501D01*
X0289292Y0089602D01*
X0289074Y0089708D01*
X0288860Y0089819D01*
X0288648Y0089936D01*
X0288440Y0090057D01*
X0288234Y0090184D01*
X0288032Y0090316D01*
X0287832Y0090453D01*
X0287637Y0090594D01*
X0287444Y0090740D01*
X0287256Y0090891D01*
X0287071Y0091047D01*
X0286890Y0091207D01*
X0286713Y0091371D01*
X0286540Y0091540D01*
X0286371Y0091713D01*
X0286207Y0091890D01*
X0286047Y0092071D01*
X0285891Y0092256D01*
X0285740Y0092444D01*
X0285594Y0092637D01*
X0285453Y0092832D01*
X0285316Y0093032D01*
X0285184Y0093234D01*
X0285057Y0093440D01*
X0284936Y0093648D01*
X0284819Y0093860D01*
X0284708Y0094074D01*
X0284602Y0094292D01*
X0284501Y0094511D01*
X0284406Y0094733D01*
X0284317Y0094958D01*
X0284232Y0095184D01*
X0284154Y0095412D01*
X0284081Y0095643D01*
X0284014Y0095875D01*
X0283952Y0096108D01*
X0283896Y0096343D01*
X0283846Y0096580D01*
X0283802Y0096817D01*
X0283764Y0097056D01*
X0283731Y0097295D01*
X0283704Y0097535D01*
X0283684Y0097776D01*
X0283669Y0098017D01*
X0283660Y0098258D01*
X0283657Y0098500D01*
X0371157Y0098500D02*
X0371160Y0098742D01*
X0371169Y0098983D01*
X0371184Y0099224D01*
X0371204Y0099465D01*
X0371231Y0099705D01*
X0371264Y0099944D01*
X0371302Y0100183D01*
X0371346Y0100420D01*
X0371396Y0100657D01*
X0371452Y0100892D01*
X0371514Y0101125D01*
X0371581Y0101357D01*
X0371654Y0101588D01*
X0371732Y0101816D01*
X0371817Y0102042D01*
X0371906Y0102267D01*
X0372001Y0102489D01*
X0372102Y0102708D01*
X0372208Y0102926D01*
X0372319Y0103140D01*
X0372436Y0103352D01*
X0372557Y0103560D01*
X0372684Y0103766D01*
X0372816Y0103968D01*
X0372953Y0104168D01*
X0373094Y0104363D01*
X0373240Y0104556D01*
X0373391Y0104744D01*
X0373547Y0104929D01*
X0373707Y0105110D01*
X0373871Y0105287D01*
X0374040Y0105460D01*
X0374213Y0105629D01*
X0374390Y0105793D01*
X0374571Y0105953D01*
X0374756Y0106109D01*
X0374944Y0106260D01*
X0375137Y0106406D01*
X0375332Y0106547D01*
X0375532Y0106684D01*
X0375734Y0106816D01*
X0375940Y0106943D01*
X0376148Y0107064D01*
X0376360Y0107181D01*
X0376574Y0107292D01*
X0376792Y0107398D01*
X0377011Y0107499D01*
X0377233Y0107594D01*
X0377458Y0107683D01*
X0377684Y0107768D01*
X0377912Y0107846D01*
X0378143Y0107919D01*
X0378375Y0107986D01*
X0378608Y0108048D01*
X0378843Y0108104D01*
X0379080Y0108154D01*
X0379317Y0108198D01*
X0379556Y0108236D01*
X0379795Y0108269D01*
X0380035Y0108296D01*
X0380276Y0108316D01*
X0380517Y0108331D01*
X0380758Y0108340D01*
X0381000Y0108343D01*
X0381242Y0108340D01*
X0381483Y0108331D01*
X0381724Y0108316D01*
X0381965Y0108296D01*
X0382205Y0108269D01*
X0382444Y0108236D01*
X0382683Y0108198D01*
X0382920Y0108154D01*
X0383157Y0108104D01*
X0383392Y0108048D01*
X0383625Y0107986D01*
X0383857Y0107919D01*
X0384088Y0107846D01*
X0384316Y0107768D01*
X0384542Y0107683D01*
X0384767Y0107594D01*
X0384989Y0107499D01*
X0385208Y0107398D01*
X0385426Y0107292D01*
X0385640Y0107181D01*
X0385852Y0107064D01*
X0386060Y0106943D01*
X0386266Y0106816D01*
X0386468Y0106684D01*
X0386668Y0106547D01*
X0386863Y0106406D01*
X0387056Y0106260D01*
X0387244Y0106109D01*
X0387429Y0105953D01*
X0387610Y0105793D01*
X0387787Y0105629D01*
X0387960Y0105460D01*
X0388129Y0105287D01*
X0388293Y0105110D01*
X0388453Y0104929D01*
X0388609Y0104744D01*
X0388760Y0104556D01*
X0388906Y0104363D01*
X0389047Y0104168D01*
X0389184Y0103968D01*
X0389316Y0103766D01*
X0389443Y0103560D01*
X0389564Y0103352D01*
X0389681Y0103140D01*
X0389792Y0102926D01*
X0389898Y0102708D01*
X0389999Y0102489D01*
X0390094Y0102267D01*
X0390183Y0102042D01*
X0390268Y0101816D01*
X0390346Y0101588D01*
X0390419Y0101357D01*
X0390486Y0101125D01*
X0390548Y0100892D01*
X0390604Y0100657D01*
X0390654Y0100420D01*
X0390698Y0100183D01*
X0390736Y0099944D01*
X0390769Y0099705D01*
X0390796Y0099465D01*
X0390816Y0099224D01*
X0390831Y0098983D01*
X0390840Y0098742D01*
X0390843Y0098500D01*
X0390840Y0098258D01*
X0390831Y0098017D01*
X0390816Y0097776D01*
X0390796Y0097535D01*
X0390769Y0097295D01*
X0390736Y0097056D01*
X0390698Y0096817D01*
X0390654Y0096580D01*
X0390604Y0096343D01*
X0390548Y0096108D01*
X0390486Y0095875D01*
X0390419Y0095643D01*
X0390346Y0095412D01*
X0390268Y0095184D01*
X0390183Y0094958D01*
X0390094Y0094733D01*
X0389999Y0094511D01*
X0389898Y0094292D01*
X0389792Y0094074D01*
X0389681Y0093860D01*
X0389564Y0093648D01*
X0389443Y0093440D01*
X0389316Y0093234D01*
X0389184Y0093032D01*
X0389047Y0092832D01*
X0388906Y0092637D01*
X0388760Y0092444D01*
X0388609Y0092256D01*
X0388453Y0092071D01*
X0388293Y0091890D01*
X0388129Y0091713D01*
X0387960Y0091540D01*
X0387787Y0091371D01*
X0387610Y0091207D01*
X0387429Y0091047D01*
X0387244Y0090891D01*
X0387056Y0090740D01*
X0386863Y0090594D01*
X0386668Y0090453D01*
X0386468Y0090316D01*
X0386266Y0090184D01*
X0386060Y0090057D01*
X0385852Y0089936D01*
X0385640Y0089819D01*
X0385426Y0089708D01*
X0385208Y0089602D01*
X0384989Y0089501D01*
X0384767Y0089406D01*
X0384542Y0089317D01*
X0384316Y0089232D01*
X0384088Y0089154D01*
X0383857Y0089081D01*
X0383625Y0089014D01*
X0383392Y0088952D01*
X0383157Y0088896D01*
X0382920Y0088846D01*
X0382683Y0088802D01*
X0382444Y0088764D01*
X0382205Y0088731D01*
X0381965Y0088704D01*
X0381724Y0088684D01*
X0381483Y0088669D01*
X0381242Y0088660D01*
X0381000Y0088657D01*
X0380758Y0088660D01*
X0380517Y0088669D01*
X0380276Y0088684D01*
X0380035Y0088704D01*
X0379795Y0088731D01*
X0379556Y0088764D01*
X0379317Y0088802D01*
X0379080Y0088846D01*
X0378843Y0088896D01*
X0378608Y0088952D01*
X0378375Y0089014D01*
X0378143Y0089081D01*
X0377912Y0089154D01*
X0377684Y0089232D01*
X0377458Y0089317D01*
X0377233Y0089406D01*
X0377011Y0089501D01*
X0376792Y0089602D01*
X0376574Y0089708D01*
X0376360Y0089819D01*
X0376148Y0089936D01*
X0375940Y0090057D01*
X0375734Y0090184D01*
X0375532Y0090316D01*
X0375332Y0090453D01*
X0375137Y0090594D01*
X0374944Y0090740D01*
X0374756Y0090891D01*
X0374571Y0091047D01*
X0374390Y0091207D01*
X0374213Y0091371D01*
X0374040Y0091540D01*
X0373871Y0091713D01*
X0373707Y0091890D01*
X0373547Y0092071D01*
X0373391Y0092256D01*
X0373240Y0092444D01*
X0373094Y0092637D01*
X0372953Y0092832D01*
X0372816Y0093032D01*
X0372684Y0093234D01*
X0372557Y0093440D01*
X0372436Y0093648D01*
X0372319Y0093860D01*
X0372208Y0094074D01*
X0372102Y0094292D01*
X0372001Y0094511D01*
X0371906Y0094733D01*
X0371817Y0094958D01*
X0371732Y0095184D01*
X0371654Y0095412D01*
X0371581Y0095643D01*
X0371514Y0095875D01*
X0371452Y0096108D01*
X0371396Y0096343D01*
X0371346Y0096580D01*
X0371302Y0096817D01*
X0371264Y0097056D01*
X0371231Y0097295D01*
X0371204Y0097535D01*
X0371184Y0097776D01*
X0371169Y0098017D01*
X0371160Y0098258D01*
X0371157Y0098500D01*
X0451157Y0098500D02*
X0451160Y0098742D01*
X0451169Y0098983D01*
X0451184Y0099224D01*
X0451204Y0099465D01*
X0451231Y0099705D01*
X0451264Y0099944D01*
X0451302Y0100183D01*
X0451346Y0100420D01*
X0451396Y0100657D01*
X0451452Y0100892D01*
X0451514Y0101125D01*
X0451581Y0101357D01*
X0451654Y0101588D01*
X0451732Y0101816D01*
X0451817Y0102042D01*
X0451906Y0102267D01*
X0452001Y0102489D01*
X0452102Y0102708D01*
X0452208Y0102926D01*
X0452319Y0103140D01*
X0452436Y0103352D01*
X0452557Y0103560D01*
X0452684Y0103766D01*
X0452816Y0103968D01*
X0452953Y0104168D01*
X0453094Y0104363D01*
X0453240Y0104556D01*
X0453391Y0104744D01*
X0453547Y0104929D01*
X0453707Y0105110D01*
X0453871Y0105287D01*
X0454040Y0105460D01*
X0454213Y0105629D01*
X0454390Y0105793D01*
X0454571Y0105953D01*
X0454756Y0106109D01*
X0454944Y0106260D01*
X0455137Y0106406D01*
X0455332Y0106547D01*
X0455532Y0106684D01*
X0455734Y0106816D01*
X0455940Y0106943D01*
X0456148Y0107064D01*
X0456360Y0107181D01*
X0456574Y0107292D01*
X0456792Y0107398D01*
X0457011Y0107499D01*
X0457233Y0107594D01*
X0457458Y0107683D01*
X0457684Y0107768D01*
X0457912Y0107846D01*
X0458143Y0107919D01*
X0458375Y0107986D01*
X0458608Y0108048D01*
X0458843Y0108104D01*
X0459080Y0108154D01*
X0459317Y0108198D01*
X0459556Y0108236D01*
X0459795Y0108269D01*
X0460035Y0108296D01*
X0460276Y0108316D01*
X0460517Y0108331D01*
X0460758Y0108340D01*
X0461000Y0108343D01*
X0461242Y0108340D01*
X0461483Y0108331D01*
X0461724Y0108316D01*
X0461965Y0108296D01*
X0462205Y0108269D01*
X0462444Y0108236D01*
X0462683Y0108198D01*
X0462920Y0108154D01*
X0463157Y0108104D01*
X0463392Y0108048D01*
X0463625Y0107986D01*
X0463857Y0107919D01*
X0464088Y0107846D01*
X0464316Y0107768D01*
X0464542Y0107683D01*
X0464767Y0107594D01*
X0464989Y0107499D01*
X0465208Y0107398D01*
X0465426Y0107292D01*
X0465640Y0107181D01*
X0465852Y0107064D01*
X0466060Y0106943D01*
X0466266Y0106816D01*
X0466468Y0106684D01*
X0466668Y0106547D01*
X0466863Y0106406D01*
X0467056Y0106260D01*
X0467244Y0106109D01*
X0467429Y0105953D01*
X0467610Y0105793D01*
X0467787Y0105629D01*
X0467960Y0105460D01*
X0468129Y0105287D01*
X0468293Y0105110D01*
X0468453Y0104929D01*
X0468609Y0104744D01*
X0468760Y0104556D01*
X0468906Y0104363D01*
X0469047Y0104168D01*
X0469184Y0103968D01*
X0469316Y0103766D01*
X0469443Y0103560D01*
X0469564Y0103352D01*
X0469681Y0103140D01*
X0469792Y0102926D01*
X0469898Y0102708D01*
X0469999Y0102489D01*
X0470094Y0102267D01*
X0470183Y0102042D01*
X0470268Y0101816D01*
X0470346Y0101588D01*
X0470419Y0101357D01*
X0470486Y0101125D01*
X0470548Y0100892D01*
X0470604Y0100657D01*
X0470654Y0100420D01*
X0470698Y0100183D01*
X0470736Y0099944D01*
X0470769Y0099705D01*
X0470796Y0099465D01*
X0470816Y0099224D01*
X0470831Y0098983D01*
X0470840Y0098742D01*
X0470843Y0098500D01*
X0470840Y0098258D01*
X0470831Y0098017D01*
X0470816Y0097776D01*
X0470796Y0097535D01*
X0470769Y0097295D01*
X0470736Y0097056D01*
X0470698Y0096817D01*
X0470654Y0096580D01*
X0470604Y0096343D01*
X0470548Y0096108D01*
X0470486Y0095875D01*
X0470419Y0095643D01*
X0470346Y0095412D01*
X0470268Y0095184D01*
X0470183Y0094958D01*
X0470094Y0094733D01*
X0469999Y0094511D01*
X0469898Y0094292D01*
X0469792Y0094074D01*
X0469681Y0093860D01*
X0469564Y0093648D01*
X0469443Y0093440D01*
X0469316Y0093234D01*
X0469184Y0093032D01*
X0469047Y0092832D01*
X0468906Y0092637D01*
X0468760Y0092444D01*
X0468609Y0092256D01*
X0468453Y0092071D01*
X0468293Y0091890D01*
X0468129Y0091713D01*
X0467960Y0091540D01*
X0467787Y0091371D01*
X0467610Y0091207D01*
X0467429Y0091047D01*
X0467244Y0090891D01*
X0467056Y0090740D01*
X0466863Y0090594D01*
X0466668Y0090453D01*
X0466468Y0090316D01*
X0466266Y0090184D01*
X0466060Y0090057D01*
X0465852Y0089936D01*
X0465640Y0089819D01*
X0465426Y0089708D01*
X0465208Y0089602D01*
X0464989Y0089501D01*
X0464767Y0089406D01*
X0464542Y0089317D01*
X0464316Y0089232D01*
X0464088Y0089154D01*
X0463857Y0089081D01*
X0463625Y0089014D01*
X0463392Y0088952D01*
X0463157Y0088896D01*
X0462920Y0088846D01*
X0462683Y0088802D01*
X0462444Y0088764D01*
X0462205Y0088731D01*
X0461965Y0088704D01*
X0461724Y0088684D01*
X0461483Y0088669D01*
X0461242Y0088660D01*
X0461000Y0088657D01*
X0460758Y0088660D01*
X0460517Y0088669D01*
X0460276Y0088684D01*
X0460035Y0088704D01*
X0459795Y0088731D01*
X0459556Y0088764D01*
X0459317Y0088802D01*
X0459080Y0088846D01*
X0458843Y0088896D01*
X0458608Y0088952D01*
X0458375Y0089014D01*
X0458143Y0089081D01*
X0457912Y0089154D01*
X0457684Y0089232D01*
X0457458Y0089317D01*
X0457233Y0089406D01*
X0457011Y0089501D01*
X0456792Y0089602D01*
X0456574Y0089708D01*
X0456360Y0089819D01*
X0456148Y0089936D01*
X0455940Y0090057D01*
X0455734Y0090184D01*
X0455532Y0090316D01*
X0455332Y0090453D01*
X0455137Y0090594D01*
X0454944Y0090740D01*
X0454756Y0090891D01*
X0454571Y0091047D01*
X0454390Y0091207D01*
X0454213Y0091371D01*
X0454040Y0091540D01*
X0453871Y0091713D01*
X0453707Y0091890D01*
X0453547Y0092071D01*
X0453391Y0092256D01*
X0453240Y0092444D01*
X0453094Y0092637D01*
X0452953Y0092832D01*
X0452816Y0093032D01*
X0452684Y0093234D01*
X0452557Y0093440D01*
X0452436Y0093648D01*
X0452319Y0093860D01*
X0452208Y0094074D01*
X0452102Y0094292D01*
X0452001Y0094511D01*
X0451906Y0094733D01*
X0451817Y0094958D01*
X0451732Y0095184D01*
X0451654Y0095412D01*
X0451581Y0095643D01*
X0451514Y0095875D01*
X0451452Y0096108D01*
X0451396Y0096343D01*
X0451346Y0096580D01*
X0451302Y0096817D01*
X0451264Y0097056D01*
X0451231Y0097295D01*
X0451204Y0097535D01*
X0451184Y0097776D01*
X0451169Y0098017D01*
X0451160Y0098258D01*
X0451157Y0098500D01*
D11*
X0081202Y0015657D02*
X0081202Y0014339D01*
X0075931Y0009068D01*
X0075931Y0007750D01*
X0073284Y0007750D02*
X0068012Y0007750D01*
X0070648Y0007750D02*
X0070648Y0015657D01*
X0068012Y0013021D01*
X0065365Y0014339D02*
X0060094Y0009068D01*
X0061411Y0007750D01*
X0064047Y0007750D01*
X0065365Y0009068D01*
X0065365Y0014339D01*
X0064047Y0015657D01*
X0061411Y0015657D01*
X0060094Y0014339D01*
X0060094Y0009068D01*
X0057446Y0007750D02*
X0052175Y0007750D01*
X0057446Y0013021D01*
X0057446Y0014339D01*
X0056128Y0015657D01*
X0053493Y0015657D01*
X0052175Y0014339D01*
X0041609Y0014339D02*
X0040291Y0015657D01*
X0037655Y0015657D01*
X0036337Y0014339D01*
X0036337Y0009068D01*
X0037655Y0007750D01*
X0040291Y0007750D01*
X0041609Y0009068D01*
X0033690Y0007750D02*
X0028419Y0007750D01*
X0028419Y0015657D01*
X0025771Y0014339D02*
X0025771Y0011703D01*
X0024453Y0010386D01*
X0020500Y0010386D01*
X0023135Y0010386D02*
X0025771Y0007750D01*
X0020500Y0007750D02*
X0020500Y0015657D01*
X0024453Y0015657D01*
X0025771Y0014339D01*
X0017852Y0011703D02*
X0017852Y0007750D01*
X0015217Y0007750D02*
X0015217Y0011703D01*
X0016534Y0013021D01*
X0017852Y0011703D01*
X0015217Y0011703D02*
X0013899Y0013021D01*
X0012581Y0013021D01*
X0012581Y0007750D01*
X0075931Y0015657D02*
X0081202Y0015657D01*
D12*
X0111000Y0014000D02*
X0111000Y0008000D01*
X0121000Y0008000D02*
X0121000Y0014000D01*
X0131000Y0014000D02*
X0131000Y0008000D01*
X0156000Y0008000D02*
X0156000Y0014000D01*
X0166000Y0014000D02*
X0166000Y0008000D01*
X0176000Y0008000D02*
X0176000Y0014000D01*
X0186000Y0014000D02*
X0186000Y0008000D01*
X0196000Y0008000D02*
X0196000Y0014000D01*
X0206000Y0014000D02*
X0206000Y0008000D01*
X0216000Y0008000D02*
X0216000Y0014000D01*
X0226000Y0014000D02*
X0226000Y0008000D01*
X0236000Y0008000D02*
X0236000Y0014000D01*
X0246000Y0014000D02*
X0246000Y0008000D01*
X0256000Y0008000D02*
X0256000Y0014000D01*
X0266000Y0014000D02*
X0266000Y0008000D01*
X0276000Y0008000D02*
X0276000Y0014000D01*
X0286000Y0014000D02*
X0286000Y0008000D01*
X0296000Y0008000D02*
X0296000Y0014000D01*
X0306000Y0014000D02*
X0306000Y0008000D01*
X0316000Y0008000D02*
X0316000Y0014000D01*
X0326000Y0014000D02*
X0326000Y0008000D01*
X0336000Y0008000D02*
X0336000Y0014000D01*
X0346000Y0014000D02*
X0346000Y0008000D01*
D13*
X0379750Y0061817D03*
X0364002Y0065754D03*
X0395498Y0065754D03*
X0400872Y0080783D03*
X0437378Y0080783D03*
X0480872Y0080783D03*
X0475498Y0065754D03*
X0459750Y0061817D03*
X0444002Y0065754D03*
X0357378Y0080783D03*
X0313372Y0080783D03*
X0307998Y0065754D03*
X0292250Y0061817D03*
X0276502Y0065754D03*
X0269878Y0080783D03*
X0233372Y0080783D03*
X0227998Y0065754D03*
X0212250Y0061817D03*
X0196502Y0065754D03*
X0189878Y0080783D03*
X0145872Y0080783D03*
X0140498Y0065754D03*
X0124750Y0061817D03*
X0109002Y0065754D03*
X0102378Y0080783D03*
X0065872Y0080783D03*
X0060498Y0065754D03*
X0044750Y0061817D03*
X0029002Y0065754D03*
X0022378Y0080783D03*
X0021878Y0098500D03*
X0066372Y0098500D03*
X0101878Y0098500D03*
X0146372Y0098500D03*
X0189378Y0098500D03*
X0233872Y0098500D03*
X0269378Y0098500D03*
X0313872Y0098500D03*
X0356878Y0098500D03*
X0401372Y0098500D03*
X0436878Y0098500D03*
X0481372Y0098500D03*
X0480872Y0116217D03*
X0437378Y0116217D03*
X0400872Y0116217D03*
X0357378Y0116217D03*
X0364002Y0131246D03*
X0379750Y0135183D03*
X0395498Y0131246D03*
X0444002Y0131246D03*
X0459750Y0135183D03*
X0475498Y0131246D03*
X0313372Y0116217D03*
X0307998Y0131246D03*
X0292250Y0135183D03*
X0276502Y0131246D03*
X0269878Y0116217D03*
X0233372Y0116217D03*
X0227998Y0131246D03*
X0212250Y0135183D03*
X0196502Y0131246D03*
X0189878Y0116217D03*
X0145872Y0116217D03*
X0140498Y0131246D03*
X0124750Y0135183D03*
X0109002Y0131246D03*
X0102378Y0116217D03*
X0065872Y0116217D03*
X0060498Y0131246D03*
X0044750Y0135183D03*
X0029002Y0131246D03*
X0022378Y0116217D03*
D14*
X0056000Y0028500D03*
X0096000Y0028500D03*
X0106000Y0028500D03*
X0146000Y0028500D03*
X0188500Y0028500D03*
X0228500Y0028500D03*
X0271000Y0028500D03*
X0311000Y0028500D03*
X0343500Y0028500D03*
X0383500Y0028500D03*
X0428500Y0028500D03*
X0468500Y0028500D03*
D15*
X0475498Y0035498D01*
X0475498Y0065754D01*
X0444002Y0065754D02*
X0443756Y0066000D01*
X0418500Y0066000D01*
X0411000Y0073500D01*
X0353500Y0073500D01*
X0349750Y0077250D01*
X0321000Y0077250D01*
X0317250Y0073500D01*
X0288500Y0073500D01*
X0280754Y0065754D01*
X0276502Y0065754D01*
X0276256Y0066000D01*
X0267250Y0066000D01*
X0244750Y0088500D01*
X0231000Y0088500D01*
X0216000Y0073500D01*
X0193500Y0073500D01*
X0186000Y0066000D01*
X0151000Y0066000D01*
X0143500Y0073500D01*
X0113500Y0073500D01*
X0109002Y0069002D01*
X0109002Y0065754D01*
X0093500Y0066000D02*
X0093500Y0090122D01*
X0101878Y0098500D01*
X0101878Y0104378D01*
X0111000Y0113500D01*
X0136000Y0113500D01*
X0141000Y0108500D01*
X0148500Y0108500D01*
X0156000Y0116000D01*
X0156000Y0138500D01*
X0161000Y0143500D01*
X0253500Y0143500D01*
X0258500Y0138500D01*
X0258500Y0109378D01*
X0269378Y0098500D01*
X0271000Y0098500D01*
X0286000Y0113500D01*
X0306000Y0113500D01*
X0311000Y0108500D01*
X0316000Y0108500D01*
X0323500Y0116000D01*
X0323500Y0138500D01*
X0328500Y0143500D01*
X0421000Y0143500D01*
X0426000Y0138500D01*
X0426000Y0109378D01*
X0436878Y0098500D01*
X0441000Y0091000D02*
X0446000Y0096000D01*
X0446000Y0106000D01*
X0453500Y0113500D01*
X0471000Y0113500D01*
X0478500Y0106000D01*
X0478500Y0101372D01*
X0481372Y0098500D01*
X0481000Y0098872D01*
X0448500Y0116000D02*
X0441000Y0108500D01*
X0433500Y0108500D01*
X0428500Y0113500D01*
X0428500Y0141000D01*
X0423500Y0146000D01*
X0323500Y0146000D01*
X0318500Y0141000D01*
X0318500Y0121000D01*
X0313372Y0115872D01*
X0313372Y0116217D01*
X0311089Y0118500D01*
X0283500Y0118500D01*
X0273500Y0108500D01*
X0266000Y0108500D01*
X0261000Y0113500D01*
X0261000Y0141000D01*
X0256000Y0146000D01*
X0156000Y0146000D01*
X0151000Y0141000D01*
X0151000Y0123500D01*
X0145872Y0118372D01*
X0145872Y0116217D01*
X0163500Y0118500D02*
X0163500Y0128500D01*
X0176000Y0123500D02*
X0251000Y0123500D01*
X0256000Y0118500D01*
X0256000Y0101000D01*
X0266000Y0091000D01*
X0281000Y0091000D01*
X0288500Y0083500D01*
X0298872Y0083500D01*
X0313872Y0098500D01*
X0313872Y0098872D01*
X0338500Y0123500D01*
X0418500Y0123500D01*
X0423500Y0118500D01*
X0423500Y0101000D01*
X0433500Y0091000D01*
X0441000Y0091000D01*
X0437378Y0080783D02*
X0424661Y0093500D01*
X0418500Y0093500D01*
X0406000Y0106000D01*
X0393500Y0106000D01*
X0386000Y0113500D01*
X0371000Y0113500D01*
X0366000Y0108500D01*
X0328500Y0108500D01*
X0321000Y0101000D01*
X0321000Y0093500D01*
X0318500Y0091000D01*
X0311000Y0091000D01*
X0300783Y0080783D01*
X0269878Y0080783D01*
X0244661Y0106000D01*
X0228500Y0106000D01*
X0221000Y0113500D01*
X0208500Y0113500D01*
X0203500Y0108500D01*
X0168500Y0108500D01*
X0151000Y0091000D01*
X0138500Y0091000D01*
X0131000Y0083500D01*
X0106000Y0083500D01*
X0103283Y0080783D01*
X0102378Y0080783D01*
X0086000Y0066000D02*
X0086000Y0099839D01*
X0102378Y0116217D01*
X0102378Y0119878D01*
X0106000Y0123500D01*
X0143500Y0123500D01*
X0148500Y0128500D01*
X0148500Y0143500D01*
X0153500Y0148500D01*
X0261000Y0148500D01*
X0266000Y0143500D01*
X0266000Y0120094D01*
X0269878Y0116217D01*
X0271217Y0116217D01*
X0276000Y0121000D01*
X0308500Y0121000D01*
X0316000Y0128500D01*
X0316000Y0143500D01*
X0321000Y0148500D01*
X0428500Y0148500D01*
X0433500Y0143500D01*
X0433500Y0120094D01*
X0437378Y0116217D01*
X0448500Y0116000D02*
X0480656Y0116000D01*
X0480872Y0116217D01*
X0467752Y0123500D02*
X0475498Y0131246D01*
X0459750Y0135183D02*
X0459750Y0149750D01*
X0453500Y0156000D01*
X0286000Y0156000D01*
X0291000Y0151000D01*
X0291000Y0136433D01*
X0292250Y0135183D01*
X0301000Y0133500D02*
X0301000Y0148500D01*
X0306000Y0153500D01*
X0438500Y0153500D01*
X0443500Y0148500D01*
X0443500Y0131748D01*
X0444002Y0131246D01*
X0441000Y0123500D02*
X0436000Y0128500D01*
X0436000Y0146000D01*
X0431000Y0151000D01*
X0313500Y0151000D01*
X0307998Y0145498D01*
X0307998Y0131246D01*
X0300252Y0123500D01*
X0273500Y0123500D01*
X0268500Y0128500D01*
X0268500Y0146000D01*
X0263500Y0151000D01*
X0146000Y0151000D01*
X0140498Y0145498D01*
X0140498Y0131246D01*
X0133500Y0133500D02*
X0133500Y0148500D01*
X0138500Y0153500D01*
X0271000Y0153500D01*
X0276000Y0148500D01*
X0276000Y0131748D01*
X0276502Y0131246D01*
X0276502Y0130498D01*
X0281000Y0126000D01*
X0293500Y0126000D01*
X0301000Y0133500D01*
X0328500Y0121000D02*
X0336000Y0128500D01*
X0356000Y0128500D01*
X0364002Y0130498D02*
X0364002Y0131246D01*
X0364002Y0130498D02*
X0368500Y0126000D01*
X0383500Y0126000D01*
X0388500Y0131000D01*
X0388500Y0136000D01*
X0391000Y0138500D01*
X0406000Y0138500D01*
X0379750Y0135183D02*
X0379317Y0135183D01*
X0376000Y0138500D01*
X0338500Y0138500D01*
X0333500Y0133500D01*
X0357378Y0116217D02*
X0390783Y0116217D01*
X0398500Y0108500D01*
X0411000Y0108500D01*
X0441000Y0123500D02*
X0467752Y0123500D01*
X0428500Y0083500D02*
X0421000Y0091000D01*
X0393500Y0091000D01*
X0386000Y0083500D01*
X0368500Y0083500D01*
X0361000Y0091000D01*
X0356000Y0091000D01*
X0345872Y0080872D01*
X0313372Y0080872D01*
X0313372Y0080783D01*
X0308589Y0076000D01*
X0278500Y0076000D01*
X0276000Y0073500D01*
X0266000Y0073500D01*
X0256000Y0083500D01*
X0248500Y0091000D01*
X0228500Y0091000D01*
X0221000Y0083500D01*
X0201000Y0083500D01*
X0196000Y0088500D01*
X0186000Y0088500D01*
X0173500Y0101000D01*
X0166000Y0101000D01*
X0145872Y0080872D01*
X0145872Y0080783D01*
X0156000Y0071000D02*
X0161000Y0076000D01*
X0161000Y0088500D01*
X0166000Y0093500D02*
X0166000Y0071000D01*
X0176000Y0071000D02*
X0176000Y0091000D01*
X0171000Y0096000D01*
X0151000Y0098500D02*
X0146372Y0098500D01*
X0151000Y0098500D02*
X0176000Y0123500D01*
X0133500Y0133500D02*
X0126000Y0126000D01*
X0113500Y0126000D01*
X0109002Y0130498D01*
X0109002Y0131246D01*
X0108756Y0131000D01*
X0101000Y0131000D01*
X0078500Y0108500D01*
X0078500Y0066000D01*
X0073500Y0061000D02*
X0073500Y0111000D01*
X0101000Y0138500D01*
X0121000Y0138500D01*
X0124317Y0135183D01*
X0124750Y0135183D01*
X0124750Y0149750D01*
X0131000Y0156000D01*
X0286000Y0156000D01*
X0328500Y0101000D02*
X0328500Y0086000D01*
X0333500Y0086000D02*
X0333500Y0101000D01*
X0338500Y0093500D02*
X0343500Y0098500D01*
X0356878Y0098500D01*
X0338500Y0093500D02*
X0338500Y0086000D01*
X0357378Y0080783D02*
X0388283Y0080783D01*
X0396000Y0088500D01*
X0408500Y0088500D01*
X0426000Y0071000D01*
X0433500Y0073500D02*
X0441000Y0073500D01*
X0446000Y0078500D01*
X0478589Y0078500D01*
X0480872Y0080783D01*
X0433500Y0073500D02*
X0428500Y0078500D01*
X0428500Y0083500D01*
X0411000Y0061000D02*
X0403500Y0053500D01*
X0361000Y0053500D01*
X0356000Y0058500D01*
X0326000Y0058500D01*
X0323500Y0061000D01*
X0318500Y0061000D01*
X0328500Y0063500D02*
X0328500Y0073500D01*
X0333500Y0073500D02*
X0333500Y0063500D01*
X0338500Y0063500D02*
X0338500Y0073500D01*
X0307998Y0065754D02*
X0307998Y0031502D01*
X0311000Y0028500D01*
X0323500Y0021000D02*
X0331000Y0028500D01*
X0343500Y0028500D01*
X0331000Y0021000D02*
X0408500Y0021000D01*
X0398500Y0028500D02*
X0391000Y0036000D01*
X0318500Y0036000D01*
X0313500Y0041000D02*
X0416000Y0041000D01*
X0411000Y0046000D02*
X0331000Y0046000D01*
X0321000Y0051000D02*
X0408500Y0051000D01*
X0411000Y0053500D01*
X0398500Y0028500D02*
X0428500Y0028500D01*
X0331000Y0021000D02*
X0326000Y0016000D01*
X0326000Y0011000D01*
X0323500Y0021000D02*
X0123500Y0021000D01*
X0121000Y0018500D01*
X0121000Y0011000D01*
X0121000Y0018500D02*
X0121000Y0023500D01*
X0116000Y0028500D01*
X0106000Y0028500D01*
X0131000Y0028500D02*
X0136000Y0023500D01*
X0246000Y0023500D01*
X0251000Y0028500D01*
X0271000Y0028500D01*
X0261000Y0036000D02*
X0303500Y0036000D01*
X0193500Y0036000D01*
X0188500Y0028500D01*
X0156000Y0028500D01*
X0148500Y0036000D01*
X0146000Y0028500D02*
X0140498Y0034002D01*
X0140498Y0065754D01*
X0156000Y0058500D02*
X0156000Y0041000D01*
X0166000Y0041000D02*
X0166000Y0058500D01*
X0176000Y0058500D02*
X0176000Y0041000D01*
X0246000Y0053500D02*
X0246000Y0076000D01*
X0248500Y0078500D01*
X0243500Y0081000D02*
X0241000Y0078500D01*
X0241000Y0068500D01*
X0268500Y0051000D02*
X0303500Y0051000D01*
D16*
X0303500Y0051000D03*
X0321000Y0051000D03*
X0331000Y0046000D03*
X0313500Y0041000D03*
X0318500Y0036000D03*
X0303500Y0036000D03*
X0268500Y0051000D03*
X0246000Y0053500D03*
X0241000Y0068500D03*
X0248500Y0078500D03*
X0243500Y0081000D03*
X0256000Y0083500D03*
X0318500Y0061000D03*
X0328500Y0063500D03*
X0333500Y0063500D03*
X0338500Y0063500D03*
X0338500Y0073500D03*
X0333500Y0073500D03*
X0328500Y0073500D03*
X0328500Y0086000D03*
X0333500Y0086000D03*
X0338500Y0086000D03*
X0333500Y0101000D03*
X0328500Y0101000D03*
X0328500Y0121000D03*
X0356000Y0128500D03*
X0333500Y0133500D03*
X0406000Y0138500D03*
X0411000Y0108500D03*
X0426000Y0071000D03*
X0411000Y0061000D03*
X0411000Y0053500D03*
X0411000Y0046000D03*
X0416000Y0041000D03*
X0408500Y0021000D03*
X0176000Y0041000D03*
X0166000Y0041000D03*
X0156000Y0041000D03*
X0148500Y0036000D03*
X0131000Y0028500D03*
X0156000Y0058500D03*
X0166000Y0058500D03*
X0176000Y0058500D03*
X0176000Y0071000D03*
X0166000Y0071000D03*
X0156000Y0071000D03*
X0161000Y0088500D03*
X0166000Y0093500D03*
X0171000Y0096000D03*
X0163500Y0118500D03*
X0163500Y0128500D03*
X0093500Y0066000D03*
X0086000Y0066000D03*
X0078500Y0066000D03*
X0073500Y0061000D03*
M02*
