%
M48
M72
T01C0.02362
T02C0.03200
T03C0.04000
T04C0.04331
T05C0.19685
%
T01
X131000Y28500
X148500Y36000
X156000Y41000
X166000Y41000
X176000Y41000
X176000Y58500
X166000Y58500
X156000Y58500
X156000Y71000
X166000Y71000
X176000Y71000
X161000Y88500
X166000Y93500
X171000Y96000
X163500Y118500
X163500Y128500
X256000Y83500
X248500Y78500
X243500Y81000
X241000Y68500
X246000Y53500
X268500Y51000
X303500Y51000
X321000Y51000
X331000Y46000
X313500Y41000
X318500Y36000
X303500Y36000
X318500Y61000
X328500Y63500
X333500Y63500
X338500Y63500
X338500Y73500
X333500Y73500
X328500Y73500
X328500Y86000
X333500Y86000
X338500Y86000
X333500Y101000
X328500Y101000
X328500Y121000
X356000Y128500
X333500Y133500
X406000Y138500
X411000Y108500
X426000Y71000
X411000Y61000
X411000Y53500
X411000Y46000
X416000Y41000
X408500Y21000
X93500Y66000
X86000Y66000
X78500Y66000
X73500Y61000
T02
X56000Y28500
X96000Y28500
X106000Y28500
X146000Y28500
X188500Y28500
X228500Y28500
X271000Y28500
X311000Y28500
X343500Y28500
X383500Y28500
X428500Y28500
X468500Y28500
T03
X346000Y11000
X336000Y11000
X326000Y11000
X316000Y11000
X306000Y11000
X296000Y11000
X286000Y11000
X276000Y11000
X266000Y11000
X256000Y11000
X246000Y11000
X236000Y11000
X226000Y11000
X216000Y11000
X206000Y11000
X196000Y11000
X186000Y11000
X176000Y11000
X166000Y11000
X156000Y11000
X131000Y11000
X121000Y11000
X111000Y11000
T04
X124750Y61817
X109002Y65754
X140498Y65754
X145872Y80783
X189878Y80783
X196502Y65754
X212250Y61817
X227998Y65754
X233372Y80783
X269878Y80783
X276502Y65754
X292250Y61817
X307998Y65754
X313372Y80783
X357378Y80783
X400872Y80783
X437378Y80783
X480872Y80783
X475498Y65754
X459750Y61817
X444002Y65754
X395498Y65754
X379750Y61817
X364002Y65754
X356878Y98500
X401372Y98500
X436878Y98500
X481372Y98500
X480872Y116217
X437378Y116217
X400872Y116217
X357378Y116217
X364002Y131246
X379750Y135183
X395498Y131246
X444002Y131246
X459750Y135183
X475498Y131246
X313372Y116217
X307998Y131246
X292250Y135183
X276502Y131246
X269878Y116217
X233372Y116217
X227998Y131246
X212250Y135183
X196502Y131246
X189878Y116217
X145872Y116217
X140498Y131246
X124750Y135183
X109002Y131246
X102378Y116217
X65872Y116217
X60498Y131246
X44750Y135183
X29002Y131246
X22378Y116217
X21878Y98500
X66372Y98500
X101878Y98500
X146372Y98500
X189378Y98500
X233872Y98500
X269378Y98500
X313872Y98500
X102378Y80783
X65872Y80783
X60498Y65754
X44750Y61817
X29002Y65754
X22378Y80783
T05
X46000Y98500
X126000Y98500
X213500Y98500
X293500Y98500
X381000Y98500
X461000Y98500
M30
