G75*
%MOIN*%
%OFA0B0*%
%FSLAX26Y26*%
%IPPOS*%
%LPD*%
%AMOC8*
5,1,8,0,0,1.08239X$1,22.5*
%
%ADD10C,0.060000*%
%ADD11C,0.100000*%
%ADD12OC8,0.052000*%
%ADD13C,0.016000*%
%ADD14OC8,0.039622*%
D10*
X01100000Y00070000D02*
X01100000Y00130000D01*
X01200000Y00130000D02*
X01200000Y00070000D01*
X01300000Y00070000D02*
X01300000Y00130000D01*
X01550000Y00130000D02*
X01550000Y00070000D01*
X01650000Y00070000D02*
X01650000Y00130000D01*
X01750000Y00130000D02*
X01750000Y00070000D01*
X01850000Y00070000D02*
X01850000Y00130000D01*
X01950000Y00130000D02*
X01950000Y00070000D01*
X02050000Y00070000D02*
X02050000Y00130000D01*
X02150000Y00130000D02*
X02150000Y00070000D01*
X02250000Y00070000D02*
X02250000Y00130000D01*
X02350000Y00130000D02*
X02350000Y00070000D01*
X02450000Y00070000D02*
X02450000Y00130000D01*
X02550000Y00130000D02*
X02550000Y00070000D01*
X02650000Y00070000D02*
X02650000Y00130000D01*
X02750000Y00130000D02*
X02750000Y00070000D01*
X02850000Y00070000D02*
X02850000Y00130000D01*
X02950000Y00130000D02*
X02950000Y00070000D01*
X03050000Y00070000D02*
X03050000Y00130000D01*
X03150000Y00130000D02*
X03150000Y00070000D01*
X03250000Y00070000D02*
X03250000Y00130000D01*
X03350000Y00130000D02*
X03350000Y00070000D01*
X03450000Y00070000D02*
X03450000Y00130000D01*
D11*
X03787500Y00608169D03*
X03630020Y00647539D03*
X03944980Y00647539D03*
X03998720Y00797835D03*
X04363780Y00797835D03*
X04798720Y00797835D03*
X04744980Y00647539D03*
X04587500Y00608169D03*
X04430020Y00647539D03*
X03563780Y00797835D03*
X03123720Y00797835D03*
X03069980Y00647539D03*
X02912500Y00608169D03*
X02755020Y00647539D03*
X02688780Y00797835D03*
X02323720Y00797835D03*
X02269980Y00647539D03*
X02112500Y00608169D03*
X01955020Y00647539D03*
X01888780Y00797835D03*
X01448720Y00797835D03*
X01394980Y00647539D03*
X01237500Y00608169D03*
X01080020Y00647539D03*
X01013780Y00797835D03*
X00648720Y00797835D03*
X00594980Y00647539D03*
X00437500Y00608169D03*
X00280020Y00647539D03*
X00213780Y00797835D03*
X00208780Y00975000D03*
X00653720Y00975000D03*
X01008780Y00975000D03*
X01453720Y00975000D03*
X01883780Y00975000D03*
X02328720Y00975000D03*
X02683780Y00975000D03*
X03128720Y00975000D03*
X03558780Y00975000D03*
X04003720Y00975000D03*
X04358780Y00975000D03*
X04803720Y00975000D03*
X04798720Y01152165D03*
X04363780Y01152165D03*
X03998720Y01152165D03*
X03563780Y01152165D03*
X03630020Y01302461D03*
X03787500Y01341831D03*
X03944980Y01302461D03*
X04430020Y01302461D03*
X04587500Y01341831D03*
X04744980Y01302461D03*
X03123720Y01152165D03*
X03069980Y01302461D03*
X02912500Y01341831D03*
X02755020Y01302461D03*
X02688780Y01152165D03*
X02323720Y01152165D03*
X02269980Y01302461D03*
X02112500Y01341831D03*
X01955020Y01302461D03*
X01888780Y01152165D03*
X01448720Y01152165D03*
X01394980Y01302461D03*
X01237500Y01341831D03*
X01080020Y01302461D03*
X01013780Y01152165D03*
X00648720Y01152165D03*
X00594980Y01302461D03*
X00437500Y01341831D03*
X00280020Y01302461D03*
X00213780Y01152165D03*
D12*
X00550000Y00275000D03*
X00950000Y00275000D03*
X01050000Y00275000D03*
X01450000Y00275000D03*
X01875000Y00275000D03*
X02275000Y00275000D03*
X02700000Y00275000D03*
X03100000Y00275000D03*
X03425000Y00275000D03*
X03825000Y00275000D03*
X04275000Y00275000D03*
X04675000Y00275000D03*
D13*
X04250000Y00375000D02*
X04075000Y00200000D01*
X04025000Y00150000D02*
X04025000Y00771555D01*
X03998720Y00797835D01*
X03996555Y00800000D01*
X03675000Y00800000D01*
X03600000Y00725000D01*
X03525000Y00725000D01*
X03475000Y00775000D01*
X03475000Y00825000D01*
X03400000Y00900000D01*
X03225000Y00900000D01*
X03200000Y00875000D01*
X03075000Y00875000D01*
X03000000Y00800000D01*
X02850000Y00800000D01*
X02775000Y00875000D01*
X02625000Y00875000D01*
X02575000Y00925000D01*
X02450000Y00925000D01*
X02323720Y00798720D01*
X02323720Y00797835D01*
X02275886Y00750000D01*
X01950000Y00750000D01*
X01925000Y00725000D01*
X01850000Y00725000D01*
X01775000Y00800000D01*
X01550000Y00800000D01*
X01475000Y00875000D01*
X01400000Y00875000D01*
X01350000Y00825000D01*
X01150000Y00825000D01*
X01100000Y00875000D01*
X00725000Y00875000D01*
X00648720Y00798720D01*
X00648720Y00797835D01*
X00600000Y00900000D02*
X00500000Y00800000D01*
X00275000Y00800000D01*
X00272835Y00797835D01*
X00213780Y00797835D01*
X00350000Y00725000D02*
X01475000Y00725000D01*
X01525000Y00775000D01*
X01750000Y00775000D01*
X01875000Y00650000D01*
X01952559Y00650000D01*
X01955020Y00647539D01*
X01997539Y00647539D01*
X02075000Y00725000D01*
X03100000Y00725000D01*
X03150000Y00675000D01*
X03602559Y00675000D01*
X03630020Y00647539D01*
X03625000Y00642520D01*
X03625000Y00250000D01*
X03575000Y00200000D01*
X03400000Y00200000D01*
X03350000Y00150000D01*
X03350000Y00100000D01*
X03450000Y00100000D02*
X03975000Y00100000D01*
X04025000Y00150000D01*
X03875000Y00275000D02*
X03825000Y00275000D01*
X03875000Y00275000D02*
X03944980Y00344980D01*
X03944980Y00647539D01*
X04050000Y00625000D02*
X04050000Y00575000D01*
X04100000Y00525000D01*
X04150000Y00500000D02*
X04100000Y00450000D01*
X04150000Y00400000D02*
X04200000Y00450000D01*
X04200000Y01325000D01*
X04150000Y01375000D01*
X04050000Y01375000D01*
X03944980Y01302461D02*
X03867520Y01225000D01*
X03600000Y01225000D01*
X03550000Y01275000D01*
X03550000Y01450000D01*
X03500000Y01500000D01*
X02325000Y01500000D01*
X02269980Y01444980D01*
X02269980Y01302461D01*
X02192520Y01225000D01*
X01925000Y01225000D01*
X01875000Y01275000D01*
X01875000Y01450000D01*
X01825000Y01500000D01*
X00650000Y01500000D01*
X00594980Y01444980D01*
X00594980Y01302461D01*
X00525000Y01325000D02*
X00525000Y01475000D01*
X00575000Y01525000D01*
X01900000Y01525000D01*
X01950000Y01475000D01*
X01950000Y01307480D01*
X01955020Y01302461D01*
X01955020Y01294980D01*
X02000000Y01250000D01*
X02125000Y01250000D01*
X02200000Y01325000D01*
X02200000Y01475000D01*
X02250000Y01525000D01*
X03575000Y01525000D01*
X03625000Y01475000D01*
X03625000Y01307480D01*
X03630020Y01302461D01*
X03787500Y01341831D02*
X03787500Y01487500D01*
X03725000Y01550000D01*
X02075000Y01550000D01*
X02125000Y01500000D01*
X02125000Y01354331D01*
X02112500Y01341831D01*
X02275000Y01200000D02*
X02350000Y01275000D01*
X02350000Y01425000D01*
X02400000Y01475000D01*
X03450000Y01475000D01*
X03500000Y01425000D01*
X03500000Y01215945D01*
X03563780Y01152165D01*
X03525000Y01075000D02*
X03475000Y01125000D01*
X03475000Y01400000D01*
X03425000Y01450000D01*
X02425000Y01450000D01*
X02375000Y01400000D01*
X02375000Y01200000D01*
X02323720Y01148720D01*
X02323720Y01152165D01*
X02300886Y01175000D01*
X02025000Y01175000D01*
X01925000Y01075000D01*
X01850000Y01075000D01*
X01800000Y01125000D01*
X01800000Y01400000D01*
X01750000Y01450000D01*
X00750000Y01450000D01*
X00700000Y01400000D01*
X00700000Y01250000D01*
X00648720Y01198720D01*
X00648720Y01152165D01*
X00725000Y01125000D02*
X00725000Y01375000D01*
X00775000Y01425000D01*
X01725000Y01425000D01*
X01775000Y01375000D01*
X01775000Y01083780D01*
X01883780Y00975000D01*
X01883780Y00983780D01*
X02050000Y01150000D01*
X02225000Y01150000D01*
X02300000Y01075000D01*
X02350000Y01075000D01*
X02400000Y01125000D01*
X02400000Y01375000D01*
X02450000Y01425000D01*
X03400000Y01425000D01*
X03450000Y01375000D01*
X03450000Y01083780D01*
X03558780Y00975000D01*
X03525000Y00900000D02*
X03425000Y01000000D01*
X03425000Y01350000D01*
X03375000Y01400000D01*
X03250000Y01400000D01*
X03225000Y01375000D01*
X03225000Y01275000D01*
X03175000Y01225000D01*
X02475000Y01225000D01*
X02425000Y01175000D01*
X02425000Y01075000D01*
X02328720Y00978720D01*
X02328720Y00975000D01*
X02325000Y00978720D01*
X02325000Y01000000D01*
X02200000Y01125000D01*
X02075000Y01125000D01*
X01975000Y01025000D01*
X01975000Y00950000D01*
X01925000Y00900000D01*
X01825000Y00900000D01*
X01750000Y00975000D01*
X01750000Y01175000D01*
X01700000Y01225000D01*
X00800000Y01225000D01*
X00750000Y01175000D01*
X00750000Y01075000D01*
X00653720Y00978720D01*
X00653720Y00975000D01*
X00600000Y00900000D02*
X01125000Y00900000D01*
X01175000Y00850000D01*
X01325000Y00850000D01*
X01375000Y00900000D01*
X01500000Y00900000D01*
X01575000Y00825000D01*
X01861614Y00825000D01*
X01888780Y00797835D01*
X02172835Y00797835D01*
X02275000Y00900000D01*
X02375000Y00900000D01*
X02425000Y00950000D01*
X02600000Y00950000D01*
X02650000Y00900000D01*
X02800000Y00900000D01*
X02875000Y00825000D01*
X02975000Y00825000D01*
X03050000Y00900000D01*
X03175000Y00900000D01*
X03225000Y00950000D01*
X03411614Y00950000D01*
X03563780Y00797835D01*
X03375000Y00850000D02*
X03375000Y00725000D01*
X03325000Y00725000D02*
X03325000Y00850000D01*
X03275000Y00850000D02*
X03275000Y00725000D01*
X03275000Y00625000D02*
X03200000Y00550000D01*
X03000000Y00550000D01*
X02950000Y00500000D01*
X02925000Y00500000D01*
X02750000Y00325000D01*
X02750000Y00100000D01*
X02650000Y00100000D02*
X02650000Y00350000D01*
X02825000Y00525000D01*
X02925000Y00525000D01*
X02975000Y00575000D01*
X03150000Y00575000D01*
X03175000Y00600000D01*
X03325000Y00625000D02*
X03325000Y00550000D01*
X03225000Y00450000D01*
X02950000Y00450000D01*
X02850000Y00350000D01*
X02850000Y00100000D01*
X02950000Y00100000D02*
X02950000Y00350000D01*
X03000000Y00400000D01*
X03125000Y00400000D01*
X03250000Y00400000D02*
X03250000Y00350000D01*
X03050000Y00150000D01*
X03050000Y00100000D01*
X03150000Y00100000D02*
X03150000Y00125000D01*
X03375000Y00350000D01*
X03375000Y00625000D01*
X03627559Y00650000D02*
X03630020Y00647539D01*
X04050000Y00625000D02*
X04075000Y00650000D01*
X04075000Y00875000D01*
X04003720Y00946280D01*
X04003720Y00975000D01*
X04000000Y00978720D01*
X04000000Y01050000D01*
X03925000Y01125000D01*
X03700000Y01125000D01*
X03625000Y01050000D01*
X03625000Y00925000D01*
X03600000Y00900000D01*
X03525000Y00900000D01*
X03325000Y01000000D02*
X03325000Y01325000D01*
X03275000Y01200000D02*
X03275000Y01000000D01*
X03525000Y01075000D02*
X03600000Y01075000D01*
X03725000Y01200000D01*
X03950886Y01200000D01*
X03998720Y01152165D01*
X04000000Y01150886D01*
X04000000Y01100000D01*
X04100000Y01000000D01*
X04100000Y00600000D01*
X04150000Y00500000D02*
X04150000Y01025000D01*
X04100000Y01075000D01*
X04250000Y00700000D02*
X04250000Y00375000D01*
X03300000Y00450000D02*
X03250000Y00400000D01*
X03175000Y00350000D02*
X03025000Y00350000D01*
X03025000Y00500000D02*
X03200000Y00500000D01*
X02755020Y00647539D02*
X02752559Y00650000D01*
X02475000Y00650000D01*
X02400000Y00575000D01*
X02400000Y00200000D01*
X02350000Y00150000D01*
X02350000Y00100000D01*
X02250000Y00100000D02*
X02250000Y00125000D01*
X02350000Y00225000D01*
X02350000Y00625000D01*
X02400000Y00675000D01*
X02269980Y00647539D02*
X02269980Y00305020D01*
X02275000Y00275000D01*
X02550000Y00375000D02*
X02675000Y00500000D01*
X02450000Y00525000D02*
X02450000Y00100000D01*
X02550000Y00100000D02*
X02550000Y00375000D01*
X02150000Y00475000D02*
X02100000Y00525000D01*
X01050000Y00525000D01*
X00925000Y00650000D01*
X00850000Y00650000D02*
X01000000Y00500000D01*
X02000000Y00500000D01*
X02050000Y00450000D01*
X02050000Y00100000D01*
X01950000Y00100000D02*
X01950000Y00425000D01*
X01900000Y00475000D01*
X00975000Y00475000D01*
X00775000Y00650000D01*
X00725000Y00600000D02*
X00875000Y00450000D01*
X01800000Y00450000D01*
X01825000Y00425000D01*
X01825000Y00250000D01*
X01850000Y00225000D01*
X01850000Y00100000D01*
X01750000Y00100000D02*
X01750000Y00400000D01*
X01650000Y00400000D02*
X01650000Y00100000D01*
X01550000Y00100000D02*
X01550000Y00400000D01*
X01475000Y00350000D02*
X00950000Y00350000D01*
X00900000Y00300000D01*
X00900000Y00150000D01*
X00950000Y00100000D01*
X01100000Y00100000D01*
X01300000Y00100000D02*
X01300000Y00125000D01*
X01300000Y00175000D01*
X01300000Y00275000D01*
X01250000Y00225000D02*
X01300000Y00175000D01*
X01250000Y00225000D02*
X01000000Y00225000D01*
X00950000Y00275000D01*
X00594980Y00319980D02*
X00550000Y00275000D01*
X00594980Y00319980D02*
X00594980Y00647539D01*
X00350000Y00725000D02*
X00280020Y00655020D01*
X00280020Y00647539D01*
X00208780Y00975000D02*
X00208780Y01033780D01*
X00325000Y01150000D01*
X00525000Y01150000D01*
X00600000Y01075000D01*
X00675000Y01075000D01*
X00725000Y01125000D01*
X00600000Y01200000D02*
X00675000Y01275000D01*
X00675000Y01425000D01*
X00725000Y01475000D01*
X01800000Y01475000D01*
X01850000Y01425000D01*
X01850000Y01190945D01*
X01888780Y01152165D01*
X01927165Y01152165D01*
X01975000Y01200000D01*
X02275000Y01200000D01*
X01700000Y00950000D02*
X01625000Y01025000D01*
X01625000Y01175000D01*
X01448720Y01152165D02*
X01448720Y01126280D01*
X01650000Y00925000D01*
X01600000Y00875000D02*
X01500000Y00975000D01*
X01453720Y00975000D01*
X01550000Y00700000D02*
X01550000Y00575000D01*
X01650000Y00575000D02*
X01650000Y00700000D01*
X01750000Y00700000D02*
X01750000Y00575000D01*
X02150000Y00475000D02*
X02150000Y00100000D01*
X02475000Y00775000D02*
X02525000Y00825000D01*
X02550000Y00825000D01*
X02575000Y00875000D02*
X02650000Y00800000D01*
X02686614Y00800000D01*
X02688780Y00797835D01*
X02575000Y00875000D02*
X02500000Y00875000D01*
X02425000Y00800000D01*
X01625000Y01275000D02*
X01597539Y01302461D01*
X01394980Y01302461D01*
X02075000Y01550000D02*
X00500000Y01550000D01*
X00437500Y01487500D01*
X00437500Y01341831D01*
X00525000Y01325000D02*
X00450000Y01250000D01*
X00325000Y01250000D01*
X00280020Y01294980D01*
X00280020Y01302461D01*
X00275000Y01200000D02*
X00600000Y01200000D01*
X00275000Y01200000D02*
X00227165Y01152165D01*
X00213780Y01152165D01*
D14*
X01550000Y00700000D03*
X01650000Y00700000D03*
X01750000Y00700000D03*
X01750000Y00575000D03*
X01650000Y00575000D03*
X01550000Y00575000D03*
X01550000Y00400000D03*
X01650000Y00400000D03*
X01750000Y00400000D03*
X01475000Y00350000D03*
X01300000Y00275000D03*
X00725000Y00600000D03*
X00775000Y00650000D03*
X00850000Y00650000D03*
X00925000Y00650000D03*
X01600000Y00875000D03*
X01650000Y00925000D03*
X01700000Y00950000D03*
X01625000Y01175000D03*
X01625000Y01275000D03*
X02550000Y00825000D03*
X02475000Y00775000D03*
X02425000Y00800000D03*
X02400000Y00675000D03*
X02450000Y00525000D03*
X02675000Y00500000D03*
X03025000Y00500000D03*
X03200000Y00500000D03*
X03300000Y00450000D03*
X03125000Y00400000D03*
X03175000Y00350000D03*
X03025000Y00350000D03*
X03175000Y00600000D03*
X03275000Y00625000D03*
X03325000Y00625000D03*
X03375000Y00625000D03*
X03375000Y00725000D03*
X03325000Y00725000D03*
X03275000Y00725000D03*
X03275000Y00850000D03*
X03325000Y00850000D03*
X03375000Y00850000D03*
X03325000Y01000000D03*
X03275000Y01000000D03*
X03275000Y01200000D03*
X03550000Y01275000D03*
X03325000Y01325000D03*
X04050000Y01375000D03*
X04100000Y01075000D03*
X04250000Y00700000D03*
X04100000Y00600000D03*
X04100000Y00525000D03*
X04100000Y00450000D03*
X04150000Y00400000D03*
X04075000Y00200000D03*
M02*
